<?xml version="1.0" encoding="UTF-8" standalone="no"?>
<!-- Created with Inkscape (http://www.inkscape.org/) -->

<svg
   xmlns:dc="http://purl.org/dc/elements/1.1/"
   xmlns:cc="http://creativecommons.org/ns#"
   xmlns:rdf="http://www.w3.org/1999/02/22-rdf-syntax-ns#"
   xmlns:svg="http://www.w3.org/2000/svg"
   xmlns="http://www.w3.org/2000/svg"
   xmlns:sodipodi="http://sodipodi.sourceforge.net/DTD/sodipodi-0.dtd"
   xmlns:inkscape="http://www.inkscape.org/namespaces/inkscape"
   width="12"
   height="12"
   id="svg26761"
   version="1.1"
   inkscape:version="0.48.3.1 r9886"
   sodipodi:docname="checkbox-menuitem-checked.svg">
  <defs
     id="defs26763" />
  <sodipodi:namedview
     id="base"
     pagecolor="#e8e6df"
     bordercolor="#666666"
     borderopacity="1.0"
     inkscape:pageopacity="0.0"
     inkscape:pageshadow="2"
     inkscape:zoom="43.615213"
     inkscape:cx="3.7464546"
     inkscape:cy="4.6210723"
     inkscape:current-layer="layer1"
     showgrid="true"
     inkscape:grid-bbox="true"
     inkscape:document-units="px"
     inkscape:window-width="1039"
     inkscape:window-height="642"
     inkscape:window-x="128"
     inkscape:window-y="29"
     inkscape:window-maximized="0" />
  <metadata
     id="metadata26766">
    <rdf:RDF>
      <cc:Work
         rdf:about="">
        <dc:format>image/svg+xml</dc:format>
        <dc:type
           rdf:resource="http://purl.org/dc/dcmitype/StillImage" />
        <dc:title />
      </cc:Work>
    </rdf:RDF>
  </metadata>
  <g
     id="layer1"
     inkscape:label="Layer 1"
     inkscape:groupmode="layer"
     transform="translate(0,-4)">
    <path
       sodipodi:nodetypes="ccc"
       d="M 1,11.785715 3.9948567,15 11,7.5000002"
       style="fill:none;stroke:#aaaaaa;stroke-width:2;stroke-linecap:round;stroke-linejoin:round;stroke-miterlimit:4;stroke-opacity:1;stroke-dasharray:none;display:inline;enable-background:new"
       id="path6301-5"
       inkscape:connector-curvature="0" />
    <path
       style="fill:#ff7f2a;fill-opacity:1"
       d="M 3.7754464,11.963403 C 3.6256873,11.925392 3.4750192,11.848938 3.3652962,11.75528 3.2953727,11.695595 0.92505325,9.1642898 0.28800897,8.4689923 0.15465131,8.3234399 0.05618301,8.1235762 0.02555492,7.936282 -0.05332626,7.453915 0.25821638,6.9728636 0.73887101,6.8348541 0.82453246,6.8102584 0.90065672,6.8044482 1.0543081,6.810779 c 0.1902377,0.00784 0.2123038,0.013099 0.3636467,0.086703 0.1103234,0.053654 0.1971784,0.1137669 0.2754933,0.1906704 0.062906,0.061772 0.6030191,0.6371247 1.2002526,1.2785623 0.5972333,0.6414374 1.0947586,1.1656542 1.1056117,1.164926 0.010853,-7.282e-4 1.4382813,-1.5211823 3.172063,-3.3787874 1.7337815,-1.8576048 3.1880696,-3.4042335 3.2317506,-3.4369524 0.292976,-0.2194488 0.686403,-0.2622299 1.01208,-0.1100531 0.538416,0.2515823 0.736702,0.9329682 0.414214,1.4234001 -0.106613,0.1621356 -7.1472258,7.6933805 -7.2734661,7.7803255 -0.220438,0.151821 -0.5401578,0.214835 -0.7805075,0.15383 l 0,0 z"
       id="path2983"
       inkscape:connector-curvature="0"
       transform="translate(0,4)" />
    <path
       style="fill:#00ffff;fill-opacity:1"
       d="M 3.7000738,11.926831 C 3.6294822,11.901916 3.532546,11.857062 3.4846603,11.827156 3.4344649,11.795807 3.0928883,11.449886 2.6780535,11.01029 1.9252078,10.212508 0.46761519,8.6491851 0.29927518,8.4589616 0.18820476,8.3334525 0.09476081,8.1617164 0.0538129,8.0078385 -0.05791831,7.5879641 0.17368908,7.1118184 0.58783648,6.9099758 l 0.15249816,-0.074323 0.26687176,0 0.2668718,0 0.1341223,0.071701 c 0.073767,0.039436 0.1670021,0.098803 0.2071885,0.1319284 0.058716,0.048399 1.6838554,1.7640593 2.2297268,2.3539239 0.072087,0.077897 0.1414958,0.1390642 0.1542423,0.1359283 0.030974,-0.00762 0.3925871,-0.3906277 3.1459454,-3.3320679 2.8647475,-3.0604379 3.2493635,-3.4658707 3.3405575,-3.5213558 0.342049,-0.2081132 0.772298,-0.1908947 1.090916,0.043658 0.281828,0.2074697 0.439459,0.5836847 0.386882,0.9233622 -0.03278,0.2117466 -0.107005,0.3428237 -0.34004,0.6004525 -0.741262,0.8194949 -4.9666926,5.3459566 -6.2975095,6.7461607 -0.2680628,0.28204 -0.5488502,0.578543 -0.6239723,0.658897 -0.086571,0.0926 -0.1779631,0.168152 -0.2495837,0.206325 -0.2324699,0.123906 -0.5262313,0.152117 -0.7524797,0.07226 l 0,0 z"
       id="path2985"
       inkscape:connector-curvature="0"
       transform="translate(0,4)" />
  </g>
</svg>
