<?xml version="1.0" encoding="UTF-8" standalone="no"?>
<!-- Created with Inkscape (http://www.inkscape.org/) -->

<svg
   xmlns:dc="http://purl.org/dc/elements/1.1/"
   xmlns:cc="http://creativecommons.org/ns#"
   xmlns:rdf="http://www.w3.org/1999/02/22-rdf-syntax-ns#"
   xmlns:svg="http://www.w3.org/2000/svg"
   xmlns="http://www.w3.org/2000/svg"
   xmlns:sodipodi="http://sodipodi.sourceforge.net/DTD/sodipodi-0.dtd"
   xmlns:inkscape="http://www.inkscape.org/namespaces/inkscape"
   width="12"
   height="12"
   id="svg27352"
   version="1.1"
   inkscape:version="0.48.3.1 r9886"
   sodipodi:docname="radio-menuitem-mixed.svg">
  <defs
     id="defs27354" />
  <sodipodi:namedview
     id="base"
     pagecolor="#e8e6df"
     bordercolor="#666666"
     borderopacity="1.0"
     inkscape:pageopacity="0.0"
     inkscape:pageshadow="2"
     inkscape:zoom="61.988452"
     inkscape:cx="7.635968"
     inkscape:cy="3.1221668"
     inkscape:current-layer="layer1"
     showgrid="true"
     inkscape:grid-bbox="true"
     inkscape:document-units="px"
     inkscape:window-width="1366"
     inkscape:window-height="744"
     inkscape:window-x="0"
     inkscape:window-y="24"
     inkscape:window-maximized="1" />
  <metadata
     id="metadata27357">
    <rdf:RDF>
      <cc:Work
         rdf:about="">
        <dc:format>image/svg+xml</dc:format>
        <dc:type
           rdf:resource="http://purl.org/dc/dcmitype/StillImage" />
        <dc:title />
      </cc:Work>
    </rdf:RDF>
  </metadata>
  <g
     id="layer1"
     inkscape:label="Layer 1"
     inkscape:groupmode="layer"
     transform="translate(0,-4)">
    <rect
       style="color:#1a1a1c;fill:#ff7f2a;fill-opacity:1;fill-rule:nonzero;stroke:none;stroke-width:1;marker:none;visibility:visible;display:inline;overflow:visible;enable-background:accumulate"
       id="rect5494"
       width="7"
       height="2"
       x="1.5"
       y="11"
       rx="1.1870629"
       ry="1" />
    <path
       style="fill:#00ffff;fill-opacity:0.24636727"
       d="M 2.4551181,8.9724013 C 2.3286562,8.9514344 2.1139741,8.8741868 2.0069262,8.8111315 1.9562355,8.7812728 1.8599815,8.7023973 1.7930284,8.6358527 1.5987069,8.4427167 1.5109881,8.2399947 1.5134158,7.9896552 1.5157484,7.7491088 1.6054482,7.548133 1.7944999,7.3598755 1.8958825,7.2589188 1.9470654,7.2229094 2.0851303,7.1554041 2.3991482,7.0018686 2.134954,7.014583 5.0112856,7.014583 l 2.5327298,0 0.1451883,0.04529 C 8.4345314,7.292371 8.7196348,8.0106715 8.2843674,8.5593509 8.136463,8.7457927 7.8632019,8.9044851 7.594613,8.9599158 7.4537642,8.9889838 7.3384029,8.9902593 4.9951535,8.9886597 3.6185533,8.9877192 2.5045024,8.980589 2.4551181,8.9724013 l 0,0 z"
       id="path2983"
       inkscape:connector-curvature="0"
       transform="translate(0,4)" />
    <path
       style="fill:#00ffff;fill-opacity:0.24636727"
       d="M 2.4543577,8.9581066 C 2.2651828,8.9353364 2.0530799,8.8407594 1.8854816,8.7044437 1.3268833,8.2501097 1.421993,7.5122282 2.0834402,7.1686372 2.1765371,7.1202777 2.2998935,7.0700937 2.3575655,7.0571172 2.4464848,7.03711 2.8484331,7.0325709 5.001888,7.0272557 l 2.5394643,-0.00627 0.1303878,0.042753 c 0.2280633,0.074781 0.3731723,0.1613836 0.5258147,0.3138126 0.2009644,0.2006833 0.276548,0.372083 0.2777368,0.6298185 0.0019,0.4122047 -0.289006,0.7530487 -0.7860879,0.9210268 l -0.1129243,0.03816 -2.5085317,0.00208 c -1.3796925,0.00115 -2.5557179,-0.0036 -2.61339,-0.010537 l 0,0 z"
       id="path2985"
       inkscape:connector-curvature="0"
       transform="translate(0,4)" />
    <path
       style="fill:#00ffff;fill-opacity:0.24636727"
       d="M 2.34426,8.9257633 C 2.0748042,8.8551781 1.8268902,8.6829592 1.6812249,8.4651716 1.5778523,8.3106166 1.5348316,8.1738772 1.5348316,7.9998659 c 0,-0.411475 0.2864389,-0.7489413 0.7824038,-0.9217844 0.074799,-0.026067 0.2676201,-0.028984 2.6534042,-0.040136 l 2.572744,-0.012026 0.1477174,0.053472 c 0.1933008,0.069972 0.234317,0.091519 0.370067,0.194403 0.3060333,0.2319414 0.4389856,0.5120335 0.3957046,0.8336356 -0.048761,0.3623245 -0.2902769,0.6266683 -0.7264564,0.795121 L 7.5855618,8.9584934 5.0239928,8.9576052 C 2.5519421,8.9567479 2.4582943,8.9556352 2.34426,8.9257633 z"
       id="path2987"
       inkscape:connector-curvature="0"
       transform="translate(0,4)" />
    <path
       style="fill:#00ffff;fill-opacity:0.24636727"
       d="M 3.6884586,8.9426482 C 2.3942774,8.9339813 2.3637023,8.9330551 2.2765427,8.899877 1.9112492,8.7608248 1.6482562,8.5016948 1.567302,8.2010538 1.5408074,8.1026606 1.544019,7.8806912 1.573367,7.7818657 1.6575695,7.4983251 1.8890968,7.2646635 2.2273752,7.1218287 2.2959253,7.0928841 2.3650563,7.0807441 2.5188859,7.0706373 2.6297936,7.0633505 3.8094488,7.0523087 5.1403419,7.0461 l 2.4198055,-0.011289 0.1621128,0.0635 C 7.9830812,7.2004748 8.1857323,7.3552034 8.3157191,7.5514301 8.5376272,7.8864202 8.4912474,8.3077767 8.2003865,8.5992142 8.0791316,8.7207093 7.9806838,8.7840217 7.7586052,8.883326 l -0.1500617,0.067101 -1.298629,5.398e-4 C 5.5956686,8.951264 4.4160134,8.9475204 3.6884586,8.9426482 z"
       id="path2989"
       inkscape:connector-curvature="0"
       transform="translate(0,4)" />
    <path
       style="fill:#00ffff;fill-opacity:0.24636727"
       d="M 2.9221868,8.9267736 2.3333675,8.9175013 2.2192993,8.8681832 C 2.0597145,8.7991857 1.9316966,8.7116391 1.8069218,8.5861735 1.4314084,8.2085812 1.4836743,7.6370244 1.9239835,7.306038 2.107876,7.1678035 2.2735486,7.0996374 2.4732555,7.0800395 c 0.050321,-0.00494 1.2137962,-0.016406 2.5855012,-0.025485 l 2.4940092,-0.016506 0.153098,0.063038 C 7.9245858,7.191145 8.026562,7.2561037 8.1652046,7.3936858 8.3780341,7.6048873 8.448865,7.7761726 8.4349095,8.045894 8.4262006,8.214215 8.4022505,8.298146 8.3287073,8.4180702 8.2117776,8.6087429 8.0664298,8.7286909 7.7978807,8.8561339 l -0.1816996,0.086227 -2.0525875,-0.00316 c -1.1289232,-0.00174 -2.3175562,-0.00733 -2.6414068,-0.01243 z"
       id="path2991"
       inkscape:connector-curvature="0"
       transform="translate(0,4)" />
    <path
       style="fill:#00ffff;fill-opacity:0.24636727"
       d="M 4.2288818,8.9260867 2.3333675,8.916256 2.2218659,8.8642841 C 1.960893,8.7426421 1.7471207,8.5529487 1.6510411,8.357756 1.588587,8.230876 1.567939,8.1419229 1.5676815,7.9986372 1.5672686,7.7687939 1.6461865,7.5886421 1.8256217,7.4098179 1.9591846,7.2767098 2.075264,7.2010515 2.2407445,7.1392488 2.3467099,7.0996736 2.36481,7.0982828 2.9463849,7.0850291 c 0.3282869,-0.00748 1.497053,-0.020194 2.5972579,-0.028249 l 2.0003726,-0.014647 0.172476,0.072032 c 0.3436394,0.1435167 0.5995895,0.3843 0.6760331,0.6359734 0.028242,0.092981 0.03314,0.1437897 0.028364,0.2942338 -0.00546,0.1720208 -0.00901,0.1883354 -0.065725,0.3019696 -0.1113748,0.2231562 -0.2446352,0.342674 -0.559547,0.5018435 L 7.6092928,8.9423614 6.8668446,8.9391395 C 6.4584979,8.9373674 5.2714147,8.9314937 4.2288818,8.9260867 z"
       id="path2993"
       inkscape:connector-curvature="0"
       transform="translate(0,4)" />
    <path
       style="fill:#00ffff;fill-opacity:0.24636727"
       d="M 4.761239,8.9243221 2.3333675,8.9116265 2.1992615,8.8437861 C 1.8992348,8.6920112 1.7064082,8.4977892 1.6164432,8.2567498 1.5488979,8.0757785 1.5729626,7.7791688 1.6681422,7.6195344 1.7775469,7.4360417 1.9943547,7.2504808 2.2005767,7.1638355 2.3133153,7.1164678 2.3274849,7.1145982 2.6719272,7.1016447 3.0972106,7.085651 5.8882502,7.0544673 6.8711287,7.0547279 l 0.6983366,1.852e-4 0.1324633,0.05994 c 0.3300118,0.1493303 0.5375618,0.3246531 0.6489001,0.5481424 0.043564,0.087447 0.047101,0.1090321 0.053295,0.3253148 l 0.00663,0.2316532 -0.061344,0.1208575 C 8.2406053,8.5551923 8.1021806,8.6786276 7.7765679,8.8516369 L 7.6058193,8.9423614 7.397465,8.9396894 C 7.2828699,8.9382198 6.0965684,8.9313045 4.761239,8.9243221 z"
       id="path2995"
       inkscape:connector-curvature="0"
       transform="translate(0,4)" />
    <path
       style="fill:#00ffff;fill-opacity:0.24636727"
       d="M 4.8912272,8.9221355 2.3352314,8.907431 2.2375072,8.8583069 C 1.8387637,8.6578658 1.6087181,8.3814781 1.5879252,8.0778682 1.5772994,7.9227139 1.6141288,7.7248162 1.6720103,7.6260489 1.7671839,7.4636474 1.9544495,7.2977114 2.1618175,7.192031 2.2685426,7.137641 2.2919259,7.1323246 2.4826031,7.1190978 2.7161103,7.1028999 4.4781139,7.0765826 6.3179806,7.0618127 l 1.2421668,-0.00997 0.2097165,0.1053013 c 0.3023335,0.1518055 0.4770875,0.3060586 0.5754517,0.5079441 0.029946,0.061463 0.039537,0.1190496 0.051769,0.3108441 l 0.015013,0.2354058 -0.063004,0.1179383 C 8.2335683,8.5455273 8.085831,8.677299 7.7634315,8.8516448 7.6224713,8.9278727 7.5838236,8.9419205 7.521451,8.9396007 7.4806257,8.9380827 6.297025,8.930223 4.8912272,8.9221355 l 0,0 z"
       id="path2997"
       inkscape:connector-curvature="0"
       transform="translate(0,4)" />
  </g>
</svg>
