<?xml version="1.0" encoding="UTF-8" standalone="no"?>
<!-- Created with Inkscape (http://www.inkscape.org/) -->

<svg
   xmlns:dc="http://purl.org/dc/elements/1.1/"
   xmlns:cc="http://creativecommons.org/ns#"
   xmlns:rdf="http://www.w3.org/1999/02/22-rdf-syntax-ns#"
   xmlns:svg="http://www.w3.org/2000/svg"
   xmlns="http://www.w3.org/2000/svg"
   xmlns:xlink="http://www.w3.org/1999/xlink"
   xmlns:sodipodi="http://sodipodi.sourceforge.net/DTD/sodipodi-0.dtd"
   xmlns:inkscape="http://www.inkscape.org/namespaces/inkscape"
   width="16"
   height="16"
   id="svg814"
   version="1.1"
   inkscape:version="0.48.3.1 r9886"
   sodipodi:docname="radio-unselected.svg">
  <defs
     id="defs816">
    <linearGradient
       id="linearGradient3805">
      <stop
         style="stop-color:#323947;stop-opacity:1;"
         offset="0"
         id="stop3807" />
      <stop
         style="stop-color:#1d2026;stop-opacity:1;"
         offset="1"
         id="stop3813" />
    </linearGradient>
    <linearGradient
       id="linearGradient3793">
      <stop
         style="stop-color:#1a1a1c;stop-opacity:1;"
         offset="0"
         id="stop3795" />
      <stop
         style="stop-color:#1d2026;stop-opacity:1;"
         offset="1"
         id="stop3797" />
    </linearGradient>
    <linearGradient
       inkscape:collect="always"
       xlink:href="#linearGradient10354-2"
       id="linearGradient8378"
       gradientUnits="userSpaceOnUse"
       gradientTransform="translate(-1609.9926,-78.958432)"
       x1="1205.5752"
       y1="-186.45331"
       x2="1205.5752"
       y2="-202.34555" />
    <linearGradient
       id="linearGradient10354-2"
       inkscape:collect="always">
      <stop
         id="stop10356-2"
         offset="0"
         style="stop-color:#acbbcd;stop-opacity:1" />
      <stop
         id="stop10358-2"
         offset="1"
         style="stop-color:#e8e6df;stop-opacity:1" />
    </linearGradient>
    <linearGradient
       inkscape:collect="always"
       xlink:href="#linearGradient10332-5"
       id="linearGradient8380"
       gradientUnits="userSpaceOnUse"
       gradientTransform="matrix(0.84941206,0,0,0.84794288,-623.98415,-483.16392)"
       x1="260.92538"
       y1="233.77748"
       x2="260.92538"
       y2="248.97633" />
    <linearGradient
       inkscape:collect="always"
       id="linearGradient10332-5">
      <stop
         style="stop-color:#9fcecc;stop-opacity:1"
         offset="0"
         id="stop10334-5" />
      <stop
         style="stop-color:#82e6c2;stop-opacity:1"
         offset="1"
         id="stop10336-29" />
    </linearGradient>
    <linearGradient
       inkscape:collect="always"
       xlink:href="#linearGradient11577-0-5-0-2"
       id="linearGradient8358"
       gradientUnits="userSpaceOnUse"
       x1="662.53418"
       y1="249.29141"
       x2="662.53418"
       y2="262.49979" />
    <linearGradient
       id="linearGradient11577-0-5-0-2">
      <stop
         id="stop11579-5-6-7-4"
         offset="0"
         style="stop-color:#9bc8ff;stop-opacity:1;" />
      <stop
         style="stop-color:#a1ccfb;stop-opacity:1;"
         offset="0.25"
         id="stop3803" />
      <stop
         style="stop-color:#b2dafc;stop-opacity:1;"
         offset="0.5"
         id="stop3801" />
      <stop
         id="stop11581-8-0-0-9"
         offset="1"
         style="stop-color:#d3f6ff;stop-opacity:1;" />
    </linearGradient>
    <linearGradient
       inkscape:collect="always"
       xlink:href="#linearGradient12415-4-1-5"
       id="linearGradient8360"
       gradientUnits="userSpaceOnUse"
       x1="664.26984"
       y1="261.44751"
       x2="664.26984"
       y2="248.05356" />
    <linearGradient
       id="linearGradient12415-4-1-5">
      <stop
         id="stop12417-2-8-0"
         offset="0"
         style="stop-color:#bfbfbf;stop-opacity:1;" />
      <stop
         id="stop12419-5-0-9"
         offset="1"
         style="stop-color:#909090;stop-opacity:1;" />
    </linearGradient>
    <linearGradient
       inkscape:collect="always"
       xlink:href="#linearGradient11623-4-5-4"
       id="linearGradient8362"
       gradientUnits="userSpaceOnUse"
       x1="661.04559"
       y1="251.6946"
       x2="661.04559"
       y2="258.26358" />
    <linearGradient
       id="linearGradient11623-4-5-4"
       inkscape:collect="always">
      <stop
         id="stop11625-5-6-0"
         offset="0"
         style="stop-color:#2e87e3;stop-opacity:1" />
      <stop
         id="stop11627-4-4-9"
         offset="1"
         style="stop-color:#76b0ec;stop-opacity:1" />
    </linearGradient>
    <linearGradient
       inkscape:collect="always"
       xlink:href="#linearGradient12387-1-5"
       id="linearGradient8364"
       gradientUnits="userSpaceOnUse"
       x1="662.26074"
       y1="251.66537"
       x2="662.26074"
       y2="259.77792" />
    <linearGradient
       id="linearGradient12387-1-5"
       inkscape:collect="always">
      <stop
         id="stop12389-7-2"
         offset="0"
         style="stop-color:#1b6fc5;stop-opacity:1;" />
      <stop
         id="stop12391-1-4"
         offset="1"
         style="stop-color:#145393;stop-opacity:1" />
    </linearGradient>
    <linearGradient
       inkscape:collect="always"
       xlink:href="#linearGradient11553-0-7-9"
       id="linearGradient8366"
       gradientUnits="userSpaceOnUse"
       x1="660.16144"
       y1="246.69635"
       x2="660.27411"
       y2="260.70532" />
    <linearGradient
       id="linearGradient11553-0-7-9">
      <stop
         id="stop11555-5-9-8"
         offset="0"
         style="stop-color:#e8e6df;stop-opacity:1;" />
      <stop
         id="stop11557-1-9-0"
         offset="1"
         style="stop-color:#e8e6df;stop-opacity:0;" />
    </linearGradient>
    <radialGradient
       inkscape:collect="always"
       xlink:href="#linearGradient12405-7"
       id="radialGradient8368"
       gradientUnits="userSpaceOnUse"
       gradientTransform="matrix(1.4685542,0,0,2.2820942,-309.65132,-324.35943)"
       cx="660.8656"
       cy="251.41324"
       fx="660.8656"
       fy="251.41324"
       r="5.0290799"
       spreadMethod="pad" />
    <linearGradient
       id="linearGradient12405-7">
      <stop
         id="stop12407-9"
         offset="0"
         style="stop-color:#fbfdfd;stop-opacity:1;" />
      <stop
         id="stop12409-7"
         offset="1"
         style="stop-color:#1a1a1c;stop-opacity:0;" />
    </linearGradient>
    <radialGradient
       inkscape:collect="always"
       xlink:href="#linearGradient12692-5-0"
       id="radialGradient8370"
       gradientUnits="userSpaceOnUse"
       gradientTransform="matrix(2.4143887,0,0,1.7213698,-937.76662,-194.09437)"
       cx="663.01904"
       cy="269.82831"
       fx="663.01904"
       fy="269.82831"
       r="2.3864853" />
    <linearGradient
       id="linearGradient12692-5-0"
       inkscape:collect="always">
      <stop
         id="stop12694-4-1"
         offset="0"
         style="stop-color:#e8e6df;stop-opacity:1;" />
      <stop
         id="stop12696-5-2"
         offset="1"
         style="stop-color:#e8e6df;stop-opacity:0;" />
    </linearGradient>
    <radialGradient
       r="2.3864853"
       fy="269.82831"
       fx="663.01904"
       cy="269.82831"
       cx="663.01904"
       gradientTransform="matrix(2.4143887,0,0,1.7213698,-937.76662,-194.09437)"
       gradientUnits="userSpaceOnUse"
       id="radialGradient5029"
       xlink:href="#linearGradient12692-5-0"
       inkscape:collect="always" />
    <linearGradient
       inkscape:collect="always"
       xlink:href="#linearGradient3805"
       id="linearGradient3794"
       gradientUnits="userSpaceOnUse"
       x1="662.68768"
       y1="247.78085"
       x2="662.53418"
       y2="262.49979"
       spreadMethod="pad" />
    <linearGradient
       inkscape:collect="always"
       xlink:href="#linearGradient3793"
       id="linearGradient3799"
       x1="660.28619"
       y1="259.03784"
       x2="660.25543"
       y2="248.25285"
       gradientUnits="userSpaceOnUse" />
    <linearGradient
       y2="2.3041239"
       x2="8.9492645"
       y1="15.594499"
       x1="8.9492645"
       gradientUnits="userSpaceOnUse"
       id="linearGradient3058"
       xlink:href="#linearGradient3815"
       inkscape:collect="always" />
    <linearGradient
       id="linearGradient3815">
      <stop
         style="stop-color:#e8e6df;stop-opacity:0.15294118;"
         offset="0"
         id="stop3817" />
      <stop
         style="stop-color:#1a1a1c;stop-opacity:0;"
         offset="1"
         id="stop3819" />
    </linearGradient>
    <linearGradient
       y2="2.3041239"
       x2="8.9492645"
       y1="15.594499"
       x1="8.9492645"
       gradientUnits="userSpaceOnUse"
       id="linearGradient3885"
       xlink:href="#linearGradient3815"
       inkscape:collect="always" />
    <linearGradient
       inkscape:collect="always"
       xlink:href="#linearGradient3803"
       id="linearGradient3797"
       x1="660.14856"
       y1="261.69751"
       x2="660.14856"
       y2="247.10995"
       gradientUnits="userSpaceOnUse"
       spreadMethod="pad" />
    <linearGradient
       id="linearGradient3803">
      <stop
         style="stop-color:#1a1a1c;stop-opacity:1;"
         offset="0"
         id="stop3805" />
      <stop
         id="stop3807-3"
         offset="0.33333284"
         style="stop-color:#1a1a1c;stop-opacity:0.98431373;" />
      <stop
         id="stop3809-7"
         offset="0.66666645"
         style="stop-color:#040506;stop-opacity:1;" />
      <stop
         style="stop-color:#e8e6df;stop-opacity:0.05098039;"
         offset="1"
         id="stop3811-3" />
    </linearGradient>
    <linearGradient
       y2="247.10995"
       x2="660.14856"
       y1="261.69751"
       x1="660.14856"
       spreadMethod="pad"
       gradientUnits="userSpaceOnUse"
       id="linearGradient3058-0"
       xlink:href="#linearGradient3803"
       inkscape:collect="always" />
  </defs>
  <sodipodi:namedview
     id="base"
     pagecolor="#e8e6df"
     bordercolor="#666666"
     borderopacity="1.0"
     inkscape:pageopacity="0.0"
     inkscape:pageshadow="2"
     inkscape:zoom="32.999008"
     inkscape:cx="9.5645576"
     inkscape:cy="8.5444691"
     inkscape:document-units="px"
     inkscape:current-layer="g6305"
     showgrid="true"
     borderlayer="true"
     inkscape:showpageshadow="false"
     inkscape:window-width="1366"
     inkscape:window-height="744"
     inkscape:window-x="0"
     inkscape:window-y="24"
     inkscape:window-maximized="1">
    <inkscape:grid
       type="xygrid"
       id="grid4084"
       empspacing="5"
       visible="true"
       enabled="true"
       snapvisiblegridlinesonly="true" />
  </sodipodi:namedview>
  <metadata
     id="metadata819">
    <rdf:RDF>
      <cc:Work
         rdf:about="">
        <dc:format>image/svg+xml</dc:format>
        <dc:type
           rdf:resource="http://purl.org/dc/dcmitype/StillImage" />
        <dc:title />
      </cc:Work>
    </rdf:RDF>
  </metadata>
  <g
     inkscape:label="Layer 1"
     inkscape:groupmode="layer"
     id="layer1"
     transform="translate(0,-1036.3622)">
    <g
       transform="translate(-1031,770.36221)"
       id="g6305"
       style="display:inline;enable-background:new">
      <path
         sodipodi:type="arc"
         style="fill:none;stroke:url(#linearGradient3885);stroke-width:1.18900001;stroke-miterlimit:4;stroke-opacity:1;stroke-dasharray:none;display:inline;enable-background:new"
         id="path3813"
         sodipodi:cx="8"
         sodipodi:cy="8"
         sodipodi:rx="7"
         sodipodi:ry="7"
         d="m 15,8 c 0,3.865993 -3.134007,7 -7,7 C 4.1340068,15 1,11.865993 1,8 1,4.1340068 4.1340068,1 8,1 c 3.865993,0 7,3.1340068 7,7 z"
         transform="matrix(1.0533938,0,0,1.0533939,1030.5728,265.57284)" />
      <path
         transform="matrix(1.4419436,0,0,-0.89116967,85.92127,501.3078)"
         d="m 665.47588,255.0668 c 0,4.02825 -2.01821,7.29379 -4.5078,7.29379 -2.48959,0 -4.50781,-3.26554 -4.50781,-7.29379 0,-4.02824 2.01822,-7.29378 4.50781,-7.29378 2.48959,0 4.5078,3.26554 4.5078,7.29378 z"
         sodipodi:ry="7.2937827"
         sodipodi:rx="4.5078058"
         sodipodi:cy="255.0668"
         sodipodi:cx="660.96808"
         id="path6307"
         style="color:#1a1a1c;fill:url(#linearGradient3794);fill-opacity:1;fill-rule:nonzero;stroke:url(#linearGradient3799);stroke-width:0.88215655000000004;stroke-linecap:square;stroke-linejoin:round;stroke-miterlimit:4;stroke-opacity:1;stroke-dasharray:none;stroke-dashoffset:100;marker:none;visibility:visible;display:inline;overflow:visible;enable-background:new"
         sodipodi:type="arc" />
      <path
         sodipodi:type="arc"
         style="opacity:0.12955466;fill:none;stroke:url(#linearGradient3058-0);stroke-width:1.04254842;stroke-linecap:square;stroke-linejoin:round;stroke-miterlimit:4;stroke-opacity:1;stroke-dasharray:none;stroke-dashoffset:100;display:inline;enable-background:new"
         id="path6313"
         sodipodi:cx="660.96808"
         sodipodi:cy="255.0668"
         sodipodi:rx="4.5078058"
         sodipodi:ry="7.2937827"
         d="m 665.47588,255.0668 c 0,4.02825 -2.01821,7.29379 -4.5078,7.29379 -2.48959,0 -4.50781,-3.26554 -4.50781,-7.29379 0,-4.02824 2.01822,-7.29378 4.50781,-7.29378 2.48959,0 4.5078,3.26554 4.5078,7.29378 z"
         transform="matrix(1.2201064,0,0,-0.75406683,232.54862,466.33741)" />
      <path
         style="fill:#008080;fill-opacity:0.24636727"
         d="m 3.5528513,12.005912 c -0.094819,-0.106825 -0.2492804,-0.30019 -0.3432465,-0.4297 l -0.1708475,-0.235473 0.5941006,-0.0098 0.5941006,-0.0098 0.2392017,0.220992 c 0.131561,0.121546 0.3646513,0.314692 0.5179784,0.429214 l 0.2787767,0.208222 -0.7688325,0.01032 -0.7688325,0.01032 -0.172399,-0.194228 z"
         id="path3046"
         inkscape:connector-curvature="0"
         transform="translate(1031,265.99999)" />
      <path
         style="fill:#008080;fill-opacity:0.24636727"
         d="M 7.6058398,12.965111 C 6.9591539,12.918779 6.422929,12.775353 5.8154092,12.486217 5.4526865,12.313587 5.2071853,12.142533 4.6263792,11.657752 l -0.401258,-0.334917 -0.6096006,0 -0.6096006,0 -0.072345,-0.141807 C 2.893786,11.103034 2.861231,11.030522 2.861231,11.01989 c 0,-0.01063 0.2566471,-0.01933 0.5703269,-0.01933 l 0.5703269,0 0.1066708,0.129411 0.1066708,0.12941 3.8053789,-0.02676 3.8053787,-0.02676 0.08637,-0.102649 0.08637,-0.10265 0.586726,0 0.586726,0 -0.108226,0.183552 c -0.226759,0.384584 -0.144305,0.351172 -0.869784,0.352449 l -0.639688,0.0011 -0.201808,0.172875 c -1.097013,0.939737 -2.3385649,1.355445 -3.7468372,1.254551 z"
         id="path3048"
         inkscape:connector-curvature="0"
         transform="translate(1031,265.99999)" />
      <path
         style="fill:#008080;fill-opacity:0.24636727"
         d="M 2.5176477,10.409721 C 2.3639516,10.027586 2.1450636,9.314085 2.1450636,9.1952227 c 0,-0.011489 0.2175358,-0.02089 0.483413,-0.02089 0.4355168,0 0.4836741,-0.00621 0.486049,-0.062665 0.00145,-0.034466 0.031309,0.050132 0.066354,0.1879939 0.077901,0.306453 0.2020798,0.6325923 0.370876,0.9740551 l 0.1274822,0.257887 -0.5519904,0.01068 -0.5519904,0.01068 -0.057609,-0.143234 0,0 z"
         id="path3050"
         inkscape:connector-curvature="0"
         transform="translate(1031,265.99999)" />
      <path
         style="fill:#008080;fill-opacity:0.24636727"
         d="m 4.1222918,11.123991 -0.1045742,-0.126866 -0.597465,0.01067 -0.597465,0.01067 -0.089208,-0.179042 -0.089208,-0.179042 0.53813,-0.0099 c 0.2959715,-0.0054 0.5381299,-0.02023 0.5381299,-0.03287 0,-0.01264 -0.08071,-0.196668 -0.1793566,-0.408947 C 3.3346242,9.7639798 3.1402771,9.1680191 3.0755167,8.7804405 3.0351325,8.5387487 3.0103572,7.473242 3.0443419,7.4397099 c 0.00761,-0.00751 2.2390249,-0.025498 4.9587012,-0.039978 l 4.9448669,-0.026327 0.02037,0.3185775 c 0.01986,0.310544 -0.0153,0.9983636 -0.06205,1.2137868 -0.122436,0.5641878 -0.262698,0.9739551 -0.484131,1.4143632 -0.0788,0.15672 -0.143267,0.29294 -0.143267,0.302711 0,0.0098 0.24203,0.02221 0.537845,0.02765 l 0.537845,0.0099 -0.08129,0.161138 -0.08129,0.161137 -0.608117,0.0099 c -0.599539,0.0097 -0.609137,0.01112 -0.680359,0.09909 l -0.07224,0.08924 -1.521855,0.01714 c -0.8370209,0.0094 -2.5480021,0.02518 -3.8021809,0.03501 l -2.2803251,0.01786 -0.1045742,-0.126867 0,0 z"
         id="path3052"
         inkscape:connector-curvature="0"
         transform="translate(1031,265.99999)" />
      <path
         style="fill:#008080;fill-opacity:0.24636727"
         d="M 2.071987,8.8341531 C 2.0109393,8.3647035 2.0173145,7.5200803 2.0849606,7.1153514 2.1396861,6.7879267 2.2611992,6.278173 2.3237282,6.1137093 l 0.034413,-0.090513 0.5239388,0 c 0.4411983,0 0.5208154,0.00814 0.5041607,0.051541 -0.3475978,0.9058253 -0.4654372,1.8832154 -0.328092,2.7212774 0.028839,0.1759696 0.047575,0.324804 0.041636,0.3307432 -0.00594,0.00594 -0.2291458,0.023102 -0.496015,0.038139 L 2.1185526,9.1922368 2.071987,8.8341531 z"
         id="path3054"
         inkscape:connector-curvature="0"
         transform="translate(1031,265.99999)" />
      <path
         style="fill:#008080;fill-opacity:0.24636727"
         d="M 12.939286,7.1422077 C 12.735535,5.9603696 12.023817,4.7911618 11.061347,4.0571411 10.502555,3.6309819 9.9883396,3.3738182 9.3041162,3.1783341 8.5793458,2.9712657 7.518702,2.9628577 6.7586045,3.1581551 5.4084889,3.5050502 4.1997111,4.4650978 3.5644779,5.6950264 l -0.169493,0.3281697 -0.5199486,0 -0.5199486,0 0.023975,-0.080569 C 2.4399549,5.7380015 2.728353,5.1464498 2.9083157,4.8570437 3.8414768,3.3563856 5.3764119,2.3537132 7.1582352,2.0808503 c 0.391291,-0.059921 1.2917024,-0.059921 1.6829934,0 1.3180594,0.2018436 2.4702804,0.7803662 3.3864204,1.7003 0.567546,0.5698964 0.958952,1.1397875 1.269326,1.8481538 0.173589,0.396182 0.373322,1.0707028 0.409598,1.3832579 l 0.0253,0.2179953 -0.11483,0.022966 c -0.06316,0.012631 -0.28128,0.022966 -0.484719,0.022966 l -0.369889,0 -0.02315,-0.1342814 z"
         id="path3056"
         inkscape:connector-curvature="0"
         transform="translate(1031,265.99999)" />
      <path
         style="fill:#008080;fill-opacity:0.24636727"
         d="m 12.636934,9.9352604 c 10e-6,-0.014771 0.03133,-0.1092281 0.06959,-0.2099048 0.209708,-0.5517406 0.304074,-1.1917918 0.281124,-1.9067641 l -0.0174,-0.5421024 0.421243,0 c 0.231683,0 0.445275,-0.00922 0.474649,-0.020494 0.08566,-0.032871 0.106409,0.1024459 0.107463,0.7008529 0.0013,0.7162818 -0.07438,1.2318261 -0.282409,1.9246998 -0.02363,0.078697 -0.03615,0.080569 -0.539234,0.080569 -0.283275,0 -0.515037,-0.012085 -0.515027,-0.026856 z"
         id="path3058"
         inkscape:connector-curvature="0"
         transform="translate(1031,265.99999)" />
      <path
         style="fill:#008080;fill-opacity:0.24636727"
         d="m 12.464565,10.616146 c -0.08495,-0.0076 -0.149401,-0.02623 -0.143233,-0.04141 0.0062,-0.01517 0.07236,-0.16325 0.147102,-0.329058 l 0.13589,-0.3014685 0.517613,0.010792 c 0.284687,0.00594 0.517613,0.01791 0.517613,0.026609 0,0.0087 -0.05809,0.1609525 -0.129087,0.3383395 l -0.129088,0.322523 -0.381182,-0.0063 c -0.20965,-0.0034 -0.450682,-0.01247 -0.535628,-0.02007 z"
         id="path3060"
         inkscape:connector-curvature="0"
         transform="translate(1031,265.99999)" />
      <path
         style="fill:#008080;fill-opacity:0.24636727"
         d="M 5.7259005,13.529533 C 5.0573038,13.248146 4.3013691,12.761715 3.9245848,12.370418 l -0.1362265,-0.141473 0.7213867,-0.02008 0.7213867,-0.02008 0.3995699,0.208558 c 0.8108221,0.423213 1.4545862,0.583438 2.3511261,0.585167 0.8005466,0.0015 1.3033684,-0.101291 2.0397873,-0.417166 0.37481,-0.160768 0.565863,-0.270348 0.964506,-0.5532 l 0.264953,-0.187994 0.657112,0 c 0.361412,0 0.657113,0.01237 0.657113,0.0275 0,0.04774 -0.724306,0.74241 -0.955638,0.916534 -0.316126,0.237949 -0.727907,0.483446 -1.121247,0.668468 l -0.34018,0.160016 -2.1126937,0.0079 -2.1126938,0.0079 -0.196946,-0.08289 0,0 z"
         id="path3062"
         inkscape:connector-curvature="0"
         transform="translate(1031,265.99999)" />
      <path
         style="fill:#008080;fill-opacity:0.24636727"
         d="m 7.1131802,13.91556 c -0.3402037,-0.05311 -0.7836138,-0.159818 -1.0112919,-0.243376 -0.128821,-0.04728 0.062144,-0.05257 1.8978436,-0.05257 2.2164031,0 2.1815131,-0.0041 1.4846841,0.174198 -0.6939824,0.177563 -1.6870474,0.22855 -2.3712358,0.121745 z"
         id="path3064"
         inkscape:connector-curvature="0"
         transform="translate(1031,265.99999)" />
      <path
         style="fill:#008080;fill-opacity:0.24636727"
         d="m 11.908866,11.833143 -0.674336,-0.01059 0.172363,-0.142432 0.172363,-0.142433 0.620576,0 0.620575,0 -0.11572,0.161138 c -0.06365,0.08862 -0.117017,0.157487 -0.118602,0.153025 -0.0016,-0.0045 -0.306333,-0.01288 -0.677219,-0.01871 z"
         id="path3066"
         inkscape:connector-curvature="0"
         transform="translate(1031,265.99999)" />
      <path
         style="fill:#008080;fill-opacity:0.24636727"
         d="M 3.0768561,7.3391537 C 3.0781097,7.2088342 3.2121592,6.637134 3.3140481,6.3275673 3.5350271,5.6561722 3.9746244,4.9769888 4.5328107,4.4445641 L 4.8175799,4.1729375 5.4744266,4.1491451 c 0.3612656,-0.013086 1.7851585,-0.023792 3.1642061,-0.023792 l 2.5073593,0 0.380115,0.38494 c 0.707655,0.7166384 1.174943,1.5693173 1.36297,2.4870638 0.03713,0.1812176 0.06125,0.3357425 0.0536,0.3433889 -0.01205,0.012048 -7.2523956,0.073143 -9.1772867,0.077439 l -0.6893111,0.00154 7.749e-4,-0.080569 z"
         id="path3068"
         inkscape:connector-curvature="0"
         transform="translate(1031,265.99999)" />
      <path
         style="fill:#008080;fill-opacity:0.24636727"
         d="m 4.8890034,4.1178875 c 0.00863,-0.013953 0.1615675,-0.122943 0.3398584,-0.2421998 0.5812531,-0.3887939 1.2440498,-0.6614066 1.8756609,-0.7714721 0.4140256,-0.072149 1.3641255,-0.075143 1.75461,-0.00553 0.6724765,0.1198854 1.4499363,0.4427432 2.0052683,0.8327335 l 0.250659,0.1760286 -0.250659,0.00848 c -0.661994,0.022401 -5.9891233,0.024146 -5.9753976,0.00196 z"
         id="path3070"
         inkscape:connector-curvature="0"
         transform="translate(1031,265.99999)" />
      <path
         style="fill:#008080;fill-opacity:0.24636727"
         d="m 2.6105724,10.616211 c 0,-0.03515 1.0347286,-0.09681 1.067902,-0.06364 0.051881,0.05188 -0.081743,0.07237 -0.551239,0.08451 -0.313995,0.0081 -0.516663,-6.7e-5 -0.516663,-0.02087 z"
         id="path3072"
         inkscape:connector-curvature="0"
         transform="translate(1031,265.99999)" />
      <path
         style="fill:#008080;fill-opacity:0.24636727"
         d="M 1.1992813,9.5830197 C 1.0674453,9.0104274 1.0293222,8.6489799 1.0308225,7.9858499 1.0322647,7.3484114 1.0633536,7.0415495 1.1835631,6.4782288 l 0.050117,-0.2348556 0.5140256,0 c 0.4772891,0 0.5125354,0.00379 0.493174,0.053032 C 2.1385301,6.5567095 2.022944,7.2421935 1.9944435,7.7578958 1.9632039,8.3231604 2.0622521,9.152502 2.2224887,9.6673429 l 0.056707,0.1821994 -0.5092745,0 -0.5092744,0 -0.061365,-0.2665226 0,0 z"
         id="path3061"
         inkscape:connector-curvature="0"
         transform="translate(1031,265.99999)" />
      <path
         style="fill:#008080;fill-opacity:0.24636727"
         d="M 13.755524,6.2357973 C 13.612928,5.8302342 13.559584,5.6960747 13.439233,5.4403188 12.654234,3.7721236 11.039532,2.4962344 9.2369687,2.1198141 8.5236345,1.970852 7.5293597,1.9638694 6.846294,2.1030249 5.6388899,2.3489996 4.6325511,2.889306 3.7684008,3.7555554 3.0844923,4.4411251 2.620851,5.1684924 2.3129923,6.0388216 l -0.072355,0.2045516 -0.49271,0 c -0.4054561,0 -0.4927101,-0.00762 -0.4927101,-0.043037 0,-0.05725 0.2126948,-0.6787389 0.3171445,-0.9266888 0.7653175,-1.816763 2.3681266,-3.2882899 4.2592541,-3.910389 0.3955355,-0.1301141 0.9386945,-0.2502025 1.363174,-0.3013877 0.3701735,-0.044637 1.2359353,-0.044637 1.6061089,0 2.0932467,0.2524106 3.9085537,1.3931279 5.0914857,3.1994287 0.248175,0.3789559 0.585285,1.0894815 0.738257,1.5560235 0.07707,0.2350613 0.140134,0.4339024 0.140134,0.4418693 0,0.00797 -0.225435,0.014485 -0.500966,0.014485 -0.373468,0 -0.504356,-0.00964 -0.514285,-0.03788 z"
         id="path3063"
         inkscape:connector-curvature="0"
         transform="translate(1031,265.99999)" />
      <path
         style="fill:#008080;fill-opacity:0.24636727"
         d="m 13.772196,9.6904466 c 0.141399,-0.476794 0.24098,-1.1794684 0.24098,-1.7004173 0,-0.3642734 -0.07161,-0.9528665 -0.166354,-1.367304 -0.04184,-0.1830348 -0.07608,-0.3364485 -0.07608,-0.3409193 0,-0.00447 0.224088,-0.00813 0.497973,-0.00813 0.448028,0 0.49956,0.00532 0.513799,0.053032 0.0087,0.029167 0.04266,0.1893996 0.07546,0.3560713 0.180646,0.9179576 0.157564,1.9938872 -0.06257,2.9167544 l -0.06686,0.2803114 -0.506257,0 -0.506257,0 0.05617,-0.1893996 0,0 z"
         id="path3065"
         inkscape:connector-curvature="0"
         transform="translate(1031,265.99999)" />
      <path
         style="fill:#008080;fill-opacity:0.24636727"
         d="m 12.291709,12.218516 c 0.02178,-0.03044 0.125318,-0.14976 0.230087,-0.26516 0.483926,-0.533029 0.917399,-1.282621 1.168399,-2.0204779 0.01621,-0.04764 0.06897,-0.053032 0.519006,-0.053032 0.409744,0 0.500966,0.00774 0.500966,0.042523 0,0.097058 -0.228699,0.6965227 -0.405758,1.0635707 -0.213766,0.443144 -0.370093,0.710004 -0.616885,1.053062 l -0.168953,0.234856 -0.63323,0 c -0.607398,0 -0.631615,-0.0023 -0.593632,-0.05534 z"
         id="path3067"
         inkscape:connector-curvature="0"
         transform="translate(1031,265.99999)" />
      <path
         style="fill:#008080;fill-opacity:0.24636727"
         d="M 7.0887256,14.923558 C 5.0783585,14.650865 3.2905545,13.524618 2.1572604,11.816928 1.9904353,11.565549 1.7413386,11.128147 1.7405062,11.085127 c -2.346e-4,-0.01212 0.2411115,-0.02575 0.5363244,-0.0303 l 0.5367507,-0.0083 0.1732956,0.257583 c 0.849394,1.262525 2.0799409,2.146117 3.5022767,2.514804 0.4718254,0.122303 0.7507262,0.157999 1.3571705,0.173704 0.6678486,0.01729 1.0296116,-0.01906 1.6212609,-0.162936 0.941384,-0.22892 1.910869,-0.758183 2.623606,-1.432284 0.107063,-0.101259 0.194661,-0.170767 0.194661,-0.154462 0,0.01807 0.23854,0.03285 0.611108,0.03785 l 0.611108,0.0082 -0.163832,0.196975 c -0.278836,0.335245 -0.783343,0.811675 -1.148615,1.084691 -1.009436,0.754487 -2.080566,1.192068 -3.3129391,1.353412 -0.4392583,0.05751 -1.3681053,0.05723 -1.7939563,-5.3e-4 l 0,0 z"
         id="path3069"
         inkscape:connector-curvature="0"
         transform="translate(1031,265.99999)" />
      <path
         style="fill:#008080;fill-opacity:0.24636727"
         d="M 1.6048447,10.800859 C 1.4940208,10.543036 1.3879284,10.255486 1.3013712,9.978334 l -0.040223,-0.1287917 0.5069928,0 0.5069929,0 0.1002178,0.2651597 c 0.05512,0.145837 0.17349,0.411755 0.263045,0.590927 l 0.1628273,0.325767 -0.2048048,1.36e-4 c -0.1126426,7.6e-5 -0.3557654,0.0088 -0.5402729,0.01947 l -0.3354681,0.01933 -0.1158337,-0.269478 0,2e-6 z"
         id="path3071"
         inkscape:connector-curvature="0"
         transform="translate(1031,265.99999)" />
    </g>
  </g>
</svg>
