<?xml version="1.0" encoding="UTF-8" standalone="no"?>
<!-- Created with Inkscape (http://www.inkscape.org/) -->

<svg
   xmlns:dc="http://purl.org/dc/elements/1.1/"
   xmlns:cc="http://creativecommons.org/ns#"
   xmlns:rdf="http://www.w3.org/1999/02/22-rdf-syntax-ns#"
   xmlns:svg="http://www.w3.org/2000/svg"
   xmlns="http://www.w3.org/2000/svg"
   xmlns:sodipodi="http://sodipodi.sourceforge.net/DTD/sodipodi-0.dtd"
   xmlns:inkscape="http://www.inkscape.org/namespaces/inkscape"
   width="12"
   height="12"
   id="svg27352"
   version="1.1"
   inkscape:version="0.48.3.1 r9886"
   sodipodi:docname="radio-menuitem-checked-selected.svg">
  <defs
     id="defs27354" />
  <sodipodi:namedview
     id="base"
     pagecolor="#e8e6df"
     bordercolor="#666666"
     borderopacity="1.0"
     inkscape:pageopacity="0.0"
     inkscape:pageshadow="2"
     inkscape:zoom="43.832456"
     inkscape:cx="2.928741"
     inkscape:cy="7.3044029"
     inkscape:current-layer="layer1"
     showgrid="true"
     inkscape:grid-bbox="true"
     inkscape:document-units="px"
     inkscape:window-width="1366"
     inkscape:window-height="744"
     inkscape:window-x="0"
     inkscape:window-y="24"
     inkscape:window-maximized="1" />
  <metadata
     id="metadata27357">
    <rdf:RDF>
      <cc:Work
         rdf:about="">
        <dc:format>image/svg+xml</dc:format>
        <dc:type
           rdf:resource="http://purl.org/dc/dcmitype/StillImage" />
        <dc:title />
      </cc:Work>
    </rdf:RDF>
  </metadata>
  <g
     id="layer1"
     inkscape:label="Layer 1"
     inkscape:groupmode="layer"
     transform="translate(0,-4)">
    <path
       sodipodi:type="arc"
       style="color:#1a1a1c;fill:#ff7f2a;fill-opacity:1;fill-rule:nonzero;stroke:none;stroke-width:1.27423298000000007;marker:none;visibility:visible;display:inline;overflow:visible;enable-background:accumulate"
       id="path5784-4"
       sodipodi:cx="660.96808"
       sodipodi:cy="255.0668"
       sodipodi:rx="4.5078058"
       sodipodi:ry="7.2937827"
       d="m 665.47588,255.0668 c 0,4.02825 -2.01821,7.29379 -4.5078,7.29379 -2.48959,0 -4.50781,-3.26554 -4.50781,-7.29379 0,-4.02824 2.01822,-7.29378 4.50781,-7.29378 2.48959,0 4.5078,3.26554 4.5078,7.29378 z"
       transform="matrix(0.77643096,0,0,0.47986074,-508.19608,-110.89654)" />
    <path
       style="fill:#00ffff;fill-opacity:0.24636727"
       d="M 4.7607168,10.978577 C 3.8589097,10.88917 3.1656533,10.575039 2.5619161,9.9822484 1.5048426,8.9443417 1.2206546,7.3919838 1.839228,6.0346139 2.2657999,5.0985635 3.1347337,4.37937 4.1484144,4.1233617 5.5771436,3.7625315 7.0924146,4.348165 7.9016522,5.5739417 8.5714246,6.588466 8.6692152,7.8393251 8.1656224,8.9504351 7.6907847,9.9981008 6.6602636,10.779531 5.5363978,10.944141 c -0.1859504,0.02724 -0.6434465,0.04755 -0.775681,0.03444 l 0,0 z"
       id="path2983"
       inkscape:connector-curvature="0"
       transform="translate(0,4)" />
    <path
       style="fill:#00ffff;fill-opacity:0.24636727"
       d="M 4.4413188,10.923682 C 3.6689753,10.783594 3.1037593,10.489541 2.5580469,9.9439118 2.0450808,9.4310238 1.7572097,8.9057297 1.5947665,8.1861613 1.5231806,7.8690604 1.5236866,7.1581073 1.5957325,6.8287197 1.9134184,5.3762869 3.0049613,4.3237833 4.4484774,4.0780038 c 0.5143744,-0.08758 1.1456815,-0.037324 1.6439914,0.1308706 1.1861741,0.4003699 2.0352937,1.356517 2.3127568,2.6042687 0.067002,0.301308 0.072157,1.0061275 0.00962,1.3151551 C 8.2786211,8.8014408 7.9809432,9.3843627 7.5302023,9.8606328 7.103832,10.311152 6.6292635,10.61684 6.0602792,10.807467 c -0.2939338,0.09848 -0.5625797,0.139477 -0.9915714,0.151332 -0.3098095,0.0086 -0.4208493,0.0023 -0.627389,-0.03512 l 0,0 z"
       id="path2985"
       inkscape:connector-curvature="0"
       transform="translate(0,4)" />
    <path
       style="fill:#00ffff;fill-opacity:0.24636727"
       d="M 4.5553895,10.93249 C 4.399602,10.909323 4.0423827,10.822918 3.8859728,10.77057 3.0586316,10.493671 2.2778519,9.8010619 1.8855679,8.9960634 1.6674303,8.5484276 1.5793769,8.1837973 1.5620563,7.6563975 1.5426149,7.0644208 1.6162248,6.6406344 1.8214795,6.1628485 2.2640676,5.1326048 3.0889088,4.432544 4.2017703,4.1426434 4.6696994,4.0207478 5.3690665,4.0280575 5.87861,4.1601697 7.1359509,4.4861673 8.1119936,5.5191686 8.3927778,6.8210559 8.451607,7.0938237 8.4514754,7.9112415 8.3925496,8.179203 8.1909025,9.0963309 7.6556256,9.875092 6.8596088,10.409441 c -0.32142,0.215762 -0.8018259,0.412296 -1.1824076,0.483723 -0.1802694,0.03383 -0.9721002,0.06159 -1.121821,0.03933 l 9.3e-6,0 z"
       id="path2987"
       inkscape:connector-curvature="0"
       transform="translate(0,4)" />
    <path
       style="fill:#00ffff;fill-opacity:0.24636727"
       d="M 4.1935472,10.842842 C 3.5262689,10.671553 3.0505715,10.395286 2.5477448,9.8870208 2.0748398,9.4090015 1.7538414,8.8239312 1.630527,8.2152466 1.5985432,8.0573734 1.590055,7.9041342 1.5903724,7.4903299 1.5907508,6.9968476 1.594437,6.9510461 1.6522824,6.7210958 1.766173,6.2683511 1.9101112,5.9449073 2.1719688,5.5533072 2.4327722,5.1632838 2.8126565,4.8057198 3.2381865,4.5497357 3.5031547,4.3903401 3.9914065,4.1997336 4.3244335,4.1256805 4.6637013,4.0502397 5.3211951,4.0558044 5.7218325,4.1375073 6.8659754,4.370835 7.8194941,5.2107449 8.2461152,6.3610297 8.3948,6.761924 8.4110661,6.8761049 8.4102436,7.513144 8.4095729,8.0321416 8.4048529,8.1009587 8.3578163,8.2774179 8.2635628,8.6310127 8.1042464,9.011053 7.939927,9.2742694 7.4388908,10.076859 6.6726638,10.637006 5.7759463,10.856237 5.61648,10.895224 5.4867711,10.905457 5.0458937,10.913831 l -0.5361324,0.01018 -0.3162141,-0.08117 0,0 z"
       id="path2989"
       inkscape:connector-curvature="0"
       transform="translate(0,4)" />
    <path
       style="fill:#00ffff;fill-opacity:0.24636727"
       d="M 4.3044339,10.863834 C 3.616199,10.679409 3.2156854,10.475628 2.7725429,10.084412 2.2777116,9.6475642 1.9316878,9.1374801 1.740039,8.5623675 1.6266445,8.2220858 1.6009578,8.0193066 1.6009578,7.4644176 c 0,-0.4944056 0.02277,-0.6531289 0.1469245,-1.0241585 C 2.0265972,5.6073316 2.5954786,4.9207994 3.3576469,4.4975777 3.5205036,4.4071456 3.9609314,4.23417 4.1793063,4.1748754 4.7161127,4.0291183 5.5232669,4.0620347 6.0945739,4.2529816 6.9396568,4.5354322 7.6600192,5.1677657 8.067251,5.9845963 8.2326617,6.3163791 8.3505657,6.6756516 8.3801445,6.9380332 8.3931729,7.0536023 8.3992198,7.3790552 8.3935854,7.661436 8.3825484,8.2145968 8.3749921,8.2567407 8.2079221,8.6969504 7.9147489,9.4694273 7.2766738,10.179926 6.5402202,10.553941 6.06879,10.793361 5.7680113,10.875542 5.3082563,10.890548 c -0.1882167,0.0061 -0.4448758,0.01502 -0.5703536,0.01974 -0.1878357,0.0071 -0.2644166,-0.0011 -0.4334688,-0.04645 l 0,0 z"
       id="path2991"
       inkscape:connector-curvature="0"
       transform="translate(0,4)" />
    <path
       style="fill:#00ffff;fill-opacity:0.24636727"
       d="M 4.2816198,10.844417 C 3.578223,10.657853 3.1357016,10.417509 2.6661089,9.9669919 2.1184032,9.4415356 1.7807726,8.847636 1.6549301,8.1883067 1.6085035,7.9450628 1.6015279,7.0631348 1.6443568,6.8515338 1.7554235,6.3027973 2.0523606,5.7037345 2.4326552,5.2611631 2.9219988,4.6916845 3.6885534,4.259505 4.42885,4.1357186 4.7475579,4.0824268 5.4113407,4.0996368 5.736395,4.1696195 6.9541226,4.4317909 7.9178409,5.34574 8.2997319,6.6005782 c 0.05987,0.1967252 0.062874,0.2303658 0.071703,0.802984 0.012667,0.8215291 -0.017603,0.9816858 -0.2924353,1.5472962 -0.3923301,0.8074208 -1.1353754,1.4811656 -1.9604859,1.7776396 -0.248708,0.08936 -0.4492495,0.126013 -0.8216644,0.150159 -0.5476675,0.03551 -0.7820639,0.0276 -1.0152295,-0.03424 l 0,0 z"
       id="path2993"
       inkscape:connector-curvature="0"
       transform="translate(0,4)" />
    <path
       style="fill:#00ffff;fill-opacity:0.24636727"
       d="M 4.5090114,10.875285 C 4.1336842,10.833954 3.517079,10.593046 3.133683,10.337943 2.8930616,10.177839 2.4910574,9.7940009 2.2837396,9.5264079 1.9944164,9.1529675 1.7861362,8.7240438 1.6891769,8.3019894 1.6333539,8.0589975 1.606396,7.2789796 1.6428262,6.9608473 1.6876279,6.5696101 1.9099141,6.0197761 2.1987297,5.5857975 2.5573707,5.0468984 3.1485942,4.5783821 3.7829939,4.3303441 4.1972207,4.1683895 4.3359734,4.1431993 4.8792719,4.1313177 c 0.577711,-0.012634 0.8135853,0.017235 1.2269838,0.1553775 0.5029207,0.1680569 0.8710091,0.4003355 1.2796965,0.80754 0.4071937,0.4057161 0.6794921,0.8465116 0.8812063,1.4264935 l 0.075379,0.2167344 0,0.7642738 0,0.7642739 -0.074115,0.2122366 C 8.1699434,8.7602537 7.9717129,9.1518423 7.7988724,9.4058066 7.623441,9.6635779 7.1969091,10.095392 6.9362739,10.279087 c -0.3526955,0.24858 -0.70991,0.422022 -1.0456998,0.507731 -0.2894969,0.07389 -1.0637051,0.123469 -1.3815627,0.08847 l 0,0 z"
       id="path2995"
       inkscape:connector-curvature="0"
       transform="translate(0,4)" />
  </g>
</svg>
