<?xml version="1.0" encoding="UTF-8" standalone="no"?>
<!-- Created with Inkscape (http://www.inkscape.org/) -->

<svg
   xmlns:dc="http://purl.org/dc/elements/1.1/"
   xmlns:cc="http://creativecommons.org/ns#"
   xmlns:rdf="http://www.w3.org/1999/02/22-rdf-syntax-ns#"
   xmlns:svg="http://www.w3.org/2000/svg"
   xmlns="http://www.w3.org/2000/svg"
   xmlns:xlink="http://www.w3.org/1999/xlink"
   xmlns:sodipodi="http://sodipodi.sourceforge.net/DTD/sodipodi-0.dtd"
   xmlns:inkscape="http://www.inkscape.org/namespaces/inkscape"
   width="16"
   height="16"
   id="svg814"
   version="1.1"
   inkscape:version="0.48.3.1 r9886"
   sodipodi:docname="radio-selected.svg">
  <defs
     id="defs816">
    <linearGradient
       id="linearGradient3805">
      <stop
         style="stop-color:#323947;stop-opacity:1;"
         offset="0"
         id="stop3807" />
      <stop
         style="stop-color:#1d2026;stop-opacity:1;"
         offset="1"
         id="stop3813" />
    </linearGradient>
    <linearGradient
       id="linearGradient3793">
      <stop
         style="stop-color:#1a1a1c;stop-opacity:1;"
         offset="0"
         id="stop3795" />
      <stop
         style="stop-color:#1d2026;stop-opacity:1;"
         offset="1"
         id="stop3797" />
    </linearGradient>
    <linearGradient
       inkscape:collect="always"
       xlink:href="#linearGradient10354-2"
       id="linearGradient8378"
       gradientUnits="userSpaceOnUse"
       gradientTransform="translate(-1609.9926,-78.958432)"
       x1="1205.5752"
       y1="-186.45331"
       x2="1205.5752"
       y2="-202.34555" />
    <linearGradient
       id="linearGradient10354-2"
       inkscape:collect="always">
      <stop
         id="stop10356-2"
         offset="0"
         style="stop-color:#acbbcd;stop-opacity:1" />
      <stop
         id="stop10358-2"
         offset="1"
         style="stop-color:#e8e6df;stop-opacity:1" />
    </linearGradient>
    <linearGradient
       inkscape:collect="always"
       xlink:href="#linearGradient10332-5"
       id="linearGradient8380"
       gradientUnits="userSpaceOnUse"
       gradientTransform="matrix(0.84941206,0,0,0.84794288,-623.98415,-483.16392)"
       x1="260.92538"
       y1="233.77748"
       x2="260.92538"
       y2="248.97633" />
    <linearGradient
       inkscape:collect="always"
       id="linearGradient10332-5">
      <stop
         style="stop-color:#9fcecc;stop-opacity:1"
         offset="0"
         id="stop10334-5" />
      <stop
         style="stop-color:#82e6c2;stop-opacity:1"
         offset="1"
         id="stop10336-29" />
    </linearGradient>
    <linearGradient
       inkscape:collect="always"
       xlink:href="#linearGradient11577-0-5-0-2"
       id="linearGradient8358"
       gradientUnits="userSpaceOnUse"
       x1="662.53418"
       y1="249.29141"
       x2="662.53418"
       y2="262.49979" />
    <linearGradient
       id="linearGradient11577-0-5-0-2">
      <stop
         id="stop11579-5-6-7-4"
         offset="0"
         style="stop-color:#9bc8ff;stop-opacity:1;" />
      <stop
         style="stop-color:#a1ccfb;stop-opacity:1;"
         offset="0.25"
         id="stop3803" />
      <stop
         style="stop-color:#b2dafc;stop-opacity:1;"
         offset="0.5"
         id="stop3801" />
      <stop
         id="stop11581-8-0-0-9"
         offset="1"
         style="stop-color:#d3f6ff;stop-opacity:1;" />
    </linearGradient>
    <linearGradient
       inkscape:collect="always"
       xlink:href="#linearGradient12415-4-1-5"
       id="linearGradient8360"
       gradientUnits="userSpaceOnUse"
       x1="664.26984"
       y1="261.44751"
       x2="664.26984"
       y2="248.05356" />
    <linearGradient
       id="linearGradient12415-4-1-5">
      <stop
         id="stop12417-2-8-0"
         offset="0"
         style="stop-color:#bfbfbf;stop-opacity:1;" />
      <stop
         id="stop12419-5-0-9"
         offset="1"
         style="stop-color:#909090;stop-opacity:1;" />
    </linearGradient>
    <linearGradient
       inkscape:collect="always"
       xlink:href="#linearGradient11623-4-5-4"
       id="linearGradient8362"
       gradientUnits="userSpaceOnUse"
       x1="661.04559"
       y1="251.6946"
       x2="661.04559"
       y2="258.26358" />
    <linearGradient
       id="linearGradient11623-4-5-4"
       inkscape:collect="always">
      <stop
         id="stop11625-5-6-0"
         offset="0"
         style="stop-color:#2e87e3;stop-opacity:1" />
      <stop
         id="stop11627-4-4-9"
         offset="1"
         style="stop-color:#76b0ec;stop-opacity:1" />
    </linearGradient>
    <linearGradient
       inkscape:collect="always"
       xlink:href="#linearGradient12387-1-5"
       id="linearGradient8364"
       gradientUnits="userSpaceOnUse"
       x1="662.26074"
       y1="251.66537"
       x2="662.26074"
       y2="259.77792" />
    <linearGradient
       id="linearGradient12387-1-5"
       inkscape:collect="always">
      <stop
         id="stop12389-7-2"
         offset="0"
         style="stop-color:#1b6fc5;stop-opacity:1;" />
      <stop
         id="stop12391-1-4"
         offset="1"
         style="stop-color:#145393;stop-opacity:1" />
    </linearGradient>
    <linearGradient
       inkscape:collect="always"
       xlink:href="#linearGradient11553-0-7-9"
       id="linearGradient8366"
       gradientUnits="userSpaceOnUse"
       x1="660.16144"
       y1="246.69635"
       x2="660.27411"
       y2="260.70532" />
    <linearGradient
       id="linearGradient11553-0-7-9">
      <stop
         id="stop11555-5-9-8"
         offset="0"
         style="stop-color:#e8e6df;stop-opacity:1;" />
      <stop
         id="stop11557-1-9-0"
         offset="1"
         style="stop-color:#e8e6df;stop-opacity:0;" />
    </linearGradient>
    <radialGradient
       inkscape:collect="always"
       xlink:href="#linearGradient12405-7"
       id="radialGradient8368"
       gradientUnits="userSpaceOnUse"
       gradientTransform="matrix(1.4685542,0,0,2.2820942,-309.65132,-324.35943)"
       cx="660.8656"
       cy="251.41324"
       fx="660.8656"
       fy="251.41324"
       r="5.0290799"
       spreadMethod="pad" />
    <linearGradient
       id="linearGradient12405-7">
      <stop
         id="stop12407-9"
         offset="0"
         style="stop-color:#fbfdfd;stop-opacity:1;" />
      <stop
         id="stop12409-7"
         offset="1"
         style="stop-color:#1a1a1c;stop-opacity:0;" />
    </linearGradient>
    <radialGradient
       inkscape:collect="always"
       xlink:href="#linearGradient12692-5-0"
       id="radialGradient8370"
       gradientUnits="userSpaceOnUse"
       gradientTransform="matrix(2.4143887,0,0,1.7213698,-937.76662,-194.09437)"
       cx="663.01904"
       cy="269.82831"
       fx="663.01904"
       fy="269.82831"
       r="2.3864853" />
    <linearGradient
       id="linearGradient12692-5-0"
       inkscape:collect="always">
      <stop
         id="stop12694-4-1"
         offset="0"
         style="stop-color:#e8e6df;stop-opacity:1;" />
      <stop
         id="stop12696-5-2"
         offset="1"
         style="stop-color:#e8e6df;stop-opacity:0;" />
    </linearGradient>
    <radialGradient
       r="2.3864853"
       fy="269.82831"
       fx="663.01904"
       cy="269.82831"
       cx="663.01904"
       gradientTransform="matrix(2.4143887,0,0,1.7213698,-937.76662,-194.09437)"
       gradientUnits="userSpaceOnUse"
       id="radialGradient5029"
       xlink:href="#linearGradient12692-5-0"
       inkscape:collect="always" />
    <linearGradient
       inkscape:collect="always"
       xlink:href="#linearGradient3805"
       id="linearGradient3794"
       gradientUnits="userSpaceOnUse"
       x1="662.68768"
       y1="247.78085"
       x2="662.53418"
       y2="262.49979"
       spreadMethod="pad" />
    <linearGradient
       inkscape:collect="always"
       xlink:href="#linearGradient3793"
       id="linearGradient3799"
       x1="660.28619"
       y1="259.03784"
       x2="660.25543"
       y2="248.25285"
       gradientUnits="userSpaceOnUse" />
    <linearGradient
       y2="2.3041239"
       x2="8.9492645"
       y1="15.594499"
       x1="8.9492645"
       gradientUnits="userSpaceOnUse"
       id="linearGradient3058"
       xlink:href="#linearGradient3815"
       inkscape:collect="always" />
    <linearGradient
       id="linearGradient3815">
      <stop
         style="stop-color:#e8e6df;stop-opacity:0.15294118;"
         offset="0"
         id="stop3817" />
      <stop
         style="stop-color:#1a1a1c;stop-opacity:0;"
         offset="1"
         id="stop3819" />
    </linearGradient>
    <linearGradient
       y2="2.3041239"
       x2="8.9492645"
       y1="15.594499"
       x1="8.9492645"
       gradientUnits="userSpaceOnUse"
       id="linearGradient3885"
       xlink:href="#linearGradient3815"
       inkscape:collect="always" />
    <linearGradient
       inkscape:collect="always"
       xlink:href="#linearGradient3803"
       id="linearGradient3797"
       x1="660.14856"
       y1="261.69751"
       x2="660.14856"
       y2="247.10995"
       gradientUnits="userSpaceOnUse"
       spreadMethod="pad" />
    <linearGradient
       id="linearGradient3803">
      <stop
         style="stop-color:#1a1a1c;stop-opacity:1;"
         offset="0"
         id="stop3805" />
      <stop
         id="stop3807-3"
         offset="0.33333284"
         style="stop-color:#1a1a1c;stop-opacity:0.98431373;" />
      <stop
         id="stop3809-7"
         offset="0.66666645"
         style="stop-color:#040506;stop-opacity:1;" />
      <stop
         style="stop-color:#e8e6df;stop-opacity:0.05098039;"
         offset="1"
         id="stop3811-3" />
    </linearGradient>
    <linearGradient
       y2="247.10995"
       x2="660.14856"
       y1="261.69751"
       x1="660.14856"
       spreadMethod="pad"
       gradientUnits="userSpaceOnUse"
       id="linearGradient3058-0"
       xlink:href="#linearGradient3803"
       inkscape:collect="always" />
  </defs>
  <sodipodi:namedview
     id="base"
     pagecolor="#e8e6df"
     bordercolor="#666666"
     borderopacity="1.0"
     inkscape:pageopacity="0.0"
     inkscape:pageshadow="2"
     inkscape:zoom="25.752355"
     inkscape:cx="7.8663885"
     inkscape:cy="7.5209361"
     inkscape:document-units="px"
     inkscape:current-layer="g6305"
     showgrid="true"
     borderlayer="true"
     inkscape:showpageshadow="false"
     inkscape:window-width="1172"
     inkscape:window-height="660"
     inkscape:window-x="65"
     inkscape:window-y="32"
     inkscape:window-maximized="0">
    <inkscape:grid
       type="xygrid"
       id="grid4084"
       empspacing="5"
       visible="true"
       enabled="true"
       snapvisiblegridlinesonly="true" />
  </sodipodi:namedview>
  <metadata
     id="metadata819">
    <rdf:RDF>
      <cc:Work
         rdf:about="">
        <dc:format>image/svg+xml</dc:format>
        <dc:type
           rdf:resource="http://purl.org/dc/dcmitype/StillImage" />
        <dc:title />
      </cc:Work>
    </rdf:RDF>
  </metadata>
  <g
     inkscape:label="Layer 1"
     inkscape:groupmode="layer"
     id="layer1"
     transform="translate(0,-1036.3622)">
    <g
       transform="translate(-1031,770.36221)"
       id="g6305"
       style="display:inline;enable-background:new">
      <path
         sodipodi:type="arc"
         style="fill:none;stroke:url(#linearGradient3885);stroke-width:1.18900001;stroke-miterlimit:4;stroke-opacity:1;stroke-dasharray:none;display:inline;enable-background:new"
         id="path3813"
         sodipodi:cx="8"
         sodipodi:cy="8"
         sodipodi:rx="7"
         sodipodi:ry="7"
         d="m 15,8 c 0,3.865993 -3.134007,7 -7,7 C 4.1340068,15 1,11.865993 1,8 1,4.1340068 4.1340068,1 8,1 c 3.865993,0 7,3.1340068 7,7 z"
         transform="matrix(1.0533938,0,0,1.0533939,1030.5728,265.57284)" />
      <path
         transform="matrix(1.4419436,0,0,-0.89116967,85.92127,501.3078)"
         d="m 665.47588,255.0668 c 0,4.02825 -2.01821,7.29379 -4.5078,7.29379 -2.48959,0 -4.50781,-3.26554 -4.50781,-7.29379 0,-4.02824 2.01822,-7.29378 4.50781,-7.29378 2.48959,0 4.5078,3.26554 4.5078,7.29378 z"
         sodipodi:ry="7.2937827"
         sodipodi:rx="4.5078058"
         sodipodi:cy="255.0668"
         sodipodi:cx="660.96808"
         id="path6307"
         style="color:#1a1a1c;fill:url(#linearGradient3794);fill-opacity:1;fill-rule:nonzero;stroke:url(#linearGradient3799);stroke-width:0.88215655000000004;stroke-linecap:square;stroke-linejoin:round;stroke-miterlimit:4;stroke-opacity:1;stroke-dasharray:none;stroke-dashoffset:100;marker:none;visibility:visible;display:inline;overflow:visible;enable-background:new"
         sodipodi:type="arc" />
      <path
         sodipodi:type="arc"
         style="fill:#ff6600;fill-opacity:1;fill-rule:nonzero;stroke:#84aef0;stroke-opacity:0.54424779999999995"
         id="path3796"
         sodipodi:cx="8.5927467"
         sodipodi:cy="8.3347244"
         sodipodi:rx="2.1550064"
         sodipodi:ry="2.1550064"
         d="m 10.747753,8.3347244 c 0,1.1901772 -0.9648291,2.1550066 -2.1550063,2.1550066 -1.1901771,0 -2.1550064,-0.9648294 -2.1550064,-2.1550066 0,-1.1901771 0.9648293,-2.1550064 2.1550064,-2.1550064 1.1901772,0 2.1550063,0.9648293 2.1550063,2.1550064 z"
         transform="matrix(1.0564946,0,0,1.0564946,1029.9188,265.2244)" />
      <path
         sodipodi:type="arc"
         style="opacity:0.12955466;fill:none;stroke:url(#linearGradient3058-0);stroke-width:1.04254842;stroke-linecap:square;stroke-linejoin:round;stroke-miterlimit:4;stroke-opacity:1;stroke-dasharray:none;stroke-dashoffset:100;display:inline;enable-background:new"
         id="path6313"
         sodipodi:cx="660.96808"
         sodipodi:cy="255.0668"
         sodipodi:rx="4.5078058"
         sodipodi:ry="7.2937827"
         d="m 665.47588,255.0668 c 0,4.02825 -2.01821,7.29379 -4.5078,7.29379 -2.48959,0 -4.50781,-3.26554 -4.50781,-7.29379 0,-4.02824 2.01822,-7.29378 4.50781,-7.29378 2.48959,0 4.5078,3.26554 4.5078,7.29378 z"
         transform="matrix(1.2201064,0,0,-0.75406683,232.54862,466.33741)" />
      <path
         style="fill:#ff6600;fill-opacity:0.24636727"
         d="M 7.5370052,10.784888 C 6.5323333,10.607991 5.7276367,9.9364923 5.369381,8.9760625 5.0250041,8.0528396 5.2275434,6.9689344 5.886955,6.2062233 6.5662467,5.420518 7.6274381,5.0755119 8.635495,5.31264 c 0.8518582,0.200385 1.591954,0.822317 1.929062,1.6210676 0.714702,1.69343 -0.349773,3.5872554 -2.1699802,3.8606464 -0.2540453,0.03816 -0.6093753,0.03423 -0.8575716,-0.0095 z M 8.3890166,10.278605 C 8.6952589,10.225337 9.0086206,10.100688 9.2780812,9.9249515 9.4308609,9.825312 9.7914619,9.464711 9.8911014,9.3119314 10.147404,8.9189356 10.275809,8.4903033 10.275809,8.0277269 10.275809,6.9028874 9.4700155,5.9565075 8.3588384,5.7763039 7.6375008,5.659322 6.9106881,5.8946395 6.3865675,6.4148588 5.5030757,7.2917744 5.4882319,8.7072352 6.3530046,9.615317 c 0.2704022,0.2839443 0.6564888,0.513427 1.0382839,0.617137 0.2968366,0.08063 0.6938988,0.099 0.9977281,0.04615 z"
         id="path3047"
         inkscape:connector-curvature="0"
         transform="translate(1031,265.99999)" />
      <path
         style="fill:#ff6600;fill-opacity:0.24636727"
         d="M 7.7567929,10.281531 C 7.2657244,10.234967 6.7656991,9.9952392 6.4029838,9.6324733 6.1458383,9.3752918 5.9620856,9.0807028 5.8510446,8.7476142 5.4357312,7.5018031 6.1633604,6.162259 7.4312272,5.8385438 c 0.8041278,-0.205312 1.6365482,0.036972 2.2124842,0.6439661 0.2447868,0.2579869 0.3919326,0.505288 0.5037446,0.8466186 0.09,0.2747311 0.115637,0.4725363 0.103428,0.7978536 -0.02225,0.5929616 -0.236568,1.078269 -0.6651264,1.5061616 -0.390925,0.3903173 -0.8215468,0.5928473 -1.3815864,0.6497863 -0.1125315,0.01144 -0.2192192,0.0196 -0.2370839,0.01813 -0.017865,-0.0015 -0.1124973,-0.01026 -0.2102944,-0.01953 z M 8.4285306,9.7315134 C 8.6284261,9.6812709 8.9449535,9.5236854 9.1051287,9.3946642 9.3288095,9.2144889 9.5236389,8.9447619 9.6345772,8.6616819 9.7975619,8.2457951 9.7822472,7.7134893 9.5956796,7.3096882 9.3603651,6.800381 8.9623868,6.4708395 8.3988951,6.3187043 8.302759,6.2927488 8.1984559,6.2843558 7.9839983,6.2853185 7.7310681,6.286454 7.6767002,6.2929061 7.519709,6.3404185 7.301128,6.4065705 7.0523287,6.5365169 6.8816573,6.673669 6.6221514,6.8822088 6.3970913,7.228674 6.3011062,7.567389 6.2637369,7.6992591 6.256229,7.7745434 6.2557889,8.0217998 c -5.84e-4,0.3281494 0.016114,0.4218076 0.1208755,0.6780007 0.1896669,0.4638264 0.5786977,0.8295202 1.0561334,0.9927785 0.2990163,0.1022482 0.6839485,0.1172995 0.9957328,0.038934 l 0,0 z"
         id="path3049"
         inkscape:connector-curvature="0"
         transform="translate(1031,265.99999)" />
      <path
         style="fill:#ff6600;fill-opacity:0.24636727"
         d="M 7.6184939,10.252583 C 6.8420846,10.115797 6.1762701,9.5667197 5.8938305,8.8303059 5.7661613,8.49743 5.7158774,8.0255386 5.7715344,7.6826154 5.9314132,6.6975449 6.7005595,5.9422771 7.6913939,5.797398 7.9256502,5.7631452 8.304869,5.7844176 8.5386515,5.8449253 8.9548333,5.9526415 9.3134221,6.1607106 9.6047704,6.4635348 9.8566647,6.7253512 9.9957421,6.9433305 10.1087,7.2533563 c 0.0984,0.270054 0.127599,0.4423924 0.127568,0.7527928 -3.9e-5,0.4370519 -0.06238,0.7095026 -0.2415821,1.0558241 -0.2867226,0.5541202 -0.8297917,0.9950678 -1.4074885,1.1428178 -0.322394,0.08245 -0.6736065,0.09978 -0.9687035,0.04779 l 0,0 z M 8.3001101,9.7587403 C 8.6438474,9.6997894 9.0094551,9.5065895 9.2505105,9.2565158 9.4573133,9.0419762 9.6370721,8.7318187 9.6932511,8.4926068 9.6979208,8.4727225 9.710167,8.420891 9.7204648,8.3774257 9.7494637,8.2550262 9.7574973,7.9993294 9.7380916,7.8163945 9.7182472,7.6293253 9.6286351,7.3387955 9.55461,7.2215321 9.527482,7.1785589 9.5052866,7.1381561 9.5052866,7.1317483 c 0,-0.05275 -0.381599,-0.4830594 -0.4283778,-0.4830594 -0.011993,0 -0.026923,-0.013336 -0.033178,-0.029635 -0.00625,-0.0163 -0.024987,-0.029636 -0.041628,-0.029636 -0.01664,0 -0.030255,-0.00721 -0.030255,-0.016033 0,-0.026594 -0.355148,-0.1947089 -0.5136818,-0.2431595 -0.1217286,-0.037202 -0.1940224,-0.04533 -0.4050183,-0.045533 -0.3121992,-3.013e-4 -0.4218655,0.00744 -0.4362948,0.030783 -0.00603,0.00976 -0.019244,0.012631 -0.02936,0.00638 -0.010116,-0.00625 -0.029505,-0.00443 -0.043088,0.00405 -0.013583,0.00848 -0.038811,0.017616 -0.056061,0.020309 C 7.43337,6.3547925 7.1977828,6.4666969 7.050582,6.5541473 6.7823282,6.7135139 6.5564709,6.9753568 6.3883829,7.3218539 6.2804482,7.5443505 6.2568926,7.6689262 6.2560323,8.0217998 6.2555231,8.230631 6.2646669,8.3747893 6.2829754,8.4465751 6.3310727,8.63516 6.459521,8.908266 6.5570948,9.0294064 c 0.00875,0.010866 0.043808,0.059765 0.077901,0.1086634 0.07971,0.1143251 0.2296905,0.2514763 0.3576745,0.3270782 0.034512,0.020387 0.06275,0.042701 0.06275,0.049587 0,0.00689 0.040008,0.029019 0.088906,0.049183 0.048899,0.020165 0.088907,0.043731 0.088907,0.05237 0,0.00864 0.01197,0.015706 0.0266,0.015706 0.01463,0 0.055023,0.014179 0.089762,0.031509 0.034739,0.01733 0.07389,0.033614 0.087003,0.036186 0.013113,0.00257 0.063849,0.016456 0.1127475,0.030852 0.1927537,0.05675 0.5139398,0.068814 0.7507656,0.028198 z"
         id="path3051"
         inkscape:connector-curvature="0"
         transform="translate(1031,265.99999)" />
      <path
         style="fill:#ff6600;fill-opacity:0.24636727"
         d="M 7.5691015,10.233615 C 6.8892512,10.088233 6.2992281,9.6371202 5.993603,9.0290403 5.8357487,8.7149693 5.7674038,8.4033012 5.766229,7.9921643 5.7644928,7.3845615 5.9972816,6.8499427 6.4550993,6.4101166 6.8790612,6.0028158 7.3933845,5.795526 7.9747996,5.7976254 c 0.6365011,0.0023 1.1164044,0.1913387 1.5581356,0.6137701 0.3050746,0.2917456 0.4618668,0.5376344 0.5933168,0.9304673 0.08812,0.2633514 0.115922,0.5392888 0.08946,0.8879582 -0.02741,0.3611704 -0.107915,0.6250312 -0.2801044,0.9181273 -0.3385872,0.5763322 -0.8901762,0.9667497 -1.5339518,1.0857397 -0.205144,0.03792 -0.6550816,0.03788 -0.8325503,-7.9e-5 l 0,6e-6 z M 8.3791381,9.7497101 c 0.059765,-0.01295 0.1197768,-0.032487 0.1333597,-0.043414 0.013583,-0.010928 0.024696,-0.014589 0.024696,-0.00814 0,0.016273 0.2353058,-0.085138 0.2994048,-0.1290357 0.028843,-0.019753 0.062183,-0.035915 0.074089,-0.035915 0.011906,0 0.021646,-0.00672 0.021646,-0.014934 0,-0.00821 0.028895,-0.027293 0.06421,-0.042399 0.068709,-0.029389 0.4297146,-0.3823354 0.4297146,-0.4201212 0,-0.012441 0.020859,-0.050131 0.046353,-0.083755 C 9.5414457,8.8812147 9.685614,8.58041 9.6743545,8.5510681 9.66898,8.5370624 9.674236,8.5256031 9.686024,8.5256031 c 0.011793,0 0.016903,-0.017355 0.011356,-0.038567 -0.00555,-0.021212 -0.00204,-0.04125 0.0078,-0.044529 0.036237,-0.012079 0.056845,-0.4132535 0.032267,-0.6281558 C 9.7139584,7.6089479 9.6251691,7.3048325 9.573649,7.2533124 9.5588172,7.2384807 9.552186,7.220842 9.5589128,7.2141152 c 0.00673,-0.00673 0.00186,-0.012231 -0.010819,-0.012231 -0.012678,0 -0.021222,-0.00667 -0.018988,-0.014818 0.00666,-0.024291 -0.062762,-0.1432382 -0.083597,-0.1432382 -0.010587,0 -0.017027,-0.008 -0.01431,-0.017785 0.00538,-0.019372 0.00302,-0.02218 -0.2012633,-0.2389688 -0.07675,-0.08145 -0.1395448,-0.1394836 -0.1395448,-0.1289637 0,0.01052 -0.013944,-7.812e-4 -0.030987,-0.025113 -0.017043,-0.024332 -0.039269,-0.039122 -0.049392,-0.032865 -0.010123,0.00626 -0.018405,0.00233 -0.018405,-0.00872 0,-0.056763 -0.4387067,-0.2513139 -0.651777,-0.2890407 -0.1694427,-0.030002 -0.4645032,-0.033067 -0.6520647,-0.00677 -0.3073226,0.043082 -0.7432317,0.2775944 -0.954695,0.5136123 -0.05233,0.058407 -0.1078969,0.120276 -0.1234811,0.1374871 -0.015584,0.017211 -0.028335,0.04166 -0.028335,0.054332 0,0.012671 -0.00778,0.023039 -0.017289,0.023039 -0.00951,0 -0.02958,0.024449 -0.044601,0.054332 -0.015022,0.029882 -0.059913,0.1121209 -0.099759,0.1827521 -0.1369645,0.2427854 -0.1631872,0.361689 -0.1612147,0.7310087 9.576e-4,0.1792947 0.00272,0.348217 0.00392,0.3753829 0.00303,0.068805 0.1046233,0.3556258 0.1259637,0.3556258 0.00963,0 0.012009,0.00889 0.00529,0.019757 -0.00672,0.010866 -0.00131,0.019757 0.012005,0.019757 0.013319,0 0.018452,0.00576 0.011407,0.012809 -0.015451,0.015451 0.084527,0.2045177 0.1081486,0.2045177 0.00914,0 0.016617,0.013615 0.016617,0.030256 0,0.016641 0.013285,0.035353 0.029522,0.041584 0.016237,0.00623 0.025214,0.018299 0.019949,0.026818 -0.010417,0.016855 0.2467298,0.3032216 0.2601923,0.2897592 0.00452,-0.00452 0.032272,0.015738 0.061667,0.045022 0.1404422,0.1399124 0.5674482,0.3308102 0.7793532,0.3484185 0.055288,0.00459 0.1052493,0.013079 0.1110251,0.018854 0.017783,0.017784 0.4605801,-0.00607 0.5756918,-0.031016 z"
         id="path3053"
         inkscape:connector-curvature="0"
         transform="translate(1031,265.99999)" />
      <path
         style="fill:#ff6600;fill-opacity:0.24636727"
         d="M 7.7567929,10.243745 C 7.5274155,10.227098 7.3183709,10.168184 7.0683007,10.049713 6.5930913,9.824582 6.2251824,9.4675927 5.9992932,9.0124345 5.7115498,8.4326423 5.7026694,7.6585261 5.9770727,7.0754323 6.1913977,6.6200017 6.6634305,6.1694721 7.1347149,5.9705257 7.7317139,5.7185105 8.5376362,5.7639533 9.0857688,6.0805379 c 0.2115304,0.1221736 0.560122,0.4366608 0.7283115,0.6570575 0.169153,0.2216594 0.3400847,0.6473064 0.3842827,0.9569227 0.0307,0.2150986 0.01207,0.6260902 -0.03902,0.8607205 C 10.049915,9.0577272 9.7283205,9.5312875 9.2780812,9.8529242 8.8474995,10.160518 8.35464,10.287134 7.7567929,10.243745 l 0,0 z M 8.2902317,9.7653802 c 0.1234598,-0.012729 0.2667193,-0.054844 0.2667193,-0.078408 0,-0.00979 0.00815,-0.012759 0.018111,-0.0066 0.020603,0.012733 0.2584864,-0.085679 0.2584864,-0.1069361 0,-0.00763 0.011113,-0.013941 0.024696,-0.014015 0.050176,-2.707e-4 0.275948,-0.1744906 0.4151799,-0.320379 C 9.4511784,9.0527892 9.5921354,8.8155362 9.6791667,8.5561136 9.7402723,8.37397 9.7458163,8.337382 9.7466568,8.1107063 9.7475162,7.879052 9.7439736,7.8278869 9.7153436,7.6584123 9.6783656,7.4395231 9.5584798,7.1694032 9.4161893,6.984375 9.2529079,6.7720512 8.8658779,6.4485636 8.8137062,6.4808075 c -0.010819,0.00669 -0.019671,0.00439 -0.019671,-0.00511 0,-0.024147 -0.1369882,-0.086995 -0.1594128,-0.073136 -0.01012,0.00625 -0.0184,0.00231 -0.0184,-0.00876 0,-0.011071 -0.060012,-0.039122 -0.1333597,-0.062334 -0.1767529,-0.055938 -0.6509545,-0.072297 -0.856058,-0.029531 -0.1572097,0.032779 -0.5105466,0.1813756 -0.5258004,0.2211262 -0.00562,0.014635 -0.017251,0.022258 -0.025855,0.01694 -0.045103,-0.027875 -0.5106339,0.4014851 -0.4832857,0.4457353 0.00631,0.010214 0.00176,0.018571 -0.010112,0.018571 -0.021644,0 -0.1008522,0.1185035 -0.093383,0.1397101 0.00219,0.00621 -0.011664,0.02693 -0.03078,0.046046 -0.019116,0.019116 -0.029705,0.04293 -0.02353,0.052921 0.00617,0.00999 0.00345,0.018164 -0.00606,0.018164 -0.04387,0 -0.17126,0.3519002 -0.1597254,0.4412228 0.00304,0.023553 -9.864e-4,0.053286 -0.00895,0.066075 -0.00796,0.012788 -0.011535,0.1683744 -0.00793,0.3457473 0.00588,0.2898096 0.011651,0.3355387 0.056897,0.4511754 0.128722,0.3289798 0.2833645,0.5654244 0.5009091,0.7658782 0.1479599,0.1363359 0.4201292,0.309208 0.4868161,0.309208 0.019806,0 0.036011,0.00626 0.036011,0.013913 0,0.01801 0.2185007,0.08951 0.3457473,0.113138 0.098563,0.018302 0.4253107,0.017164 0.6124668,-0.00213 l 0,0 z"
         id="path3055"
         inkscape:connector-curvature="0"
         transform="translate(1031,265.99999)" />
      <path
         style="fill:#ff6600;fill-opacity:0.24636727"
         d="M 7.7005218,10.796501 C 7.3511988,10.760377 6.9789048,10.641124 6.6504014,10.460126 5.9577002,10.078464 5.4464682,9.3884373 5.266924,8.5928004 5.2500015,8.5178098 5.2310315,8.3142033 5.2247685,8.1403418 5.2152102,7.8750026 5.2199011,7.7861321 5.2539742,7.5870324 5.4518489,6.4307882 6.3039031,5.5469968 7.4567156,5.3022434 c 0.1577029,-0.033482 0.2718848,-0.043004 0.5272827,-0.04397 0.4920706,-0.00186 0.7849883,0.06442 1.215055,0.2749485 0.7814964,0.3825618 1.3127797,1.0479576 1.5137507,1.8958685 0.04151,0.1751504 0.04674,0.2435298 0.04604,0.6025882 -8.42e-4,0.4357239 -0.02617,0.603131 -0.138495,0.9154738 -0.390423,1.0856309 -1.3712515,1.8122379 -2.5079353,1.8579019 -0.1303961,0.0052 -0.3157497,0.0014 -0.4118969,-0.0086 l 0,0 z M 8.4299347,10.274306 C 8.8242465,10.200633 9.1876997,10.025954 9.4746068,9.7722264 9.8729239,9.4199731 10.098009,9.0580167 10.2212,8.5716401 c 0.03835,-0.1513995 0.04404,-0.2240716 0.0431,-0.5498403 -9.94e-4,-0.3422357 -0.0057,-0.3926332 -0.05361,-0.5707409 C 9.8835226,6.2342245 8.661522,5.5107534 7.440681,5.8111111 6.7084039,5.9912697 6.0707834,6.5779973 5.832559,7.2908777 5.6366453,7.8771441 5.6769896,8.4927893 5.9472092,9.0404156 c 0.3579855,0.7254925 1.0664547,1.2090764 1.8589762,1.2688934 0.1610809,0.01216 0.4615942,-0.0047 0.6237493,-0.035 l 0,0 z"
         id="path3057"
         inkscape:connector-curvature="0"
         transform="translate(1031,265.99999)" />
      <path
         style="fill:#ff6600;fill-opacity:0.24636727"
         d="M 7.5691015,10.768227 C 6.9294789,10.658678 6.3290569,10.329742 5.9371525,9.874177 5.5689518,9.4461661 5.3165351,8.9142778 5.2570424,8.44106 5.2181941,8.1320523 5.2407797,7.6339015 5.3046996,7.389928 5.4467189,6.8478593 5.6728373,6.4472186 6.0465135,6.0755682 6.467489,5.6568749 7.0077373,5.3798249 7.5724461,5.2930398 7.8400202,5.2519187 8.3508329,5.2670049 8.6001222,5.323391 9.0680168,5.4292228 9.5864888,5.7214905 9.9511085,6.0849551 10.315605,6.4482974 10.521444,6.8008733 10.674756,7.3244715 l 0.06534,0.2231605 0,0.4544108 c 0,0.6204646 -0.04484,0.8212713 -0.288968,1.294083 -0.425348,0.8237882 -1.2105744,1.3716922 -2.1213854,1.4802302 -0.2310641,0.02754 -0.5737981,0.02387 -0.7606441,-0.0081 l 0,0 z M 8.2507177,10.302189 C 8.8286915,10.233313 9.2984712,9.9952074 9.6883284,9.5735424 9.9325061,9.3094428 10.101778,9.0078233 10.209915,8.644145 10.263674,8.4633478 10.265711,8.4408509 10.26537,8.0316783 10.265031,7.6224549 10.262958,7.6000311 10.208782,7.4192116 9.988953,6.6854973 9.4592066,6.120756 8.7548286,5.8692102 8.5394621,5.7922991 8.3592114,5.7581707 8.1025402,5.745707 7.5121541,5.7170384 6.994818,5.8933638 6.5219809,6.2844141 6.1745499,6.5717499 5.899402,7.0021589 5.777593,7.4488471 5.7278729,7.6311766 5.72368,7.6753734 5.7232367,8.0217998 c -4.175e-4,0.3262506 0.00527,0.3970618 0.043487,0.5410158 0.2240644,0.8440906 0.8203959,1.4560684 1.6388184,1.6818154 0.278539,0.07683 0.536199,0.09438 0.8451755,0.05756 z"
         id="path3059"
         inkscape:connector-curvature="0"
         transform="translate(1031,265.99999)" />
      <path
         style="fill:#ff6600;fill-opacity:0.24636727"
         d="M 7.4703165,10.740622 C 6.6024456,10.552082 5.9157938,10.021503 5.5254168,9.2377873 5.3140425,8.8134352 5.2526337,8.5518317 5.2538891,8.0810708 5.2552516,7.5701493 5.320689,7.2498861 5.5054089,6.8500839 5.8634006,6.0752577 6.6627985,5.4616318 7.5056967,5.3146426 c 0.2197015,-0.038313 0.7477451,-0.038199 0.9845749,2.129e-4 0.4575502,0.07421 1.0002805,0.3528674 1.3853754,0.7113014 0.393732,0.3664727 0.628,0.7536287 0.793683,1.3116567 0.05964,0.200881 0.06089,0.2136193 0.06077,0.6223452 -1.19e-4,0.4483671 -0.02794,0.706008 -0.09856,0.9128439 -0.05648,0.165438 -0.247068,0.5407349 -0.365374,0.7194779 -0.131738,0.1990379 -0.5323901,0.5983344 -0.7312519,0.7287784 -0.2859325,0.187558 -0.6251051,0.331886 -0.9582141,0.407749 -0.2312988,0.05268 -0.8857527,0.05955 -1.1063915,0.01161 l 0,0 z M 8.3379278,10.294109 C 8.683105,10.242264 9.0078988,10.117068 9.2932581,9.9258649 9.4478295,9.8222953 9.7880489,9.4824231 9.8939746,9.3257613 10.008212,9.1568064 10.121352,8.9222411 10.198921,8.6935375 l 0.06701,-0.1975699 -0.0018,-0.4741678 -0.0018,-0.4741678 -0.07397,-0.2074484 C 10.042839,6.9319169 9.8685673,6.6567466 9.580297,6.3799957 9.2652797,6.0775663 8.9110975,5.8851794 8.4878016,5.786567 8.3625075,5.7573781 8.2560313,5.7501068 7.9741198,5.7514873 7.6519793,5.7530649 7.5999565,5.7582784 7.4216189,5.8068576 6.7842571,5.9804752 6.254289,6.4110851 5.9518681,7.0010601 5.7550672,7.3849873 5.7001814,7.654028 5.7174332,8.1502203 c 0.012314,0.3541806 0.055732,0.5354927 0.202583,0.8459937 0.3394904,0.7178148 0.9672587,1.184445 1.7676272,1.313905 0.1205601,0.0195 0.4713592,0.01086 0.6502844,-0.01601 z"
         id="path3061"
         inkscape:connector-curvature="0"
         transform="translate(1031,265.99999)" />
      <path
         style="fill:#ff6600;fill-opacity:0.24636727"
         d="M 7.6235858,10.223025 C 7.3446103,10.18216 6.9497864,10.008772 6.6807578,9.8089778 6.0986026,9.3766408 5.7910826,8.7581403 5.7909992,8.0194485 5.7909561,7.6373304 5.8551977,7.3477323 6.0096122,7.0339502 6.2381328,6.5695792 6.7634004,6.1036217 7.2479778,5.9354135 7.441312,5.8683027 7.6281982,5.8357877 7.8852133,5.8245456 c 0.2846748,-0.012452 0.516589,0.013275 0.7661918,0.084996 0.3536683,0.1016235 0.5538123,0.2260245 0.8968557,0.5574473 0.2885825,0.2788067 0.4143541,0.4743836 0.5424762,0.8435591 0.08922,0.2570754 0.108039,0.3786819 0.107022,0.6914947 -0.0018,0.5557685 -0.108565,0.9141392 -0.3903591,1.3103523 -0.3574506,0.502589 -0.8866964,0.8247929 -1.4974113,0.9116209 -0.162744,0.02314 -0.5252491,0.02262 -0.6864028,-9.92e-4 l 0,10e-7 z M 8.1864264,9.7786067 c 0.00629,-0.00629 0.058897,-0.014022 0.1168954,-0.017173 0.1911973,-0.010388 0.542448,-0.1594499 0.7477368,-0.3173213 0.1658728,-0.1275597 0.4549855,-0.4443415 0.4055306,-0.4443415 -0.00582,0 0.0069,-0.017478 0.028266,-0.038839 C 9.541049,8.9047376 9.6161595,8.748312 9.6835909,8.5470428 9.7336223,8.3977088 9.743164,8.3363862 9.747339,8.1373403 9.7535907,7.8392972 9.7356853,7.6799581 9.6739993,7.4846867 9.5962816,7.2386669 9.4762421,7.035818 9.2978382,6.8490301 9.0314749,6.570149 8.8755007,6.468564 8.5327296,6.350719 8.3671492,6.2937924 8.3221546,6.2869896 8.0655457,6.2800852 7.9064331,6.275804 7.728363,6.2820745 7.6605274,6.2943473 7.3705128,6.3468167 7.0202665,6.5300769 6.7875911,6.7510958 6.6183124,6.911894 6.512903,7.0585455 6.3940092,7.298669 6.2649253,7.5593729 6.2551603,7.6133419 6.2560186,8.0613138 c 8.353e-4,0.4359305 -6.919e-4,0.4287676 0.1594235,0.7478083 0.1351255,0.2692465 0.3469517,0.5152583 0.5861931,0.6807958 0.1491708,0.1032155 0.4429217,0.2306242 0.6168587,0.2675508 0.1349764,0.028655 0.545149,0.043922 0.5679325,0.021138 z"
         id="path3063"
         inkscape:connector-curvature="0"
         transform="translate(1031,265.99999)" />
      <path
         style="fill:#ff6600;fill-opacity:0.24636727"
         d="M 7.6828763,10.224411 C 7.3166072,10.182349 6.8588153,9.9648567 6.5234994,9.6736023 6.0007062,9.219506 5.7323355,8.5068648 5.8088674,7.775943 5.8639075,7.2502796 6.0463116,6.8685844 6.423196,6.4904112 6.8291797,6.0830392 7.2264186,5.8899559 7.7655087,5.8379621 8.3193857,5.7845421 8.8495236,5.9152217 9.2328869,6.1996724 9.4057815,6.327958 9.6840716,6.5990649 9.7958648,6.7481186 10.04976,7.0866363 10.197041,7.5425463 10.196619,7.9886547 10.196234,8.3957744 10.131463,8.7004888 9.9795917,9.0096494 9.6826489,9.61413 9.1349138,10.042235 8.4730056,10.187183 c -0.2034103,0.04454 -0.574266,0.06202 -0.7901293,0.03723 l 0,0 z M 8.2895018,9.7691449 c 0.5704241,-0.079339 1.1033849,-0.50875 1.3437406,-1.0826636 0.034781,-0.08305 0.073066,-0.1910076 0.085077,-0.2399062 0.02962,-0.1205866 0.05289,-0.4821796 0.03391,-0.5269296 -0.00843,-0.01988 -0.01355,-0.063508 -0.011374,-0.096952 0.00456,-0.070119 -0.043828,-0.293487 -0.09169,-0.4232384 C 9.567649,7.1784667 9.4577069,7.0155909 9.2486548,6.8061104 9.0049758,6.5619322 8.9388359,6.5146114 8.6920499,6.4078787 8.4649704,6.309669 8.2789227,6.2754358 7.9686645,6.2747743 7.6934404,6.2741875 7.5177577,6.3109618 7.287462,6.4173649 6.8930522,6.5995934 6.6411816,6.8385088 6.4187449,7.2413987 6.2845954,7.4843778 6.2614431,7.5865494 6.253097,7.9724073 c -0.00867,0.4009769 0.00469,0.4949178 0.101968,0.7165585 0.16777,0.3822707 0.4655956,0.7159034 0.7922809,0.887536 0.1870438,0.098268 0.3767529,0.1688203 0.5205405,0.1935873 0.1340127,0.023083 0.4523407,0.0226 0.6216154,-9.444e-4 l 0,2e-7 z"
         id="path3065"
         inkscape:connector-curvature="0"
         transform="translate(1031,265.99999)" />
      <path
         style="fill:#ff6600;fill-opacity:0.24636727"
         d="M 7.7963069,9.756986 C 7.3451621,9.7007592 6.9013306,9.4497372 6.6296864,9.0971693 6.0402585,8.3321486 6.1778642,7.2426149 6.9377626,6.6578865 7.1030232,6.5307214 7.3155336,6.4219322 7.519709,6.3599742 7.6794428,6.3115022 7.7276538,6.306016 7.9938768,6.306016 c 0.2650734,0 0.3146996,0.00559 0.470149,0.052975 0.9601688,0.2926721 1.4794814,1.2536705 1.1861983,2.195085 C 9.407953,9.3317464 8.5984919,9.8569635 7.7963069,9.756986 l 0,0 z"
         id="path3067"
         inkscape:connector-curvature="0"
         transform="translate(1031,265.99999)" />
      <path
         style="fill:#ff6600;fill-opacity:0.24636727"
         d="M 7.7963069,9.756986 C 7.3451621,9.7007592 6.9013306,9.4497372 6.6296864,9.0971693 6.0402585,8.3321486 6.1778642,7.2426149 6.9377626,6.6578865 7.1030232,6.5307214 7.3155336,6.4219322 7.519709,6.3599742 7.6794428,6.3115022 7.7276538,6.306016 7.9938768,6.306016 c 0.2650734,0 0.3146996,0.00559 0.470149,0.052975 0.9601688,0.2926721 1.4794814,1.2536705 1.1861983,2.195085 C 9.407953,9.3317464 8.5984919,9.8569635 7.7963069,9.756986 l 0,0 z"
         id="path3069"
         inkscape:connector-curvature="0"
         transform="translate(1031,265.99999)" />
      <path
         style="fill:#ff6600;fill-opacity:0.24636727"
         d="M 7.7963069,9.756986 C 7.3451621,9.7007592 6.9013306,9.4497372 6.6296864,9.0971693 6.0402585,8.3321486 6.1778642,7.2426149 6.9377626,6.6578865 7.1030232,6.5307214 7.3155336,6.4219322 7.519709,6.3599742 7.6794428,6.3115022 7.7276538,6.306016 7.9938768,6.306016 c 0.2650734,0 0.3146996,0.00559 0.470149,0.052975 0.9601688,0.2926721 1.4794814,1.2536705 1.1861983,2.195085 C 9.407953,9.3317464 8.5984919,9.8569635 7.7963069,9.756986 l 0,0 z"
         id="path3071"
         inkscape:connector-curvature="0"
         transform="translate(1031,265.99999)" />
      <path
         style="fill:#ff6600;fill-opacity:0.24636727"
         d="M 7.5704585,10.203201 C 7.3220888,10.154481 6.9109814,9.9663297 6.6899153,9.8002027 6.0643481,9.3301005 5.7546596,8.6345066 5.812174,7.8287011 5.8322087,7.5480058 5.8940763,7.3108924 6.0092304,7.0734642 6.1271469,6.8303404 6.2473656,6.6700346 6.4798417,6.445927 6.7735129,6.1628271 7.063912,5.9946679 7.4308025,5.8952613 c 0.1501523,-0.040683 0.2108209,-0.045438 0.5729528,-0.044907 0.3513463,5.15e-4 0.4251137,0.00617 0.5566617,0.042653 0.3801648,0.1054418 0.6370041,0.2556402 0.9486519,0.5547673 0.2290442,0.2198421 0.348441,0.372715 0.4500996,0.5762969 0.1932685,0.3870404 0.2612845,0.7641573 0.2191445,1.215055 -0.02838,0.303662 -0.08154,0.5039244 -0.1994827,0.7515066 -0.3001425,0.6300431 -0.8931484,1.0827277 -1.5799352,1.2060787 -0.1644833,0.02954 -0.6899318,0.03366 -0.8284366,0.0065 z M 8.3396241,9.7618437 C 8.6614003,9.7035845 8.9503633,9.5523572 9.2025773,9.3102216 9.6277351,8.9020532 9.8075257,8.4106115 9.7444507,7.8290585 9.6964677,7.3866536 9.5597804,7.1125541 9.2180901,6.7735464 9.0212281,6.5782301 8.9740713,6.5423782 8.8107764,6.4638777 8.4665891,6.2984171 8.2892885,6.2629974 7.8852133,6.2789761 7.6844849,6.2869137 7.5868816,6.3002028 7.4907246,6.3326874 7.1295655,6.4546972 6.789792,6.6948985 6.580793,6.9759593 6.4786477,7.1133238 6.3344105,7.3868255 6.2949376,7.5179965 c -0.039285,0.1305466 -0.060022,0.7435121 -0.030565,0.9034547 0.072103,0.3914932 0.4598161,0.9205624 0.8237554,1.124089 0.1790023,0.1001037 0.3846676,0.1839028 0.5276781,0.2150043 0.1585825,0.034488 0.5367607,0.035167 0.7238179,0.0013 l 0,-8e-7 z"
         id="path3073"
         inkscape:connector-curvature="0"
         transform="translate(1031,265.99999)" />
      <path
         style="fill:#ff6600;fill-opacity:0.24636727"
         d="M 7.6038186,10.203687 C 7.2398328,10.144719 6.7681207,9.8939694 6.4672684,9.599527 6.0465314,9.1877545 5.8418062,8.7190859 5.8163458,8.1093992 5.7886508,7.4461984 5.9827784,6.9441705 6.4423016,6.490633 6.7416839,6.1951504 7.0124208,6.0273644 7.3715315,5.9147536 7.5102807,5.8712443 7.5505081,5.8682974 8.0037553,5.8684396 8.4838401,5.8685901 8.4891759,5.869054 8.655736,5.9251067 8.9755027,6.0327182 9.1766694,6.1540096 9.4686959,6.4152726 9.9967422,6.8876916 10.233947,7.4881948 10.17584,8.2054675 10.150266,8.5211511 10.094693,8.7330009 9.9700651,8.9898924 9.6504624,9.6486818 9.0334039,10.103586 8.3259896,10.201927 c -0.1596372,0.02219 -0.5895852,0.02324 -0.722171,0.0018 l 0,-10e-7 z M 8.3396241,9.7618437 C 8.6574892,9.7042926 8.9483957,9.5533543 9.1945629,9.3182546 9.385922,9.1354989 9.5005011,8.9785849 9.6042431,8.7572056 9.7267186,8.4958495 9.7505715,8.3807952 9.7505616,8.0514353 9.7505523,7.7365084 9.7295962,7.6084469 9.6396405,7.3735966 9.5546088,7.151602 9.4149093,6.9560857 9.1853891,6.7378501 9.0142549,6.5751298 8.9550333,6.5326677 8.7855438,6.4511594 8.4777715,6.3031502 8.3876761,6.2843288 7.9839983,6.2837124 7.674454,6.2832398 7.6239914,6.287962 7.5020692,6.3288106 7.0412141,6.4832144 6.6680251,6.7869409 6.4458369,7.1884441 6.2848515,7.4793513 6.263342,7.5664908 6.2530719,7.9693742 6.2427038,8.3761 6.2605237,8.4963108 6.3640159,8.7177884 6.543045,9.1009178 6.8308487,9.4124713 7.165321,9.5852176 c 0.20188,0.1042659 0.3316909,0.1534118 0.4842939,0.183352 0.1362512,0.026732 0.5262101,0.022931 0.6900092,-0.00673 z"
         id="path3075"
         inkscape:connector-curvature="0"
         transform="translate(1031,265.99999)" />
      <path
         style="fill:#ff6600;fill-opacity:0.24636727"
         d="M 7.636953,10.204679 C 7.3840298,10.17259 7.003168,10.007865 6.720445,9.8082831 6.4215467,9.5972828 6.1232314,9.2313473 5.990812,8.9132617 5.8388575,8.5482507 5.7774384,8.0836467 5.8311745,7.705688 5.9012069,7.213108 6.087298,6.8498016 6.4559703,6.4858964 6.7362975,6.2091939 7.0062413,6.0402053 7.3517746,5.9251105 7.5176876,5.8698459 7.5255352,5.869168 8.0037553,5.8687907 l 0.4840463,-3.819e-4 0.2023608,0.072245 c 0.3475406,0.1240755 0.5858995,0.2828543 0.899971,0.599501 0.2499289,0.2519783 0.406725,0.5201045 0.5209866,0.8909035 0.0517,0.1677866 0.05416,0.1944053 0.05364,0.5808632 -5.02e-4,0.375112 -0.0044,0.4194524 -0.053,0.6004962 -0.02885,0.107513 -0.0964,0.2826311 -0.150102,0.3891513 -0.3090827,0.6130355 -0.8524533,1.0367912 -1.5056361,1.1741922 -0.1708432,0.03594 -0.6346706,0.05231 -0.8190779,0.02892 l 0,0 z M 8.3396241,9.7618437 C 8.6563295,9.7045026 8.9372028,9.5592037 9.1887132,9.3226009 9.3823725,9.1404201 9.499076,8.9816261 9.6042431,8.7572056 9.7272232,8.4947725 9.7508097,8.3807644 9.7502557,8.0514353 9.7497262,7.7362553 9.7283286,7.6051374 9.6396405,7.3735966 9.5546088,7.151602 9.4149093,6.9560857 9.1853891,6.7378501 9.0142549,6.5751298 8.9550333,6.5326677 8.7855438,6.4511594 8.4742862,6.301474 8.3886517,6.2838692 7.9741198,6.2843459 7.5797354,6.2847995 7.5189615,6.2978167 7.2255442,6.4446834 6.7877466,6.6638179 6.4305574,7.0761138 6.295688,7.5179965 c -0.041838,0.1370788 -0.061021,0.7402902 -0.029174,0.9174134 0.04871,0.2709124 0.2774033,0.6482253 0.5441792,0.8978231 0.2179183,0.203886 0.5964174,0.399574 0.857193,0.4431777 0.1153265,0.019283 0.5350468,0.010182 0.6717377,-0.014567 z"
         id="path3077"
         inkscape:connector-curvature="0"
         transform="translate(1031,265.99999)" />
      <path
         style="fill:#ff6600;fill-opacity:0.24636727"
         d="M 7.7172789,10.203006 C 7.1097678,10.162682 6.4188599,9.6904014 6.0725236,9.078709 5.8784175,8.7358823 5.7778154,8.1825634 5.8302372,7.746115 5.8930996,7.2227409 6.0896973,6.8379819 6.4878711,6.4590679 6.7668191,6.1936127 7.0531092,6.0204763 7.38141,5.9186927 c 0.1264237,-0.039195 0.1802537,-0.042829 0.6269012,-0.042319 0.472899,5.4e-4 0.4935356,0.00221 0.6421023,0.051925 0.3439018,0.1150817 0.6325042,0.3033187 0.9203992,0.6003179 0.1883523,0.1943085 0.3063284,0.3516822 0.3936377,0.5250912 0.090884,0.1805075 0.1713506,0.4506399 0.1944276,0.6527034 0.02654,0.2323749 0.01012,0.6476257 -0.03295,0.833349 -0.06442,0.2777627 -0.2021155,0.5679591 -0.3892666,0.8203737 -0.3400178,0.458589 -0.9465308,0.8046477 -1.4661827,0.8365617 -0.3048627,0.01872 -0.3572072,0.01932 -0.5531958,0.0063 l 0,0 z M 8.3001101,9.7691526 C 8.7293958,9.7002924 9.1733421,9.418469 9.4390177,9.0461579 9.5446437,8.8981364 9.6705051,8.6344481 9.7169156,8.4639423 9.768199,8.2755339 9.7617334,7.7815334 9.7052126,7.5697963 9.6179102,7.2427454 9.457844,6.9916841 9.1569539,6.7098604 9.0158965,6.5777415 8.9431992,6.5271861 8.7841564,6.4506082 8.4780367,6.3032139 8.3874663,6.2843251 7.9839983,6.2837322 7.5926185,6.283157 7.517896,6.2984664 7.2444083,6.4352622 6.856381,6.6293496 6.585273,6.9003611 6.388575,7.2907911 6.2828589,7.5006294 6.2637042,7.5974759 6.2539857,7.9712778 6.243372,8.3795132 6.2606163,8.496509 6.3640159,8.7177884 6.4734927,8.9520732 6.6233976,9.1579973 6.8149031,9.3371715 6.952386,9.4658016 7.024993,9.5150101 7.2213621,9.6126442 c 0.1314917,0.065377 0.2968651,0.1313323 0.3674964,0.1465665 0.1540409,0.033224 0.5330742,0.038523 0.7112516,0.00994 l 0,0 z"
         id="path3079"
         inkscape:connector-curvature="0"
         transform="translate(1031,265.99999)" />
      <path
         style="fill:#ff6600;fill-opacity:0.24636727"
         d="M 7.480195,10.166754 C 7.1409307,10.076454 6.7624276,9.8648367 6.5038004,9.6208608 6.0455091,9.188532 5.8230352,8.6565797 5.8226446,7.9921643 5.8222746,7.3627829 6.0545792,6.8484024 6.5335636,6.418012 6.7450894,6.227946 6.8398954,6.1636018 7.0828938,6.0451853 7.4133074,5.8841701 7.4753236,5.8738799 8.0654882,5.8821463 l 0.5013413,0.00702 0.158056,0.065003 c 0.3500271,0.1439547 0.56072,0.2889731 0.8518869,0.5863474 0.2902302,0.2964177 0.4401576,0.5600378 0.5443346,0.9571119 0.05205,0.1984002 0.05658,0.8017645 0.0077,1.0269713 -0.09616,0.4431393 -0.4004993,0.9254851 -0.7694992,1.2195868 -0.1895776,0.1510982 -0.562704,0.3408338 -0.7924923,0.4029838 -0.2295011,0.06207 -0.8827647,0.07384 -1.0866345,0.01958 l 0,0 z M 8.3428254,9.7622131 C 8.7612152,9.6818769 9.1810969,9.4076016 9.4390177,9.0461579 9.5450683,8.8975415 9.6708492,8.6336634 9.7165387,8.4639423 9.7676616,8.2740371 9.7614408,7.7798067 9.7052843,7.5697963 9.6177628,7.2424895 9.4576964,6.9914851 9.1569539,6.709945 9.0172868,6.5791957 8.9416317,6.5263786 8.7841564,6.4496839 8.4833144,6.3031656 8.3896887,6.2837147 7.9839983,6.2834498 7.5923973,6.2831942 7.5170082,6.2986992 7.2444083,6.4355595 7.0325439,6.5419272 6.933942,6.6108545 6.7716796,6.7660188 6.5536554,6.9745057 6.3756916,7.2557056 6.2957523,7.5180294 c -0.042661,0.139994 -0.06215,0.7344167 -0.029949,0.9134609 0.049777,0.2767693 0.2765893,0.6507182 0.5496224,0.9061702 0.1393831,0.130408 0.2088479,0.1772662 0.4089203,0.275842 0.132558,0.065311 0.2976961,0.1310461 0.3669736,0.1460772 0.1663542,0.036094 0.5698797,0.037508 0.7515056,0.00263 z"
         id="path3081"
         inkscape:connector-curvature="0"
         transform="translate(1031,265.99999)" />
      <path
         style="fill:#ff6600;fill-opacity:0.24636727"
         d="M 7.539466,10.177166 C 7.141462,10.096888 6.6394206,9.7920796 6.3486584,9.4541817 5.9848742,9.0314244 5.826822,8.5914911 5.8269572,8.0020428 5.8270967,7.3933891 6.0222907,6.9258019 6.4539652,6.5000447 6.6808787,6.2762416 6.8870934,6.1330346 7.1534316,6.0142962 7.4456192,5.8840336 7.5169952,5.8738463 8.0827832,5.8816513 l 0.4840463,0.00668 0.1876914,0.080498 C 9.1088,6.1207728 9.4164515,6.3476701 9.6803306,6.6516247 c 0.1528061,0.176013 0.2368636,0.309729 0.3295324,0.5242096 0.12663,0.2930839 0.137598,0.3624621 0.136856,0.8657225 -6.54e-4,0.4442207 -0.0019,0.4581767 -0.0562,0.6223452 -0.2703668,0.8176113 -0.9668657,1.422511 -1.7503746,1.520177 -0.2180433,0.02718 -0.65015,0.02345 -0.8006764,-0.0069 z M 8.346368,9.7616343 C 8.6764249,9.6984838 9.0103092,9.512725 9.2596067,9.2535475 9.4081283,9.0991397 9.5311606,8.9334457 9.5117237,8.9140086 9.5052554,8.9075403 9.4728344,8.9441949 9.4396768,8.9954629 9.336116,9.155588 9.0371572,9.4353424 8.8675766,9.5308125 8.0049644,10.016445 6.9473144,9.71923 6.4740276,8.8581903 6.3521441,8.6364505 6.2914827,8.4257088 6.2588666,8.1107063 c -0.00394,-0.038032 -0.00858,-0.00633 -0.010322,0.07046 -0.00448,0.1978086 0.028165,0.3494121 0.1155517,0.536622 0.109376,0.234318 0.2592519,0.4401629 0.4513293,0.6198721 0.1393831,0.130408 0.2088479,0.1772662 0.4089203,0.275842 0.132558,0.065311 0.2976961,0.1310461 0.3669736,0.1460772 0.1677803,0.036404 0.569805,0.037497 0.7550482,0.00205 z m 1.2059711,-0.911067 c 0.00675,-0.017582 0.00343,-0.025513 -0.00776,-0.018591 -0.010742,0.00664 -0.019531,0.020437 -0.019531,0.030662 0,0.028419 0.014161,0.022157 0.027295,-0.012071 z m 0.061104,-0.1066562 c 0.016578,-0.032059 0.029484,-0.07429 0.028678,-0.093846 -0.00128,-0.031086 -0.072078,0.096667 -0.076098,0.1373178 -0.00317,0.03207 0.018746,0.011977 0.04742,-0.043472 z M 9.7013961,8.5206639 C 9.7447659,8.3652492 9.7595947,8.2009616 9.7517737,7.9625288 9.7346803,7.4414096 9.5717061,7.0982154 9.1569539,6.709945 9.0172868,6.5791957 8.9416317,6.5263786 8.7841564,6.4496839 8.4806138,6.3018504 8.390543,6.2833634 7.9741198,6.2834249 7.5768119,6.2834842 7.5320205,6.2928585 7.2431111,6.4364263 7.0312122,6.5417253 6.8744194,6.656139 6.7183388,6.8193597 6.5670772,6.9775408 6.4942319,7.0803836 6.3983869,7.271067 6.3008879,7.465041 6.2691417,7.5862425 6.2575275,7.8088434 c -0.00972,0.1863349 -0.00943,0.1881079 0.00812,0.049899 0.049987,-0.3935805 0.208249,-0.738933 0.4628426,-1.009996 C 6.9409014,6.6225946 7.2176461,6.4516367 7.519709,6.3599742 7.6794428,6.3115022 7.7276538,6.306016 7.9938768,6.306016 c 0.2650734,0 0.3146996,0.00559 0.470149,0.052975 0.9611654,0.2929758 1.4696647,1.2352152 1.187917,2.2011871 -0.00724,0.024824 -0.00436,0.044453 0.00653,0.044453 0.010721,0 0.030038,-0.037785 0.042925,-0.083967 z"
         id="path3083"
         inkscape:connector-curvature="0"
         transform="translate(1031,265.99999)" />
      <path
         style="fill:#ff6600;fill-opacity:0.24636727"
         d="M 7.539466,10.174949 C 7.1810537,10.106449 6.7414913,9.8568557 6.4423726,9.5519956 6.1652414,9.2695449 5.9900174,8.96674 5.895521,8.6069798 5.8546739,8.4514697 5.8438853,8.3559125 5.836145,8.0810708 5.8251107,7.689269 5.8574959,7.4823857 5.9749658,7.1942545 6.2098338,6.6181683 6.8303168,6.0702892 7.420924,5.9174906 c 0.1119054,-0.028951 0.2236324,-0.036234 0.5854347,-0.038159 0.496437,-0.00264 0.560425,0.00639 0.7944784,0.112178 0.3199712,0.144617 0.5095851,0.2799721 0.7810448,0.5575451 0.2596944,0.2655426 0.4209041,0.5385556 0.5198571,0.8803943 0.04203,0.1451994 0.04554,0.1937105 0.04431,0.6121081 -0.0013,0.4418928 -0.0029,0.4590371 -0.05635,0.6223452 -0.2699032,0.8239883 -0.9682026,1.424228 -1.7693106,1.520853 -0.2264553,0.02731 -0.6120347,0.02247 -0.7809194,-0.0098 l 0,0 z M 8.4482876,9.7403208 C 8.7386128,9.6594108 8.992617,9.5131769 9.2157058,9.2985065 9.3872601,9.133426 9.5044479,8.9701629 9.6042431,8.7572056 9.7285185,8.4920085 9.7500404,8.3834818 9.7481218,8.0316783 9.7461698,7.6737059 9.7108929,7.5063074 9.5836656,7.2512772 9.5034755,7.0905346 9.3216201,6.8471792 9.2687146,6.8298157 c -0.016018,-0.00526 0.00932,0.034077 0.056318,0.08741 C 9.6994597,7.3421657 9.8273035,7.9856657 9.6502241,8.5540757 9.4187075,9.2972252 8.6735376,9.813173 7.9049703,9.762471 7.0612982,9.7068145 6.3976543,9.0949322 6.2758077,8.2603768 l -0.026179,-0.179306 -0.00212,0.1198526 c -0.00605,0.3413908 0.1709161,0.7246061 0.4908511,1.0629443 0.1465194,0.1549476 0.3148734,0.2725072 0.5377631,0.3755139 0.1617658,0.074759 0.2255838,0.096862 0.4016448,0.1391083 0.091685,0.022 0.6546953,-0.00589 0.7705227,-0.038169 l 0,0 z M 6.259002,7.8390476 c -0.00497,-0.019016 -0.00904,-0.00346 -0.00904,0.034575 0,0.038032 0.00407,0.053591 0.00904,0.034575 0.00497,-0.019016 0.00497,-0.050133 0,-0.069149 z M 6.3931852,7.3734042 C 6.4851229,7.1593396 6.5714909,7.0217034 6.7070802,6.8731809 6.9296743,6.6293547 7.2050049,6.4554727 7.519709,6.3599742 7.6794428,6.3115022 7.7276538,6.306016 7.9938768,6.306016 c 0.2650094,0 0.3147198,0.0056 0.4699856,0.052927 0.2121044,0.064655 0.3981623,0.156686 0.5642374,0.2790917 0.068971,0.050835 0.12953,0.088299 0.1345761,0.083252 C 9.1845898,6.6993735 8.9298609,6.5201501 8.7629244,6.4400284 8.4732488,6.3009976 8.3844306,6.2833643 7.9741198,6.2834249 7.677595,6.2834687 7.6004353,6.2896601 7.5098305,6.3206805 7.351173,6.3749999 7.1024302,6.5025962 6.9665132,6.599383 6.8313618,6.6956247 6.6175018,6.9125323 6.5283121,7.0438287 c -0.1539837,0.22668 -0.2649,0.515388 -0.2615614,0.6808279 0.00141,0.069687 0.00532,0.062266 0.030851,-0.058483 0.016082,-0.076064 0.059095,-0.2078108 0.095583,-0.2927698 l 0,0 z M 9.2089318,6.7672309 c 0,-0.010866 -0.00942,-0.019757 -0.020923,-0.019757 -0.011508,0 -0.015428,0.00889 -0.00871,0.019757 0.00672,0.010866 0.016131,0.019757 0.020923,0.019757 0.00479,0 0.00871,-0.00889 0.00871,-0.019757 z"
         id="path3085"
         inkscape:connector-curvature="0"
         transform="translate(1031,265.99999)" />
      <path
         style="fill:#ff6600;fill-opacity:0.24636727"
         d="M 7.519709,10.73804 C 7.2919217,10.703051 6.9311634,10.575092 6.6997938,10.447222 6.3346031,10.245394 5.9838359,9.9339749 5.7608574,9.6136133 5.5447477,9.3031201 5.3614146,8.8947878 5.2945389,8.5749956 5.26206,8.4196853 5.2624951,7.7732705 5.2952171,7.567389 5.3970002,6.926986 5.6977665,6.3961791 6.2096115,5.9536214 6.5635772,5.6475713 7.0000333,5.4285211 7.4452767,5.3334612 7.6387575,5.2921528 8.2784585,5.2865818 8.4976801,5.3242959 8.8153102,5.37894 9.1789381,5.53244 9.5143112,5.7534512 9.7522767,5.9102708 10.141978,6.2912144 10.28247,6.5043479 c 0.235834,0.3577709 0.400985,0.7952916 0.431098,1.1420691 0.02244,0.2583843 0.0046,0.7638146 -0.03504,0.9951434 -0.04567,0.2662411 -0.260818,0.7310802 -0.467569,1.0101912 -0.194181,0.2621439 -0.5582868,0.5948754 -0.8143378,0.7441704 -0.2778734,0.162017 -0.6657911,0.304663 -0.9275084,0.341065 -0.1704232,0.0237 -0.7974167,0.0244 -0.9494058,0.0011 l 0,0 z M 8.3544909,10.293683 C 8.7181655,10.234701 9.0800889,10.086876 9.3491222,9.8874334 9.5123527,9.7664255 9.821876,9.4455736 9.913392,9.302511 10.020048,9.1357814 10.12735,8.9089292 10.20468,8.6866862 l 0.07113,-0.2044212 0,-0.4614995 0,-0.4614994 -0.08886,-0.2299212 C 10.011586,6.8756198 9.8674862,6.65349 9.5582454,6.3602016 9.2675707,6.0845216 8.9492585,5.9071842 8.5439845,5.7951389 8.4078266,5.7574956 8.3398557,5.7523673 7.9839983,5.7528891 7.6039828,5.7534463 7.568003,5.7567312 7.401167,5.8061003 6.6463112,6.0294726 6.0510356,6.6029024 5.8011002,7.3474473 c -0.073713,0.2195881 -0.095955,0.4306812 -0.083543,0.7928945 0.013336,0.389169 0.049941,0.5403373 0.2106925,0.8701062 0.2397518,0.4918309 0.5783146,0.8409049 1.0382633,1.070498 0.1745796,0.08714 0.4057946,0.167993 0.6025883,0.210704 0.1725429,0.03745 0.5608296,0.03845 0.7853894,0.002 l 0,0 z"
         id="path3087"
         inkscape:connector-curvature="0"
         transform="translate(1031,265.99999)" />
      <path
         style="fill:#ff6600;fill-opacity:0.24636727"
         d="M 7.6481294,10.739303 C 7.4223949,10.722085 7.3264957,10.699824 7.0774117,10.606822 6.7160564,10.471902 6.4164046,10.287233 6.1458678,10.032731 5.753212,9.663349 5.4935987,9.2371824 5.3300543,8.6935375 5.2929591,8.570228 5.2883804,8.5049169 5.2878094,8.0909493 5.2871049,7.5802125 5.2998466,7.4792161 5.4064164,7.1508193 5.6667737,6.3485237 6.3306267,5.6980161 7.1785926,5.414269 c 0.273926,-0.091661 0.510143,-0.1171966 0.9528288,-0.1030017 0.5259767,0.016866 0.8242392,0.1075395 1.2905638,0.3923397 0.2361866,0.1442472 0.6318128,0.506182 0.8062968,0.7376335 0.154745,0.2052687 0.317646,0.5465179 0.414978,0.8693076 0.04848,0.1607729 0.05447,0.2152234 0.06247,0.5681919 0.01343,0.5917334 -0.02427,0.836826 -0.186098,1.2099374 -0.279582,0.6446036 -0.8304685,1.2036436 -1.4329603,1.4541686 -0.1808036,0.07518 -0.4077893,0.146694 -0.5494817,0.173118 -0.1473826,0.02749 -0.6587235,0.04091 -0.8890646,0.02334 l 0,0 z M 8.541555,10.25757 C 9.0085318,10.135866 9.2747619,9.983558 9.6155014,9.6431747 9.8973894,9.3615815 10.004186,9.1994507 10.159363,8.8175265 l 0.106568,-0.2622879 0.0059,-0.5075747 0.0059,-0.5075745 -0.101333,-0.2490962 C 10.003429,6.8659556 9.8664472,6.655639 9.5876707,6.3871794 9.2911933,6.101674 8.992062,5.927868 8.5875054,5.8060477 8.3953118,5.7481743 7.9613269,5.7244745 7.6678864,5.7558277 7.2208375,5.8035934 6.6829451,6.0844328 6.3378458,6.4502563 6.0264769,6.7803238 5.7967987,7.223325 5.7330498,7.6167815 c -0.029293,0.1807944 -0.025878,0.628865 0.0064,0.8396721 0.0813,0.5309796 0.4842084,1.1485579 0.9602029,1.4717997 0.1927349,0.1308837 0.5022818,0.2692317 0.7509074,0.3356077 0.2203426,0.05882 0.2373504,0.0604 0.5630743,0.05221 0.277026,-0.007 0.3695156,-0.01722 0.5279212,-0.0585 l 0,0 z"
         id="path3089"
         inkscape:connector-curvature="0"
         transform="translate(1031,265.99999)" />
      <path
         style="fill:#008080;fill-opacity:0.24636727"
         d="M 5.5365046,13.441762 C 4.8344418,13.124836 4.2462458,12.708885 3.7114288,12.151135 l -0.3300669,-0.34422 0.656651,-0.01068 0.656651,-0.01067 0.1494253,0.107753 c 0.6231933,0.449397 0.9935317,0.650087 1.5467062,0.838173 0.5563655,0.189171 0.8995969,0.240366 1.611503,0.240366 0.4915706,0 0.7444154,-0.01805 0.9902007,-0.07067 0.7124358,-0.152542 1.3898459,-0.450084 1.9609859,-0.861333 l 0.349482,-0.251646 0.653689,-3.54e-4 0.653689,-3.54e-4 -0.115757,0.145618 c -0.06367,0.08009 -0.235508,0.260001 -0.381869,0.399803 -0.505616,0.482955 -1.001486,0.815863 -1.648118,1.106483 l -0.38531,0.173172 -2.0869439,-0.0021 -2.0869442,-0.0021 -0.3688983,-0.166528 z"
         id="path3070"
         inkscape:connector-curvature="0"
         transform="translate(1031,265.99999)" />
      <path
         style="fill:#008080;fill-opacity:0.24636727"
         d="M 6.5849524,12.77439 C 5.8404248,12.552343 5.1016684,12.116569 4.5086257,11.549617 l -0.3604461,-0.344589 -0.6034841,0 -0.6034842,0 L 2.82345,11.001163 2.7056886,10.797298 3.2473901,10.786524 c 0.3213297,-0.0064 0.5417015,-0.02629 0.5417015,-0.04891 0,-0.02097 -0.078751,-0.183783 -0.1750029,-0.3618 C 3.3798084,9.9425179 3.1710096,9.3227096 3.092196,8.8266049 l -0.029303,-0.1844491 1.0038172,-0.00693 c 0.5520994,-0.00381 1.0404075,-0.00818 1.0851292,-0.00971 0.067453,-0.0023 0.096341,0.044628 0.1694872,0.2753349 0.2429097,0.7661494 0.8638359,1.4397013 1.6047541,1.7407633 0.5405307,0.219638 1.2448084,0.266799 1.7886635,0.119778 0.4832265,-0.130632 1.0534415,-0.476525 1.3782503,-0.8360491 0.273219,-0.3024214 0.567902,-0.8547588 0.628573,-1.1781626 0.0249,-0.1327004 0.02605,-0.1333446 0.283782,-0.157689 0.142333,-0.013444 0.63964,-0.024568 1.105128,-0.02472 l 0.846343,-2.761e-4 -0.0247,0.1456177 C 12.826889,9.3305575 12.606595,9.9770804 12.323844,10.4953 l -0.153032,0.280473 0.560977,0.01076 0.560977,0.01076 -0.115233,0.203865 -0.115233,0.203865 -0.609173,0 -0.609173,0 -0.212246,0.217217 c -0.216881,0.221959 -0.708219,0.618153 -0.991511,0.799512 -0.274888,0.175978 -0.605349,0.328765 -1.0458112,0.483525 l -0.4271454,0.150081 -1.1261106,0.0087 c -1.1052437,0.0086 -1.1322265,0.0069 -1.4561774,-0.08971 l 0,0 z"
         id="path3072"
         inkscape:connector-curvature="0"
         transform="translate(1031,265.99999)" />
      <path
         style="fill:#008080;fill-opacity:0.24636727"
         d="M 2.4335646,10.215393 C 2.2889321,9.8289404 2.1293866,9.2246949 2.0796842,8.8751442 2.0209994,8.4624218 2.0271172,7.4749364 2.0907505,7.0888998 L 2.1387571,6.7976643 2.653794,6.7782486 c 0.4340243,-0.016362 0.5117002,-0.010758 0.4938243,0.035625 -0.084152,0.2183513 -0.1426357,0.8798969 -0.123625,1.3984063 0.027076,0.7384969 0.1840952,1.4143673 0.4494058,1.9344194 0.045487,0.08916 0.082704,0.171546 0.082704,0.183076 0,0.01153 -0.2257075,0.02096 -0.5015723,0.02096 -0.3667279,0 -0.5059286,0.01305 -0.5177765,0.04854 -0.00891,0.0267 -0.055348,-0.05605 -0.1031898,-0.183884 z"
         id="path3074"
         inkscape:connector-curvature="0"
         transform="translate(1031,265.99999)" />
      <path
         style="fill:#008080;fill-opacity:0.24636727"
         d="M 2.1754261,6.6352356 C 2.2241838,6.3663121 2.4613531,5.7041085 2.6269814,5.3744425 2.8004588,5.0291535 3.1268076,4.5170124 3.3160781,4.2930391 l 0.1148517,-0.1359099 0.6935969,-0.012317 0.693597,-0.012317 -0.3049875,0.30205 C 3.9988984,4.9438297 3.6680764,5.424061 3.4068578,6.040452 3.3208739,6.2433461 3.2306626,6.4890609 3.2063883,6.5864849 l -0.044135,0.1771346 -0.5068504,0.00992 -0.5068503,0.00992 0.026874,-0.1482224 z"
         id="path3076"
         inkscape:connector-curvature="0"
         transform="translate(1031,265.99999)" />
      <path
         style="fill:#008080;fill-opacity:0.24636727"
         d="M 12.532886,5.8754186 C 12.002967,4.799472 11.243535,4.0312406 10.200828,3.5163403 9.5566778,3.1982517 8.9850132,3.05668 8.2114548,3.0236757 7.0967947,2.9761181 6.1176445,3.2496884 5.2039472,3.8639603 L 4.794116,4.1394868 4.1079631,4.1288923 3.4218102,4.1182978 3.7751549,3.7673641 c 0.892757,-0.8866653 2.0373357,-1.4693618 3.2842834,-1.6720045 0.4266806,-0.06934 1.39987,-0.077451 1.8165666,-0.015139 1.7505891,0.2617787 3.3420651,1.3221228 4.2537471,2.8341205 0.223954,0.3714215 0.600178,1.2045668 0.600178,1.3290897 0,0.016505 -0.225228,0.030009 -0.500507,0.030009 l -0.500506,0 -0.196031,-0.3980218 z"
         id="path3078"
         inkscape:connector-curvature="0"
         transform="translate(1031,265.99999)" />
      <path
         style="fill:#008080;fill-opacity:0.24636727"
         d="m 13.88951,9.0013462 c -0.0032,-0.035982 -0.12833,-0.048539 -0.483848,-0.048539 l -0.479593,0 0.03421,-0.2038649 c 0.05704,-0.3399372 0.04482,-1.1830446 -0.02266,-1.5629638 -0.05451,-0.3068723 -0.158412,-0.6970367 -0.232682,-0.8737065 -0.0213,-0.050663 0.04479,-0.055719 0.507532,-0.038831 l 0.532018,0.019416 0.05014,0.194157 c 0.133533,0.5171333 0.181812,0.9442831 0.177752,1.5726717 -0.0023,0.352395 -0.02089,0.7193517 -0.04137,0.8154594 -0.02048,0.096108 -0.03915,0.1528986 -0.04149,0.126202 z"
         id="path3080"
         inkscape:connector-curvature="0"
         transform="translate(1031,265.99999)" />
      <path
         style="fill:#008080;fill-opacity:0.24636727"
         d="m 12.448494,10.339851 c 0,-0.006 0.06086,-0.155201 0.135253,-0.331584 0.125569,-0.297737 0.252095,-0.6866189 0.310551,-0.9544913 l 0.02457,-0.1126039 0.468576,0.02356 c 0.257716,0.012958 0.478549,0.033534 0.490739,0.045724 0.03586,0.035865 -0.06567,0.4737279 -0.213985,0.922844 l -0.137859,0.4174372 -0.538924,0 c -0.296408,0 -0.538923,-0.0049 -0.538923,-0.01089 z"
         id="path3082"
         inkscape:connector-curvature="0"
         transform="translate(1031,265.99999)" />
      <path
         style="fill:#008080;fill-opacity:0.24636727"
         d="m 12.241056,10.748759 c -0.0098,-0.01602 0.01972,-0.09902 0.06566,-0.184449 l 0.08353,-0.155326 0.532151,0.01942 0.532151,0.01942 -0.07398,0.165033 -0.07398,0.165034 -0.523831,0 c -0.288107,0 -0.53187,-0.01311 -0.541695,-0.02912 z"
         id="path3086"
         inkscape:connector-curvature="0"
         transform="translate(1031,265.99999)" />
      <path
         style="fill:#008080;fill-opacity:0.24636727"
         d="m 11.92427,11.787499 c -0.557969,-0.0155 -0.683299,-0.02856 -0.621303,-0.06475 0.04271,-0.02493 0.182508,-0.151469 0.310652,-0.281193 l 0.232988,-0.235861 0.593545,-3.35e-4 0.593545,-3.35e-4 -0.04499,0.08406 c -0.02474,0.04623 -0.117098,0.181658 -0.205231,0.300943 l -0.160243,0.216882 -0.698965,-0.01942 z"
         id="path3088"
         inkscape:connector-curvature="0"
         transform="translate(1031,265.99999)" />
      <path
         style="fill:#008080;fill-opacity:0.24636727"
         d="M 7.7304786,13.972149 C 7.250331,13.952933 6.3696048,13.787748 6.0365372,13.654441 c -0.060205,-0.0241 0.6166344,-0.03739 1.9463455,-0.03822 1.2199783,-7.66e-4 2.0147785,0.0127 1.9792077,0.03353 -0.032692,0.01915 -0.2336448,0.07813 -0.446561,0.131067 -0.5889335,0.146429 -1.2191444,0.213978 -1.7850508,0.19133 z"
         id="path3090"
         inkscape:connector-curvature="0"
         transform="translate(1031,265.99999)" />
      <path
         style="fill:#008080;fill-opacity:0.24636727"
         d="m 2.6276265,10.629373 c -0.044627,-0.08748 -0.08114,-0.168481 -0.08114,-0.18001 0,-0.01153 0.2414014,-0.02096 0.5364476,-0.02096 l 0.5364475,0 0.067103,0.140718 c 0.036907,0.07739 0.058431,0.149389 0.047832,0.159989 -0.010599,0.0106 -0.2456844,0.02828 -0.5224112,0.03929 l -0.5031396,0.02002 -0.08114,-0.159047 z"
         id="path3092"
         inkscape:connector-curvature="0"
         transform="translate(1031,265.99999)" />
      <path
         style="fill:#008080;fill-opacity:0.24636727"
         d="M 3.1709005,11.526849 C 3.0638841,11.381884 2.9757193,11.25017 2.9749787,11.234152 c -7.406e-4,-0.01602 0.2563969,-0.02893 0.5714166,-0.02869 l 0.5727632,4.3e-4 0.2815276,0.255191 c 0.1548402,0.140355 0.2815277,0.269716 0.2815277,0.287469 0,0.01775 -0.2962661,0.03444 -0.658369,0.03708 l -0.6583691,0.0048 -0.1945752,-0.263574 z"
         id="path3094"
         inkscape:connector-curvature="0"
         transform="translate(1031,265.99999)" />
      <path
         style="fill:#008080;fill-opacity:0.24636727"
         d="M 3.0720145,8.5733039 C 3.0606188,8.5436071 3.051295,8.269653 3.051295,7.9645169 c 0,-0.834277 0.1162804,-1.369832 0.4535876,-2.0890983 l 0.1411304,-0.3009434 1.4761271,0 1.4761271,0 L 6.407379,5.7006773 C 5.9737778,5.9873442 5.5877896,6.4694159 5.3840897,6.9786926 5.2265961,7.3724471 5.1730162,7.7237473 5.195967,8.2121313 l 0.019296,0.4106088 -1.0612644,0.00228 c -0.8719128,0.00187 -1.0649613,-0.00735 -1.081984,-0.051715 z"
         id="path3096"
         inkscape:connector-curvature="0"
         transform="translate(1031,265.99999)" />
      <path
         style="fill:#008080;fill-opacity:0.24636727"
         d="m 10.701081,7.2168928 c 0,-0.1201261 -0.341693,-0.7649021 -0.51766,-0.9768266 C 9.8126855,5.7935734 9.2600479,5.4455683 8.6903753,5.2998707 8.1080624,5.1509402 7.3452274,5.2221132 6.7876068,5.4774004 l -0.2120395,0.097075 -1.4514849,0 c -0.7983168,0 -1.451485,-0.010756 -1.451485,-0.023901 0,-0.075354 0.4077651,-0.6156141 0.7404768,-0.9810791 C 4.7044155,4.2494729 4.8872334,4.0884924 5.1581195,3.9134444 6.1171526,3.2937123 6.9076623,3.0501908 7.9588457,3.0506632 c 0.9184966,4.127e-4 1.4784531,0.1257469 2.2568423,0.5051455 0.974319,0.4748977 1.6793,1.1676425 2.232151,2.1934078 0.182262,0.3381715 0.23485,0.4871269 0.390713,1.1066949 0.119781,0.4761343 0.238,0.4271454 -1.030776,0.4271454 -1.016697,0 -1.106695,-0.00538 -1.106695,-0.066164 z"
         id="path3098"
         inkscape:connector-curvature="0"
         transform="translate(1031,265.99999)" />
      <path
         style="fill:#00ffff;fill-opacity:0.24636727000000000"
         d="m 10.794849,8.1373476 c 0.0018,-0.2456086 -0.0104,-0.5383003 -0.02715,-0.6504259 l -0.03046,-0.2038649 1.042019,0 c 0.730688,0 1.055299,-0.01328 1.086467,-0.044448 0.03338,-0.033377 0.05086,-0.018895 0.0702,0.058139 0.03094,0.1232864 0.0454,1.2127364 0.01649,1.2422977 -0.01117,0.01142 -0.501936,0.026187 -1.09059,0.032814 l -1.07028,0.01205 0.0033,-0.4465611 z"
         id="path3100"
         inkscape:connector-curvature="0"
         transform="translate(1031,265.99999)" />
      <path
         style="fill:#00ffff;fill-opacity:0.24636727"
         d="M 7.6123748,9.7141011 C 7.31165,9.6410418 7.0660387,9.5063369 6.8225889,9.2809454 6.4320893,8.9194116 6.249998,8.460872 6.2844391,7.9257847 6.3182278,7.4008348 6.5486346,6.9713172 6.9673201,6.6527782 7.3035057,6.3970056 7.6410054,6.2975661 8.0986544,6.3194466 8.396585,6.3336908 8.4795881,6.3544795 8.7272577,6.4768845 9.6363776,6.9261959 9.9769492,7.9553768 9.5103476,8.8433213 9.1544497,9.5205963 8.3448278,9.8920464 7.6123748,9.7141011 z"
         id="path3102"
         inkscape:connector-curvature="0"
         transform="translate(1031,265.99999)" />
      <path
         style="fill:#00ffff;fill-opacity:0.24636727"
         d="M 7.5470372,9.6719961 C 7.1775885,9.5703008 6.7681877,9.2613705 6.5514189,8.920711 6.2650143,8.4706168 6.2309824,7.8001373 6.4691975,7.3008301 6.6309676,6.9617547 6.9199223,6.6731674 7.270437,6.5006096 7.504864,6.3852015 7.5733262,6.3703923 7.9341752,6.3570347 8.2537017,6.3452067 8.3740658,6.3564567 8.5188944,6.4116865 9.5222321,6.7943052 9.9580006,7.8410959 9.509207,8.7905873 9.3902812,9.042193 9.0961853,9.3528233 8.8309777,9.5069475 8.4718824,9.715634 7.9495163,9.7827833 7.5470372,9.6719961 z"
         id="path3104"
         inkscape:connector-curvature="0"
         transform="translate(1031,265.99999)" />
      <path
         style="fill:#00ffff;fill-opacity:0.24636727"
         d="M 7.4789906,9.6285228 C 7.2198965,9.5342086 6.933709,9.337841 6.7433693,9.1237761 6.0265319,8.3175874 6.2889792,7.021684 7.2697247,6.5247556 7.4771151,6.4196741 7.5383809,6.4081893 7.9545905,6.3963714 c 0.4374112,-0.01242 0.4675184,-0.00809 0.6989652,0.1004311 0.3587835,0.1682328 0.6580549,0.4615391 0.8336873,0.8170699 0.1421062,0.2876643 0.1459742,0.3068625 0.1459742,0.7245182 0,0.3995145 -0.0083,0.4465472 -0.1207232,0.6837876 C 9.3488736,9.0674683 9.0325094,9.3859697 8.6973854,9.5427931 8.469096,9.6496226 8.3865331,9.6667748 8.0444337,9.6784419 7.7524716,9.6883992 7.6085822,9.6756962 7.4789906,9.6285228 l 0,0 z"
         id="path3106"
         inkscape:connector-curvature="0"
         transform="translate(1031,265.99999)" />
      <path
         style="fill:#00ffff;fill-opacity:0.24636727"
         d="M 7.5169059,9.6174656 C 6.9288794,9.4257988 6.4259103,8.8179684 6.3657492,8.2263103 6.2957694,7.5380898 6.6853364,6.8314109 7.2932455,6.5438216 7.5205085,6.4363082 7.5665991,6.4288253 8.0017411,6.4287967 c 0.429295,-2.83e-5 0.4820396,0.00822 0.6795495,0.106323 0.2816042,0.1398666 0.6514772,0.5139861 0.7970337,0.8061842 0.1094694,0.2197551 0.1160615,0.2594551 0.1160615,0.6989652 0,0.4407388 -0.00631,0.4784255 -0.1164574,0.6958219 C 9.3290142,9.0299943 8.9919423,9.3670418 8.6981203,9.5158427 8.4890182,9.6217387 8.4297264,9.6330046 8.0411298,9.6406759 7.8061999,9.6453137 7.5702991,9.634869 7.5169059,9.6174656 z"
         id="path3108"
         inkscape:connector-curvature="0"
         transform="translate(1031,265.99999)" />
      <path
         style="fill:#00ffff;fill-opacity:0.24636727"
         d="M 7.329086,9.5157077 C 7.0562366,9.388688 6.6742741,8.9995435 6.5288286,8.7004029 6.3703038,8.374362 6.3448765,7.906824 6.4658919,7.5431726 6.5713336,7.22632 6.7987263,6.9051354 7.0462496,6.7234366 7.3621345,6.4915558 7.4792169,6.4592764 8.0044004,6.4592764 c 0.410801,0 0.4917167,0.01102 0.6417157,0.087399 0.2591441,0.1319545 0.4899189,0.3367176 0.6741425,0.5981566 0.2233672,0.3169893 0.2547115,0.4295192 0.2547115,0.9144452 0,0.3850191 -0.00859,0.4323353 -0.1183363,0.6519606 C 9.3054396,9.0138041 8.9758334,9.3434103 8.673267,9.4946044 8.4500037,9.6061705 8.4107056,9.6129191 7.9863884,9.6125614 7.589034,9.6122275 7.51205,9.6008829 7.329086,9.5157077 l 0,0 z"
         id="path3110"
         inkscape:connector-curvature="0"
         transform="translate(1031,265.99999)" />
      <path
         style="fill:#00ffff;fill-opacity:0.24636727"
         d="M 7.6464909,9.5753631 C 7.1063253,9.5129586 6.5511156,8.9332816 6.4325117,8.3078856 6.3777203,8.0189716 6.4426215,7.603844 6.5874305,7.316979 6.7348538,7.0249351 7.0409317,6.7107741 7.3033332,6.5821702 c 0.175783,-0.086152 0.2419296,-0.095157 0.6989652,-0.095157 0.4578476,0 0.5210639,0.00864 0.6795495,0.09291 0.2458734,0.1307317 0.6292342,0.5351574 0.7593199,0.801043 0.1013391,0.2071296 0.1098206,0.2589832 0.1083953,0.6627002 -0.00142,0.4017524 -0.010606,0.455894 -0.1110535,0.6544249 C 9.2992498,8.9733338 8.936074,9.3378237 8.6724167,9.4669566 8.4419806,9.5798185 8.0466454,9.6215925 7.6464909,9.5753631 l 0,0 z"
         id="path3112"
         inkscape:connector-curvature="0"
         transform="translate(1031,265.99999)" />
      <path
         style="fill:#00ffff;fill-opacity:0.24636727"
         d="M 7.3397727,10.116405 C 6.8947005,9.975263 6.3649517,9.5564788 6.1348866,9.1639026 5.7673917,8.5368198 5.7264593,7.7272535 6.0299726,7.0888998 6.2208206,6.6875055 6.6454631,6.2660892 7.0711333,6.0556491 l 0.3056535,-0.151107 0.6252856,0 0.6252856,0 0.3008205,0.1486067 c 0.5670523,0.2801264 1.065438,0.8941938 1.1915375,1.4681086 0.07147,0.3252875 0.03175,1.0079686 -0.07384,1.2690682 -0.2637921,0.6523073 -0.8097556,1.1603311 -1.43259,1.3330384 -0.3538229,0.09811 -0.9525076,0.09484 -1.2735173,-0.007 l 0,0 z M 8.2673659,9.7672366 C 8.9839327,9.6636371 9.6040441,9.0631246 9.7373933,8.34367 9.7956303,8.0294655 9.7314645,7.5540159 9.5925295,7.2702738 9.2676719,6.606828 8.6375905,6.2437781 7.8743536,6.2802689 7.5774695,6.2944631 7.4873459,6.3161011 7.2595768,6.4278717 6.9122116,6.5983304 6.5621354,6.9458383 6.3980714,7.2830568 6.2888712,7.5075076 6.2733364,7.5823334 6.2577995,7.9586957 6.2370482,8.4613713 6.2776068,8.6140786 6.5352543,9.003341 6.7989901,9.4018018 7.2318005,9.6940171 7.6672077,9.767588 7.920461,9.8103806 7.9691494,9.8103519 8.2673659,9.7672385 l 0,-1.9e-6 z"
         id="path3114"
         inkscape:connector-curvature="0"
         transform="translate(1031,265.99999)" />
      <path
         style="fill:#00ffff;fill-opacity:0.24636727"
         d=""
         id="path3116"
         inkscape:connector-curvature="0"
         transform="translate(1031,265.99999)" />
      <path
         style="fill:#00ffff;fill-opacity:0.24636727"
         d=""
         id="path3118"
         inkscape:connector-curvature="0"
         transform="translate(1031,265.99999)" />
      <path
         style="fill:#00ffff;fill-opacity:0.24636727"
         d=""
         id="path3120"
         inkscape:connector-curvature="0"
         transform="translate(1031,265.99999)" />
      <path
         style="fill:#00ffff;fill-opacity:0.24636727"
         d=""
         id="path3122"
         inkscape:connector-curvature="0"
         transform="translate(1031,265.99999)" />
      <path
         style="fill:#00ffff;fill-opacity:0.24636727"
         d=""
         id="path3124"
         inkscape:connector-curvature="0"
         transform="translate(1031,265.99999)" />
      <path
         style="fill:#00ffff;fill-opacity:0.24636727"
         d=""
         id="path3126"
         inkscape:connector-curvature="0"
         transform="translate(1031,265.99999)" />
      <path
         style="fill:#00ffff;fill-opacity:0.24636727"
         d=""
         id="path3128"
         inkscape:connector-curvature="0"
         transform="translate(1031,265.99999)" />
      <path
         style="fill:#00ffff;fill-opacity:0.24636727"
         d=""
         id="path3130"
         inkscape:connector-curvature="0"
         transform="translate(1031,265.99999)" />
      <path
         style="fill:#00ffff;fill-opacity:0.24636727"
         d="M 7.4582669,10.702329 C 6.561533,10.508206 5.8172595,9.8694051 5.4352379,8.9659879 5.3261317,8.70797 5.3229429,8.6815943 5.3233197,8.0402691 5.3237044,7.38544 5.3247276,7.3775962 5.4506544,7.0641582 5.7639148,6.2844373 6.3777724,5.7031248 7.171433,5.4346103 7.4103202,5.3537891 7.5267666,5.3394975 7.9599918,5.3378297 8.529653,5.3356366 8.7843568,5.3868391 9.1656017,5.5801908 9.7124123,5.8575105 10.194143,6.331603 10.4284,6.8229665 10.665646,7.3206017 10.714524,7.5648261 10.691454,8.1373476 10.659767,8.9236917 10.45854,9.3860194 9.905037,9.9441761 9.3643599,10.489399 8.8864616,10.694817 8.0993769,10.720314 c -0.2669658,0.0086 -0.5554654,5.55e-4 -0.64111,-0.01798 l 0,0 z M 8.6624322,10.228088 C 9.2690156,10.05311 9.7946863,9.6021235 10.085573,9.0071386 L 10.25452,8.6615715 10.267006,8.066275 10.279493,7.4709784 10.085983,7.0747919 C 9.9197242,6.7343985 9.8491066,6.6371732 9.5845285,6.3843966 9.1134376,5.9343189 8.623209,5.7298008 8.015467,5.7298008 c -0.3944106,0 -0.6522691,0.056486 -0.9839536,0.2155442 C 6.6526597,6.1270227 6.3493565,6.3800652 6.1214352,6.7046134 5.8853796,7.0407444 5.7734134,7.3227302 5.7196096,7.7166073 5.6229498,8.4242159 5.8383783,9.0833807 6.3401288,9.6152625 6.9488938,10.260586 7.7849513,10.48121 8.6624322,10.228088 z"
         id="path3132"
         inkscape:connector-curvature="0"
         transform="translate(1031,265.99999)" />
      <path
         style="fill:#00ffff;fill-opacity:0.24636727"
         d="M 7.1977731,10.605262 C 6.4643458,10.351116 5.8885144,9.8360392 5.5277408,9.1114296 l -0.1659775,-0.3333639 0,-0.7438265 0,-0.7438265 0.2129165,-0.421014 C 5.7528892,6.5170133 5.839528,6.3964529 6.1061798,6.1298011 6.3763846,5.8595963 6.4865452,5.7810415 6.8316092,5.6125014 7.1993839,5.4328688 7.2755707,5.4102929 7.624936,5.3774203 c 0.4907964,-0.04618 1.0121483,0.00488 1.3201515,0.1292848 0.5772967,0.2331805 1.2029035,0.7997794 1.4544415,1.3172565 0.216453,0.4453004 0.262805,0.6496716 0.262046,1.1554005 -0.0012,0.7737351 -0.145576,1.2179196 -0.558473,1.7177263 -0.597004,0.7226656 -1.2214235,1.0059686 -2.2059529,1.0008536 -0.3543868,-0.0018 -0.4885287,-0.01962 -0.699376,-0.09268 l 0,0 z M 8.4357358,10.293001 C 8.6054153,10.260813 8.8689674,10.17221 9.0313305,10.09277 9.4297073,9.8978541 9.8805499,9.4439912 10.105848,9.0110541 l 0.161661,-0.3106512 0.01077,-0.6407181 0.01077,-0.6407181 -0.1477,-0.2912355 C 9.9445604,6.7396838 9.7451068,6.4856656 9.4501279,6.2473992 8.9800718,5.8677162 8.5942941,5.7298008 8.0022984,5.7298008 c -0.4514393,0 -0.6883438,0.057543 -1.080339,0.2624099 -1.1054309,0.5777264 -1.5482786,1.934929 -0.9977023,3.0576748 0.284286,0.5797217 0.8671653,1.0608455 1.4794507,1.2211765 0.3510606,0.09193 0.6316371,0.09789 1.032028,0.02194 l 0,0 z"
         id="path3134"
         inkscape:connector-curvature="0"
         transform="translate(1031,265.99999)" />
      <path
         style="fill:#00ffff;fill-opacity:0.24636727"
         d="M 7.1877064,10.578975 C 6.4862147,10.337774 5.9104588,9.8095791 5.5209317,9.0498855 L 5.3815581,8.7780657 5.3813686,8.0294539 5.381179,7.2808421 5.5022077,7.0392532 C 5.8467125,6.3515775 6.2591289,5.9177514 6.8386765,5.6334045 7.2692275,5.4221607 7.6041355,5.3619538 8.182148,5.3918867 c 0.713669,0.036958 1.1503728,0.2450156 1.7234622,0.8211046 0.5379028,0.5407188 0.7200748,0.9902941 0.7201518,1.7772389 7.7e-5,0.8918169 -0.172518,1.3281523 -0.7583231,1.9170017 -0.572009,0.5749821 -1.0373854,0.7533751 -1.962219,0.7521821 -0.3873947,-5.01e-4 -0.5322562,-0.01674 -0.7175135,-0.08044 l 0,0 z M 8.5380516,10.275091 C 8.7007264,10.233486 8.9346473,10.150484 9.0578759,10.090642 9.4482555,9.9010678 9.9405724,9.3785552 10.188775,8.8903812 10.256809,8.7565707 10.274203,8.6283329 10.296757,8.0942931 L 10.323641,7.4577093 10.196395,7.2053496 C 9.9207373,6.6586521 9.6428921,6.3383757 9.1907785,6.0461608 8.814104,5.8027042 8.5906689,5.7489548 7.963467,5.7509194 7.4875007,5.7524103 7.3932415,5.7636822 7.2062547,5.8414702 6.5293689,6.12306 6.0270399,6.6306525 5.8073922,7.2549902 5.701315,7.5565094 5.6613771,8.2113358 5.7291529,8.5378102 5.8083635,8.9193654 6.058207,9.361989 6.3683812,9.6702691 6.9669574,10.26519 7.7372186,10.47991 8.5380516,10.275091 z"
         id="path3136"
         inkscape:connector-curvature="0"
         transform="translate(1031,265.99999)" />
      <path
         style="fill:#00ffff;fill-opacity:0.24636727"
         d="M 7.1607482,10.54636 C 6.5072769,10.314898 5.9705823,9.8231484 5.5586472,9.0784247 L 5.381179,8.7575859 5.3817252,8.0300292 5.3822713,7.3024725 5.5391596,7.0146405 C 5.9116752,6.3312122 6.2522096,5.9672562 6.7714691,5.6975741 7.1874549,5.4815282 7.4611727,5.4190372 7.9884879,5.4197236 c 0.7543706,9.819e-4 1.143631,0.1421414 1.683789,0.6106009 0.7140511,0.6192708 0.9259651,1.0804578 0.9235621,2.0099446 -0.0015,0.5951784 -0.06514,0.8899565 -0.272024,1.2606897 -0.165101,0.2958658 -0.7154825,0.8636632 -0.9934198,1.0248542 -0.3921141,0.22741 -0.5747194,0.267591 -1.2892654,0.283688 -0.5858045,0.0132 -0.6849331,0.0061 -0.8803816,-0.06314 l 0,0 z m 1.355775,-0.253925 C 9.0594504,10.164423 9.4759535,9.8864536 9.8745082,9.3861312 10.228291,8.9420122 10.266041,8.8298996 10.307694,8.09961 l 0.03648,-0.6396243 -0.09868,-0.1952508 C 9.8893018,6.559947 9.3460571,6.0275721 8.7789264,5.8275086 8.5333829,5.7408896 7.7292324,5.702813 7.4427955,5.7642428 6.6664143,5.9307467 5.9107441,6.6842569 5.744659,7.4575251 c -0.067213,0.3129338 -0.065913,0.9651201 0.00236,1.1846307 0.2688575,0.8644106 0.9351379,1.4907992 1.789301,1.6821722 0.178356,0.03996 0.7550361,0.0212 0.9802016,-0.03189 l 0,0 z"
         id="path3138"
         inkscape:connector-curvature="0"
         transform="translate(1031,265.99999)" />
      <path
         style="fill:#00ffff;fill-opacity:0.24636727"
         d="M 7.6772154,10.150443 C 7.3225565,10.118783 6.9360082,9.9386733 6.609483,9.6529385 6.3125824,9.3931275 6.2280076,9.2886803 6.082214,9.0017771 5.7755863,8.3983733 5.7778646,7.6240848 6.0879848,7.0405301 6.2671128,6.7034642 6.6895424,6.2936107 7.0687211,6.0889913 l 0.3058222,-0.1650335 0.6333614,0 0.6333613,0 0.2241558,0.1203725 c 0.5766074,0.3096403 0.963522,0.736015 1.1694542,1.2887224 0.06757,0.1813528 0.08364,0.3087885 0.08327,0.6601338 C 10.117403,8.6959523 9.9851773,9.034627 9.5192441,9.5271617 9.0378867,10.036001 8.4862337,10.222662 7.6772154,10.150443 z M 8.4049248,9.7506899 C 8.9377499,9.6088733 9.3570146,9.2660103 9.6008065,8.772731 9.717792,8.5360268 9.7463933,8.4306146 9.7607034,8.1834186 9.804301,7.4302964 9.4545645,6.7822414 8.8383502,6.4743155 8.3498802,6.2302242 7.692079,6.2038328 7.2645018,6.4111718 6.955818,6.5608576 6.5236571,6.992678 6.3724985,7.3024725 6.2657505,7.521249 6.2586962,7.565108 6.2568508,8.0214926 c -0.00191,0.4728676 0.00149,0.493064 0.1257673,0.7456708 0.1458737,0.2965143 0.5000164,0.6794151 0.7536114,0.8148084 0.408217,0.2179457 0.8586726,0.2778497 1.2686953,0.1687181 l 0,0 z"
         id="path3140"
         inkscape:connector-curvature="0"
         transform="translate(1031,265.99999)" />
      <path
         style="fill:#00ffff;fill-opacity:0.24636727"
         d="M 7.6528158,10.132009 C 7.4667651,10.103194 7.1774282,10.001384 7.0006826,9.9025407 6.7963622,9.7882762 6.4531207,9.4970871 6.3012204,9.3091512 5.8515054,8.7527495 5.7549738,7.7847322 6.0815497,7.1062976 6.2470501,6.7624842 6.7089828,6.3139533 7.1500386,6.068808 l 0.2606087,-0.1448502 0.6081001,0 0.6081002,0 0.3284435,0.2010145 c 0.6657328,0.4074428 1.0616579,0.9575325 1.1186539,1.5542346 0.03843,0.4023416 -0.0078,0.8994502 -0.1083089,1.164386 -0.1031012,0.2717912 -0.5164097,0.7608032 -0.8178114,0.9676051 -0.2910464,0.199697 -0.645186,0.309725 -1.0484478,0.325743 -0.1815368,0.0072 -0.3824893,0.005 -0.4465611,-0.0049 z M 8.7404023,9.6384359 C 9.1179805,9.4591247 9.425052,9.1555394 9.611449,8.7772781 9.7229092,8.5510885 9.7478487,8.4524578 9.7621852,8.1811463 9.7928974,7.5999296 9.6305866,7.1393098 9.2669222,6.7756454 8.8962496,6.4049728 8.4513603,6.252179 7.8227931,6.2796704 7.4883407,6.2942982 7.4350588,6.3079277 7.2013148,6.4386448 6.9047982,6.6044664 6.5417769,6.974502 6.3713797,7.2846161 6.2581643,7.4906623 6.2548855,7.5113841 6.2548855,8.0208534 c 0,0.4980247 0.00547,0.5350211 0.1094738,0.7402664 0.1403094,0.276895 0.4890148,0.6684734 0.7112767,0.7987276 0.3224564,0.1889721 0.5779833,0.2493935 0.990874,0.2343001 0.3359714,-0.012282 0.4058866,-0.028436 0.6738923,-0.1557116 z"
         id="path3142"
         inkscape:connector-curvature="0"
         transform="translate(1031,265.99999)" />
      <path
         style="fill:#00ffff;fill-opacity:0.24636727"
         d="M 7.3786041,10.038743 C 7.0761353,9.9428228 6.7287839,9.7173405 6.4551078,9.4392568 6.0913065,9.0695963 5.9248186,8.616906 5.9248186,7.9973696 c 0,-0.7882033 0.3256835,-1.3137394 1.1444048,-1.846658 l 0.3483612,-0.2267538 0.593655,0 0.5936551,0 0.33942,0.2187608 C 9.8287492,6.7127486 10.160564,7.3723122 10.046827,8.3342371 9.9882306,8.8298161 9.85217,9.1003292 9.4637742,9.4934516 9.1424501,9.8186859 8.8356275,9.9958075 8.4566561,10.074837 c -0.3168978,0.06608 -0.8076572,0.04965 -1.078052,-0.03609 l 0,0 z M 8.7455068,9.6464497 C 9.1014788,9.4715256 9.4449743,9.1304261 9.6150311,8.7829908 9.7265599,8.5551312 9.7481135,8.4649115 9.762398,8.1661333 9.7906716,7.5747725 9.6544527,7.1727461 9.298163,6.7960224 8.9329175,6.4098291 8.4778015,6.2509583 7.8195974,6.2798882 7.5410757,6.2921301 7.4148981,6.3169587 7.2670119,6.3886234 7.0153726,6.5105662 6.5616787,6.9458747 6.3907954,7.2293323 l -0.1359099,0.2254445 0,0.5645659 c 0,0.5524432 0.00246,0.5690027 0.1144578,0.771187 0.1470352,0.26543 0.5274836,0.6806033 0.7352571,0.8023667 0.2753872,0.1613876 0.5441386,0.2159624 0.9811034,0.1992299 0.3522363,-0.013488 0.4222596,-0.028948 0.659803,-0.1456766 l 0,0 z"
         id="path3144"
         inkscape:connector-curvature="0"
         transform="translate(1031,265.99999)" />
      <path
         style="fill:#00ffff;fill-opacity:0.24636727"
         d="M 7.4470146,10.04248 C 7.1375675,9.9646981 6.5934586,9.5969873 6.3624485,9.3095261 6.0836076,8.9625458 5.9581883,8.5649719 5.9569081,8.0239799 5.9549108,7.179987 6.2495202,6.718423 7.1944163,6.0851786 l 0.2405655,-0.1612208 0.5748938,-1.66e-4 0.5748938,-1.66e-4 0.3300669,0.2218715 c 0.6268885,0.4213954 0.9803072,0.8757305 1.0896997,1.4008568 0.0595,0.2856143 0.02503,0.935754 -0.063249,1.1928802 C 9.7875227,9.1871114 9.336901,9.6681845 8.8392939,9.9156952 8.5560837,10.056565 8.540222,10.059657 8.0626659,10.067095 c -0.2681321,0.0042 -0.5451752,-0.0069 -0.6156513,-0.02462 l 0,0 z M 8.733527,9.657903 C 9.1819249,9.4371574 9.5598011,9.0205112 9.7050526,8.5866992 9.7888756,8.3363518 9.7901252,7.7572756 9.7074528,7.4745539 9.5431594,6.9127053 9.0248517,6.4321724 8.4502009,6.3089319 8.3379088,6.2848495 8.0601371,6.2718452 7.8329304,6.2800333 7.4654553,6.2932764 7.3971391,6.3073762 7.2144129,6.4076897 6.9789325,6.5369642 6.4895536,7.0310601 6.3338617,7.2967281 6.2299024,7.4741213 6.228535,7.4852836 6.2416119,8.0497652 6.2542956,8.59728 6.2597725,8.6310543 6.3648672,8.8098487 6.5261329,9.084205 6.9610079,9.5277579 7.175094,9.6362435 c 0.2783917,0.1410718 0.4362166,0.1688207 0.8918921,0.156814 0.3757355,-0.0099 0.43759,-0.022442 0.6665409,-0.1351545 z"
         id="path3146"
         inkscape:connector-curvature="0"
         transform="translate(1031,265.99999)" />
      <path
         style="fill:#00ffff;fill-opacity:0.24636727"
         d=""
         id="path3148"
         inkscape:connector-curvature="0"
         transform="translate(1031,265.99999)" />
      <path
         style="fill:#00ffff;fill-opacity:0.24636727"
         d="M 7.5169059,9.5401654 C 7.0600058,9.3895326 6.6742985,8.9916658 6.5032762,8.4945809 6.2810179,7.8485758 6.6133574,7.0081477 7.2387371,6.6347301 7.4081036,6.5336004 7.4532317,6.5256982 7.9357985,6.5126694 8.4288026,6.4993589 8.4610863,6.503297 8.6610748,6.6011423 8.8931194,6.7146711 9.2375621,7.060563 9.4090109,7.3522252 9.511819,7.5271185 9.516723,7.558444 9.516723,8.0402691 c 0,0.4848743 -0.00433,0.5120411 -0.1097245,0.6879747 C 9.2429382,9.0021147 8.8864103,9.3397622 8.6432242,9.4515715 8.4660213,9.5330437 8.3607199,9.5515767 8.0219218,9.5609203 7.7975562,9.567108 7.5702991,9.5577683 7.5169059,9.5401654 z"
         id="path3150"
         inkscape:connector-curvature="0"
         transform="translate(1031,265.99999)" />
    </g>
  </g>
</svg>
