<?xml version="1.0" encoding="UTF-8" standalone="no"?>
<!-- Created with Inkscape (http://www.inkscape.org/) -->

<svg
   xmlns:dc="http://purl.org/dc/elements/1.1/"
   xmlns:cc="http://creativecommons.org/ns#"
   xmlns:rdf="http://www.w3.org/1999/02/22-rdf-syntax-ns#"
   xmlns:svg="http://www.w3.org/2000/svg"
   xmlns="http://www.w3.org/2000/svg"
   xmlns:xlink="http://www.w3.org/1999/xlink"
   xmlns:sodipodi="http://sodipodi.sourceforge.net/DTD/sodipodi-0.dtd"
   xmlns:inkscape="http://www.inkscape.org/namespaces/inkscape"
   width="56"
   height="20"
   id="svg2"
   version="1.1"
   inkscape:version="0.48.3.1 r9886"
   sodipodi:docname="switch-dark-off-disabled.svg"
   inkscape:export-filename="/usr/share/themes/Gnome-Cupertino/gtk-3.0/assets/switch-off.png"
   inkscape:export-xdpi="90"
   inkscape:export-ydpi="90">
  <defs
     id="defs4">
    <linearGradient
       id="linearGradient3803">
      <stop
         style="stop-color:#282828;stop-opacity:0.40000001;"
         offset="0"
         id="stop3805" />
      <stop
         style="stop-color:#282828;stop-opacity:0.40000001;"
         offset="1"
         id="stop3807" />
    </linearGradient>
    <linearGradient
       id="linearGradient3795">
      <stop
         style="stop-color:#1a1a1c;stop-opacity:1;"
         offset="0"
         id="stop3797" />
      <stop
         style="stop-color:#1a1a1c;stop-opacity:1;"
         offset="1"
         id="stop3799" />
    </linearGradient>
    <linearGradient
       id="linearGradient3833">
      <stop
         style="stop-color:#0f0f0f;stop-opacity:1;"
         offset="0"
         id="stop3835" />
      <stop
         style="stop-color:#c7c7c7;stop-opacity:0.54491019;"
         offset="1"
         id="stop3837" />
    </linearGradient>
    <linearGradient
       id="linearGradient3809">
      <stop
         style="stop-color:#b9b9b9;stop-opacity:1;"
         offset="0"
         id="stop3811" />
      <stop
         style="stop-color:#b9b9b9;stop-opacity:1;"
         offset="1"
         id="stop3813" />
    </linearGradient>
    <linearGradient
       id="linearGradient3786">
      <stop
         style="stop-color:#222222;stop-opacity:0.7609756;"
         offset="0"
         id="stop3788" />
      <stop
         style="stop-color:#5d5d5d;stop-opacity:1;"
         offset="1"
         id="stop3790" />
    </linearGradient>
    <linearGradient
       id="linearGradient3772">
      <stop
         style="stop-color:#1a1a1c;stop-opacity:0.36097562;"
         offset="0"
         id="stop3774" />
      <stop
         style="stop-color:#1a1a1c;stop-opacity:0.22352941;"
         offset="1"
         id="stop3776" />
    </linearGradient>
    <linearGradient
       id="linearGradient3763">
      <stop
         style="stop-color:#1a1a1c;stop-opacity:1;"
         offset="0"
         id="stop3765" />
      <stop
         style="stop-color:#1a1a1c;stop-opacity:1;"
         offset="1"
         id="stop3767" />
    </linearGradient>
    <linearGradient
       id="linearGradient3769">
      <stop
         style="stop-color:#bebebe;stop-opacity:1;"
         offset="0"
         id="stop3771" />
      <stop
         style="stop-color:#b4b4b4;stop-opacity:1;"
         offset="1"
         id="stop3773" />
    </linearGradient>
    <linearGradient
       id="linearGradient3759">
      <stop
         style="stop-color:#8c8c8c;stop-opacity:0.47058824;"
         offset="0"
         id="stop3761" />
      <stop
         id="stop3792"
         offset="0.50000042"
         style="stop-color:#8c8c8c;stop-opacity:0.47058824;" />
      <stop
         style="stop-color:#8c8c8c;stop-opacity:0.47058824;"
         offset="1"
         id="stop3763" />
    </linearGradient>
    <linearGradient
       inkscape:collect="always"
       xlink:href="#linearGradient3759"
       id="linearGradient3765"
       x1="25"
       y1="1033.3622"
       x2="25"
       y2="1051.3622"
       gradientUnits="userSpaceOnUse"
       gradientTransform="matrix(0.75925924,0,0,0.88888885,7.2407408,115.81826)" />
    <linearGradient
       y2="26"
       x2="35"
       y1="3"
       x1="35"
       gradientTransform="matrix(1.8,0,0,1.125,-33.2,1029.9872)"
       gradientUnits="userSpaceOnUse"
       id="linearGradient3967"
       xlink:href="#linearGradient4071-3-6"
       inkscape:collect="always" />
    <linearGradient
       id="linearGradient4071-3-6">
      <stop
         style="stop-color:#1a1a1c;stop-opacity:0.35294119;"
         offset="0"
         id="stop4073-8-9" />
      <stop
         style="stop-color:#1a1a1c;stop-opacity:0;"
         offset="1"
         id="stop4075-4-4" />
    </linearGradient>
    <linearGradient
       y2="26"
       x2="35"
       y1="3"
       x1="35"
       gradientTransform="matrix(1.2999999,0,0,0.875,-15.7,1033.0172)"
       gradientUnits="userSpaceOnUse"
       id="linearGradient3895"
       xlink:href="#linearGradient4071-3-6"
       inkscape:collect="always" />
    <linearGradient
       y2="38"
       x2="35"
       y1="3"
       x1="35"
       gradientTransform="matrix(1.8,0,0,1.125,-33.2,1029.9872)"
       gradientUnits="userSpaceOnUse"
       id="linearGradient3950"
       xlink:href="#linearGradient4071-3"
       inkscape:collect="always" />
    <linearGradient
       id="linearGradient4071-3">
      <stop
         style="stop-color:#1a1a1c;stop-opacity:0.86341465;"
         offset="0"
         id="stop4073-8" />
      <stop
         style="stop-color:#1a1a1c;stop-opacity:0.86829269;"
         offset="1"
         id="stop4075-4" />
    </linearGradient>
    <linearGradient
       y2="37.893074"
       x2="35.304348"
       y1="3.1030066"
       x1="35.5"
       gradientTransform="matrix(1.3333334,0,0,0.99645293,-17.333334,1031.2702)"
       gradientUnits="userSpaceOnUse"
       id="linearGradient3912"
       xlink:href="#linearGradient4071-3"
       inkscape:collect="always" />
    <linearGradient
       inkscape:collect="always"
       xlink:href="#linearGradient3786"
       id="linearGradient3792"
       x1="43.070576"
       y1="14.423525"
       x2="48.311802"
       y2="14.847058"
       gradientUnits="userSpaceOnUse" />
    <linearGradient
       inkscape:collect="always"
       xlink:href="#linearGradient3769"
       id="linearGradient3802"
       x1="44.5"
       y1="11.035255"
       x2="44.5"
       y2="16.117661"
       gradientUnits="userSpaceOnUse" />
    <linearGradient
       inkscape:collect="always"
       xlink:href="#linearGradient3809"
       id="linearGradient3815"
       x1="54.254425"
       y1="1.4565123"
       x2="54.254425"
       y2="6.629705"
       gradientUnits="userSpaceOnUse" />
    <linearGradient
       inkscape:collect="always"
       xlink:href="#linearGradient3803"
       id="linearGradient3810"
       x1="52.098927"
       y1="0.59431362"
       x2="52.098927"
       y2="7.4919033"
       gradientUnits="userSpaceOnUse" />
  </defs>
  <sodipodi:namedview
     id="base"
     pagecolor="#e8e6df"
     bordercolor="#666666"
     borderopacity="1.0"
     inkscape:pageopacity="0.0"
     inkscape:pageshadow="2"
     inkscape:zoom="17.418411"
     inkscape:cx="24.606403"
     inkscape:cy="9.9868375"
     inkscape:document-units="px"
     inkscape:current-layer="layer1"
     showgrid="true"
     showguides="false"
     inkscape:window-width="1300"
     inkscape:window-height="714"
     inkscape:window-x="54"
     inkscape:window-y="24"
     inkscape:window-maximized="0">
    <inkscape:grid
       type="xygrid"
       id="grid2985"
       empspacing="5"
       visible="true"
       enabled="true"
       snapvisiblegridlinesonly="true" />
  </sodipodi:namedview>
  <metadata
     id="metadata7">
    <rdf:RDF>
      <cc:Work
         rdf:about="">
        <dc:format>image/svg+xml</dc:format>
        <dc:type
           rdf:resource="http://purl.org/dc/dcmitype/StillImage" />
        <dc:title />
      </cc:Work>
    </rdf:RDF>
  </metadata>
  <g
     inkscape:label="Capa 1"
     inkscape:groupmode="layer"
     id="layer1"
     transform="translate(0,-1032.3622)">
    <rect
       style="fill:url(#linearGradient3765);fill-opacity:1;stroke:none"
       id="rect2989"
       width="41"
       height="16"
       x="8"
       y="1034.3622"
       rx="7"
       ry="8" />
    <path
       style="opacity:0.45400002;color:#1a1a1c;fill:url(#linearGradient3912);fill-opacity:1;fill-rule:nonzero;stroke:none;stroke-width:2;marker:none;visibility:visible;display:inline;overflow:visible;enable-background:accumulate"
       d="m 16,1034.3622 c -5,0 -8,3.5837 -8,8 0,4.4163 3,8 6.956522,8 l 26.086956,0 c 5.909333,0 7.956522,-3.5837 7.956522,-8 0,-4.4162 -2.090666,-8 -8,-8 z m 14,1 11,0 c 5.212862,0 7,4 7,7 0,3 -1.786936,7 -7,7 l -26,0 c -4,0 -6,-4 -6,-7 0,-3 2,-7 7,-7 z"
       id="rect4944"
       inkscape:connector-curvature="0"
       sodipodi:nodetypes="ssssssscssssscc"
       inkscape:export-xdpi="90"
       inkscape:export-ydpi="90" />
    <path
       sodipodi:type="arc"
       style="fill:url(#linearGradient3802);fill-opacity:1;stroke:url(#linearGradient3792);stroke-width:0.44922532999999998;stroke-linecap:square;stroke-miterlimit:4;stroke-opacity:1;stroke-dasharray:none;opacity:1"
       id="path3767"
       sodipodi:cx="44.5"
       sodipodi:cy="14"
       sodipodi:rx="4.5"
       sodipodi:ry="4"
       d="m 49,14 c 0,2.209139 -2.014719,4 -4.5,4 -2.485281,0 -4.5,-1.790861 -4.5,-4 0,-2.209139 2.014719,-4 4.5,-4 2.485281,0 4.5,1.790861 4.5,4 z"
       transform="matrix(2.0987442,0,0,2.3610872,-76.394117,1009.307)"
       inkscape:export-xdpi="90"
       inkscape:export-ydpi="90" />
    <path
       style="fill:#008080;fill-opacity:0.24636727"
       d="M 8.1092458,10.381677 C 8.0389203,9.7249871 8.1940897,8.448735 8.4695691,7.4180557 l 0.064623,-0.2417801 8.468723,0 8.468723,0 0.13484,0.5641536 c 0.238746,0.9988755 0.308535,1.6814364 0.276878,2.7079378 l -0.01044,0.338492 -8.86014,0 -8.8601399,0 -0.043391,-0.405182 z"
       id="path3029"
       inkscape:connector-curvature="0"
       transform="translate(0,1032.3622)" />
    <path
       style="fill:#008080;fill-opacity:0.24636727"
       d="m 8.6216327,6.9989701 c 0.0646,-0.2732613 0.5279782,-1.2209737 0.8511625,-1.7408169 l 0.2906064,-0.4674416 7.2255974,0 c 6.805377,0 7.230659,0.00656 7.312643,0.1128307 0.32005,0.4148536 0.924498,1.6006259 1.084579,2.1276652 l 0.04406,0.1450681 -8.425284,0 -8.4252827,0 0.041915,-0.1773055 z"
       id="path3031"
       inkscape:connector-curvature="0"
       transform="translate(0,1032.3622)" />
    <path
       style="fill:#008080;fill-opacity:0.24636727"
       d="M 16.983356,4.7911321 9.802375,4.7584742 10.061197,4.4310467 c 1.36219,-1.7232602 3.423846,-2.9009522 5.689191,-3.2498698 0.608526,-0.093728 2.005928,-0.077942 2.665137,0.030107 1.755594,0.2877538 3.434693,1.1264475 4.709104,2.3521513 0.523384,0.5033815 1.216679,1.3136525 1.091833,1.2760529 -0.02867,-0.00863 -3.283567,-0.030394 -7.233106,-0.048356 z"
       id="path3033"
       inkscape:connector-curvature="0"
       transform="translate(0,1032.3622)" />
    <path
       style="fill:#008080;fill-opacity:0.24636727"
       d="M 8.5693288,12.866168 C 8.3912551,12.316442 8.223409,11.600924 8.1760928,11.189826 l -0.04638,-0.402967 8.8716016,0 c 4.879382,0 8.871603,0.0162 8.871603,0.03601 0,0.229993 -0.17683,1.106461 -0.334196,1.656455 l -0.198312,0.693103 -8.335937,0 -8.3359377,0 -0.099206,-0.306255 z"
       id="path3035"
       inkscape:connector-curvature="0"
       transform="translate(0,1032.3622)" />
    <path
       style="fill:#008080;fill-opacity:0.24636727"
       d="M 15.892473,18.839503 C 13.307528,18.490635 11.009585,17.053991 9.5814566,14.893939 9.2061247,14.326248 8.7226458,13.391383 8.7226458,13.233326 c 0,-0.03791 3.1302132,-0.0609 8.2893442,-0.0609 l 8.289344,0 -0.0441,0.145068 c -0.07164,0.235634 -0.587151,1.211763 -0.849732,1.60897 -1.275538,1.92952 -3.348897,3.323794 -5.64397,3.795409 -0.764902,0.15718 -2.155784,0.214167 -2.871055,0.117633 l 0,0 z"
       id="path3037"
       inkscape:connector-curvature="0"
       transform="translate(0,1032.3622)" />
    <path
       style="fill:#008080;fill-opacity:0.24636727"
       d="M 24.396311,16.672522 C 25.195029,15.84043 25.950139,14.577561 26.392754,13.33361 27.172301,11.142723 27.149015,8.7039645 26.327267,6.4752642 25.955869,5.4679796 25.313091,4.3872673 24.558385,3.5012175 l -0.356962,-0.4190856 8.717779,-0.020184 c 6.388666,-0.014792 8.864197,-7.7e-5 9.265815,0.055077 2.61252,0.3587782 4.486443,1.8778399 5.343566,4.331664 0.300307,0.8597385 0.415493,1.5724094 0.414482,2.5644743 -0.0013,1.268428 -0.234771,2.300458 -0.760998,3.363775 -0.783147,1.582463 -1.978536,2.634509 -3.619289,3.185292 -1.172404,0.393563 -0.583479,0.371211 -10.436345,0.396097 l -9.026346,0.0228 0.296224,-0.308602 z"
       id="path3039"
       inkscape:connector-curvature="0"
       transform="translate(0,1032.3622)" />
    <path
       style="fill:#008080;fill-opacity:0.24636727"
       d="m 15.345173,19.272945 c -0.312917,-0.05469 -1.081316,-0.256767 -1.42091,-0.373679 -0.278414,-0.09585 -0.360308,-0.150094 -0.365475,-0.242085 -0.0054,-0.09688 -0.01146,-0.100187 -0.03292,-0.01809 -0.01444,0.05526 -0.03364,0.100468 -0.04266,0.100468 -0.131738,0 -1.556466,-0.766405 -1.841012,-0.990336 -0.03158,-0.02485 -0.113129,-0.08991 -0.18123,-0.144586 -0.0681,-0.05467 -0.18211,-0.138156 -0.253356,-0.18552 -0.220412,-0.146529 -0.821366,-0.70072 -1.151714,-1.062094 -1.605071,-1.755821 -2.4611416,-3.962437 -2.4611416,-6.343863 0,-3.6106457 2.0015102,-6.8312884 5.2530626,-8.4527355 0.5296,-0.2640951 1.55355,-0.63767056 1.937605,-0.70691122 l 0.215289,-0.0388142 0,0.22689563 0,0.2268956 -0.316515,0.070833 C 13.556921,1.5915981 12.146724,2.3402063 11.112763,3.2352315 9.6593668,4.4933329 8.6389849,6.23101 8.2240853,8.1545567 8.0673088,8.8813997 8.0074169,10.447599 8.1092367,11.157896 c 0.2866331,1.999558 1.1211125,3.711905 2.4878773,5.10511 1.23076,1.254569 2.710139,2.083932 4.417949,2.476773 l 0.559752,0.128758 0,0.222564 c 0,0.122411 -0.01938,0.219047 -0.04306,0.214747 -0.02368,-0.0043 -0.107645,-0.01911 -0.186585,-0.0329 l 0,0 z"
       id="path3036"
       inkscape:connector-curvature="0"
       transform="translate(0,1032.3622)" />
    <path
       style="fill:#008080;fill-opacity:0.24636727"
       d="M 15.489762,19.794404 C 12.649563,19.351972 10.102373,17.655178 8.5703868,15.185107 7.8743851,14.062921 7.4342954,12.880986 7.2111099,11.534541 7.0960551,10.840433 7.0834871,9.2753409 7.187598,8.6066048 7.8147866,4.5779795 10.710884,1.3673418 14.58833,0.40209198 c 0.94012,-0.23403301 1.378803,-0.28638935 2.393043,-0.28560667 1.7025,0.001314 3.08169,0.32626983 4.519621,1.06488459 l 0.56121,0.2882737 0,0.2530232 c 0,0.280759 -0.04975,0.3067544 -0.27819,0.1453573 C 21.7002,1.8088077 21.415793,1.6521555 21.151997,1.5199077 18.076551,-0.0218947 14.358144,0.2817689 11.50082,2.3080708 10.556966,2.9774145 9.5012752,4.1152306 8.9061716,5.1045632 7.4958165,7.4492145 7.1624467,10.327736 8.0029214,12.903786 c 0.9392577,2.878819 3.1447406,5.104999 6.0020686,6.058395 0.863996,0.288288 1.406418,0.399084 2.279383,0.46559 1.381431,0.105244 2.708977,-0.08925 4.047479,-0.592992 l 0.524731,-0.197479 0,0.216333 c 0,0.118982 -0.03319,0.243881 -0.07376,0.277551 -0.206466,0.171351 -1.428345,0.5204 -2.337478,0.667737 -0.678717,0.109995 -2.235744,0.107615 -2.955579,-0.0045 l 0,1e-6 z"
       id="path3038"
       inkscape:connector-curvature="0"
       transform="translate(0,1032.3622)" />
    <path
       style="fill:#008080;fill-opacity:0.24636727"
       d="M 22.960088,2.6891088 C 22.775045,2.5493347 22.665247,2.4349741 22.716093,2.4349741 c 0.06738,0 0.09245,-0.054483 0.09245,-0.2009368 0,-0.1105153 0.01703,-0.2009368 0.03784,-0.2009368 0.02081,0 0.175821,0.1041758 0.344463,0.2315019 0.280136,0.2115048 0.306622,0.2511776 0.306622,0.4592841 0,0.3011317 -0.101362,0.2945719 -0.537379,-0.034778 l 0,0 z"
       id="path3040"
       inkscape:connector-curvature="0"
       transform="translate(0,1032.3622)" />
    <path
       style="fill:#008080;fill-opacity:0.24636727"
       d="m 22.583201,2.3540425 c -0.04167,-0.050215 -0.104902,-0.091874 -0.140506,-0.092576 -0.0356,-7.021e-4 -0.12932,-0.051797 -0.208259,-0.1135445 l -0.143527,-0.1122679 0.358816,-0.00128 c 0.308375,-0.0011 0.358816,0.013322 0.358816,0.1025716 0,0.057116 -0.03365,0.1498709 -0.07478,0.2061209 -0.06799,0.092989 -0.08166,0.093985 -0.150556,0.010973 z"
       id="path3042"
       inkscape:connector-curvature="0"
       transform="translate(0,1032.3622)" />
    <path
       style="fill:#008080;fill-opacity:0.24636727"
       d=""
       id="path3044"
       inkscape:connector-curvature="0"
       transform="translate(0,1032.3622)" />
    <path
       style="fill:#008080;fill-opacity:0.24636727"
       d="M 20.282478,1.6537442 C 20.171963,1.605449 19.874863,1.5061311 19.622257,1.4330377 l -0.459284,-0.132897 -0.01743,-0.2318076 -0.01743,-0.23180762 0.188374,0.0296882 c 0.172116,0.0271259 1.239868,0.38823284 1.286835,0.43519944 0.03285,0.03285 -0.04571,0.4448309 -0.08436,0.4423876 -0.01955,-0.00124 -0.125968,-0.041761 -0.236483,-0.090056 z"
       id="path3046"
       inkscape:connector-curvature="0"
       transform="translate(0,1032.3622)" />
    <path
       style="fill:#008080;fill-opacity:0.24636727"
       d="m 18.511808,1.1780764 -0.536344,-0.090847 0.03155,-0.19439887 c 0.01735,-0.1069194 0.04491,-0.20776552 0.06125,-0.2241025 0.02978,-0.0297804 0.848844,0.0877029 0.99055,0.1420805 0.07888,0.0302698 0.1103,0.48317357 0.0324,0.46703457 -0.02368,-0.00491 -0.284413,-0.049801 -0.579402,-0.099767 z"
       id="path3048"
       inkscape:connector-curvature="0"
       transform="translate(0,1032.3622)" />
    <path
       style="fill:#008080;fill-opacity:0.24636727"
       d="m 16.504271,0.84183223 0.01782,-0.21528944 0.731421,-0.009782 c 0.402281,-0.00538 0.741515,0.007537 0.753853,0.0287053 0.01234,0.0211679 0.0097,0.12244994 -0.006,0.22507124 l -0.02839,0.18658421 -0.743286,0 -0.743286,0 0.01782,-0.21528947 z"
       id="path3050"
       inkscape:connector-curvature="0"
       transform="translate(0,1032.3622)" />
    <path
       style="fill:#008080;fill-opacity:0.24636727"
       d="m 15.00071,0.99971116 c 0,-0.12630314 0.01938,-0.23010547 0.04306,-0.23067184 0.02368,-5.6636e-4 0.288488,-0.0388551 0.588458,-0.085086 0.850893,-0.13113837 0.861158,-0.12942752 0.861158,0.14352629 0,0.2206041 -0.0073,0.2296815 -0.186584,0.2306444 -0.102622,5.513e-4 -0.419097,0.039205 -0.703279,0.085897 -0.284182,0.046692 -0.536071,0.084993 -0.559753,0.085113 -0.02368,1.202e-4 -0.04306,-0.1031204 -0.04306,-0.22942354 z"
       id="path3052"
       inkscape:connector-curvature="0"
       transform="translate(0,1032.3622)" />
    <path
       style="fill:#008080;fill-opacity:0.24636727"
       d="M 21.028815,1.9968612 C 20.823572,1.8920676 20.635,1.7987998 20.609765,1.7895993 c -0.02523,-0.0092 -0.02866,-0.1243923 -0.0076,-0.2559819 l 0.03826,-0.2392536 0.423849,0.2097261 0.423849,0.209726 0,0.2457581 c 0,0.1351669 -0.01938,0.2417222 -0.04306,0.2367894 -0.02368,-0.00493 -0.210984,-0.094709 -0.416226,-0.1995022 z"
       id="path3054"
       inkscape:connector-curvature="0"
       transform="translate(0,1032.3622)" />
    <path
       style="fill:#008080;fill-opacity:0.24636727"
       d="M 22.109408,2.6421273 C 21.735639,2.3934462 21.666804,2.3226727 21.656659,2.1766268 c -0.0097,-0.1393068 -0.01672,-0.147538 -0.03684,-0.043058 -0.04347,0.2256942 -0.131715,0.1391523 -0.131715,-0.1291737 0,-0.2762699 0.08533,-0.3409352 0.170442,-0.1291736 0.02856,0.071046 0.05356,0.095971 0.05556,0.055391 0.0043,-0.08702 0.07895,-0.052198 0.569167,0.2654783 l 0.324335,0.2101783 -0.0287,0.2645637 -0.02871,0.2645637 -0.440785,-0.2932689 z"
       id="path3056"
       inkscape:connector-curvature="0"
       transform="translate(0,1032.3622)" />
    <path
       style="fill:#008080;fill-opacity:0.24636727"
       d="m 23.700049,4.0254489 c -0.02457,-0.056725 -0.03171,-0.2181916 -0.01586,-0.3588158 0.01585,-0.1406241 0.0062,-0.2556802 -0.02154,-0.2556802 -0.0277,0 -0.05036,0.1143367 -0.05036,0.2540816 l 0,0.2540815 -0.430579,-0.4082547 C 22.760815,3.1117896 22.75113,3.0963238 22.75113,2.8232792 l 0,-0.2793274 0.21529,0.1604613 c 0.118409,0.088254 0.235949,0.1929074 0.2612,0.2325637 0.05424,0.085187 0.28323,0.093179 0.542152,0.018922 0.113789,-0.032634 0.198129,-0.032634 0.218298,0 0.01808,0.029249 -0.0074,0.053181 -0.05664,0.053181 -0.0703,0 -0.09021,0.070814 -0.09281,0.3301105 -0.0046,0.4545007 -0.07908,0.8235776 -0.138572,0.6862591 l 0,0 z m 0.0094,-0.9435138 c -0.01456,-0.055859 -0.02742,-0.024057 -0.02859,0.07067 -0.0012,0.094727 0.01074,0.1404298 0.02647,0.101561 0.01573,-0.038869 0.01668,-0.116373 0.0021,-0.1722315 l 0,0 z"
       id="path3058"
       inkscape:connector-curvature="0"
       transform="translate(0,1032.3622)" />
    <path
       style="fill:#008080;fill-opacity:0.24636727"
       d="m 24.536116,5.1332685 c -0.04447,-0.078939 -0.231564,-0.341947 -0.415764,-0.584461 l -0.334908,-0.4409346 0.03131,-0.3628126 c 0.0501,-0.5805443 0.08325,-0.7359829 0.156947,-0.7359528 0.0697,2.84e-5 0.430224,0.3867675 0.769131,0.8250506 0.160953,0.2081482 0.179588,0.2684814 0.153003,0.4953631 -0.04417,0.3769478 -0.07163,0.4475554 -0.134485,0.3458484 -0.05687,-0.092016 -0.101626,0.04706 -0.128884,0.4004883 l -0.0155,0.2009369 -0.08086,-0.1435263 z"
       id="path3060"
       inkscape:connector-curvature="0"
       transform="translate(0,1032.3622)" />
    <path
       style="fill:#008080;fill-opacity:0.24636727"
       d="m 24.414209,16.201144 c -0.0017,-0.33903 -0.0073,-0.353882 -0.09242,-0.245993 -0.0839,0.10633 -0.08768,0.08298 -0.0511,-0.315758 0.03562,-0.388312 0.06943,-0.478481 0.344446,-0.918568 0.372299,-0.595766 0.472857,-0.79663 0.743185,-1.48451 0.833524,-2.120996 0.785989,-4.741813 -0.1225,-6.7538994 -0.204327,-0.4525364 -0.307333,-1.0482534 -0.220419,-1.2747493 0.03114,-0.081157 0.04508,-0.07912 0.118023,0.017258 0.07465,0.09863 0.08289,0.071182 0.08454,-0.2816284 0.001,-0.2182299 0.02478,-0.3767212 0.05379,-0.3587906 0.105274,0.065063 0.60195,0.9750212 0.842041,1.542699 0.843069,1.9933786 1.019599,4.3407695 0.477883,6.3546105 -0.394578,1.466856 -1.092548,2.815417 -2.014141,3.89156 l -0.161499,0.188582 -0.0018,-0.360813 z"
       id="path3062"
       inkscape:connector-curvature="0"
       transform="translate(0,1032.3622)" />
    <path
       style="fill:#008080;fill-opacity:0.24636727"
       d="M 24.803556,5.5894744 C 24.649541,5.3123912 24.61681,5.0754663 24.694458,4.7997698 c 0.02053,-0.072909 0.06317,-0.1297325 0.09475,-0.1262742 0.03158,0.00346 0.08324,-0.1238788 0.114821,-0.2829711 l 0.05741,-0.2892587 0.140383,0.205802 c 0.108722,0.1593868 0.136681,0.2660513 0.123972,0.4729435 -0.01771,0.2883441 -0.05915,0.4007279 -0.149534,0.4056168 -0.03158,0.00171 -0.07033,0.1571797 -0.08612,0.3454929 l -0.0287,0.3423878 -0.157879,-0.2840344 z"
       id="path3064"
       inkscape:connector-curvature="0"
       transform="translate(0,1032.3622)" />
    <path
       style="fill:#008080;fill-opacity:0.24636727"
       d="m 23.809057,16.826738 c 0.01954,-0.257151 0.0094,-0.320747 -0.04416,-0.27631 -0.03825,0.03175 -0.0754,0.128314 -0.08254,0.214591 -0.0071,0.08628 -0.02945,0.171864 -0.04957,0.190194 -0.02012,0.01833 -0.02027,-0.108764 -3.37e-4,-0.28243 0.01994,-0.173667 0.03648,-0.395487 0.03675,-0.492934 4.21e-4,-0.149381 0.26421,-0.555383 0.607345,-0.934775 0.01052,-0.01163 0.0036,0.164037 -0.01537,0.390377 -0.0281,0.335154 -0.01959,0.408333 0.04583,0.394319 0.05847,-0.01253 0.08518,0.05928 0.09817,0.263853 0.01639,0.258227 2.87e-4,0.299037 -0.198236,0.502342 -0.118841,0.121704 -0.247431,0.221281 -0.285755,0.221281 -0.03832,0 -0.08494,0.03229 -0.103594,0.07176 -0.01865,0.03947 -0.02249,-0.07855 -0.0085,-0.262271 z"
       id="path3066"
       inkscape:connector-curvature="0"
       transform="translate(0,1032.3622)" />
    <path
       style="fill:#008080;fill-opacity:0.24636727"
       d="m 23.440056,17.244519 0,-0.294049 -0.200936,0.124186 -0.200937,0.124186 0,-0.268078 c 0,-0.24637 0.0252,-0.294306 0.311231,-0.59195 l 0.311231,-0.323871 -0.02463,0.486799 c -0.02361,0.466587 -0.02122,0.478455 0.05757,0.285862 l 0.0822,-0.200937 0.0044,0.23921 c 0.0024,0.131566 0.03204,0.248434 0.06585,0.259707 0.03382,0.01127 -0.04369,0.117805 -0.172232,0.23674 l -0.233719,0.216244 0,-0.294049 z"
       id="path3068"
       inkscape:connector-curvature="0"
       transform="translate(0,1032.3622)" />
    <path
       style="fill:#008080;fill-opacity:0.24636727"
       d="m 22.111281,17.931798 c 0.07436,-0.02978 0.211476,-0.108466 0.30471,-0.174855 0.197674,-0.140756 0.240213,-0.121321 0.188183,0.08598 -0.03474,0.138411 -0.06107,0.150013 -0.332904,0.146661 -0.244241,-0.003 -0.271851,-0.01298 -0.159989,-0.05779 z"
       id="path3070"
       inkscape:connector-curvature="0"
       transform="translate(0,1032.3622)" />
    <path
       style="fill:#008080;fill-opacity:0.24636727"
       d="m 21.651566,17.909892 c -0.01142,-0.143622 -0.006,-0.261131 0.01202,-0.261131 0.01803,0 0.203161,-0.114264 0.411397,-0.25392 l 0.378611,-0.253921 0.01959,0.27739 c 0.01935,0.273945 0.01656,0.279045 -0.2244,0.410601 -0.134197,0.07326 -0.243995,0.150113 -0.243995,0.170771 0,0.02066 -0.04521,0.05351 -0.100468,0.073 -0.05526,0.01949 -0.130061,0.04959 -0.166229,0.06689 -0.04303,0.02058 -0.07294,-0.0588 -0.08653,-0.229679 z"
       id="path3072"
       inkscape:connector-curvature="0"
       transform="translate(0,1032.3622)" />
    <path
       style="fill:#008080;fill-opacity:0.24636727"
       d="m 20.865608,18.363612 c 0.01958,-0.271652 0.02148,-0.273929 0.386657,-0.465214 0.201837,-0.105724 0.376222,-0.192226 0.387521,-0.192226 0.0113,0 0.02054,0.113056 0.02054,0.251236 l 0,0.251236 -0.407201,0.213978 -0.407202,0.213979 0.01968,-0.272989 0,0 z"
       id="path3074"
       inkscape:connector-curvature="0"
       transform="translate(0,1032.3622)" />
    <path
       style="fill:#008080;fill-opacity:0.24636727"
       d="m 22.808541,17.733554 0,-0.259671 -0.13669,0.08956 c -0.135996,0.08911 -0.136891,0.08822 -0.176538,-0.17617 -0.02192,-0.146152 -0.03132,-0.269823 -0.0209,-0.274823 0.01042,-0.005 0.105309,-0.0866 0.210863,-0.181322 l 0.191917,-0.172232 -0.01997,0.296007 c -0.01098,0.162803 -5.96e-4,0.283993 0.02309,0.269311 0.02368,-0.01468 0.04306,-0.152818 0.04306,-0.30697 0,-0.154152 0.02583,-0.296243 0.05741,-0.315758 0.03507,-0.02167 0.05741,0.06638 0.05741,0.226254 0,0.281685 0.02539,0.304017 0.197557,0.173794 0.172514,-0.130483 0.204316,-0.104086 0.204316,0.16959 0,0.231796 -0.02372,0.274213 -0.2727,0.487619 -0.149985,0.128556 -0.292076,0.233905 -0.315757,0.234109 -0.02368,2.04e-4 -0.04306,-0.116481 -0.04306,-0.2593 z"
       id="path3076"
       inkscape:connector-curvature="0"
       transform="translate(0,1032.3622)" />
    <path
       style="fill:#008080;fill-opacity:0.24636727"
       d="m 22.840656,17.866527 c -0.01298,-0.04083 -0.03391,-0.157896 -0.04651,-0.260142 -0.01752,-0.142058 0.0018,-0.193747 0.08185,-0.219158 0.05763,-0.01829 0.104778,-0.05735 0.104778,-0.0868 0,-0.02945 0.0366,-0.05354 0.08133,-0.05354 0.04473,0 0.09436,-0.03229 0.110288,-0.07176 0.01593,-0.03947 0.031,0.03973 0.03349,0.176005 0.0052,0.282689 -0.06262,0.440313 -0.227277,0.528434 -0.08595,0.046 -0.120218,0.04276 -0.137949,-0.01304 z"
       id="path3078"
       inkscape:connector-curvature="0"
       transform="translate(0,1032.3622)" />
    <path
       style="fill:#008080;fill-opacity:0.24636727"
       d="m 20.846947,18.891274 c 0.01701,-0.213903 0.0462,-0.263592 0.20135,-0.342836 0.0998,-0.05097 0.369618,-0.196746 0.599596,-0.323944 0.36837,-0.203741 0.462737,-0.231269 0.792783,-0.231269 0.251082,0 0.362141,0.02022 0.336741,0.06132 -0.02085,0.03373 -0.07404,0.04746 -0.11821,0.03051 -0.04634,-0.01778 -0.08031,0.0048 -0.08031,0.0535 0,0.117883 -0.100839,0.105603 -0.132657,-0.01616 -0.01783,-0.06824 -0.02845,-0.05443 -0.0331,0.04306 -0.0056,0.117305 -0.09334,0.192422 -0.480296,0.411166 -0.436742,0.24689 -1.049787,0.564813 -1.089118,0.564813 -0.0092,0 -0.0077,-0.112572 0.0032,-0.250161 z"
       id="path3080"
       inkscape:connector-curvature="0"
       transform="translate(0,1032.3622)" />
    <path
       style="fill:#008080;fill-opacity:0.24636727"
       d="m 18.561041,19.105715 c 4.84e-4,-0.09087 0.01986,-0.191813 0.04306,-0.224319 0.0232,-0.03251 0.300526,-0.122774 0.616284,-0.200595 0.315758,-0.07782 0.606399,-0.149999 0.645869,-0.160396 0.04852,-0.01278 0.07176,0.0548 0.07176,0.208657 l 0,0.227563 -0.444932,0.119074 c -0.244712,0.06549 -0.554729,0.13621 -0.688926,0.157153 -0.239483,0.03737 -0.243978,0.03502 -0.243116,-0.127137 l 0,0 z"
       id="path3082"
       inkscape:connector-curvature="0"
       transform="translate(0,1032.3622)" />
    <path
       style="fill:#008080;fill-opacity:0.24636727"
       d="m 16.421621,19.390466 c 0.03947,-0.01593 0.07216,-0.08493 0.07264,-0.153347 0.0016,-0.228046 0.06702,-0.253842 0.7024,-0.277014 l 0.617163,-0.02251 0,0.208936 c 0,0.205039 -0.005,0.209617 -0.266361,0.245445 -0.309946,0.04248 -1.231807,0.04124 -1.125844,-0.0015 z"
       id="path3084"
       inkscape:connector-curvature="0"
       transform="translate(0,1032.3622)" />
    <path
       style="fill:#008080;fill-opacity:0.24636727"
       d="m 15.703989,19.33056 c -0.108229,-0.02084 -0.129174,-0.06204 -0.129174,-0.254046 l 0,-0.229167 0.258348,0.03222 c 0.142091,0.01772 0.370982,0.04618 0.508646,0.06324 l 0.2503,0.03102 -0.09003,0.198626 c -0.08627,0.190338 -0.102107,0.1983 -0.379473,0.190808 -0.159194,-0.0043 -0.347572,-0.01901 -0.418618,-0.0327 z"
       id="path3086"
       inkscape:connector-curvature="0"
       transform="translate(0,1032.3622)" />
    <path
       style="fill:#008080;fill-opacity:0.24636727"
       d="m 17.813826,19.141435 c 0,-0.185626 0.02047,-0.229642 0.106808,-0.229642 0.05874,0 0.22667,-0.01643 0.373168,-0.03651 l 0.26636,-0.03651 0,0.229642 0,0.229643 -0.26636,0.03651 c -0.473261,0.06487 -0.479976,0.06217 -0.479976,-0.193133 z"
       id="path3088"
       inkscape:connector-curvature="0"
       transform="translate(0,1032.3622)" />
    <path
       style="fill:#008080;fill-opacity:0.24636727"
       d="m 20.099674,18.644368 -0.01813,-0.220565 0.391385,-0.157879 c 0.215262,-0.08683 0.397842,-0.157878 0.405734,-0.157878 0.0079,0 -3.07e-4,0.109797 -0.01822,0.243994 -0.02781,0.208373 -0.0619,0.258151 -0.233502,0.340958 -0.110515,0.05333 -0.270281,0.113832 -0.355036,0.134449 -0.145018,0.03528 -0.155167,0.02449 -0.172231,-0.183079 l 0,0 z"
       id="path3090"
       inkscape:connector-curvature="0"
       transform="translate(0,1032.3622)" />
    <path
       style="fill:#008080;fill-opacity:0.24636727"
       d="m 22.843388,17.787592 c -0.07091,-0.184798 -0.03393,-0.364926 0.08837,-0.430379 0.112722,-0.06033 0.120126,-0.05438 0.0869,0.06974 -0.01998,0.07463 -0.03667,0.206734 -0.03711,0.293568 -8.55e-4,0.172248 -0.08258,0.211919 -0.138168,0.06707 z"
       id="path3092"
       inkscape:connector-curvature="0"
       transform="translate(0,1032.3622)" />
    <path
       style="fill:#008080;fill-opacity:0.24636727"
       d="m 23.123586,17.862232 c 0.09434,-0.07005 0.35029,-0.288206 0.568789,-0.484803 l 0.397271,-0.357449 9.047472,-0.01766 9.047473,-0.01766 0.563436,-0.129164 c 0.712891,-0.163425 0.986375,-0.255258 1.573811,-0.528471 2.367558,-1.101135 3.789112,-3.679129 3.671526,-6.6583226 C 47.872966,6.6182647 46.207503,4.2483106 43.562443,3.3634969 43.024125,3.1834211 42.360443,3.0619767 41.610485,3.0063164 41.231576,2.9781944 37.128482,2.9543943 32.492498,2.9534272 l -8.429061,-0.00176 -0.383453,-0.3405406 c -0.2109,-0.1872973 -0.448041,-0.3931157 -0.52698,-0.4573741 l -0.143526,-0.1168336 9.329209,-0.00134 c 7.682447,-0.0011 9.455883,0.013029 10.04684,0.080048 1.154025,0.1308742 2.069364,0.379503 2.688858,0.7303602 1.609499,0.9115585 2.836114,2.4662633 3.455019,4.379156 0.738806,2.2834811 0.539022,4.7523 -0.555923,6.869804 -0.844156,1.632503 -2.29374,2.957673 -3.750817,3.428893 -0.626812,0.202711 -1.511865,0.35482 -2.398915,0.412286 -0.477373,0.03093 -4.76485,0.05445 -9.858231,0.05409 l -9.013451,-6.37e-4 0.171519,-0.127355 0,10e-7 z"
       id="path3094"
       inkscape:connector-curvature="0"
       transform="translate(0,1032.3622)" />
    <path
       style="fill:#008080;fill-opacity:0.24636727"
       d="M 48.379935,6.6415745 C 48.060533,5.7907718 47.42699,4.8032298 46.724404,4.0609968 46.475645,3.7982 46.302608,3.5831845 46.339876,3.5831845 c 0.119739,0 1.001864,0.9338512 1.280946,1.3560581 0.316372,0.4786204 0.67265,1.1867598 0.814375,1.6186554 0.12625,0.3847352 0.08258,0.4508558 -0.05526,0.083677 z"
       id="path3096"
       inkscape:connector-curvature="0"
       transform="translate(0,1032.3622)" />
    <path
       style="fill:#008080;fill-opacity:0.24636727"
       d="m 23.092816,17.914601 c 0.04623,-0.04324 0.295586,-0.262838 0.554112,-0.487989 l 0.470048,-0.409366 9.031393,-5.17e-4 9.031393,-5.17e-4 0.754046,-0.195981 c 0.849713,-0.220847 1.765408,-0.624732 2.327249,-1.026481 2.065029,-1.476613 3.118545,-4.3431 2.634095,-7.1670515 C 47.382376,5.6375876 45.421159,3.6257841 42.49552,3.0877582 41.994768,2.9956697 41.21861,2.9857886 33.014215,2.9670546 L 24.07831,2.9466502 23.584537,2.511458 C 23.312963,2.2721023 23.090765,2.0628012 23.090765,2.0463443 c 0,-0.016457 4.256272,-0.01455 9.458383,0.00424 10.247781,0.03701 10.016295,0.029746 11.296538,0.3545058 1.042025,0.2643313 1.824494,0.7336745 2.727681,1.6361261 1.513181,1.5119497 2.354017,3.6343681 2.351101,5.9345956 -0.0029,2.3153155 -0.786518,4.3579535 -2.253534,5.8744885 -1.118286,1.156035 -1.999317,1.631664 -3.555993,1.919721 -0.594201,0.109955 -0.95861,0.123766 -4.37981,0.166001 -2.052426,0.02534 -6.43049,0.04857 -9.729032,0.05164 -5.079433,0.0047 -5.984482,-0.0065 -5.913283,-0.07306 l 0,0 z"
       id="path3098"
       inkscape:connector-curvature="0"
       transform="translate(0,1032.3622)" />
    <path
       style="fill:#008080;fill-opacity:0.24636727"
       d="m 23.593201,17.954272 -0.502249,-0.02293 0.519045,-0.45705 0.519044,-0.45705 9.049311,0 9.04931,0 0.640138,-0.171993 c 1.438014,-0.386367 2.366878,-0.895304 3.212668,-1.760267 C 47.770881,13.356254 48.42832,10.53015 47.747207,7.9202512 47.102056,5.448155 45.265079,3.6708619 42.815257,3.1485389 42.01581,2.9780902 40.707247,2.9533619 32.44242,2.9525202 L 24.082929,2.9516688 23.6012,2.4927652 23.11947,2.0338617 31.558817,2.061574 c 10.055285,0.033019 10.847184,0.048949 11.769156,0.2367537 1.309376,0.266719 2.142553,0.7085849 3.119157,1.654208 1.419663,1.3746266 2.237112,3.1518188 2.42122,5.2638986 0.224071,2.5705357 -0.601876,4.9831747 -2.295082,6.7040737 -0.903609,0.918388 -1.727,1.413441 -2.814716,1.692309 -0.815291,0.209024 -1.428893,0.256913 -3.731684,0.29124 -2.702617,0.04029 -15.776017,0.08023 -16.433667,0.05021 l 0,0 z"
       id="path3100"
       inkscape:connector-curvature="0"
       transform="translate(0,1032.3622)" />
    <path
       style="fill:#008080;fill-opacity:0.24636727"
       d=""
       id="path3102"
       inkscape:connector-curvature="0"
       transform="translate(0,1032.3622)" />
    <path
       style="fill:#008080;fill-opacity:0.24636727"
       d=""
       id="path3104"
       inkscape:connector-curvature="0"
       transform="translate(0,1032.3622)" />
    <path
       style="fill:#008080;fill-opacity:0.24636727"
       d=""
       id="path3106"
       inkscape:connector-curvature="0"
       transform="translate(0,1032.3622)" />
    <path
       style="fill:#008080;fill-opacity:0.24636727"
       d=""
       id="path3108"
       inkscape:connector-curvature="0"
       transform="translate(0,1032.3622)" />
    <path
       style="fill:#008080;fill-opacity:0.24636727"
       d=""
       id="path3110"
       inkscape:connector-curvature="0"
       transform="translate(0,1032.3622)" />
    <path
       style="fill:#008080;fill-opacity:0.24636727"
       d="M 23.041968,2.7216666 C 22.861626,2.5910271 22.803926,2.5107865 22.804592,2.3915561 c 0.0016,-0.2926241 0.0715,-0.3193105 0.335428,-0.1281214 0.260219,0.1885015 0.388579,0.396893 0.333262,0.5410467 -0.05077,0.132299 -0.164504,0.1104608 -0.431314,-0.082815 z"
       id="path3112"
       inkscape:connector-curvature="0"
       transform="translate(0,1032.3622)" />
    <path
       style="fill:#008080;fill-opacity:0.24636727"
       d="m 15.684808,19.792707 c -0.546065,-0.08377 -0.516694,-0.06741 -0.516694,-0.287882 0,-0.201282 0.0038,-0.204739 0.186584,-0.167987 0.431268,0.08673 1.661163,0.154811 2.167247,0.119965 0.766433,-0.05277 1.804203,-0.26744 2.612178,-0.540343 0.37891,-0.127981 0.696706,-0.209717 0.706215,-0.181636 0.0095,0.02808 0.07743,-0.0091 0.150941,-0.0826 0.07351,-0.07351 0.291782,-0.213476 0.485053,-0.311039 l 0.351402,-0.177387 0,0.224071 c 0,0.222181 -0.0039,0.226117 -0.466222,0.466626 -0.371537,0.193295 -0.476294,0.226658 -0.515816,0.164277 -0.03928,-0.06201 -0.04978,-0.05825 -0.05047,0.01807 -5.85e-4,0.06419 -0.11105,0.138082 -0.330989,0.221407 -0.457965,0.173503 -1.506737,0.43517 -2.043286,0.509797 -0.41314,0.05746 -2.40527,0.07542 -2.73614,0.02466 z"
       id="path3114"
       inkscape:connector-curvature="0"
       transform="translate(0,1032.3622)" />
    <path
       style="fill:#008080;fill-opacity:0.24636727"
       d="M 14.967177,19.669382 C 14.572853,19.60081 14.428285,19.5349 14.404728,19.412956 l -0.02473,-0.127995 -0.0078,0.127559 -0.0078,0.127559 -0.502342,-0.175592 C 11.561945,18.560502 9.5017309,16.846482 8.3839552,14.806941 6.9880912,12.259989 6.7512766,9.384395 7.714951,6.6833524 8.6682027,4.0115236 10.802726,1.8154054 13.432727,0.80058249 13.962665,0.59609852 15.033481,0.30091635 15.498224,0.23120576 l 0.243995,-0.0365988 0,0.20052148 c 0,0.21938719 0.03937,0.19837085 -0.602811,0.32181521 C 12.07025,1.3069214 9.3869709,3.5420518 8.2015207,6.4960983 8.0129133,6.9660924 7.7960484,7.734461 7.670664,8.3769627 7.5291607,9.1020622 7.5262473,10.868471 7.6653392,11.605487 c 0.3756576,1.990526 1.2339135,3.660168 2.5882838,5.035219 1.162238,1.179983 2.650693,2.049371 4.282975,2.50163 0.268394,0.07436 0.509247,0.152967 0.535229,0.174674 0.02598,0.02171 0.0389,0.114363 0.0287,0.205903 -0.01452,0.130412 -0.04339,0.162114 -0.133355,0.146469 l 0,0 z"
       id="path3116"
       inkscape:connector-curvature="0"
       transform="translate(0,1032.3622)" />
    <path
       style="fill:#008080;fill-opacity:0.24636727"
       d="m 14.685826,19.581714 c -0.127883,-0.0386 -0.243125,-0.116739 -0.268665,-0.182171 -0.03792,-0.09714 -0.04534,-0.09929 -0.04876,-0.01411 -0.0056,0.139454 -0.04734,0.131669 -0.740346,-0.138059 C 11.608813,18.461446 9.8284601,17.034476 8.7162532,15.310515 7.3890929,13.253369 6.8884399,10.674496 7.3367622,8.2047312 7.773839,5.7969171 9.1346074,3.6282549 11.178083,2.0828035 12.37679,1.1762382 13.803789,0.57292573 15.497996,0.25641372 l 0.250479,-0.0467946 -0.01748,0.17794574 C 15.716866,0.53138425 15.680483,0.5736822 15.541282,0.60812014 15.446555,0.63155541 15.056381,0.72636998 14.67423,0.81881917 13.142884,1.1892792 11.674449,1.9992235 10.496619,3.1230636 8.4393738,5.0860075 7.4229493,7.6334271 7.550645,10.506428 c 0.093785,2.110057 0.9396398,4.175516 2.3724471,5.793186 1.1311189,1.277058 2.5386519,2.17994 4.3039819,2.76085 0.437893,0.144095 0.812681,0.288709 0.832863,0.321363 0.05237,0.08474 -0.0078,0.277129 -0.0851,0.271891 -0.03579,-0.0024 -0.165841,-0.03483 -0.289008,-0.072 l 0,0 z"
       id="path3118"
       inkscape:connector-curvature="0"
       transform="translate(0,1032.3622)" />
    <path
       style="fill:#008080;fill-opacity:0.24636727"
       d="m 14.622714,19.534425 c -0.06315,-0.03454 -0.147115,-0.10328 -0.186584,-0.152753 -0.04345,-0.05446 -0.07176,-0.06297 -0.07176,-0.02157 0,0.119047 -0.200585,0.07552 -0.844535,-0.183283 C 11.428198,18.336208 9.6289518,16.822704 8.548266,14.994802 7.1075335,12.557906 6.8059256,9.4756175 7.7439169,6.7747402 8.2534995,5.3074341 9.1254653,3.9745241 10.3081,2.8550615 11.625369,1.6081573 12.990219,0.87561763 14.835872,0.42492587 15.701454,0.21355847 15.763318,0.21055806 15.709645,0.38254809 15.654896,0.55798335 15.616598,0.57669551 15.029511,0.71486516 13.16847,1.1528566 11.734016,1.922006 10.439296,3.1761228 8.9872628,4.5826184 8.1372291,6.1343638 7.6966027,8.1829376 7.5867278,8.6937718 7.5682699,8.9550367 7.5673008,10.013162 c -9.779e-4,1.067767 0.016358,1.31567 0.1284749,1.837137 0.5415096,2.518628 1.9560252,4.64195 3.9990673,6.002979 0.740626,0.49339 1.456212,0.843502 2.444057,1.195796 0.392401,0.139942 0.758667,0.272405 0.813924,0.294363 0.05526,0.02196 0.100469,0.08883 0.100469,0.148603 0,0.125024 -0.236863,0.14834 -0.430579,0.04238 z"
       id="path3120"
       inkscape:connector-curvature="0"
       transform="translate(0,1032.3622)" />
    <path
       style="fill:#008080;fill-opacity:0.24636727"
       d="M 20.421176,1.1971734 C 19.237543,0.70678162 18.108172,0.51308985 16.67514,0.5547128 l -0.932921,0.027097 0,-0.18879191 c 0,-0.18661373 0.0038,-0.18926423 0.327652,-0.22972932 0.477717,-0.0596868 2.087158,0.0103481 2.6864,0.1168987 1.038498,0.18465446 2.298642,0.6135329 2.241354,0.7628242 -0.01708,0.044501 -0.03105,0.1433855 -0.03105,0.2197424 0,0.1672044 0.02319,0.169993 -0.5454,-0.065581 l 0,0 z"
       id="path3122"
       inkscape:connector-curvature="0"
       transform="translate(0,1032.3622)" />
    <path
       style="fill:#008080;fill-opacity:0.24636727"
       d="M 20.306355,1.1352092 C 19.197672,0.70215789 18.241076,0.54299548 16.737925,0.54147878 15.729864,0.54046163 15.69653,0.53670991 15.725092,0.42748669 15.775176,0.2359684 15.8768,0.19888792 16.406974,0.17868376 c 1.290846,-0.0491922 2.69469,0.12812327 3.712219,0.46887953 0.734962,0.24612844 0.815901,0.29550711 0.836668,0.51042611 0.02249,0.232731 0.0029,0.2320435 -0.649506,-0.02278 z"
       id="path3124"
       inkscape:connector-curvature="0"
       transform="translate(0,1032.3622)" />
    <path
       style="fill:#008080;fill-opacity:0.24636727"
       d="M 20.104792,1.0577849 C 19.108525,0.69836639 18.471816,0.59173458 17.048144,0.54587797 16.3034,0.52188968 15.774841,0.48119243 15.738704,0.44505547 c -0.04252,-0.0425225 0.0038,-0.0911546 0.155294,-0.16304433 0.191741,-0.0909867 0.331802,-0.0986322 1.25203,-0.0683449 1.360762,0.0447866 2.631156,0.27772407 3.492475,0.64037443 0.180791,0.0761204 0.328073,0.25917421 0.328073,0.40775521 0,0.067686 -0.316081,-0.00714 -0.861784,-0.204011 z"
       id="path3126"
       inkscape:connector-curvature="0"
       transform="translate(0,1032.3622)" />
    <path
       style="fill:#008080;fill-opacity:0.24636727"
       d="m 21.436802,1.6535679 c -0.469519,-0.2583248 -0.476434,-0.2653281 -0.438225,-0.443809 0.02135,-0.099738 0.04572,-0.1891028 0.05414,-0.1985876 0.0084,-0.00948 0.239104,0.093739 0.512614,0.2293858 0.490746,0.2433852 0.497067,0.2492202 0.480312,0.4433862 -0.0093,0.1082154 -0.04281,0.2047058 -0.07439,0.2144231 -0.03158,0.00972 -0.272082,-0.100442 -0.534458,-0.2447985 l 0,0 z"
       id="path3128"
       inkscape:connector-curvature="0"
       transform="translate(0,1032.3622)" />
    <path
       style="fill:#008080;fill-opacity:0.24636727"
       d="m 22.004498,1.6551479 c 0.0028,-0.06688 0.01636,-0.080484 0.03468,-0.034685 0.01658,0.041443 0.01454,0.09096 -0.0045,0.1100368 -0.01908,0.019077 -0.03265,-0.014831 -0.03015,-0.075351 z"
       id="path3130"
       inkscape:connector-curvature="0"
       transform="translate(0,1032.3622)" />
    <path
       style="fill:#008080;fill-opacity:0.24636727"
       d="m 22.057376,1.7460479 c 0,-0.1263031 0.01416,-0.2296421 0.03146,-0.2296421 0.04992,0 0.657463,0.3972282 0.657463,0.4298658 0,0.01618 -0.155008,0.029418 -0.344463,0.029418 l -0.344463,0 0,-0.2296421 z"
       id="path3132"
       inkscape:connector-curvature="0"
       transform="translate(0,1032.3622)" />
    <path
       style="fill:#008080;fill-opacity:0.24636727"
       d=""
       id="path3134"
       inkscape:connector-curvature="0"
       transform="translate(0,1032.3622)" />
    <path
       style="fill:#008080;fill-opacity:0.24636727"
       d="m 22.041012,1.9010343 c -0.01576,-0.041061 0.0013,-0.1306349 0.03793,-0.1990539 l 0.06658,-0.1243981 0.253908,0.1514123 c 0.221137,0.1318705 0.239531,0.1570404 0.142514,0.1950187 -0.180896,0.070814 -0.470024,0.057551 -0.500926,-0.022979 z"
       id="path3136"
       inkscape:connector-curvature="0"
       transform="translate(0,1032.3622)" />
    <path
       style="fill:#008080;fill-opacity:0.24636727"
       d=""
       id="path3138"
       inkscape:connector-curvature="0"
       transform="translate(0,1032.3622)" />
    <path
       style="fill:#008080;fill-opacity:0.24636727"
       d="m 21.827734,18.368413 c 0,-0.237153 0.1033,-0.308224 0.519665,-0.357537 0.253727,-0.03005 0.282426,-0.02273 0.249295,0.06361 -0.02059,0.05366 -0.07286,0.08398 -0.116148,0.06737 -0.04329,-0.01661 -0.07871,-0.0053 -0.07871,0.02505 0,0.06028 -0.44623,0.400432 -0.525309,0.400432 -0.02684,0 -0.0488,-0.08951 -0.0488,-0.198917 z"
       id="path3140"
       inkscape:connector-curvature="0"
       transform="translate(0,1032.3622)" />
    <path
       style="fill:#008080;fill-opacity:0.24636727"
       d="m 18.900581,19.590235 c 0.0021,-0.206041 0.08097,-0.337649 0.221366,-0.369557 0.08306,-0.01888 0.497513,-0.134972 0.921007,-0.257989 0.423494,-0.123017 0.782307,-0.211348 0.797362,-0.196293 0.01506,0.01506 0.104976,-0.03792 0.199822,-0.117731 0.199336,-0.16773 0.728391,-0.446729 0.769383,-0.405737 0.01528,0.01528 0.0773,-0.02174 0.137818,-0.08226 0.06052,-0.06052 0.181082,-0.112014 0.267916,-0.11443 0.08683,-0.0024 0.203089,-0.01305 0.258347,-0.02362 0.05526,-0.01058 0.100468,0.0043 0.100468,0.0331 0,0.02878 -0.02916,0.05233 -0.0648,0.05233 -0.03564,0 -0.167016,0.09234 -0.291941,0.205203 -0.130383,0.117793 -0.262662,0.191571 -0.310537,0.173199 -0.04587,-0.0176 -0.09861,0.0076 -0.117203,0.05608 -0.04193,0.10926 -0.808768,0.501831 -0.906791,0.464216 -0.03936,-0.0151 -0.112519,0.02037 -0.162575,0.07883 -0.08919,0.104169 -0.502497,0.247014 -1.246317,0.430748 -0.205242,0.0507 -0.418379,0.105085 -0.473636,0.12086 -0.05953,0.017 -0.100149,-0.0021 -0.09969,-0.04695 z"
       id="path3142"
       inkscape:connector-curvature="0"
       transform="translate(0,1032.3622)" />
    <path
       style="fill:#008080;fill-opacity:0.24636727"
       d="m 20.266638,19.092436 c -0.02359,-0.160695 -0.01231,-0.17 0.287065,-0.236998 0.171388,-0.03835 0.468874,-0.171378 0.661081,-0.295607 0.192206,-0.124229 0.415209,-0.24142 0.495561,-0.260423 0.08035,-0.019 0.1893,-0.07202 0.242106,-0.117823 0.05281,-0.0458 0.207816,-0.09741 0.344464,-0.114704 l 0.24845,-0.03143 -0.269256,0.208532 c -0.14809,0.114692 -0.306394,0.208531 -0.351786,0.208531 -0.04539,0 -0.116441,0.04086 -0.157888,0.0908 -0.09349,0.112646 -0.705736,0.425894 -0.832417,0.425894 -0.05128,0 -0.161818,0.04828 -0.245632,0.107289 -0.08381,0.05901 -0.207471,0.12437 -0.274794,0.145247 -0.102744,0.03186 -0.126348,0.01109 -0.146954,-0.129303 z"
       id="path3144"
       inkscape:connector-curvature="0"
       transform="translate(0,1032.3622)" />
    <path
       style="fill:#008080;fill-opacity:0.24636727"
       d=""
       id="path3146"
       inkscape:connector-curvature="0"
       transform="translate(0,1032.3622)" />
    <path
       style="fill:#008080;fill-opacity:0.24636727"
       d="m 15.383543,19.731844 c -0.109794,-0.01664 -0.168602,-0.06719 -0.193479,-0.166304 -0.01966,-0.07832 -0.02124,-0.1569 -0.0035,-0.174623 0.01772,-0.01772 0.398092,1.92e-4 0.845264,0.03981 0.900196,0.07976 1.789023,0.04899 2.494817,-0.08637 0.550702,-0.105614 0.527456,-0.104603 0.442061,-0.01921 -0.03789,0.03789 -0.06889,0.126171 -0.06889,0.196179 0,0.106428 -0.0475,0.137475 -0.289878,0.189455 -0.27299,0.05855 -2.867257,0.07548 -3.226376,0.02106 z"
       id="path3148"
       inkscape:connector-curvature="0"
       transform="translate(0,1032.3622)" />
    <path
       style="fill:#008080;fill-opacity:0.24636727"
       d="m 15.742219,19.73077 c -0.409259,-0.02662 -0.516695,-0.06462 -0.516695,-0.182746 0,-0.102889 0.06621,-0.107608 1.42091,-0.101271 1.557071,0.0073 1.959384,-0.03963 3.028405,-0.353154 l 0.574105,-0.168374 0.03118,0.151163 c 0.01715,0.08314 0.0042,0.168002 -0.02871,0.188584 -0.08585,0.05365 -1.132379,0.335657 -1.245783,0.335706 -0.06774,2.9e-5 -0.08792,-0.03711 -0.07014,-0.129133 l 0.02495,-0.129173 -0.05749,0.130008 c -0.03162,0.0715 -0.116978,0.152627 -0.189687,0.180271 -0.130122,0.04947 -2.466906,0.110914 -2.971052,0.07812 z"
       id="path3150"
       inkscape:connector-curvature="0"
       transform="translate(0,1032.3622)" />
    <path
       style="fill:#008080;fill-opacity:0.24636727"
       d="m 15.03376,19.671416 c 0.03662,-0.0233 0.07796,-0.119785 0.09187,-0.21441 0.02293,-0.156033 0.02608,-0.152009 0.03389,0.04324 0.0068,0.170335 -0.01238,0.215105 -0.09187,0.21441 -0.06522,-5.71e-4 -0.07711,-0.01574 -0.03389,-0.04324 z"
       id="path3152"
       inkscape:connector-curvature="0"
       transform="translate(0,1032.3622)" />
  </g>
</svg>
