<?xml version="1.0" ?><svg id="Layer_1" style="enable-background:new 0 0 48 48;" version="1.1" viewBox="0 0 48 48" xml:space="preserve" xmlns="http://www.w3.org/2000/svg" xmlns:xlink="http://www.w3.org/1999/xlink"><style type="text/css">
	.st0{fill:#FF4676;}
	.st1{fill:#0F1C70;}
	.st2{fill:#FFE92E;}
	.st3{fill:#17D5D1;}
	.st4{fill:#FFFFFF;}
	.st5{fill:#EA2461;}
	.st6{fill:#F2F2F2;}
</style><g><g><g><g><g><g><g><g><g><g><circle class="st0" cx="24" cy="24" r="24"/></g></g></g></g></g></g></g></g></g><g><g><path class="st1" d="M15.9,16.8v14.4c0,0.6,0.5,1.1,1.1,1.1h11.4l8.1,6.2v-6.2h2.4c0.6,0,1.1-0.5,1.1-1.1V16.8     c0-0.6-0.5-1.1-1.1-1.1H17C16.4,15.7,15.9,16.2,15.9,16.8z"/></g><g><path class="st4" d="M32.1,13.2v14.4c0,0.6-0.5,1.1-1.1,1.1H19.6l-8.1,6.2v-6.2H9.1c-0.6,0-1.1-0.5-1.1-1.1V13.2     c0-0.6,0.5-1.1,1.1-1.1H31C31.6,12.2,32.1,12.6,32.1,13.2z"/><g><circle class="st3" cx="14" cy="20.4" r="1.9"/><circle class="st3" cx="20.1" cy="20.4" r="1.9"/><circle class="st3" cx="26.1" cy="20.4" r="1.9"/></g></g></g></g></svg>