<?xml version="1.0" ?><svg id="Layer_1" style="enable-background:new 0 0 48 48;" version="1.1" viewBox="0 0 48 48" xml:space="preserve" xmlns="http://www.w3.org/2000/svg" xmlns:xlink="http://www.w3.org/1999/xlink"><style type="text/css">
	.st0{fill:#FF4676;}
	.st1{fill:#0F1C70;}
	.st2{fill:#FFE92E;}
	.st3{fill:#17D5D1;}
	.st4{fill:#FFFFFF;}
	.st5{fill:#EA2461;}
	.st6{fill:#F2F2F2;}
</style><g><g><g><g><g><g><g><circle class="st2" cx="24" cy="24" r="24"/></g></g></g></g></g></g><g><g><path class="st0" d="M38,20c0,11.6-14,23-14,23S10,31.6,10,20c0-7.7,6.3-14,14-14S38,12.3,38,20z"/></g><g><circle class="st4" cx="24" cy="20" r="9.5"/><ellipse class="st3" cx="24" cy="20" rx="4.8" ry="9.5"/><path class="st1" d="M31.7,26.3c1.4-1.7,2.3-3.9,2.3-6.3c0-5.5-4.5-10-10-10s-10,4.5-10,10s4.5,10,10,10     C27.1,29.9,29.8,28.5,31.7,26.3L31.7,26.3L31.7,26.3z M29.2,19.5c0-1.5-0.2-2.9-0.6-4.1c0.9-0.2,1.8-0.5,2.5-0.9     c1.1,1.4,1.7,3.1,1.8,5H29.2z M28.3,19.5h-3.9v-3.6c1.2,0,2.3-0.1,3.3-0.3C28.1,16.8,28.3,18.1,28.3,19.5z M24.5,15V11     c1.2,0.3,2.3,1.7,3,3.8C26.5,14.9,25.5,15,24.5,15z M23.5,11V15c-1.1,0-2.1-0.1-3-0.3C21.2,12.7,22.3,11.3,23.5,11z M23.5,15.9     v3.6h-3.9c0-1.4,0.2-2.7,0.6-3.9C21.3,15.8,22.4,15.9,23.5,15.9z M18.8,19.5H15c0.1-1.9,0.8-3.6,1.8-5c0.7,0.4,1.6,0.7,2.5,0.9     C19,16.6,18.8,18,18.8,19.5z M18.8,20.4c0,1.5,0.2,2.9,0.6,4.1c-0.9,0.2-1.8,0.5-2.5,0.9c-1.1-1.4-1.7-3.1-1.8-5H18.8z      M19.7,20.4h3.9V24c-1.2,0-2.3,0.1-3.3,0.3C19.9,23.2,19.7,21.8,19.7,20.4z M23.5,24.9V29c-1.2-0.3-2.3-1.7-3-3.8     C21.5,25,22.5,24.9,23.5,24.9z M24.5,29v-4.1c1.1,0,2.1,0.1,3,0.3C26.8,27.3,25.7,28.7,24.5,29z M24.5,24v-3.6h3.9     c0,1.4-0.2,2.7-0.6,3.9C26.7,24.2,25.6,24,24.5,24z M29.2,20.4H33c-0.1,1.9-0.8,3.6-1.8,5c-0.7-0.4-1.6-0.7-2.5-0.9     C29,23.3,29.2,21.9,29.2,20.4z M30.6,13.8c-0.7,0.3-1.4,0.5-2.2,0.7c-0.5-1.3-1.1-2.4-1.8-3.2C28.1,11.8,29.5,12.6,30.6,13.8z      M21.4,11.3c-0.7,0.8-1.3,1.9-1.8,3.2c-0.8-0.2-1.5-0.4-2.2-0.7C18.5,12.6,19.9,11.8,21.4,11.3z M17.4,26.2     c0.6-0.3,1.4-0.6,2.2-0.7c0.5,1.3,1.1,2.5,1.8,3.2C19.9,28.2,18.5,27.3,17.4,26.2z M26.6,28.7c0.7-0.8,1.3-1.9,1.8-3.2     c0.8,0.2,1.6,0.4,2.2,0.7C29.5,27.3,28.1,28.2,26.6,28.7z"/></g></g></g></svg>