<svg xmlns="http://www.w3.org/2000/svg" viewBox="0 0 16 16" id="svg6">
  <defs id="defs3051">
    <style id="current-color-scheme">
      .ColorScheme-Text {
        color:#232629;
      }
	  </style>
	</defs>
  <path style="fill:currentColor;fill-opacity:1;stroke:none" 
		d="M 3,2 C 2.446,2 2,2.446 2,3 V 5 H 1 v 1 4 c 0,0.554 0.446,1 1,1 h 3 v 2 c 0,0.554 0.446,1 1,1 h 8 c 0.554,0 1,-0.446 1,-1 V 7 C 15,6.446 14.554,6 14,6 H 11 V 4 C 11,3.446 10.554,3 10,3 H 6 L 5,2 H 4.7167969 Z m 3,2 h 4 V 5 6 L 9,5 H 8.7167969 7 C 6.446,5 6,5.446 6,6 V 8 H 5 v 1 1 H 2 V 9 6 h 2 z m 4,3 h 4 v 1 5 H 6 V 12 9 h 2 z"
  	    class="ColorScheme-Text"
        />
</svg>
