<svg xmlns="http://www.w3.org/2000/svg" viewBox="0 0 22 22">
  <defs id="defs3051">
    <style type="text/css" id="current-color-scheme">
      .ColorScheme-Text {
        color:#232629;
      }
      </style>
  </defs>
    <path
       style="opacity:1;fill:currentColor;fill-opacity:1;stroke:none" 
       d="M 8 3 C 6.892 3 6 3.892 6 5 L 6 10 L 6 12 L 6 18 L 6 19 L 11 17 L 16 19 L 16 18 L 16 12 L 16 10 L 16 8 L 15 8 L 15 10 L 15 12 L 15 17.599609 L 11 16 L 7 17.599609 L 7 12 L 7 10 L 7 5 C 7 4.446 7.446 4 8 4 L 11 4 L 11 3 L 8 3 z M 11 5 L 11 6 L 16 6 L 16 5 L 11 5 z "
       class="ColorScheme-Text"
       id="rect4136" />
</svg>
