<svg xmlns="http://www.w3.org/2000/svg" viewBox="0 0 22 22">
  <defs id="defs3051">
    <style type="text/css" id="current-color-scheme">
      .ColorScheme-Text {
        color:#232629;
      }
      </style>
  </defs>
    <path
       style="opacity:1;fill:currentColor;fill-opacity:1;stroke:none" 
       d="M 4 3 L 4 4 L 4 19 L 5 19 L 13 19 L 13 18 L 5 18 L 5 4 L 11 4 L 11 9 L 11 10 L 17 10 L 17 14 L 18 14 L 18 9 L 12 3 L 11 3 L 5 3 L 4 3 z M 12 4 L 17 9 L 12 9 L 12 4 z M 15 14 L 15 16 L 13 16 L 13 17 L 15 17 L 15 19 L 16 19 L 16 17 L 18 17 L 18 16 L 16 16 L 16 14 L 15 14 z "
       class="ColorScheme-Text"
       id="rect4136" />
</svg>
