<svg xmlns="http://www.w3.org/2000/svg" viewBox="0 0 22 22">
  <defs id="defs3051">
    <style type="text/css" id="current-color-scheme">
      .ColorScheme-Text {
        color:#232629;
      }
      </style>
  </defs>
    <path
       style="opacity:1;fill:currentColor;fill-opacity:1;stroke:none" 
       d="M 5 4 C 3.892 4 3 4.892 3 6 L 3 8 L 3 9 L 2 9 L 2 10 L 2 14 L 2 17 C 2 18.108 2.892 19 4 19 L 14 19 L 14 18 L 4 18 C 3.446 18 3 17.554 3 17 L 3 14 L 3 10 L 7 10 L 10 7 L 19 7 L 19 11 L 19 13 L 20 13 L 20 11 L 20 6 L 19 6 L 18.996094 6 C 18.984068 5.444854 18.536637 5 17.978516 5 L 12 5 L 11 5 L 10 4 L 8 4 L 5 4 z M 17.556641 14 A 2.5 2.5 0 0 0 15.626953 14.84375 A 2.5 2.5 0 0 0 15.505859 18 L 16.189453 17.226562 A 1.5 1.5 0 0 1 16.376953 15.505859 A 1.5 1.5 0 0 1 18.060547 15.111328 L 18.748047 14.333984 A 2.5 2.5 0 0 0 17.556641 14 z M 19.494141 15 L 18.810547 15.773438 A 1.5 1.5 0 0 1 18.623047 17.494141 A 1.5 1.5 0 0 1 16.939453 17.888672 L 16.251953 18.666016 A 2.5 2.5 0 0 0 19.373047 18.15625 A 2.5 2.5 0 0 0 19.494141 15 z "
       class="ColorScheme-Text"
       id="rect4136" />
</svg>
