<svg xmlns="http://www.w3.org/2000/svg" viewBox="0 0 22 22">
  <defs id="defs3051">
    <style type="text/css" id="current-color-scheme">
      .ColorScheme-Text {
        color:#232629;
      }
      </style>
  </defs>
    <path 
        style="opacity:1;fill:currentColor;fill-opacity:1;stroke:none" 
        d="M 5,4 C 3.892,4 3,4.892 3,6 V 8 9 H 2 v 1 4 3 c 0,1.108 0.892,2 2,2 H 15 V 18 H 4 C 3.446,18 3,17.554 3,17 v -3 -4 h 4 l 3,-3 h 9 v 4 3 h 1 V 11 6 H 19 18.9961 C 18.984074,5.444854 18.536637,5 17.978516,5 H 12 11 L 10,4 H 8 Z m 12,10 v 2 h -2 v 1 h 2 v 2 h 1 v -2 h 2 v -1 h -2 v -2 z"
        class="ColorScheme-Text"/>
</svg>
