<svg xmlns="http://www.w3.org/2000/svg" viewBox="0 0 22 22">
  <defs id="defs3051">
    <style type="text/css" id="current-color-scheme">
      .ColorScheme-Text {
        color:#232629;
      }
      </style>
  </defs>
    <path 
        style="opacity:1;fill:currentColor;fill-opacity:1;stroke:none" 
        d="M 4,3 C 3.446,3 3,3.446 3,4 V 5 6 H 2 v 6 c 0,1.108 0.892,2 2,2 h 3 v 3 c 0,1.108 0.892,2 2,2 h 9 c 1.108,0 2,-0.892 2,-2 V 11 C 20,9.892 19.108,9 18,9 H 15 V 6 C 15,4.892 14.108,4 13,4 H 9 L 8,3 H 6 Z m 5,2 h 1 3 c 0.554,0 1,0.446 1,1 V 9 L 13,8 H 11 9 C 8.446,8 8,8.446 8,9 v 1 1 H 7 v 2 H 4 C 3.446,13 3,12.554 3,12 V 7 h 2 1 z m 5,5 h 1 3 c 0.554,0 1,0.446 1,1 v 6 c 0,0.554 -0.446,1 -1,1 H 9 C 8.446,18 8,17.554 8,17 v -3 -1 -1 h 2 1 z"
        class="ColorScheme-Text"/>
</svg>
