<svg xmlns="http://www.w3.org/2000/svg" viewBox="0 0 22 22">
  <defs id="defs3051">
    <style type="text/css" id="current-color-scheme">
      .ColorScheme-Text {
        color:#232629
      }
      </style>
  </defs>
    <path
       style="fill:currentColor;fill-opacity:1;stroke:none" 
       d="M 5,4 C 3.892,4 3,4.892 3,6 V 8 9 H 2 v 1 4 3 c 0,1.108 0.892,2 2,2 h 14 c 1.108,0 2,-0.892 2,-2 V 14 11 6 H 19 18.9961 C 18.984065,5.444854 18.536637,5 17.978516,5 H 12 11 L 10,4 H 8 Z M 5,5 H 6 9 V 6 L 7,8 6,9 H 5 4 V 8 6 C 4,5.723 4.1122188,5.4737188 4.2929688,5.2929688 4.4737187,5.1122186 4.723,5 5,5 Z m 5,2 h 9 v 4 3 3 c 0,0.554 -0.446,1 -1,1 H 4 C 3.446,18 3,17.554 3,17 V 14 10 H 7 L 8,9 Z"
       class="ColorScheme-Text" />
</svg>
