<svg xmlns="http://www.w3.org/2000/svg" viewBox="0 0 22 22">
  <defs id="defs3051">
    <style type="text/css" id="current-color-scheme">
      .ColorScheme-Text {
        color:#232629
      }
      </style>
  </defs>
    <path
       style="fill:currentColor;fill-opacity:1;stroke:none" 
       d="M 4,3 C 3.446,3 3,3.446 3,4 V 5 6 H 2 V 8 H 3 V 7 H 5 6 L 9,5 h 1 V 4 H 9 L 8,3 H 6 Z m 7,1 v 1 h 1 V 4 Z m 2,0 v 1 h 1.587891 C 14.234922,4.4363851 13.716803,4 13,4 Z m 1,2 v 1 h 1 V 6 Z M 9,8 C 8.446,8 8,8.446 8,9 v 1 1 H 7 v 1 1 1 1 2 c 0,1.108 0.892,2 2,2 h 9 c 1.108,0 2,-0.892 2,-2 V 11 C 20,9.892 19.108,9 18,9 H 15 V 8 H 14 V 9 L 13,8 H 11 Z M 2,9 v 1 H 3 V 9 Z m 12,1 h 1 3 c 0.554,0 1,0.446 1,1 v 6 c 0,0.554 -0.446,1 -1,1 H 9 C 8.446,18 8,17.554 8,17 v -3 -1 -1 h 2 1 z M 2,11 v 1 h 1 v -1 z m 0.4121094,2 C 2.7650781,13.563615 3.2831966,14 4,14 V 13 Z M 5,13 v 1 h 1 v -1 z"
       class="ColorScheme-Text" />
</svg>
