<svg xmlns="http://www.w3.org/2000/svg" viewBox="0 0 22 22">
  <defs id="defs3051">
    <style type="text/css" id="current-color-scheme">
      .ColorScheme-Text {
        color:#232629;
      }
      </style>
  </defs>
    <path
       style="opacity:1;fill:currentColor;fill-opacity:1;stroke:none" 
       d="M 5 4 C 3.892 4 3 4.892 3 6 L 3 8 L 3 9 L 2 9 L 2 10 L 2 14 L 2 17 C 2 18.108 2.892 19 4 19 L 13 19 L 13 18 L 4 18 C 3.446 18 3 17.554 3 17 L 3 14 L 3 10 L 7 10 L 10 7 L 19 7 L 19 11 L 20 11 L 20 6 L 19 6 L 18.996094 6 C 18.984062 5.444854 18.536637 5 17.978516 5 L 12 5 L 11 5 L 10 4 L 8 4 L 5 4 z M 16.5 11.792969 L 15.792969 12.5 L 13 15.292969 L 13.707031 16 L 16 13.707031 L 16 19 L 17 19 L 17 18 L 17 17 L 17 13.707031 L 19.292969 16 L 20 15.292969 L 17.207031 12.5 L 16.5 11.792969 z "
       class="ColorScheme-Text"
       id="rect4136" />
</svg>
