<svg xmlns="http://www.w3.org/2000/svg" viewBox="0 0 22 22">
  <defs id="defs3051">
    <style type="text/css" id="current-color-scheme">
      .ColorScheme-Text {
        color:#232629;
      }
      </style>
  </defs>
    <path
       style="opacity:1;fill:currentColor;fill-opacity:1;stroke:none" 
       d="M 19,3 6,6 v 1 3 1 3.269531 A 2,2 0 0 0 5,14 2,2 0 0 0 3,16 2,2 0 0 0 5,18 2,2 0 0 0 7,16 V 10.769531 L 11,9.8457031 V 15.269531 A 2,2 0 0 0 10,15 a 2,2 0 0 0 -2,2 2,2 0 0 0 2,2 2,2 0 0 0 2,-2 V 9.6152344 L 18,8.2304688 V 12.269531 A 2,2 0 0 0 17,12 a 2,2 0 0 0 -2,2 2,2 0 0 0 2,2 2,2 0 0 0 2,-2 V 8 7 4 Z m -1,1.2304688 v 3 L 7,9.7695312 v -3 z"
        class="ColorScheme-Text"
       id="path4867" />
</svg>
