<svg xmlns="http://www.w3.org/2000/svg" viewBox="0 0 22 22">
  <defs id="defs3051">
    <style type="text/css" id="current-color-scheme">
      .ColorScheme-Text {
        color:#232629;
      }
      </style>
  </defs>
    <path
       style="opacity:1;fill:currentColor;fill-opacity:1;stroke:none" 
       d="M 15.5,3 A 3.5,3.5 0 0 0 12,6.5 3.5,3.5 0 0 0 12.158203,7.5273438 L 6.0839844,11.322266 A 2,2 0 0 0 5,11 2,2 0 0 0 3,13 2,2 0 0 0 5,15 2,2 0 0 0 6.3691406,14.457031 l 5.6542974,1.884766 A 3,3 0 0 0 15,19 3,3 0 0 0 18,16 3,3 0 0 0 15,13 3,3 0 0 0 12.072266,15.357422 L 6.8964844,13.632812 A 2,2 0 0 0 7,13 2,2 0 0 0 6.6953125,11.939453 L 12.507812,8.3085938 A 3.5,3.5 0 0 0 15.5,10 3.5,3.5 0 0 0 19,6.5 3.5,3.5 0 0 0 15.5,3 Z"
        class="ColorScheme-Text"
       id="path4867" />
</svg>
