<svg xmlns="http://www.w3.org/2000/svg" viewBox="0 0 22 22">
  <defs id="defs3051">
    <style type="text/css" id="current-color-scheme">
      .ColorScheme-Text {
        color:#232629
      }
      </style>
  </defs>
    <path
       style="fill:currentColor;fill-opacity:1;stroke:none" 
       d="m 16,3 c -1.104569,0 -2,0.8954305 -2,2 0,1.1045695 0.895431,2 2,2 1.104569,0 2,-0.8954305 2,-2 C 18,3.8954305 17.104569,3 16,3 Z M 8,6 3,19 h 1 14 1 L 15,8 H 14 L 13.160156,9.1191406 9,6 Z M 8.765625,6.6113281 12.6875,9.75 11.814453,10.916016 11,10 h -1 l -5.0214844,6.457031 z m 5.560547,2.2871094 2.982422,8.1972655 -4.953125,-5.570312 z M 10.533203,10.599609 11.355469,11.525391 11.777344,12 17.111328,18 H 4.7773438 Z"
       class="ColorScheme-Text" />
</svg>
