<svg xmlns="http://www.w3.org/2000/svg" viewBox="0 0 22 22">
  <defs id="defs3051">
    <style type="text/css" id="current-color-scheme">
      .ColorScheme-Text {
        color:#232629;
      }
      </style>
  </defs>
    <path
       style="opacity:1;fill:currentColor;fill-opacity:1;stroke:none" 
       d="M 8 3 L 8 4 L 8 5.8105469 A 6 6 0 0 0 5.8125 8 L 4 8 L 3 8 L 3 9 L 3 14 L 4 14 L 5.8105469 14 A 6 6 0 0 0 8 16.1875 L 8 18 L 8 19 L 14 19 L 14 18 L 14 16.189453 A 6 6 0 0 0 16.1875 14 L 18 14 L 19 14 L 19 9 L 19 8 L 18 8 L 16.189453 8 A 6 6 0 0 0 14 5.8125 L 14 3 L 8 3 z M 9 4 L 13 4 L 13 5.3496094 A 6 6 0 0 0 11 5 A 6 6 0 0 0 9 5.3515625 L 9 4 z M 11 6 A 5 5 0 0 1 16 11 A 5 5 0 0 1 11 16 A 5 5 0 0 1 6 11 A 5 5 0 0 1 11 6 z M 4 9 L 5.3496094 9 A 6 6 0 0 0 5 11 A 6 6 0 0 0 5.3515625 13 L 4 13 L 4 9 z M 16.648438 9 L 18 9 L 18 13 L 16.650391 13 A 6 6 0 0 0 17 11 A 6 6 0 0 0 16.648438 9 z M 13 16.648438 L 13 18 L 9 18 L 9 16.650391 A 6 6 0 0 0 11 17 A 6 6 0 0 0 13 16.648438 z "
       id="path4114" 
        class="ColorScheme-Text"/>
</svg>
