<svg xmlns="http://www.w3.org/2000/svg" viewBox="0 0 22 22" id="svg6">
  <defs id="defs3051">
    <style type="text/css" id="current-color-scheme">
      .ColorScheme-Text {
        color:#232629;
      }
      </style>
  </defs>
    <path
       style="opacity:1;fill:currentColor;fill-opacity:1;stroke:none" 
       d="M 13,3 A 6,6 0 0 0 7,9 6,6 0 0 0 7.5351562,11.464844 L 3,16 v 1 l 4.8828125,-4.882812 a 6,6 0 0 0 1.9980469,2.001953 L 5,19 h 1 l 4.537109,-4.537109 A 6,6 0 0 0 13,15 6,6 0 0 0 19,9 6,6 0 0 0 13,3 Z m 0,1 a 5,5 0 0 1 5,5 5,5 0 0 1 -5,5 5,5 0 0 1 -5,-5 5,5 0 0 1 5,-5 z"
       class="ColorScheme-Text"
       />
</svg>
