<svg xmlns="http://www.w3.org/2000/svg" viewBox="0 0 22 22">
  <defs id="defs3051">
    <style type="text/css" id="current-color-scheme">
      .ColorScheme-Text {
        color:#232629
      }
      </style>
  </defs>
    <path
       style="fill:currentColor;fill-opacity:1;stroke:none" 
	   d="M 3,3 V 4 H 5 V 6 H 3 V 7 H 5 V 9 H 3 v 1 h 2 v 2 H 3 v 1 h 2 v 2 H 3 v 1 h 2 v 2 H 3 v 1 h 16 v -1 h -2 v -2 h 2 v -1 h -2 v -2 h 2 v -1 h -2 v -2 h 2 V 9 H 17 V 7 h 2 V 6 H 17 V 4 h 2 V 3 Z m 3,1 h 6 V 6 H 6 Z M 6,7 H 16 V 9 H 6 Z m 6,3 h 4 v 2 h -4 z m -6,3 h 10 v 2 H 6 Z"
       class="ColorScheme-Text" />
</svg>
