<svg xmlns="http://www.w3.org/2000/svg" viewBox="0 0 22 22">
  <defs id="defs3051">
    <style type="text/css" id="current-color-scheme">
      .ColorScheme-Text {
        color:#232629
      }
      </style>
  </defs>
    <path
       style="fill:currentColor;fill-opacity:1;stroke:none" 
	   d="M 7,3 C 5.338,3 4,4.338 4,6 v 10 c 0,1.662 1.338,3 3,3 h 8 c 1.662,0 3,-1.338 3,-3 V 6 C 18,4.338 16.662,3 15,3 Z m 0,1 h 8 c 1.108,0 2,0.892 2,2 v 10 c 0,1.108 -0.892,2 -2,2 H 7 C 5.892,18 5,17.108 5,16 V 6 C 5,4.892 5.892,4 7,4 Z M 7.5,5 C 6.669,5 6,5.669 6,6.5 6,7.331 6.669,8 7.5,8 h 7 C 15.331,8 16,7.331 16,6.5 16,5.669 15.331,5 14.5,5 Z"
       class="ColorScheme-Text" />
</svg>
