<svg xmlns="http://www.w3.org/2000/svg" viewBox="0 0 16 16">
  <defs id="defs3051">
    <style type="text/css" id="current-color-scheme">
      .ColorScheme-Text {
        color:#232629;
      }
      </style>
  </defs>
    <path 
        style="fill:currentColor;fill-opacity:1;stroke:none" 
		d="M 5 2 L 5 3 L 5 6 L 3 4 L 3 5 L 3 14 L 4 14 L 12 14 L 13 14 L 11 12 L 14 12 L 15 12 L 14 11 L 6 3 L 5 2 z M 6 4 L 13 11 L 10 11 L 6 7 L 6 4 z M 4 6 L 5 7 L 5 12 L 6 12 L 10 12 L 11 13 L 4 13 L 4 6 z M 6 8 L 9 11 L 6 11 L 6 8 z "
        id="rect3371" 
        class="ColorScheme-Text"/>
</svg>
