<svg xmlns="http://www.w3.org/2000/svg" viewBox="0 0 16 16" id="svg6">
  <defs id="defs3051">
    <style id="current-color-scheme">
      .ColorScheme-Text {
        color:#232629;
      }
	  </style>
	</defs>
  <path style="fill:currentColor;fill-opacity:1;stroke:none" 
		d="M 3 2 C 2.446 2 2 2.446 2 3 L 2 6 L 1 6 L 1 10 L 1 11 L 1 11.9375 C 1 13.079592 1.9204077 14 3.0625 14 L 12.9375 14 C 14.079592 14 15 13.079592 15 11.9375 L 15 11 L 15 10 L 15 4 L 14 4 C 14 3.446 13.554 3 13 3 L 8 3 L 7 2 L 6 2 L 3 2 z M 3.5234375 3 L 4 3 L 4.4765625 3 L 6 3 L 6.5566406 3 L 7 3.4335938 L 7 4 L 6.5566406 4 L 4.4902344 6 L 4 6 L 3.5234375 6 C 3.2337685 6 3 5.7662313 3 5.4765625 L 3 3.5234375 C 3 3.2337687 3.2337685 3 3.5234375 3 z "
  	    class="ColorScheme-Text"
        />
</svg>
