<svg xmlns="http://www.w3.org/2000/svg" viewBox="0 0 16 16">
  <defs id="defs3051">
    <style type="text/css" id="current-color-scheme">
      .ColorScheme-Text {
        color:#232629;
      }
      </style>
  </defs>
    <path 
        style="fill:currentColor;fill-opacity:1;stroke:none" 
		d="M 6,2 V 3.4199219 A 5,5 0 0 0 3.4238281,6 H 2 v 4 H 3.4199219 A 5,5 0 0 0 6,12.576172 V 14 h 4 V 12.580078 A 5,5 0 0 0 12.576172,10 H 14 V 6 H 12.580078 A 5,5 0 0 0 10,3.4238281 V 2 Z M 7,3 H 9 V 4.1308594 A 4,4 0 0 0 8,4 4,4 0 0 0 7,4.1308594 Z M 8,5 A 3,3 0 0 1 11,8 3,3 0 0 1 8,11 3,3 0 0 1 5,8 3,3 0 0 1 8,5 Z M 3,7 H 4.1308594 A 4,4 0 0 0 4,8 4,4 0 0 0 4.1308594,9 H 3 Z m 8.869141,0 H 13 V 9 H 11.869141 A 4,4 0 0 0 12,8 4,4 0 0 0 11.869141,7 Z M 7,11.869141 A 4,4 0 0 0 8,12 4,4 0 0 0 9,11.869141 V 13 H 7 Z"
        id="rect4138" 
        class="ColorScheme-Text"/>
</svg>
