<svg xmlns="http://www.w3.org/2000/svg" viewBox="0 0 16 16">
  <defs id="defs3051">
    <style type="text/css" id="current-color-scheme">
      .ColorScheme-Text {
        color:#232629;
      }
      </style>
  </defs>
    <path 
        style="fill:currentColor;fill-opacity:1;stroke:none" 
		d="M 5 2 L 5 8 L 5 12 L 6 12 L 8 12 L 8 14 L 9 14 L 13 14 L 14 14 L 14 6 L 13.5625 6 L 13 6 L 12 6 L 12 3 L 12 2 L 5 2 z M 5 8 L 2 5 L 2 11 L 5 8 z M 6 3 L 11 3 L 11 6 L 6 6 L 6 3 z M 6 7 L 8 7 L 8 11 L 6 11 L 6 7 z M 9 7 L 13 7 L 13 13 L 9 13 L 9 7 z "
        class="ColorScheme-Text"/>
</svg>
