<svg xmlns="http://www.w3.org/2000/svg" viewBox="0 0 16 16">
  <defs id="defs3051">
    <style type="text/css" id="current-color-scheme">
      .ColorScheme-Text {
        color:#232629;
      }
      </style>
  </defs>
    <path 
        style="fill:currentColor;fill-opacity:1;stroke:none" 
		d="M 14 2 L 4 4 L 4 5 L 4 7 L 4 8 L 4 10.087891 A 1.5 1.5 0 0 0 3.5 10 A 1.5 1.5 0 0 0 2 11.5 A 1.5 1.5 0 0 0 3.5 13 A 1.5 1.5 0 0 0 4.9121094 12 A 1.5 1.5 0 0 0 4.9335938 11.943359 A 1.5 1.5 0 0 0 4.9707031 11.798828 A 1.5 1.5 0 0 0 4.9921875 11.650391 A 1.5 1.5 0 0 0 5 11.5 L 5 7.8007812 L 8 7.1992188 L 8 11.087891 A 1.5 1.5 0 0 0 7.5 11 A 1.5 1.5 0 0 0 6 12.5 A 1.5 1.5 0 0 0 7.5 14 A 1.5 1.5 0 0 0 8.9121094 13 A 1.5 1.5 0 0 0 8.9335938 12.943359 A 1.5 1.5 0 0 0 8.9707031 12.798828 A 1.5 1.5 0 0 0 8.9921875 12.650391 A 1.5 1.5 0 0 0 9 12.5 L 9 7 L 13 6.1992188 L 13 9.0878906 A 1.5 1.5 0 0 0 12.5 9 A 1.5 1.5 0 0 0 11 10.5 A 1.5 1.5 0 0 0 12.5 12 A 1.5 1.5 0 0 0 13.912109 11 A 1.5 1.5 0 0 0 13.933594 10.943359 A 1.5 1.5 0 0 0 13.970703 10.798828 A 1.5 1.5 0 0 0 13.992188 10.650391 A 1.5 1.5 0 0 0 14 10.5 L 14 6 L 14 5 L 14 3 L 14 2 z M 13 3.1992188 L 13 5.1992188 L 5 6.8007812 L 5 4.8007812 L 13 3.1992188 z "
        class="ColorScheme-Text"/>
</svg>
