<svg xmlns="http://www.w3.org/2000/svg" viewBox="0 0 16 16">
  <defs id="defs3051">
    <style type="text/css" id="current-color-scheme">
      .ColorScheme-Text {
        color:#232629;
      }
      </style>
  </defs>
 <path style="fill:currentColor;fill-opacity:1;stroke:none" 
     d="M 8,2 A 4,4 0 0 0 4,6 V 9 H 2 v 1 4 h 1 4 7 V 13 7 H 12 V 6 A 4,4 0 0 0 8,2 Z m 0,1 a 3,3 0 0 1 3,3 V 7 H 6 V 8 9 H 5 V 6 A 3,3 0 0 1 8,3 Z M 7,8 h 6 v 5 H 10 V 9 H 7 Z m -4,2 h 3 v 3 H 3 Z m 4,0 h 2 v 3 H 7 Z"
     class="ColorScheme-Text"/>
</svg>
