<svg xmlns="http://www.w3.org/2000/svg" viewBox="0 0 16 16">
  <defs id="defs3051">
    <style type="text/css" id="current-color-scheme">
      .ColorScheme-Text {
        color:#232629;
      }
      </style>
  </defs>
    <path 
        style="fill:currentColor;fill-opacity:1;stroke:none" 
		d="M 11.5 2 A 1.5 1.5 0 0 0 10 3.5 A 1.5 1.5 0 0 0 11.5 5 A 1.5 1.5 0 0 0 13 3.5 A 1.5 1.5 0 0 0 11.5 2 z M 6 4 L 2 14 L 3 14 L 13 14 L 14 14 L 11 6 L 10 6 L 9.5 6.5 L 7 4 L 6 4 z M 6.7148438 4.7148438 L 9 7 L 8.4609375 7.5390625 L 8 7 L 7 7 L 4.2734375 10.818359 L 6.7148438 4.7148438 z M 10.273438 6.7265625 L 12.222656 11.925781 L 8.921875 8.0761719 L 9 8 L 10.273438 6.7265625 z M 7.5449219 7.6367188 L 12.142578 13 L 3.7148438 13 L 7.5449219 7.6367188 z "
        id="rect4122" 
        class="ColorScheme-Text"/>
</svg>
