<svg xmlns="http://www.w3.org/2000/svg" viewBox="0 0 16 16">
  <defs id="defs3051">
    <style type="text/css" id="current-color-scheme">
      .ColorScheme-Text {
        color:#232629;
      }
      </style>
  </defs>
    <path 
        style="fill:currentColor;fill-opacity:1;stroke:none" 
        d="M 2 2 L 2 3 L 3 3 L 3 6 L 2 6 L 2 7 L 3 7 L 3 8 L 2 8 L 2 9 L 3 9 L 3 12 L 2 12 L 2 13 L 3 13 L 3 14 L 4 14 L 4 13 L 12 13 L 12 14 L 13 14 L 13 13 L 14 13 L 14 12 L 13 12 L 13 9 L 14 9 L 14 8 L 13 8 L 13 7 L 14 7 L 14 6 L 13 6 L 13 3 L 14 3 L 14 2 L 2 2 z M 4 3 L 9 3 L 9 6 L 4 6 L 4 3 z M 4 7 L 12 7 L 12 8 L 4 8 L 4 7 z M 9 9 L 12 9 L 12 12 L 9 12 L 9 9 z " id="rect4188" 
        class="ColorScheme-Text"/>
</svg>
