<svg xmlns="http://www.w3.org/2000/svg" viewBox="0 0 16 16">
  <defs id="defs3051">
    <style type="text/css" id="current-color-scheme">
      .ColorScheme-Text {
        color:#232629;
      }
      </style>
  </defs>
    <path 
        style="fill:currentColor;fill-opacity:1;stroke:none" 
        d="M 4.9824219 2 C 3.3304139 2 2 3.3304139 2 4.9824219 L 2 11.017578 C 2 12.669586 3.3304139 14 4.9824219 14 L 11.017578 14 C 12.669586 14 14 12.669586 14 11.017578 L 14 4.9824219 C 14 3.3304139 12.669586 2 11.017578 2 L 4.9824219 2 z M 5 3 L 11 3 C 12.108 3 13 3.892 13 5 L 13 11 C 13 12.108 12.108 13 11 13 L 5 13 C 3.892 13 3 12.108 3 11 L 3 5 C 3 3.892 3.892 3 5 3 z M 5.5 4 C 4.669 4 4 4.669 4 5.5 C 4 6.331 4.669 7 5.5 7 L 10.5 7 C 11.331 7 12 6.331 12 5.5 C 12 4.669 11.331 4 10.5 4 L 5.5 4 z "
        class="ColorScheme-Text"/>
</svg>
