<svg xmlns="http://www.w3.org/2000/svg" viewBox="0 0 16 16">
  <defs id="defs3051">
    <style type="text/css" id="current-color-scheme">
      .ColorScheme-Text {
        color:#232629;
      }
      </style>
  </defs>
    <path 
        style="fill:currentColor;fill-opacity:1;stroke:none" 
		d="M 6 2 L 1 7 L 2 7 L 6 3 L 7 3 L 7 4 L 4 7 L 4 12 L 4 12.974609 C 4 13.543042 4.4569576 14 5.0253906 14 L 10.974609 14 C 11.543042 14 12 13.543042 12 12.974609 L 12 11 L 12 7 L 9 4 L 9 3 L 10 3 L 14 7 L 15 7 L 10 2 L 9 2 L 8 3 L 7 2 L 6 2 z M 8 4 L 11 7 L 11 8 L 11 12 L 11 12.460938 C 11 12.759313 10.759312 13 10.460938 13 L 9 13 L 9 9 L 7 9 L 7 13 L 5.5390625 13 C 5.2406865 13 5 12.759312 5 12.460938 L 5 11 L 5 8 L 5 7 L 8 4 z "
        class="ColorScheme-Text"/>
</svg>
