<?xml version="1.0" encoding="UTF-8" standalone="no"?>
<!-- Created with Inkscape (http://www.inkscape.org/) -->

<svg
   xmlns:dc="http://purl.org/dc/elements/1.1/"
   xmlns:cc="http://creativecommons.org/ns#"
   xmlns:rdf="http://www.w3.org/1999/02/22-rdf-syntax-ns#"
   xmlns:svg="http://www.w3.org/2000/svg"
   xmlns="http://www.w3.org/2000/svg"
   xmlns:sodipodi="http://sodipodi.sourceforge.net/DTD/sodipodi-0.dtd"
   xmlns:inkscape="http://www.inkscape.org/namespaces/inkscape"
   width="12"
   height="12"
   id="svg26761"
   version="1.1"
   inkscape:version="0.48.3.1 r9886"
   sodipodi:docname="checkbox-menuitem-mixed.svg">
  <defs
     id="defs26763" />
  <sodipodi:namedview
     id="base"
     pagecolor="#e8e6df"
     bordercolor="#666666"
     borderopacity="1.0"
     inkscape:pageopacity="0.0"
     inkscape:pageshadow="2"
     inkscape:zoom="52.459649"
     inkscape:cx="2.1948225"
     inkscape:cy="3.3631902"
     inkscape:current-layer="layer1"
     showgrid="true"
     inkscape:grid-bbox="true"
     inkscape:document-units="px"
     inkscape:window-width="1366"
     inkscape:window-height="744"
     inkscape:window-x="0"
     inkscape:window-y="24"
     inkscape:window-maximized="1" />
  <metadata
     id="metadata26766">
    <rdf:RDF>
      <cc:Work
         rdf:about="">
        <dc:format>image/svg+xml</dc:format>
        <dc:type
           rdf:resource="http://purl.org/dc/dcmitype/StillImage" />
        <dc:title />
      </cc:Work>
    </rdf:RDF>
  </metadata>
  <g
     id="layer1"
     inkscape:label="Layer 1"
     inkscape:groupmode="layer"
     transform="translate(0,-4)">
    <rect
       style="color:#1a1a1c;fill:#ff7f2a;fill-opacity:1;fill-rule:nonzero;stroke:none;stroke-width:1;marker:none;visibility:visible;display:inline;overflow:visible;enable-background:accumulate"
       id="rect5494"
       width="11"
       height="2"
       x="0"
       y="10"
       rx="1.8653847"
       ry="1" />
    <path
       style="fill:#00ffff;fill-opacity:0.24636727"
       d="M 1.4795107,7.9685619 C 0.75929201,7.8848579 0.17566815,7.5675015 0.0467055,7.1894471 -0.14200468,6.6362428 0.53514888,6.1186262 1.5705512,6.0246184 c 0.1604006,-0.014563 1.3940509,-0.018713 4.089792,-0.013758 3.5436384,0.00651 3.8733936,0.00976 4.022139,0.039591 0.4248688,0.085207 0.7816088,0.2304194 1.0007688,0.4073673 0.224952,0.1816238 0.335113,0.4221658 0.294036,0.6420403 -0.07927,0.4243246 -0.688913,0.7845689 -1.4703796,0.8688664 -0.2199065,0.023721 -7.8232141,0.023567 -8.0273967,-1.715e-4 l 0,8.3e-6 z"
       id="path2983"
       inkscape:connector-curvature="0"
       transform="translate(0,4)" />
    <path
       style="fill:#00ffff;fill-opacity:0.24636727"
       d="M 1.3618013,7.9401214 C 1.1868766,7.9142105 0.94784741,7.8507838 0.76073518,7.7806277 0.49179964,7.6797926 0.16899467,7.4298899 0.08846252,7.2601809 -0.13153233,6.7965762 0.27440335,6.3271257 1.0732527,6.1213053 c 0.1167647,-0.030084 0.2980797,-0.064548 0.4029222,-0.076587 0.1396106,-0.016031 1.251674,-0.019927 4.1555749,-0.014557 3.7100618,0.00686 3.9741428,0.0095 4.1079192,0.04104 0.363696,0.085751 0.6544,0.2035021 0.879534,0.3562602 0.278083,0.1886841 0.409998,0.4779589 0.331608,0.7271796 -0.119923,0.3812667 -0.680348,0.7035885 -1.3809678,0.794248 -0.2550406,0.033002 -7.981775,0.024749 -8.2080419,-0.00877 z"
       id="path2985"
       inkscape:connector-curvature="0"
       transform="translate(0,4)" />
    <path
       style="fill:#00ffff;fill-opacity:0.24636727"
       d="M 3.2584972,7.9492446 C 1.1550392,7.9371719 1.3073703,7.9463803 0.87283898,7.8050335 0.64189387,7.7299104 0.49895857,7.64926 0.2963458,7.4797503 -0.30649701,6.9754009 0.18718815,6.2927915 1.3070445,6.0822756 1.5188166,6.0424657 1.5257368,6.0424122 5.5865242,6.0491787 l 4.0673646,0.00678 0.1524981,0.040879 c 0.7871301,0.2110027 1.1907311,0.5511859 1.1477711,0.9674234 -0.0057,0.055257 -0.02514,0.1293101 -0.0432,0.1645636 -0.171508,0.3348475 -0.705867,0.623084 -1.2990734,0.7007284 -0.183116,0.023968 -3.7060514,0.034888 -6.3533884,0.019694 z"
       id="path2987"
       inkscape:connector-curvature="0"
       transform="translate(0,4)" />
    <path
       style="fill:#00ffff;fill-opacity:0.24636727"
       d="M 2.2958525,7.9310178 C 1.6971322,7.9231312 1.2994507,7.9101274 1.2263182,7.8960451 1.0513185,7.8623474 0.73472175,7.7507005 0.59225279,7.6724437 0.23437277,7.4758639 0.05733061,7.2537441 0.05645445,7.000223 0.05518109,6.6317725 0.44037299,6.320702 1.1402502,6.124979 l 0.1834266,-0.051296 4.1676647,-0.00547 4.1676647,-0.00547 0.2261885,0.068196 c 0.5501613,0.1658728 0.8858973,0.3793094 1.0074783,0.6404813 0.06369,0.13681 0.06636,0.3279156 0.0063,0.4535354 -0.09117,0.1908086 -0.37555,0.4097115 -0.702571,0.5408109 C 9.8359754,7.9102645 9.7917252,7.915554 8.8056177,7.9320144 7.7565947,7.949525 3.6531542,7.9488968 2.2958525,7.9310178 l 0,0 z"
       id="path2989"
       inkscape:connector-curvature="0"
       transform="translate(0,4)" />
    <path
       style="fill:#00ffff;fill-opacity:0.24636727"
       d="M 1.7525778,7.9123469 C 1.3360818,7.900125 1.2432927,7.8918576 1.1044607,7.8546001 0.46150725,7.6820549 0.07084039,7.3575183 0.07256288,6.9973773 0.07419551,6.6560247 0.37511458,6.3917207 1.0102557,6.1737807 l 0.237172,-0.081382 4.2032305,-0.012138 4.2032306,-0.012138 0.2333323,0.074535 C 10.550166,6.354427 10.85923,6.582228 10.918116,6.9024977 c 0.02534,0.1378244 -0.0028,0.2888676 -0.07252,0.3891708 -0.196851,0.2832285 -0.727797,0.5557276 -1.1785986,0.6048964 -0.2199363,0.023988 -7.1629566,0.037833 -7.9144216,0.015782 z"
       id="path2991"
       inkscape:connector-curvature="0"
       transform="translate(0,4)" />
    <path
       style="fill:#00ffff;fill-opacity:0.24636727"
       d="M 1.4571126,7.8929508 C 1.1520785,7.8735411 0.94978404,7.8182964 0.65092657,7.6727893 0.47698008,7.5880986 0.41034633,7.5431095 0.30370879,7.4383587 0.14120809,7.2787331 0.09013687,7.1728956 0.08921227,6.9938465 0.08831771,6.8206159 0.15220275,6.691259 0.30850564,6.549813 0.44480129,6.4264725 0.74284686,6.2724035 1.0463061,6.1684209 l 0.1991861,-0.068252 4.2137294,-0.011321 4.2137294,-0.011321 0.2382784,0.080536 c 0.2672456,0.090326 0.5468896,0.2161656 0.6705766,0.3017577 0.274776,0.1901465 0.38638,0.4409078 0.312097,0.7012465 -0.02778,0.097371 -0.05103,0.1310354 -0.170031,0.2462276 C 10.568317,7.55787 10.36594,7.6805569 10.123133,7.7714804 9.75976,7.9075517 10.11094,7.8971181 5.6889366,7.9032209 c -2.1912079,0.00302 -4.0955287,-0.0016 -4.231824,-0.01027 l 0,0 z"
       id="path2993"
       inkscape:connector-curvature="0"
       transform="translate(0,4)" />
    <path
       style="fill:#00ffff;fill-opacity:0.24636727"
       d="M 1.3192729,7.8737822 C 0.80479453,7.8038912 0.28632125,7.5137072 0.14131006,7.2144889 0.09517502,7.1192932 0.09277408,6.8855156 0.13689047,6.7841552 0.17484056,6.6969622 0.30440792,6.5545198 0.41495021,6.4784647 0.54395492,6.3897071 0.82242406,6.2570877 1.0452858,6.1782708 l 0.2021419,-0.071489 4.2165383,-0.012259 4.2165381,-0.012259 0.2440331,0.087545 c 0.1342178,0.04815 0.3398208,0.1342011 0.4568948,0.1912249 0.339357,0.1652917 0.501298,0.3555806 0.517535,0.60813 0.01247,0.1939911 -0.01827,0.2670175 -0.17773,0.4222433 -0.07719,0.075136 -0.200747,0.1724974 -0.274575,0.2163576 -0.170641,0.1013761 -0.4778363,0.2223428 -0.633954,0.2496369 -0.1470408,0.025707 -8.3089074,0.041448 -8.4934351,0.016381 l 0,0 z"
       id="path2995"
       inkscape:connector-curvature="0"
       transform="translate(0,4)" />
    <path
       style="fill:#00ffff;fill-opacity:0.24636727"
       d="M 1.1857118,7.8454082 C 0.81372089,7.7608335 0.52505293,7.6176924 0.30643532,7.4094036 0.17361767,7.282861 0.11362045,7.157711 0.11351514,7.0069857 0.11338884,6.8262204 0.14046312,6.7618974 0.27807734,6.6160191 0.38281071,6.5049962 0.4378078,6.4661683 0.62483646,6.3712074 0.74709242,6.3091339 0.93290022,6.2257376 1.0377427,6.1858824 l 0.1906227,-0.072464 4.2222928,-0.012832 4.2222928,-0.012832 0.1620293,0.05666 c 0.2701687,0.094475 0.6134557,0.2500949 0.7374687,0.3343106 0.110058,0.074739 0.223303,0.1931466 0.268699,0.28095 0.01098,0.021243 0.02986,0.093147 0.04194,0.159786 0.03318,0.1829576 0.0034,0.280653 -0.129226,0.4238983 -0.192681,0.2081186 -0.428807,0.347789 -0.7877228,0.4659448 l -0.1597533,0.052591 -4.2508862,0.00527 c -3.6146162,0.00448 -4.2686835,0.00123 -4.3697889,-0.021761 z"
       id="path2997"
       inkscape:connector-curvature="0"
       transform="translate(0,4)" />
    <path
       style="fill:#00ffff;fill-opacity:0.24636727"
       d="M 1.199772,7.8361972 C 0.81980719,7.771635 0.371796,7.5226776 0.21408087,7.2884539 0.1057162,7.1275209 0.08981235,6.9266907 0.1725843,6.7644443 0.27015001,6.5731997 0.55294067,6.3854281 1.0270714,6.1970693 l 0.1990137,-0.079063 4.2329641,-0.010504 4.2329641,-0.010504 0.1810916,0.066658 c 0.2484501,0.091452 0.5577611,0.2325944 0.6747411,0.3078928 0.225962,0.1454484 0.335559,0.3279319 0.335559,0.5587188 0,0.1329129 -0.04393,0.2166447 -0.186572,0.3555867 -0.192795,0.1877971 -0.347854,0.2785027 -0.676859,0.3959458 L 9.8141912,7.8552568 5.5498718,7.8530147 C 3.204496,7.8517815 1.2469511,7.8442136 1.199772,7.8361972 z"
       id="path2999"
       inkscape:connector-curvature="0"
       transform="translate(0,4)" />
  </g>
</svg>
