<?xml version="1.0" encoding="UTF-8" standalone="no"?>
<!-- Created with Inkscape (http://www.inkscape.org/) -->

<svg
   xmlns:dc="http://purl.org/dc/elements/1.1/"
   xmlns:cc="http://creativecommons.org/ns#"
   xmlns:rdf="http://www.w3.org/1999/02/22-rdf-syntax-ns#"
   xmlns:svg="http://www.w3.org/2000/svg"
   xmlns="http://www.w3.org/2000/svg"
   xmlns:sodipodi="http://sodipodi.sourceforge.net/DTD/sodipodi-0.dtd"
   xmlns:inkscape="http://www.inkscape.org/namespaces/inkscape"
   width="12"
   height="12"
   id="svg26761"
   version="1.1"
   inkscape:version="0.48.3.1 r9886"
   sodipodi:docname="checkbox-menuitem-checked-insensitive.svg">
  <defs
     id="defs26763" />
  <sodipodi:namedview
     id="base"
     pagecolor="#e8e6df"
     bordercolor="#666666"
     borderopacity="1.0"
     inkscape:pageopacity="0.0"
     inkscape:pageshadow="2"
     inkscape:zoom="26.229825"
     inkscape:cx="-0.15396047"
     inkscape:cy="8"
     inkscape:current-layer="layer1"
     showgrid="true"
     inkscape:grid-bbox="true"
     inkscape:document-units="px"
     inkscape:window-width="1366"
     inkscape:window-height="744"
     inkscape:window-x="0"
     inkscape:window-y="24"
     inkscape:window-maximized="1" />
  <metadata
     id="metadata26766">
    <rdf:RDF>
      <cc:Work
         rdf:about="">
        <dc:format>image/svg+xml</dc:format>
        <dc:type
           rdf:resource="http://purl.org/dc/dcmitype/StillImage" />
        <dc:title />
      </cc:Work>
    </rdf:RDF>
  </metadata>
  <g
     id="layer1"
     inkscape:label="Layer 1"
     inkscape:groupmode="layer"
     transform="translate(0,-4)">
    <path
       sodipodi:nodetypes="ccc"
       d="M 1,11.785715 3.9948567,15 11,7.5000002"
       style="fill:none;stroke:#a3a89c;stroke-width:2;stroke-linecap:round;stroke-linejoin:round;stroke-miterlimit:4;stroke-opacity:1;stroke-dasharray:none;display:inline;enable-background:new;opacity:0.5"
       id="path6301-5"
       inkscape:connector-curvature="0" />
    <path
       style="fill:#008080;fill-opacity:0.24636727"
       d="M 3.5746195,11.866238 C 3.3993993,11.776078 3.1097105,11.485759 1.8121396,10.099926 0.04867566,8.2165101 0.00329201,8.1556332 0.03822666,7.720421 0.06248896,7.4181635 0.17971498,7.1937838 0.40171446,7.0246763 0.6837531,6.8098339 1.0619858,6.7600943 1.3793134,6.896117 c 0.2120892,0.090912 0.349581,0.2259904 1.6021088,1.5739853 0.5406664,0.5818758 0.9973457,1.057956 1.0148433,1.057956 0.017497,0 1.4587974,-1.5276755 3.2028888,-3.3948341 C 10.6875,2.3987315 10.539946,2.5386689 10.989843,2.5382365 c 0.368937,-3.545e-4 0.656585,0.1650982 0.862283,0.4959793 0.120313,0.1935311 0.130308,0.676616 0.01865,0.9014183 -0.05904,0.118873 -5.9818243,6.5110989 -6.9947567,7.5491669 -0.3515124,0.360235 -0.513597,0.451068 -0.8439073,0.47293 -0.215828,0.01428 -0.2748709,0.0025 -0.4574945,-0.09149 l 0,0 z"
       id="path2983"
       inkscape:connector-curvature="0"
       transform="translate(0,4)" />
  </g>
</svg>
