<?xml version="1.0" encoding="UTF-8" standalone="no"?>
<!-- Created with Inkscape (http://www.inkscape.org/) -->

<svg
   xmlns:osb="http://www.openswatchbook.org/uri/2009/osb"
   xmlns:dc="http://purl.org/dc/elements/1.1/"
   xmlns:cc="http://creativecommons.org/ns#"
   xmlns:rdf="http://www.w3.org/1999/02/22-rdf-syntax-ns#"
   xmlns:svg="http://www.w3.org/2000/svg"
   xmlns="http://www.w3.org/2000/svg"
   xmlns:xlink="http://www.w3.org/1999/xlink"
   xmlns:sodipodi="http://sodipodi.sourceforge.net/DTD/sodipodi-0.dtd"
   xmlns:inkscape="http://www.inkscape.org/namespaces/inkscape"
   width="16"
   height="16"
   id="svg814"
   version="1.1"
   inkscape:version="0.48.3.1 r9886"
   sodipodi:docname="checkbox-mixed.svg">
  <defs
     id="defs816">
    <linearGradient
       id="linearGradient3836">
      <stop
         style="stop-color:#1d2026;stop-opacity:1;"
         offset="0"
         id="stop3840" />
      <stop
         style="stop-color:#323947;stop-opacity:1;"
         offset="1"
         id="stop3842" />
    </linearGradient>
    <linearGradient
       id="linearGradient3828">
      <stop
         style="stop-color:#1a1a1c;stop-opacity:1;"
         offset="0"
         id="stop3830" />
      <stop
         style="stop-color:#1a1a1c;stop-opacity:0;"
         offset="1"
         id="stop3832" />
    </linearGradient>
    <linearGradient
       id="linearGradient3799">
      <stop
         style="stop-color:#1a1a1c;stop-opacity:1;"
         offset="0"
         id="stop3801" />
      <stop
         style="stop-color:#1a1a1c;stop-opacity:0.1882353;"
         offset="1"
         id="stop3803" />
    </linearGradient>
    <linearGradient
       id="linearGradient3888">
      <stop
         style="stop-color:#060000;stop-opacity:0;"
         offset="0"
         id="stop3890" />
      <stop
         style="stop-color:#060000;stop-opacity:0;"
         offset="1"
         id="stop3892" />
    </linearGradient>
    <linearGradient
       id="linearGradient3880">
      <stop
         style="stop-color:#1a1a1c;stop-opacity:0.76923078;"
         offset="0"
         id="stop3882" />
      <stop
         style="stop-color:#1a1a1c;stop-opacity:0;"
         offset="1"
         id="stop3884" />
    </linearGradient>
    <linearGradient
       id="linearGradient3790">
      <stop
         style="stop-color:#1b1c1c;stop-opacity:1;"
         offset="0"
         id="stop3792" />
      <stop
         style="stop-color:#1d2026;stop-opacity:1;"
         offset="1"
         id="stop3794" />
    </linearGradient>
    <linearGradient
       id="linearGradient5269">
      <stop
         style="stop-color:#aff1ff;stop-opacity:0.46153846;"
         offset="0"
         id="stop5271" />
      <stop
         id="stop3826"
         offset="0.25"
         style="stop-color:#a1dff8;stop-opacity:0.59607843;" />
      <stop
         id="stop3824"
         offset="0.5"
         style="stop-color:#93cdf1;stop-opacity:0.72941176;" />
      <stop
         style="stop-color:#77aae4;stop-opacity:1;"
         offset="1"
         id="stop5273" />
    </linearGradient>
    <linearGradient
       id="linearGradient5239">
      <stop
         style="stop-color:#84b1f7;stop-opacity:0"
         offset="0"
         id="stop5241" />
      <stop
         id="stop5245"
         offset="1"
         style="stop-color:#84b1f7;stop-opacity:0;" />
    </linearGradient>
    <linearGradient
       id="linearGradient3771"
       osb:paint="gradient">
      <stop
         style="stop-color:#1a1a1c;stop-opacity:1;"
         offset="0"
         id="stop3773" />
      <stop
         style="stop-color:#1a1a1c;stop-opacity:0;"
         offset="1"
         id="stop3775" />
    </linearGradient>
    <linearGradient
       inkscape:collect="always"
       xlink:href="#linearGradient10354-2"
       id="linearGradient8378"
       gradientUnits="userSpaceOnUse"
       gradientTransform="translate(-1609.9926,-78.958432)"
       x1="1205.5752"
       y1="-186.45331"
       x2="1205.5752"
       y2="-202.34555" />
    <linearGradient
       id="linearGradient10354-2"
       inkscape:collect="always">
      <stop
         id="stop10356-2"
         offset="0"
         style="stop-color:#acbbcd;stop-opacity:1" />
      <stop
         id="stop10358-2"
         offset="1"
         style="stop-color:#e8e6df;stop-opacity:1" />
    </linearGradient>
    <linearGradient
       inkscape:collect="always"
       xlink:href="#linearGradient10332-5"
       id="linearGradient8380"
       gradientUnits="userSpaceOnUse"
       gradientTransform="matrix(0.84941206,0,0,0.84794288,-623.98415,-483.16392)"
       x1="260.92538"
       y1="233.77748"
       x2="260.92538"
       y2="248.97633" />
    <linearGradient
       inkscape:collect="always"
       id="linearGradient10332-5">
      <stop
         style="stop-color:#9fcecc;stop-opacity:1"
         offset="0"
         id="stop10334-5" />
      <stop
         style="stop-color:#82e6c2;stop-opacity:1"
         offset="1"
         id="stop10336-29" />
    </linearGradient>
    <linearGradient
       inkscape:collect="always"
       xlink:href="#linearGradient5269"
       id="linearGradient5267"
       x1="-403.91309"
       y1="278.97839"
       x2="-403.96631"
       y2="284.28183"
       gradientUnits="userSpaceOnUse"
       spreadMethod="reflect" />
    <linearGradient
       inkscape:collect="always"
       xlink:href="#linearGradient5269"
       id="linearGradient5275"
       gradientUnits="userSpaceOnUse"
       spreadMethod="reflect"
       x1="-403.91309"
       y1="278.97839"
       x2="-403.96631"
       y2="284.28183" />
    <linearGradient
       inkscape:collect="always"
       xlink:href="#linearGradient5269"
       id="linearGradient3017"
       gradientUnits="userSpaceOnUse"
       spreadMethod="reflect"
       x1="-403.91309"
       y1="278.97839"
       x2="-403.96631"
       y2="284.28183"
       gradientTransform="matrix(1.1428423,0,0,1.1428423,468.66929,1363.6738)" />
    <linearGradient
       inkscape:collect="always"
       xlink:href="#linearGradient5269"
       id="linearGradient3823"
       gradientUnits="userSpaceOnUse"
       gradientTransform="matrix(1.1428423,0,0,1.1428423,468.66929,1363.6738)"
       spreadMethod="reflect"
       x1="-403.91309"
       y1="278.97839"
       x2="-403.96631"
       y2="284.28183" />
    <linearGradient
       inkscape:collect="always"
       xlink:href="#linearGradient5269"
       id="linearGradient3025"
       gradientUnits="userSpaceOnUse"
       gradientTransform="matrix(1.1428423,0,0,1.1428423,468.66929,1363.6738)"
       spreadMethod="reflect"
       x1="-403.91309"
       y1="278.97839"
       x2="-403.96631"
       y2="284.28183" />
    <linearGradient
       inkscape:collect="always"
       xlink:href="#linearGradient3790"
       id="linearGradient3027"
       gradientUnits="userSpaceOnUse"
       x1="6.2003608"
       y1="1042.582"
       x2="6.2433648"
       y2="1050.5906" />
    <linearGradient
       inkscape:collect="always"
       xlink:href="#linearGradient5269"
       id="linearGradient3029"
       gradientUnits="userSpaceOnUse"
       gradientTransform="matrix(1.1428423,0,0,1.1428423,468.66929,1363.6738)"
       spreadMethod="reflect"
       x1="-403.91309"
       y1="278.97839"
       x2="-403.96631"
       y2="284.28183" />
    <linearGradient
       inkscape:collect="always"
       xlink:href="#linearGradient3790"
       id="linearGradient3031"
       gradientUnits="userSpaceOnUse"
       x1="6.2003608"
       y1="1042.582"
       x2="6.2433648"
       y2="1050.5906" />
    <linearGradient
       inkscape:collect="always"
       xlink:href="#linearGradient5269"
       id="linearGradient3020"
       gradientUnits="userSpaceOnUse"
       gradientTransform="matrix(1.1428423,0,0,1.1428423,468.66929,1363.6738)"
       spreadMethod="reflect"
       x1="-403.91309"
       y1="278.97839"
       x2="-403.96631"
       y2="284.28183" />
    <linearGradient
       inkscape:collect="always"
       xlink:href="#linearGradient3790"
       id="linearGradient3022"
       gradientUnits="userSpaceOnUse"
       x1="6.2003608"
       y1="1042.582"
       x2="6.2433648"
       y2="1050.5906" />
    <linearGradient
       inkscape:collect="always"
       xlink:href="#linearGradient5269"
       id="linearGradient3067"
       gradientUnits="userSpaceOnUse"
       gradientTransform="matrix(1.1428423,0,0,1.1428423,470.57378,1363.6738)"
       spreadMethod="reflect"
       x1="-403.91309"
       y1="278.97839"
       x2="-403.96631"
       y2="284.28183" />
    <linearGradient
       inkscape:collect="always"
       xlink:href="#linearGradient3790"
       id="linearGradient3069"
       gradientUnits="userSpaceOnUse"
       x1="6.2003608"
       y1="1042.582"
       x2="6.2433648"
       y2="1050.5906"
       gradientTransform="translate(1.9044932,0)" />
    <linearGradient
       inkscape:collect="always"
       xlink:href="#linearGradient3790"
       id="linearGradient3023"
       gradientUnits="userSpaceOnUse"
       gradientTransform="matrix(1.0300707,0,0,1.0318549,0.81343925,-33.328044)"
       x1="6.2003608"
       y1="1042.582"
       x2="6.2433648"
       y2="1050.5906" />
    <linearGradient
       inkscape:collect="always"
       xlink:href="#linearGradient3880"
       id="linearGradient3886"
       x1="7"
       y1="1052.3622"
       x2="7"
       y2="1037.3622"
       gradientUnits="userSpaceOnUse"
       gradientTransform="matrix(1.0067172,0,0,1.0067169,-0.05373575,-7.0146132)" />
    <linearGradient
       inkscape:collect="always"
       xlink:href="#linearGradient3888"
       id="linearGradient3894"
       x1="9"
       y1="1052.3622"
       x2="9"
       y2="1037.3622"
       gradientUnits="userSpaceOnUse" />
    <linearGradient
       inkscape:collect="always"
       xlink:href="#linearGradient3836"
       id="linearGradient3834"
       x1="4"
       y1="1037.3622"
       x2="4"
       y2="1051.3622"
       gradientUnits="userSpaceOnUse" />
  </defs>
  <sodipodi:namedview
     id="base"
     pagecolor="#e8e6df"
     bordercolor="#666666"
     borderopacity="1.0"
     inkscape:pageopacity="0.0"
     inkscape:pageshadow="2"
     inkscape:zoom="35.281322"
     inkscape:cx="9.7361069"
     inkscape:cy="8.3956151"
     inkscape:document-units="px"
     inkscape:current-layer="layer1"
     showgrid="true"
     borderlayer="true"
     inkscape:showpageshadow="false"
     inkscape:window-width="1293"
     inkscape:window-height="714"
     inkscape:window-x="61"
     inkscape:window-y="24"
     inkscape:window-maximized="0">
    <inkscape:grid
       type="xygrid"
       id="grid4084"
       empspacing="5"
       visible="true"
       enabled="true"
       snapvisiblegridlinesonly="true" />
  </sodipodi:namedview>
  <metadata
     id="metadata819">
    <rdf:RDF>
      <cc:Work
         rdf:about="">
        <dc:format>image/svg+xml</dc:format>
        <dc:type
           rdf:resource="http://purl.org/dc/dcmitype/StillImage" />
        <dc:title />
      </cc:Work>
    </rdf:RDF>
  </metadata>
  <g
     inkscape:label="Layer 1"
     inkscape:groupmode="layer"
     id="layer1"
     transform="translate(0,-1036.3622)">
    <rect
       style="fill:#e8e6df;fill-opacity:0.08627451;fill-rule:nonzero;stroke:none"
       id="rect3046"
       width="14"
       height="12.54926"
       x="1"
       y="1039.813"
       rx="2.5492117"
       ry="2.5492117" />
    <rect
       ry="1.8992853"
       rx="1.8960006"
       y="1037.8627"
       x="1.5004224"
       height="12.999155"
       width="12.999156"
       id="rect6506"
       style="color:#1a1a1c;fill:url(#linearGradient3834);fill-opacity:1;fill-rule:nonzero;stroke:url(#linearGradient3023);stroke-width:1.00084459999999997;stroke-miterlimit:4;stroke-opacity:1;stroke-dasharray:none;marker:none;visibility:visible;display:inline;overflow:visible;enable-background:accumulate" />
    <path
       style="fill:none;stroke:#1a1a1c;stroke-width:1.01102995999999989px;stroke-linecap:butt;stroke-linejoin:miter;stroke-opacity:0.06666667"
       d="m 3.0110602,1038.8622 8.1774508,0"
       id="path3846"
       inkscape:connector-curvature="0" />
    <path
       style="fill:none;stroke:#1a1a1c;stroke-width:1.02691698px;stroke-linecap:butt;stroke-linejoin:miter;stroke-opacity:0.07843137"
       d="m 2.5,1049.9355 0,-10.5457"
       id="path3036"
       inkscape:connector-curvature="0" />
    <path
       style="fill:none;stroke:#1a1a1c;stroke-width:1.02691698px;stroke-linecap:butt;stroke-linejoin:miter;stroke-opacity:0.07843137"
       d="m 13.500458,1050.3622 0,-10.5457"
       id="path3036-8"
       inkscape:connector-curvature="0" />
    <path
       style="fill:none;stroke:#e8e6df;stroke-width:1.65843045999999994px;stroke-linecap:butt;stroke-linejoin:miter;stroke-opacity:0"
       d="m 3.5196031,1049.2126 8.9642849,0"
       id="path3846-3"
       inkscape:connector-curvature="0" />
    <path
       style="fill:#ff7f2a;stroke:#9fb8d5;stroke-width:2;stroke-linecap:round;stroke-linejoin:miter;stroke-opacity:1;stroke-miterlimit:4;stroke-dasharray:none"
       d="m 5,8 6,0"
       id="path3132"
       inkscape:connector-curvature="0"
       transform="translate(0,1036.3622)" />
    <path
       style="fill:#ff7f2a;fill-opacity:1"
       d="M 4.8143525,8.9738844 C 4.409835,8.8850982 4.1199306,8.5976066 4.026336,8.1924262 4.0082952,8.1143259 4.0079794,7.9167847 4.0257389,7.8188475 4.0812736,7.512592 4.2760925,7.2577127 4.5630451,7.115896 4.7869027,7.0052619 4.4388307,7.0154167 8.0071188,7.0154167 l 3.1660202,0 0.09425,0.029596 c 0.260652,0.08185 0.457253,0.2351977 0.58838,0.4589325 0.19172,0.3271208 0.174907,0.7473406 -0.04255,1.0633993 -0.09889,0.1437259 -0.288598,0.292252 -0.454046,0.3554731 -0.195292,0.074625 -0.0035,0.070687 -3.375283,0.069303 -2.536925,-0.00104 -3.106117,-0.00432 -3.1695365,-0.018236 l 0,0 z"
       id="path3043"
       inkscape:connector-curvature="0"
       transform="translate(0,1036.3622)" />
    <path
       style="fill:#ff7f2a;fill-opacity:1"
       d="M 5.5804687,8.9776334 C 4.8930533,8.9706133 4.7956743,8.9671849 4.7382457,8.9479807 4.3834904,8.8293509 4.1586681,8.5999943 4.0485037,8.2443279 4.0160265,8.1394751 4.0137016,7.9004098 4.0439038,7.7713129 4.0883763,7.5812182 4.2049092,7.3933002 4.360933,7.2600793 4.4506276,7.1834937 4.6409125,7.0754762 4.7210302,7.0556659 4.8264922,7.0295889 5.8543494,7.0196061 8.519779,7.0187717 l 2.642298,-8.272e-4 0.106642,0.036047 c 0.05865,0.019826 0.132234,0.049064 0.163515,0.064973 0.239153,0.1216301 0.422348,0.33861 0.508697,0.6025115 0.02434,0.074399 0.02826,0.1135915 0.02823,0.2822949 -3.8e-5,0.1818786 -0.0026,0.2031389 -0.03537,0.2970118 -0.07338,0.2100331 -0.196751,0.3741961 -0.378865,0.5041501 -0.112792,0.080487 -0.268398,0.1454966 -0.385329,0.1609848 -0.11418,0.015124 -4.3798204,0.024065 -5.5891293,0.011716 l 0,0 z"
       id="path3045"
       inkscape:connector-curvature="0"
       transform="translate(0,1036.3622)" />
    <path
       style="fill:#00ffff;fill-opacity:0.24636727"
       d="M 5.3067952,8.9744657 C 4.7265538,8.9641829 4.7273092,8.9643028 4.518973,8.8495572 4.3929559,8.7801505 4.2247346,8.6150534 4.1552893,8.4926275 4.0606255,8.3257435 4.0255894,8.1927525 4.0255894,8.0003089 c 0,-0.2996965 0.092775,-0.5109565 0.3136576,-0.714236 0.1430063,-0.1316096 0.3159643,-0.22182 0.4621876,-0.2410651 0.059109,-0.00778 1.5084896,-0.018498 3.2208462,-0.02382 l 3.1133752,-0.00968 0.109534,0.0358 c 0.294577,0.096279 0.505722,0.2687136 0.624795,0.5102501 0.109371,0.2218556 0.135495,0.4462867 0.07934,0.6816097 -0.02514,0.1053416 -0.115396,0.2896169 -0.179344,0.3661574 -0.134463,0.1609429 -0.374307,0.3142732 -0.55054,0.3519565 -0.09622,0.020575 -4.9287524,0.034616 -5.9126458,0.01718 l 0,0 z"
       id="path3046"
       inkscape:connector-curvature="0"
       transform="translate(0,1036.3622)" />
    <path
       style="fill:#00ffff;fill-opacity:0.24636727"
       d="M 4.996441,8.9583878 C 4.7379515,8.945305 4.684771,8.9321062 4.5305413,8.8427561 4.3154831,8.7181663 4.1363454,8.4921475 4.0662235,8.2569245 4.0275617,8.1272337 4.0306051,7.8493791 4.0721507,7.7157941 4.1621639,7.4263676 4.4347121,7.1579518 4.7258758,7.071981 4.8045546,7.0487499 5.1333619,7.0445576 7.9755491,7.0305483 l 3.1621379,-0.015586 0.105576,0.039739 c 0.05807,0.021856 0.154186,0.065282 0.213597,0.096502 0.569474,0.2992498 0.685479,1.0900658 0.223791,1.5255988 -0.11701,0.1103811 -0.277742,0.2121851 -0.405506,0.2568373 -0.07448,0.026029 -0.270846,0.028088 -3.0637526,0.03212 -1.6412964,0.00237 -3.0880245,-9.47e-4 -3.2149514,-0.00737 z"
       id="path3048"
       inkscape:connector-curvature="0"
       transform="translate(0,1036.3622)" />
    <path
       style="fill:#00ffff;fill-opacity:0.24636727"
       d="M 4.8452428,8.9402882 C 4.5431811,8.9078966 4.229279,8.6513763 4.1045842,8.335023 4.055811,8.2112844 4.0374635,8.0286529 4.0571847,7.8632078 4.0957391,7.5397683 4.3597312,7.213694 4.678129,7.0962378 4.7756749,7.0602534 5.5252859,7.0475929 8.3785062,7.0337404 l 2.7533988,-0.013368 0.151198,0.062945 c 0.2098,0.087341 0.278655,0.1306306 0.397966,0.250201 0.114389,0.1146379 0.20589,0.2769942 0.246478,0.4373452 0.03037,0.1199687 0.03063,0.3563033 5.3e-4,0.4694236 -0.07403,0.2781763 -0.284036,0.511653 -0.590965,0.6570079 l -0.109713,0.051958 -3.1274159,0.00234 c -1.7200785,0.00129 -3.1847117,-0.0038 -3.2547403,-0.011309 l 0,0 z"
       id="path3050"
       inkscape:connector-curvature="0"
       transform="translate(0,1036.3622)" />
    <path
       style="fill:#00ffff;fill-opacity:0.24636727"
       d="M 4.8213694,8.9303001 C 4.4787589,8.8729484 4.1270397,8.5228537 4.0729165,8.1853043 4.0363824,7.9574523 4.059487,7.792088 4.1561344,7.5896972 4.2388341,7.4165145 4.4071002,7.2431223 4.5800956,7.1528203 L 4.6969229,7.0918375 5.0177747,7.0786233 C 5.4089152,7.0625143 9.960853,7.0266185 10.670353,7.034048 l 0.509299,0.00533 0.190987,0.093413 c 0.161596,0.079037 0.207076,0.1099975 0.295532,0.2011836 0.113136,0.1166283 0.202363,0.2689666 0.24598,0.419965 0.02116,0.073244 0.02572,0.1383994 0.02079,0.2967134 -0.0062,0.2005649 -0.0071,0.2043655 -0.07243,0.3358683 -0.109137,0.2195842 -0.290599,0.3927106 -0.530645,0.5062706 l -0.102469,0.048476 -3.1831205,-0.00215 c -1.750716,-0.00119 -3.2010252,-0.00515 -3.2229091,-0.00882 z"
       id="path3052"
       inkscape:connector-curvature="0"
       transform="translate(0,1036.3622)" />
    <path
       style="fill:#00ffff;fill-opacity:0.24636727"
       d="M 6.8108195,8.9255571 4.7656648,8.917422 4.6795576,8.8821719 C 4.4206296,8.7761734 4.1825034,8.5247149 4.1036197,8.2739881 4.0538872,8.1159164 4.0573559,7.888378 4.1119785,7.7256599 4.1999665,7.4635484 4.3784341,7.2630234 4.6438505,7.1280522 c 0.06685,-0.033995 0.093034,-0.035666 0.7798644,-0.049752 0.3908803,-0.00802 1.8464654,-0.019418 3.2346334,-0.025337 l 2.5239417,-0.010761 0.179967,0.094083 c 0.213497,0.1116115 0.306123,0.1901535 0.413393,0.3505364 0.11532,0.1724178 0.144163,0.2802076 0.143699,0.537024 -3.29e-4,0.1822207 -0.0052,0.2208499 -0.03751,0.2994838 -0.08765,0.2130991 -0.267854,0.402383 -0.512149,0.5379506 l -0.144188,0.080015 -1.184764,-0.0038 C 9.3891183,8.9354029 7.9356546,8.9300314 6.8108195,8.9255571 z"
       id="path3054"
       inkscape:connector-curvature="0"
       transform="translate(0,1036.3622)" />
    <path
       style="fill:#00ffff;fill-opacity:0.24636727"
       d="M 7.7496209,8.9241377 4.7652268,8.9123883 4.6720102,8.8711636 C 4.4575918,8.7763376 4.2549011,8.5829336 4.1563815,8.3791594 4.0329669,8.1238934 4.0546398,7.7927876 4.2121763,7.5267613 4.2864999,7.4012537 4.4667136,7.2303008 4.5990549,7.1597636 L 4.698603,7.106705 5.0902349,7.0940756 c 0.2153976,-0.00695 1.6702211,-0.02121 3.232941,-0.031698 l 2.8413091,-0.019069 0.118503,0.059677 c 0.269996,0.1359683 0.385478,0.2314866 0.504146,0.4169948 0.09658,0.1509753 0.119398,0.2487225 0.119623,0.5123787 l 1.94e-4,0.2290287 -0.06124,0.1211145 c -0.09748,0.1927906 -0.314144,0.3934184 -0.558098,0.5168013 -0.07953,0.040221 -0.09295,0.041878 -0.318312,0.039288 -0.129406,-0.00149 -1.5782616,-0.00799 -3.2196784,-0.014453 l 3e-7,0 z"
       id="path3056"
       inkscape:connector-curvature="0"
       transform="translate(0,1036.3622)" />
    <path
       style="fill:#00ffff;fill-opacity:0.24636727"
       d="M 6.0707441,8.9096868 4.7338336,8.9015064 4.6540212,8.8593679 C 4.5281244,8.7928981 4.3797376,8.6741483 4.2943206,8.5715094 4.1497098,8.3977418 4.0892518,8.2347476 4.0892518,8.0186457 c 0,-0.1597876 0.028786,-0.2858818 0.098204,-0.4301764 C 4.2520907,7.4541178 4.4676263,7.2371137 4.6123656,7.1606646 L 4.7137161,7.1071328 5.79012,7.0937701 c 0.5920223,-0.00735 2.0412643,-0.021005 3.2205381,-0.030346 l 2.1441339,-0.016983 0.115391,0.05811 c 0.264131,0.1330143 0.396835,0.2427976 0.511007,0.4227454 0.09062,0.1428265 0.109028,0.2182838 0.118354,0.4851445 l 0.0084,0.2409431 -0.06176,0.1171579 c -0.08422,0.1597608 -0.285393,0.359322 -0.475091,0.47128 l -0.141575,0.083557 -1.9109424,-0.00376 C 8.2675784,8.9195575 6.8060448,8.914186 6.0707441,8.9096868 z"
       id="path3058"
       inkscape:connector-curvature="0"
       transform="translate(0,1036.3622)" />
    <path
       style="fill:#00ffff;fill-opacity:0.24636727"
       d="M 7.2166673,8.9094355 4.7497492,8.8994423 4.6628727,8.8547562 C 4.3938832,8.7163976 4.1768177,8.4645638 4.1201417,8.2250933 4.0936101,8.1129909 4.0935805,7.9076739 4.1200796,7.7953721 4.17465,7.5641063 4.3654951,7.3171931 4.5963544,7.1791732 l 0.1122529,-0.067111 1.5564265,-0.016772 c 0.8560344,-0.00922 2.3041244,-0.023345 3.2179775,-0.031379 l 1.6615507,-0.014607 0.113039,0.056856 c 0.258752,0.1301466 0.396247,0.2429142 0.510442,0.4186458 0.09351,0.1438971 0.103496,0.1815134 0.123043,0.4634319 l 0.01724,0.2485712 -0.06194,0.1162931 c -0.0837,0.1571572 -0.273613,0.3502282 -0.467326,0.4751041 l -0.150739,0.097173 -0.772366,-0.00298 C 10.03115,8.9207676 8.5734723,8.9149316 7.2166673,8.9094355 z"
       id="path3060"
       inkscape:connector-curvature="0"
       transform="translate(0,1036.3622)" />
    <path
       style="fill:#008080;fill-opacity:0.24636727"
       d="M 2.9959967,13.928413 C 2.782745,13.859242 2.6342844,13.778768 2.4999835,13.659547 l -0.1133744,-0.100645 0.3002325,-0.0012 0.3002325,-0.0012 0.018546,-0.488927 c 0.010201,-0.26891 0.018585,-1.12347 0.018633,-1.899022 l 8.67e-5,-1.4100948 4.9701213,0 4.9701214,0 0.02083,2.0722788 c 0.01543,1.53493 0.01247,2.080637 -0.0114,2.104513 -0.02379,0.02379 -1.314567,0.03373 -4.9271756,0.03796 -4.6292192,0.0054 -4.9034064,0.003 -5.0508337,-0.04484 z"
       id="path3053"
       inkscape:connector-curvature="0"
       transform="translate(0,1036.3622)" />
    <path
       style="fill:#008080;fill-opacity:0.24636727"
       d="m 2.0859031,13.053444 -0.067761,-0.19132 -0.00794,-2.132856 -0.00794,-2.1328568 0.4933489,0 0.4933489,0 0.021129,-2.3383477 0.021129,-2.3383478 4.9674314,0 4.9674313,0 0.02113,2.3383478 0.02113,2.3383477 0.492491,0 0.492492,0 0,2.0510428 c 0,2.056643 -0.007,2.223236 -0.103546,2.476849 l -0.04587,0.12046 -0.421303,0 -0.421303,0 0,-0.788956 c 0,-0.433926 -0.0085,-1.479805 -0.01881,-2.324176 l -0.01881,-1.5352198 -0.562235,0 c -0.309229,0 -0.562234,-0.00992 -0.562234,-0.022037 0,-0.01212 0.02055,-0.051372 0.04566,-0.087225 0.06207,-0.088614 0.123728,-0.3307932 0.123728,-0.4859535 0,-0.4201183 -0.264643,-0.798749 -0.665401,-0.9520034 -0.136537,-0.052213 -0.259348,-0.054195 -3.3587181,-0.054195 l -3.2169996,0 -0.1621162,0.076005 c -0.2271524,0.106496 -0.4228875,0.2989111 -0.5214136,0.5125695 -0.069444,0.1505916 -0.081504,0.2123038 -0.081616,0.4176235 -1.105e-4,0.203756 0.011892,0.2665898 0.077813,0.4073215 0.04287,0.091521 0.077945,0.1712371 0.077945,0.1771475 0,0.00591 -0.253527,0.010747 -0.5633934,0.010747 l -0.5633933,0 -0.02113,2.3241758 -0.021129,2.324176 -0.4176875,0 -0.4176876,0 -0.067761,-0.191319 0,0 z"
       id="path3055"
       inkscape:connector-curvature="0"
       transform="translate(0,1036.3622)" />
    <path
       style="fill:#008080;fill-opacity:0.24636727"
       d="m 2.0039704,6.2580635 0,-2.3383478 0.4960131,0 0.4960132,0 0,-0.4393259 0,-0.4393259 -0.4695796,0 -0.4695795,0 0.019778,-0.063773 C 2.1306454,2.8030764 2.2817411,2.560412 2.425174,2.4174953 2.5713733,2.271822 2.892195,2.0773812 2.986352,2.0773812 c 0.030172,0 0.037988,0.093304 0.037988,0.4534977 l 0,0.4534977 4.0814797,0 4.08148,0 0,-0.4818413 0,-0.4818414 0.818979,0 c 0.929523,0 1.03631,0.017512 1.352329,0.2217645 0.376673,0.2434554 0.634709,0.7085135 0.634709,1.1439343 l 0,0.079825 -0.496013,0 -0.496013,0 0,0.2267489 0,0.2267488 0.496013,0 0.496013,0 0,2.3383478 0,2.3383477 -0.477433,0 -0.477432,0 -0.01848,-0.4038964 C 13.009813,7.9703717 13.001451,7.3028316 13.001394,6.7090922 13.001338,6.1153531 12.992857,5.24485 12.982548,4.774641 l -0.01874,-0.8549253 -4.9651623,0 -4.9651623,0 -0.018742,0.8549253 c -0.010308,0.470209 -0.018789,1.3407121 -0.018846,1.9344512 -5.67e-5,0.5937394 -0.00842,1.2612795 -0.018581,1.4834226 l -0.018477,0.4038964 -0.4774325,0 -0.4774324,0 0,-2.3383477 z"
       id="path3057"
       inkscape:connector-curvature="0"
       transform="translate(0,1036.3622)" />
    <path
       style="fill:#008080;fill-opacity:0.24636727"
       d="m 3.0185765,2.5195497 -0.00841,-0.4648269 0.1244163,-0.017014 c 0.068429,-0.00936 1.9082835,-0.017015 4.0885655,-0.017015 l 3.9641497,0 0,0.4818414 0,0.4818413 -4.0801578,0 -4.0801577,0 -0.00841,-0.4648269 z"
       id="path3059"
       inkscape:connector-curvature="0"
       transform="translate(0,1036.3622)" />
    <path
       style="fill:#008080;fill-opacity:0.24636727"
       d="m 2.011125,3.5299911 c 0.0083,-0.2143485 0.024199,-0.4120452 0.03534,-0.4393259 0.018132,-0.044398 0.068995,-0.049601 0.4848942,-0.049601 l 0.4646371,0 0,0.4393259 0,0.4393259 -0.4999775,0 -0.4999775,0 0.015083,-0.3897246 z"
       id="path3061"
       inkscape:connector-curvature="0"
       transform="translate(0,1036.3622)" />
    <path
       style="fill:#008080;fill-opacity:0.24636727"
       d="m 13.001291,3.6929669 0,-0.2267489 0.496013,0 0.496013,0 0,0.2267489 0,0.2267488 -0.496013,0 -0.496013,0 0,-0.2267488 z"
       id="path3063"
       inkscape:connector-curvature="0"
       transform="translate(0,1036.3622)" />
    <path
       style="fill:#008080;fill-opacity:0.24636727"
       d="m 3.024487,9.4538054 c 8.07e-5,-0.1675816 0.00838,-0.4290514 0.018447,-0.581044 l 0.0183,-0.2763502 0.552572,0 0.552572,0 0.1384312,0.1294861 c 0.076137,0.071217 0.2113834,0.1636884 0.3005472,0.2054912 l 0.1621162,0.076005 3.2311714,0 3.2311713,0 0.162116,-0.076005 c 0.08916,-0.041803 0.22441,-0.1342738 0.300548,-0.2054912 l 0.138431,-0.1294861 0.552516,0 0.552516,0 0.01837,0.3188656 c 0.0101,0.1753761 0.01843,0.4368459 0.0185,0.581044 l 1.29e-4,0.2621784 -4.9743033,0 -4.9743034,0 1.467e-4,-0.3046938 z"
       id="path3065"
       inkscape:connector-curvature="0"
       transform="translate(0,1036.3622)" />
    <path
       style="fill:#008080;fill-opacity:0.24636727"
       d="m 13.001291,13.586796 0,-0.342033 0.41171,0 0.41171,0 -0.04718,0.09123 c -0.104622,0.202318 -0.477469,0.502462 -0.712468,0.573543 -0.06368,0.01926 -0.06377,0.01878 -0.06377,-0.322744 z"
       id="path3067"
       inkscape:connector-curvature="0"
       transform="translate(0,1036.3622)" />
    <path
       style="fill:#008080;fill-opacity:0.24636727"
       d="m 12.973716,13.988783 c 4.24e-4,-0.01169 0.105533,-0.07087 0.233578,-0.131511 0.294417,-0.139429 0.514945,-0.355628 0.644213,-0.631567 0.04986,-0.106436 0.101853,-0.215164 0.115536,-0.241619 0.01368,-0.02646 0.02535,-1.007652 0.02592,-2.180438 5.72e-4,-1.1727858 0.0073,-2.1385614 0.01487,-2.1461677 0.0076,-0.00761 0.01383,0.3358595 0.01382,0.7632575 l -10e-6,0.7770872 0.483544,-0.01 0.483544,-0.01 -0.01028,1.412986 c -0.01,1.368485 -0.01229,1.41968 -0.07414,1.625562 -0.03512,0.116918 -0.10329,0.298671 -0.151494,0.403897 l -0.08764,0.191319 -0.321756,0 -0.321755,0 0,0.0992 0,0.0992 -0.524357,0 c -0.288396,0 -0.524011,-0.0096 -0.523588,-0.02126 z"
       id="path3069"
       inkscape:connector-curvature="0"
       transform="translate(0,1036.3622)" />
    <path
       style="fill:#008080;fill-opacity:0.24636727"
       d="m 1.0182539,6.1659467 0.00795,-3.1673982 0.078247,-0.2496354 C 1.3311904,2.0255463 1.8119504,1.4852336 2.4805212,1.2023903 2.951902,1.0029695 2.6142632,1.0144958 7.9844719,1.0144958 c 5.1803081,0 4.9998291,-0.00477 5.4235111,0.1432581 0.646295,0.2258021 1.208342,0.7912215 1.437222,1.4458444 0.141164,0.4037479 0.140138,0.3771822 0.140138,3.628615 l 0,3.0444445 -0.477222,0 -0.477223,0 -0.01876,-1.2542047 c -0.01032,-0.6898126 -0.01877,-2.0659685 -0.01879,-3.058124 -2.9e-5,-1.7265675 -0.0025,-1.811826 -0.05698,-1.9883024 C 13.868857,2.7574541 13.695468,2.4871526 13.530702,2.3436223 13.380277,2.2125851 13.060639,2.0584136 12.861618,2.0209022 c -0.19524,-0.036799 -9.8656213,-0.039166 -9.8656213,-0.00241 0,0.013864 -0.079716,0.062745 -0.1771476,0.1086255 -0.097431,0.04588 -0.2424446,0.1353455 -0.3222522,0.1988118 -0.1581363,0.1257567 -0.3616605,0.41203 -0.4127076,0.580507 -0.017713,0.058459 -0.046129,0.1062866 -0.063148,0.1062841 -0.022222,-3.1e-6 -0.02882,0.8907338 -0.02341,3.1603123 l 0.00753,3.1603169 -0.4972821,0 -0.4972821,0 0.00795,-3.1673983 z"
       id="path3071"
       inkscape:connector-curvature="0"
       transform="translate(0,1036.3622)" />
    <path
       style="fill:#008080;fill-opacity:0.24636727"
       d="m 14.021661,9.7301556 0,-0.4534978 0.481841,0 0.481841,0 0,0.4356174 0,0.4356178 -0.106288,0.01757 c -0.05846,0.0097 -0.275288,0.01771 -0.481842,0.01788 l -0.375552,3.12e-4 0,-0.4534974 z"
       id="path3073"
       inkscape:connector-curvature="0"
       transform="translate(0,1036.3622)" />
    <path
       style="fill:#008080;fill-opacity:0.24636727"
       d="m 1.0119441,10.254512 0,-0.921167 0.4960131,0 0.4960132,0 0,0.921167 0,0.921168 -0.4960132,0 -0.4960131,0 0,-0.921168 z"
       id="path3075"
       inkscape:connector-curvature="0"
       transform="translate(0,1036.3622)" />
    <path
       style="fill:#008080;fill-opacity:0.24636727"
       d="m 1.3639249,13.837087 c -0.1258894,-0.19819 -0.2408694,-0.496898 -0.298209,-0.774721 -0.044553,-0.215871 -0.053087,-0.387149 -0.0534,-1.071808 l -3.723e-4,-0.814878 0.4989061,0 0.4989061,0 -0.00622,0.82905 c -0.00342,0.455978 -0.00402,0.841805 -0.00133,0.857394 0.00269,0.01559 0.00353,0.178211 0.00187,0.361381 l -0.00303,0.333038 0.1742609,0 c 0.1626155,0 0.1827725,0.0075 0.3016295,0.112114 0.070053,0.06166 0.1924945,0.144568 0.2720928,0.184234 l 0.1447242,0.07212 -0.3837539,0 c -0.2110646,0 -0.5374603,0.0083 -0.7253238,0.01837 l -0.34157,0.01837 -0.07918,-0.124655 0,0 z"
       id="path3077"
       inkscape:connector-curvature="0"
       transform="translate(0,1036.3622)" />
    <path
       style="fill:#008080;fill-opacity:0.24636727"
       d="m 2.3093608,13.464426 c -0.038393,-0.05066 -0.084996,-0.120815 -0.1035639,-0.15589 l -0.033759,-0.06377 0.4119795,0 c 0.4582381,0 0.4301736,-0.01465 0.3937873,0.205491 l -0.017568,0.106289 -0.2905353,0 -0.2905353,0 -0.069805,-0.09212 z"
       id="path3079"
       inkscape:connector-curvature="0"
       transform="translate(0,1036.3622)" />
    <path
       style="fill:#008080;fill-opacity:0.24636727"
       d="m 2.0054472,13.223505 0.00148,-0.333037 0.066054,0.177809 c 0.036329,0.09779 0.1026267,0.231477 0.1473272,0.297071 0.0447,0.06559 0.091473,0.135446 0.1039396,0.155228 0.01739,0.02759 -0.017249,0.03597 -0.148804,0.03597 l -0.17147,0 0.00148,-0.333038 z"
       id="path3081"
       inkscape:connector-curvature="0"
       transform="translate(0,1036.3622)" />
    <path
       style="fill:#008080;fill-opacity:0.24636727"
       d="M 2.8967941,14.93195 C 2.3975426,14.821172 1.9176885,14.531401 1.5854226,14.140047 c -0.084804,-0.09988 -0.1098183,-0.14749 -0.084726,-0.161241 0.069698,-0.0382 1.4717692,-0.0418 1.6338009,-0.0042 0.1189681,0.02761 1.1983386,0.03528 4.8892725,0.03475 2.60513,-3.72e-4 4.78443,-0.01178 4.842889,-0.02536 0.06201,-0.0144 0.106288,-0.01412 0.106288,6.76e-4 0,0.014 0.234828,0.02536 0.524357,0.02536 l 0.524357,0 0,-0.0992 0,-0.0992 0.312507,0 0.312508,0 -0.04111,0.07794 c -0.08775,0.166365 -0.3856,0.475998 -0.640869,0.66623 -0.135806,0.101205 -0.454542,0.255831 -0.694138,0.336741 l -0.198405,0.067 -5.0026473,0.0051 c -4.0754159,0.0041 -5.0341676,-0.0019 -5.1727086,-0.03267 z"
       id="path3083"
       inkscape:connector-curvature="0"
       transform="translate(0,1036.3622)" />
  </g>
</svg>
