<?xml version="1.0" encoding="UTF-8" standalone="no"?>
<!-- Created with Inkscape (http://www.inkscape.org/) -->

<svg
   xmlns:osb="http://www.openswatchbook.org/uri/2009/osb"
   xmlns:dc="http://purl.org/dc/elements/1.1/"
   xmlns:cc="http://creativecommons.org/ns#"
   xmlns:rdf="http://www.w3.org/1999/02/22-rdf-syntax-ns#"
   xmlns:svg="http://www.w3.org/2000/svg"
   xmlns="http://www.w3.org/2000/svg"
   xmlns:xlink="http://www.w3.org/1999/xlink"
   xmlns:sodipodi="http://sodipodi.sourceforge.net/DTD/sodipodi-0.dtd"
   xmlns:inkscape="http://www.inkscape.org/namespaces/inkscape"
   width="16"
   height="16"
   id="svg814"
   version="1.1"
   inkscape:version="0.48.3.1 r9886"
   sodipodi:docname="checkbox-checked.svg">
  <defs
     id="defs816">
    <linearGradient
       id="linearGradient3836">
      <stop
         style="stop-color:#1d2026;stop-opacity:1;"
         offset="0"
         id="stop3840" />
      <stop
         style="stop-color:#323947;stop-opacity:1;"
         offset="1"
         id="stop3842" />
    </linearGradient>
    <linearGradient
       id="linearGradient3828">
      <stop
         style="stop-color:#1a1a1c;stop-opacity:1;"
         offset="0"
         id="stop3830" />
      <stop
         style="stop-color:#1a1a1c;stop-opacity:0;"
         offset="1"
         id="stop3832" />
    </linearGradient>
    <linearGradient
       id="linearGradient3799">
      <stop
         style="stop-color:#1a1a1c;stop-opacity:1;"
         offset="0"
         id="stop3801" />
      <stop
         style="stop-color:#1a1a1c;stop-opacity:0.1882353;"
         offset="1"
         id="stop3803" />
    </linearGradient>
    <linearGradient
       id="linearGradient3888">
      <stop
         style="stop-color:#060000;stop-opacity:0;"
         offset="0"
         id="stop3890" />
      <stop
         style="stop-color:#060000;stop-opacity:0;"
         offset="1"
         id="stop3892" />
    </linearGradient>
    <linearGradient
       id="linearGradient3880">
      <stop
         style="stop-color:#1a1a1c;stop-opacity:0.76923078;"
         offset="0"
         id="stop3882" />
      <stop
         style="stop-color:#1a1a1c;stop-opacity:0;"
         offset="1"
         id="stop3884" />
    </linearGradient>
    <linearGradient
       id="linearGradient3790">
      <stop
         style="stop-color:#1b1c1c;stop-opacity:1;"
         offset="0"
         id="stop3792" />
      <stop
         style="stop-color:#1d2026;stop-opacity:1;"
         offset="1"
         id="stop3794" />
    </linearGradient>
    <linearGradient
       id="linearGradient5269">
      <stop
         style="stop-color:#aff1ff;stop-opacity:0.46153846;"
         offset="0"
         id="stop5271" />
      <stop
         id="stop3826"
         offset="0.25"
         style="stop-color:#a1dff8;stop-opacity:0.59607843;" />
      <stop
         id="stop3824"
         offset="0.5"
         style="stop-color:#93cdf1;stop-opacity:0.72941176;" />
      <stop
         style="stop-color:#77aae4;stop-opacity:1;"
         offset="1"
         id="stop5273" />
    </linearGradient>
    <linearGradient
       id="linearGradient5239">
      <stop
         style="stop-color:#84b1f7;stop-opacity:0"
         offset="0"
         id="stop5241" />
      <stop
         id="stop5245"
         offset="1"
         style="stop-color:#84b1f7;stop-opacity:0;" />
    </linearGradient>
    <linearGradient
       id="linearGradient3771"
       osb:paint="gradient">
      <stop
         style="stop-color:#1a1a1c;stop-opacity:1;"
         offset="0"
         id="stop3773" />
      <stop
         style="stop-color:#1a1a1c;stop-opacity:0;"
         offset="1"
         id="stop3775" />
    </linearGradient>
    <linearGradient
       inkscape:collect="always"
       xlink:href="#linearGradient10354-2"
       id="linearGradient8378"
       gradientUnits="userSpaceOnUse"
       gradientTransform="translate(-1609.9926,-78.958432)"
       x1="1205.5752"
       y1="-186.45331"
       x2="1205.5752"
       y2="-202.34555" />
    <linearGradient
       id="linearGradient10354-2"
       inkscape:collect="always">
      <stop
         id="stop10356-2"
         offset="0"
         style="stop-color:#acbbcd;stop-opacity:1" />
      <stop
         id="stop10358-2"
         offset="1"
         style="stop-color:#e8e6df;stop-opacity:1" />
    </linearGradient>
    <linearGradient
       inkscape:collect="always"
       xlink:href="#linearGradient10332-5"
       id="linearGradient8380"
       gradientUnits="userSpaceOnUse"
       gradientTransform="matrix(0.84941206,0,0,0.84794288,-623.98415,-483.16392)"
       x1="260.92538"
       y1="233.77748"
       x2="260.92538"
       y2="248.97633" />
    <linearGradient
       inkscape:collect="always"
       id="linearGradient10332-5">
      <stop
         style="stop-color:#9fcecc;stop-opacity:1"
         offset="0"
         id="stop10334-5" />
      <stop
         style="stop-color:#82e6c2;stop-opacity:1"
         offset="1"
         id="stop10336-29" />
    </linearGradient>
    <linearGradient
       inkscape:collect="always"
       xlink:href="#linearGradient5269"
       id="linearGradient5267"
       x1="-403.91309"
       y1="278.97839"
       x2="-403.96631"
       y2="284.28183"
       gradientUnits="userSpaceOnUse"
       spreadMethod="reflect" />
    <linearGradient
       inkscape:collect="always"
       xlink:href="#linearGradient5269"
       id="linearGradient5275"
       gradientUnits="userSpaceOnUse"
       spreadMethod="reflect"
       x1="-403.91309"
       y1="278.97839"
       x2="-403.96631"
       y2="284.28183" />
    <linearGradient
       inkscape:collect="always"
       xlink:href="#linearGradient5269"
       id="linearGradient3017"
       gradientUnits="userSpaceOnUse"
       spreadMethod="reflect"
       x1="-403.91309"
       y1="278.97839"
       x2="-403.96631"
       y2="284.28183"
       gradientTransform="matrix(1.1428423,0,0,1.1428423,468.66929,1363.6738)" />
    <linearGradient
       inkscape:collect="always"
       xlink:href="#linearGradient5269"
       id="linearGradient3823"
       gradientUnits="userSpaceOnUse"
       gradientTransform="matrix(1.1428423,0,0,1.1428423,468.66929,1363.6738)"
       spreadMethod="reflect"
       x1="-403.91309"
       y1="278.97839"
       x2="-403.96631"
       y2="284.28183" />
    <linearGradient
       inkscape:collect="always"
       xlink:href="#linearGradient5269"
       id="linearGradient3025"
       gradientUnits="userSpaceOnUse"
       gradientTransform="matrix(1.1428423,0,0,1.1428423,468.66929,1363.6738)"
       spreadMethod="reflect"
       x1="-403.91309"
       y1="278.97839"
       x2="-403.96631"
       y2="284.28183" />
    <linearGradient
       inkscape:collect="always"
       xlink:href="#linearGradient3790"
       id="linearGradient3027"
       gradientUnits="userSpaceOnUse"
       x1="6.2003608"
       y1="1042.582"
       x2="6.2433648"
       y2="1050.5906" />
    <linearGradient
       inkscape:collect="always"
       xlink:href="#linearGradient5269"
       id="linearGradient3029"
       gradientUnits="userSpaceOnUse"
       gradientTransform="matrix(1.1428423,0,0,1.1428423,468.66929,1363.6738)"
       spreadMethod="reflect"
       x1="-403.91309"
       y1="278.97839"
       x2="-403.96631"
       y2="284.28183" />
    <linearGradient
       inkscape:collect="always"
       xlink:href="#linearGradient3790"
       id="linearGradient3031"
       gradientUnits="userSpaceOnUse"
       x1="6.2003608"
       y1="1042.582"
       x2="6.2433648"
       y2="1050.5906" />
    <linearGradient
       inkscape:collect="always"
       xlink:href="#linearGradient5269"
       id="linearGradient3020"
       gradientUnits="userSpaceOnUse"
       gradientTransform="matrix(1.1428423,0,0,1.1428423,468.66929,1363.6738)"
       spreadMethod="reflect"
       x1="-403.91309"
       y1="278.97839"
       x2="-403.96631"
       y2="284.28183" />
    <linearGradient
       inkscape:collect="always"
       xlink:href="#linearGradient3790"
       id="linearGradient3022"
       gradientUnits="userSpaceOnUse"
       x1="6.2003608"
       y1="1042.582"
       x2="6.2433648"
       y2="1050.5906" />
    <linearGradient
       inkscape:collect="always"
       xlink:href="#linearGradient5269"
       id="linearGradient3067"
       gradientUnits="userSpaceOnUse"
       gradientTransform="matrix(1.1428423,0,0,1.1428423,470.57378,1363.6738)"
       spreadMethod="reflect"
       x1="-403.91309"
       y1="278.97839"
       x2="-403.96631"
       y2="284.28183" />
    <linearGradient
       inkscape:collect="always"
       xlink:href="#linearGradient3790"
       id="linearGradient3069"
       gradientUnits="userSpaceOnUse"
       x1="6.2003608"
       y1="1042.582"
       x2="6.2433648"
       y2="1050.5906"
       gradientTransform="translate(1.9044932,0)" />
    <linearGradient
       inkscape:collect="always"
       xlink:href="#linearGradient3790"
       id="linearGradient3023"
       gradientUnits="userSpaceOnUse"
       gradientTransform="matrix(1.0300707,0,0,1.0318549,0.81343925,-33.328044)"
       x1="6.2003608"
       y1="1042.582"
       x2="6.2433648"
       y2="1050.5906" />
    <linearGradient
       inkscape:collect="always"
       xlink:href="#linearGradient3880"
       id="linearGradient3886"
       x1="7"
       y1="1052.3622"
       x2="7"
       y2="1037.3622"
       gradientUnits="userSpaceOnUse"
       gradientTransform="matrix(1.0067172,0,0,1.0067169,-0.05373575,-7.0146132)" />
    <linearGradient
       inkscape:collect="always"
       xlink:href="#linearGradient3888"
       id="linearGradient3894"
       x1="9"
       y1="1052.3622"
       x2="9"
       y2="1037.3622"
       gradientUnits="userSpaceOnUse" />
    <linearGradient
       inkscape:collect="always"
       xlink:href="#linearGradient3836"
       id="linearGradient3834"
       x1="4"
       y1="1037.3622"
       x2="4"
       y2="1051.3622"
       gradientUnits="userSpaceOnUse" />
  </defs>
  <sodipodi:namedview
     id="base"
     pagecolor="#e8e6df"
     bordercolor="#666666"
     borderopacity="1.0"
     inkscape:pageopacity="0.0"
     inkscape:pageshadow="2"
     inkscape:zoom="35.281323"
     inkscape:cx="3.349613"
     inkscape:cy="8.3956151"
     inkscape:document-units="px"
     inkscape:current-layer="layer1"
     showgrid="true"
     borderlayer="true"
     inkscape:showpageshadow="false"
     inkscape:window-width="1293"
     inkscape:window-height="714"
     inkscape:window-x="38"
     inkscape:window-y="24"
     inkscape:window-maximized="0">
    <inkscape:grid
       type="xygrid"
       id="grid4084"
       empspacing="5"
       visible="true"
       enabled="true"
       snapvisiblegridlinesonly="true" />
  </sodipodi:namedview>
  <metadata
     id="metadata819">
    <rdf:RDF>
      <cc:Work
         rdf:about="">
        <dc:format>image/svg+xml</dc:format>
        <dc:type
           rdf:resource="http://purl.org/dc/dcmitype/StillImage" />
        <dc:title />
      </cc:Work>
    </rdf:RDF>
  </metadata>
  <g
     inkscape:label="Layer 1"
     inkscape:groupmode="layer"
     id="layer1"
     transform="translate(0,-1036.3622)">
    <rect
       style="fill:#e8e6df;fill-opacity:0.08627451;fill-rule:nonzero;stroke:none"
       id="rect3046"
       width="14"
       height="12.54926"
       x="1"
       y="1039.813"
       rx="2.5492117"
       ry="2.5492117" />
    <rect
       ry="1.8992853"
       rx="1.8960006"
       y="1037.8627"
       x="1.5004224"
       height="12.999155"
       width="12.999156"
       id="rect6506"
       style="color:#1a1a1c;fill:url(#linearGradient3834);fill-opacity:1;fill-rule:nonzero;stroke:url(#linearGradient3023);stroke-width:1.00084459999999997;stroke-miterlimit:4;stroke-opacity:1;stroke-dasharray:none;marker:none;visibility:visible;display:inline;overflow:visible;enable-background:accumulate" />
    <path
       style="fill:none;stroke:#a9bdd5;stroke-width:1.18779086999999994px;stroke-linecap:butt;stroke-linejoin:miter;stroke-opacity:1"
       d="M 14.533916,1036.2494 8,1045.3622 l -3.148876,-3.398"
       id="path3807"
       inkscape:connector-curvature="0" />
    <path
       style="fill:none;stroke:#9fb8d5;stroke-width:1.20874452999999993px;stroke-linecap:butt;stroke-linejoin:miter;stroke-opacity:1"
       d="m 15.251757,1036.5641 -7.1426434,10.1066 -4.0030205,-4.3314"
       id="path3809"
       inkscape:connector-curvature="0" />
    <path
       style="fill:none;stroke:#1a1a1c;stroke-width:1.01102995999999989px;stroke-linecap:butt;stroke-linejoin:miter;stroke-opacity:0.06666667"
       d="m 3.0110602,1038.8622 8.1774508,0"
       id="path3846"
       inkscape:connector-curvature="0" />
    <path
       style="fill:none;stroke:#1a1a1c;stroke-width:1.02691698px;stroke-linecap:butt;stroke-linejoin:miter;stroke-opacity:0.07843137"
       d="m 2.5,1049.9355 0,-10.5457"
       id="path3036"
       inkscape:connector-curvature="0" />
    <path
       style="fill:none;stroke:#1a1a1c;stroke-width:1.02691698px;stroke-linecap:butt;stroke-linejoin:miter;stroke-opacity:0.07843137"
       d="m 13.500458,1050.3622 0,-10.5457"
       id="path3036-8"
       inkscape:connector-curvature="0" />
    <path
       style="fill:none;stroke:#e8e6df;stroke-width:1.65843045999999994px;stroke-linecap:butt;stroke-linejoin:miter;stroke-opacity:0"
       d="m 3.5196031,1049.2126 8.9642849,0"
       id="path3846-3"
       inkscape:connector-curvature="0" />
    <path
       style="fill:#ff6600;fill-opacity:1"
       d="M 5.9314389,8.819138 C 4.7124832,7.4995475 3.7151558,6.40701 3.7151558,6.3912767 c 0,-0.015733 0.1847526,-0.1997818 0.4105613,-0.4089966 l 0.4105613,-0.3803904 0.094913,0.081634 c 0.052202,0.044899 0.8388721,0.886808 1.748156,1.8709096 1.5343349,1.660583 1.6566096,1.7858294 1.7000447,1.7413653 0.025741,-0.026351 1.514866,-2.126755 3.3091673,-4.6675653 1.794301,-2.5408102 3.288812,-4.6485754 3.321135,-4.68392253 l 0.05877,-0.06426753 0.478106,0.33680119 0.478107,0.3368012 -0.13305,0.18898632 C 15.51845,0.84657442 15.057917,1.4978344 14.568221,2.1898764 l -0.890357,1.2582581 -0.354504,0 -0.354503,0 0,0.501597 0,0.5015969 -2.39177,3.3840942 C 9.2616126,9.6966744 8.1768572,11.219264 8.1665189,11.218955 8.1561807,11.218646 7.1503946,10.138728 5.9314389,8.819138 z"
       id="path3820"
       inkscape:connector-curvature="0"
       transform="translate(0,1036.3622)" />
    <path
       style="fill:#ff7f2a;fill-opacity:1"
       d="m 12.99764,3.9422409 0,-0.4653235 0.330218,0 0.330219,0 -0.320366,0.4533307 c -0.176201,0.2493318 -0.324799,0.4587274 -0.330218,0.4653235 -0.0054,0.0066 -0.0099,-0.1974028 -0.0099,-0.4533307 z"
       id="path3822"
       inkscape:connector-curvature="0"
       transform="translate(0,1036.3622)" />
    <path
       style="fill:#ff7f2a;fill-opacity:1"
       d="M 7.8947934,9.1404746 C 7.6970526,8.956136 4.7369487,5.7756552 4.7369487,5.7475311 c 0,-0.010973 0.1244371,-0.1341758 0.2765269,-0.2737843 l 0.276527,-0.2538335 0.089032,0.099925 c 0.5745627,0.6448621 2.5659402,2.7601636 2.5818324,2.7425006 0.021991,-0.024441 4.0064844,-5.5829506 5.3192464,-7.42053657 0.418444,-0.58573196 0.763469,-1.06814646 0.766723,-1.07203222 0.01742,-0.0208035 0.57649,0.4059543 0.573566,0.43782365 -0.0027,0.02927571 -6.4585159,9.16812324 -6.5431129,9.26240414 -0.010911,0.01216 -0.093034,-0.046125 -0.1824957,-0.129523 z"
       id="path3824"
       inkscape:connector-curvature="0"
       transform="translate(0,1036.3622)" />
    <path
       style="fill:#ff7f2a;fill-opacity:1"
       d="M 7.7295705,10.743231 C 6.7035827,9.6493559 4.3586393,7.1049831 3.8229361,6.5043512 3.7725389,6.4478456 3.7313048,6.3966063 3.7313048,6.390486 c 0,-0.019554 0.4754149,-0.4794375 0.7742303,-0.7489362 l 0.03486,-0.03144 0.051703,0.049859 c 0.1518698,0.1464552 0.8698978,0.9135157 2.1466567,2.2932467 0.939613,1.015394 1.2468356,1.3316346 1.3087599,1.3471767 0.017993,0.00452 0.034305,0.00611 0.036248,0.00353 0.056902,-0.075342 1.6156603,-2.2744713 3.2485202,-4.5830837 l 2.120851,-2.9985559 0.718657,0 0.718658,0 -0.310884,0.4391984 c -0.170986,0.2415591 -0.444653,0.6283065 -0.608147,0.8594386 l -0.297263,0.4202401 -0.358262,0 -0.358263,0 0,0.5067871 0,0.506787 -1.064168,1.5059422 C 10.586521,7.8101773 8.89325,10.198499 8.5452953,10.683197 c -0.1422214,0.198113 -0.2839795,0.395601 -0.315018,0.438862 -0.031038,0.04326 -0.059707,0.07881 -0.063709,0.07899 -0.004,1.84e-4 -0.2006504,-0.205834 -0.4369979,-0.457821 z"
       id="path3047"
       inkscape:connector-curvature="0"
       transform="translate(0,1036.3622)" />
    <path
       style="fill:#00ffff;fill-opacity:0.24636727"
       d=""
       id="path3048"
       inkscape:connector-curvature="0"
       transform="translate(0,1036.3622)" />
    <path
       style="fill:#00ffff;fill-opacity:0.24636727"
       d="M 8.0298481,11.046015 C 7.9714977,10.97811 7.3651191,10.322754 6.6823398,9.5896696 5.2161608,8.0154658 3.8289506,6.5022165 3.7894366,6.4339227 3.7679184,6.3967317 3.8525726,6.2951895 4.1510678,6.0001496 L 4.540794,5.6149348 4.7521244,5.8419066 C 8.0001684,9.3303519 8.0371575,9.368599 8.0987617,9.3023599 8.1186629,9.280961 11.514124,4.4892104 13.108241,2.2328697 l 0.342956,-0.4854259 0.699505,0 c 0.569784,0 0.694784,0.00776 0.674049,0.041865 -0.014,0.023026 -0.280879,0.4026128 -0.593064,0.8435268 l -0.567608,0.801662 -0.363454,0 -0.363454,0 0,0.5126087 0,0.5126086 -0.227299,0.3229604 c -1.582288,2.2482127 -4.5301116,6.3868038 -4.5491741,6.3868038 -0.013617,0 -0.0725,-0.05556 -0.1308498,-0.123464 z"
       id="path3050"
       inkscape:connector-curvature="0"
       transform="translate(0,1036.3622)" />
    <path
       style="fill:#00ffff;fill-opacity:0.24636727"
       d="M 6.4365492,9.2994435 C 4.5965711,7.3098228 3.8016161,6.4365978 3.8016161,6.4050791 c 0,-0.02871 0.707907,-0.7423975 0.736385,-0.7423975 0.013038,0 0.7384862,0.7627552 1.6121079,1.6950115 1.6236441,1.7326178 1.8533008,1.9669948 1.9241347,1.9636834 0.022275,-0.00104 1.2437196,-1.7048566 2.7143213,-3.7862565 l 2.673821,-3.7843633 0.350143,0.00224 c 0.192579,0.00123 0.494073,0.011232 0.669987,0.022217 l 0.319843,0.019973 -0.574493,0.8182876 -0.574493,0.8182876 -0.358101,0.00137 -0.358101,0.00137 -7.07e-4,0.5013414 -7.06e-4,0.5013415 -1.465973,2.0690281 C 9.766414,8.9102921 8.1965042,11.100709 8.1611802,11.122541 8.1476522,11.130902 7.3715668,10.310508 6.4365463,9.2994435 l 2.9e-6,0 z"
       id="path3052"
       inkscape:connector-curvature="0"
       transform="translate(0,1036.3622)" />
    <path
       style="fill:#00ffff;fill-opacity:0.24636727"
       d="M 7.2324172,8.4097534 C 6.0877414,7.2017358 4.7582049,5.7494216 4.7738354,5.7241311 4.7813259,5.7120111 4.9004775,5.6002062 5.0386168,5.4756755 l 0.2511624,-0.2264194 0.907074,0.9786194 c 0.4988907,0.5382408 1.0994059,1.1783038 1.3344781,1.4223626 l 0.427404,0.4437431 1.3227787,-1.844316 c 0.727528,-1.0143738 2.092473,-2.9186191 3.03321,-4.2316561 0.940738,-1.31303711 1.727821,-2.3914305 1.749074,-2.39642982 0.03854,-0.009066 0.413763,0.25910818 0.488293,0.34898635 0.03277,0.0395243 -0.262694,0.47632143 -1.785111,2.63896367 C 9.7357475,6.9154921 8.0991739,9.2113369 8.0537295,9.2214491 8.0300289,9.2267229 7.6604385,8.8614598 7.2324172,8.4097534 z"
       id="path3054"
       inkscape:connector-curvature="0"
       transform="translate(0,1036.3622)" />
    <path
       style="fill:#00ffff;fill-opacity:0.24636727"
       d=""
       id="path3056"
       inkscape:connector-curvature="0"
       transform="translate(0,1036.3622)" />
    <path
       style="fill:#00ffff;fill-opacity:0.24636727"
       d="M 7.6955913,8.8589611 C 6.9354175,8.0951514 4.8210022,5.7990863 4.8205093,5.7368801 4.8203472,5.7164146 4.9240638,5.6048319 5.0509907,5.4889192 L 5.2817669,5.2781687 5.4891796,5.4942984 c 0.114077,0.1188717 0.7141445,0.7578932 1.3334833,1.4200481 0.9102887,0.9732193 1.1334985,1.195855 1.1648345,1.1618389 0.02132,-0.023143 1.0369701,-1.435768 2.2569996,-3.1391657 3.219867,-4.49555753 3.776634,-5.26230347 3.836859,-5.28389306 0.03257,-0.0116745 0.423304,0.28306324 0.438351,0.33065321 0.0061,0.01913937 -0.07478,0.16543184 -0.179616,0.32509435 -0.592907,0.9029482 -5.8159798,8.2922016 -6.21431,8.7915902 l -0.084456,0.1058833 -0.3457333,-0.3473866 0,0 z"
       id="path3058"
       inkscape:connector-curvature="0"
       transform="translate(0,1036.3622)" />
    <path
       style="fill:#00ffff;fill-opacity:0.24636727"
       d="M 7.315997,8.440052 C 6.1993274,7.272015 4.8520457,5.7914118 4.8520457,5.732278 c 0,-0.049112 0.4088545,-0.4265566 0.4407207,-0.4068623 0.01833,0.011329 0.3596481,0.3675858 0.7584839,0.7916824 0.3988357,0.4240967 0.9894649,1.0474315 1.3125093,1.3851885 0.5614456,0.5870158 0.589791,0.6115869 0.6426127,0.5570461 0.030392,-0.031382 1.266313,-1.7428751 2.7464907,-3.8033187 2.311399,-3.2175252 3.111444,-4.32157694 3.287648,-4.53691261 0.03191,-0.0390023 0.0494,-0.0387383 0.127324,0.001923 0.04968,0.0259233 0.145992,0.09551 0.214022,0.15463722 l 0.123691,0.10750396 -0.05638,0.1102326 C 14.245743,0.4911669 8.113101,9.1641138 8.035268,9.1641138 c -0.014879,0 -0.3385504,-0.3258277 -0.719271,-0.7240618 z"
       id="path3060"
       inkscape:connector-curvature="0"
       transform="translate(0,1036.3622)" />
    <path
       style="fill:#00ffff;fill-opacity:0.24636727"
       d="M 7.7940709,10.716015 C 7.3489822,10.262693 6.8357746,9.7130903 5.4227375,8.1765135 4.1775654,6.8224775 3.8334473,6.4382571 3.8334473,6.4020122 c 0,-0.013318 0.1581445,-0.1815343 0.3514324,-0.3738145 l 0.3514324,-0.3496005 0.1505381,0.159156 c 2.98676,3.1577427 3.3222077,3.5023464 3.3856116,3.4780159 0.065945,-0.025305 1.2313974,-1.6496571 4.1018512,-5.7169646 l 1.288073,-1.825143 0.626025,0.010765 c 0.344314,0.00592 0.635526,0.020271 0.647139,0.03189 0.01161,0.011619 -0.224167,0.3697201 -0.523956,0.79578 l -0.54507,0.7746545 -0.149816,0.021085 c -0.0824,0.011597 -0.246503,0.02234 -0.364677,0.023873 l -0.21486,0.00279 0,0.4880179 0,0.4880179 -0.483014,0.6817787 c -2.41471,3.4083826 -4.2442515,5.957981 -4.2867147,5.973846 -0.011905,0.0044 -0.179923,-0.153116 -0.3733714,-0.350143 l 0,0 z"
       id="path3062"
       inkscape:connector-curvature="0"
       transform="translate(0,1036.3622)" />
    <path
       style="fill:#00ffff;fill-opacity:0.24636727"
       d="M 7.6808298,10.571324 C 7.2068932,10.083427 6.2240687,9.0274863 4.962153,7.6503931 4.0829688,6.6909637 3.8652785,6.4443394 3.8652785,6.4077281 c 0,-0.032541 0.6410552,-0.6813841 0.6732056,-0.6813841 0.011992,0 0.687604,0.698297 1.5013603,1.5517711 C 7.8059459,9.1304166 8.0138399,9.3382645 8.076428,9.3142472 8.1021603,9.3043729 8.3165893,9.0323829 8.5529369,8.7098249 8.9209371,8.2075932 11.920803,3.9870906 13.079637,2.3412234 13.28729,2.0462979 13.472682,1.7990572 13.491618,1.7917995 c 0.01894,-0.00726 0.304174,-0.0023 0.633862,0.011013 l 0.599432,0.024209 -0.213605,0.3183121 c -0.518058,0.7720059 -0.849609,1.2200808 -0.91596,1.2378767 -0.03811,0.010223 -0.169567,0.018978 -0.292117,0.019456 -0.391763,0.00153 -0.366059,-0.034144 -0.366059,0.5080197 l 0,0.4687634 -0.164866,0.2357683 c -0.339995,0.486213 -3.469783,4.8765311 -3.9122482,5.4879163 -0.6385282,0.8823 -0.6789926,0.936374 -0.701759,0.937779 -0.01106,6.81e-4 -0.2259203,-0.210632 -0.477468,-0.469589 z"
       id="path3064"
       inkscape:connector-curvature="0"
       transform="translate(0,1036.3622)" />
    <path
       style="fill:#00ffff;fill-opacity:0.24636727"
       d="M 7.6023363,8.7105191 C 6.7959185,7.8849897 5.0396474,5.9751297 4.9222677,5.7960741 c -0.046057,-0.070257 -0.041281,-0.080577 0.107908,-0.233169 0.085854,-0.087812 0.1802658,-0.1729287 0.2098048,-0.189148 0.044125,-0.024228 0.2607689,0.1877573 1.2142188,1.188105 1.3628762,1.4299127 1.4906389,1.5570398 1.5344952,1.5268587 0.018209,-0.012531 0.4255523,-0.567097 0.9052078,-1.2323691 4.3037597,-5.9692226 5.0760817,-7.03595613 5.1606877,-7.1279544 0.03316,-0.0360525 0.125253,0.0103451 0.308721,0.15552843 l 0.134568,0.10648709 -0.283554,0.4283974 C 13.214146,1.9298962 8.1069089,9.1282916 8.0327085,9.1314906 8.0226033,9.1319261 7.8289359,8.942489 7.6023363,8.7105191 z"
       id="path3066"
       inkscape:connector-curvature="0"
       transform="translate(0,1036.3622)" />
    <path
       style="fill:#00ffff;fill-opacity:0.24636727"
       d="M 7.5392382,8.6150255 C 6.508277,7.5628805 4.9157081,5.8175417 4.9157081,5.7398287 c 0,-0.015069 0.073695,-0.1020206 0.1637673,-0.1932256 0.1548101,-0.1567572 0.1676444,-0.1632868 0.2346553,-0.1193794 0.038988,0.025546 0.4115701,0.4005227 0.8279594,0.8332813 1.0981218,1.1412918 1.8077285,1.8551813 1.8345447,1.845617 0.033364,-0.0119 0.4999993,-0.6517903 2.8380352,-3.8917601 2.70378,-3.74680509 3.235751,-4.47228375 3.279386,-4.47228375 0.07151,0 0.37413,0.23244452 0.35785,0.27486984 C 14.345684,0.29375641 8.1230343,9.0993347 8.032986,9.1002645 8.0230335,9.1003673 7.800847,8.8820097 7.5392382,8.6150255 z"
       id="path3068"
       inkscape:connector-curvature="0"
       transform="translate(0,1036.3622)" />
    <path
       style="fill:#00ffff;fill-opacity:0.24636727"
       d=""
       id="path3070"
       inkscape:connector-curvature="0"
       transform="translate(0,1036.3622)" />
    <path
       style="fill:#00ffff;fill-opacity:0.24636727"
       d="m 13.021075,4.1462568 c -0.01113,-0.081226 -0.02024,-0.2602762 -0.02024,-0.39789 l 0,-0.2502069 0.304275,0 c 0.234758,0 0.298895,0.00909 0.280728,0.039789 -0.0462,0.078061 -0.526198,0.7559911 -0.535271,0.7559911 -0.0051,0 -0.01836,-0.066458 -0.02949,-0.1476832 z"
       id="path3072"
       inkscape:connector-curvature="0"
       transform="translate(0,1036.3622)" />
    <path
       style="fill:#00ffff;fill-opacity:0.24636727"
       d="m 13.055871,4.2085219 c -0.0083,-0.014295 -0.02497,-0.1799746 -0.03715,-0.3681766 l -0.02215,-0.3421854 0.121496,2.766e-4 c 0.06682,1.522e-4 0.195372,0.00915 0.285664,0.020001 l 0.164168,0.019724 -0.239717,0.3381005 c -0.131844,0.1859553 -0.243677,0.3426346 -0.248516,0.3481761 -0.0048,0.00554 -0.01555,-0.00162 -0.0238,-0.015916 l 0,0 z"
       id="path3074"
       inkscape:connector-curvature="0"
       transform="translate(0,1036.3622)" />
    <path
       style="fill:#00ffff;fill-opacity:0.24636727"
       d="m 13.050808,3.9870477 c -0.01072,-0.1200774 -0.02632,-0.2809844 -0.03467,-0.357571 l -0.01517,-0.1392484 0.09941,0.019881 c 0.05467,0.010935 0.169237,0.019881 0.254584,0.019881 0.09115,0 0.155177,0.014373 0.155177,0.034835 0,0.028337 -0.328228,0.5120681 -0.416083,0.613209 -0.01306,0.015034 -0.03252,-0.07091 -0.04324,-0.1909872 z"
       id="path3076"
       inkscape:connector-curvature="0"
       transform="translate(0,1036.3622)" />
    <path
       style="fill:#00ffff;fill-opacity:0.24636727"
       d="m 13.582325,1.5650319 c 0.06069,-0.083499 0.342923,-0.4812686 0.627176,-0.88393331 0.284253,-0.4026647 0.526423,-0.74248747 0.538156,-0.75516172 0.01173,-0.01267424 0.230665,0.12439841 0.486516,0.3046059 l 0.465185,0.32764995 -0.402956,0.57075218 -0.402956,0.5707521 -0.710736,0.00858 -0.710737,0.00858 0.110352,-0.1518156 z"
       id="path3078"
       inkscape:connector-curvature="0"
       transform="translate(0,1036.3622)" />
    <path
       style="fill:#00ffff;fill-opacity:0.24636727"
       d="m 13.548288,1.6462055 c 0.0568,-0.086685 1.17079,-1.65690885 1.190823,-1.67852182 0.02424,-0.02615027 0.179807,0.06496563 0.546151,0.31988042 0.205412,0.14293279 0.377619,0.26305709 0.382681,0.26694292 0.0051,0.003886 -0.166826,0.258782 -0.381974,0.56643598 l -0.391179,0.5593708 -0.572962,0.00208 c -0.315129,0.00115 -0.629894,0.011485 -0.699479,0.022975 l -0.126517,0.020891 0.05246,-0.080058 0,0 z"
       id="path3080"
       inkscape:connector-curvature="0"
       transform="translate(0,1036.3622)" />
    <path
       style="fill:#00ffff;fill-opacity:0.24636727"
       d="m 13.54191,1.6897475 c 2.17e-4,-0.040185 1.191053,-1.67926961 1.225702,-1.68707458 0.03581,-0.00806722 0.753967,0.44208976 0.854818,0.53582147 0.01504,0.0139824 -0.141279,0.27023 -0.347385,0.56943911 -0.272794,0.3960223 -0.392807,0.5450787 -0.441159,0.5479204 -0.247762,0.014561 -1.292019,0.041956 -1.291976,0.033894 z"
       id="path3082"
       inkscape:connector-curvature="0"
       transform="translate(0,1036.3622)" />
    <path
       style="fill:#00ffff;fill-opacity:0.24636727"
       d="m 13.625098,1.5925558 c 0.16724,-0.2606928 1.122874,-1.56399684 1.146784,-1.56399684 0.03645,0 0.240817,0.12066253 0.526389,0.31079804 0.285912,0.19036128 0.307741,0.21211192 0.275237,0.2742504 -0.0747,0.14279538 -0.604476,0.904838 -0.671674,0.9661447 -0.0646,0.058934 -0.12512,0.065895 -0.700616,0.080578 l -0.62991,0.016071 0.05379,-0.083846 z"
       id="path3084"
       inkscape:connector-curvature="0"
       transform="translate(0,1036.3622)" />
    <path
       style="fill:#00ffff;fill-opacity:0.24636727"
       d="m 13.624054,1.617297 c 0.01889,-0.024709 0.125454,-0.1738411 0.236813,-0.3314056 0.597168,-0.84494888 0.900756,-1.2302919 0.957567,-1.21543563 0.08047,0.02104304 0.523228,0.30463961 0.655178,0.41965561 l 0.109554,0.0954936 -0.274757,0.40307694 C 15.157292,1.2103743 14.988084,1.4439601 14.93239,1.5077615 l -0.101263,0.1160026 -0.620708,0.019229 c -0.531484,0.016465 -0.615772,0.012771 -0.586365,-0.025696 z"
       id="path3086"
       inkscape:connector-curvature="0"
       transform="translate(0,1036.3622)" />
    <path
       style="fill:#00ffff;fill-opacity:0.24636727"
       d="m 13.65586,1.6241427 c -0.01621,-0.026228 0.797287,-1.14446867 0.998659,-1.37276533 l 0.154425,-0.17507161 0.145086,0.08017021 c 0.0798,0.0440936 0.251707,0.15793627 0.382022,0.25298368 l 0.236935,0.1728135 -0.130356,0.19265313 C 15.242796,1.0702633 14.894891,1.536311 14.844423,1.5762756 c -0.04849,0.038397 -1.166586,0.083426 -1.188563,0.047867 z"
       id="path3088"
       inkscape:connector-curvature="0"
       transform="translate(0,1036.3622)" />
    <path
       style="fill:#00ffff;fill-opacity:0.24636727"
       d="m 13.719912,1.537528 c 0.224409,-0.3543299 1.055867,-1.44523529 1.101556,-1.44528332 0.03217,-3.383e-5 0.687843,0.44168203 0.710829,0.4788745 0.02098,0.0339391 -0.414054,0.66421162 -0.611703,0.88623832 l -0.121298,0.136258 -0.568977,0.018196 -0.568978,0.018197 0.05857,-0.092481 z"
       id="path3090"
       inkscape:connector-curvature="0"
       transform="translate(0,1036.3622)" />
    <path
       style="fill:#00ffff;fill-opacity:0.24636727"
       d="m 13.70112,1.6038912 c 0,-0.082252 1.061423,-1.47983863 1.123891,-1.47983863 0.04579,0 0.548167,0.32609321 0.641559,0.41643376 0.06189,0.0598669 0.06056,0.0632303 -0.139918,0.35517538 -0.258017,0.37572789 -0.482188,0.65323909 -0.543271,0.67253779 -0.08294,0.026205 -1.082261,0.059162 -1.082261,0.035692 z"
       id="path3092"
       inkscape:connector-curvature="0"
       transform="translate(0,1036.3622)" />
    <path
       style="fill:#00ffff;fill-opacity:0.24636727"
       d=""
       id="path3094"
       inkscape:connector-curvature="0"
       transform="translate(0,1036.3622)" />
    <path
       style="fill:#00ffff;fill-opacity:0.24636727"
       d=""
       id="path3096"
       inkscape:connector-curvature="0"
       transform="translate(0,1036.3622)" />
    <path
       style="fill:#00ffff;fill-opacity:0.24636727"
       d="m 13.085957,4.1119262 c -0.0085,-0.013745 -0.0256,-0.1547973 -0.03801,-0.3134498 l -0.02257,-0.288459 0.211877,0.02193 c 0.116533,0.012062 0.219723,0.029776 0.229313,0.039365 0.0096,0.00959 -0.04355,0.1080639 -0.11808,0.2188329 -0.192167,0.2855954 -0.24493,0.3502649 -0.262534,0.3217809 z"
       id="path3098"
       inkscape:connector-curvature="0"
       transform="translate(0,1036.3622)" />
    <path
       style="fill:#00ffff;fill-opacity:0.24636727"
       d="m 13.081816,3.9235464 c -0.011,-0.1026588 -0.0276,-0.2353002 -0.03689,-0.2947586 l -0.01689,-0.1081061 0.184917,0.021733 c 0.101704,0.011953 0.195626,0.032443 0.208716,0.045533 0.01949,0.01949 -0.204143,0.3946589 -0.294917,0.4947547 -0.01371,0.015123 -0.03393,-0.056497 -0.04493,-0.159156 l 0,0 z"
       id="path3100"
       inkscape:connector-curvature="0"
       transform="translate(0,1036.3622)" />
    <path
       style="fill:#00ffff;fill-opacity:0.24636727"
       d="m 13.081138,3.8282082 c -0.01259,-0.1175996 -0.03081,-0.2344306 -0.04047,-0.2596244 -0.01444,-0.037637 0.0074,-0.041601 0.122494,-0.022224 0.270137,0.045481 0.267797,0.040603 0.129327,0.2696075 -0.06799,0.1124475 -0.138209,0.209312 -0.156035,0.2152542 -0.01846,0.00615 -0.04227,-0.081222 -0.05531,-0.2030134 z"
       id="path3102"
       inkscape:connector-curvature="0"
       transform="translate(0,1036.3622)" />
    <path
       style="fill:#00ffff;fill-opacity:0.24636727"
       d="m 13.120051,3.9685823 c -0.0098,-0.02565 -0.02802,-0.1276641 -0.04039,-0.2266982 -0.0222,-0.1776702 -0.02142,-0.1800618 0.05868,-0.1800618 0.04464,0 0.118835,0.014319 0.164866,0.03182 l 0.08369,0.03182 -0.06729,0.1193781 C 13.203265,3.9512337 13.140429,4.021687 13.120051,3.9685823 z"
       id="path3104"
       inkscape:connector-curvature="0"
       transform="translate(0,1036.3622)" />
    <path
       style="fill:#00ffff;fill-opacity:0.24636727"
       d="m 13.116296,3.9036497 c -0.01051,-0.039194 -0.01929,-0.1317812 -0.01953,-0.205749 l -4.35e-4,-0.1344868 0.103451,0.019329 c 0.157375,0.029404 0.167273,0.057466 0.0755,0.2140613 -0.104001,0.1774645 -0.134553,0.1979972 -0.158984,0.1068454 z"
       id="path3106"
       inkscape:connector-curvature="0"
       transform="translate(0,1036.3622)" />
    <path
       style="fill:#00ffff;fill-opacity:0.24636727"
       d="M 7.6497101,10.50847 C 6.529783,9.3612215 3.8971097,6.487542 3.8971097,6.4123405 c 0,-0.019058 0.1442503,-0.1776229 0.3205563,-0.352366 L 4.5382222,5.7422596 4.8757601,6.0924028 C 7.9072573,9.237111 8.0095013,9.3399293 8.0787284,9.3133642 8.1526274,9.2850068 8.6413261,8.612543 10.916846,5.408032 12.104085,3.7360981 13.167247,2.2428169 13.279429,2.0896293 l 0.203965,-0.2785231 0.435133,0.00315 c 0.239323,0.00173 0.511189,0.012474 0.604148,0.023873 l 0.169016,0.020725 -0.417171,0.6044797 c -0.229444,0.3324639 -0.47356,0.6713532 -0.542479,0.7530875 l -0.125308,0.1486078 -0.279076,0.021313 c -0.429325,0.032788 -0.390486,-0.018296 -0.390486,0.5136087 l 0,0.4611626 -1.898008,2.6641079 C 8.8327459,10.122222 8.1914068,11.010323 8.1613358,11.010323 c -0.011948,0 -0.2421797,-0.225834 -0.5116257,-0.501853 l 0,0 z"
       id="path3108"
       inkscape:connector-curvature="0"
       transform="translate(0,1036.3622)" />
    <path
       style="fill:#00ffff;fill-opacity:0.24636727"
       d="M 7.5245144,10.350619 C 6.5032845,9.3053052 4.0799727,6.6680144 3.9619077,6.4734328 3.9146956,6.3956234 3.9191665,6.3890897 4.2317748,6.0790624 L 4.5496493,5.7638125 5.8228974,7.0839209 C 7.5978615,8.9242103 8.0028161,9.3280378 8.0618729,9.3166645 8.0895962,9.3113254 8.177825,9.2255957 8.2579368,9.1261544 8.3870292,8.9659142 10.07159,6.613471 12.637115,3.01075 l 0.857102,-1.203612 0.54113,0.021836 c 0.297622,0.01201 0.559193,0.031465 0.581268,0.043234 0.06788,0.036186 -0.949223,1.4605014 -1.058271,1.4819687 -0.03527,0.00694 -0.166774,0.020682 -0.292232,0.030531 -0.353115,0.027721 -0.328941,-0.00968 -0.328941,0.5089287 l 0,0.4523274 -2.157886,3.0218258 C 8.494168,10.567785 8.1962779,10.978492 8.1604057,10.978492 c -0.012366,0 -0.2985175,-0.282543 -0.6358913,-0.627873 l 0,0 z"
       id="path3110"
       inkscape:connector-curvature="0"
       transform="translate(0,1036.3622)" />
    <path
       style="fill:#00ffff;fill-opacity:0.24636727"
       d="M 7.4907285,10.285678 C 6.1491894,8.919858 3.9607721,6.5236908 3.9607721,6.4206172 c 0,-0.023645 0.1334371,-0.1758731 0.2965268,-0.3382848 L 4.5538258,5.7870385 5.8886157,7.1652219 c 1.6188468,1.6714749 2.1053625,2.1580479 2.1577936,2.1580479 0.099069,0 0.2399818,-0.1922181 3.5538507,-4.8477998 l 1.893957,-2.6607775 0.238734,0.013885 c 0.731703,0.042557 0.859442,0.054949 0.859442,0.083377 0,0.079348 -0.795233,1.1994289 -0.962908,1.356249 -0.05906,0.055237 -0.137235,0.079286 -0.32918,0.1012657 -0.392292,0.044922 -0.363134,0.00342 -0.363134,0.516834 l 0,0.4449945 -2.074536,2.9018338 C 8.6013936,10.396128 8.2013792,10.946661 8.1644043,10.946661 c -0.013444,0 -0.3165979,-0.297442 -0.6736758,-0.660983 l 0,0 z"
       id="path3112"
       inkscape:connector-curvature="0"
       transform="translate(0,1036.3622)" />
    <path
       style="fill:#00ffff;fill-opacity:0.24636727"
       d="M 7.3796962,10.142895 C 5.9584881,8.7013008 3.9926033,6.5447974 3.9926033,6.4273782 c 0,-0.027193 0.1253353,-0.182551 0.278523,-0.345239 L 4.5496493,5.786343 5.4790344,6.7510684 c 1.6074192,1.6685425 2.5066463,2.5729453 2.5578449,2.5725668 0.1153054,-8.531e-4 0.076793,0.051112 3.0994007,-4.182023 l 2.367482,-3.3156387 0.424949,0.024503 c 0.486558,0.028056 0.631851,0.047811 0.631851,0.085913 0,0.0647 -0.614166,0.9382364 -0.907189,1.2903073 -0.05797,0.069655 -0.156939,0.1056179 -0.350143,0.1272366 -0.105043,0.011754 -0.230379,0.036427 -0.278523,0.054829 l -0.08754,0.033458 0,0.4369502 0,0.4369503 -0.452007,0.633491 c -1.389874,1.94792 -3.9451518,5.5064904 -4.106261,5.7185254 -0.1030933,0.135681 -0.19886,0.246692 -0.2128151,0.246692 -0.013955,0 -0.3678312,-0.347371 -0.7863917,-0.771935 z"
       id="path3114"
       inkscape:connector-curvature="0"
       transform="translate(0,1036.3622)" />
    <path
       style="fill:#00ffff;fill-opacity:0.24636727"
       d="M 7.4595241,8.5036163 C 6.559786,7.591619 5.0635604,5.9632325 4.9774088,5.8022567 4.944625,5.7409994 4.949913,5.7176312 5.0140957,5.6401318 5.0553413,5.5903283 5.1303858,5.5153786 5.1808613,5.4735763 L 5.272635,5.397572 5.881418,6.0155524 c 1.5489822,1.572385 2.0731292,2.0981317 2.0917468,2.0981317 0.027966,0 0.3432393,-0.4273854 1.7493504,-2.3714245 3.3444118,-4.6238641 4.1239488,-5.69406884 4.3163408,-5.92578635 0.01944,-0.0234102 0.05296,-0.0425639 0.07449,-0.0425639 0.05155,0 0.281558,0.1638475 0.302102,0.21520692 C 14.441566,0.05440319 14.22464,0.37645776 12.3842,3.0047763 10.191342,6.1363811 8.0915383,9.0626957 8.0340073,9.0672642 8.0246164,9.068009 7.766099,8.8143684 7.4595241,8.5036163 z"
       id="path3116"
       inkscape:connector-curvature="0"
       transform="translate(0,1036.3622)" />
    <path
       style="fill:#00ffff;fill-opacity:0.24636727"
       d="M 7.380125,8.3922071 C 6.2065756,7.207559 4.9793705,5.8550118 4.9793705,5.7462481 c 0,-0.062903 0.1765334,-0.2656763 0.2522057,-0.2896936 0.043735,-0.013881 0.3749247,0.3003261 1.3991745,1.3274299 l 1.3418768,1.3456153 0.078694,-0.088937 c 0.08154,-0.092153 0.5109126,-0.6815684 3.3902441,-4.653912 0.939058,-1.2955299 1.918479,-2.63932165 2.176491,-2.98620388 l 0.469113,-0.63069501 0.132783,0.0784166 c 0.21308,0.12583702 0.214133,0.14264208 0.02732,0.43613981 C 13.57531,1.3401276 8.1163268,9.036789 8.0395047,9.036789 c -0.01146,0 -0.3081811,-0.2900619 -0.6593797,-0.6445819 l 0,0 z"
       id="path3118"
       inkscape:connector-curvature="0"
       transform="translate(0,1036.3622)" />
    <path
       style="fill:#00ffff;fill-opacity:0.24636727"
       d="M 7.3467397,10.079261 C 6.3146883,9.0374542 5.6711341,8.3556942 4.7852,7.3656509 4.2422065,6.7588482 4.0244345,6.4885033 4.0244345,6.4212268 c 0,-0.062432 0.470881,-0.5913578 0.5308623,-0.5963006 0.020613,-0.0017 0.066314,0.033569 0.1015566,0.078373 0.1176893,0.1496178 3.1542195,3.2522862 3.2675787,3.3387496 0.068252,0.052058 0.1331865,0.077751 0.1669244,0.066049 0.094884,-0.032911 0.517379,-0.6128169 3.8773365,-5.3219288 0.834814,-1.1700239 1.523439,-2.1335711 1.530278,-2.1412159 0.01794,-0.020052 1.001202,0.05431 1.024362,0.07747 0.0327,0.032703 -0.108958,0.2672004 -0.423103,0.7003789 -0.464176,0.6400597 -0.496101,0.669401 -0.781085,0.7178884 -0.414801,0.070574 -0.381903,0.024923 -0.382436,0.5306984 l -4.62e-4,0.4384669 -2.26104,3.149825 C 8.4463346,10.564693 8.2130714,10.882999 8.1665055,10.882999 c -0.012955,0 -0.3818493,-0.361682 -0.8197658,-0.803738 l 0,0 z"
       id="path3120"
       inkscape:connector-curvature="0"
       transform="translate(0,1036.3622)" />
    <path
       style="fill:#00ffff;fill-opacity:0.24636727"
       d="M 7.6449051,10.365742 C 6.4913687,9.2373373 4.421205,7.007406 4.0998866,6.5471313 L 4.0173478,6.4288981 4.1299956,6.2765661 C 4.191952,6.1927835 4.3128625,6.0555541 4.3986857,5.9716117 L 4.5547279,5.8189894 6.2057262,7.5097663 c 1.576805,1.6147959 1.780277,1.8135035 1.856987,1.8135035 0.048363,0 0.1340867,-0.098013 0.4315226,-0.4933836 0.2186265,-0.2906125 3.1636592,-4.3928649 4.5990282,-6.4061687 0.215362,-0.3020751 0.404194,-0.557031 0.419626,-0.5665686 0.03121,-0.019292 0.953512,0.046783 0.99321,0.071155 0.05884,0.036123 -0.542633,0.9204613 -0.820896,1.2069585 -0.146415,0.1507476 -0.176993,0.1670957 -0.381974,0.204211 -0.396232,0.071744 -0.366059,0.028304 -0.366059,0.5270282 l 0,0.4335801 -0.722623,1.0075696 C 9.719638,8.7863586 8.2029,10.882999 8.1812653,10.882999 c -0.00417,0 -0.2455325,-0.232766 -0.5363602,-0.517257 z"
       id="path3122"
       inkscape:connector-curvature="0"
       transform="translate(0,1036.3622)" />
    <path
       style="fill:#00ffff;fill-opacity:0.24636727"
       d="M 7.2210383,9.9201207 C 5.8703317,8.5570186 4.5431901,7.123848 4.1526877,6.6066314 L 4.0168319,6.4266916 4.096282,6.3232096 C 4.1399795,6.2662945 4.2598634,6.1287649 4.3626907,6.017588 L 4.5496493,5.8154485 6.1847929,7.4910553 c 0.899329,0.921584 1.6828899,1.712025 1.7412464,1.7565355 0.066458,0.05069 0.1274817,0.073515 0.1633192,0.061086 0.1013916,-0.035162 0.036233,0.053775 3.3941605,-4.6327627 0.997245,-1.3918193 1.861696,-2.5941706 1.921001,-2.6718917 0.121286,-0.1589472 0.0794,-0.1526554 0.730055,-0.1096621 0.364732,0.024101 0.38478,0.03531 0.313217,0.175129 -0.146152,0.2855515 -0.727958,1.0629645 -0.869532,1.1618765 -0.04131,0.028863 -0.198877,0.082794 -0.350143,0.119847 l -0.275031,0.067369 -0.0089,0.4387803 -0.0089,0.4387803 -0.884273,1.2323579 C 9.8448594,8.6031856 8.276199,10.772876 8.1970972,10.859141 8.1850491,10.87228 7.7458225,10.449721 7.2210383,9.9201207 z"
       id="path3124"
       inkscape:connector-curvature="0"
       transform="translate(0,1036.3622)" />
    <path
       style="fill:#00ffff;fill-opacity:0.24636727"
       d="M 7.2527986,8.2330511 C 6.2834377,7.25617 5.4592697,6.3665583 5.1124439,5.9227397 4.9659718,5.7353055 4.9672608,5.7136599 5.134365,5.5546373 c 0.094426,-0.089859 0.098853,-0.090791 0.1797029,-0.037816 0.045591,0.029872 0.6570031,0.6263868 1.3586941,1.3255878 0.7016911,0.699201 1.2868521,1.2712745 1.3003577,1.2712745 0.043196,0 0.1656472,-0.1631721 1.4530588,-1.9362687 1.7581505,-2.421425 4.1886015,-5.7596889 4.4351965,-6.09181474 0.113192,-0.15245225 0.22159,-0.2777876 0.240885,-0.27852301 0.0193,-7.354e-4 0.08375,0.031961 0.143241,0.0726586 0.08331,0.05699469 0.10671,0.09408169 0.101856,0.1614181 -0.0088,0.12146803 -0.539149,0.90385681 -2.440655,3.6002459 -2.1164446,3.0011765 -3.8196808,5.3635575 -3.8670334,5.3635575 -0.011498,0 -0.3655896,-0.347358 -0.78687,-0.7719067 z"
       id="path3126"
       inkscape:connector-curvature="0"
       transform="translate(0,1036.3622)" />
    <path
       style="fill:#00ffff;fill-opacity:0.24636727"
       d="M 7.3557655,10.050029 C 6.1121902,8.8034456 4.7147433,7.3025341 4.2196825,6.6817556 3.9966699,6.4021099 3.9915962,6.4292985 4.3373431,6.0512476 L 4.5496493,5.8191049 6.183731,7.4920736 c 0.8987449,0.9201331 1.6823058,1.7097512 1.7412464,1.7547074 0.068811,0.052484 0.1290602,0.074789 0.1683421,0.062322 0.083691,-0.026563 0.4226614,-0.4875856 2.9502045,-4.0124799 1.205145,-1.6806874 2.255586,-3.1402413 2.334313,-3.243453 l 0.143139,-0.1876576 0.400426,0.020836 c 0.46089,0.023982 0.543667,0.040557 0.543667,0.1088608 0,0.06493 -0.423959,0.6970414 -0.650031,0.9691799 -0.221899,0.267114 -0.28257,0.3068028 -0.575799,0.3766641 -0.129593,0.030876 -0.250574,0.065377 -0.268846,0.076669 -0.02038,0.012593 -0.03322,0.1839592 -0.03322,0.4431932 l 0,0.4226608 -0.133815,0.1882112 C 11.366448,6.4928123 8.2415606,10.806057 8.1921325,10.836605 8.1745461,10.847474 7.798181,10.493515 7.3557655,10.050029 z"
       id="path3128"
       inkscape:connector-curvature="0"
       transform="translate(0,1036.3622)" />
    <path
       style="fill:#00ffff;fill-opacity:0.24636727"
       d="M 1.0010219,5.5751458 C 1.0013253,4.42405 1.0156382,3.3487248 1.0328283,3.1855342 1.1377158,2.1898089 1.7532472,1.4381131 2.7352708,1.1064869 l 0.2228184,-0.075245 4.9434063,-0.00864 c 2.7188735,-0.00475 4.9641165,0.00295 4.9894295,0.017119 0.036,0.020148 -0.0274,0.1277258 -0.29117,0.4940631 l -0.337193,0.468307 -4.5726584,0.00367 c -2.5149622,0.00202 -4.5977254,0.00112 -4.628363,-0.002 -0.030637,-0.00312 -0.055705,0.00842 -0.055705,0.025636 0,0.017217 -0.042276,0.040588 -0.093946,0.051937 C 2.7675818,2.1130269 2.457486,2.3274029 2.3288241,2.4844178 2.2017188,2.6395331 2.0519744,2.9368618 2.0507235,3.0366075 c -6.691e-4,0.053363 -0.00607,0.055938 -0.033405,0.015916 -0.024419,-0.035758 -0.03089,-0.015776 -0.025772,0.079578 0.00376,0.070029 0.00433,1.1192646 0.00126,2.3316355 l -0.00557,2.2043107 -0.4933836,0 -0.4933837,0 5.516e-4,-2.0929015 z"
       id="path3130"
       inkscape:connector-curvature="0"
       transform="translate(0,1036.3622)" />
    <path
       style="fill:#00ffff;fill-opacity:0.24636727"
       d="m 1.0004703,10.405531 0,-1.6870541 0.4933837,0 0.4933836,0 0,1.6870541 0,1.687053 -0.4933836,0 -0.4933837,0 0,-1.687053 z"
       id="path3132"
       inkscape:connector-curvature="0"
       transform="translate(0,1036.3622)" />
    <path
       style="fill:#00ffff;fill-opacity:0.24636727"
       d="m 1.0004703,8.1932621 0,-0.5252148 0.4933837,0 0.4933836,0 0,0.5252148 0,0.5252148 -0.4933836,0 -0.4933837,0 0,-0.5252148 z"
       id="path3134"
       inkscape:connector-curvature="0"
       transform="translate(0,1036.3622)" />
    <path
       style="fill:#00ffff;fill-opacity:0.24636727"
       d="M 3.0133977,14.953876 C 2.2693446,14.829925 1.6010757,14.331017 1.2648041,13.648432 1.1086138,13.331387 1.0368677,13.010816 1.0122308,12.519901 l -0.0214452,-0.427317 0.49822604,0 0.498226,0 0.00313,0.310355 c 0.00172,0.170694 4.628e-4,0.501483 -0.0028,0.735086 l -0.00594,0.424732 0.1938469,-0.01093 c 0.1066159,-0.006 0.1938209,-1.59e-4 0.193789,0.01301 -1.464e-4,0.0605 0.4058806,0.315132 0.5962514,0.373932 0.2055646,0.06349 0.2780712,0.06431 5.6110807,0.06322 l 5.4028258,-0.0011 0.01713,-0.127696 c 0.0094,-0.07023 0.01367,-1.505867 0.0094,-3.190298 -0.0042,-1.6844308 -0.0028,-2.1351202 0.0031,-1.0015315 l 0.0108,2.0610705 0.477238,0 0.477237,0 0,0.583785 c 0,0.481789 -0.01125,0.627777 -0.06439,0.835569 -0.241373,0.943826 -0.997033,1.640195 -1.947153,1.794375 -0.250258,0.04061 -9.7049643,0.03843 -9.9494257,-0.0023 l -1.6e-6,10e-7 z"
       id="path3136"
       inkscape:connector-curvature="0"
       transform="translate(0,1036.3622)" />
    <path
       style="fill:#00ffff;fill-opacity:0.24636727"
       d="m 13.209695,13.86181 c 0.344081,-0.172209 0.590886,-0.446185 0.718394,-0.797485 l 0.05809,-0.160045 -0.0072,0.525215 -0.0072,0.525215 -0.491424,0.0088 -0.491425,0.0088 0.220859,-0.110538 z"
       id="path3138"
       inkscape:connector-curvature="0"
       transform="translate(0,1036.3622)" />
    <path
       style="fill:#00ffff;fill-opacity:0.24636727"
       d="m 14.019432,9.355101 0,-1.7507161 0.477468,0 0.477468,0 0,1.7507161 0,1.750716 -0.477468,0 -0.477468,0 0,-1.750716 z"
       id="path3140"
       inkscape:connector-curvature="0"
       transform="translate(0,1036.3622)" />
    <path
       style="fill:#00ffff;fill-opacity:0.24636727"
       d="m 14.019155,5.4955678 c -1.52e-4,-1.1598494 -0.0081,-2.1804373 -0.01771,-2.2679731 l -0.01743,-0.159156 0.326962,-0.459736 0.326962,-0.459736 0.116379,0.2486222 c 0.22103,0.4721923 0.220045,0.4589269 0.220045,2.9636009 l 0,2.2431951 -0.477468,0 -0.477468,0 -2.77e-4,-2.1088171 0,0 z"
       id="path3142"
       inkscape:connector-curvature="0"
       transform="translate(0,1036.3622)" />
    <path
       style="fill:#00ffff;fill-opacity:0.24636727"
       d="m 14.019432,11.424129 0,-0.318312 0.477468,0 0.477468,0 0,0.318312 0,0.318312 -0.477468,0 -0.477468,0 0,-0.318312 z"
       id="path3144"
       inkscape:connector-curvature="0"
       transform="translate(0,1036.3622)" />
    <path
       style="fill:#008080;fill-opacity:0.24636727"
       d="m 12.970539,13.591972 -0.0068,-0.347209 -4.9743033,0 -4.9743033,0 0,-2.267489 0,-2.2674884 1.3865138,0 1.3865138,0 1.1856687,1.2858538 c 0.6521178,0.7072196 1.1942304,1.2810456 1.2046949,1.2751686 0.010464,-0.0059 0.4238871,-0.584511 0.9187172,-1.2858535 l 0.8996913,-1.2751689 1.4800379,0 1.480039,0 0.01939,1.3959224 c 0.01067,0.767758 0.01523,1.944372 0.01014,2.614698 -0.0051,0.670327 -0.0123,1.062531 -0.01603,0.871566 z"
       id="path3097"
       inkscape:connector-curvature="0"
       transform="translate(0,1036.3622)" />
    <path
       style="fill:#008080;fill-opacity:0.24636727"
       d="m 3.0151584,7.306777 0,-1.4030086 0.5739581,2.579e-4 L 4.1630746,5.904284 3.915068,6.1331237 C 3.7786644,6.2589856 3.6670614,6.3742904 3.6670614,6.3893566 c 0,0.015066 0.4559778,0.5212046 1.013284,1.1247518 0.5573062,0.6035471 1.030789,1.1194802 1.0521841,1.1465178 0.036803,0.04651 -0.035389,0.049159 -1.3392355,0.049159 l -1.3781356,0 0,-1.4030086 z"
       id="path3099"
       inkscape:connector-curvature="0"
       transform="translate(0,1036.3622)" />
    <path
       style="fill:#008080;fill-opacity:0.24636727"
       d="M 6.3320842,6.3005789 C 5.7680285,5.6926085 5.2970812,5.1951782 5.2855349,5.1951782 c -0.011546,0 -0.1451487,0.1165238 -0.2968939,0.2589417 L 4.7127405,5.7130615 4.6298638,5.6336607 4.5469871,5.5542598 4.3503572,5.7290142 4.1537273,5.9037684 l -0.5692844,0 -0.5692845,0 0,-1.445524 0,-1.4455241 4.0956514,0 c 4.0767552,0 4.0956512,-2.615e-4 4.0956512,-0.056687 0,-0.051288 0.0189,-0.056687 0.198406,-0.056687 0.109122,0 0.198405,0.00695 0.198405,0.015434 0,0.00849 -0.723058,1.0224815 -1.6067963,2.2533169 L 8.38968,7.4059796 l -0.5160198,0 -0.5160198,0 -1.0255562,-1.1054007 0,0 z"
       id="path3101"
       inkscape:connector-curvature="0"
       transform="translate(0,1036.3622)" />
    <path
       style="fill:#008080;fill-opacity:0.24636727"
       d="m 12.970323,9.0569948 -0.0066,-0.3472092 -1.47623,0 c -0.811926,0 -1.471978,-0.010437 -1.466781,-0.023193 0.0052,-0.012756 0.519632,-0.7459628 1.143192,-1.6293479 l 1.133744,-1.6061548 0.329688,-4.096e-4 0.329688,-4.096e-4 0.01947,1.2825482 c 0.01071,0.7054016 0.01517,1.5950366 0.0099,1.9769667 -0.0053,0.3819302 -0.01252,0.5381743 -0.01613,0.3472092 l 0,0 z"
       id="path3103"
       inkscape:connector-curvature="0"
       transform="translate(0,1036.3622)" />
    <path
       style="fill:#008080;fill-opacity:0.24636727"
       d="m 12.963765,5.7912934 0,-0.3392237 -0.325633,-0.00799 -0.325633,-0.00799 0.339805,-0.4800279 0.339805,-0.4800278 0,0.827237 c 0,0.4549804 -0.0064,0.8272371 -0.01417,0.8272371 -0.0078,0 -0.01417,-0.1526508 -0.01417,-0.3392239 z"
       id="path3105"
       inkscape:connector-curvature="0"
       transform="translate(0,1036.3622)" />
    <path
       style="fill:#008080;fill-opacity:0.24636727"
       d="m 7.647558,7.7106734 -0.2816557,-0.290522 0.4929646,-0.00777 c 0.2711305,-0.00427 0.4982935,-0.00244 0.5048068,0.00407 0.014581,0.014581 -0.3915624,0.5847467 -0.4165289,0.5847467 -0.00986,0 -0.1446762,-0.1307349 -0.2995868,-0.290522 z"
       id="path3107"
       inkscape:connector-curvature="0"
       transform="translate(0,1036.3622)" />
    <path
       style="fill:#008080;fill-opacity:0.24636727"
       d="m 1.9966538,13.184533 0.00187,-0.379096 0.040064,0.148785 c 0.04629,0.171905 0.1314674,0.35024 0.2301492,0.48186 l 0.069064,0.09212 -0.08293,0 c -0.045612,0 -0.1227885,0.008 -0.1715041,0.01771 l -0.088574,0.01772 0.00187,-0.379096 z"
       id="path3109"
       inkscape:connector-curvature="0"
       transform="translate(0,1036.3622)" />
    <path
       style="fill:#008080;fill-opacity:0.24636727"
       d="m 2.0127239,11.785067 c 0.00567,-0.45208 0.010327,-1.647826 0.010356,-2.6572131 l 5.22e-5,-1.8352487 0.481216,0 0.4812159,0 0.00838,-0.5314427 c 0.00461,-0.2922934 0.011175,0.6993786 0.014596,2.2037156 0.00342,1.5043369 -0.00191,2.8212519 -0.011849,2.9264779 l -0.018069,0.191319 -0.4767164,0 -0.4767163,0 -0.011382,0.262178 c -0.00626,0.144199 -0.00675,-0.107705 -0.00108,-0.559786 l 0,0 z"
       id="path3111"
       inkscape:connector-curvature="0"
       transform="translate(0,1036.3622)" />
    <path
       style="fill:#008080;fill-opacity:0.24636727"
       d="m 2.0231321,5.6061605 0,-1.6864447 0.4960132,0 0.4960131,0 -1.275e-4,1.3675791 c -7.09e-5,0.7521685 -0.0084,1.5110686 -0.018502,1.6864447 l -0.018375,0.3188656 -0.4775108,0 -0.4775108,0 0,-1.6864447 z"
       id="path3113"
       inkscape:connector-curvature="0"
       transform="translate(0,1036.3622)" />
    <path
       style="fill:#008080;fill-opacity:0.24636727"
       d="m 2.0231321,3.5389223 c 0,-0.2094365 0.012439,-0.4135105 0.027642,-0.4534978 l 0.027642,-0.072704 0.468371,0 0.4683711,0 0,0.4534978 0,0.4534977 -0.4960131,0 -0.4960132,0 0,-0.3807935 z"
       id="path3115"
       inkscape:connector-curvature="0"
       transform="translate(0,1036.3622)" />
    <path
       style="fill:#008080;fill-opacity:0.24636727"
       d="m 2.0798193,2.9819514 c 0,-0.085459 0.2016529,-0.4230413 0.3296158,-0.5518013 C 2.5589385,2.2797154 2.7995768,2.1249198 2.9372135,2.0906456 l 0.077945,-0.01941 0,0.4564367 0,0.4564368 2.898134,0.00735 2.898134,0.00735 -3.3658036,0.00695 c -2.4061109,0.00497 -3.3658035,-0.00182 -3.3658035,-0.023818 z"
       id="path3117"
       inkscape:connector-curvature="0"
       transform="translate(0,1036.3622)" />
    <path
       style="fill:#008080;fill-opacity:0.24636727"
       d="m 3.0093946,2.5195498 -0.00841,-0.4648269 0.1244163,-0.017014 c 0.068429,-0.00936 1.9082834,-0.017014 4.0885655,-0.017014 l 3.9641496,0 0,0.4818414 0,0.4818413 -4.0801577,0 -4.0801577,0 -0.00841,-0.4648269 z"
       id="path3119"
       inkscape:connector-curvature="0"
       transform="translate(0,1036.3622)" />
    <path
       style="fill:#008080;fill-opacity:0.24636727"
       d="m 11.180355,2.4954495 -0.0022,-0.4747555 0.538443,0 0.538443,0 -0.316122,0.439326 -0.316121,0.4393259 -0.205788,0 c -0.13811,0 -0.210489,0.011652 -0.220084,0.035429 -0.0079,0.019486 -0.0153,-0.1782104 -0.01653,-0.4393259 z"
       id="path3121"
       inkscape:connector-curvature="0"
       transform="translate(0,1036.3622)" />
    <path
       style="fill:#008080;fill-opacity:0.24636727"
       d="M 12.992213,6.2368058 12.992317,4.4724162 13.291896,4.047262 C 13.74996,3.3971897 13.712163,3.4378745 13.858031,3.4378745 l 0.126104,0 0,2.2816604 0,2.2816605 -0.496013,0 -0.496013,0 1.04e-4,-1.7643896 z"
       id="path3123"
       inkscape:connector-curvature="0"
       transform="translate(0,1036.3622)" />
    <path
       style="fill:#008080;fill-opacity:0.24636727"
       d="m 12.992109,9.4608913 0,-1.4596959 0.496013,0 0.496013,0 0,1.4596959 0,1.4596957 -0.496013,0 -0.496013,0 0,-1.4596957 z"
       id="path3125"
       inkscape:connector-curvature="0"
       transform="translate(0,1036.3622)" />
    <path
       style="fill:#008080;fill-opacity:0.24636727"
       d="m 12.992109,12.082675 0,-1.162088 0.496013,0 0.496013,0 -6.93e-4,0.928253 c -6.87e-4,0.920968 -0.0138,1.084851 -0.103224,1.289634 l -0.04641,0.106289 -0.42085,0 -0.420849,0 0,-1.162088 z"
       id="path3127"
       inkscape:connector-curvature="0"
       transform="translate(0,1036.3622)" />
    <path
       style="fill:#008080;fill-opacity:0.24636727"
       d="m 12.992109,13.586796 0,-0.342033 0.410982,0 c 0.22604,0 0.410982,0.0073 0.410982,0.01615 0,0.03898 -0.174854,0.265018 -0.274981,0.355478 -0.113907,0.102908 -0.372368,0.259729 -0.48321,0.293187 -0.06368,0.01922 -0.06377,0.01873 -0.06377,-0.322783 z"
       id="path3129"
       inkscape:connector-curvature="0"
       transform="translate(0,1036.3622)" />
    <path
       style="fill:#008080;fill-opacity:0.24636727"
       d="M 3.1680851,13.952764 C 2.9403546,13.928747 2.6405549,13.796641 2.5139944,13.664541 l -0.076314,-0.07966 0.2887389,0 0.2887389,0 0,-0.170061 0,-0.170062 4.9716583,0 4.9716583,0 0.01952,0.262178 c 0.02805,0.376714 0.01834,0.428069 -0.08509,0.45001 -0.120533,0.02557 -9.4808673,0.02154 -9.7248209,-0.0042 l 0,0 z"
       id="path3131"
       inkscape:connector-curvature="0"
       transform="translate(0,1036.3622)" />
    <path
       style="fill:#008080;fill-opacity:0.24636727"
       d="M 2.3053567,13.45734 C 2.2573434,13.394984 2.1783649,13.261061 2.129849,13.159732 2.0494914,12.9919 2.0401494,12.942695 2.0249141,12.607032 2.0157159,12.404375 2.0129996,12.20349 2.018878,12.16062 l 0.010688,-0.07794 0.4767417,0 0.4767417,0 0.011808,-0.07794 c 0.00649,-0.04287 0.013719,0.287955 0.016054,0.735166 l 0.00425,0.81311 -0.3112524,0.0089 -0.3112524,0.0089 -0.087297,-0.113374 z"
       id="path3133"
       inkscape:connector-curvature="0"
       transform="translate(0,1036.3622)" />
    <path
       style="fill:#008080;fill-opacity:0.24636727"
       d="m 13.833189,3.2839761 c 0.118418,-0.1694558 0.149806,-0.1624827 0.150512,0.033438 l 4.34e-4,0.1204604 -0.129246,0 -0.129247,0 0.107547,-0.1538984 z"
       id="path3135"
       inkscape:connector-curvature="0"
       transform="translate(0,1036.3622)" />
  </g>
</svg>
