<?xml version="1.0" encoding="UTF-8" standalone="no"?>
<!-- Created with Inkscape (http://www.inkscape.org/) -->

<svg
   xmlns:dc="http://purl.org/dc/elements/1.1/"
   xmlns:cc="http://creativecommons.org/ns#"
   xmlns:rdf="http://www.w3.org/1999/02/22-rdf-syntax-ns#"
   xmlns:svg="http://www.w3.org/2000/svg"
   xmlns="http://www.w3.org/2000/svg"
   xmlns:xlink="http://www.w3.org/1999/xlink"
   xmlns:sodipodi="http://sodipodi.sourceforge.net/DTD/sodipodi-0.dtd"
   xmlns:inkscape="http://www.inkscape.org/namespaces/inkscape"
   width="16"
   height="16"
   id="svg814"
   version="1.1"
   inkscape:version="0.48.3.1 r9886"
   sodipodi:docname="checkbox-unchecked-insensitive.svg">
  <defs
     id="defs816">
    <linearGradient
       inkscape:collect="always"
       xlink:href="#linearGradient10354-2"
       id="linearGradient8378"
       gradientUnits="userSpaceOnUse"
       gradientTransform="translate(-1609.9926,-78.958432)"
       x1="1205.5752"
       y1="-186.45331"
       x2="1205.5752"
       y2="-202.34555" />
    <linearGradient
       id="linearGradient10354-2"
       inkscape:collect="always">
      <stop
         id="stop10356-2"
         offset="0"
         style="stop-color:#acbbcd;stop-opacity:1" />
      <stop
         id="stop10358-2"
         offset="1"
         style="stop-color:#e8e6df;stop-opacity:1" />
    </linearGradient>
    <linearGradient
       inkscape:collect="always"
       xlink:href="#linearGradient10332-5"
       id="linearGradient8380"
       gradientUnits="userSpaceOnUse"
       gradientTransform="matrix(0.84941206,0,0,0.84794288,-623.98415,-483.16392)"
       x1="260.92538"
       y1="233.77748"
       x2="260.92538"
       y2="248.97633" />
    <linearGradient
       inkscape:collect="always"
       id="linearGradient10332-5">
      <stop
         style="stop-color:#9fcecc;stop-opacity:1"
         offset="0"
         id="stop10334-5" />
      <stop
         style="stop-color:#82e6c2;stop-opacity:1"
         offset="1"
         id="stop10336-29" />
    </linearGradient>
    <linearGradient
       y2="-202.34555"
       x2="1205.5752"
       y1="-186.45331"
       x1="1205.5752"
       gradientTransform="translate(-1609.9926,-78.958432)"
       gradientUnits="userSpaceOnUse"
       id="linearGradient3951"
       xlink:href="#linearGradient10354-2"
       inkscape:collect="always" />
    <linearGradient
       y2="248.97633"
       x2="260.92538"
       y1="233.77748"
       x1="260.92538"
       gradientTransform="matrix(0.84941206,0,0,0.84794288,-623.98415,-483.16392)"
       gradientUnits="userSpaceOnUse"
       id="linearGradient3953"
       xlink:href="#linearGradient10332-5"
       inkscape:collect="always" />
    <linearGradient
       inkscape:collect="always"
       xlink:href="#linearGradient10332-5-8"
       id="linearGradient8390"
       gradientUnits="userSpaceOnUse"
       gradientTransform="matrix(0.84941206,0,0,0.84794288,-623.98415,-483.16392)"
       x1="260.92538"
       y1="233.77748"
       x2="260.92538"
       y2="248.97633" />
    <linearGradient
       id="linearGradient10332-5-8">
      <stop
         style="stop-color:#787878;stop-opacity:1;"
         offset="0"
         id="stop10334-5-6" />
      <stop
         style="stop-color:#858585;stop-opacity:1;"
         offset="1"
         id="stop10336-29-0" />
    </linearGradient>
    <linearGradient
       inkscape:collect="always"
       xlink:href="#linearGradient7346"
       id="linearGradient7352"
       x1="5.65625"
       y1="6.390625"
       x2="5.65625"
       y2="9.828125"
       gradientUnits="userSpaceOnUse" />
    <linearGradient
       inkscape:collect="always"
       id="linearGradient7346">
      <stop
         style="stop-color:#1969ba;stop-opacity:1"
         offset="0"
         id="stop7348" />
      <stop
         style="stop-color:#145393;stop-opacity:1"
         offset="1"
         id="stop7350" />
    </linearGradient>
    <linearGradient
       gradientTransform="translate(-0.03125,1036.331)"
       y2="9.828125"
       x2="5.65625"
       y1="6.390625"
       x1="5.65625"
       gradientUnits="userSpaceOnUse"
       id="linearGradient3432"
       xlink:href="#linearGradient7346"
       inkscape:collect="always" />
  </defs>
  <sodipodi:namedview
     id="base"
     pagecolor="#e8e6df"
     bordercolor="#666666"
     borderopacity="1.0"
     inkscape:pageopacity="0.0"
     inkscape:pageshadow="2"
     inkscape:zoom="25.671404"
     inkscape:cx="8.1934284"
     inkscape:cy="8.2411435"
     inkscape:document-units="px"
     inkscape:current-layer="layer1"
     showgrid="true"
     borderlayer="true"
     inkscape:showpageshadow="false"
     inkscape:window-width="1366"
     inkscape:window-height="744"
     inkscape:window-x="0"
     inkscape:window-y="24"
     inkscape:window-maximized="1">
    <inkscape:grid
       type="xygrid"
       id="grid4084"
       empspacing="5"
       visible="true"
       enabled="true"
       snapvisiblegridlinesonly="true" />
  </sodipodi:namedview>
  <metadata
     id="metadata819">
    <rdf:RDF>
      <cc:Work
         rdf:about="">
        <dc:format>image/svg+xml</dc:format>
        <dc:type
           rdf:resource="http://purl.org/dc/dcmitype/StillImage" />
        <dc:title />
      </cc:Work>
    </rdf:RDF>
  </metadata>
  <g
     inkscape:label="Layer 1"
     inkscape:groupmode="layer"
     id="layer1"
     transform="translate(0,-1036.3622)">
    <rect
       transform="scale(1,-1)"
       style="opacity:0.5;color:#1a1a1c;fill:none;stroke:#787878;stroke-width:1.16348588;stroke-opacity:1;marker:none;visibility:visible;display:inline;overflow:visible;enable-background:accumulate"
       id="rect16897"
       width="12.836514"
       height="12.836514"
       x="1.581743"
       y="-1050.7806"
       rx="1.8722787"
       ry="1.875522" />
    <path
       style="fill:#ff7f2a;fill-opacity:0.24636727"
       d="M 3.1439977,14.954073 C 2.2042057,14.824659 1.4771597,14.207089 1.1217913,13.236361 1.0310808,12.988575 1.0290864,12.878115 1.0278778,8.0350332 L 1.0266429,3.0868673 1.1282962,2.7646612 C 1.3773024,1.975396 2.0117649,1.3490992 2.7868623,1.1274413 c 0.2983643,-0.085325 0.507165,-0.088885 5.2132424,-0.088885 4.7060773,0 4.9148783,0.00356 5.2132423,0.088885 0.775098,0.2216579 1.40956,0.8479547 1.658566,1.6372199 l 0.101653,0.3222061 -0.0014,4.9481659 c -0.0014,4.8390488 -0.0035,4.9537488 -0.09391,5.2013278 -0.303482,0.830807 -0.845457,1.374992 -1.634121,1.640785 -0.235284,0.0793 -0.531898,0.08453 -5.105902,0.09006 -2.6708589,0.0032 -4.9182468,-0.0027 -4.9941954,-0.01314 l -9e-7,0 z M 13.066409,13.73759 c 0.331509,-0.155477 0.569659,-0.404297 0.686915,-0.717693 0.09244,-0.247072 0.09359,-0.318767 0.08163,-5.091815 L 13.82283,3.0868673 13.71514,2.8797348 C 13.569383,2.5993858 13.406637,2.434289 13.132388,2.2885672 l -0.230147,-0.1222889 -4.9021363,0 -4.9021365,0 L 2.867821,2.2885672 C 2.593573,2.434289 2.4308267,2.5993858 2.2850699,2.8797348 L 2.1773792,3.0868673 2.1652514,7.928082 c -0.011957,4.773048 -0.010808,4.844743 0.081634,5.091815 0.1624745,0.434252 0.5550482,0.744083 1.0342302,0.816244 0.1271148,0.01914 2.3231564,0.03184 4.8800924,0.02821 l 4.6489742,-0.0066 0.256227,-0.120169 z"
       id="path3017"
       inkscape:connector-curvature="0"
       transform="translate(0,1036.3622)" />
    <path
       style="fill:#ff7f2a;fill-opacity:0.24636727"
       d="M 3.0059093,14.908146 C 1.9979814,14.682323 1.2017786,13.84487 1.0914885,12.894542 1.0707049,12.715457 1.0527906,10.430373 1.0516789,7.8165766 1.0496619,3.0741038 1.049863,3.0636258 1.1483775,2.7789602 1.3836808,2.0990318 1.8489168,1.568896 2.4645258,1.2792111 L 2.8217915,1.1110939 5.4109481,1.0761079 c 1.4240361,-0.019242 3.7542771,-0.019242 5.1783129,0 l 2.589157,0.034986 0.357266,0.1681172 c 0.615609,0.2896849 1.080844,0.8198207 1.316148,1.4997491 0.09852,0.2846671 0.09872,0.2950717 0.09624,5.0146016 -0.0014,2.6011382 -0.01943,4.8908762 -0.04013,5.0883062 -0.105018,1.001199 -1.001282,1.91313 -1.981563,2.016203 -0.356416,0.03748 -9.7555598,0.04702 -9.9204637,0.01008 l 0,0 z M 13.048512,13.76447 c 0.284962,-0.142002 0.53363,-0.377008 0.671138,-0.634266 L 13.82283,12.93717 13.83515,8.0235986 13.84747,3.1100279 13.735159,2.8883943 C 13.608179,2.6378106 13.340157,2.3765417 13.067252,2.2373161 12.885021,2.1443487 12.826558,2.1432636 8.0001047,2.1432636 c -4.8264528,0 -4.8849163,0.00109 -5.0671474,0.094053 C 2.660596,2.3762645 2.3921045,2.6376644 2.2658624,2.8867911 l -0.1114979,0.2200306 0.00202,4.84613 c 0.00165,3.9585723 0.013453,4.8781813 0.064443,5.0211343 0.1636141,0.458698 0.5767136,0.801531 1.0382433,0.861644 0.1392391,0.01814 2.3463121,0.03569 4.9046064,0.03901 l 4.6514443,0.006 0.23339,-0.116303 0,0 z"
       id="path3019"
       inkscape:connector-curvature="0"
       transform="translate(0,1036.3622)" />
    <path
       style="fill:#ff7f2a;fill-opacity:0.24636727"
       d="M 2.6664687,14.776051 C 1.8801676,14.473575 1.2803975,13.783615 1.1479864,13.029229 1.0886781,12.691332 1.0564147,7.9972527 1.0927621,4.9945251 L 1.1187018,2.8515912 1.2987886,2.4859201 C 1.5457591,1.9844396 1.9957354,1.5345299 2.4971981,1.2876877 l 0.3658484,-0.1800868 5.1370582,0 5.1370583,0 0.356469,0.1761767 c 0.618943,0.3058983 1.119422,0.8674157 1.330564,1.49284 0.08142,0.2411769 0.08563,0.4958259 0.085,5.1381085 -4.79e-4,3.4885859 -0.01573,4.9566999 -0.05338,5.1375169 -0.126211,0.606163 -0.635814,1.289972 -1.174516,1.576023 -0.516945,0.274497 -0.317221,0.265363 -5.7483989,0.262905 L 2.9598799,14.888922 2.6664687,14.776051 z M 13.054146,13.777207 c 0.263307,-0.131094 0.572336,-0.429398 0.696047,-0.671891 0.09509,-0.186394 0.09565,-0.216464 0.09565,-5.1284815 l 0,-4.940988 -0.130358,-0.2046368 C 13.55592,2.5807192 13.244375,2.2945969 13.036725,2.2078351 12.907403,2.1538013 12.084311,2.1432636 7.9931009,2.1432636 c -4.7841739,0 -4.8930978,0.00196 -5.0762252,0.091419 C 2.6796246,2.3505796 2.4549023,2.5619475 2.2863313,2.8277564 l -0.1319668,0.2080901 0,4.8617557 c 0,5.3408828 -0.010202,5.1396458 0.2782433,5.4883998 0.1761654,0.212999 0.4760354,0.39316 0.7411601,0.445288 0.1102074,0.02167 2.3315733,0.04167 4.9363688,0.04444 l 4.7359923,0.005 0.208017,-0.103566 z"
       id="path3021"
       inkscape:connector-curvature="0"
       transform="translate(0,1036.3622)" />
    <path
       style="fill:#ff7f2a;fill-opacity:0.24636727"
       d="M 2.7454972,14.784124 C 1.9101631,14.440535 1.3758431,13.864187 1.1825817,13.098273 1.1300429,12.890057 1.1187018,11.958455 1.1187018,7.8509154 l 0,-4.9941953 0.1841178,-0.3434202 C 1.5482411,2.055535 2.0262412,1.5704572 2.4765706,1.3221693 L 2.8217915,1.1318327 7.9933738,1.1312242 13.164956,1.1306157 13.493893,1.3012 c 0.451637,0.2342153 0.974555,0.7572386 1.182859,1.1830952 0.153036,0.312868 0.156084,0.3311266 0.188301,1.1277216 0.04051,1.001602 0.04067,6.5185812 2.3e-4,8.2689982 l -0.02982,1.291346 -0.17797,0.359964 c -0.239676,0.48477 -0.681197,0.936645 -1.112294,1.13838 l -0.314034,0.146954 -1.246162,0.03489 c -0.68537,0.01919 -2.9860562,0.03574 -5.1126168,0.03679 l -3.8664739,0.0019 -0.2604121,-0.107112 0,0 z M 13.207117,13.685148 c 0.160627,-0.108275 0.362881,-0.297721 0.452961,-0.424276 l 0.162752,-0.228651 0.01284,-4.9726766 c 0.0071,-2.7349725 0.0017,-5.0182469 -0.01181,-5.0739434 -0.0381,-0.1565363 -0.531772,-0.6629565 -0.737506,-0.756553 -0.174353,-0.07932 -0.4441,-0.083763 -5.0862543,-0.083763 -4.7121867,0 -4.9092707,0.00337 -5.0862543,0.087034 -0.2337309,0.1104861 -0.3861584,0.24502 -0.594103,0.5243604 l -0.1653829,0.2221656 5.463e-4,4.8871036 c 4.603e-4,4.1051363 0.011146,4.9269313 0.066794,5.1360193 0.1069677,0.401919 0.5199715,0.758296 0.9683227,0.835556 0.1012648,0.01745 2.3312392,0.03432 4.9554985,0.03749 l 4.7713814,0.0058 0.29021,-0.195625 z"
       id="path3023"
       inkscape:connector-curvature="0"
       transform="translate(0,1036.3622)" />
    <path
       style="fill:#ff7f2a;fill-opacity:0.24636727"
       d="M 2.7808108,14.778496 C 1.9028572,14.421669 1.2989218,13.739638 1.188375,12.980142 1.1665106,12.829926 1.1468865,10.484272 1.1447658,7.7675782 L 1.1409099,2.8281337 1.3325791,2.497206 C 1.5908073,2.0513605 2.1291626,1.5241699 2.5523458,1.3027352 l 0.3289373,-0.1721195 5.1255525,2.4e-6 5.1255524,2.5e-6 0.382174,0.2158489 c 0.260487,0.1471217 0.480327,0.3196221 0.690442,0.541765 0.425964,0.4503496 0.556508,0.7091101 0.610467,1.2100465 0.04839,0.449272 0.06236,8.695236 0.01619,9.562712 -0.02764,0.519443 -0.03938,0.571205 -0.196908,0.868743 -0.250426,0.472993 -0.664352,0.896948 -1.083391,1.109641 l -0.34628,0.175763 -1.670393,0.01595 c -0.918717,0.0088 -3.2079963,0.02336 -5.087289,0.03242 l -3.416895,0.01647 -0.2496962,-0.101484 0,0 z M 13.24129,13.674552 c 0.154073,-0.113422 0.352614,-0.305019 0.441202,-0.425772 l 0.161071,-0.219551 -4.88e-4,-5.0172105 C 13.842692,4.1100237 13.829912,2.9720052 13.785581,2.8922198 13.709588,2.755453 13.412625,2.4447786 13.210541,2.2906292 L 13.047522,2.1662783 8.0680225,2.1539725 3.0885228,2.1416666 2.8402122,2.2713856 C 2.6785654,2.3558309 2.5155484,2.4958806 2.373133,2.6726585 l -0.2187685,0.2715539 0,4.8906466 c 0,3.404058 0.0155,4.962923 0.050994,5.128422 0.080043,0.373228 0.4559469,0.743879 0.8667779,0.854664 0.15951,0.04301 1.3726379,0.05736 5.049486,0.05972 l 4.839536,0.0031 0.280132,-0.206221 0,0 z"
       id="path3025"
       inkscape:connector-curvature="0"
       transform="translate(0,1036.3622)" />
    <path
       style="fill:#ff7f2a;fill-opacity:0.24636727"
       d="M 2.5755217,14.663236 C 2.0414078,14.393072 1.6099023,13.979645 1.3829194,13.520601 L 1.2107607,13.172432 1.1812912,11.351711 C 1.165083,10.350315 1.1495481,8.0288082 1.1467692,6.1928081 L 1.1417166,2.8546255 1.3141894,2.5564814 C 1.5429731,2.1609957 2.1418224,1.5621047 2.5482922,1.3222928 l 0.3248836,-0.1916771 5.1318439,0 5.1318443,0 0.355262,0.2191788 c 0.489812,0.3021903 0.967138,0.7851095 1.14825,1.1617047 l 0.143887,0.2991914 0.03333,1.2197804 c 0.04432,1.6215981 0.04376,6.948812 -8.61e-4,8.193242 -0.03378,0.942287 -0.04123,1.000644 -0.155618,1.219781 -0.276589,0.529864 -0.663719,0.934433 -1.140654,1.192036 l -0.328687,0.177531 -5.1159474,0.0223 -5.1159497,0.02229 -0.3843582,-0.194415 z M 13.270669,13.661804 c 0.149491,-0.120432 0.340062,-0.308462 0.423489,-0.417843 l 0.151687,-0.198874 -0.0016,-5.0251394 C 13.842962,4.1643278 13.829572,2.9722855 13.786677,2.898033 13.700923,2.7495883 13.522182,2.5542926 13.274931,2.3388887 L 13.050383,2.1432636 8.051161,2.1436955 3.0519388,2.1441275 2.8156812,2.2796326 C 2.6857396,2.3541604 2.4837853,2.5270835 2.3668941,2.6639062 l -0.2125296,0.2487685 0,4.9216651 c 0,5.2842672 -0.00195,5.2379832 0.2334334,5.5286732 0.1686965,0.20833 0.5054472,0.422427 0.7353044,0.467485 0.1127573,0.0221 2.3809322,0.04246 5.040389,0.04523 l 4.8353757,0.005 0.271802,-0.218969 z"
       id="path3027"
       inkscape:connector-curvature="0"
       transform="translate(0,1036.3622)" />
    <path
       style="fill:#ff7f2a;fill-opacity:0.24636727"
       d="M 2.6245869,14.670521 C 1.9982315,14.331445 1.6907622,14.037087 1.388449,13.487096 L 1.2129108,13.167743 1.1711342,8.0284248 1.1293576,2.8891074 1.3045283,2.6007454 C 1.6075569,2.1019064 2.1896392,1.5393852 2.7208563,1.2320135 l 0.1752415,-0.1013978 5.1040069,0 5.1040073,0 0.175241,0.1013978 c 0.590601,0.3417323 1.122236,0.8557549 1.350788,1.3060367 l 0.150942,0.2973808 0.03791,2.7493968 c 0.02085,1.5121685 0.02002,3.8337301 -0.0018,5.1590262 l -0.03975,2.409631 -0.176366,0.347469 c -0.217524,0.428556 -0.620765,0.849648 -1.058006,1.104842 l -0.318583,0.185941 -5.1322834,0.03015 -5.1322837,0.03015 -0.335293,-0.181509 z M 13.453019,13.497555 13.845845,13.114337 13.845661,8.0545723 C 13.845476,2.2597766 13.900903,2.9225407 13.374383,2.4191235 L 13.086359,2.1437374 8.050164,2.1435005 3.0139688,2.1432636 2.7898675,2.287069 C 2.6666117,2.366162 2.4732008,2.5366906 2.3600653,2.6660214 l -0.2057008,0.2351469 0.00113,4.9259416 c 7.31e-4,3.2004591 0.017681,4.9984971 0.048389,5.1330741 0.094382,0.413626 0.4887465,0.785584 0.9235198,0.871048 0.1103943,0.0217 2.3904345,0.04172 5.0667561,0.0445 l 4.8660393,0.005 0.392825,-0.383218 z"
       id="path3029"
       inkscape:connector-curvature="0"
       transform="translate(0,1036.3622)" />
    <path
       style="fill:#00ffff;fill-opacity:0.24636727"
       d="M 2.5575085,14.622308 C 2.0609523,14.339037 1.6528243,13.942688 1.4070786,13.505081 L 1.2323755,13.193982 1.2080908,11.343142 C 1.1947342,10.325181 1.1815872,7.9906397 1.1788754,6.1552738 L 1.1739447,2.8182444 1.3672523,2.5292256 C 1.6953415,2.0386915 2.3503485,1.4306186 2.7983335,1.2006875 2.9120849,1.1423038 3.3693194,1.1367021 8.0210463,1.1367021 l 5.0980477,0 0.352492,0.2322191 c 0.437074,0.2879407 0.902399,0.7508813 1.115819,1.110101 l 0.161956,0.2725977 0.02658,0.643572 c 0.03499,0.8471532 0.0343,8.3236561 -8.46e-4,9.1744651 l -0.02736,0.662215 -0.171618,0.292154 c -0.09439,0.160685 -0.233462,0.366501 -0.309048,0.45737 -0.168284,0.202307 -0.537478,0.504865 -0.815793,0.668549 l -0.207372,0.121961 -1.448167,0.01863 c -0.796493,0.01025 -3.1134448,0.0265 -5.1487834,0.03611 l -3.7006157,0.01748 -0.3888364,-0.22182 z M 13.29237,13.664443 c 0.137182,-0.126304 0.323921,-0.316175 0.414976,-0.421934 l 0.165554,-0.192291 0,-4.9833359 c 0,-4.957452 -4.19e-4,-4.9842272 -0.08059,-5.1547892 C 13.706435,2.7294072 13.188129,2.1911748 13.04825,2.1394303 13.002204,2.1223966 10.745496,2.1106486 8.0333448,2.1133236 2.3311801,2.1189477 2.971941,2.0656133 2.4484238,2.5781899 l -0.3031518,0.2968166 0.010998,5.0420946 0.010998,5.0420939 0.1097755,0.223551 c 0.1224244,0.249308 0.3373267,0.447433 0.6334506,0.583997 l 0.1916663,0.08839 2.9799695,0.02112 c 1.6389832,0.01161 3.8756602,0.02038 4.9703932,0.01948 l 1.990424,-0.0016 0.249423,-0.229645 0,1e-6 z"
       id="path3010"
       inkscape:connector-curvature="0"
       transform="translate(0,1036.3622)" />
    <path
       style="fill:#00ffff;fill-opacity:0.24636727"
       d="M 2.6055193,14.627282 C 2.0155719,14.260186 1.7205039,13.970789 1.403616,13.44848 L 1.2632257,13.217082 1.23845,11.977954 C 1.2248234,11.296434 1.2097314,8.9539824 1.2049124,6.7725069 L 1.1961505,2.8061879 1.423898,2.4979328 C 1.6975849,2.127499 2.2286945,1.6070933 2.5763532,1.368704 L 2.8294833,1.1951328 5.4393912,1.1707945 C 6.8748406,1.1574084 9.1886993,1.14468 10.581299,1.1425091 l 2.532001,-0.00395 0.362304,0.2590046 c 0.418732,0.2993435 0.940536,0.8328794 1.137419,1.1629927 l 0.136338,0.2285986 0.0127,4.7149572 c 0.007,2.5932259 7.48e-4,4.9483649 -0.01386,5.2336409 l -0.02657,0.518683 -0.261934,0.396732 c -0.278771,0.422233 -0.498141,0.635665 -0.960834,0.934824 l -0.276652,0.178873 -5.1574095,0.02413 -5.1574095,0.02413 -0.3018717,-0.187841 z m 10.8652957,-1.119718 0.402085,-0.406 -2.18e-4,-4.9793694 C 13.872526,4.9173837 13.85856,3.0927674 13.833448,3.0023641 13.786704,2.8340863 13.350756,2.3111372 13.157808,2.1918888 L 13.020425,2.1069816 8.0223388,2.1187663 C 2.2814151,2.1323026 2.913583,2.0828028 2.4304598,2.5566196 l -0.289882,0.2842981 0.00533,5.0768849 0.00533,5.0768844 0.1156883,0.202203 c 0.1326358,0.231823 0.3484745,0.43994 0.5900188,0.568911 0.1643597,0.08776 0.1947781,0.08969 1.7254631,0.109682 0.8569847,0.01119 3.1169924,0.02434 5.0222388,0.02922 l 3.4640857,0.0089 0.402084,-0.406001 z"
       id="path3012"
       inkscape:connector-curvature="0"
       transform="translate(0,1036.3622)" />
    <path
       style="fill:#00ffff;fill-opacity:0.24636727"
       d="M 2.5219982,14.544311 C 2.0644505,14.239238 1.7467778,13.930039 1.4917093,13.541505 L 1.301966,13.252479 1.2776862,12.83316 C 1.2643322,12.602535 1.2416202,10.255505 1.2272149,7.617537 L 1.2010236,2.8212324 1.3916266,2.5730134 C 1.6912686,2.182795 2.1386351,1.7313472 2.4861407,1.4685142 L 2.8050134,1.2273374 4.2390639,1.2015542 c 0.7887277,-0.014181 3.1141113,-0.025809 5.1675187,-0.025841 l 3.7334684,-5.75e-5 0.36208,0.2721456 c 0.406806,0.305762 0.833718,0.7437672 1.070427,1.0982412 l 0.15843,0.237251 -0.01029,5.2300417 -0.01029,5.2300416 -0.233545,0.343807 c -0.285434,0.420196 -0.531674,0.670028 -0.932503,0.946107 l -0.305923,0.210711 -1.055891,0.01307 c -0.58074,0.0072 -2.9063484,0.01933 -5.1680175,0.02697 l -4.1121257,0.0139 -0.3804036,-0.253637 0,0 z m 10.9716738,-1.0378 0.380373,-0.406089 -0.01031,-5.0595607 -0.01031,-5.0595602 -0.11392,-0.1724379 C 13.589432,2.5817044 13.216574,2.1923481 13.093823,2.134612 13.020044,2.0999106 11.78778,2.0938669 8.0103453,2.1096803 L 3.0242526,2.1305533 2.8266084,2.2197797 C 2.7072178,2.2736787 2.5237682,2.4150146 2.3632716,2.5767506 l -0.2656928,0.2677443 0.028143,5.0963041 0.028143,5.096304 0.091068,0.157156 c 0.1063485,0.183525 0.4175332,0.484927 0.607642,0.588539 0.1822345,0.09932 0.8647007,0.113111 6.0537088,0.122329 l 4.2070162,0.0075 0.380372,-0.406089 0,0 z"
       id="path3014"
       inkscape:connector-curvature="0"
       transform="translate(0,1036.3622)" />
    <path
       style="fill:#00ffff;fill-opacity:0.24636727"
       d="M 2.5373294,14.534828 C 1.9844964,14.146168 1.4206159,13.529191 1.3302434,13.214081 1.3115583,13.148929 1.276141,10.789536 1.2515385,7.9709832 L 1.2068065,2.8463428 1.3721119,2.6245225 C 1.5878334,2.3350497 2.2992041,1.6249302 2.5926202,1.406161 l 0.2305831,-0.1719214 5.1354319,-0.03392 5.1354318,-0.033919 0.298615,0.2247556 c 0.435289,0.3276247 0.861862,0.7492118 1.109555,1.0965856 l 0.217121,0.3044988 -0.01721,5.2198158 -0.01721,5.2198155 -0.209573,0.31354 c -0.264699,0.396017 -0.505083,0.646858 -0.901717,0.940944 l -0.313374,0.232353 -2.313332,0.02588 c -1.2723335,0.01424 -3.6104963,0.02524 -5.195918,0.02445 l -2.8825848,-0.0014 -0.3311078,-0.23278 0,-1e-6 z m 10.9752476,-1.014414 0.360323,-0.384847 0,-5.0797318 0,-5.0797317 -0.168595,-0.2282699 C 13.496932,2.4670593 13.182698,2.1529415 13.062969,2.1067344 13.011738,2.086963 10.845113,2.0822777 7.9794915,2.0957416 L 2.9852987,2.1192063 2.8100064,2.2137082 C 2.7135956,2.2656842 2.5084873,2.4258816 2.3542102,2.5697023 l -0.2805039,0.2614922 0.03316,5.1146483 0.03316,5.1146482 0.096327,0.144121 c 0.1307532,0.19563 0.3534629,0.418344 0.5453146,0.545325 0.1472662,0.09747 0.1977703,0.106846 0.687685,0.127656 0.2908105,0.01235 2.5884311,0.02363 5.1058236,0.02506 l 4.5770769,0.0026 0.360324,-0.384846 0,2e-6 z"
       id="path3016"
       inkscape:connector-curvature="0"
       transform="translate(0,1036.3622)" />
    <path
       style="fill:#00ffff;fill-opacity:0.24636727"
       d="M 2.7515756,14.667701 C 2.2323888,14.315946 1.5689152,13.663247 1.4128085,13.350673 1.3242566,13.173366 1.3407273,13.982459 1.2345689,4.5949428 L 1.2148685,2.8528446 1.4464533,2.564968 C 1.7055797,2.2428553 2.4416261,1.5236811 2.6764248,1.3631909 l 0.1530585,-0.104619 2.7852003,-0.0221 c 1.5318601,-0.012155 3.8384733,-0.032173 5.1258074,-0.044486 l 2.340607,-0.022386 0.308255,0.2416934 c 0.425645,0.3337355 0.798916,0.702354 1.074122,1.0607338 l 0.232717,0.3030483 -0.01237,5.2283982 -0.01237,5.2283982 -0.13304,0.19477 c -0.281965,0.412796 -0.536792,0.692557 -0.883095,0.969502 l -0.359618,0.287593 -0.870277,0.023 c -0.478653,0.01265 -2.8160232,0.0328 -5.1941557,0.04476 L 2.907391,14.773267 2.7515756,14.667701 z m 10.7675714,-1.133548 0.353753,-0.379412 0,-5.1043815 0,-5.1043822 L 13.619925,2.626055 C 13.480789,2.4500977 13.29235,2.251196 13.201171,2.1840511 L 13.035392,2.0619695 7.9968805,2.0832181 2.9583688,2.1044666 2.7541798,2.2400405 C 2.6418759,2.3146061 2.4399614,2.4774822 2.3054809,2.6019874 L 2.060971,2.8283605 2.0887181,7.9327317 c 0.024726,4.5486943 0.034432,5.1149733 0.08915,5.2017563 0.1223878,0.194104 0.3332307,0.422187 0.5267695,0.569842 0.1938129,0.147863 0.2056919,0.151244 0.6092255,0.173382 0.2263571,0.01242 2.5355524,0.02556 5.1315449,0.02921 l 4.7199866,0.0066 0.353752,-0.379412 z"
       id="path3018"
       inkscape:connector-curvature="0"
       transform="translate(0,1036.3622)" />
    <path
       style="fill:#00ffff;fill-opacity:0.24636727"
       d="M 2.5279652,14.475832 C 2.0972792,14.141961 1.6176585,13.653514 1.4685277,13.396897 L 1.3606911,13.211338 1.3246618,10.631174 C 1.3048456,9.212084 1.2750932,6.8853164 1.2585452,5.4605794 L 1.2284579,2.8701484 1.412739,2.6364253 C 1.6376884,2.3511227 2.4093604,1.5867854 2.6669132,1.3941721 l 0.1880145,-0.1406085 1.7596779,-0.0014 c 0.967823,-7.672e-4 3.2670701,-0.017141 5.109438,-0.036387 l 3.3497604,-0.034992 0.212765,0.162987 c 0.341685,0.2617444 0.954283,0.8662232 1.190801,1.1750184 l 0.218462,0.2852217 -0.02576,5.2139276 -0.02576,5.2139276 -0.181195,0.270072 c -0.208172,0.310284 -0.622483,0.741454 -0.956985,0.995928 l -0.230419,0.175293 -2.18471,0.02614 c -1.2015916,0.01438 -3.5386761,0.03289 -5.1935217,0.04114 l -3.0088107,0.015 -0.3606974,-0.279615 0,0 z m 11.0040878,-0.929971 0.340847,-0.366069 0,-5.1310371 0,-5.1310369 -0.214026,-0.2648949 C 13.541161,2.507131 13.358161,2.3132565 13.252208,2.221991 L 13.059567,2.0560537 8.0224327,2.0664298 2.9852987,2.0768057 2.8294833,2.1772419 c -0.085699,0.05524 -0.300949,0.2229308 -0.4783344,0.3726465 l -0.3225191,0.2722105 0.020341,0.9199633 c 0.011187,0.5059798 0.029892,2.8021155 0.041565,5.1025242 0.018263,3.5990036 0.029317,4.1982106 0.079227,4.2947256 0.069251,0.133917 0.457026,0.535595 0.6187923,0.640978 0.072065,0.04695 0.2172572,0.08339 0.3895385,0.09776 0.1510584,0.0126 2.4658057,0.02538 5.1438829,0.0284 l 4.8692309,0.0055 0.340846,-0.36607 0,0 z"
       id="path3020"
       inkscape:connector-curvature="0"
       transform="translate(0,1036.3622)" />
    <path
       style="fill:#00ffff;fill-opacity:0.24636727"
       d="M 2.5957602,14.511941 C 2.1982421,14.193955 1.6959218,13.692782 1.523901,13.44253 L 1.3741636,13.224695 1.3069845,8.1032884 C 1.2700359,5.2865145 1.2517933,2.9341178 1.2664452,2.87574 1.2964469,2.7562037 2.3450511,1.662905 2.670564,1.4117736 l 0.2050696,-0.15821 2.8789866,-0.00521 c 1.5834428,-0.00286 3.8781529,-0.016012 5.0993558,-0.029215 l 2.22037,-0.024006 0.272677,0.2193238 c 0.320221,0.2575658 1.084396,1.0394864 1.233285,1.261925 l 0.103624,0.1548129 -0.02572,5.2012372 -0.02572,5.2012373 -0.192649,0.271779 c -0.214605,0.302752 -0.774814,0.874898 -1.022116,1.043894 l -0.160823,0.109901 -3.3828836,0.03471 c -1.8605859,0.01909 -4.1979925,0.03502 -5.1942372,0.03541 l -1.811354,7.05e-4 -0.272677,-0.218122 0,-10e-7 z m 10.9427868,-0.956692 0.334353,-0.358315 0,-5.1506655 0,-5.1506657 L 13.768848,2.766014 C 13.711621,2.6947402 13.531946,2.4991252 13.369572,2.3313139 L 13.074346,2.0262024 8.0103453,2.0529731 2.9463449,2.0797437 2.5957602,2.3487731 C 2.4029387,2.4967393 2.1952879,2.6620396 2.1343141,2.7161072 l -0.1108614,0.098305 0.045446,5.106315 c 0.024996,2.8084731 0.060355,5.1455291 0.078578,5.1934571 0.047133,0.123969 0.4470109,0.546439 0.6167697,0.651616 0.078729,0.04878 0.2307908,0.09951 0.3379139,0.112741 0.107123,0.01323 2.4239036,0.02652 5.1484017,0.02954 l 4.953633,0.0055 0.334352,-0.358316 z"
       id="path3022"
       inkscape:connector-curvature="0"
       transform="translate(0,1036.3622)" />
    <path
       style="fill:#00ffff;fill-opacity:0.24636727"
       d=""
       id="path3024"
       inkscape:connector-curvature="0"
       transform="translate(0,1036.3622)" />
  </g>
</svg>
