<?xml version="1.0" encoding="UTF-8" standalone="no"?>
<!-- Created with Inkscape (http://www.inkscape.org/) -->

<svg
   xmlns:dc="http://purl.org/dc/elements/1.1/"
   xmlns:cc="http://creativecommons.org/ns#"
   xmlns:rdf="http://www.w3.org/1999/02/22-rdf-syntax-ns#"
   xmlns:svg="http://www.w3.org/2000/svg"
   xmlns="http://www.w3.org/2000/svg"
   xmlns:sodipodi="http://sodipodi.sourceforge.net/DTD/sodipodi-0.dtd"
   xmlns:inkscape="http://www.inkscape.org/namespaces/inkscape"
   width="12"
   height="12"
   id="svg27352"
   version="1.1"
   inkscape:version="0.48.3.1 r9886"
   sodipodi:docname="radio-menuitem-checked-insensitive.svg">
  <defs
     id="defs27354" />
  <sodipodi:namedview
     id="base"
     pagecolor="#e8e6df"
     bordercolor="#666666"
     borderopacity="1.0"
     inkscape:pageopacity="0.0"
     inkscape:pageshadow="2"
     inkscape:zoom="13.114912"
     inkscape:cx="-8.3079209"
     inkscape:cy="8"
     inkscape:current-layer="layer1"
     showgrid="true"
     inkscape:grid-bbox="true"
     inkscape:document-units="px"
     inkscape:window-width="1366"
     inkscape:window-height="744"
     inkscape:window-x="0"
     inkscape:window-y="24"
     inkscape:window-maximized="1" />
  <metadata
     id="metadata27357">
    <rdf:RDF>
      <cc:Work
         rdf:about="">
        <dc:format>image/svg+xml</dc:format>
        <dc:type
           rdf:resource="http://purl.org/dc/dcmitype/StillImage" />
        <dc:title />
      </cc:Work>
    </rdf:RDF>
  </metadata>
  <g
     id="layer1"
     inkscape:label="Layer 1"
     inkscape:groupmode="layer"
     transform="translate(0,-4)">
    <path
       sodipodi:type="arc"
       style="color:#1a1a1c;fill:#a3a89c;fill-opacity:1;fill-rule:nonzero;stroke:none;stroke-width:1.27423298000000007;marker:none;visibility:visible;display:inline;overflow:visible;enable-background:accumulate;opacity:0.5"
       id="path5784-4"
       sodipodi:cx="660.96808"
       sodipodi:cy="255.0668"
       sodipodi:rx="4.5078058"
       sodipodi:ry="7.2937827"
       d="m 665.47588,255.0668 c 0,4.02825 -2.01821,7.29379 -4.5078,7.29379 -2.48959,0 -4.50781,-3.26554 -4.50781,-7.29379 0,-4.02824 2.01822,-7.29378 4.50781,-7.29378 2.48959,0 4.5078,3.26554 4.5078,7.29378 z"
       transform="matrix(0.77643096,0,0,0.47986074,-508.19608,-110.89654)" />
    <path
       style="fill:#008080;fill-opacity:0.24636727"
       d="M 4.0646147,10.826335 C 2.5495834,10.347461 1.5849289,9.0768007 1.5739471,7.5455822 1.5628607,5.9997871 2.4648666,4.7292894 3.933966,4.221437 4.4661342,4.0374719 5.4219186,4.021307 5.9590389,4.1871873 7.114121,4.5439145 8.0379841,5.4935038 8.3332882,6.6275508 8.8015126,8.4256576 7.7346078,10.294112 5.9406302,10.817776 5.4518944,10.960439 4.5025864,10.96477 4.0646147,10.826335 z"
       id="path2983"
       inkscape:connector-curvature="0"
       transform="translate(0,4)" />
  </g>
</svg>
