<?xml version="1.0" encoding="UTF-8" standalone="no"?>
<!-- Created with Inkscape (http://www.inkscape.org/) -->

<svg
   xmlns:dc="http://purl.org/dc/elements/1.1/"
   xmlns:cc="http://creativecommons.org/ns#"
   xmlns:rdf="http://www.w3.org/1999/02/22-rdf-syntax-ns#"
   xmlns:svg="http://www.w3.org/2000/svg"
   xmlns="http://www.w3.org/2000/svg"
   xmlns:sodipodi="http://sodipodi.sourceforge.net/DTD/sodipodi-0.dtd"
   xmlns:inkscape="http://www.inkscape.org/namespaces/inkscape"
   width="12"
   height="12"
   id="svg27352"
   version="1.1"
   inkscape:version="0.48.3.1 r9886"
   sodipodi:docname="radio-menuitem-checked.svg">
  <defs
     id="defs27354" />
  <sodipodi:namedview
     id="base"
     pagecolor="#e8e6df"
     bordercolor="#666666"
     borderopacity="1.0"
     inkscape:pageopacity="0.0"
     inkscape:pageshadow="2"
     inkscape:zoom="26.229825"
     inkscape:cx="-0.15396047"
     inkscape:cy="4.1097698"
     inkscape:current-layer="layer1"
     showgrid="true"
     inkscape:grid-bbox="true"
     inkscape:document-units="px"
     inkscape:window-width="1366"
     inkscape:window-height="744"
     inkscape:window-x="0"
     inkscape:window-y="24"
     inkscape:window-maximized="1" />
  <metadata
     id="metadata27357">
    <rdf:RDF>
      <cc:Work
         rdf:about="">
        <dc:format>image/svg+xml</dc:format>
        <dc:type
           rdf:resource="http://purl.org/dc/dcmitype/StillImage" />
        <dc:title />
      </cc:Work>
    </rdf:RDF>
  </metadata>
  <g
     id="layer1"
     inkscape:label="Layer 1"
     inkscape:groupmode="layer"
     transform="translate(0,-4)">
    <path
       sodipodi:type="arc"
       style="color:#1a1a1c;fill:#ff7f2a;fill-opacity:1;fill-rule:nonzero;stroke:none;stroke-width:1.27423298000000007;marker:none;visibility:visible;display:inline;overflow:visible;enable-background:accumulate"
       id="path5784-4"
       sodipodi:cx="660.96808"
       sodipodi:cy="255.0668"
       sodipodi:rx="4.5078058"
       sodipodi:ry="7.2937827"
       d="m 665.47588,255.0668 c 0,4.02825 -2.01821,7.29379 -4.5078,7.29379 -2.48959,0 -4.50781,-3.26554 -4.50781,-7.29379 0,-4.02824 2.01822,-7.29378 4.50781,-7.29378 2.48959,0 4.5078,3.26554 4.5078,7.29378 z"
       transform="matrix(0.77643096,0,0,0.47986074,-508.19608,-110.89654)" />
    <path
       style="fill:#00ffff;fill-opacity:0.24636727"
       d="M 4.2989858,10.904508 C 3.1140382,10.654234 2.1189428,9.785976 1.7250925,8.6586898 1.2937282,7.4240302 1.578381,6.0705839 2.4669959,5.1311429 2.8692619,4.7058686 3.3539477,4.3900034 3.8774963,4.211933 4.2743398,4.0769578 4.5603742,4.0335155 5.0399308,4.0353849 6.1560661,4.0397359 7.2114338,4.5930398 7.8378936,5.5022898 8.2931974,6.163122 8.4678631,6.7342142 8.4632916,7.5471093 8.4573495,8.603747 7.9757957,9.5756837 7.1260989,10.246013 6.3511932,10.85734 5.2690449,11.109395 4.2989858,10.904508 l 0,0 z"
       id="path2983"
       inkscape:connector-curvature="0"
       transform="translate(0,4)" />
    <path
       style="fill:#00ffff;fill-opacity:0.24636727"
       d="M 4.451484,10.915906 C 3.2539546,10.690676 2.2382002,9.8786541 1.8112372,8.8052192 1.6121052,8.304578 1.5755623,8.10024 1.5760155,7.4899225 1.5763718,7.0101027 1.5902682,6.8706016 1.6623492,6.6232443 2.0163445,5.4084539 2.8889286,4.5278605 4.0923095,4.1709799 c 0.2970672,-0.0881 0.4076634,-0.100855 0.8738558,-0.1007835 0.4540754,6.98e-5 0.5894854,0.014917 0.9071925,0.099469 0.9909841,0.2637339 1.7676423,0.9034088 2.2380999,1.8433542 0.2422468,0.4839941 0.3140925,0.8107477 0.3163559,1.4387783 0.00157,0.434481 -0.014158,0.5966018 -0.084547,0.8717389 C 8.0778448,9.3610117 7.4129121,10.169771 6.4579675,10.61663 5.949282,10.854666 5.7018263,10.909643 5.0805389,10.922654 c -0.293559,0.0061 -0.5766337,0.0031 -0.6290549,-0.0067 l 0,0 z"
       id="path2985"
       inkscape:connector-curvature="0"
       transform="translate(0,4)" />
    <path
       style="fill:#00ffff;fill-opacity:0.24636727"
       d="M 4.1655499,10.827391 C 2.9004404,10.446608 2.0285692,9.5833589 1.6803687,8.366787 1.6001687,8.0865773 1.5705023,7.2186291 1.6297862,6.8868966 1.8894419,5.4339518 3.2204419,4.2051466 4.6496453,4.0989037 6.1856843,3.984719 7.501003,4.7471026 8.1348582,6.1189993 8.3137469,6.5061805 8.3769696,6.7750271 8.4039942,7.2634688 8.4498721,8.0926532 8.2612022,8.7834127 7.805867,9.4533363 7.3444713,10.132177 6.5281006,10.678542 5.7283564,10.843733 5.3244429,10.927164 4.4672543,10.9182 4.1655499,10.827391 z"
       id="path2987"
       inkscape:connector-curvature="0"
       transform="translate(0,4)" />
    <path
       style="fill:#00ffff;fill-opacity:0.24636727"
       d="M 4.5611875,10.857941 C 3.5417401,10.780208 2.4646985,10.014995 1.9637552,9.0125255 1.6930071,8.4707144 1.6574364,8.3162433 1.6388459,7.6015581 1.6237563,7.0214603 1.6308404,6.917843 1.7040083,6.6484446 2.0069661,5.5329781 2.941369,4.575593 4.0702386,4.224015 4.3236582,4.1450894 4.4277044,4.1353163 4.9852275,4.1380702 5.553266,4.1408759 5.6468118,4.1510791 5.9496484,4.2432604 7.0294795,4.5719537 7.8573565,5.3624843 8.2389702,6.4293082 8.3577423,6.7613428 8.3592325,6.7743943 8.357918,7.4708603 8.3566523,8.1416619 8.3513057,8.1920168 8.248631,8.5002228 7.9952587,9.2607884 7.5896205,9.817041 6.9615141,10.265248 6.2752369,10.754966 5.5521787,10.933504 4.5611875,10.857941 z"
       id="path2989"
       inkscape:connector-curvature="0"
       transform="translate(0,4)" />
    <path
       style="fill:#00ffff;fill-opacity:0.24636727"
       d="M 4.5086708,10.840104 C 4.1899208,10.790617 3.7561019,10.652592 3.4991572,10.518915 2.7307692,10.119155 2.1391922,9.4557363 1.8107121,8.6254227 1.6970836,8.3381989 1.6927669,8.3051583 1.676384,7.5972484 1.6607932,6.923564 1.666111,6.8439283 1.7437582,6.5882917 2.0156296,5.6932141 2.6999467,4.8882107 3.5467532,4.4673198 4.1005024,4.1920881 4.1933946,4.1730875 4.9852275,4.1730875 c 0.6438759,0 0.728547,0.00794 0.9721758,0.09114 1.0654734,0.3638711 1.7890394,1.0388876 2.2317012,2.081959 0.128562,0.3029383 0.1295327,0.3096773 0.1438602,0.9987078 0.015859,0.7627112 -0.00664,0.9292163 -0.1863611,1.3792284 -0.4015951,1.0055649 -1.2528868,1.7634255 -2.2809512,2.0306095 -0.2844262,0.07392 -1.1001781,0.125241 -1.3569816,0.08537 z"
       id="path2991"
       inkscape:connector-curvature="0"
       transform="translate(0,4)" />
    <path
       style="fill:#00ffff;fill-opacity:0.24636727"
       d="M 4.152375,10.748591 C 3.127338,10.463771 2.3114244,9.7339859 1.8517759,8.6908455 L 1.7257822,8.4049115 1.7133638,7.5877806 C 1.7018202,6.828219 1.7068588,6.7530115 1.78488,6.5202935 2.1257674,5.5035117 2.9375547,4.6839807 4.0044665,4.2795345 c 0.2469455,-0.093612 1.493421,-0.116729 1.8174898,-0.033706 0.9363201,0.239874 1.7721358,0.9377074 2.2416841,1.8716109 0.2211231,0.4398004 0.2375544,0.53036 0.2404477,1.3252109 0.00297,0.8157386 -0.032552,1.0025706 -0.2896337,1.5233842 -0.427654,0.866371 -1.213148,1.5144798 -2.1428374,1.7680478 -0.1389987,0.03791 -0.4424131,0.06574 -0.8292027,0.07606 -0.5297283,0.01413 -0.6468418,0.006 -0.8900393,-0.06155 l 0,0 z"
       id="path2993"
       inkscape:connector-curvature="0"
       transform="translate(0,4)" />
    <path
       style="fill:#00ffff;fill-opacity:0.24636727"
       d="M 4.0511763,10.697946 C 3.4377847,10.489094 3.1023557,10.282324 2.6552941,9.8374792 2.3330532,9.5168358 2.0722281,9.1385908 1.8751411,8.7061118 L 1.7446416,8.4197496 1.745283,7.5354661 1.7459243,6.6511826 1.8701235,6.3461863 C 2.1989793,5.5386139 2.8323029,4.8651985 3.6437406,4.4602925 4.0617458,4.2517087 4.2161639,4.2252509 5.0042898,4.2271776 c 0.5542088,0.00135 0.7339203,0.015447 0.9340512,0.073246 0.8897654,0.2569672 1.7145807,0.9931502 2.1573755,1.9255506 0.1697449,0.3574341 0.223772,0.7747464 0.193251,1.4926958 -0.02506,0.5894988 -0.075561,0.8082898 -0.2815791,1.219922 -0.3458872,0.6910957 -0.8783311,1.2223402 -1.5651115,1.5615842 -0.4652883,0.229836 -0.6071504,0.257584 -1.3998626,0.273809 -0.6842201,0.01401 -0.7391569,0.0098 -0.991238,-0.07604 z"
       id="path2995"
       inkscape:connector-curvature="0"
       transform="translate(0,4)" />
    <path
       style="fill:#00ffff;fill-opacity:0.24636727"
       d="M 3.9558649,10.650909 C 3.0194769,10.29218 2.3539376,9.6688913 1.8958898,8.721707 l -0.1512482,-0.3127623 0,-0.8653578 0,-0.865358 L 1.8635081,6.397834 C 2.093192,5.8560316 2.3195197,5.5272973 2.7407088,5.1237265 3.2706391,4.6159631 3.8035508,4.3321663 4.3562757,4.2633723 c 0.4412412,-0.054918 1.3388323,-0.018725 1.6201899,0.06533 0.9981687,0.298202 2.0395706,1.3831898 2.2474782,2.3415425 0.025019,0.1153268 0.044472,0.4763955 0.043229,0.802375 -0.00294,0.7705814 -0.046445,1.0037827 -0.2699457,1.4469729 -0.3626841,0.7191847 -0.8558094,1.2070802 -1.5969966,1.5800602 -0.4087484,0.20569 -0.6685725,0.248794 -1.4912521,0.247392 -0.6582422,-0.0011 -0.7218392,-0.0075 -0.9531135,-0.09614 l 0,0 z"
       id="path2997"
       inkscape:connector-curvature="0"
       transform="translate(0,4)" />
  </g>
</svg>
