<?xml version="1.0" encoding="UTF-8" standalone="no"?>
<!-- Created with Inkscape (http://www.inkscape.org/) -->

<svg
   xmlns:dc="http://purl.org/dc/elements/1.1/"
   xmlns:cc="http://creativecommons.org/ns#"
   xmlns:rdf="http://www.w3.org/1999/02/22-rdf-syntax-ns#"
   xmlns:svg="http://www.w3.org/2000/svg"
   xmlns="http://www.w3.org/2000/svg"
   xmlns:xlink="http://www.w3.org/1999/xlink"
   xmlns:sodipodi="http://sodipodi.sourceforge.net/DTD/sodipodi-0.dtd"
   xmlns:inkscape="http://www.inkscape.org/namespaces/inkscape"
   width="56"
   height="20"
   id="svg2"
   version="1.1"
   inkscape:version="0.48.3.1 r9886"
   sodipodi:docname="switch-dark-on-disabled.svg"
   inkscape:export-filename="/usr/share/themes/Gnome-Cupertino/gtk-3.0/assets/switch-off.png"
   inkscape:export-xdpi="90"
   inkscape:export-ydpi="90">
  <defs
     id="defs4">
    <linearGradient
       id="linearGradient3851">
      <stop
         id="stop3853"
         offset="0"
         style="stop-color:#aac0d7;stop-opacity:0.84313726;" />
      <stop
         style="stop-color:#5782c1;stop-opacity:0.58682632;"
         offset="0.70714289"
         id="stop3855" />
      <stop
         id="stop3857"
         offset="1"
         style="stop-color:#515f85;stop-opacity:0.01960784;" />
    </linearGradient>
    <linearGradient
       id="linearGradient3803">
      <stop
         style="stop-color:#282828;stop-opacity:0.40000001;"
         offset="0"
         id="stop3805" />
      <stop
         style="stop-color:#282828;stop-opacity:0.40000001;"
         offset="1"
         id="stop3807" />
    </linearGradient>
    <linearGradient
       id="linearGradient3833">
      <stop
         style="stop-color:#0f0f0f;stop-opacity:1;"
         offset="0"
         id="stop3835" />
      <stop
         style="stop-color:#0b0b0b;stop-opacity:1;"
         offset="1"
         id="stop3837" />
    </linearGradient>
    <linearGradient
       id="linearGradient3809">
      <stop
         style="stop-color:#bdbdbd;stop-opacity:1;"
         offset="0"
         id="stop3811" />
      <stop
         style="stop-color:#f5f5f5;stop-opacity:1;"
         offset="1"
         id="stop3813" />
    </linearGradient>
    <linearGradient
       id="linearGradient3786">
      <stop
         style="stop-color:#5d5d5d;stop-opacity:1;"
         offset="0"
         id="stop3788" />
      <stop
         style="stop-color:#1e1e1e;stop-opacity:0.76078433;"
         offset="1"
         id="stop3790" />
    </linearGradient>
    <linearGradient
       id="linearGradient3772">
      <stop
         style="stop-color:#1a1a1c;stop-opacity:0.36097562;"
         offset="0"
         id="stop3774" />
      <stop
         style="stop-color:#1a1a1c;stop-opacity:0.22352941;"
         offset="1"
         id="stop3776" />
    </linearGradient>
    <linearGradient
       id="linearGradient3763">
      <stop
         style="stop-color:#1a1a1c;stop-opacity:1;"
         offset="0"
         id="stop3765" />
      <stop
         style="stop-color:#1a1a1c;stop-opacity:1;"
         offset="1"
         id="stop3767" />
    </linearGradient>
    <linearGradient
       id="linearGradient3769">
      <stop
         style="stop-color:#bebebe;stop-opacity:1;"
         offset="0"
         id="stop3771" />
      <stop
         style="stop-color:#b4b4b4;stop-opacity:1;"
         offset="1"
         id="stop3773" />
    </linearGradient>
    <linearGradient
       id="linearGradient3759">
      <stop
         style="stop-color:#909090;stop-opacity:0.47058824;"
         offset="0"
         id="stop3761" />
      <stop
         id="stop3792"
         offset="0.50000042"
         style="stop-color:#a0a0a0;stop-opacity:0.47058824;" />
      <stop
         style="stop-color:#aaaaaa;stop-opacity:0.47058824;"
         offset="1"
         id="stop3763" />
    </linearGradient>
    <linearGradient
       inkscape:collect="always"
       xlink:href="#linearGradient3759"
       id="linearGradient3765"
       x1="25"
       y1="1033.3622"
       x2="25"
       y2="1051.3622"
       gradientUnits="userSpaceOnUse"
       gradientTransform="matrix(0.75925924,0,0,0.88888885,7.2407408,115.81826)" />
    <linearGradient
       y2="26"
       x2="35"
       y1="3"
       x1="35"
       gradientTransform="matrix(1.8,0,0,1.125,-33.2,1029.9872)"
       gradientUnits="userSpaceOnUse"
       id="linearGradient3967"
       xlink:href="#linearGradient4071-3-6"
       inkscape:collect="always" />
    <linearGradient
       id="linearGradient4071-3-6">
      <stop
         style="stop-color:#1a1a1c;stop-opacity:0.60392159;"
         offset="0"
         id="stop4073-8-9" />
      <stop
         style="stop-color:#1a1a1c;stop-opacity:0;"
         offset="1"
         id="stop4075-4-4" />
    </linearGradient>
    <linearGradient
       y2="26"
       x2="35"
       y1="3"
       x1="35"
       gradientTransform="matrix(1.2999999,0,0,0.875,-15.7,1033.0172)"
       gradientUnits="userSpaceOnUse"
       id="linearGradient3895"
       xlink:href="#linearGradient4071-3-6"
       inkscape:collect="always" />
    <linearGradient
       y2="38"
       x2="35"
       y1="3"
       x1="35"
       gradientTransform="matrix(1.8,0,0,1.125,-33.2,1029.9872)"
       gradientUnits="userSpaceOnUse"
       id="linearGradient3950"
       xlink:href="#linearGradient4071-3"
       inkscape:collect="always" />
    <linearGradient
       id="linearGradient4071-3">
      <stop
         style="stop-color:#4b4b4b;stop-opacity:0.50980395;"
         offset="0"
         id="stop4073-8" />
      <stop
         style="stop-color:#5f5f5f;stop-opacity:0.12156863;"
         offset="1"
         id="stop4075-4" />
    </linearGradient>
    <linearGradient
       y2="37.893074"
       x2="35.304348"
       y1="3.1030066"
       x1="35.5"
       gradientTransform="matrix(1.3333334,0,0,0.99645293,-17.333334,1031.2702)"
       gradientUnits="userSpaceOnUse"
       id="linearGradient3912"
       xlink:href="#linearGradient4071-3"
       inkscape:collect="always" />
    <linearGradient
       inkscape:collect="always"
       xlink:href="#linearGradient3786"
       id="linearGradient3792"
       x1="40.688198"
       y1="13.999991"
       x2="48.311802"
       y2="13.999991"
       gradientUnits="userSpaceOnUse" />
    <linearGradient
       inkscape:collect="always"
       xlink:href="#linearGradient3769"
       id="linearGradient3802"
       x1="44.5"
       y1="11.035255"
       x2="44.5"
       y2="16.117661"
       gradientUnits="userSpaceOnUse" />
    <linearGradient
       inkscape:collect="always"
       xlink:href="#linearGradient3809"
       id="linearGradient3815"
       x1="54.353218"
       y1="-0.09542387"
       x2="54.353218"
       y2="8.0954666"
       gradientUnits="userSpaceOnUse" />
    <linearGradient
       inkscape:collect="always"
       xlink:href="#linearGradient3833"
       id="linearGradient3839"
       x1="51.380428"
       y1="-0.26788515"
       x2="51.380428"
       y2="8.3541021"
       gradientUnits="userSpaceOnUse" />
    <linearGradient
       inkscape:collect="always"
       xlink:href="#linearGradient3769"
       id="linearGradient3921"
       gradientUnits="userSpaceOnUse"
       x1="44.5"
       y1="11.035255"
       x2="44.5"
       y2="16.117661" />
    <linearGradient
       inkscape:collect="always"
       xlink:href="#linearGradient3786"
       id="linearGradient3923"
       gradientUnits="userSpaceOnUse"
       x1="40.688198"
       y1="14.847058"
       x2="47.835327"
       y2="12.305857" />
    <linearGradient
       inkscape:collect="always"
       xlink:href="#linearGradient3803"
       id="linearGradient3810"
       x1="55.757896"
       y1="-0.22028424"
       x2="55.691422"
       y2="7.4919033"
       gradientUnits="userSpaceOnUse" />
    <linearGradient
       inkscape:collect="always"
       xlink:href="#linearGradient3809"
       id="linearGradient3812"
       gradientUnits="userSpaceOnUse"
       x1="54.254425"
       y1="-0.26788515"
       x2="54.254425"
       y2="7.4919033" />
    <linearGradient
       inkscape:collect="always"
       xlink:href="#linearGradient3759-1"
       id="linearGradient3765-1"
       x1="25"
       y1="1033.3622"
       x2="25"
       y2="1051.3622"
       gradientUnits="userSpaceOnUse"
       gradientTransform="matrix(0.75925924,0,0,0.88888885,7.2407408,115.81826)" />
    <linearGradient
       id="linearGradient3759-1">
      <stop
         style="stop-color:#97b3ce;stop-opacity:0.85628742;"
         offset="0"
         id="stop3761-3" />
      <stop
         id="stop3792-3"
         offset="0.50000042"
         style="stop-color:#4372b7;stop-opacity:0.58682632;" />
      <stop
         style="stop-color:#324882;stop-opacity:0.40718561;"
         offset="1"
         id="stop3763-3" />
    </linearGradient>
    <radialGradient
       inkscape:collect="always"
       xlink:href="#linearGradient3851"
       id="radialGradient3859"
       cx="32.634705"
       cy="1042.8505"
       fx="32.634705"
       fy="1042.8505"
       r="14"
       gradientTransform="matrix(1.0359993,0.01130084,-9.5854376e-8,0.64285596,-0.80943249,371.59075)"
       gradientUnits="userSpaceOnUse" />
  </defs>
  <sodipodi:namedview
     id="base"
     pagecolor="#e8e6df"
     bordercolor="#666666"
     borderopacity="1.0"
     inkscape:pageopacity="0.0"
     inkscape:pageshadow="2"
     inkscape:zoom="27.270844"
     inkscape:cx="23.426215"
     inkscape:cy="10.404988"
     inkscape:document-units="px"
     inkscape:current-layer="layer1"
     showgrid="true"
     showguides="false"
     inkscape:window-width="1366"
     inkscape:window-height="744"
     inkscape:window-x="0"
     inkscape:window-y="24"
     inkscape:window-maximized="1">
    <inkscape:grid
       type="xygrid"
       id="grid2985"
       empspacing="5"
       visible="true"
       enabled="true"
       snapvisiblegridlinesonly="true" />
  </sodipodi:namedview>
  <metadata
     id="metadata7">
    <rdf:RDF>
      <cc:Work
         rdf:about="">
        <dc:format>image/svg+xml</dc:format>
        <dc:type
           rdf:resource="http://purl.org/dc/dcmitype/StillImage" />
        <dc:title />
      </cc:Work>
    </rdf:RDF>
  </metadata>
  <g
     inkscape:label="Capa 1"
     inkscape:groupmode="layer"
     id="layer1"
     transform="translate(0,-1032.3622)">
    <rect
       style="fill:url(#linearGradient3765);fill-opacity:1;stroke:none"
       id="rect2989"
       width="41"
       height="16"
       x="8"
       y="1034.3622"
       rx="7"
       ry="8" />
    <path
       style="opacity:0.45400002;color:#1a1a1c;fill:url(#linearGradient3912);fill-opacity:1;fill-rule:nonzero;stroke:none;stroke-width:2;marker:none;visibility:visible;display:inline;overflow:visible;enable-background:accumulate"
       d="m 16,1034.3622 c -5,0 -8,3.5837 -8,8 0,4.4163 3,8 6.956522,8 l 26.086956,0 c 5.909333,0 7.956522,-3.5837 7.956522,-8 0,-4.4162 -2.090666,-8 -8,-8 z m 14,1 11,0 c 5.212862,0 7,4 7,7 0,3 -1.786936,7 -7,7 l -26,0 c -4,0 -6,-4 -6,-7 0,-3 2,-7 7,-7 z"
       id="rect4944"
       inkscape:connector-curvature="0"
       sodipodi:nodetypes="ssssssscssssscc"
       inkscape:export-xdpi="90"
       inkscape:export-ydpi="90" />
    <path
       sodipodi:type="arc"
       style="fill:url(#linearGradient3921);fill-opacity:1;stroke:url(#linearGradient3923);stroke-width:0.44922534;stroke-linecap:square;stroke-miterlimit:4;stroke-opacity:1;stroke-dasharray:none"
       id="path3767"
       sodipodi:cx="44.5"
       sodipodi:cy="14"
       sodipodi:rx="4.5"
       sodipodi:ry="4"
       d="m 49,14 c 0,2.209139 -2.014719,4 -4.5,4 -2.485281,0 -4.5,-1.790861 -4.5,-4 0,-2.209139 2.014719,-4 4.5,-4 2.485281,0 4.5,1.790861 4.5,4 z"
       transform="matrix(2.0987442,0,0,2.3610872,-53.693768,1009.307)"
       inkscape:export-xdpi="90"
       inkscape:export-ydpi="90" />
    <path
       transform="matrix(1.8888697,0,0,2.1249784,-44.354702,1012.6125)"
       d="m 49,14 c 0,2.209139 -2.014719,4 -4.5,4 -2.485281,0 -4.5,-1.790861 -4.5,-4 0,-2.209139 2.014719,-4 4.5,-4 2.485281,0 4.5,1.790861 4.5,4 z"
       sodipodi:ry="4"
       sodipodi:rx="4.5"
       sodipodi:cy="14"
       sodipodi:cx="44.5"
       id="path3764"
       style="fill:none;stroke:#e8e6df;stroke-width:0.49922532;stroke-linecap:square;stroke-miterlimit:4;stroke-opacity:0.2477876;stroke-dasharray:none"
       sodipodi:type="arc" />
    <path
       style="fill:#008080;fill-opacity:0.24636727"
       d="m 31.746275,10.394808 c -0.07654,-0.7323187 0.198229,-2.5827048 0.45467,-3.0618684 0.06,-0.1121065 0.277213,-0.1154484 7.504037,-0.1154484 l 7.442252,0 0.0851,0.2036623 c 0.265906,0.6364033 0.482379,2.1617021 0.421145,2.9674545 l -0.02911,0.382985 -7.919356,0 -7.919356,0 -0.03938,-0.376785 z"
       id="path3041"
       inkscape:connector-curvature="0"
       transform="translate(0,1032.3622)" />
    <path
       style="fill:#008080;fill-opacity:0.24636727"
       d="m 32.34996,6.941742 c 0.07575,-0.1685134 0.17514,-0.3891128 0.220859,-0.4902209 0.114269,-0.2527094 0.447683,-0.7825024 0.780916,-1.2408716 l 0.278429,-0.3829851 6.076897,0 6.076898,0 0.380969,0.5355841 c 0.37303,0.5244218 1.03523,1.7621111 0.975004,1.8223368 -0.01675,0.016749 -3.382334,0.037673 -7.479078,0.046499 l -7.448627,0.016046 0.137733,-0.306388 0,0 z"
       id="path3043"
       inkscape:connector-curvature="0"
       transform="translate(0,1032.3622)" />
    <path
       style="fill:#008080;fill-opacity:0.24636727"
       d="m 33.803844,4.6365758 c 0.07684,-0.1050988 0.346521,-0.3692156 0.599291,-0.5869263 1.552564,-1.3372214 3.287377,-1.9941808 5.269875,-1.9956571 1.647632,-0.00123 3.128898,0.4395497 4.465889,1.3289032 0.449257,0.298841 1.190884,0.9375423 1.446347,1.2456166 l 0.165142,0.1991522 -6.043126,0 -6.043127,0 0.139709,-0.1910886 0,0 z"
       id="path3045"
       inkscape:connector-curvature="0"
       transform="translate(0,1032.3622)" />
    <path
       style="fill:#008080;fill-opacity:0.24636727"
       d="m 32.210516,12.717157 c -0.184239,-0.511626 -0.335562,-1.123182 -0.409385,-1.654496 l -0.04044,-0.291068 7.939929,0 7.93993,0 -0.03724,0.260429 c -0.06899,0.48244 -0.271447,1.299054 -0.432983,1.746412 l -0.160418,0.444263 -7.308671,0 -7.308671,0 -0.182049,-0.50554 z"
       id="path3047"
       inkscape:connector-curvature="0"
       transform="translate(0,1032.3622)" />
    <path
       style="fill:#008080;fill-opacity:0.24636727"
       d="m 39.305344,17.957785 c -2.790805,-0.121128 -5.420283,-1.812127 -6.671217,-4.290213 -0.105531,-0.209057 -0.191875,-0.394676 -0.191875,-0.412489 0,-0.01781 3.267628,-0.03239 7.261397,-0.03239 3.993768,0 7.261009,0.02068 7.260534,0.04596 -4.73e-4,0.02528 -0.113314,0.25277 -0.250755,0.505541 -1.202606,2.211726 -3.456782,3.792327 -5.845505,4.098797 -0.594238,0.07624 -1.112127,0.104342 -1.562579,0.08479 z"
       id="path3049"
       inkscape:connector-curvature="0"
       transform="translate(0,1032.3622)" />
    <path
       style="fill:#008080;fill-opacity:0.24636727"
       d="M 9.0606404,9.3162494 C 9.1474489,8.4343164 9.538829,7.1623484 9.9274112,6.4992831 l 0.1536788,-0.2622336 10.1695,0 c 6.47458,0 10.169501,0.021429 10.169501,0.058979 0,0.032438 -0.05312,0.2047817 -0.118055,0.3829851 C 30.01155,7.47626 29.746037,8.8012994 29.746037,9.4537207 l 0,0.2761526 -10.363055,0 -10.3630545,0 0.040713,-0.4136239 z"
       id="path3051"
       inkscape:connector-curvature="0"
       transform="translate(0,1032.3622)" />
    <path
       style="fill:#008080;fill-opacity:0.24636727"
       d="M 20.13676,6.2373231 10.0679,6.2064107 10.369902,5.7774674 c 0.800473,-1.1369423 2.019454,-2.0119492 3.372873,-2.421111 0.402188,-0.1215882 0.540072,-0.1231457 9.501323,-0.1073249 l 9.093213,0.016054 -0.288121,0.3370268 c -0.434234,0.5079416 -0.991128,1.3717264 -1.295778,2.0098512 -0.149624,0.313405 -0.272044,0.596048 -0.272044,0.6280955 0,0.032048 -0.06204,0.051498 -0.137874,0.043222 -0.07583,-0.00828 -4.668861,-0.028956 -10.206734,-0.045958 z"
       id="path3053"
       inkscape:connector-curvature="0"
       transform="translate(0,1032.3622)" />
    <path
       style="fill:#008080;fill-opacity:0.24636727"
       d="M 10.094075,13.942709 C 9.474714,12.847954 9.1257088,11.656421 9.0531954,10.389055 l -0.037716,-0.6591817 10.3652782,0 10.365279,0 0,0.5760477 c 0,0.663886 0.16788,1.722564 0.399368,2.518472 0.135371,0.465435 0.234143,0.726978 0.561182,1.485982 0.02633,0.0611 -2.029663,0.0766 -10.164082,0.0766 l -10.197086,0 -0.251344,-0.444263 z"
       id="path3055"
       inkscape:connector-curvature="0"
       transform="translate(0,1032.3622)" />
    <path
       style="fill:#008080;fill-opacity:0.24636727"
       d="m 13.936414,16.873264 c -1.408642,-0.312671 -2.458405,-1.010235 -3.395806,-2.256501 l -0.172842,-0.229791 10.041482,-8.37e-4 c 5.522815,-4.6e-4 10.102744,-0.01726 10.17762,-0.03733 0.108406,-0.02906 0.1513,-8.04e-4 0.210563,0.138711 0.221366,0.521134 1.116678,1.817029 1.515461,2.193513 0.104851,0.09899 0.190637,0.202394 0.190637,0.229791 0,0.0274 -4.10177,0.04699 -9.115044,0.04353 -6.931293,-0.0048 -9.195788,-0.0242 -9.452071,-0.08109 z"
       id="path3057"
       inkscape:connector-curvature="0"
       transform="translate(0,1032.3622)" />
    <path
       style="fill:#008080;fill-opacity:0.24636727"
       d="m 8.1127044,11.091337 c -0.064007,-0.457829 -0.061484,-2.1501773 0.00336,-2.2551006 0.024948,-0.040367 0.2524648,-0.073394 0.5055931,-0.073394 l 0.4602332,0 -0.066884,0.458365 c -0.064705,0.4434358 -0.025598,1.7266004 0.063433,2.0813294 0.042555,0.169552 0.031881,0.173826 -0.4341404,0.173826 l -0.4777681,0 -0.053829,-0.385026 z"
       id="path3050"
       inkscape:connector-curvature="0"
       transform="translate(0,1032.3622)" />
    <path
       style="fill:#008080;fill-opacity:0.24636727"
       d=""
       id="path3052"
       inkscape:connector-curvature="0"
       transform="translate(0,1032.3622)" />
    <path
       style="fill:#008080;fill-opacity:0.24636727"
       d="M 8.7426622,13.474835 C 8.54085,13.040438 8.1527696,11.744603 8.1527696,11.505131 c 0,-0.01951 0.2187699,-0.02571 0.4861553,-0.01378 l 0.4861552,0.02169 0.1415115,0.545806 c 0.077831,0.300193 0.2385877,0.773931 0.3572363,1.052751 0.1186487,0.27882 0.2157249,0.519992 0.2157249,0.535936 0,0.01595 -0.2257186,0.02899 -0.5015969,0.02899 -0.4755899,0 -0.5064549,-0.01046 -0.5952937,-0.20168 z"
       id="path3054"
       inkscape:connector-curvature="0"
       transform="translate(0,1032.3622)" />
    <path
       style="fill:#008080;fill-opacity:0.24636727"
       d="M 10.131938,15.674986 C 9.6788268,15.171352 9.2711897,14.587695 9.0050783,14.061542 l -0.194734,-0.385027 0.5442727,0 0.5442726,0 0.2179364,0.385027 c 0.356744,0.63026 0.875363,1.2717 1.346471,1.665348 l 0.442557,0.369792 -0.697262,0 -0.697261,0 -0.379393,-0.421696 0,0 z"
       id="path3056"
       inkscape:connector-curvature="0"
       transform="translate(0,1032.3622)" />
    <path
       style="fill:#008080;fill-opacity:0.24636727"
       d="m 15.92664,17.491546 -3.410236,-0.0381 -0.403361,-0.210444 c -0.473778,-0.247182 -1.224216,-0.76972 -1.423131,-0.990941 l -0.139708,-0.155376 0.705534,0 c 0.656055,0 0.729576,0.01525 1.048342,0.217402 0.448276,0.284288 1.320889,0.571032 2.009115,0.660203 0.328283,0.04253 4.127682,0.07262 9.423984,0.07462 l 8.873946,0.0034 0.293354,0.25284 0.293353,0.25284 -6.930478,-0.01415 c -3.811764,-0.0078 -8.465085,-0.03129 -10.340714,-0.05225 z"
       id="path3058"
       inkscape:connector-curvature="0"
       transform="translate(0,1032.3622)" />
    <path
       style="fill:#008080;fill-opacity:0.24636727"
       d="m 13.689819,17.819837 c -0.242017,-0.05425 -0.57204,-0.151218 -0.733384,-0.215474 -0.273821,-0.109051 -0.108213,-0.114303 2.487173,-0.07887 1.52929,0.02088 6.149609,0.03915 10.267376,0.0406 l 7.486848,0.0026 0.220015,0.180344 0.220015,0.180345 -9.754006,-0.0055 c -7.888356,-0.0044 -9.838172,-0.02433 -10.194037,-0.10411 z"
       id="path3060"
       inkscape:connector-curvature="0"
       transform="translate(0,1032.3622)" />
    <path
       style="fill:#008080;fill-opacity:0.24636727"
       d="m 8.1538956,8.5978312 c 6.19e-4,-0.090756 0.066624,-0.4249582 0.1466768,-0.7426708 0.080053,-0.3177127 0.1455508,-0.5899815 0.1455508,-0.6050418 0,-0.01506 0.231016,-0.027382 0.5133688,-0.027382 0.2823528,0 0.5133688,0.027836 0.5133688,0.061857 0,0.034022 -0.06202,0.2421213 -0.1378221,0.4624439 -0.075802,0.2203227 -0.1612086,0.5390109 -0.1897922,0.708196 l -0.05197,0.3076092 -0.4702533,0 c -0.4391114,0 -0.4701787,-0.010928 -0.4691273,-0.1650114 z"
       id="path3062"
       inkscape:connector-curvature="0"
       transform="translate(0,1032.3622)" />
    <path
       style="fill:#008080;fill-opacity:0.24636727"
       d="M 8.5538427,7.0210557 C 8.5814978,6.9101314 8.7253352,6.571858 8.8734814,6.2693371 l 0.2693566,-0.550038 0.5576987,0.036669 0.5576983,0.036669 -0.3560177,0.6203679 c -0.19581,0.3412022 -0.3560181,0.6629744 -0.3560181,0.7150493 0,0.06847 -0.1443213,0.094682 -0.5213193,0.094682 l -0.5213192,0 0.050282,-0.2016806 0,0 z"
       id="path3064"
       inkscape:connector-curvature="0"
       transform="translate(0,1032.3622)" />
    <path
       style="fill:#008080;fill-opacity:0.24636727"
       d="M 9.6180998,5.0246035 C 9.9469446,4.5627836 10.558743,3.9529168 11.086306,3.5610337 l 0.550037,-0.4085784 1.173415,0.024622 1.173414,0.024622 -0.476699,0.1648475 c -0.950899,0.3288306 -1.86176,0.891823 -2.490441,1.5393124 l -0.326958,0.3367396 -0.6131,0 -0.6131011,0 0.1552269,-0.2179961 0,0 z"
       id="path3066"
       inkscape:connector-curvature="0"
       transform="translate(0,1032.3622)" />
    <path
       style="fill:#008080;fill-opacity:0.24636727"
       d="M 9.4165147,5.7028156 9.1768226,5.6731365 9.3039848,5.457868 C 9.428444,5.2471754 9.4441166,5.2425996 10.041291,5.2425996 c 0.657418,0 0.660327,0.00311 0.359788,0.3850266 -0.100619,0.1278626 -0.384241,0.1495223 -0.9845643,0.075189 z"
       id="path3068"
       inkscape:connector-curvature="0"
       transform="translate(0,1032.3622)" />
    <path
       style="fill:#008080;fill-opacity:0.24636727"
       d="M 12.445556,3.1202618 11.788,3.0791169 12.372217,2.8074606 c 0.814126,-0.3785616 1.697237,-0.6170343 2.634214,-0.7113353 0.532354,-0.053578 3.786849,-0.080144 9.751888,-0.079602 l 8.952882,8.133e-4 -0.256685,0.2002062 C 33.31334,2.3276563 33.062133,2.5418052 32.896277,2.6934292 l -0.301555,0.2756801 -8.60906,2.791e-4 c -7.250049,2.351e-4 -8.713254,0.017399 -9.269106,0.1087272 -0.666554,0.1095175 -1.073589,0.1170714 -2.271,0.042146 z"
       id="path3070"
       inkscape:connector-curvature="0"
       transform="translate(0,1032.3622)" />
    <path
       style="fill:#008080;fill-opacity:0.24636727"
       d="m 31.954561,5.6276262 c 0.879645,-1.5263185 2.151534,-2.7423762 3.688566,-3.526652 1.380165,-0.7042337 2.505096,-0.9728843 4.081822,-0.9748011 2.46211,-0.00299 4.641732,0.9275028 6.368105,2.7185879 0.526878,0.5466277 1.515773,1.8976006 1.515773,2.0707642 0,0.033252 -0.20869,0.060458 -0.463755,0.060458 l -0.463754,0 -0.345109,-0.5050847 C 45.66542,4.4891654 44.613452,3.5523465 43.492244,2.9382361 40.942568,1.5417229 37.722126,1.701431 35.214638,3.3487392 34.542001,3.7906319 33.477317,4.8434584 33.087824,5.4518658 l -0.330022,0.5155131 -0.502003,0.0043 -0.502003,0.0043 0.200765,-0.3483573 z"
       id="path3072"
       inkscape:connector-curvature="0"
       transform="translate(0,1032.3622)" />
    <path
       style="fill:#008080;fill-opacity:0.24636727"
       d=""
       id="path3074"
       inkscape:connector-curvature="0"
       transform="translate(0,1032.3622)" />
    <path
       style="fill:#008080;fill-opacity:0.24636727"
       d="m 31.318363,12.961466 c -0.148577,-0.379077 -0.344084,-1.154623 -0.433603,-1.720032 -0.09196,-0.580838 -0.06565,-2.4716826 0.03781,-2.7169412 0.04302,-0.1019876 0.144642,-0.1283422 0.494875,-0.1283422 0.423205,0 0.438719,0.00656 0.389993,0.1650114 -0.105654,0.3435663 -0.13265,2.038322 -0.0415,2.605174 0.08005,0.497811 0.337527,1.497691 0.481145,1.868468 0.04403,0.113682 -0.0017,0.128342 -0.399979,0.128342 -0.422518,0 -0.454469,-0.01219 -0.52874,-0.20168 l 0,0 z"
       id="path3076"
       inkscape:connector-curvature="0"
       transform="translate(0,1032.3622)" />
    <path
       style="fill:#008080;fill-opacity:0.24636727"
       d="m 30.995291,8.1264077 c 0.07007,-0.3734812 0.466238,-1.5425335 0.635543,-1.8754052 l 0.13988,-0.275019 0.475209,0 c 0.261365,0 0.47521,0.011046 0.47521,0.024547 0,0.013501 -0.110553,0.2527675 -0.245672,0.5317034 -0.256337,0.529174 -0.508686,1.218208 -0.595341,1.6255666 -0.05041,0.2369601 -0.05328,0.2383498 -0.493068,0.2383498 l -0.442365,0 0.0506,-0.2697429 z"
       id="path3078"
       inkscape:connector-curvature="0"
       transform="translate(0,1032.3622)" />
    <path
       style="fill:#008080;fill-opacity:0.24636727"
       d="m 38.148174,18.768075 c -2.746265,-0.497277 -5.172732,-2.321009 -6.43459,-4.836234 -0.392587,-0.782534 -0.395116,-0.768744 0.14088,-0.76838 l 0.463307,3.15e-4 0.290393,0.565611 c 0.998029,1.943913 2.836636,3.412867 5.034471,4.022289 1.0019,0.27781 2.590063,0.328079 3.622421,0.114658 1.686073,-0.348564 3.072164,-1.119214 4.253719,-2.365016 0.827788,-0.872799 1.38927,-1.798278 1.763381,-2.906544 l 0.20424,-0.605042 0.427907,0 c 0.335388,0 0.427908,0.02429 0.427908,0.112321 0,0.311411 -0.597131,1.787356 -0.975313,2.410709 -1.374389,2.265386 -3.619431,3.812637 -6.175181,4.255848 -0.798732,0.138513 -2.277068,0.138254 -3.043543,-5.35e-4 z"
       id="path3080"
       inkscape:connector-curvature="0"
       transform="translate(0,1032.3622)" />
    <path
       style="fill:#008080;fill-opacity:0.24636727"
       d="m 47.539046,11.751382 c 0.133069,-0.487411 0.205097,-1.744843 0.139602,-2.4371081 -0.05655,-0.5977075 -0.263212,-1.5990271 -0.40778,-1.9757651 -0.03768,-0.09818 0.02828,-0.1157725 0.43401,-0.1157725 l 0.478435,0 0.158039,0.6731556 c 0.26832,1.1428984 0.309193,2.1763621 0.137978,3.4887981 l -0.07893,0.605042 -0.463213,0 -0.463213,0 0.06507,-0.23835 z"
       id="path3082"
       inkscape:connector-curvature="0"
       transform="translate(0,1032.3622)" />
    <path
       style="fill:#008080;fill-opacity:0.24636727"
       d="m 46.970058,6.6176945 -0.289804,-0.6050418 0.472961,-0.021883 c 0.260129,-0.012036 0.487859,-0.00699 0.506068,0.011223 0.05027,0.05027 0.462913,1.0798455 0.462913,1.1550036 0,0.036157 -0.194025,0.06574 -0.431167,0.06574 l -0.431167,0 -0.289804,-0.6050418 z"
       id="path3084"
       inkscape:connector-curvature="0"
       transform="translate(0,1032.3622)" />
    <path
       style="fill:#008080;fill-opacity:0.24636727"
       d="m 35.207963,1.4481167 c -0.09492,-0.249654 -0.02354,-0.3064931 0.772628,-0.61521734 0.819261,-0.31768106 1.429849,-0.48655917 2.221797,-0.61451155 0.8678,-0.14020738 1.192539,-0.14169597 1.192539,-0.005467 0,0.0572052 0.01812,0.15121915 0.04026,0.20891992 0.03211,0.0836689 -0.08297,0.11449893 -0.568373,0.15226697 -0.747294,0.0581456 -1.897626,0.33230997 -2.60407,0.62064127 -0.351474,0.1434521 -0.540038,0.1881447 -0.562583,0.1333409 -0.01865,-0.045338 -0.03652,-0.021149 -0.0397,0.053755 -0.0039,0.091927 -0.04278,0.1219939 -0.119606,0.092513 -0.0626,-0.024022 -0.09579,-0.014509 -0.07376,0.021138 0.02203,0.035647 -0.01031,0.084142 -0.07188,0.1077667 -0.0755,0.028972 -0.13645,-0.02153 -0.187252,-0.1551467 z"
       id="path3086"
       inkscape:connector-curvature="0"
       transform="translate(0,1032.3622)" />
    <path
       style="fill:#008080;fill-opacity:0.24636727"
       d="m 41.709467,19.498264 c -0.0265,-0.1056 -0.03632,-0.203869 -0.02181,-0.218376 0.01451,-0.01451 0.321384,-0.110715 0.681949,-0.213797 0.894659,-0.255774 2.286181,-0.955084 3.039072,-1.527285 1.935363,-1.470889 3.245515,-3.64291 3.634714,-6.025774 C 49.189294,10.619736 49.14931,8.8686442 48.963846,8.0294586 48.210868,4.6223914 45.623767,1.8518431 42.328462,0.92356916 41.401549,0.66246149 40.686837,0.54899937 39.967586,0.54877494 l -0.53599,-1.6724e-4 -0.0083,-0.22963476 -0.0083,-0.22963477 0.815027,0.03893822 c 4.469441,0.2135293 8.231012,3.47779781 9.189418,7.97452061 0.18677,0.8763037 0.186565,2.938973 -3.67e-4,3.813597 -0.592294,2.771056 -2.265819,5.13659 -4.664217,6.592889 -0.760671,0.461876 -2.560721,1.169244 -2.721903,1.069628 -0.03356,-0.02074 -0.08176,-0.0042 -0.107092,0.03682 -0.0796,0.128796 -0.166391,0.08168 -0.216373,-0.117465 l -1.3e-5,0 z"
       id="path3088"
       inkscape:connector-curvature="0"
       transform="translate(0,1032.3622)" />
    <path
       style="fill:#008080;fill-opacity:0.24636727"
       d="m 38.551535,19.830653 c -0.968354,-0.114302 -1.088901,-0.157236 -1.162555,-0.41405 -0.03647,-0.127173 -0.108668,-0.247477 -0.160434,-0.267341 -0.07238,-0.02778 -0.07897,0.01671 -0.02853,0.192581 0.03607,0.125784 0.05058,0.243712 0.03223,0.262062 -0.0289,0.0289 -0.08203,-0.08716 -0.220688,-0.482014 -0.0177,-0.05042 -0.001,-0.09167 0.03703,-0.09167 0.04281,0 0.04193,-0.07179 -0.0023,-0.18812 -0.09284,-0.244189 -0.09109,-0.254817 0.034,-0.206813 0.05804,0.02227 0.126265,0.134918 0.151612,0.250324 0.03363,0.153105 0.109188,0.229712 0.279501,0.283375 0.403078,0.127003 1.08671,0.228922 1.846858,0.275339 0.403362,0.02463 0.738952,0.04886 0.745758,0.05384 0.0068,0.005 0.03514,0.09974 0.06295,0.210587 l 0.05058,0.20153 -0.576323,-0.0095 c -0.316978,-0.0052 -0.807339,-0.03678 -1.089692,-0.07011 z"
       id="path3090"
       inkscape:connector-curvature="0"
       transform="translate(0,1032.3622)" />
    <path
       style="fill:#008080;fill-opacity:0.24636727"
       d="m 40.180999,19.712806 c -0.02156,-0.112779 -0.02686,-0.225011 -0.01179,-0.249404 0.01508,-0.02439 0.30081,-0.06367 0.634966,-0.08729 0.334156,-0.02361 0.661096,-0.06351 0.726535,-0.08866 0.08817,-0.03388 0.129164,0.0076 0.158311,0.160021 0.04952,0.259056 -0.0047,0.29056 -0.59967,0.348486 -0.266389,0.02593 -0.570926,0.06397 -0.676749,0.08453 -0.164747,0.032 -0.198042,0.0079 -0.231605,-0.16768 z"
       id="path3092"
       inkscape:connector-curvature="0"
       transform="translate(0,1032.3622)" />
    <path
       style="fill:#008080;fill-opacity:0.24636727"
       d="m 35.085839,18.76148 c -0.05067,-0.02043 -0.07032,-0.07242 -0.04367,-0.115549 0.02833,-0.04583 0.01391,-0.05706 -0.0347,-0.02701 -0.134548,0.08316 -0.379599,-0.08711 -0.333221,-0.231528 0.03272,-0.101893 0.02612,-0.106476 -0.03314,-0.02301 -0.08937,0.125862 -0.200952,0.06165 -1.076584,-0.619594 -3.397061,-2.64291 -4.675716,-7.402212 -3.06006,-11.3898989 l 0.217908,-0.5378324 0.04882,0.2602408 c 0.05366,0.2860563 0.174672,0.4085544 0.262771,0.2660072 0.03721,-0.060211 0.08652,-7.07e-4 0.144174,0.1739774 0.07471,0.2263859 0.06595,0.3281007 -0.05951,0.690632 -0.304328,0.8793819 -0.412362,1.6133879 -0.412362,2.8016889 0,1.935546 0.440425,3.418694 1.491393,5.022322 0.359586,0.548676 1.471159,1.74816 1.879033,2.02764 0.135188,0.09263 0.262706,0.252154 0.283374,0.354493 0.02067,0.102337 0.0614,0.247663 0.0905,0.322943 0.0468,0.121045 0.03468,0.127107 -0.104871,0.05242 -0.165648,-0.08865 -0.199644,-0.03891 -0.09084,0.132907 0.03694,0.05833 0.128712,0.08545 0.213849,0.06319 0.08724,-0.02281 0.206845,0.01476 0.288163,0.09052 0.07646,0.07124 0.210742,0.152282 0.298397,0.180103 0.08766,0.02782 0.159825,0.08961 0.160375,0.137314 5.5e-4,0.0477 0.0209,0.160986 0.04522,0.251743 0.04368,0.16299 0.0048,0.188799 -0.175023,0.116288 l 0,0 z"
       id="path3094"
       inkscape:connector-curvature="0"
       transform="translate(0,1032.3622)" />
    <path
       style="fill:#008080;fill-opacity:0.24636727"
       d="m 36.094699,19.206977 c -0.342857,-0.141405 -0.664629,-0.275556 -0.71505,-0.298114 -0.05042,-0.02256 -0.09167,-0.130183 -0.09167,-0.239166 0,-0.108984 -0.04125,-0.248901 -0.09167,-0.310928 -0.141233,-0.173745 -0.604291,-0.428627 -0.778709,-0.428627 -0.086,0 -0.156355,-0.03197 -0.156355,-0.07104 0,-0.03907 0.05444,-0.05014 0.120984,-0.02461 0.0994,0.03814 0.11254,0.01278 0.07365,-0.142165 -0.02603,-0.103726 -0.06786,-0.242079 -0.09295,-0.307452 -0.02766,-0.07208 0.170759,0.01863 0.504127,0.230471 0.374646,0.23807 0.5387,0.384709 0.51508,0.460405 -0.02836,0.0909 -0.02157,0.09272 0.0374,0.01 0.10324,-0.144807 0.222239,-0.04224 0.27456,0.236656 0.04708,0.250952 0.223947,0.380133 0.776875,0.567414 0.20436,0.06922 0.283754,0.147173 0.341492,0.335303 0.09487,0.309116 0.0745,0.308601 -0.717764,-0.01815 z m -0.609947,-0.923894 c -0.02341,-0.0585 -0.04079,-0.04113 -0.04431,0.04431 -0.0032,0.07731 0.01415,0.120626 0.03852,0.09626 0.02437,-0.02437 0.02698,-0.08763 0.0058,-0.140566 l 0,0 z"
       id="path3096"
       inkscape:connector-curvature="0"
       transform="translate(0,1032.3622)" />
    <path
       style="fill:#008080;fill-opacity:0.24636727"
       d="m 36.447453,18.858693 c -0.228436,-0.105264 -0.358951,-0.216826 -0.388596,-0.332163 -0.02455,-0.09552 -0.03226,-0.186043 -0.01713,-0.201171 0.04116,-0.04116 0.932872,0.270612 0.934033,0.326565 5.51e-4,0.02655 0.0209,0.122526 0.04522,0.213283 0.05692,0.212417 -0.102347,0.210608 -0.573531,-0.0065 z"
       id="path3098"
       inkscape:connector-curvature="0"
       transform="translate(0,1032.3622)" />
    <path
       style="fill:#008080;fill-opacity:0.24636727"
       d="M 31.324785,6.1567544 C 31.27825,6.0371624 31.196742,5.7750079 31.143656,5.5741891 31.032971,5.1554787 31.030716,5.1618081 31.570332,4.3765728 l 0.368344,-0.5360039 0.160976,0.4993347 c 0.147956,0.4589461 0.151796,0.5141648 0.04748,0.6826808 -0.06242,0.1008403 -0.253949,0.4462054 -0.425617,0.767478 l -0.312125,0.5841321 -0.08461,-0.2174401 z"
       id="path3100"
       inkscape:connector-curvature="0"
       transform="translate(0,1032.3622)" />
    <path
       style="fill:#008080;fill-opacity:0.24636727"
       d="m 31.324408,6.0778277 c -0.04441,-0.1165184 -0.11661,-0.3669139 -0.160453,-0.5564343 -0.07947,-0.3435216 -0.07852,-0.3464006 0.307947,-0.9350646 0.213214,-0.3247651 0.411905,-0.590482 0.441535,-0.590482 0.02963,0 0.107344,0.1879658 0.172698,0.4177017 l 0.118826,0.4177016 -0.375255,0.700709 c -0.20639,0.3853898 -0.386349,0.7135364 -0.399908,0.7292146 -0.01356,0.015678 -0.06099,-0.066827 -0.10539,-0.183346 l 0,0 z"
       id="path3102"
       inkscape:connector-curvature="0"
       transform="translate(0,1032.3622)" />
    <path
       style="fill:#008080;fill-opacity:0.24636727"
       d="m 32.195541,4.7072293 c -0.0067,-0.1089075 -0.01497,-0.2557677 -0.01834,-0.3263559 -0.0034,-0.070588 -0.02825,-0.1451739 -0.0553,-0.165746 -0.02705,-0.020572 -0.07141,-0.1259286 -0.09856,-0.2341254 -0.0417,-0.1661636 0.0045,-0.2543387 0.297575,-0.567638 0.190822,-0.204004 0.37021,-0.3709163 0.39864,-0.3709163 0.02843,0 0.110945,0.1957033 0.183367,0.4348962 L 33.0346,3.9122402 32.679644,4.3390701 c -0.195226,0.2347564 -0.381265,0.4581821 -0.413419,0.4965014 -0.03217,0.038343 -0.06396,-0.019367 -0.07068,-0.1283422 z"
       id="path3104"
       inkscape:connector-curvature="0"
       transform="translate(0,1032.3622)" />
    <path
       style="fill:#008080;fill-opacity:0.24636727"
       d="m 32.898164,3.412645 -0.152959,-0.4366217 0.310434,-0.3046677 0.310433,-0.3046677 0.05005,0.2278723 c 0.02753,0.1253298 0.07218,0.2269542 0.09922,0.225832 0.02705,-0.00112 0.180352,-0.1012754 0.340677,-0.2225628 0.264186,-0.1998585 0.296345,-0.2082575 0.343203,-0.089633 0.02844,0.071989 0.05402,0.1655606 0.05686,0.207936 0.0052,0.077172 -1.012654,0.9519856 -1.050133,0.902588 -0.01095,-0.014429 -0.05075,-0.1391574 -0.08845,-0.2771736 -0.0377,-0.1380161 -0.108099,-0.264124 -0.156446,-0.2802396 -0.0626,-0.020868 -0.05514,0.06685 0.02593,0.3047816 0.06261,0.1837454 0.102651,0.367629 0.08898,0.4086301 -0.01367,0.041001 -0.09368,-0.1219322 -0.177808,-0.3620742 z"
       id="path3106"
       inkscape:connector-curvature="0"
       transform="translate(0,1032.3622)" />
    <path
       style="fill:#008080;fill-opacity:0.24636727"
       d="m 33.454516,2.6450846 c 0,-0.057205 -0.01652,-0.1479614 -0.03671,-0.2016805 -0.03587,-0.095445 0.372026,-0.427694 0.525073,-0.427694 0.04176,0 0.112151,0.074255 0.156425,0.1650114 l 0.0805,0.1650114 0.05089,-0.171211 c 0.03318,-0.1116216 0.06951,-0.1410841 0.104389,-0.084651 0.03819,0.061793 0.142183,0.030575 0.363446,-0.109102 0.170472,-0.1076142 0.320649,-0.1849617 0.333728,-0.1718832 0.01308,0.013078 0.04499,0.1082901 0.07091,0.2115814 0.04212,0.1678399 0.0018,0.2160007 -0.379065,0.4530859 L 34.297908,2.7388365 34.238166,2.5647393 C 34.172277,2.3727299 34.0562,2.3848137 33.756314,2.6149007 33.546375,2.7759769 33.454516,2.785164 33.454516,2.6450846 z"
       id="path3108"
       inkscape:connector-curvature="0"
       transform="translate(0,1032.3622)" />
    <path
       style="fill:#008080;fill-opacity:0.24636727"
       d="m 34.041224,1.8919427 c 0.10084,-0.076634 0.265851,-0.1893996 0.366692,-0.250591 0.10084,-0.061191 0.300414,-0.1820628 0.443497,-0.2686031 l 0.260151,-0.157346 0.07874,0.2086204 c 0.0742,0.1965712 0.06247,0.2177707 -0.203136,0.3670466 -0.155034,0.087134 -0.472549,0.1768268 -0.705588,0.1993166 l -0.423707,0.04089 0.183346,-0.1393339 z"
       id="path3110"
       inkscape:connector-curvature="0"
       transform="translate(0,1032.3622)" />
    <path
       style="fill:#008080;fill-opacity:0.24636727"
       d="m 35.130299,2.0523793 c -0.0061,-0.060504 -0.0143,-0.1483693 -0.01834,-0.1952558 -0.004,-0.046886 0.2399,-0.2085478 0.542075,-0.3592473 l 0.549409,-0.2739991 0.07901,0.1933022 c 0.07699,0.1883482 0.06615,0.1991627 -0.422684,0.4219793 -0.275933,0.1257725 -0.52297,0.2499512 -0.548971,0.2759528 -0.08185,0.081852 -0.16908,0.051538 -0.180507,-0.062732 z"
       id="path3112"
       inkscape:connector-curvature="0"
       transform="translate(0,1032.3622)" />
    <path
       style="fill:#008080;fill-opacity:0.24636727"
       d="m 37.020892,1.2438736 c -0.08154,-0.2124987 -0.0528,-0.2425829 0.338894,-0.35474819 0.428231,-0.12262707 1.305915,-0.2887972 1.33693,-0.25311826 0.01097,0.0126185 0.04242,0.0960984 0.06989,0.185511 0.05559,0.18092975 0.121318,0.15521537 -0.893068,0.34937935 -0.332562,0.063656 -0.650075,0.1331661 -0.705585,0.1544672 -0.05551,0.021301 -0.121687,-0.01537 -0.147061,-0.081491 z"
       id="path3114"
       inkscape:connector-curvature="0"
       transform="translate(0,1032.3622)" />
    <path
       style="fill:#008080;fill-opacity:0.24636727"
       d="m 36.314714,1.5379209 c 0,-0.053307 -0.0172,-0.1417463 -0.03822,-0.196532 -0.02551,-0.066486 0.07586,-0.1418922 0.304833,-0.2267565 0.188682,-0.06993 0.351166,-0.11856115 0.361076,-0.1080684 0.0099,0.010493 0.0295,0.096384 0.04352,0.1908689 0.02163,0.1457091 -0.02738,0.1919549 -0.322852,0.3046005 -0.270643,0.1031813 -0.348357,0.1111873 -0.348357,0.035888 z"
       id="path3116"
       inkscape:connector-curvature="0"
       transform="translate(0,1032.3622)" />
    <path
       style="fill:#008080;fill-opacity:0.24636727"
       d="m 38.808219,0.92163233 c 0,-0.0370371 -0.01814,-0.11461867 -0.04032,-0.17240342 -0.0318,-0.0828607 0.06507,-0.11282364 0.458365,-0.14178587 0.274275,-0.0201975 0.693078,-0.0168711 0.930673,0.007392 0.359936,0.0367564 0.442113,0.0716384 0.492671,0.2091261 l 0.06068,0.1650114 -0.951036,0 c -0.528657,0 -0.951036,-0.0299075 -0.951036,-0.0673402 z"
       id="path3118"
       inkscape:connector-curvature="0"
       transform="translate(0,1032.3622)" />
    <path
       style="fill:#008080;fill-opacity:0.24636727"
       d="M 45.005314,2.708835 C 44.654807,2.4194301 43.84989,1.960204 43.222341,1.6916018 42.63049,1.4382788 41.629143,1.1356494 41.382795,1.1356494 c -0.09151,0 -0.150233,-0.067274 -0.176052,-0.20168063 -0.02131,-0.11092433 -0.03259,-0.20800272 -0.02506,-0.21572976 0.05175,-0.0531328 1.449539,0.32589439 1.990169,0.53965949 0.595347,0.2354002 0.822841,0.3520456 1.707568,0.8755396 0.190235,0.1125623 0.285257,0.2367593 0.350689,0.458365 0.103679,0.3511388 0.07612,0.3654884 -0.224797,0.1170319 z"
       id="path3120"
       inkscape:connector-curvature="0"
       transform="translate(0,1032.3622)" />
    <path
       style="fill:#008080;fill-opacity:0.24636727"
       d="M 31.18316,6.5165182 C 31.133542,6.3803985 31.051547,6.290867 30.981666,6.2965031 30.778671,6.312875 30.719912,5.8931136 30.874308,5.5295722 l 0.133638,-0.3146629 0.190786,0.6097398 c 0.130025,0.4155531 0.171248,0.6593658 0.129439,0.7655637 -0.05761,0.1463195 -0.06645,0.1418246 -0.145011,-0.073695 z"
       id="path3122"
       inkscape:connector-curvature="0"
       transform="translate(0,1032.3622)" />
    <path
       style="fill:#008080;fill-opacity:0.24636727"
       d="m 48.509882,11.932673 c 0.01108,-0.04538 0.0454,-0.231016 0.07627,-0.412528 C 49.00505,9.0572055 48.392635,6.5598542 46.874425,4.5399282 46.575898,4.142749 45.902675,3.4328403 45.530735,3.1230184 45.389504,3.0053744 45.282601,2.8951242 45.293174,2.8780179 c 0.02373,-0.038393 -0.08834,-0.4344424 -0.14107,-0.4985571 -0.106937,-0.1300171 0.03363,-0.055331 0.34241,0.1819342 0.427436,0.3284366 1.294302,1.1903757 1.615758,1.6065754 1.02188,1.3230601 1.682897,2.8539732 1.915793,4.436973 0.121009,0.8224985 0.112742,2.3147256 -0.01615,2.9152016 -0.04888,0.227703 -0.08031,0.398967 -0.08246,0.449197 -0.0013,0.03131 -0.07102,0.04584 -0.219835,0.04584 -0.20747,0 -0.216917,-0.0039 -0.197739,-0.08251 z"
       id="path3124"
       inkscape:connector-curvature="0"
       transform="translate(0,1032.3622)" />
    <path
       style="fill:#008080;fill-opacity:0.24636727"
       d="m 48.014226,13.993351 -0.09046,-0.271372 0.155843,-0.387711 c 0.08571,-0.213241 0.208404,-0.576644 0.272645,-0.807563 0.06424,-0.230919 0.122727,-0.44048 0.129968,-0.46569 0.01972,-0.06866 0.418829,-0.06272 0.418829,0.0062 0,0.209821 -0.491563,1.616372 -0.711288,2.035268 l -0.08508,0.162206 -0.09046,-0.271373 z"
       id="path3126"
       inkscape:connector-curvature="0"
       transform="translate(0,1032.3622)" />
    <path
       style="fill:#008080;fill-opacity:0.24636727"
       d="m 46.354733,16.386042 -0.06759,-0.223237 0.16801,-0.186867 c 0.44056,-0.49001 0.943823,-1.230022 1.262623,-1.856598 0.09618,-0.189037 0.184639,-0.34378 0.196572,-0.343872 0.01193,-9.2e-5 0.05191,0.09963 0.08884,0.221599 0.03693,0.121972 0.08061,0.23009 0.09707,0.240261 0.06999,0.04325 -0.585746,1.092325 -1.014496,1.623037 -0.136236,0.168635 -0.341242,0.406127 -0.455569,0.527761 l -0.207869,0.221153 -0.06759,-0.223237 z"
       id="path3128"
       inkscape:connector-curvature="0"
       transform="translate(0,1032.3622)" />
    <path
       style="fill:#008080;fill-opacity:0.24636727"
       d="m 44.884683,17.622273 c -0.0341,-0.102651 -0.0478,-0.199125 -0.03045,-0.214386 0.01735,-0.01526 0.170249,-0.131987 0.33978,-0.259391 0.169531,-0.127405 0.479263,-0.396371 0.688293,-0.597703 0.20903,-0.201332 0.386278,-0.359518 0.393884,-0.351525 0.0076,0.008 0.04108,0.10529 0.07439,0.216215 l 0.06056,0.20168 -0.310853,0.298452 c -0.283693,0.272374 -1.068004,0.893297 -1.128357,0.893297 -0.01389,0 -0.05315,-0.08399 -0.08725,-0.186639 z"
       id="path3130"
       inkscape:connector-curvature="0"
       transform="translate(0,1032.3622)" />
    <path
       style="fill:#008080;fill-opacity:0.24636727"
       d="m 43.764844,18.370889 c -0.09936,-0.260741 -0.09302,-0.279126 0.134843,-0.39088 0.116174,-0.05698 0.366662,-0.201288 0.55664,-0.320692 0.189978,-0.119403 0.349802,-0.217097 0.355164,-0.217097 0.0054,0 0.03066,0.07468 0.05622,0.165956 0.02556,0.09128 0.06202,0.175572 0.08104,0.187324 0.03965,0.0245 -0.186887,0.165723 -0.750369,0.467773 l -0.394048,0.211227 -0.03948,-0.103611 z"
       id="path3132"
       inkscape:connector-curvature="0"
       transform="translate(0,1032.3622)" />
    <path
       style="fill:#008080;fill-opacity:0.24636727"
       d="m 41.819544,18.963867 c -0.05716,-0.194086 -0.05679,-0.201556 0.0099,-0.201556 0.03808,0 0.35356,-0.09473 0.701069,-0.210514 0.347509,-0.115783 0.648336,-0.210665 0.668504,-0.210848 0.02017,-1.84e-4 0.06658,-0.03024 0.103132,-0.0668 0.09272,-0.09272 0.140562,-0.06418 0.202143,0.120561 0.04916,0.147496 0.04812,0.163218 -0.01388,0.208556 -0.09293,0.06795 -0.123107,0.06183 -0.165074,-0.03347 -0.03342,-0.07589 -0.03476,-0.07451 -0.01674,0.01718 0.01621,0.08249 0.0013,0.109149 -0.08646,0.154525 -0.138209,0.07147 -1.049109,0.372498 -1.214865,0.401479 l -0.128342,0.02244 -0.05936,-0.201556 z"
       id="path3134"
       inkscape:connector-curvature="0"
       transform="translate(0,1032.3622)" />
    <path
       style="fill:#008080;fill-opacity:0.24636727"
       d="m 41.086939,19.211509 c -0.108852,-0.285628 -0.1159,-0.277468 0.309209,-0.357996 l 0.384661,-0.07287 0.02153,0.128342 c 0.01184,0.07059 0.03119,0.163497 0.04301,0.206463 0.01995,0.07255 -0.0016,0.08236 -0.302501,0.137584 -0.416687,0.07648 -0.410726,0.07702 -0.455903,-0.04153 z"
       id="path3136"
       inkscape:connector-curvature="0"
       transform="translate(0,1032.3622)" />
    <path
       style="fill:#008080;fill-opacity:0.24636727"
       d="m 43.507222,18.393119 -0.05846,-0.184866 0.107707,-0.0557 c 0.05924,-0.03063 0.111449,-0.05036 0.116022,-0.04383 0.01578,0.02254 0.09488,0.313834 0.09488,0.34943 0,0.02744 -0.154199,0.122955 -0.194239,0.120316 -0.0041,-2.7e-4 -0.03375,-0.08368 -0.06591,-0.185356 z"
       id="path3138"
       inkscape:connector-curvature="0"
       transform="translate(0,1032.3622)" />
    <path
       style="fill:#008080;fill-opacity:0.24636727"
       d="m 39.225042,19.276762 c -0.02561,-0.08547 -0.05441,-0.175845 -0.064,-0.200842 -0.01333,-0.03475 0.15352,-0.05091 0.708498,-0.06864 0.399266,-0.01276 0.760597,-0.03312 0.802957,-0.04525 0.06735,-0.01929 0.08388,0.0025 0.13173,0.1733 l 0.05471,0.195355 -0.09506,0.0301 c -0.05228,0.01655 -0.409435,0.03938 -0.793671,0.05073 l -0.69861,0.02064 -0.04656,-0.155392 z"
       id="path3140"
       inkscape:connector-curvature="0"
       transform="translate(0,1032.3622)" />
    <path
       style="fill:#008080;fill-opacity:0.24636727"
       d="m 38.982035,19.400982 c -0.04034,-0.0063 -0.242556,-0.03064 -0.449379,-0.05416 l -0.37604,-0.04277 -0.05821,-0.200253 c -0.03202,-0.110139 -0.05118,-0.207287 -0.04258,-0.215886 0.0086,-0.0086 0.179261,0.009 0.379251,0.03917 0.19999,0.03014 0.449275,0.0549 0.553968,0.05502 0.172565,1.96e-4 0.288787,0.0483 0.193467,0.08007 -0.02502,0.0083 -0.01873,0.06835 0.01811,0.172753 0.03104,0.08799 0.05644,0.166151 0.05644,0.1737 0,0.01494 -0.15779,0.01055 -0.275019,-0.0077 z"
       id="path3142"
       inkscape:connector-curvature="0"
       transform="translate(0,1032.3622)" />
    <path
       style="fill:#008080;fill-opacity:0.24636727"
       d="m 37.683261,19.200408 c -0.255657,-0.06694 -0.406343,-0.150581 -0.406343,-0.225536 0,-0.01802 -0.03235,-0.09972 -0.0719,-0.181562 l -0.07189,-0.148805 0.08106,0.02383 c 0.04458,0.01311 0.245407,0.06185 0.446272,0.108323 l 0.36521,0.08449 0.04661,0.179763 c 0.02564,0.09887 0.04693,0.192138 0.04732,0.207264 0.0011,0.04443 -0.14555,0.02838 -0.436341,-0.04777 z"
       id="path3144"
       inkscape:connector-curvature="0"
       transform="translate(0,1032.3622)" />
    <path
       style="fill:#008080;fill-opacity:0.24636727"
       d=""
       id="path3146"
       inkscape:connector-curvature="0"
       transform="translate(0,1032.3622)" />
    <path
       style="fill:#008080;fill-opacity:0.24636727"
       d="m 36.012914,19.155431 c -0.632652,-0.256138 -0.660103,-0.271507 -0.687547,-0.384958 -0.01572,-0.06499 -0.04467,-0.171798 -0.06432,-0.237344 -0.03204,-0.10685 -0.03375,-0.101498 -0.01658,0.05175 0.01054,0.09401 0.006,0.178704 -0.01011,0.188208 -0.05205,0.03074 -0.194272,-0.0434 -0.194272,-0.101269 0,-0.03782 -0.0355,-0.05618 -0.10858,-0.05618 -0.127276,0 -0.270126,-0.133445 -0.245138,-0.228999 0.01991,-0.07614 0.0091,-0.07874 -0.08455,-0.02028 -0.114147,0.07128 -0.236402,-0.01851 -0.288037,-0.21157 -0.04186,-0.156495 -0.0487,-0.16253 -0.184276,-0.16253 l -0.140805,0 -0.06529,-0.229182 c -0.03591,-0.126051 -0.07457,-0.262185 -0.08592,-0.302521 -0.01808,-0.06428 -0.0037,-0.06043 0.116689,0.0312 0.07553,0.0575 0.146186,0.09568 0.157019,0.08485 0.01608,-0.01608 -0.07233,-0.322777 -0.165317,-0.573521 -0.01104,-0.02976 0.05674,0.0088 0.150626,0.08576 0.165656,0.135743 0.260244,0.311761 0.335247,0.623861 0.02205,0.09174 0.01675,0.101945 -0.04069,0.07834 -0.160625,-0.066 -0.194376,-0.06463 -0.194376,0.0079 0,0.109874 0.117951,0.193306 0.273283,0.193306 0.101305,0 0.198921,0.0399 0.358815,0.146677 0.220441,0.147204 0.329739,0.190207 0.255217,0.100414 -0.05895,-0.07103 -0.482403,-0.278998 -0.6673,-0.327728 -0.136791,-0.03605 -0.149333,-0.04595 -0.07334,-0.05787 0.143476,-0.02251 0.156287,-0.05871 0.09445,-0.26695 -0.03178,-0.107009 -0.05778,-0.201331 -0.05778,-0.209605 0,-0.02972 0.499712,0.25944 0.723932,0.418903 0.140895,0.100203 0.237749,0.198053 0.251919,0.254512 0.02203,0.08779 0.02603,0.089 0.0931,0.0283 0.09206,-0.08331 0.146548,-0.02823 0.231323,0.233867 0.07931,0.2452 0.236987,0.378177 0.62486,0.526977 0.161344,0.0619 0.330506,0.146947 0.375915,0.189001 0.06936,0.06424 0.154835,0.265362 0.155584,0.366095 5.19e-4,0.06977 -0.21425,0.0073 -0.823769,-0.239424 z m -0.496118,-0.814815 c 0,-0.02787 -0.0165,-0.06087 -0.03667,-0.07334 -0.02088,-0.0129 -0.03667,0.01868 -0.03667,0.07334 0,0.05466 0.01579,0.08624 0.03667,0.07334 0.02017,-0.01246 0.03667,-0.04547 0.03667,-0.07334 z"
       id="path3148"
       inkscape:connector-curvature="0"
       transform="translate(0,1032.3622)" />
    <path
       style="fill:#008080;fill-opacity:0.24636727"
       d=""
       id="path3150"
       inkscape:connector-curvature="0"
       transform="translate(0,1032.3622)" />
    <path
       style="fill:#008080;fill-opacity:0.24636727"
       d="m 36.048499,18.701381 c -0.183912,-0.09696 -0.270777,-0.198501 -0.349272,-0.408296 -0.04125,-0.110255 -0.06873,-0.206733 -0.06107,-0.214395 0.0077,-0.0077 0.136127,0.04293 0.285476,0.112439 0.171581,0.07985 0.241172,0.127251 0.189039,0.128762 -0.117993,0.0034 -0.111236,0.182634 0.01243,0.329599 0.105548,0.125438 0.08689,0.138079 -0.0766,0.05189 z"
       id="path3152"
       inkscape:connector-curvature="0"
       transform="translate(0,1032.3622)" />
    <path
       style="fill:#008080;fill-opacity:0.24636727"
       d="m 41.089607,19.18162 c -0.08435,-0.221857 -0.04194,-0.258034 0.385934,-0.329229 0.08067,-0.01342 0.28571,-0.06379 0.45564,-0.111916 0.169929,-0.04813 0.311924,-0.08353 0.315543,-0.07867 0.0036,0.0049 0.03235,0.08613 0.06385,0.180606 l 0.05727,0.17177 -0.168497,0.05741 c -0.265848,0.09058 -0.320004,0.07865 -0.36365,-0.0801 l -0.03781,-0.13751 0.0038,0.163888 0.0038,0.163888 -0.183346,0.04344 c -0.100841,0.02389 -0.253885,0.04502 -0.340098,0.04696 -0.13606,0.0031 -0.161472,-0.0089 -0.192513,-0.09054 l 0,0 z"
       id="path3154"
       inkscape:connector-curvature="0"
       transform="translate(0,1032.3622)" />
    <path
       style="fill:#008080;fill-opacity:0.24636727"
       d="m 39.757347,19.219461 c -0.03303,-0.09693 -0.05588,-0.180398 -0.05079,-0.185488 0.0051,-0.0051 0.240169,-0.01467 0.522398,-0.02128 l 0.513143,-0.01203 0.04997,0.157849 c 0.02749,0.08682 0.04056,0.167261 0.02906,0.178765 -0.0115,0.0115 -0.24205,0.02935 -0.512324,0.03967 l -0.491407,0.01875 -0.06005,-0.176234 z"
       id="path3156"
       inkscape:connector-curvature="0"
       transform="translate(0,1032.3622)" />
    <path
       style="fill:#008080;fill-opacity:0.24636727"
       d="m 39.256147,19.328297 c -0.01967,-0.05173 -0.03576,-0.108513 -0.03576,-0.126178 0,-0.01767 -0.01584,-0.04191 -0.0352,-0.05387 -0.0206,-0.01273 -0.01884,0.02518 0.0042,0.09138 0.02169,0.06222 0.02889,0.123682 0.016,0.136572 -0.01289,0.01289 -0.241689,0.0026 -0.508441,-0.02284 -0.341473,-0.03258 -0.497469,-0.06234 -0.527121,-0.100567 -0.04623,-0.05959 -0.100996,-0.304592 -0.0741,-0.331484 0.0093,-0.0093 0.18772,0.0011 0.396559,0.02308 0.556397,0.05851 0.692376,0.08002 0.67577,0.106888 -0.0082,0.01324 0.04615,0.01825 0.12073,0.01114 0.133888,-0.01277 0.136359,-0.01057 0.195225,0.173504 l 0.05962,0.186436 -0.125878,0 c -0.101382,0 -0.132838,-0.01831 -0.16164,-0.09406 l 0,0 z"
       id="path3158"
       inkscape:connector-curvature="0"
       transform="translate(0,1032.3622)" />
    <path
       style="fill:#008080;fill-opacity:0.24636727"
       d="m 37.687944,19.679612 c -0.170691,-0.04044 -0.242796,-0.118882 -0.321135,-0.349352 -0.05014,-0.147494 -0.08668,-0.201257 -0.136793,-0.201257 -0.06128,0 -0.06616,0.0219 -0.047,0.210848 0.01778,0.175316 0.01439,0.195399 -0.02009,0.119175 -0.127056,-0.280873 -0.149014,-0.369888 -0.104483,-0.423545 0.02822,-0.03401 0.02772,-0.0912 -0.0018,-0.200734 -0.07611,-0.282634 0.0255,-0.23623 0.181021,0.08267 0.08343,0.171075 0.114392,0.199936 0.269861,0.251527 0.09659,0.03205 0.189279,0.07331 0.205974,0.09167 0.03118,0.0343 0.15011,0.370985 0.15011,0.424953 0,0.03401 -0.0081,0.03374 -0.175681,-0.006 l 0,0 z"
       id="path3160"
       inkscape:connector-curvature="0"
       transform="translate(0,1032.3622)" />
    <path
       style="fill:#008080;fill-opacity:0.24636727"
       d="m 36.708545,18.950164 c -0.247925,-0.0895 -0.42306,-0.180904 -0.524572,-0.273785 -0.07384,-0.06756 -0.08129,-0.06887 -0.05883,-0.01034 0.02428,0.06328 0.01953,0.06381 -0.08527,0.0096 -0.09372,-0.04847 -0.198196,-0.154177 -0.331121,-0.335045 -0.01482,-0.02017 -0.03003,-0.08183 -0.03379,-0.137029 -0.0068,-0.09924 -0.0055,-0.0998 0.110008,-0.0504 0.286284,0.122409 0.321239,0.144742 0.273729,0.174891 -0.03125,0.01983 -0.01637,0.02993 0.04467,0.03031 0.120646,7.4e-4 0.611194,0.165463 0.756291,0.253958 0.0814,0.04965 0.121626,0.108038 0.139288,0.202182 0.04179,0.222753 0.0022,0.241255 -0.290412,0.135635 l 0,0 z M 36.05445,18.423121 c -0.01017,-0.02521 -0.0185,-0.0046 -0.0185,0.04584 0,0.05042 0.0083,0.07105 0.0185,0.04584 0.01017,-0.02521 0.01017,-0.06646 0,-0.09167 z"
       id="path3162"
       inkscape:connector-curvature="0"
       transform="translate(0,1032.3622)" />
    <path
       style="fill:#008080;fill-opacity:0.24636727"
       d="m 37.680279,19.180016 c -0.187337,-0.05032 -0.454344,-0.195599 -0.420916,-0.229027 0.0081,-0.0081 -0.0086,-0.07031 -0.03703,-0.138331 -0.02842,-0.06803 -0.03732,-0.123685 -0.01978,-0.123685 0.06128,0 0.680102,0.149166 0.76191,0.183657 0.04688,0.01976 0.08251,0.06679 0.08251,0.10891 0,0.04077 0.01421,0.07413 0.03158,0.07413 0.01737,0 0.0237,0.04125 0.01406,0.09167 -0.02079,0.108784 -0.10433,0.115404 -0.412336,0.03268 z"
       id="path3164"
       inkscape:connector-curvature="0"
       transform="translate(0,1032.3622)" />
    <path
       style="fill:#008080;fill-opacity:0.24636727"
       d="m 36.946895,19.533899 c -0.14675,-0.04361 -0.183958,-0.06675 -0.136609,-0.08494 0.07673,-0.02947 0.05831,-0.157454 -0.05007,-0.347917 l -0.06807,-0.119631 0.09987,0.02185 c 0.05493,0.01202 0.118046,0.02727 0.140258,0.03388 0.03637,0.01083 0.251157,0.531609 0.226551,0.549311 -0.0056,0.0041 -0.101009,-0.0196 -0.211933,-0.05256 z"
       id="path3166"
       inkscape:connector-curvature="0"
       transform="translate(0,1032.3622)" />
    <path
       style="fill:#008080;fill-opacity:0.24636727"
       d="m 37.64361,19.653027 c -0.105156,-0.03867 -0.183576,-0.132908 -0.272843,-0.327893 -0.108532,-0.237065 -0.203305,-0.264169 -0.204972,-0.05862 -9.87e-4,0.121714 -0.006,0.129139 -0.04336,0.06464 -0.02324,-0.04008 -0.04636,-0.205091 -0.05138,-0.366692 -0.0084,-0.270833 -0.0047,-0.288081 0.04728,-0.22048 0.03102,0.04034 0.07912,0.122842 0.106889,0.183346 0.07917,0.172516 0.131808,0.219507 0.302048,0.26962 0.132791,0.03909 0.170047,0.07175 0.228378,0.200232 0.114412,0.252005 0.08156,0.327035 -0.112034,0.255852 l 0,0 z"
       id="path3168"
       inkscape:connector-curvature="0"
       transform="translate(0,1032.3622)" />
    <path
       style="fill:#008080;fill-opacity:0.24636727"
       d="m 37.020233,19.542539 c -0.03025,-0.01139 -0.09245,-0.03455 -0.138218,-0.05147 -0.07082,-0.02618 -0.07677,-0.04108 -0.03995,-0.10005 0.03544,-0.05675 0.02818,-0.0937 -0.04014,-0.204248 -0.09344,-0.151182 -0.08274,-0.18686 0.0463,-0.154473 0.06349,0.01594 0.115169,0.08245 0.185054,0.238172 0.129695,0.288998 0.127961,0.325148 -0.01305,0.27207 z"
       id="path3170"
       inkscape:connector-curvature="0"
       transform="translate(0,1032.3622)" />
    <path
       style="fill:#008080;fill-opacity:0.24636727"
       d="m 39.075174,19.860145 c -0.48791,-0.03266 -1.120528,-0.109274 -1.163524,-0.140918 -0.01633,-0.01202 -0.06601,-0.125839 -0.110399,-0.252934 -0.07554,-0.216281 -0.07642,-0.229722 -0.01376,-0.209836 0.162222,0.05149 1.065676,0.163539 1.662081,0.206141 0.357983,0.02557 0.651057,0.05586 0.651275,0.0673 2.18e-4,0.01144 0.02418,0.09918 0.05325,0.194983 l 0.05285,0.174178 -0.355771,-0.0054 c -0.195674,-0.003 -0.544875,-0.01805 -0.776001,-0.03352 l 0,0 z"
       id="path3172"
       inkscape:connector-curvature="0"
       transform="translate(0,1032.3622)" />
    <path
       style="fill:#008080;fill-opacity:0.24636727"
       d="m 39.587077,19.874048 c -0.383495,-0.0124 -1.065253,-0.07374 -1.42001,-0.127761 -0.218644,-0.03329 -0.269158,-0.0539 -0.289128,-0.117965 -0.01331,-0.04269 -0.03759,-0.0863 -0.05395,-0.0969 -0.029,-0.01879 -0.08368,-0.255739 -0.05902,-0.255739 0.0068,0 0.176191,0.02432 0.376382,0.05405 0.317492,0.04714 1.778971,0.202636 1.904593,0.202636 0.03615,0 0.127839,0.24835 0.127839,0.346261 0,0.01124 -0.06188,0.01707 -0.137509,0.01297 -0.07563,-0.0041 -0.277769,-0.012 -0.449198,-0.01755 z"
       id="path3174"
       inkscape:connector-curvature="0"
       transform="translate(0,1032.3622)" />
    <path
       style="fill:#008080;fill-opacity:0.24636727"
       d="m 39.165381,19.837638 c -0.313493,-0.01971 -0.908772,-0.08909 -1.084957,-0.126451 -0.140757,-0.02984 -0.178181,-0.05654 -0.229183,-0.163494 -0.07254,-0.152112 -0.07998,-0.276675 -0.01512,-0.252936 0.05505,0.02015 1.499488,0.186831 1.92125,0.221706 0.26892,0.02224 0.302673,0.03355 0.33919,0.113696 0.0223,0.04895 0.04055,0.121228 0.04055,0.160615 0,0.06701 -0.02536,0.07119 -0.394194,0.065 -0.216806,-0.0036 -0.476699,-0.0118 -0.57754,-0.01814 l 0,0 z"
       id="path3176"
       inkscape:connector-curvature="0"
       transform="translate(0,1032.3622)" />
    <path
       style="fill:#008080;fill-opacity:0.24636727"
       d="m 40.230668,19.828759 c -0.01143,-0.0185 -0.03097,-0.107931 -0.04342,-0.198747 l -0.02263,-0.165118 0.160426,-0.02081 c 0.08823,-0.01145 0.398703,-0.04673 0.689931,-0.07842 0.291227,-0.03168 0.542042,-0.06535 0.557365,-0.07482 0.04294,-0.02654 0.104879,0.113912 0.104879,0.237819 0,0.155276 -0.07069,0.182954 -0.673585,0.263736 -0.580571,0.07779 -0.742651,0.08541 -0.772968,0.03636 z"
       id="path3178"
       inkscape:connector-curvature="0"
       transform="translate(0,1032.3622)" />
    <path
       style="fill:#008080;fill-opacity:0.24636727"
       d="m 40.313017,19.836519 c -0.06321,-0.0157 -0.07905,-0.04902 -0.119536,-0.251317 l -0.02245,-0.112174 0.560581,-0.06399 c 0.308319,-0.0352 0.630313,-0.07347 0.715542,-0.08505 0.144748,-0.01967 0.15758,-0.01417 0.194696,0.08345 0.09119,0.239844 -0.0382,0.306914 -0.734684,0.380834 -0.211764,0.02248 -0.418029,0.04601 -0.458365,0.05231 -0.04034,0.0063 -0.10144,0.0045 -0.135786,-0.0041 z"
       id="path3180"
       inkscape:connector-curvature="0"
       transform="translate(0,1032.3622)" />
    <path
       style="fill:#008080;fill-opacity:0.24636727"
       d="m 41.756446,19.585643 c -0.02341,-0.05137 -0.04256,-0.139539 -0.04256,-0.195934 0,-0.09933 0.0152,-0.107371 0.485867,-0.257164 0.730998,-0.232643 1.128071,-0.389209 1.714285,-0.675942 0.292436,-0.143039 0.546629,-0.260654 0.564873,-0.261368 0.01824,-7.13e-4 0.06202,0.08357 0.09727,0.187292 l 0.0641,0.188588 -0.463965,0.220528 c -0.899483,0.427534 -1.848577,0.777391 -2.108911,0.777391 -0.06849,0 -0.145072,0.02475 -0.170179,0.055 -0.06374,0.07681 -0.09179,0.06916 -0.140791,-0.03839 z"
       id="path3182"
       inkscape:connector-curvature="0"
       transform="translate(0,1032.3622)" />
    <path
       style="fill:#008080;fill-opacity:0.24636727"
       d="m 41.7529,19.505556 c -0.02822,-0.102205 -0.02634,-0.147917 0.0074,-0.1807 0.02487,-0.02414 0.310642,-0.134999 0.635046,-0.246361 0.758222,-0.260285 0.845692,-0.295367 1.511868,-0.606369 0.306136,-0.142919 0.563118,-0.259853 0.57107,-0.259853 0.01783,0 0.13243,0.282712 0.13243,0.326694 0,0.06605 -1.365073,0.668293 -1.961802,0.86551 -0.20168,0.06666 -0.445275,0.132852 -0.541321,0.147105 -0.09605,0.01425 -0.183651,0.04051 -0.194678,0.05835 -0.04609,0.07458 -0.124819,0.02324 -0.160056,-0.104378 z"
       id="path3184"
       inkscape:connector-curvature="0"
       transform="translate(0,1032.3622)" />
    <path
       style="fill:#008080;fill-opacity:0.24636727"
       d="m 44.637276,18.315443 c -0.05931,-0.185478 -0.04111,-0.286516 0.05162,-0.286516 0.09239,0 0.891773,-0.588884 1.332533,-0.981642 l 0.218926,-0.195082 0.04123,0.12083 c 0.106167,0.311169 0.119944,0.28146 -0.287604,0.620216 -0.45871,0.381284 -1.202978,0.912378 -1.278593,0.912378 -0.0095,0 -0.04466,-0.08558 -0.07811,-0.190184 z"
       id="path3186"
       inkscape:connector-curvature="0"
       transform="translate(0,1032.3622)" />
    <path
       style="fill:#008080;fill-opacity:0.24636727"
       d="m 44.689724,18.404787 c -0.01849,-0.03529 -0.0449,-0.116717 -0.05868,-0.180939 -0.02182,-0.101658 -0.0117,-0.124941 0.07817,-0.179947 0.37687,-0.230668 1.313603,-0.942427 1.438722,-1.093187 0.02672,-0.03219 0.06045,-0.05853 0.07495,-0.05853 0.04331,0 0.117018,0.290977 0.09293,0.366877 -0.0193,0.06083 -0.294277,0.295957 -0.843333,0.721142 -0.227436,0.176125 -0.688166,0.488757 -0.720288,0.488757 -0.01587,0 -0.04398,-0.02888 -0.06247,-0.06417 z"
       id="path3188"
       inkscape:connector-curvature="0"
       transform="translate(0,1032.3622)" />
    <path
       style="fill:#008080;fill-opacity:0.24636727"
       d="m 46.344992,17.258874 c 0.0083,-0.03025 -0.008,-0.133738 -0.03617,-0.229967 l -0.05126,-0.174965 0.366571,-0.403392 C 48.311147,14.594086 49.155233,12.439691 49.157416,9.9847551 49.157867,9.477971 49.05778,8.4329854 48.969066,8.0182362 48.688908,6.7084498 48.01517,5.2864774 47.144927,4.1682575 46.822738,3.7542601 46.178056,3.090488 45.747502,2.7294516 44.14822,1.3883906 41.882629,0.53771975 39.910264,0.53771975 c -0.319071,0 -0.469864,-0.0130273 -0.469864,-0.0405924 0,-0.0235652 -0.02687,-0.0302824 -0.06405,-0.0160137 -0.03523,0.0135183 -0.312894,0.0561633 -0.617035,0.0947667 -0.760498,0.0965266 -1.518582,0.2653392 -2.109204,0.46968425 l -0.205111,0.070965 -0.05996,-0.18750848 c -0.03298,-0.10312974 -0.04794,-0.1987629 -0.03324,-0.21251821 0.0147,-0.0137553 0.162561,-0.067496 0.328583,-0.11942373 0.766808,-0.2398391 1.663384,-0.41817003 2.273718,-0.45224717 l 0.375424,-0.0209613 0.054,0.12441889 0.054,0.12441888 0.0014,-0.13882703 0.0014,-0.13882704 0.33919,0.02126374 c 1.877969,0.11772939 2.943502,0.37439486 4.264016,1.02711518 2.59245,1.2814286 4.4927,3.6351633 5.23942,6.4897764 0.170681,0.6524939 0.199951,0.8549739 0.240087,1.6608595 0.04324,0.8681749 -0.0055,2.0132409 -0.108374,2.5446649 -0.279462,1.444036 -0.948128,2.914485 -1.892925,4.162695 -0.304383,0.402134 -1.206669,1.366234 -1.176822,1.257445 l 0,0 z"
       id="path3190"
       inkscape:connector-curvature="0"
       transform="translate(0,1032.3622)" />
    <path
       style="fill:#008080;fill-opacity:0.24636727"
       d="m 46.329865,17.158034 c -0.0024,-0.03529 -0.0017,-0.0848 0.0016,-0.110008 0.0033,-0.02521 -0.0085,-0.04584 -0.0262,-0.04584 -0.09618,0 0.01446,-0.190603 0.293783,-0.506101 0.481176,-0.543498 0.67109,-0.789023 1.023658,-1.323408 1.329269,-2.014759 1.785685,-4.245287 1.403029,-6.8566649 C 48.916826,7.5727117 48.59217,6.6231019 48.14667,5.7447459 47.656327,4.7779775 47.196378,4.1480205 46.3906,3.3395918 45.601121,2.5475155 44.923036,2.0446594 44.02405,1.5845988 42.818343,0.9675723 41.2229,0.54344887 40.082111,0.53669631 c -0.20168,-0.001194 -0.440947,-0.0166029 -0.531703,-0.0342424 -0.304177,-0.0591204 -1.803362,0.19989659 -2.667271,0.46082944 -0.226664,0.0684609 -0.418408,0.12447434 -0.426098,0.12447434 -0.03551,0 -0.104294,-0.33716937 -0.07468,-0.36606528 0.04453,-0.0434414 0.71579,-0.24020005 1.187909,-0.34819588 0.425778,-0.0973955 0.998806,-0.18549137 1.449059,-0.22277458 l 0.293978,-0.0243429 0.0612,0.12316467 0.0612,0.12316466 0.0023,-0.13782982 0.0023,-0.13782982 0.192514,0.01866676 c 0.105882,0.0102667 0.407028,0.0360695 0.669213,0.0573396 1.560836,0.12662497 2.582041,0.40231199 3.82694,1.03313039 2.648185,1.3418958 4.568106,3.8340674 5.227334,6.7853904 0.224462,1.0049039 0.227122,2.9524191 0.0055,4.0236031 -0.30082,1.453953 -1.130867,3.150311 -2.088772,4.2688 -0.299559,0.349777 -0.868822,0.938226 -0.907636,0.938226 -0.0172,0 -0.03324,-0.02888 -0.03563,-0.06417 l 0,0 z"
       id="path3192"
       inkscape:connector-curvature="0"
       transform="translate(0,1032.3622)" />
    <path
       style="fill:#008080;fill-opacity:0.24636727"
       d="m 46.321565,17.048482 c -0.02746,-0.169243 0.01038,-0.228683 0.543143,-0.853015 0.527144,-0.61775 0.994982,-1.327452 1.341572,-2.03514 0.348043,-0.710656 0.507908,-1.138088 0.674889,-1.804446 0.188089,-0.750597 0.243072,-1.183096 0.264742,-2.082489 C 49.177102,8.978828 49.059298,8.1063285 48.716196,7.0907735 48.199502,5.5614007 47.438733,4.3502013 46.292305,3.2317653 45.299607,2.263305 44.389353,1.6735023 43.10732,1.1680428 42.14478,0.78854777 41.258374,0.60147351 40.048642,0.5225145 c -0.706269,-0.0460981 -0.749214,-0.0448605 -1.311271,0.037789 -0.636891,0.0936539 -1.217932,0.21653899 -1.810154,0.38283212 -0.461508,0.12958892 -0.479103,0.13047162 -0.507248,0.0254473 -0.04471,-0.16684783 -0.02547,-0.24843444 0.06686,-0.28354161 0.200789,-0.0763398 1.053738,-0.29283193 1.431795,-0.36341261 0.330276,-0.0616603 1.233789,-0.18727004 1.347037,-0.18727004 0.01602,0 0.06183,0.0536287 0.101798,0.11917489 l 0.07266,0.11917489 1.36e-4,-0.13659276 c 1.3e-4,-0.12854076 0.0061,-0.13561985 0.100979,-0.12008851 0.05546,0.009077 0.406111,0.0429424 0.77922,0.0752557 1.4222,0.12317041 2.290237,0.33671949 3.399634,0.83635699 1.083586,0.4880136 1.995268,1.1195361 2.882558,1.9967491 0.820909,0.8115863 1.410136,1.6356964 1.931603,2.7015945 0.658106,1.3451945 0.91667,2.3667012 0.974689,3.8506937 0.02601,0.6653529 -0.02285,1.6033419 -0.112698,2.1634829 -0.240632,1.500144 -1.19057,3.484501 -2.211807,4.620319 -0.298856,0.332387 -0.784102,0.825057 -0.812624,0.825057 -0.01541,0 -0.03802,-0.06167 -0.05025,-0.137054 z"
       id="path3194"
       inkscape:connector-curvature="0"
       transform="translate(0,1032.3622)" />
    <path
       style="fill:#008080;fill-opacity:0.24636727"
       d="m 46.33421,17.041246 c 0,-0.177694 0.04855,-0.255407 0.493999,-0.790775 1.23641,-1.485982 1.965083,-3.036481 2.2403,-4.766996 0.03337,-0.209844 0.06703,-0.722272 0.07869,-1.197997 C 49.18502,8.7425863 49.026231,7.8039359 48.509326,6.5147991 48.030425,5.3204415 47.408203,4.3707888 46.482003,3.4206423 45.565358,2.4802978 44.708479,1.8677085 43.639024,1.3881749 42.503127,0.87884967 41.489017,0.61989868 40.314679,0.53931031 40.005255,0.51807613 39.653814,0.49378752 39.5337,0.4853356 39.156589,0.45879967 38.067862,0.64229403 37.051553,0.90367732 36.756174,0.97964548 36.49653,1.0306948 36.474565,1.0171202 c -0.06569,-0.0405987 -0.09026,-0.24015326 -0.03503,-0.28451965 0.05236,-0.0420584 0.510744,-0.17667022 1.021444,-0.29996073 0.354518,-0.0855857 0.8688,-0.17243143 1.422206,-0.24016526 l 0.377846,-0.0462462 0.08928,0.11324002 0.08928,0.11324002 4.07e-4,-0.10199115 c 2.42e-4,-0.0603012 0.02492,-0.11139717 0.06037,-0.12500223 0.09198,-0.0352966 1.809571,0.16132197 2.30102,0.26340607 1.616767,0.33583527 3.210965,1.16001196 4.443409,2.29717666 0.974689,0.8993353 1.619705,1.7450816 2.201597,2.8867375 0.769414,1.5095671 1.043568,2.6636997 1.043034,4.3909546 -5.43e-4,1.7576202 -0.214713,2.7102542 -0.958211,4.2621672 -0.381029,0.795325 -0.744389,1.368812 -1.246695,1.967645 -0.33532,0.399756 -0.854729,0.935065 -0.907293,0.935065 -0.02366,0 -0.04302,-0.04843 -0.04302,-0.107621 z"
       id="path3196"
       inkscape:connector-curvature="0"
       transform="translate(0,1032.3622)" />
    <path
       style="fill:#008080;fill-opacity:0.24636727"
       d="m 40.907168,1.07143 c -0.15126,-0.023186 -0.252685,-0.050194 -0.225388,-0.060016 0.08982,-0.0323192 -0.04582,-0.28430736 -0.185768,-0.34510988 l -0.120547,-0.0523755 0.183346,8.6605e-4 c 0.184711,8.7251e-4 0.790098,0.0930606 0.667551,0.10165436 -0.05563,0.003901 -0.06198,0.0259352 -0.04101,0.14212608 0.01365,0.0756302 0.03973,0.16638647 0.05796,0.20168057 0.03753,0.072689 0.06024,0.071934 -0.33614,0.011174 z"
       id="path3198"
       inkscape:connector-curvature="0"
       transform="translate(0,1032.3622)" />
    <path
       style="fill:#008080;fill-opacity:0.24636727"
       d="m 33.940021,1.9923692 c 0,-0.025425 0.354701,-0.2651219 0.746658,-0.5045702 0.403067,-0.2462358 0.408577,-0.2482901 0.452764,-0.1688112 l 0.04473,0.080458 0.0013,-0.082046 c 0.002,-0.1259969 0.321461,-0.3031664 0.944725,-0.52392669 l 0.191706,-0.0679025 0.03951,0.14671768 c 0.02173,0.0806947 0.04787,0.16850612 0.05809,0.19513632 0.02274,0.059257 -0.585312,0.2895882 -0.682801,0.2586465 -0.04375,-0.013885 -0.07031,0.00328 -0.08358,0.054011 -0.01293,0.04946 -0.04987,0.074367 -0.110277,0.074367 -0.05999,0 -0.09734,0.0249 -0.110007,0.073338 -0.02732,0.1044796 -0.123737,0.090654 -0.191788,-0.027502 l -0.05808,-0.1008403 0.01951,0.095137 c 0.02205,0.1075434 -0.06116,0.2027036 -0.269365,0.3080569 -0.190195,0.096239 -0.993086,0.2496322 -0.993086,0.1897296 z"
       id="path3200"
       inkscape:connector-curvature="0"
       transform="translate(0,1032.3622)" />
    <path
       style="fill:#008080;fill-opacity:0.24636727"
       d="m 35.270294,1.5186208 c -0.07393,-0.09555 -0.08396,-0.1863823 -0.02971,-0.2691764 0.05716,-0.08723 0.41542,-0.27010466 0.815735,-0.4163878 0.192918,-0.0704962 0.235534,-0.075556 0.278075,-0.0330155 0.02763,0.027632 0.05089,0.0747952 0.05169,0.1048072 7.96e-4,0.030012 0.0077,0.079319 0.01528,0.10957103 0.018,0.071571 -0.344889,0.2553176 -0.560623,0.283869 -0.09394,0.012432 -0.178525,0.048664 -0.206845,0.088597 -0.02635,0.03716 -0.07822,0.067564 -0.115252,0.067564 -0.03703,0 -0.07683,0.024752 -0.08844,0.055004 -0.02566,0.066863 -0.111454,0.071782 -0.159903,0.00917 z"
       id="path3202"
       inkscape:connector-curvature="0"
       transform="translate(0,1032.3622)" />
    <path
       style="fill:#008080;fill-opacity:0.24636727"
       d="m 36.176842,19.20429 c -0.502199,-0.198627 -0.745833,-0.312813 -0.79346,-0.371879 -0.02296,-0.02847 -0.06662,-0.134271 -0.09702,-0.235111 l -0.05528,-0.183346 -0.0038,0.174179 c -0.0041,0.188771 -0.06836,0.232286 -0.157582,0.106767 -0.02635,-0.03708 -0.09733,-0.07966 -0.157719,-0.09462 -0.147423,-0.03653 -0.201885,-0.08707 -0.201885,-0.187326 0,-0.07648 -0.01265,-0.082 -0.146701,-0.06402 l -0.146701,0.01968 -0.0782,-0.188177 c -0.07387,-0.177739 -0.08562,-0.188178 -0.21187,-0.188178 l -0.133666,0 -0.06343,-0.247517 c -0.08225,-0.320921 -0.08217,-0.321292 0.0493,-0.227679 0.06167,0.04391 0.119271,0.07268 0.128013,0.06394 0.01554,-0.01554 -0.06377,-0.350732 -0.113094,-0.477973 -0.04367,-0.112637 0.04626,-0.06924 0.179803,0.08678 0.118878,0.138883 0.243197,0.413325 0.243197,0.536874 0,0.03802 -0.02862,0.0451 -0.110007,0.02722 -0.09373,-0.02059 -0.110008,-0.01327 -0.110008,0.04947 0,0.108601 0.08554,0.175594 0.259803,0.203459 0.08509,0.01361 0.256924,0.0819 0.381844,0.151757 0.249724,0.139654 0.308924,0.156973 0.23593,0.06902 -0.05676,-0.0684 -0.394618,-0.24208 -0.601269,-0.309101 -0.136929,-0.04441 -0.140401,-0.049 -0.05968,-0.07886 0.08911,-0.03297 0.09037,-0.05589 0.01866,-0.341601 l -0.02495,-0.0994 0.123893,0.06407 c 0.306628,0.158564 0.735481,0.464782 0.800385,0.571508 0.03909,0.06429 0.08155,0.178855 0.09435,0.254596 0.0128,0.07574 0.04679,0.146735 0.07553,0.157766 0.06428,0.02467 0.06438,0.02925 -0.0034,-0.163002 -0.06162,-0.174638 -0.02201,-0.278655 0.06844,-0.179761 0.05542,0.06059 0.190955,0.404308 0.177582,0.450352 -0.0048,0.01662 0.0064,0.02084 0.02496,0.0094 0.01855,-0.01147 0.04217,0.0011 0.05247,0.02797 0.0103,0.02685 0.160543,0.112688 0.333865,0.190748 0.212904,0.09589 0.315131,0.161754 0.315131,0.203043 0,0.03361 0.02402,0.129195 0.05338,0.212402 0.02936,0.08321 0.04173,0.149724 0.0275,0.147813 -0.01423,-0.0019 -0.182636,-0.06547 -0.374232,-0.141254 z"
       id="path3204"
       inkscape:connector-curvature="0"
       transform="translate(0,1032.3622)" />
    <path
       style="fill:#008080;fill-opacity:0.24636727"
       d=""
       id="path3206"
       inkscape:connector-curvature="0"
       transform="translate(0,1032.3622)" />
    <path
       style="fill:#008080;fill-opacity:0.24636727"
       d="m 37.350623,19.646318 c -0.07077,-0.0197 -0.0971,-0.05804 -0.117061,-0.170524 -0.06455,-0.363683 -0.0057,-0.393574 0.137437,-0.06984 0.04724,0.106822 0.115529,0.211465 0.15175,0.232541 0.06146,0.03576 0.06096,0.03815 -0.0075,0.03578 -0.04034,-0.0014 -0.114425,-0.01398 -0.164644,-0.02795 z"
       id="path3208"
       inkscape:connector-curvature="0"
       transform="translate(0,1032.3622)" />
    <path
       style="fill:#008080;fill-opacity:0.24636727"
       d="m 37.318761,19.609677 c -0.02741,-0.01737 -0.05733,-0.111994 -0.06649,-0.210287 -0.01778,-0.190763 -0.02315,-0.191044 0.124238,0.0065 0.04476,0.05998 0.120426,0.196746 0.120426,0.21765 0,0.03023 -0.12378,0.0206 -0.178172,-0.01386 z"
       id="path3210"
       inkscape:connector-curvature="0"
       transform="translate(0,1032.3622)" />
    <path
       style="fill:#008080;fill-opacity:0.24636727"
       d="m 37.377783,19.614604 c -0.06732,-0.01497 -0.116044,-0.142731 -0.09495,-0.248941 0.0087,-0.04358 0.03851,-0.01598 0.09862,0.09118 0.09339,0.16648 0.09309,0.179283 -0.0037,0.157758 z"
       id="path3212"
       inkscape:connector-curvature="0"
       transform="translate(0,1032.3622)" />
    <path
       style="fill:#008080;fill-opacity:0.24636727"
       d="m 12.635216,3.1167118 c -0.110924,-0.00603 -0.325202,-0.021246 -0.476172,-0.033824 l -0.274492,-0.02287 0.14615,-0.075254 C 12.757088,2.610738 13.803339,2.2822398 14.688691,2.1502173 15.230712,2.069392 17.798806,2.0442394 25.665242,2.04271 l 7.988011,-0.00155 -0.177472,0.141286 c -0.09761,0.077707 -0.339796,0.2839716 -0.538194,0.458365 l -0.360722,0.3170789 -7.724836,0.00136 c -7.736398,0.00136 -9.590889,0.023911 -10.310014,0.1253493 -0.350066,0.04938 -1.295717,0.065306 -1.906799,0.032114 z"
       id="path3214"
       inkscape:connector-curvature="0"
       transform="translate(0,1032.3622)" />
    <path
       style="fill:#008080;fill-opacity:0.24636727"
       d="M 12.176851,3.0726268 11.920167,3.0495598 12.341863,2.8612656 C 13.072396,2.5350702 14.145059,2.2300021 14.853703,2.1468914 15.191368,2.1072895 24.107463,2.04622 29.778067,2.044669 l 3.850265,-0.00105 -0.145508,0.1179454 c -0.08003,0.06487 -0.321083,0.2693692 -0.535675,0.4544429 l -0.390167,0.3364975 -8.631624,0.01925 c -5.653649,0.012609 -8.73916,0.032455 -8.943313,0.057525 -0.365733,0.044911 -2.432426,0.076849 -2.805194,0.04335 z"
       id="path3216"
       inkscape:connector-curvature="0"
       transform="translate(0,1032.3622)" />
    <path
       style="fill:#008080;fill-opacity:0.24636727"
       d="M 12.069251,3.0351207 C 12.04206,2.9911248 12.844448,2.6643825 13.3686,2.5060094 14.313428,2.220529 14.544374,2.1838122 15.605421,2.1503911 c 1.022726,-0.032214 17.92862,-0.1240756 17.955133,-0.097563 0.01355,0.013551 -0.681501,0.6179064 -0.935449,0.8133855 -0.09444,0.072695 -0.171559,0.073565 -8.786662,0.099156 -4.936643,0.014664 -8.929007,0.041293 -9.241425,0.061641 -0.699902,0.045584 -2.501035,0.051363 -2.527767,0.00811 z"
       id="path3218"
       inkscape:connector-curvature="0"
       transform="translate(0,1032.3622)" />
    <path
       style="fill:#008080;fill-opacity:0.24636727"
       d="m 9.5212551,5.2114187 c 0,-0.056417 0.4113727,-0.5533107 0.7077979,-0.854943 C 10.61647,3.9622543 10.797685,3.803544 11.27637,3.4392222 l 0.34335,-0.2613202 0.503352,0 c 0.276844,0 0.77898,0.01087 1.115858,0.024157 l 0.612507,0.024157 -0.414137,0.1536952 c -0.926077,0.3436875 -1.695457,0.817809 -2.353219,1.450144 l -0.41746,0.4013227 -0.572683,0 c -0.3149757,0 -0.5726829,-0.00898 -0.5726829,-0.019958 z"
       id="path3220"
       inkscape:connector-curvature="0"
       transform="translate(0,1032.3622)" />
    <path
       style="fill:#008080;fill-opacity:0.24636727"
       d="M 9.8005281,5.1973999 9.5480978,5.1763733 9.7053056,4.9778318 C 10.007698,4.5959327 10.680329,3.9345118 11.153034,3.5542312 l 0.4767,-0.3834942 0.568373,0.021795 c 0.312605,0.011987 0.778762,0.02185 1.035904,0.021917 0.257143,6.71e-5 0.467473,0.012498 0.4674,0.027624 -7.3e-5,0.015126 -0.144458,0.083106 -0.320855,0.151067 -0.851702,0.3281354 -1.61199,0.7995259 -2.309143,1.4317056 l -0.448314,0.4065314 -0.28507,-0.00648 C 10.18124,5.2213405 9.9393648,5.2089646 9.8005281,5.1973999 z"
       id="path3222"
       inkscape:connector-curvature="0"
       transform="translate(0,1032.3622)" />
    <path
       style="fill:#008080;fill-opacity:0.24636727"
       d="m 9.771064,5.7563659 c 0.026471,-0.010593 0.058098,-0.00929 0.070283,0.00289 0.012185,0.012185 -0.00947,0.020852 -0.048128,0.019259 -0.042718,-0.00176 -0.051406,-0.010449 -0.022154,-0.022154 z"
       id="path3224"
       inkscape:connector-curvature="0"
       transform="translate(0,1032.3622)" />
    <path
       style="fill:#008080;fill-opacity:0.24636727"
       d="m 8.5311868,7.1702237 c 0,-0.073537 0.2616727,-0.7007453 0.446897,-1.0711759 l 0.1803825,-0.3607475 0.4838828,0.024847 c 0.2661354,0.013666 0.5036709,0.035922 0.5278579,0.049457 0.03026,0.016934 -0.04575,0.1827238 -0.2437019,0.5315527 C 9.768283,6.622976 9.6118644,6.9217048 9.5789084,7.0079991 c -0.057848,0.1514717 -0.06654,0.1576938 -0.2513,0.179888 -0.3230825,0.03881 -0.7964216,0.028312 -0.7964216,-0.017663 z"
       id="path3226"
       inkscape:connector-curvature="0"
       transform="translate(0,1032.3622)" />
    <path
       style="fill:#008080;fill-opacity:0.24636727"
       d="M 9.3303826,5.6814622 9.1945139,5.6671761 9.3038381,5.4895016 c 0.060128,-0.097721 0.1369282,-0.1882671 0.1706666,-0.2012137 0.1011583,-0.038818 1.0439593,-0.027769 1.0844373,0.012709 0.03721,0.037208 -0.103057,0.262296 -0.225111,0.3612429 -0.05438,0.044086 -0.6571605,0.055633 -1.0034484,0.019222 z"
       id="path3228"
       inkscape:connector-curvature="0"
       transform="translate(0,1032.3622)" />
    <path
       style="fill:#008080;fill-opacity:0.24636727"
       d="m 9.2279015,5.6505125 c 0,-0.011492 0.049477,-0.092807 0.1099488,-0.1807001 0.1019079,-0.148118 0.1250806,-0.1616956 0.3168577,-0.1856566 0.1902532,-0.02377 0.853586,0.00531 0.887169,0.03889 0.02598,0.025985 -0.145341,0.2750014 -0.214766,0.3121567 -0.0704,0.037677 -1.0992095,0.052007 -1.0992095,0.01531 z"
       id="path3230"
       inkscape:connector-curvature="0"
       transform="translate(0,1032.3622)" />
    <path
       style="fill:#008080;fill-opacity:0.24636727"
       d="m 8.0965531,9.3230264 c 0.00712,-0.2504323 0.023778,-0.466162 0.037028,-0.4793994 0.01325,-0.013237 0.1370082,-0.037186 0.275019,-0.053218 C 8.6012836,8.768025 8.6239086,8.76014 8.506072,8.7564394 8.4216707,8.7537888 8.3092735,8.7351417 8.2563005,8.7150014 8.128527,8.666422 8.1265565,8.6813228 8.4386668,7.3360137 8.4540215,7.2698294 8.491929,7.2557118 8.7047276,7.2369265 8.9477151,7.2154763 9.388227,7.2496087 9.4318878,7.2932694 9.4440113,7.3053929 9.3959628,7.5023471 9.3251134,7.7309453 9.127017,8.3701109 8.9752339,9.1761711 8.972379,9.604179 l -0.00116,0.1741787 -0.4438009,0 -0.443801,0 0.012938,-0.4553313 z"
       id="path3232"
       inkscape:connector-curvature="0"
       transform="translate(0,1032.3622)" />
    <path
       style="fill:#008080;fill-opacity:0.24636727"
       d="m 8.6686963,7.1870191 c -0.055462,-0.00938 -0.1008403,-0.038432 -0.1008403,-0.06457 0,-0.065388 0.1831852,-0.5037724 0.4108331,-0.9831741 L 9.1686759,5.739183 9.3724674,5.7589747 c 0.1120853,0.010886 0.3316753,0.030046 0.4879778,0.042579 0.1563028,0.012533 0.2841858,0.039311 0.2841858,0.059505 0,0.080096 -0.6452604,1.2773247 -0.6967143,1.2926974 -0.09006,0.026907 -0.6702937,0.051675 -0.7792204,0.033262 z"
       id="path3238"
       inkscape:connector-curvature="0"
       transform="translate(0,1032.3622)" />
    <path
       style="fill:#008080;fill-opacity:0.24636727"
       d="m 8.1121192,9.32916 c 0.013959,-0.2470587 0.03091,-0.4555288 0.037668,-0.4632668 0.00676,-0.00774 0.1159643,-0.033662 0.24268,-0.05761 L 8.6228598,8.7647432 8.4211792,8.7305338 C 8.2300964,8.6981222 8.2189067,8.6902303 8.2082357,8.5803491 8.197091,8.46559 8.4332811,7.3338656 8.477632,7.2895148 c 0.033013,-0.033013 0.8853517,-0.02848 0.9187173,0.00489 0.015335,0.015335 -0.040435,0.2793536 -0.1239342,0.5867072 -0.1860889,0.6849775 -0.301198,1.3144044 -0.301198,1.6469791 l 0,0.2502712 -0.4422393,0 -0.4422394,0 0.025381,-0.4491977 z"
       id="path3240"
       inkscape:connector-curvature="0"
       transform="translate(0,1032.3622)" />
    <path
       style="fill:#008080;fill-opacity:0.24636727"
       d="m 8.1509703,11.293917 c -0.013051,-0.09742 -0.034303,-0.478279 -0.047228,-0.846346 l -0.023499,-0.6692133 0.4397423,0 0.4397423,0 0.023677,0.5775403 c 0.013023,0.317647 0.041051,0.68273 0.062286,0.811296 0.021235,0.128566 0.028337,0.244074 0.015784,0.256684 -0.012554,0.01261 -0.2172138,0.02838 -0.4548004,0.03505 l -0.4319757,0.01212 -0.023728,-0.177133 z"
       id="path3242"
       inkscape:connector-curvature="0"
       transform="translate(0,1032.3622)" />
    <path
       style="fill:#008080;fill-opacity:0.24636727"
       d="m 8.1843001,11.421299 c -0.015346,-0.04561 -0.093144,-1.334627 -0.093144,-1.543283 l 0,-0.099658 0.4194489,0 0.419449,0 0.01795,0.1558441 c 0.026886,0.2334292 0.1010553,1.4655972 0.088829,1.4757192 -0.00584,0.0048 -0.1964241,0.02013 -0.4235268,0.034 -0.3243737,0.0198 -0.4163648,0.01496 -0.4290068,-0.02262 l 0,0 z"
       id="path3244"
       inkscape:connector-curvature="0"
       transform="translate(0,1032.3622)" />
    <path
       style="fill:#008080;fill-opacity:0.24636727"
       d="M 8.9345479,13.633767 C 8.8703186,13.6168 8.8133504,13.549286 8.7442508,13.408239 8.5947236,13.103024 8.2565272,12.018042 8.1871511,11.620985 l -0.020823,-0.119175 0.3382734,4.04e-4 c 0.1860503,2.21e-4 0.4000955,0.01062 0.4756559,0.02311 0.1240872,0.02051 0.1411158,0.03733 0.1759596,0.173775 0.1106426,0.433272 0.2815574,0.967484 0.4539676,1.418922 0.1863637,0.487973 0.1902939,0.50576 0.1161516,0.525666 -0.1029425,0.02764 -0.6768233,0.02045 -0.7917884,-0.0099 z"
       id="path3246"
       inkscape:connector-curvature="0"
       transform="translate(0,1032.3622)" />
    <path
       style="fill:#008080;fill-opacity:0.24636727"
       d="M 8.8876614,13.582787 C 8.8541644,13.557577 8.7764926,13.425351 8.7150575,13.288951 8.5852313,13.000707 8.2569013,11.932346 8.2181765,11.672137 l -0.026495,-0.178031 0.3989351,0.02501 c 0.2194143,0.01376 0.4254148,0.03234 0.4577789,0.0413 0.039456,0.01092 0.097704,0.15195 0.1767906,0.428037 0.064871,0.226462 0.2075276,0.665329 0.3170154,0.97526 0.1094878,0.309932 0.1990687,0.586326 0.1990687,0.614209 0,0.06879 -0.7628958,0.07313 -0.8536089,0.0049 z"
       id="path3248"
       inkscape:connector-curvature="0"
       transform="translate(0,1032.3622)" />
    <path
       style="fill:#008080;fill-opacity:0.24636727"
       d="M 10.193068,15.709601 C 9.6442975,15.078914 9.3480369,14.661992 9.043077,14.091241 8.9383655,13.895267 8.8619097,13.725708 8.8731751,13.714443 c 0.039746,-0.03975 1.0312416,-0.01808 1.0448792,0.02284 0.035671,0.107013 0.5037167,0.839291 0.7083257,1.108208 0.242861,0.31919 0.727845,0.824667 1.040023,1.083967 l 0.183346,0.152291 -0.66482,0.0019 -0.664819,0.0019 -0.327042,-0.375859 z"
       id="path3250"
       inkscape:connector-curvature="0"
       transform="translate(0,1032.3622)" />
    <path
       style="fill:#008080;fill-opacity:0.24636727"
       d="M 10.199635,15.695669 C 9.6269404,15.013655 9.2503389,14.473285 8.9908938,13.961295 8.9115014,13.804621 8.9013824,13.758973 8.9405424,13.73415 c 0.057969,-0.03674 0.4438644,-0.04153 0.7519449,-0.0093 0.2176113,0.02274 0.2191658,0.02376 0.3243167,0.210848 0.331546,0.589908 0.705993,1.081125 1.212483,1.590591 l 0.519484,0.522536 -0.227993,0 c -0.125396,0 -0.399696,0.009 -0.609556,0.01995 l -0.381564,0.01995 -0.330023,-0.393019 z"
       id="path3252"
       inkscape:connector-curvature="0"
       transform="translate(0,1032.3622)" />
    <path
       style="fill:#008080;fill-opacity:0.24636727"
       d="m 26.040729,17.52647 c -1.573109,-0.0043 -5.257146,-0.02486 -8.186751,-0.04563 l -5.326553,-0.03775 -0.180445,-0.09144 c -0.542271,-0.274789 -1.282596,-0.772362 -1.596518,-1.073021 l -0.182558,-0.174845 0.381158,-0.01052 c 0.209636,-0.0058 0.52761,0.0058 0.706608,0.02582 0.284398,0.03175 0.368047,0.05926 0.663127,0.218097 0.525769,0.283008 1.104864,0.485462 1.749439,0.611611 0.273604,0.05355 0.829183,0.0647 4.54698,0.09127 2.329411,0.01665 6.4329,0.03144 9.118865,0.03286 l 4.883572,0.0026 0.259283,0.225373 c 0.142605,0.123954 0.259283,0.231212 0.259283,0.238349 0,0.0071 -0.952941,0.009 -2.117646,0.004 -1.164706,-0.0049 -3.404735,-0.01249 -4.977844,-0.01682 z"
       id="path3254"
       inkscape:connector-curvature="0"
       transform="translate(0,1032.3622)" />
    <path
       style="fill:#008080;fill-opacity:0.24636727"
       d="m 18.010175,17.470385 -5.463711,-0.03273 -0.311688,-0.166951 c -0.416899,-0.223305 -1.180421,-0.737853 -1.430099,-0.963763 l -0.201681,-0.182482 0.531704,-2.7e-4 c 0.64168,-3.27e-4 0.752621,0.02279 1.246753,0.259803 0.882204,0.423151 1.452281,0.576724 2.310159,0.622333 0.332773,0.01769 4.501174,0.04293 9.263112,0.05609 l 8.65807,0.02392 0.23421,0.213015 0.234211,0.213014 -4.803665,-0.0046 c -2.642016,-0.0025 -7.262335,-0.01935 -10.267375,-0.03735 l 0,0 z"
       id="path3256"
       inkscape:connector-curvature="0"
       transform="translate(0,1032.3622)" />
    <path
       style="fill:#008080;fill-opacity:0.24636727"
       d="m 17.698486,17.879992 c -2.432191,-0.01601 -3.795709,-0.03838 -3.934856,-0.06454 -0.384334,-0.07227 -0.853472,-0.230033 -0.789879,-0.265622 0.03283,-0.01837 1.953721,-0.01727 4.490363,0.0026 2.438148,0.01908 6.972647,0.03509 10.076665,0.03559 l 5.643669,9.05e-4 0.195901,0.151136 c 0.107745,0.08312 0.1959,0.15738 0.1959,0.165011 0,0.02111 -11.659707,0.0027 -15.877763,-0.02505 z"
       id="path3258"
       inkscape:connector-curvature="0"
       transform="translate(0,1032.3622)" />
    <path
       style="fill:#008080;fill-opacity:0.24636727"
       d="m 15.590007,17.84252 -1.833459,-0.02733 -0.327013,-0.09644 c -0.179858,-0.05304 -0.35312,-0.111311 -0.385027,-0.12949 -0.03448,-0.01965 4.031869,-0.02474 10.026016,-0.01256 l 10.084029,0.02049 0.136684,0.09194 c 0.07517,0.05057 0.155576,0.114706 0.178668,0.14253 0.03567,0.04298 -1.167437,0.04966 -8.002226,0.04439 -4.424316,-0.0034 -8.869269,-0.0185 -9.877672,-0.03353 z"
       id="path3260"
       inkscape:connector-curvature="0"
       transform="translate(0,1032.3622)" />
    <path
       style="fill:#008080;fill-opacity:0.24636727"
       d="m 14.379928,17.951635 c -0.537124,-0.05652 -0.411883,-0.06683 0.605038,-0.04982 0.554621,0.0093 4.993428,0.02723 9.864014,0.0399 4.870586,0.01266 8.862487,0.02922 8.87089,0.03678 0.03215,0.02895 -19.061584,0.0024 -19.339942,-0.02686 z"
       id="path3262"
       inkscape:connector-curvature="0"
       transform="translate(0,1032.3622)" />
    <path
       style="fill:#008080;fill-opacity:0.24636727"
       d="m 24.879228,17.964765 c 0.853611,-0.0055 2.239707,-0.0055 3.080213,4e-6 0.840506,0.0055 0.142097,0.01 -1.55202,0.01 -1.694117,-3e-6 -2.381804,-0.0045 -1.528193,-0.01 z"
       id="path3264"
       inkscape:connector-curvature="0"
       transform="translate(0,1032.3622)" />
    <path
       style="fill:#008080;fill-opacity:0.24636727"
       d="m 23.363877,17.475678 c -5.263863,-0.01519 -9.85118,-0.03392 -10.194037,-0.04162 -0.708044,-0.01591 -0.646707,0.0035 -1.338425,-0.423983 -0.419007,-0.258961 -1.003633,-0.683156 -1.114927,-0.808972 l -0.06985,-0.07897 0.234865,0.0019 c 0.129177,0.001 0.408128,0.01534 0.619893,0.03181 0.368141,0.02863 0.413169,0.04195 1.026737,0.303809 0.670973,0.286359 1.020982,0.401988 1.495022,0.493899 0.380437,0.07376 3.825678,0.114523 10.040575,0.118792 2.583236,0.0018 5.569942,0.01416 6.637125,0.02753 l 1.940334,0.02431 0.20168,0.194967 c 0.110925,0.107232 0.176929,0.19254 0.146677,0.189575 -0.03025,-0.003 -4.361801,-0.01782 -9.625665,-0.03301 z"
       id="path3266"
       inkscape:connector-curvature="0"
       transform="translate(0,1032.3622)" />
    <path
       style="fill:#008080;fill-opacity:0.24636727"
       d="m 14.599939,17.808661 c -0.911299,-0.02104 -0.964734,-0.02626 -1.210083,-0.118158 l -0.256685,-0.09615 8.580593,-0.0027 c 4.719325,-0.0015 9.236217,0.0082 10.037537,0.02155 l 1.456945,0.02423 0.11983,0.102568 0.119831,0.102568 -8.947284,-0.006 c -4.921007,-0.0033 -9.376314,-0.01587 -9.900684,-0.02798 z"
       id="path3268"
       inkscape:connector-curvature="0"
       transform="translate(0,1032.3622)" />
  </g>
</svg>
