<?xml version="1.0" encoding="UTF-8" standalone="no"?>
<!-- Created with Inkscape (http://www.inkscape.org/) -->

<svg
   xmlns:dc="http://purl.org/dc/elements/1.1/"
   xmlns:cc="http://creativecommons.org/ns#"
   xmlns:rdf="http://www.w3.org/1999/02/22-rdf-syntax-ns#"
   xmlns:svg="http://www.w3.org/2000/svg"
   xmlns="http://www.w3.org/2000/svg"
   xmlns:xlink="http://www.w3.org/1999/xlink"
   xmlns:sodipodi="http://sodipodi.sourceforge.net/DTD/sodipodi-0.dtd"
   xmlns:inkscape="http://www.inkscape.org/namespaces/inkscape"
   width="56"
   height="20"
   id="svg2"
   version="1.1"
   inkscape:version="0.48.3.1 r9886"
   sodipodi:docname="switch-dark-off.svg"
   inkscape:export-filename="/usr/share/themes/Gnome-Cupertino/gtk-3.0/assets/switch-off.png"
   inkscape:export-xdpi="90"
   inkscape:export-ydpi="90">
  <defs
     id="defs4">
    <linearGradient
       id="linearGradient3803">
      <stop
         style="stop-color:#202020;stop-opacity:0.5529412;"
         offset="0"
         id="stop3805" />
      <stop
         style="stop-color:#484848;stop-opacity:0.1254902;"
         offset="1"
         id="stop3807" />
    </linearGradient>
    <linearGradient
       id="linearGradient3795">
      <stop
         style="stop-color:#1a1a1c;stop-opacity:1;"
         offset="0"
         id="stop3797" />
      <stop
         style="stop-color:#1a1a1c;stop-opacity:1;"
         offset="1"
         id="stop3799" />
    </linearGradient>
    <linearGradient
       id="linearGradient3833">
      <stop
         style="stop-color:#0f0f0f;stop-opacity:1;"
         offset="0"
         id="stop3835" />
      <stop
         style="stop-color:#c7c7c7;stop-opacity:0.54491019;"
         offset="1"
         id="stop3837" />
    </linearGradient>
    <linearGradient
       id="linearGradient3809">
      <stop
         style="stop-color:#969696;stop-opacity:1;"
         offset="0"
         id="stop3811" />
      <stop
         style="stop-color:#aaaaaa;stop-opacity:1;"
         offset="1"
         id="stop3813" />
    </linearGradient>
    <linearGradient
       id="linearGradient3786">
      <stop
         style="stop-color:#181818;stop-opacity:0.74509805;"
         offset="0"
         id="stop3788" />
      <stop
         style="stop-color:#202020;stop-opacity:1;"
         offset="1"
         id="stop3790" />
    </linearGradient>
    <linearGradient
       id="linearGradient3772">
      <stop
         style="stop-color:#1a1a1c;stop-opacity:0.36097562;"
         offset="0"
         id="stop3774" />
      <stop
         style="stop-color:#1a1a1c;stop-opacity:0.22352941;"
         offset="1"
         id="stop3776" />
    </linearGradient>
    <linearGradient
       id="linearGradient3763">
      <stop
         style="stop-color:#1a1a1c;stop-opacity:1;"
         offset="0"
         id="stop3765" />
      <stop
         style="stop-color:#1a1a1c;stop-opacity:1;"
         offset="1"
         id="stop3767" />
    </linearGradient>
    <linearGradient
       id="linearGradient3769">
      <stop
         style="stop-color:#5c5c5c;stop-opacity:1;"
         offset="0"
         id="stop3771" />
      <stop
         style="stop-color:#3c3c3c;stop-opacity:1;"
         offset="1"
         id="stop3773" />
    </linearGradient>
    <linearGradient
       id="linearGradient3759">
      <stop
         style="stop-color:#323232;stop-opacity:1;"
         offset="0"
         id="stop3761" />
      <stop
         id="stop3801"
         offset="0.68748617"
         style="stop-color:#2d2d2d;stop-opacity:1;" />
      <stop
         style="stop-color:#1e1e1e;stop-opacity:1;"
         offset="1"
         id="stop3763" />
    </linearGradient>
    <linearGradient
       inkscape:collect="always"
       xlink:href="#linearGradient3759"
       id="linearGradient3765"
       x1="25"
       y1="1033.3622"
       x2="25"
       y2="1051.3622"
       gradientUnits="userSpaceOnUse"
       gradientTransform="matrix(0.75925924,0,0,0.88888885,7.2407408,-1968.9061)" />
    <linearGradient
       y2="26"
       x2="35"
       y1="3"
       x1="35"
       gradientTransform="matrix(1.8,0,0,1.125,-33.2,1029.9872)"
       gradientUnits="userSpaceOnUse"
       id="linearGradient3967"
       xlink:href="#linearGradient4071-3-6"
       inkscape:collect="always" />
    <linearGradient
       id="linearGradient4071-3-6">
      <stop
         style="stop-color:#1a1a1c;stop-opacity:0.27450982;"
         offset="0"
         id="stop4073-8-9" />
      <stop
         style="stop-color:#e8e6df;stop-opacity:0.09268293;"
         offset="1"
         id="stop4075-4-4" />
    </linearGradient>
    <linearGradient
       y2="26"
       x2="35"
       y1="3"
       x1="35"
       gradientTransform="matrix(1.2999999,0,0,0.875,-15.7,1033.0172)"
       gradientUnits="userSpaceOnUse"
       id="linearGradient3895"
       xlink:href="#linearGradient4071-3-6"
       inkscape:collect="always" />
    <linearGradient
       y2="38"
       x2="35"
       y1="3"
       x1="35"
       gradientTransform="matrix(1.8,0,0,1.125,-33.2,1029.9872)"
       gradientUnits="userSpaceOnUse"
       id="linearGradient3950"
       xlink:href="#linearGradient4071-3"
       inkscape:collect="always" />
    <linearGradient
       id="linearGradient4071-3">
      <stop
         style="stop-color:#1a1a1c;stop-opacity:0.59215689;"
         offset="0"
         id="stop4073-8" />
      <stop
         style="stop-color:#242424;stop-opacity:0.54901963;"
         offset="1"
         id="stop4075-4" />
    </linearGradient>
    <linearGradient
       y2="19.159962"
       x2="35.5"
       y1="6.1136856"
       x1="35.5"
       gradientTransform="matrix(1.3333334,0,0,0.99645293,-17.333334,1031.2702)"
       gradientUnits="userSpaceOnUse"
       id="linearGradient3912"
       xlink:href="#linearGradient4071-3"
       inkscape:collect="always" />
    <linearGradient
       inkscape:collect="always"
       xlink:href="#linearGradient3786"
       id="linearGradient3792"
       x1="43.070576"
       y1="14.423525"
       x2="48.311802"
       y2="14.847058"
       gradientUnits="userSpaceOnUse" />
    <linearGradient
       inkscape:collect="always"
       xlink:href="#linearGradient3769"
       id="linearGradient3802"
       x1="44.5"
       y1="11.035255"
       x2="44.5"
       y2="16.117661"
       gradientUnits="userSpaceOnUse" />
    <linearGradient
       inkscape:collect="always"
       xlink:href="#linearGradient3809"
       id="linearGradient3815"
       x1="54.254425"
       y1="1.4565123"
       x2="54.254425"
       y2="6.629705"
       gradientUnits="userSpaceOnUse" />
    <linearGradient
       inkscape:collect="always"
       xlink:href="#linearGradient3803"
       id="linearGradient3810"
       x1="52.098927"
       y1="0.59431362"
       x2="52.098927"
       y2="7.4919033"
       gradientUnits="userSpaceOnUse" />
  </defs>
  <sodipodi:namedview
     id="base"
     pagecolor="#e8e6df"
     bordercolor="#666666"
     borderopacity="1.0"
     inkscape:pageopacity="0.0"
     inkscape:pageshadow="2"
     inkscape:zoom="24.633353"
     inkscape:cx="27.792477"
     inkscape:cy="10.647088"
     inkscape:document-units="px"
     inkscape:current-layer="layer1"
     showgrid="true"
     showguides="false"
     inkscape:window-width="1300"
     inkscape:window-height="714"
     inkscape:window-x="54"
     inkscape:window-y="24"
     inkscape:window-maximized="0">
    <inkscape:grid
       type="xygrid"
       id="grid2985"
       empspacing="5"
       visible="true"
       enabled="true"
       snapvisiblegridlinesonly="true" />
  </sodipodi:namedview>
  <metadata
     id="metadata7">
    <rdf:RDF>
      <cc:Work
         rdf:about="">
        <dc:format>image/svg+xml</dc:format>
        <dc:type
           rdf:resource="http://purl.org/dc/dcmitype/StillImage" />
        <dc:title />
      </cc:Work>
    </rdf:RDF>
  </metadata>
  <g
     inkscape:label="Capa 1"
     inkscape:groupmode="layer"
     id="layer1"
     transform="translate(0,-1032.3622)">
    <rect
       style="fill:url(#linearGradient3765);fill-opacity:1;stroke:none"
       id="rect2989"
       width="41"
       height="16"
       x="8"
       y="-1050.3622"
       rx="7"
       ry="8"
       transform="scale(1,-1)" />
    <path
       transform="matrix(1.4746667,0,0,2.2805,-44.386668,1011.3132)"
       d="m 49,14 c 0,2.209139 -2.014719,4 -4.5,4 -2.485281,0 -4.5,-1.790861 -4.5,-4 0,-2.209139 2.014719,-4 4.5,-4 2.485281,0 4.5,1.790861 4.5,4 z"
       sodipodi:ry="4"
       sodipodi:rx="4.5"
       sodipodi:cy="14"
       sodipodi:cx="44.5"
       id="path3791"
       style="fill:#1a1a1c;fill-opacity:0.05490196;stroke:none"
       sodipodi:type="arc" />
    <path
       style="opacity:0.2;color:#1a1a1c;fill:url(#linearGradient3895);fill-opacity:1;fill-rule:nonzero;stroke:none;stroke-width:2;marker:none;visibility:visible;display:inline;overflow:visible;enable-background:accumulate"
       d="m 15.825,1035.3622 c -5.7616,0 -6.825,3.4019 -6.825,7.28 0,3.8781 1.0634,6.72 6.825,6.72 l 25.35,0 c 5.761602,0 6.825,-2.8419 6.825,-6.72 0,-3.8781 -1.063398,-7.28 -6.825,-7.28 z m 0,1.4 25.35,0 c 4.319184,0 5.380555,2.973 5.380555,5.88 0,2.9071 -1.061371,5.32 -5.380555,5.32 l -25.35,0 c -4.319183,0 -5.380556,-2.4129 -5.380556,-5.32 0,-2.907 1.061373,-5.88 5.380556,-5.88 z"
       id="rect4950"
       inkscape:connector-curvature="0"
       sodipodi:nodetypes="ssssssssssssss" />
    <path
       style="opacity:0.45400002000000000;color:#1a1a1c;fill:url(#linearGradient3912);fill-opacity:1;fill-rule:nonzero;stroke:none;stroke-width:2;marker:none;visibility:visible;display:inline;overflow:visible;enable-background:accumulate"
       d="m 16,1034.3622 c -5,0 -8,3.5837 -8,8 0,4.4163 3,8 6.956522,8 l 26.086956,0 c 5.909333,0 7.956522,-3.5837 7.956522,-8 0,-4.4162 -2.090666,-8 -8,-8 z m 14,1 11,0 c 5.212862,0 7,4 7,7 0,3 -1.786936,7 -7,7 l -26,0 c -4,0 -6,-4 -6,-7 0,-3 2,-7 7,-7 z"
       id="rect4944"
       inkscape:connector-curvature="0"
       sodipodi:nodetypes="ssssssscssssscc"
       inkscape:export-xdpi="90"
       inkscape:export-ydpi="90" />
    <path
       sodipodi:type="arc"
       style="fill:url(#linearGradient3802);fill-opacity:1;stroke:url(#linearGradient3792);stroke-width:0.44922532999999998;stroke-linecap:square;stroke-miterlimit:4;stroke-opacity:1;stroke-dasharray:none"
       id="path3767"
       sodipodi:cx="44.5"
       sodipodi:cy="14"
       sodipodi:rx="4.5"
       sodipodi:ry="4"
       d="m 49,14 c 0,2.209139 -2.014719,4 -4.5,4 -2.485281,0 -4.5,-1.790861 -4.5,-4 0,-2.209139 2.014719,-4 4.5,-4 2.485281,0 4.5,1.790861 4.5,4 z"
       transform="matrix(2.0987442,0,0,2.3610872,-76.394117,1009.307)"
       inkscape:export-xdpi="90"
       inkscape:export-ydpi="90" />
    <path
       transform="matrix(1.8888697,0,0,2.1249784,-67.054702,1012.6125)"
       d="m 49,14 c 0,2.209139 -2.014719,4 -4.5,4 -2.485281,0 -4.5,-1.790861 -4.5,-4 0,-2.209139 2.014719,-4 4.5,-4 2.485281,0 4.5,1.790861 4.5,4 z"
       sodipodi:ry="4"
       sodipodi:rx="4.5"
       sodipodi:cy="14"
       sodipodi:cx="44.5"
       id="path3764"
       style="fill:none;stroke:#e8e6df;stroke-width:0.49922531999999997;stroke-linecap:square;stroke-miterlimit:4;stroke-opacity:0.10980392;stroke-dasharray:none"
       sodipodi:type="arc" />
    <path
       style="fill:#008080;fill-opacity:0.24636727"
       d="m 23.966211,16.853513 c 0.01405,-0.125374 0.03503,-0.450781 0.04662,-0.723128 l 0.02108,-0.495175 0.224003,-0.302658 C 25.410254,13.775594 25.994587,11.9781 25.993994,9.9921425 25.993325,7.7529888 25.195756,5.6466881 23.719177,3.9845804 23.480686,3.7161226 22.784922,3.0606279 22.589707,2.9204816 c -0.07466,-0.053602 -0.08416,-0.1003491 -0.06224,-0.306409 l 0.02586,-0.2431567 0.311965,0.2364889 c 0.46347,0.3513389 1.33661,1.2420708 1.67247,1.7061659 l 0.29509,0.4077599 0.02793,-0.3621694 c 0.02374,-0.3078175 0.01483,-0.3840701 -0.05932,-0.5081024 l -0.08725,-0.1459331 0.278225,-0.013634 0.278225,-0.013634 -0.233945,-0.2621454 -0.233944,-0.2621454 8.910743,0 8.910744,0 0.429613,0.1089806 c 0.510451,0.1294863 1.292472,0.4304746 1.610855,0.6199941 l 0.227953,0.13569 -9.632637,7.773e-4 -9.632636,7.775e-4 0.116468,0.1709644 0.116468,0.1709644 -0.314827,0.022795 -0.314827,0.022795 0.259776,0.4331097 c 0.520828,0.8683429 0.957271,1.9465147 1.18636,2.9307342 0.282108,1.2119947 0.316494,2.7298278 0.09111,4.0218168 -0.307758,1.764233 -1.256212,3.639787 -2.501443,4.946569 l -0.325824,0.341929 0.02554,-0.227952 z"
       id="path3046"
       inkscape:connector-curvature="0"
       transform="translate(0,1032.3622)" />
    <path
       style="fill:#008080;fill-opacity:0.24636727"
       d="m 26.084098,5.9573833 c -0.05604,-0.1253739 -0.158546,-0.3561758 -0.2278,-0.5128932 l -0.125919,-0.2849406 0.319758,0 c 0.365605,0 0.362338,0.011933 0.10632,-0.3882876 -0.08857,-0.1384624 -0.161042,-0.2616094 -0.161042,-0.2736599 0,-0.01205 3.663963,-0.02191 8.14214,-0.02191 8.010752,0 8.149491,0.0015 8.597655,0.092828 0.250532,0.051055 0.561491,0.1331078 0.691018,0.182339 0.211365,0.080336 0.353029,0.089513 1.382008,0.089534 l 1.146503,2.3e-5 0.265308,0.3003319 c 0.464612,0.5259473 0.514462,0.4747066 -0.461822,0.4747066 -0.694115,0 -0.861759,-0.012493 -0.917652,-0.068386 -0.06033,-0.06033 -1.139724,-0.068386 -9.16335,-0.068386 l -9.094966,0 0.08788,0.1709644 c 0.04833,0.09403 0.12039,0.2463694 0.160126,0.3385312 l 0.07225,0.1675668 -0.358264,0.014795 -0.358264,0.014795 -0.101883,-0.2279525 z"
       id="path3048"
       inkscape:connector-curvature="0"
       transform="translate(0,1032.3622)" />
    <path
       style="fill:#008080;fill-opacity:0.24636727"
       d="m 25.265967,15.576491 c 0,-0.01281 0.113457,-0.206698 0.252126,-0.430874 0.376415,-0.60852 0.726068,-1.364546 0.944032,-2.041205 l 0.194352,-0.603356 0.532616,-7.16e-4 c 0.46684,-6.29e-4 0.535742,-0.01057 0.557929,-0.0805 0.01392,-0.04388 0.04468,-0.408035 0.06835,-0.809231 0.06365,-1.078772 0.0142,-2.0245124 -0.154953,-2.9633824 C 27.624279,8.4466245 27.585657,8.2312094 27.574593,8.1685225 27.533105,7.9334513 27.354934,7.281712 27.273751,7.0680541 l -0.08422,-0.2216561 10.067844,0 10.067845,0 0.09835,0.2621454 c 0.289942,0.7728525 0.457538,1.4483511 0.525682,2.1187742 l 0.03116,0.3065519 -0.723234,0.013826 -0.723235,0.013826 0.71805,0.010153 c 0.603361,0.00853 0.718051,0.021076 0.718051,0.078539 0,0.057846 -0.108911,0.068386 -0.706653,0.068386 l -0.706653,0 -0.0013,0.3989165 c -0.0023,0.737891 -0.07234,1.42409 -0.209292,2.051573 l -0.07214,0.330531 -9.242887,0 -9.242887,0 -0.07769,0.444507 c -0.100094,0.572704 -0.331658,1.485192 -0.436526,1.720153 -0.04498,0.100788 -0.107766,0.264079 -0.139516,0.362869 -0.03175,0.09879 -0.09684,0.268046 -0.144649,0.376122 l -0.08692,0.196503 -0.818495,0 c -0.450173,0 -0.818496,-0.01048 -0.818496,-0.02328 z"
       id="path3050"
       inkscape:connector-curvature="0"
       transform="translate(0,1032.3622)" />
    <path
       style="fill:#008080;fill-opacity:0.24636727"
       d="m 26.952815,15.570145 c 0,-0.0185 0.08138,-0.2418 0.180854,-0.49621 0.232412,-0.594434 0.381291,-1.118058 0.543986,-1.913253 l 0.130587,-0.638267 9.235055,-0.01151 9.235055,-0.01151 -0.08729,0.253725 c -0.467302,1.358237 -1.519317,2.255631 -3.06745,2.616608 -0.865995,0.201924 -0.769074,0.199487 -8.636963,0.217148 -4.143606,0.0093 -7.53383,0.0018 -7.53383,-0.01674 z"
       id="path3052"
       inkscape:connector-curvature="0"
       transform="translate(0,1032.3622)" />
    <path
       style="fill:#008080;fill-opacity:0.24636727"
       d="m 34.244108,16.877747 -8.00432,-0.02423 0.310491,-0.569882 c 0.17077,-0.313434 0.310685,-0.595525 0.310923,-0.626869 3.44e-4,-0.04532 1.351481,-0.05721 6.599657,-0.05807 6.668033,-0.0011 8.482468,-0.01473 8.855955,-0.06659 2.047463,-0.284295 3.301563,-1.175673 3.877884,-2.756287 l 0.100707,-0.276197 0.63523,0 0.635231,0 -0.03135,0.102579 c -0.101741,0.332855 -0.506611,1.142119 -0.763218,1.525537 -0.765202,1.143353 -1.609616,1.839252 -2.838508,2.339271 -0.433666,0.176453 -1.215092,0.391855 -1.52479,0.420312 -0.08776,0.0081 -3.761511,0.0038 -8.163887,-0.0096 z"
       id="path3054"
       inkscape:connector-curvature="0"
       transform="translate(0,1032.3622)" />
    <path
       style="fill:#008080;fill-opacity:0.24636727"
       d="m 46.356578,12.202617 c 0.117869,-0.562303 0.200152,-1.350173 0.200152,-1.916471 l 0,-0.5675465 0.713349,0 0.713349,0 -0.02627,0.6496645 c -0.02669,0.66021 -0.09941,1.142546 -0.268067,1.77803 l -0.09377,0.353326 -0.650501,0 -0.650501,0 0.06226,-0.297003 z"
       id="path3056"
       inkscape:connector-curvature="0"
       transform="translate(0,1032.3622)" />
    <path
       style="fill:#008080;fill-opacity:0.24636727"
       d="m 26.952815,9.905792 c 0,-0.9291681 -0.187715,-2.05529 -0.502375,-3.0138035 -0.102894,-0.3134347 -0.196785,-0.5925142 -0.208645,-0.6201768 -0.01396,-0.032566 0.09456,-0.061088 0.307865,-0.080913 0.181187,-0.01684 0.335942,-0.037129 0.343901,-0.045088 0.008,-0.00796 -0.04726,-0.1506101 -0.122704,-0.3170029 -0.07545,-0.1663928 -0.137175,-0.3132407 -0.137175,-0.3263287 0,-0.066233 15.168551,0.00471 19.102419,0.089339 l 0.843424,0.018145 0.159567,0.2072041 c 0.08776,0.1139622 0.217169,0.3100972 0.287571,0.4358555 l 0.128003,0.2286514 -10.032539,0 c -5.517897,0 -10.03254,0.015951 -10.03254,0.035447 0,0.019496 0.07984,0.2913687 0.177428,0.6041623 0.276502,0.8862806 0.452241,1.8165233 0.531587,2.8138713 l 0.02992,0.3761217 -0.437855,0 -0.437855,0 0,-0.405484 z"
       id="path3058"
       inkscape:connector-curvature="0"
       transform="translate(0,1032.3622)" />
    <path
       style="fill:#008080;fill-opacity:0.24636727"
       d="M 25.512628,4.8632113 C 25.414577,4.6876878 25.327823,4.529618 25.319843,4.511945 c -0.008,-0.017673 0.132459,-0.038189 0.312089,-0.045591 l 0.326599,-0.013458 -0.09553,-0.1211672 c -0.05254,-0.066642 -0.09554,-0.1333181 -0.09554,-0.1481692 0,-0.014851 4.350863,-0.027002 9.668585,-0.027002 l 9.668584,0 0.327831,0.2467322 c 0.180306,0.1357027 0.368547,0.2925813 0.418313,0.3486192 l 0.09048,0.101887 -1.148301,-0.030343 C 43.682908,4.7941221 43.627474,4.7882302 43.128904,4.6465861 L 42.613152,4.5000609 34.304283,4.4870415 c -4.569877,-0.00716 -8.308868,5.95e-5 -8.308868,0.016045 0,0.015985 0.07428,0.1513416 0.165066,0.3007919 0.09224,0.151847 0.147555,0.2885504 0.125374,0.3098585 -0.02183,0.020972 -0.164625,0.044988 -0.317322,0.053369 l -0.277629,0.015239 -0.178276,-0.3191335 z"
       id="path3060"
       inkscape:connector-curvature="0"
       transform="translate(0,1032.3622)" />
    <path
       style="fill:#008080;fill-opacity:0.24636727"
       d="m 25.706675,4.1261649 c -0.01672,-0.016717 -0.03039,-0.04749 -0.03039,-0.068386 0,-0.020896 4.336564,-0.037992 9.636809,-0.037992 8.510433,0 9.643442,0.00799 9.693563,0.068386 0.05042,0.060751 -1.0221,0.068386 -9.606415,0.068386 -5.314743,0 -9.676846,-0.013677 -9.693563,-0.030394 z"
       id="path3064"
       inkscape:connector-curvature="0"
       transform="translate(0,1032.3622)" />
    <path
       style="fill:#008080;fill-opacity:0.24636727"
       d="m 27.157257,6.7063665 c -0.01692,-0.077017 -0.02128,-0.1495089 -0.0097,-0.1610925 0.01158,-0.011584 4.514469,-0.033999 10.006412,-0.049813 l 9.985352,-0.028752 0.07343,0.1419902 c 0.04038,0.078095 0.07343,0.1635247 0.07343,0.1898447 0,0.033268 -3.063137,0.047854 -10.049082,0.047854 l -10.049083,0 -0.03076,-0.1400315 z"
       id="path3066"
       inkscape:connector-curvature="0"
       transform="translate(0,1032.3622)" />
    <path
       style="fill:#008080;fill-opacity:0.24636727"
       d="m 26.754963,11.993099 c 0.05772,-0.285596 0.129624,-0.780841 0.159794,-1.100544 l 0.05485,-0.581279 0.424711,0 0.424712,0 -3.8e-5,0.558484 c -3.5e-5,0.515494 -0.07238,1.535108 -0.111705,1.574437 -0.0093,0.0093 -0.251007,0.02846 -0.5371,0.04255 l -0.520168,0.02562 0.104939,-0.519266 z"
       id="path3068"
       inkscape:connector-curvature="0"
       transform="translate(0,1032.3622)" />
    <path
       style="fill:#008080;fill-opacity:0.24636727"
       d="m 24.376368,16.682548 c 0.166728,-0.181792 0.429057,-0.499786 0.582955,-0.706652 l 0.279814,-0.376122 0.845441,6.98e-4 c 0.464993,3.84e-4 0.82268,0.01577 0.794859,0.03419 -0.02782,0.01842 -0.178412,0.289941 -0.334646,0.603376 -0.156235,0.313435 -0.302728,0.589371 -0.325539,0.613192 -0.02281,0.02382 -0.04148,0.05966 -0.04148,0.07965 0,0.01999 3.349192,0.04159 7.442649,0.04801 l 7.442649,0.01167 -8.494923,0.01126 -8.494924,0.01126 0.30314,-0.330531 z"
       id="path3070"
       inkscape:connector-curvature="0"
       transform="translate(0,1032.3622)" />
    <path
       style="fill:#008080;fill-opacity:0.24636727"
       d="M 24.672813,4.4715359 C 24.45199,4.1543058 23.83753,3.4670247 23.441053,3.0937977 23.128001,2.7991042 23.032032,2.6807185 23.032032,2.5892366 c 0,-0.087697 0.02344,-0.1195266 0.08801,-0.1195266 0.05171,0 0.09402,-0.036487 0.102578,-0.088467 0.01199,-0.072813 0.09524,-0.019332 0.470474,0.3022359 0.250747,0.2148866 0.462743,0.4085646 0.471101,0.4303956 0.0084,0.021831 0.141711,0.03904 0.296339,0.038243 0.259265,-0.00134 0.274135,-0.00675 0.191103,-0.069513 -0.07992,-0.060413 0.893676,-0.066022 8.662195,-0.049907 4.813728,0.00999 8.844554,0.036138 8.95739,0.058115 0.122016,0.023765 -3.376877,0.049197 -8.633818,0.062754 l -8.838975,0.022795 0.209632,0.2331587 0.209631,0.2331587 -0.232794,0.027571 c -0.128036,0.015164 -0.241781,0.036559 -0.252767,0.047545 -0.01099,0.010986 0.01231,0.082409 0.05177,0.1587185 0.07404,0.1431738 0.0913,0.5101638 0.03121,0.6634068 -0.03065,0.078169 -0.04513,0.07121 -0.142305,-0.068386 z"
       id="path3072"
       inkscape:connector-curvature="0"
       transform="translate(0,1032.3622)" />
    <path
       style="fill:#008080;fill-opacity:0.24636727"
       d="m 25.667733,4.3533675 c 0.03291,-0.01317 0.07223,-0.01155 0.08738,0.0036 0.01515,0.015149 -0.01178,0.025925 -0.05984,0.023945 -0.05311,-0.00219 -0.06391,-0.012991 -0.02754,-0.027544 z"
       id="path3080"
       inkscape:connector-curvature="0"
       transform="translate(0,1032.3622)" />
    <path
       style="fill:#008080;fill-opacity:0.24636727"
       d="m 9.12693,8.7302093 c 0,-0.042119 0.053079,-0.2985658 0.1179532,-0.5698813 l 0.1179532,-0.493301 7.6291966,0 7.629197,0 0.07582,0.2608062 c 0.0417,0.1434434 0.10232,0.3998899 0.13471,0.5698812 l 0.05889,0.3090751 -7.88186,0 c -7.3505491,0 -7.88186,-0.00516 -7.88186,-0.07658 z"
       id="path3082"
       inkscape:connector-curvature="0"
       transform="translate(0,1032.3622)" />
    <path
       style="fill:#008080;fill-opacity:0.24636727"
       d="m 9.4056578,7.5416531 c 0.026685,-0.068956 0.089222,-0.2331433 0.1389701,-0.3648615 l 0.090452,-0.2394877 7.3682003,0.011535 7.368201,0.011535 0.105429,0.2721862 c 0.05798,0.1497023 0.117017,0.3086992 0.131181,0.3533264 0.02462,0.077573 -0.310065,0.08114 -7.612599,0.08114 l -7.6383527,0 0.048519,-0.1253739 z"
       id="path3084"
       inkscape:connector-curvature="0"
       transform="translate(0,1032.3622)" />
    <path
       style="fill:#008080;fill-opacity:0.24636727"
       d="m 9.8107875,6.5330548 c 0,-0.02189 0.1415769,-0.2732078 0.3146155,-0.5584837 l 0.314615,-0.5186833 6.54768,-0.011552 6.547679,-0.011552 0.247593,0.3837997 c 0.206627,0.320298 0.388825,0.666604 0.388825,0.7390444 0,0.00948 -3.231227,0.017228 -7.180504,0.017228 -4.060178,0 -7.1805035,-0.017295 -7.1805035,-0.0398 z"
       id="path3086"
       inkscape:connector-curvature="0"
       transform="translate(0,1032.3622)" />
    <path
       style="fill:#008080;fill-opacity:0.24636727"
       d="m 11.42017,4.3141123 c 0.220679,-0.2123284 0.509763,-0.4679919 0.64241,-0.568141 l 0.241175,-0.1820893 4.698983,0 4.698982,0 0.243444,0.1904464 c 0.32538,0.2545446 0.673105,0.5711574 0.855765,0.7791957 l 0.149368,0.1701204 -5.965681,-0.00174 -5.96568,-0.00174 0.401234,-0.3860518 z"
       id="path3088"
       inkscape:connector-curvature="0"
       transform="translate(0,1032.3622)" />
    <path
       style="fill:#008080;fill-opacity:0.24636727"
       d="m 12.409446,3.4739215 c 0.210786,-0.1626223 0.81384,-0.5053026 1.240608,-0.7049651 2.410387,-1.1276955 5.281863,-0.9527257 7.567509,0.4611169 0.218888,0.1353983 0.410163,0.2658955 0.425057,0.2899937 0.01725,0.02792 -1.673258,0.043447 -4.660036,0.042801 -4.638509,-0.001 -4.685932,-0.00193 -4.573138,-0.088947 z"
       id="path3090"
       inkscape:connector-curvature="0"
       transform="translate(0,1032.3622)" />
    <path
       style="fill:#008080;fill-opacity:0.24636727"
       d="m 10.495335,5.3988996 c 3.79e-4,-0.018806 0.123956,-0.1829318 0.274616,-0.364724 l 0.273927,-0.3305311 5.955511,0 5.955511,0 0.16394,0.1914054 c 0.09017,0.1052729 0.220487,0.2693987 0.2896,0.3647239 l 0.12566,0.1733187 -6.519728,0 c -3.58585,0 -6.519417,-0.015387 -6.519037,-0.034193 z"
       id="path3092"
       inkscape:connector-curvature="0"
       transform="translate(0,1032.3622)" />
    <path
       style="fill:#008080;fill-opacity:0.24636727"
       d="m 9.7196065,6.755217 0.093034,-0.182362 7.1939283,0 7.193929,0 0.07683,0.1611135 c 0.04226,0.088612 0.07683,0.1706753 0.07683,0.182362 0,0.011687 -3.313707,0.021249 -7.363792,0.021249 l -7.3637926,0 0.093034,-0.182362 z"
       id="path3094"
       inkscape:connector-curvature="0"
       transform="translate(0,1032.3622)" />
    <path
       style="fill:#008080;fill-opacity:0.24636727"
       d="m 9.0384667,9.6160209 c 0.00331,-0.4021313 0.058639,-0.7626214 0.1231788,-0.8025127 0.026263,-0.016233 3.5766765,-0.024269 7.8898085,-0.017859 l 7.842058,0.011655 0.02771,0.3530689 c 0.01524,0.1941878 0.03821,0.4505185 0.05103,0.5696237 l 0.02331,0.2165549 -7.979908,0 -7.979908,0 0.00272,-0.3305311 z"
       id="path3096"
       inkscape:connector-curvature="0"
       transform="translate(0,1032.3622)" />
    <path
       style="fill:#008080;fill-opacity:0.24636727"
       d="m 9.06394,10.881157 c -0.015069,-0.125374 -0.027577,-0.386949 -0.027795,-0.581279 l -3.963e-4,-0.353326 7.97691,0 7.976911,0 -0.0235,0.376122 c -0.01292,0.206866 -0.03404,0.463198 -0.04692,0.569625 l -0.02342,0.193505 -7.902196,0.01165 -7.9021977,0.01165 -0.027398,-0.227953 z"
       id="path3098"
       inkscape:connector-curvature="0"
       transform="translate(0,1032.3622)" />
    <path
       style="fill:#008080;fill-opacity:0.24636727"
       d="m 9.4296707,12.509979 c -0.031141,-0.05039 -0.2571502,-0.929193 -0.2571502,-0.999893 0,-0.04811 1.4519615,-0.05905 7.8367195,-0.05905 l 7.83672,0 -0.04257,0.19376 c -0.02341,0.106568 -0.08503,0.352757 -0.136921,0.547086 l -0.09435,0.353326 -7.560338,0 c -4.158186,0 -7.5701366,-0.01585 -7.5821123,-0.03523 z"
       id="path3100"
       inkscape:connector-curvature="0"
       transform="translate(0,1032.3622)" />
    <path
       style="fill:#008080;fill-opacity:0.24636727"
       d="M 9.1564719,11.429385 C 9.1402239,11.387043 9.12693,11.305722 9.12693,11.24867 l 0,-0.103729 7.875759,-0.02359 c 4.331667,-0.01297 7.880255,-0.01996 7.885751,-0.01552 0.0055,0.0044 -0.0023,0.08392 -0.01736,0.176634 l -0.02736,0.16857 -7.664636,5.02e-4 c -4.21555,2.76e-4 -7.7385347,0.01273 -7.8288545,0.02767 -0.128531,0.02126 -0.1706376,0.01043 -0.1937596,-0.04982 z"
       id="path3102"
       inkscape:connector-curvature="0"
       transform="translate(0,1032.3622)" />
    <path
       style="fill:#008080;fill-opacity:0.24636727"
       d="M 16.986577,13.696228 9.9153351,13.684687 9.7727273,13.375296 C 9.6942931,13.20513 9.589812,12.948748 9.5405471,12.805557 l -0.089572,-0.260347 7.5458443,0 7.545845,0 -0.03078,0.102579 c -0.05704,0.190096 -0.289015,0.757279 -0.371869,0.909233 l -0.08219,0.150746 -7.071242,-0.01154 z"
       id="path3104"
       inkscape:connector-curvature="0"
       transform="translate(0,1032.3622)" />
    <path
       style="fill:#008080;fill-opacity:0.24636727"
       d="m 16.981765,14.824735 -6.346605,-0.0228 -0.118758,-0.159567 c -0.123871,-0.166437 -0.568843,-0.887128 -0.568843,-0.921315 0,-0.01971 14.054091,0.01097 14.076752,0.03073 0.01988,0.01734 -0.406365,0.716836 -0.556571,0.913379 l -0.139369,0.182362 -6.346606,-0.0228 z"
       id="path3106"
       inkscape:connector-curvature="0"
       transform="translate(0,1032.3622)" />
    <path
       style="fill:#008080;fill-opacity:0.24636727"
       d="m 16.261843,17.943927 c -0.606824,-0.0835 -0.869049,-0.129236 -1.185353,-0.206749 -1.070296,-0.262284 -2.107186,-0.770489 -3.00719,-1.473899 -0.369469,-0.288763 -1.252704,-1.171725 -1.345464,-1.345048 l -0.05004,-0.0935 2.547135,0 c 1.400925,0 4.242129,0.01363 6.313787,0.03029 l 3.766651,0.03029 -0.146067,0.184807 c -0.244283,0.309071 -0.938674,0.977487 -1.305812,1.256966 -1.043985,0.794718 -2.198516,1.298923 -3.513282,1.534314 -0.36904,0.06607 -1.784671,0.122396 -2.074368,0.08253 z"
       id="path3108"
       inkscape:connector-curvature="0"
       transform="translate(0,1032.3622)" />
    <path
       style="fill:#008080;fill-opacity:0.24636727"
       d="m 8.7567253,13.422598 c -0.1005088,-0.24878 -0.3038818,-0.817284 -0.3038818,-0.849465 0,-0.0073 0.2148114,-0.01319 0.4773586,-0.01319 l 0.4773586,0 0.096996,0.274019 c 0.053348,0.15071 0.1582251,0.396871 0.2330603,0.547024 0.074835,0.150153 0.1360642,0.282595 0.1360642,0.294316 0,0.01172 -0.2264063,0.02131 -0.5031252,0.02131 l -0.5031251,0 -0.1107058,-0.274018 z"
       id="path3061"
       inkscape:connector-curvature="0"
       transform="translate(0,1032.3622)" />
    <path
       style="fill:#008080;fill-opacity:0.24636727"
       d="m 8.2764197,11.879974 c -0.057877,-0.274302 -0.096932,-0.521721 -0.1666074,-1.05548 l -0.017223,-0.131935 0.4603086,0 0.4603085,0 0.028006,0.253721 c 0.027226,0.246655 0.1464583,0.911388 0.2038833,1.136671 l 0.028457,0.111637 -0.4653753,0 -0.4653754,0 -0.066382,-0.314614 z"
       id="path3063"
       inkscape:connector-curvature="0"
       transform="translate(0,1032.3622)" />
    <path
       style="fill:#008080;fill-opacity:0.24636727"
       d="m 8.4348471,12.509202 c -0.0085,-0.02791 -0.034375,-0.110115 -0.057507,-0.182679 l -0.042059,-0.131935 0.478607,0 0.4786069,0 0.047021,0.156942 c 0.025862,0.08632 0.047021,0.168524 0.047021,0.182679 0,0.01416 -0.2106544,0.02574 -0.4681208,0.02574 -0.339194,0 -0.4723755,-0.01398 -0.4835691,-0.05074 z"
       id="path3065"
       inkscape:connector-curvature="0"
       transform="translate(0,1032.3622)" />
    <path
       style="fill:#008080;fill-opacity:0.24636727"
       d="m 8.0964885,9.7690146 0.011294,-0.5581863 0.4626257,-0.011534 0.4626257,-0.011534 -0.026226,0.2509122 c -0.014424,0.1380017 -0.026226,0.3943757 -0.026226,0.5697201 l 0,0.318808 -0.4476946,0 -0.4476946,0 0.011294,-0.5581864 z"
       id="path3067"
       inkscape:connector-curvature="0"
       transform="translate(0,1032.3622)" />
    <path
       style="fill:#008080;fill-opacity:0.24636727"
       d="m 8.0874852,10.50988 0,-0.182679 0.4465491,0 c 0.3518265,0 0.446549,0.01184 0.446549,0.05582 0,0.0307 0.011418,0.112905 0.025372,0.182679 l 0.025372,0.12686 -0.4719211,0 -0.4719212,0 0,-0.182679 z"
       id="path3069"
       inkscape:connector-curvature="0"
       transform="translate(0,1032.3622)" />
    <path
       style="fill:#008080;fill-opacity:0.24636727"
       d="M 8.1689979,8.7338328 C 8.1693886,8.6229623 8.3459377,7.7798239 8.4218869,7.5261206 l 0.054687,-0.1826792 0.4752791,-0.011437 c 0.2653339,-0.00639 0.475279,0.00481 0.475279,0.025343 0,0.020229 -0.028116,0.1164704 -0.062481,0.2138701 -0.070862,0.2008435 -0.192256,0.6740785 -0.2617869,1.020532 l -0.046847,0.2334234 -0.4436709,0 c -0.433135,0 -0.4436633,-0.00217 -0.443349,-0.09134 z"
       id="path3071"
       inkscape:connector-curvature="0"
       transform="translate(0,1032.3622)" />
    <path
       style="fill:#008080;fill-opacity:0.24636727"
       d="M 8.1358953,9.0180003 8.1483783,8.84547 8.6050762,8.8339917 c 0.4970579,-0.012493 0.4814249,-0.020817 0.4313257,0.2296784 l -0.025372,0.1268606 -0.4438087,0 -0.4438088,0 0.012483,-0.1725304 z"
       id="path3073"
       inkscape:connector-curvature="0"
       transform="translate(0,1032.3622)" />
    <path
       style="fill:#008080;fill-opacity:0.24636727"
       d="M 8.7332371,6.6431714 C 8.795611,6.4924611 8.9087494,6.2412772 8.9846557,6.0849851 l 0.1380114,-0.2841676 0.5094446,0.020298 0.5094443,0.020298 -0.2790315,0.5378886 -0.2790318,0.5378886 -0.4818315,0 -0.4818314,0 0.1134073,-0.2740187 z"
       id="path3075"
       inkscape:connector-curvature="0"
       transform="translate(0,1032.3622)" />
    <path
       style="fill:#008080;fill-opacity:0.24636727"
       d="M 9.3149422,5.7845715 9.141859,5.7602221 9.3555376,5.4029476 C 9.4730608,5.2064467 9.6938433,4.8776242 9.8461654,4.672231 l 0.2769496,-0.3734421 0.608355,0.012208 0.608355,0.012208 -0.256076,0.2868036 c -0.297871,0.3336133 -0.679582,0.8193013 -0.825221,1.050008 L 10.15683,5.8211152 9.8224279,5.815018 C 9.6385065,5.8116646 9.410138,5.7979636 9.3149422,5.7845715 z"
       id="path3077"
       inkscape:connector-curvature="0"
       transform="translate(0,1032.3622)" />
    <path
       style="fill:#008080;fill-opacity:0.24636727"
       d="m 8.4934389,7.3100777 c 0,-0.00719 0.029119,-0.098526 0.064709,-0.2029768 l 0.064709,-0.1899108 0.4867113,0 c 0.3735284,0 0.4818179,0.0118 0.4656684,0.050744 -0.011574,0.027909 -0.043389,0.1192489 -0.070702,0.2029768 l -0.049659,0.1522327 -0.4807187,0 c -0.2643952,0 -0.4807186,-0.00588 -0.4807186,-0.013066 z"
       id="path3079"
       inkscape:connector-curvature="0"
       transform="translate(0,1032.3622)" />
    <path
       style="fill:#008080;fill-opacity:0.24636727"
       d="M 9.5622762,5.7838002 C 9.3798396,5.7708322 9.2198784,5.749449 9.206807,5.7362817 9.1783182,5.7075843 9.5580306,5.096966 9.8858872,4.6442477 l 0.2354798,-0.3251611 0.591528,0 c 0.569906,0 0.589491,0.00276 0.535832,0.075634 -0.03063,0.041599 -0.201839,0.2493172 -0.380459,0.4615972 -0.17862,0.2122799 -0.416103,0.5154099 -0.52774,0.673622 -0.226279,0.320682 -0.156841,0.2980319 -0.7782518,0.2538608 l 0,0 z"
       id="path3081"
       inkscape:connector-curvature="0"
       transform="translate(0,1032.3622)" />
    <path
       style="fill:#008080;fill-opacity:0.24636727"
       d="m 10.84797,3.5437966 c 1.354469,-1.282965 3.009804,-2.0910118 4.871444,-2.3779805 0.643814,-0.099243 1.958107,-0.098611 2.577806,0.00124 1.877428,0.3025052 3.518976,1.106116 4.851147,2.3748517 l 0.385656,0.3672919 -0.675002,0.00197 c -0.561926,0.00164 -0.683753,-0.00858 -0.727242,-0.060979 C 22.047201,3.7482775 21.451447,3.3308032 21.067342,3.1042838 20.414607,2.7193438 19.492298,2.3475484 18.793304,2.187587 17.722804,1.9426084 16.267266,1.9429932 15.213851,2.1885335 14.133284,2.4404024 12.986333,2.9830954 12.115928,3.6543504 l -0.335558,0.2587825 -0.659028,-0.00202 -0.659028,-0.00202 0.385656,-0.3652969 z"
       id="path3083"
       inkscape:connector-curvature="0"
       transform="translate(0,1032.3622)" />
    <path
       style="fill:#008080;fill-opacity:0.24636727"
       d="m 10.511619,4.2888396 -0.356648,-0.013551 0.153671,-0.1797463 0.153672,-0.1797464 0.667406,-0.00133 0.667406,-0.00133 -0.220857,0.2011341 c -0.247033,0.2249729 -0.151305,0.2092763 -1.06465,0.1745726 z"
       id="path3085"
       inkscape:connector-curvature="0"
       transform="translate(0,1032.3622)" />
    <path
       style="fill:#008080;fill-opacity:0.24636727"
       d="M 23.29045,5.0436586 C 23.134158,4.8424028 22.827707,4.5057026 22.609447,4.2954359 l -0.396836,-0.382303 0.664177,0 0.664176,0 0.299757,0.3653506 c 0.272613,0.3322667 0.675785,0.8877002 0.773512,1.0656361 0.03631,0.066111 0.0016,0.070848 -0.500298,0.06825 L 23.574618,5.4095781 23.29045,5.0436586 z"
       id="path3087"
       inkscape:connector-curvature="0"
       transform="translate(0,1032.3622)" />
    <path
       style="fill:#008080;fill-opacity:0.24636727"
       d="m 24.158234,6.3793015 c -0.04832,-0.094892 -0.194836,-0.3424639 -0.325588,-0.5501604 -0.130752,-0.2076966 -0.23773,-0.3847932 -0.23773,-0.393548 0,-0.00875 0.236402,-0.021501 0.525337,-0.028324 l 0.525338,-0.012406 0.141597,0.2435722 c 0.122254,0.2102974 0.431542,0.8540184 0.431542,0.8981662 0,0.00838 -0.218843,0.01523 -0.486319,0.01523 l -0.486319,0 -0.08786,-0.1725303 0,0 z"
       id="path3089"
       inkscape:connector-curvature="0"
       transform="translate(0,1032.3622)" />
    <path
       style="fill:#008080;fill-opacity:0.24636727"
       d="m 24.663059,7.6107597 c -0.01693,-0.064749 -0.327588,-0.839529 -0.404241,-1.0081837 -0.01778,-0.039114 0.09285,-0.050744 0.482703,-0.050744 l 0.505765,0 0.172172,0.5175909 c 0.0947,0.284675 0.179036,0.5404258 0.187425,0.5683352 0.01159,0.038549 -0.09755,0.050744 -0.45412,0.050744 -0.428293,0 -0.471153,-0.0068 -0.489704,-0.077742 z"
       id="path3091"
       inkscape:connector-curvature="0"
       transform="translate(0,1032.3622)" />
    <path
       style="fill:#008080;fill-opacity:0.24636727"
       d="m 24.937537,8.8693594 c -0.02583,-0.1766442 -0.09187,-0.5066305 -0.146754,-0.7333028 -0.05489,-0.2266723 -0.09979,-0.4201017 -0.09979,-0.429843 0,-0.00974 0.20885,-0.017711 0.464112,-0.017711 0.406491,0 0.466866,0.00882 0.486308,0.071042 0.05533,0.177076 0.182499,0.8701859 0.208557,1.1366702 l 0.02878,0.2943165 -0.447124,0 -0.447125,0 -0.04696,-0.3211713 z"
       id="path3093"
       inkscape:connector-curvature="0"
       transform="translate(0,1032.3622)" />
    <path
       style="fill:#008080;fill-opacity:0.24636727"
       d="m 24.990167,10.60122 c 0.01346,-0.05024 0.02473,-0.305988 0.02503,-0.568335 l 5.54e-4,-0.476996 0.446549,0 0.446549,0 0,0.568335 0,0.568335 -0.471581,0 c -0.469236,0 -0.47146,-4.54e-4 -0.447103,-0.09134 z"
       id="path3095"
       inkscape:connector-curvature="0"
       transform="translate(0,1032.3622)" />
    <path
       style="fill:#008080;fill-opacity:0.24636727"
       d="m 25.000745,9.4645494 c -0.01346,-0.050237 -0.02473,-0.1324424 -0.02503,-0.1826792 -5.43e-4,-0.08946 0.0091,-0.09134 0.466293,-0.09134 l 0.466846,0 0,0.1826791 0,0.1826792 -0.441814,0 c -0.423861,0 -0.442809,-0.00371 -0.466292,-0.09134 z"
       id="path3097"
       inkscape:connector-curvature="0"
       transform="translate(0,1032.3622)" />
    <path
       style="fill:#008080;fill-opacity:0.24636727"
       d="m 24.628102,12.490235 c 0.05255,-0.135782 0.255865,-1.005498 0.285011,-1.219192 l 0.02907,-0.213125 0.464877,0 0.464877,0 -0.02511,0.152232 c -0.05929,0.359443 -0.187466,0.978148 -0.23758,1.146819 l -0.05428,0.182679 -0.477438,0.01148 c -0.443957,0.01067 -0.475473,0.0064 -0.449428,-0.06089 l 0,0 z"
       id="path3099"
       inkscape:connector-curvature="0"
       transform="translate(0,1032.3622)" />
    <path
       style="fill:#008080;fill-opacity:0.24636727"
       d="m 24.950517,10.993704 c 0.01355,-0.03532 0.02464,-0.117523 0.02464,-0.182679 l 0,-0.118466 0.471581,0 c 0.469237,0 0.47146,4.54e-4 0.447104,0.09134 -0.01346,0.05024 -0.02473,0.132442 -0.02503,0.182679 -5.42e-4,0.08944 -0.01033,0.09134 -0.471744,0.09134 -0.412985,0 -0.468146,-0.0079 -0.446549,-0.06421 z"
       id="path3101"
       inkscape:connector-curvature="0"
       transform="translate(0,1032.3622)" />
    <path
       style="fill:#008080;fill-opacity:0.24636727"
       d="m 24.331424,13.239919 c 0.02709,-0.05024 0.09847,-0.219215 0.15864,-0.375508 l 0.109395,-0.284167 0.476871,-0.01148 c 0.37428,-0.009 0.472888,-2.76e-4 0.458356,0.04059 -0.01018,0.02864 -0.07033,0.202785 -0.133666,0.386986 l -0.115152,0.334912 -0.501844,0 -0.501844,0 0.04924,-0.09134 z"
       id="path3103"
       inkscape:connector-curvature="0"
       transform="translate(0,1032.3622)" />
    <path
       style="fill:#008080;fill-opacity:0.24636727"
       d="m 23.835866,14.172662 c 0.08509,-0.140069 0.221199,-0.386686 0.302455,-0.548038 l 0.147736,-0.293366 0.486635,0 c 0.33846,0 0.486634,0.01415 0.486634,0.04649 0,0.02557 -0.112367,0.272183 -0.249705,0.548037 l -0.249704,0.501553 -0.539385,0 -0.539384,0 0.154718,-0.254671 z"
       id="path3105"
       inkscape:connector-curvature="0"
       transform="translate(0,1032.3622)" />
    <path
       style="fill:#008080;fill-opacity:0.24636727"
       d="m 16.125368,18.886056 c -2.245953,-0.211547 -4.48601,-1.386631 -5.929441,-3.110452 -0.2983225,-0.356273 -0.9311761,-1.254191 -0.9311761,-1.321191 0,-0.01489 0.235257,-0.02708 0.5227934,-0.02708 l 0.5227937,0 0.293091,0.389932 c 0.567277,0.754711 1.46557,1.56389 2.283016,2.056531 0.638228,0.384635 1.480038,0.729223 2.244336,0.918701 1.096122,0.271742 2.502017,0.280782 3.646989,0.02345 1.779918,-0.400033 3.507039,-1.520968 4.611279,-2.992811 l 0.29695,-0.395805 0.527137,0 c 0.446877,0 0.523653,0.0091 0.504259,0.05962 -0.05399,0.140697 -0.611899,0.925605 -0.913389,1.285024 -1.854678,2.211048 -4.759366,3.389048 -7.678638,3.114081 z"
       id="path3107"
       inkscape:connector-curvature="0"
       transform="translate(0,1032.3622)" />
    <path
       style="fill:#008080;fill-opacity:0.24636727"
       d="M 9.0716721,14.092325 C 8.9769184,13.90807 8.8993926,13.743659 8.8993926,13.726967 c 0,-0.01669 0.2237819,-0.02961 0.4972932,-0.02872 l 0.4972933,0.0016 0.2101899,0.363724 0.21019,0.363724 -0.5352036,0 -0.5352037,0 -0.1722796,-0.335008 z"
       id="path3109"
       inkscape:connector-curvature="0"
       transform="translate(0,1032.3622)" />
    <path
       style="fill:#008080;fill-opacity:0.24636727"
       d="M 8.475932,14.018852 C 7.9010968,12.796766 7.6041376,11.477247 7.5606141,9.9516938 c -4.778e-4,-0.016746 0.090471,-0.030447 0.2021082,-0.030447 0.1116372,0 0.2032594,0.013701 0.2036049,0.030447 3.45e-4,0.016746 0.019128,0.3024182 0.041739,0.6348272 0.078903,1.159977 0.377044,2.291983 0.8708431,3.306491 l 0.2600743,0.534321 -0.2354568,0 -0.2354568,0 -0.1921379,-0.408481 z"
       id="path3111"
       inkscape:connector-curvature="0"
       transform="translate(0,1032.3622)" />
    <path
       style="fill:#008080;fill-opacity:0.24636727"
       d="M 7.5846456,9.6066332 C 7.6294184,8.8509029 7.7548702,8.0409284 7.9053109,7.5362694 l 0.063534,-0.2131256 0.2014042,0 c 0.1107722,0 0.2014041,0.00937 0.2014041,0.020811 0,0.011446 -0.036892,0.1530227 -0.081981,0.3146141 C 8.1573898,8.132638 8.0464205,8.8122476 8.0229555,9.2920191 7.9910139,9.9451052 8.0007915,9.9212473 7.7650794,9.9212473 l -0.1990729,0 0.018639,-0.3146141 z"
       id="path3113"
       inkscape:connector-curvature="0"
       transform="translate(0,1032.3622)" />
    <path
       style="fill:#008080;fill-opacity:0.24636727"
       d="m 7.9656991,7.3067749 c 0,-0.009 0.065139,-0.205383 0.1447525,-0.4364002 0.209712,-0.6085255 0.64979,-1.4866399 1.0304392,-2.0560982 l 0.3310052,-0.4951899 0.2636101,0 0.2636101,0 -0.2379835,0.3146141 C 9.2717851,5.2806178 8.7054208,6.3473815 8.4895163,7.0288273 l -0.093249,0.2943165 -0.215284,0 c -0.1184062,0 -0.215284,-0.00737 -0.215284,-0.016369 z"
       id="path3115"
       inkscape:connector-curvature="0"
       transform="translate(0,1032.3622)" />
    <path
       style="fill:#008080;fill-opacity:0.24636727"
       d="m 9.5083231,4.2936155 c 0,-0.05832 0.5981829,-0.7236565 0.9854019,-1.0960255 1.549016,-1.4896105 3.386105,-2.32676318 5.683092,-2.58975859 l 0.193533,-0.0221587 -0.01085,0.21713257 -0.01085,0.21713255 -0.329713,0.025597 c -0.659828,0.051225 -1.589154,0.2770632 -2.300063,0.5589444 -1.217798,0.4828672 -2.204315,1.1447073 -3.180384,2.1336736 l -0.5733574,0.5809338 -0.2284007,0 c -0.1256205,0 -0.2284008,-0.011462 -0.2284008,-0.025471 z"
       id="path3117"
       inkscape:connector-curvature="0"
       transform="translate(0,1032.3622)" />
    <path
       style="fill:#008080;fill-opacity:0.24636727"
       d="M 18.59539,1.1328204 C 18.545909,1.08334 17.470114,0.99026645 16.947673,0.99026645 l -0.578733,0 0,-0.20297683 0,-0.20297684 0.61908,3.6839e-4 c 0.557452,3.3172e-4 1.611738,0.0903454 1.700468,0.14518401 0.05989,0.037011 0.04242,0.42278272 -0.01914,0.42278272 -0.02977,0 -0.06305,-0.00892 -0.07395,-0.019828 z"
       id="path3119"
       inkscape:connector-curvature="0"
       transform="translate(0,1032.3622)" />
    <path
       style="fill:#008080;fill-opacity:0.24636727"
       d="M 20.190666,1.5735059 C 19.93707,1.4728727 19.49864,1.3324446 19.216378,1.2614434 l -0.513204,-0.1290932 0.01237,-0.19282796 c 0.0096,-0.14940556 0.02787,-0.19279898 0.08119,-0.19269915 0.03785,7.086e-5 0.315434,0.0650804 0.616855,0.14446561 0.621369,0.1636502 1.32136,0.4291592 1.31529,0.4988938 -0.0022,0.025648 -0.0068,0.1197047 -0.01015,0.2090145 -0.0033,0.08931 -0.01979,0.1612332 -0.03654,0.1598299 -0.01675,-0.0014 -0.237935,-0.084888 -0.491532,-0.185521 z"
       id="path3121"
       inkscape:connector-curvature="0"
       transform="translate(0,1032.3622)" />
    <path
       style="fill:#008080;fill-opacity:0.24636727"
       d="M 22.216864,2.6520392 C 22.072941,2.545354 21.784367,2.3607272 21.575588,2.2417573 l -0.379596,-0.216309 0.01632,-0.1937205 c 0.009,-0.1065463 0.0269,-0.2042947 0.03982,-0.2172185 0.02617,-0.026172 0.637356,0.3101303 1.032866,0.5683325 l 0.256183,0.167245 -0.02655,0.2436344 c -0.0146,0.133999 -0.0287,0.2455822 -0.03132,0.2479627 -0.0026,0.00238 -0.122524,-0.08296 -0.266447,-0.1896447 l 0,0 z"
       id="path3123"
       inkscape:connector-curvature="0"
       transform="translate(0,1032.3622)" />
    <path
       style="fill:#008080;fill-opacity:0.24636727"
       d="M 20.923283,1.8915784 20.70767,1.7829462 20.735045,1.5794343 c 0.01506,-0.1119315 0.03227,-0.2089475 0.03825,-0.2155911 0.006,-0.00664 0.114908,0.038945 0.242063,0.1013073 0.215886,0.1058803 0.229643,0.121125 0.207812,0.2302794 -0.01286,0.064291 -0.02338,0.160279 -0.02338,0.2133067 0,0.1182996 -0.0087,0.1177582 -0.276506,-0.017158 z"
       id="path3125"
       inkscape:connector-curvature="0"
       transform="translate(0,1032.3622)" />
    <path
       style="fill:#008080;fill-opacity:0.24636727"
       d="m 18.439304,19.099369 0,-0.199409 0.17253,-0.02705 c 0.667425,-0.104649 1.700066,-0.448287 2.394861,-0.796952 0.942656,-0.473046 1.611662,-0.963799 2.42147,-1.776281 l 0.584263,-0.586193 -0.03311,0.605233 c -0.01821,0.332878 -0.03451,0.648115 -0.03623,0.700525 -0.0032,0.09747 -0.235918,0.322864 -0.79208,0.767133 l -0.266519,0.2129 -0.438969,2.26e-4 -0.438968,2.26e-4 -0.433832,0.242359 c -0.759667,0.424384 -1.7549,0.796674 -2.605684,0.974716 -0.546445,0.114353 -0.52774,0.118515 -0.52774,-0.117431 z"
       id="path3127"
       inkscape:connector-curvature="0"
       transform="translate(0,1032.3622)" />
    <path
       style="fill:#008080;fill-opacity:0.24636727"
       d="m 20.835052,18.92327 c 3.42e-4,-0.117219 0.01404,-0.233686 0.03045,-0.258815 0.0164,-0.02513 0.217071,-0.13947 0.445927,-0.254091 l 0.416103,-0.208402 0,0.267064 0,0.267065 -0.424323,0.200152 c -0.233378,0.110084 -0.434325,0.200153 -0.446549,0.200153 -0.01222,0 -0.02195,-0.09591 -0.0216,-0.213126 z"
       id="path3129"
       inkscape:connector-curvature="0"
       transform="translate(0,1032.3622)" />
    <path
       style="fill:#008080;fill-opacity:0.24636727"
       d="m 16.186261,19.395571 c -0.80254,-0.08332 -1.789463,-0.308657 -2.491943,-0.568976 -0.797598,-0.295566 -1.856654,-0.8984 -2.582478,-1.469993 -0.453243,-0.356933 -1.2737079,-1.206015 -1.6341146,-1.69111 -0.2916386,-0.392536 -0.7813097,-1.156919 -0.7813097,-1.219635 0,-0.01242 0.104079,-0.0171 0.2312866,-0.0104 l 0.2312865,0.01217 0.184816,0.307973 c 0.31239,0.520559 0.7673782,1.090235 1.2790312,1.601433 1.523214,1.52186 3.407347,2.412181 5.543127,2.619329 0.507423,0.04922 1.608507,0.02916 2.060215,-0.03752 l 0.213126,-0.03146 0,0.210832 0,0.210832 -0.213126,0.02591 c -0.266617,0.03241 -1.820883,0.06336 -2.039917,0.04062 l 0,0 z"
       id="path3131"
       inkscape:connector-curvature="0"
       transform="translate(0,1032.3622)" />
    <path
       style="fill:#008080;fill-opacity:0.24636727"
       d="M 13.383267,19.242604 C 11.415916,18.436599 9.8352563,17.144435 8.6847286,15.401622 8.3633936,14.914866 7.8754356,13.941441 7.6651875,13.367744 7.037845,11.655938 6.9151814,9.7028718 7.3174226,7.8305859 7.5342526,6.8213213 8.1262602,5.4315145 8.718088,4.5423611 10.098971,2.4677419 12.19736,0.97952618 14.589172,0.37848053 c 0.619075,-0.15556913 0.602503,-0.15710918 0.602503,0.0559895 0,0.23317291 -0.05626,0.2903713 -0.345061,0.35082076 C 14.356717,0.88783188 13.383245,1.2386456 12.823106,1.5145104 10.940053,2.4419004 9.4579458,3.9257281 8.5146522,5.8279656 8.0546166,6.7556692 7.7265975,7.8611318 7.6012129,8.9063631 7.5246998,9.544191 7.5425671,10.66876 7.639787,11.334219 c 0.2978019,2.038421 1.2026566,3.867755 2.621672,5.300202 0.927376,0.936155 2.037496,1.677094 3.22521,2.152636 0.325484,0.130319 0.345806,0.145618 0.358201,0.269663 0.01728,0.172982 -0.02254,0.323687 -0.08496,0.321484 -0.02748,-9.7e-4 -0.196975,-0.06199 -0.376647,-0.1356 l 0,0 z"
       id="path3133"
       inkscape:connector-curvature="0"
       transform="translate(0,1032.3622)" />
    <path
       style="fill:#008080;fill-opacity:0.24636727"
       d="m 15.03495,19.733536 -0.217617,-0.04172 0.01798,-0.21677 c 0.0099,-0.119224 0.02561,-0.223459 0.03494,-0.231634 0.0093,-0.0082 0.122002,0.0049 0.250385,0.02898 0.214675,0.04032 0.233423,0.05252 0.233423,0.151826 0,0.149742 -0.04551,0.362803 -0.07612,0.356369 -0.01395,-0.0029 -0.1233,-0.02411 -0.24299,-0.04705 z"
       id="path3135"
       inkscape:connector-curvature="0"
       transform="translate(0,1032.3622)" />
    <path
       style="fill:#008080;fill-opacity:0.24636727"
       d="m 14.511702,19.612897 -0.17253,-0.04149 0,-0.237804 c 0,-0.130793 0.0094,-0.237805 0.02091,-0.237805 0.0115,0 0.13097,0.0306 0.265487,0.068 0.177182,0.04926 0.238537,0.08374 0.222662,0.125107 -0.01205,0.03141 -0.02191,0.128685 -0.02191,0.216169 0,0.176842 -0.01138,0.180742 -0.314614,0.107823 z"
       id="path3137"
       inkscape:connector-curvature="0"
       transform="translate(0,1032.3622)" />
    <path
       style="fill:#008080;fill-opacity:0.24636727"
       d="m 14.034707,19.475827 -0.202977,-0.05997 0,-0.241104 c 0,-0.135694 0.01775,-0.239778 0.04059,-0.238071 0.02233,0.0017 0.131935,0.03508 0.243572,0.07426 l 0.202977,0.07122 0.01218,0.230095 c 0.0137,0.258893 0.01808,0.256474 -0.296342,0.163573 z"
       id="path3139"
       inkscape:connector-curvature="0"
       transform="translate(0,1032.3622)" />
    <path
       style="fill:#008080;fill-opacity:0.24636727"
       d="m 15.581416,19.81752 c -0.131718,-0.01661 -0.242435,-0.03508 -0.246039,-0.04104 -0.0036,-0.006 9.95e-4,-0.108334 0.01022,-0.227481 l 0.01677,-0.216629 0.249566,0.02837 c 0.137262,0.0156 0.252339,0.03088 0.255727,0.03395 0.0034,0.0031 -0.0057,0.10626 -0.0203,0.229308 l -0.02646,0.223724 -0.239487,-0.03019 z"
       id="path3141"
       inkscape:connector-curvature="0"
       transform="translate(0,1032.3622)" />
    <path
       style="fill:#008080;fill-opacity:0.24636727"
       d="m 16.344299,19.843494 c 0.01355,-0.03532 0.0246,-0.140357 0.02455,-0.233423 l -9.4e-5,-0.16921 0.345155,0.01313 c 0.37974,0.01445 0.368326,0.0037 0.319099,0.301483 l -0.02516,0.152233 -0.344092,0 c -0.297089,0 -0.340727,-0.0088 -0.319452,-0.06421 z"
       id="path3143"
       inkscape:connector-curvature="0"
       transform="translate(0,1032.3622)" />
    <path
       style="fill:#008080;fill-opacity:0.24636727"
       d="m 19.296673,19.586811 c -0.04155,-0.02631 -0.04881,-0.08361 -0.0281,-0.22172 0.02656,-0.177144 0.03623,-0.188447 0.19811,-0.231551 0.0936,-0.02492 0.331802,-0.09705 0.529337,-0.16029 0.357477,-0.114437 0.359042,-0.114561 0.335466,-0.02666 -0.01303,0.04857 -0.02394,0.163587 -0.02424,0.255585 l -5.54e-4,0.16727 -0.4364,0.127279 c -0.478075,0.139435 -0.4922,0.141653 -0.573618,0.09009 z"
       id="path3145"
       inkscape:connector-curvature="0"
       transform="translate(0,1032.3622)" />
    <path
       style="fill:#008080;fill-opacity:0.24636727"
       d="m 20.484652,19.037478 0.0047,-0.253386 0.17253,-0.06239 0.172531,-0.06239 0,0.250083 0,0.250082 -0.177249,0.06569 -0.177248,0.06569 0.0047,-0.253386 0,0 z"
       id="path3147"
       inkscape:connector-curvature="0"
       transform="translate(0,1032.3622)" />
    <path
       style="fill:#008080;fill-opacity:0.24636727"
       d="m 21.9097,18.334637 c 0.01609,-0.15071 0.05018,-0.28744 0.07577,-0.303843 0.02559,-0.0164 0.144384,-0.0301 0.263992,-0.03045 0.181768,-5.2e-4 0.213424,0.0099 0.192828,0.06359 -0.01355,0.03532 -0.02464,0.106253 -0.02464,0.157636 0,0.07112 -0.05884,0.128475 -0.246482,0.240252 -0.135565,0.08076 -0.256434,0.146829 -0.268599,0.146829 -0.01216,0 -0.009,-0.123309 0.0071,-0.274019 z"
       id="path3149"
       inkscape:connector-curvature="0"
       transform="translate(0,1032.3622)" />
    <path
       style="fill:#008080;fill-opacity:0.24636727"
       d="m 21.727529,18.453135 c 0,-0.260874 0.0066,-0.280995 0.10688,-0.326694 0.105197,-0.04793 0.106475,-0.04668 0.08119,0.07975 -0.01413,0.07065 -0.02569,0.194841 -0.02569,0.275989 0,0.103577 -0.02419,0.162651 -0.08119,0.198247 -0.07822,0.04885 -0.08119,0.04054 -0.08119,-0.227291 z"
       id="path3151"
       inkscape:connector-curvature="0"
       transform="translate(0,1032.3622)" />
    <path
       style="fill:#008080;fill-opacity:0.24636727"
       d="m 22.444794,18.151958 c 0.01381,-0.07256 0.02972,-0.137645 0.03535,-0.144624 0.0056,-0.007 0.08754,-0.007 0.182013,0 l 0.171771,0.01269 -0.184331,0.131935 c -0.101383,0.07256 -0.19459,0.131935 -0.207127,0.131935 -0.01254,0 -0.01149,-0.05937 0.0023,-0.131935 z"
       id="path3153"
       inkscape:connector-curvature="0"
       transform="translate(0,1032.3622)" />
    <path
       style="fill:#008080;fill-opacity:0.24636727"
       d="m 19.257621,19.461159 c 0,-0.05582 0.0092,-0.07865 0.02048,-0.05074 0.01126,0.02791 0.01126,0.07358 0,0.101489 -0.01126,0.02791 -0.02048,0.0051 -0.02048,-0.05074 z"
       id="path3159"
       inkscape:connector-curvature="0"
       transform="translate(0,1032.3622)" />
    <path
       style="fill:#008080;fill-opacity:0.24636727"
       d="m 18.576313,19.659061 c 0.01395,-0.06977 0.02537,-0.17082 0.02537,-0.224549 0,-0.145395 0.08823,-0.153167 0.297314,-0.02619 0.266239,0.161691 0.261123,0.274391 -0.01514,0.333639 -0.31875,0.06836 -0.33682,0.06349 -0.307542,-0.0829 z"
       id="path3161"
       inkscape:connector-curvature="0"
       transform="translate(0,1032.3622)" />
    <path
       style="fill:#008080;fill-opacity:0.24636727"
       d="m 17.708587,19.790219 c 0,-0.06376 0.01078,-0.169858 0.02397,-0.235764 0.02381,-0.119058 0.0266,-0.120139 0.432689,-0.167784 0.224798,-0.02637 0.415212,-0.04147 0.423143,-0.03354 0.0079,0.0079 2.23e-4,0.113072 -0.01713,0.233648 l -0.03155,0.219229 -0.243028,0.02839 c -0.133666,0.01562 -0.320667,0.03815 -0.415558,0.05007 -0.167763,0.02108 -0.172531,0.01847 -0.172531,-0.09426 z"
       id="path3163"
       inkscape:connector-curvature="0"
       transform="translate(0,1032.3622)" />
    <path
       style="fill:#008080;fill-opacity:0.24636727"
       d="m 17.214783,19.689115 0.01364,-0.218703 0.250232,-0.01925 c 0.137627,-0.01059 0.251137,-0.01724 0.252244,-0.01478 0.0011,0.0025 -0.0052,0.109516 -0.01391,0.237899 l -0.01592,0.233424 -0.249964,5.5e-5 -0.249964,5.5e-5 0.01364,-0.218703 z"
       id="path3165"
       inkscape:connector-curvature="0"
       transform="translate(0,1032.3622)" />
    <path
       style="fill:#008080;fill-opacity:0.24636727"
       d="m 16.008567,19.877731 -0.177693,-0.01579 0.02546,-0.185758 c 0.014,-0.102168 0.02543,-0.206044 0.02539,-0.230837 -4.9e-5,-0.02966 0.08495,-0.04029 0.248561,-0.03107 l 0.248636,0.01401 -0.02529,0.184488 c -0.01391,0.101468 -0.02529,0.20934 -0.02529,0.239715 0,0.03037 -0.03197,0.05204 -0.07104,0.04813 -0.03907,-0.0039 -0.151004,-0.0142 -0.248736,-0.02288 z"
       id="path3167"
       inkscape:connector-curvature="0"
       transform="translate(0,1032.3622)" />
    <path
       style="fill:#008080;fill-opacity:0.24636727"
       d="m 17.038764,19.684561 c 0,-0.207964 0.0066,-0.223171 0.09665,-0.223282 0.08911,-1.11e-4 0.09469,0.01176 0.07149,0.152112 -0.01384,0.08373 -0.02536,0.184202 -0.02561,0.223275 -2.54e-4,0.04042 -0.03107,0.07104 -0.07149,0.07105 -0.05904,7e-6 -0.07104,-0.03768 -0.07104,-0.223155 z"
       id="path3169"
       inkscape:connector-curvature="0"
       transform="translate(0,1032.3622)" />
    <path
       style="fill:#008080;fill-opacity:0.24636727"
       d="m 19.08883,19.616656 c 0,-0.06853 -0.04814,-0.127974 -0.165005,-0.203752 -0.17553,-0.113816 -0.175763,-0.113428 0.104112,-0.173175 0.06698,-0.0143 0.151571,-0.0348 0.187976,-0.04556 0.0563,-0.01664 0.0631,0.0079 0.0455,0.163982 -0.01305,0.115816 -0.0019,0.206138 0.03012,0.244768 0.04154,0.05006 0.0394,0.06122 -0.01173,0.06122 -0.0344,0 -0.09144,0.01109 -0.126757,0.02464 -0.04749,0.01822 -0.06421,-5.65e-4 -0.06421,-0.07212 z"
       id="path3171"
       inkscape:connector-curvature="0"
       transform="translate(0,1032.3622)" />
    <path
       style="fill:#008080;fill-opacity:0.24636727"
       d="m 20.481652,19.034907 c 2.27e-4,-0.133964 0.0078,-0.183874 0.01684,-0.11091 0.009,0.07296 0.0088,0.182572 -4.14e-4,0.243572 -0.0093,0.061 -0.01666,0.0013 -0.01643,-0.132662 z"
       id="path3173"
       inkscape:connector-curvature="0"
       transform="translate(0,1032.3622)" />
    <path
       style="fill:#008080;fill-opacity:0.24636727"
       d="m 15.179565,0.51327089 c 0.02688,-0.28000907 0.02811,-0.28159118 0.242304,-0.31156963 0.107831,-0.0150921 0.255428,-0.0376852 0.327992,-0.0502068 l 0.131935,-0.0227665 -6.22e-4,0.19734589 c -3.41e-4,0.10854024 -0.01404,0.21628992 -0.03045,0.23944373 -0.02417,0.0341119 -0.520096,0.14058131 -0.65482,0.14058131 -0.01917,0 -0.02652,-0.0867726 -0.01634,-0.19282799 z"
       id="path3175"
       inkscape:connector-curvature="0"
       transform="translate(0,1032.3622)" />
    <path
       style="fill:#008080;fill-opacity:0.24636727"
       d="m 16.382323,0.33523531 c 0.01358,-0.11466515 0.02983,-0.21259341 0.0361,-0.21761834 0.0063,-0.005025 0.163907,-0.02038153 0.350294,-0.03412579 0.296459,-0.02186101 0.335847,-0.01707116 0.314614,0.03825938 -0.01335,0.0347869 -0.02427,0.14396046 -0.02427,0.24260789 l 0,0.17935896 -0.350715,0 -0.350715,0 0.02469,-0.2084821 z"
       id="path3177"
       inkscape:connector-curvature="0"
       transform="translate(0,1032.3622)" />
    <path
       style="fill:#008080;fill-opacity:0.24636727"
       d="m 16.044177,0.36538151 c 0,-0.23771636 0.02828,-0.26821314 0.248732,-0.26821314 0.116307,0 0.119492,0.0050591 0.09583,0.15223263 -0.05443,0.33853772 -0.05223,0.33491178 -0.20325,0.33491178 l -0.141311,0 0,-0.21893127 z"
       id="path3179"
       inkscape:connector-curvature="0"
       transform="translate(0,1032.3622)" />
    <path
       style="fill:#008080;fill-opacity:0.24636727"
       d="m 15.881796,0.36103826 c 0,-0.19621094 0.0098,-0.22327452 0.08119,-0.22327452 0.07135,0 0.08119,0.0270636 0.08119,0.22327452 0,0.19621093 -0.0098,0.22327452 -0.08119,0.22327452 -0.07135,0 -0.08119,-0.0270636 -0.08119,-0.22327452 z"
       id="path3181"
       inkscape:connector-curvature="0"
       transform="translate(0,1032.3622)" />
    <path
       style="fill:#008080;fill-opacity:0.24636727"
       d="m 17.388941,0.55402904 -0.339944,-0.0137578 0.02488,-0.15050956 c 0.01369,-0.0827803 0.02508,-0.1824784 0.02533,-0.22155145 3.88e-4,-0.0617016 0.04314,-0.07104189 0.32521,-0.07104189 l 0.324763,0 0,0.24357221 c 0,0.13396471 -0.0046,0.23985387 -0.01015,0.23530922 -0.0056,-0.004545 -0.163124,-0.014454 -0.350093,-0.0220208 z"
       id="path3183"
       inkscape:connector-curvature="0"
       transform="translate(0,1032.3622)" />
    <path
       style="fill:#008080;fill-opacity:0.24636727"
       d="m 18.419006,0.6455744 c -0.02233,-0.00795 -0.145636,-0.0263 -0.274019,-0.0407788 l -0.233423,-0.026325 0,-0.20132981 c 0,-0.24390393 0.02301,-0.25633345 0.392215,-0.21189631 l 0.277609,0.0334123 0,0.22271857 c 0,0.21929447 -0.03611,0.26915597 -0.162382,0.22419904 z"
       id="path3185"
       inkscape:connector-curvature="0"
       transform="translate(0,1032.3622)" />
    <path
       style="fill:#008080;fill-opacity:0.24636727"
       d="m 17.749183,0.34074058 c 0,-0.13396472 0.01677,-0.24357221 0.03728,-0.24357221 0.120921,0 0.144969,0.04832748 0.131498,0.26425348 -0.01169,0.18736223 -0.02625,0.22289093 -0.09134,0.22289093 -0.06758,0 -0.07743,-0.031003 -0.07743,-0.2435722 z"
       id="path3187"
       inkscape:connector-curvature="0"
       transform="translate(0,1032.3622)" />
    <path
       style="fill:#008080;fill-opacity:0.24636727"
       d="m 18.902386,0.73739795 -0.166147,-0.0401414 0.01913,-0.20870451 c 0.01052,-0.11478749 0.02652,-0.21691668 0.03555,-0.22695375 0.01624,-0.0180572 0.459506,0.0648187 0.485451,0.090764 0.0074,0.0074 0.0022,0.10828591 -0.0115,0.22419092 -0.02771,0.23399245 -0.03899,0.23899842 -0.362475,0.16084471 l 0,0 z"
       id="path3189"
       inkscape:connector-curvature="0"
       transform="translate(0,1032.3622)" />
    <path
       style="fill:#008080;fill-opacity:0.24636727"
       d="m 18.62038,0.67503072 c -0.02374,-0.0167757 -0.03534,-0.12307272 -0.02653,-0.24295057 0.01382,-0.18794186 0.02625,-0.21312568 0.1052,-0.21312568 0.08684,0 0.08832,0.007325 0.04925,0.24357221 -0.04082,0.24679495 -0.05233,0.26592604 -0.127917,0.21250404 z"
       id="path3191"
       inkscape:connector-curvature="0"
       transform="translate(0,1032.3622)" />
    <path
       style="fill:#008080;fill-opacity:0.24636727"
       d="m 19.545227,0.89239313 c -0.26348,-0.0666581 -0.329845,-0.0978364 -0.31013,-0.14569888 0.0138,-0.0334912 0.03469,-0.13953125 0.04643,-0.2356446 0.0127,-0.10397512 0.03965,-0.16816107 0.06656,-0.15847925 0.02487,0.00895 0.168522,0.0491965 0.319233,0.0894372 l 0.274018,0.0731649 0,0.21485353 c 0,0.11816942 -0.0137,0.22212539 -0.03045,0.23101326 -0.01675,0.008888 -0.181292,-0.0220029 -0.365659,-0.0686461 l 0,0 z"
       id="path3193"
       inkscape:connector-curvature="0"
       transform="translate(0,1032.3622)" />
    <path
       style="fill:#008080;fill-opacity:0.24636727"
       d="m 20.300355,1.1407644 -0.229611,-0.086356 0.02209,-0.22489882 c 0.01215,-0.12369435 0.0263,-0.2301082 0.03144,-0.23647522 0.0051,-0.006367 0.11223,0.0269144 0.237968,0.0739586 l 0.228612,0.085535 0,0.24065547 c 0,0.13236051 -0.0137,0.23914391 -0.03045,0.23729641 -0.01675,-0.00185 -0.133771,-0.042219 -0.260057,-0.089715 l 0,0 z"
       id="path3195"
       inkscape:connector-curvature="0"
       transform="translate(0,1032.3622)" />
    <path
       style="fill:#008080;fill-opacity:0.24636727"
       d="m 20.967317,1.4228353 -0.374556,-0.168699 -9.51e-4,-0.2514186 -9.52e-4,-0.25141864 0.274019,0.11412097 c 0.579836,0.24148517 0.588927,0.24808307 0.562431,0.40819487 -0.01301,0.078597 -0.02385,0.1840057 -0.02409,0.2342425 -2.46e-4,0.050237 -0.01415,0.089616 -0.03089,0.087508 -0.01675,-0.00211 -0.198996,-0.079746 -0.405002,-0.1725303 z"
       id="path3197"
       inkscape:connector-curvature="0"
       transform="translate(0,1032.3622)" />
    <path
       style="fill:#008080;fill-opacity:0.24636727"
       d="m 20.6619,1.2698614 c -0.03907,-0.022031 -0.07316,-0.080252 -0.07575,-0.1293795 -0.0036,-0.068689 -0.009,-0.072912 -0.02327,-0.01828 -0.02287,0.087521 -0.02851,0.087571 -0.266333,0.00233 -0.187146,-0.067077 -0.19281,-0.073961 -0.192206,-0.23362421 0.0011,-0.28368596 0.03289,-0.29753858 0.371753,-0.16183955 l 0.297449,0.11911473 -0.0203,0.23086803 C 20.73518,1.2844655 20.72511,1.3055023 20.6619,1.2698614 z"
       id="path3199"
       inkscape:connector-curvature="0"
       transform="translate(0,1032.3622)" />
    <path
       style="fill:#008080;fill-opacity:0.24636727"
       d="m 21.53277,1.702071 c -0.136563,-0.072121 -0.152635,-0.095427 -0.126932,-0.1840648 0.01619,-0.055819 0.03125,-0.1608591 0.03348,-0.2334233 0.0022,-0.072564 0.01379,-0.131935 0.02569,-0.131935 0.04719,0 0.420751,0.2040127 0.444796,0.2429195 0.0141,0.022818 0.01338,0.1232669 -0.0016,0.2232205 -0.02392,0.1595407 -0.03896,0.1807647 -0.123157,0.1737967 -0.05275,-0.00437 -0.166267,-0.045097 -0.252265,-0.090514 l 0,0 z"
       id="path3201"
       inkscape:connector-curvature="0"
       transform="translate(0,1032.3622)" />
    <path
       style="fill:#008080;fill-opacity:0.24636727"
       d="m 21.916974,1.9374917 c -0.05661,-0.056613 -0.02346,-0.1301824 0.06428,-0.1426433 0.07001,-0.00994 0.09431,-0.043786 0.10406,-0.1449072 0.007,-0.072564 0.02421,-0.131935 0.03824,-0.131935 0.03182,0 0.659456,0.4105562 0.659456,0.4313694 0,0.027372 -0.838281,0.015869 -0.866034,-0.011884 z"
       id="path3203"
       inkscape:connector-curvature="0"
       transform="translate(0,1032.3622)" />
    <path
       style="fill:#008080;fill-opacity:0.24636727"
       d="M 22.762711,2.5052985 C 22.628746,2.403322 22.409531,2.2492446 22.275566,2.1629043 l -0.243572,-0.1569823 0.439717,-3.857e-4 0.439717,-3.857e-4 0.17757,0.1455051 c 0.153087,0.1254437 0.171098,0.1558681 0.13063,0.2206677 -0.02582,0.041339 -0.0784,0.08339 -0.116852,0.093445 -0.03845,0.010055 -0.07589,0.065006 -0.0832,0.1221121 l -0.01329,0.1038299 -0.243572,-0.1854118 0,0 z"
       id="path3205"
       inkscape:connector-curvature="0"
       transform="translate(0,1032.3622)" />
    <path
       style="fill:#008080;fill-opacity:0.24636727"
       d="M 44.217362,3.6215013 C 43.595234,3.3391122 42.629891,3.0993101 41.801938,3.0214828 41.510742,2.9941105 38.349348,2.9794955 32.714814,2.9794734 L 24.07424,2.9794395 23.808018,2.7460161 23.541796,2.5125927 23.670024,2.492295 c 0.121959,-0.019305 0.110853,-0.029074 -0.227161,-0.1998021 -0.195464,-0.098727 -0.391925,-0.2041946 -0.43658,-0.2343714 -0.06829,-0.046149 1.444276,-0.052815 9.519613,-0.041952 8.881599,0.011947 9.635777,0.018212 10.067651,0.083636 1.323444,0.2004856 2.121568,0.4739031 2.881546,0.9871464 l 0.141359,0.095465 -1.115648,0.00338 c -1.059245,0.00321 -1.103333,0.00633 -0.872075,0.061646 0.320699,0.076713 0.607467,0.1700469 0.832205,0.2708553 0.100474,0.045068 0.237483,0.1059581 0.304466,0.1353104 0.117759,0.051603 0.113733,0.053325 -0.121786,0.052089 -0.156212,-8.2e-4 -0.309093,-0.031019 -0.426252,-0.084198 l 0,10e-8 z"
       id="path3207"
       inkscape:connector-curvature="0"
       transform="translate(0,1032.3622)" />
    <path
       style="fill:#008080;fill-opacity:0.24636727"
       d="M 44.176767,3.5826545 C 43.296998,3.2517593 42.498546,3.0711974 41.680152,3.0180707 41.367567,2.997779 37.284688,2.9807528 32.607087,2.9802348 L 24.102358,2.979293 23.858785,2.7596119 C 23.620115,2.5443515 23.617197,2.5391754 23.713784,2.502393 c 0.09072,-0.034548 0.06845,-0.053419 -0.279625,-0.2369435 l -0.378197,-0.1994058 8.824951,-0.010958 c 5.113639,-0.00635 9.234685,0.00534 9.799239,0.027808 0.770128,0.030642 1.088638,0.061175 1.51998,0.1457067 0.881807,0.1728105 1.659774,0.4668995 2.194496,0.8295686 l 0.182679,0.1239001 -1.033152,1.746e-4 c -0.604875,1.015e-4 -1.017165,0.015139 -0.994587,0.036275 0.02121,0.019855 0.148173,0.066374 0.282138,0.1033737 0.256983,0.070977 0.872801,0.3051784 0.872801,0.3319351 0,0.046618 -0.334508,0.00151 -0.52774,-0.071172 l 0,-8e-7 z"
       id="path3209"
       inkscape:connector-curvature="0"
       transform="translate(0,1032.3622)" />
    <path
       style="fill:#008080;fill-opacity:0.24636727"
       d="M 45.73148,4.6010886 C 45.426679,4.3296678 45.160737,4.1435289 44.709525,3.885798 L 44.410077,3.714755 44.628334,3.7013641 44.84659,3.6879732 44.603018,3.5729764 C 44.469053,3.5097283 44.206665,3.4080477 44.019932,3.3470197 l -0.339513,-0.11096 0.583086,-0.026673 c 0.320697,-0.01467 0.759387,-0.02674 0.974868,-0.026822 l 0.391782,-1.485e-4 0.257744,0.192828 c 0.141759,0.1060554 0.45869,0.393775 0.704292,0.639377 l 0.446549,0.4465491 -0.46378,0.011545 -0.46378,0.011545 0.177916,0.1812834 0.177916,0.1812834 -0.229786,0 c -0.22362,0 -0.237193,-0.00659 -0.505746,-0.2457378 l 0,0 z"
       id="path3211"
       inkscape:connector-curvature="0"
       transform="translate(0,1032.3622)" />
    <path
       style="fill:#008080;fill-opacity:0.24636727"
       d="M 46.04973,4.8032746 C 45.996979,4.7821516 45.8143,4.6525001 45.643777,4.51516 45.3479,4.2768598 44.944709,4.0016191 44.610789,3.8099854 l -0.15461,-0.088729 0.128333,-0.025667 c 0.07058,-0.014117 0.144725,-0.015536 0.164759,-0.00315 0.02004,0.012382 0.03643,0.00317 0.03643,-0.020479 0,-0.023645 -0.0046,-0.043054 -0.01015,-0.04313 -0.0056,-7.65e-5 -0.144394,-0.054844 -0.308472,-0.1217052 -0.164078,-0.066861 -0.314789,-0.1113903 -0.334912,-0.098953 -0.02012,0.012437 -0.03659,0.00361 -0.03659,-0.019605 0,-0.02322 -0.04567,-0.05368 -0.101488,-0.06769 -0.236711,-0.059411 -0.05211,-0.08646 0.755434,-0.1106888 l 0.856923,-0.025711 0.249301,0.1914617 c 0.137115,0.1053039 0.450248,0.3874 0.69585,0.62688 l 0.446549,0.4354183 -0.186873,0.00132 c -0.10278,7.258e-4 -0.300001,0.013144 -0.438268,0.027596 l -0.251395,0.026276 0.09524,0.105659 c 0.213288,0.2366276 0.216335,0.2480008 0.0657,0.2451696 -0.0753,-0.00142 -0.180066,-0.019856 -0.232818,-0.040979 l 0,1e-7 z"
       id="path3213"
       inkscape:connector-curvature="0"
       transform="translate(0,1032.3622)" />
    <path
       style="fill:#008080;fill-opacity:0.24636727"
       d="m 46.29706,5.1736176 -0.295132,-0.3226909 0.232039,-0.012199 0.232038,-0.012199 -0.129735,-0.147443 c -0.07135,-0.081094 -0.129735,-0.1587323 -0.129735,-0.1725303 0,-0.013798 0.187246,-0.025087 0.416103,-0.025086 l 0.416102,1.2e-6 0.104705,0.1319338 c 0.05759,0.072564 0.174266,0.2232733 0.259285,0.3349106 l 0.154581,0.2029768 -0.41219,0.020298 -0.41219,0.020298 0.103624,0.1522326 0.103624,0.1522326 -0.173994,-2.18e-5 C 46.600611,5.4963096 46.577909,5.480693 46.29706,5.1736176 z"
       id="path3215"
       inkscape:connector-curvature="0"
       transform="translate(0,1032.3622)" />
    <path
       style="fill:#008080;fill-opacity:0.24636727"
       d="m 46.628158,5.456534 c -0.09468,-0.038254 -0.55842,-0.5390889 -0.548583,-0.5924713 0.0034,-0.018431 0.08816,-0.028469 0.188354,-0.022307 0.100198,0.00616 0.182178,-5.295e-4 0.182178,-0.014869 0,-0.01434 -0.04784,-0.088791 -0.106306,-0.1654476 l -0.106307,-0.1393752 0.118485,0 c 0.06517,0 0.13584,-0.016677 0.157051,-0.037061 0.02121,-0.020383 0.147532,-0.02495 0.280713,-0.010149 l 0.242146,0.026912 0.234535,0.3044653 0.234535,0.3044652 -0.172216,0.027438 c -0.09472,0.015091 -0.268123,0.028791 -0.385342,0.030447 -0.117219,0.00165 -0.21272,0.01671 -0.212223,0.033456 4.96e-4,0.016746 0.03663,0.076116 0.08029,0.131935 0.04366,0.055819 0.07979,0.1151893 0.08029,0.1319349 0.0012,0.040069 -0.159116,0.034455 -0.267596,-0.00937 z"
       id="path3217"
       inkscape:connector-curvature="0"
       transform="translate(0,1032.3622)" />
    <path
       style="fill:#008080;fill-opacity:0.24636727"
       d="M 47.066559,6.2778131 46.86059,5.9226036 47.000409,5.9100042 c 0.0769,-0.00693 0.13982,-0.028551 0.13982,-0.048048 0,-0.019497 0.182218,-0.041229 0.40493,-0.048294 l 0.404931,-0.012845 0.183702,0.3960245 c 0.101036,0.2178135 0.183702,0.4050596 0.183702,0.4161025 0,0.011043 -0.235117,0.020078 -0.522483,0.020078 l -0.522482,0 -0.20597,-0.3552094 z"
       id="path3219"
       inkscape:connector-curvature="0"
       transform="translate(0,1032.3622)" />
    <path
       style="fill:#008080;fill-opacity:0.24636727"
       d="m 47.092007,6.3012987 -0.190306,-0.3380997 0.14971,-0.053436 c 0.08234,-0.02939 0.314959,-0.06382 0.51693,-0.076512 l 0.367219,-0.023076 0.17225,0.3760136 c 0.09474,0.2068074 0.166177,0.382087 0.158754,0.3895101 -0.0074,0.00742 -0.231917,0.024792 -0.498874,0.038598 l -0.485378,0.025101 -0.190305,-0.3380997 z"
       id="path3221"
       inkscape:connector-curvature="0"
       transform="translate(0,1032.3622)" />
    <path
       style="fill:#008080;fill-opacity:0.24636727"
       d="m 46.733075,5.7334548 c -0.0746,-0.096915 -0.15053,-0.196364 -0.168734,-0.2209972 -0.02343,-0.031707 0.0262,-0.039091 0.169907,-0.025282 0.111652,0.010728 0.203004,0.00636 0.203004,-0.0097 0,-0.016065 -0.03828,-0.077759 -0.08507,-0.1370999 l -0.08507,-0.1078915 0.176405,-0.027437 c 0.09702,-0.015091 0.271068,-0.028792 0.386766,-0.030447 0.230713,-0.0033 0.257058,0.019239 0.479527,0.4102429 l 0.09979,0.1753809 -0.394837,0.048221 c -0.21716,0.026521 -0.451361,0.060146 -0.520447,0.074721 -0.11318,0.023878 -0.139031,0.00906 -0.261246,-0.1497091 l 0,0 z"
       id="path3223"
       inkscape:connector-curvature="0"
       transform="translate(0,1032.3622)" />
    <path
       style="fill:#008080;fill-opacity:0.24636727"
       d="m 46.719138,5.6891802 -0.143657,-0.1725303 0.180885,-0.012373 c 0.198445,-0.013574 0.210211,-0.029183 0.119557,-0.1586084 -0.03373,-0.048157 -0.04525,-0.097492 -0.02561,-0.109633 0.01964,-0.012141 0.175956,-0.025695 0.34736,-0.03012 0.352582,-0.0091 0.379192,0.00676 0.569718,0.3396628 l 0.109491,0.1913097 -0.09431,0.019439 c -0.16438,0.033883 -0.72298,0.1053833 -0.823315,0.1053833 -0.06389,0 -0.144975,-0.058262 -0.24012,-0.1725303 z"
       id="path3225"
       inkscape:connector-curvature="0"
       transform="translate(0,1032.3622)" />
    <path
       style="fill:#008080;fill-opacity:0.24636727"
       d="m 47.812731,7.952372 c -0.01466,-0.078146 -0.0416,-0.1420838 -0.05986,-0.1420838 -0.01826,0 -0.09311,-0.1689782 -0.16633,-0.3755072 -0.07322,-0.2065289 -0.176195,-0.4616724 -0.22883,-0.5669856 -0.05264,-0.1053131 -0.0957,-0.2012197 -0.0957,-0.2131257 0,-0.011906 0.238415,-0.021647 0.529811,-0.021647 l 0.529811,0 0.06134,0.146812 c 0.08692,0.208031 0.32451,0.9810709 0.357253,1.1623886 l 0.02749,0.1522326 -0.464168,0 -0.464168,0 -0.02665,-0.1420837 z"
       id="path3227"
       inkscape:connector-curvature="0"
       transform="translate(0,1032.3622)" />
    <path
       style="fill:#008080;fill-opacity:0.24636727"
       d="m 47.83035,8.0116478 c 0,-0.045544 -0.03588,-0.1531387 -0.07973,-0.2390985 -0.06664,-0.1306253 -0.14253,-0.3127811 -0.434189,-1.0421687 -0.01568,-0.039226 0.121032,-0.063306 0.595114,-0.1048166 0.03349,-0.00293 0.137219,-0.00245 0.230506,0.00106 0.166038,0.00626 0.171316,0.010945 0.250342,0.2221615 0.07302,0.1951629 0.290463,0.9270328 0.342958,1.1543273 0.02093,0.090617 0.01743,0.09134 -0.441951,0.09134 -0.438997,0 -0.463046,-0.0043 -0.463046,-0.082808 z"
       id="path3229"
       inkscape:connector-curvature="0"
       transform="translate(0,1032.3622)" />
    <path
       style="fill:#008080;fill-opacity:0.24636727"
       d="m 48.00257,10.156782 c 0.05044,-0.3436458 -0.08894,-1.5716898 -0.236049,-2.0798432 -0.06715,-0.2319366 -0.07148,-0.2798004 -0.0226,-0.2495935 0.01944,0.012017 0.04639,0.077033 0.05988,0.1444796 l 0.02453,0.1226308 0.469136,0 c 0.338136,0 0.474428,0.01417 0.48809,0.050744 0.06175,0.1653204 0.150832,0.9526606 0.16994,1.5020286 l 0.02224,0.6393775 -0.497105,0 -0.497105,0 0.01905,-0.129824 z"
       id="path3231"
       inkscape:connector-curvature="0"
       transform="translate(0,1032.3622)" />
    <path
       style="fill:#008080;fill-opacity:0.24636727"
       d="m 48.007111,9.8296901 c -0.0058,-0.447349 -0.09812,-1.2398978 -0.179773,-1.543343 -0.02267,-0.084243 -0.03267,-0.1670007 -0.02222,-0.1839058 0.02935,-0.047493 0.932127,0.029844 0.964762,0.082647 0.05756,0.093134 0.194915,1.482376 0.19674,1.9898797 l 4.01e-4,0.111638 -0.476995,-2.18e-4 -0.476996,-2.18e-4 -0.0059,-0.4564799 z"
       id="path3233"
       inkscape:connector-curvature="0"
       transform="translate(0,1032.3622)" />
    <path
       style="fill:#008080;fill-opacity:0.24636727"
       d="m 47.895078,12.143844 c 0.04166,-0.314773 0.09261,-1.224687 0.0966,-1.725303 l 0.0011,-0.131935 0.487145,0 0.487144,0 0,0.174216 c 0,0.27724 -0.116408,1.090101 -0.225006,1.571184 -0.05487,0.243054 -0.09976,0.452137 -0.09976,0.46463 0,0.01249 -0.179297,0.02271 -0.398439,0.02271 l -0.398439,0 0.0497,-0.375507 z"
       id="path3235"
       inkscape:connector-curvature="0"
       transform="translate(0,1032.3622)" />
    <path
       style="fill:#008080;fill-opacity:0.24636727"
       d="m 47.886852,12.306225 c 0.06075,-0.51254 0.105211,-1.179532 0.105532,-1.583219 l 3.47e-4,-0.4364 0.487145,0 c 0.310014,0 0.487144,0.01534 0.487144,0.04219 0,0.255402 -0.138711,1.194927 -0.270188,1.830052 l -0.06403,0.309325 -0.244797,0.02559 c -0.134639,0.01407 -0.308161,0.02559 -0.385604,0.02559 l -0.140807,0 0.02526,-0.213126 0,0 z"
       id="path3237"
       inkscape:connector-curvature="0"
       transform="translate(0,1032.3622)" />
    <path
       style="fill:#008080;fill-opacity:0.24636727"
       d="m 47.331862,14.173612 c 0.108624,-0.140638 0.320248,-0.826788 0.475779,-1.542624 l 0.02426,-0.111637 0.384882,0 c 0.211686,0 0.384883,0.01484 0.384883,0.03298 0,0.133651 -0.429866,1.222092 -0.591734,1.4983 l -0.10181,0.173725 -0.307725,0 c -0.240019,0 -0.299101,-0.01117 -0.268531,-0.05074 z"
       id="path3239"
       inkscape:connector-curvature="0"
       transform="translate(0,1032.3622)" />
    <path
       style="fill:#008080;fill-opacity:0.24636727"
       d="m 47.414699,14.19646 c -0.06307,-0.01651 -0.0646,-0.03007 -0.01442,-0.127226 0.07321,-0.141744 0.282966,-0.835247 0.373621,-1.235269 l 0.0713,-0.314614 0.205703,4.47e-4 c 0.31187,6.77e-4 0.510168,0.0427 0.510168,0.108126 0,0.09404 -0.279775,0.817886 -0.471903,1.220925 l -0.179004,0.375507 -0.212435,-0.0047 c -0.116839,-0.0026 -0.2442,-0.01302 -0.283025,-0.02319 z"
       id="path3241"
       inkscape:connector-curvature="0"
       transform="translate(0,1032.3622)" />
    <path
       style="fill:#008080;fill-opacity:0.24636727"
       d=""
       id="path3243"
       inkscape:connector-curvature="0"
       transform="translate(0,1032.3622)" />
    <path
       style="fill:#008080;fill-opacity:0.24636727"
       d=""
       id="path3245"
       inkscape:connector-curvature="0"
       transform="translate(0,1032.3622)" />
    <path
       style="fill:#008080;fill-opacity:0.24636727"
       d="m 45.392502,16.190448 c 0.809299,-0.434476 1.414596,-1.030551 1.786233,-1.759021 0.0458,-0.08978 0.08328,-0.173103 0.08328,-0.185156 0,-0.01205 -0.108715,-0.02191 -0.241589,-0.02191 l -0.241589,0 0.186184,-0.314614 c 0.331129,-0.559538 0.702963,-1.467384 0.76826,-1.87573 0.01957,-0.122364 0.03966,-0.150366 0.09712,-0.135341 0.05884,0.01539 0.06906,0.05068 0.05439,0.187878 -0.04803,0.449398 -0.32342,1.519584 -0.486126,1.889137 -0.05283,0.119998 -0.09606,0.225038 -0.09606,0.233424 0,0.0084 0.137479,0.01525 0.305508,0.01525 l 0.305508,0 -0.06799,0.131935 c -0.246407,0.478177 -0.96201,1.394489 -1.394947,1.786196 l -0.257993,0.233424 -0.571566,-6.79e-4 -0.571566,-6.78e-4 0.342935,-0.184106 z"
       id="path3247"
       inkscape:connector-curvature="0"
       transform="translate(0,1032.3622)" />
    <path
       style="fill:#008080;fill-opacity:0.24636727"
       d="m 45.403078,16.198709 c 0.48367,-0.275632 0.797142,-0.51544 1.13174,-0.86579 0.288632,-0.30222 0.727197,-0.939156 0.727197,-1.056121 0,-0.0365 -0.06786,-0.05244 -0.223275,-0.05244 -0.122801,0 -0.223274,-0.0095 -0.223274,-0.0211 0,-0.01161 0.04377,-0.09044 0.09727,-0.175189 0.268599,-0.425489 0.675385,-1.363219 0.794164,-1.830723 0.0923,-0.363296 0.185909,-0.387904 0.146572,-0.03853 -0.03847,0.34163 -0.312914,1.412764 -0.445733,1.739634 -0.05782,0.142296 -0.105128,0.269691 -0.105128,0.283099 0,0.01341 0.123169,0.02991 0.27371,0.03667 0.15054,0.0068 0.281183,0.01977 0.290317,0.0289 0.02717,0.02717 -0.273103,0.497749 -0.581065,0.910648 -0.158085,0.211952 -0.467855,0.572743 -0.688378,0.801759 l -0.400951,0.416392 -0.552057,0 -0.552057,0 0.310949,-0.177202 z"
       id="path3249"
       inkscape:connector-curvature="0"
       transform="translate(0,1032.3622)" />
    <path
       style="fill:#008080;fill-opacity:0.24636727"
       d="m 25.546053,17.7866 c 0.09452,-0.117219 0.262726,-0.336434 0.3738,-0.487145 l 0.201951,-0.274018 7.434113,-5.9e-4 c 4.445191,-3.52e-4 7.719741,-0.0169 8.144532,-0.04117 1.176518,-0.0672 2.051981,-0.210803 2.801081,-0.459457 l 0.385656,-0.128014 -0.300857,-0.01206 -0.300856,-0.01206 0.372405,-0.211215 c 0.204823,-0.116169 0.484976,-0.293421 0.622561,-0.393895 0.350727,-0.256123 1.034278,-0.941609 1.269958,-1.273552 l 0.198065,-0.278966 0.220455,0.02275 c 0.12125,0.01251 0.229477,0.03177 0.240504,0.0428 0.03155,0.03155 -0.173563,0.385371 -0.394072,0.679761 -0.361395,0.482479 -0.948672,0.964515 -1.583103,1.299406 l -0.182679,0.09643 0.567122,0.0203 0.56712,0.0203 -0.315075,0.236962 c -1.129878,0.849758 -2.13359,1.189797 -3.906711,1.32352 -0.374491,0.02824 -3.323385,0.04304 -8.579225,0.04304 l -8.008593,0 0.171848,-0.213125 z"
       id="path3251"
       inkscape:connector-curvature="0"
       transform="translate(0,1032.3622)" />
    <path
       style="fill:#008080;fill-opacity:0.24636727"
       d="m 25.421707,17.985579 c 0,-0.01518 0.07764,-0.123285 0.17253,-0.240238 0.09489,-0.116953 0.254736,-0.325399 0.35521,-0.463212 l 0.182679,-0.25057 7.956692,-0.01794 c 8.256862,-0.01861 8.154452,-0.01646 9.222767,-0.193849 0.502622,-0.08346 1.46267,-0.337936 1.532976,-0.406341 0.02371,-0.02307 -0.06859,-0.03752 -0.239611,-0.03752 l -0.278176,0 0.542907,-0.334912 c 0.460543,-0.284103 0.620068,-0.412057 1.051518,-0.843415 0.279736,-0.279677 0.581682,-0.612988 0.670992,-0.74069 l 0.162382,-0.232186 0.182679,0.02529 c 0.20117,0.02785 0.243572,0.0441 0.243572,0.09333 0,0.01815 -0.08868,0.168827 -0.197055,0.334849 -0.372781,0.571042 -0.922741,1.077351 -1.601563,1.474446 -0.14946,0.08743 -0.271746,0.173437 -0.271746,0.191125 0,0.01769 0.123309,0.03397 0.274019,0.03618 0.15071,0.0022 0.373926,0.01591 0.496034,0.03045 l 0.222014,0.02643 -0.282907,0.208236 c -1.043843,0.768329 -1.912048,1.086429 -3.413312,1.250596 -0.487937,0.05336 -1.789791,0.06672 -8.778748,0.09009 -4.513219,0.0151 -8.205853,0.01503 -8.205853,-1.5e-4 z"
       id="path3253"
       inkscape:connector-curvature="0"
       transform="translate(0,1032.3622)" />
    <path
       style="fill:#008080;fill-opacity:0.24636727"
       d="m 23.261645,17.737833 c 0.178404,-0.144041 0.433855,-0.363256 0.56767,-0.487144 l 0.243299,-0.225252 0.999309,0 c 0.549621,0 0.99931,0.01017 0.99931,0.02261 0,0.01243 -0.158812,0.23165 -0.352915,0.487144 l -0.352915,0.464535 -1.214064,0 -1.214065,0 0.324371,-0.261892 z"
       id="path3257"
       inkscape:connector-curvature="0"
       transform="translate(0,1032.3622)" />
    <path
       style="fill:#008080;fill-opacity:0.24636727"
       d="m 23.128111,17.86779 c 0.08834,-0.07256 0.34369,-0.291365 0.567436,-0.486224 l 0.406811,-0.354289 0.507442,0.0044 c 0.279093,0.0024 0.712581,0.01572 0.963307,0.02953 l 0.455865,0.02511 -0.334079,0.455633 -0.334079,0.455634 -1.196664,0.0011 -1.196664,0.0011 0.160625,-0.131935 z"
       id="path3259"
       inkscape:connector-curvature="0"
       transform="translate(0,1032.3622)" />
    <path
       style="fill:#008080;fill-opacity:0.24636727"
       d="m 23.02658,17.985321 c 0,-0.0079 0.241311,-0.221867 0.536246,-0.47543 l 0.536245,-0.461026 0.793253,0.01263 c 0.436289,0.0069 0.86028,0.02451 0.942203,0.03903 l 0.148949,0.0264 -0.32149,0.4364 -0.321491,0.4364 -1.156957,0 c -0.636327,0 -1.156958,-0.0065 -1.156958,-0.0144 z"
       id="path3261"
       inkscape:connector-curvature="0"
       transform="translate(0,1032.3622)" />
    <path
       style="fill:#008080;fill-opacity:0.24636727"
       d="m 26.185126,17.960257 -0.718312,-0.02142 0.321763,-0.426251 0.321763,-0.426251 0.254465,-0.0257 c 0.139956,-0.01414 3.360011,-0.02838 7.155678,-0.03164 7.314157,-0.0063 8.715964,-0.03051 9.577516,-0.165415 0.562821,-0.08813 1.408619,-0.294468 1.644616,-0.401216 l 0.144571,-0.06539 -0.256857,-0.02067 -0.256857,-0.02067 0.135071,-0.07764 c 0.763552,-0.438875 1.460628,-1.032372 1.987491,-1.692168 l 0.279785,-0.350378 0.172056,0.03329 c 0.09463,0.01831 0.187493,0.03409 0.20636,0.03506 0.05211,0.0027 -0.164631,0.35484 -0.402498,0.65396 -0.303201,0.381277 -0.704317,0.737929 -1.194728,1.062289 -0.234438,0.15506 -0.43234,0.298566 -0.439783,0.318904 -0.0074,0.02034 0.05649,0.03516 0.142084,0.03293 0.117344,-0.0031 0.133406,-0.01054 0.06531,-0.03045 -0.0773,-0.0226 -0.03638,-0.05949 0.284167,-0.256136 0.407391,-0.249928 0.76793,-0.54821 1.048034,-0.867061 0.23823,-0.271186 0.554816,-0.744724 0.586061,-0.876611 0.02385,-0.100667 0.01564,-0.107089 -0.162558,-0.127174 -0.103222,-0.01164 -0.196417,-0.02989 -0.207101,-0.04058 -0.01068,-0.01068 0.05319,-0.147566 0.141937,-0.304183 0.193354,-0.341215 0.501079,-1.01768 0.574652,-1.263246 0.04829,-0.161163 0.13116,-0.250585 0.183619,-0.198126 0.02914,0.02914 -0.209208,0.976146 -0.351998,1.398575 -0.06535,0.193335 -0.118821,0.363758 -0.118821,0.378716 0,0.01496 0.112695,0.03898 0.250433,0.05337 0.137738,0.0144 0.258592,0.03434 0.268564,0.04431 0.02681,0.02681 -0.502569,0.81646 -0.736138,1.098052 -0.111118,0.133965 -0.357991,0.412551 -0.548607,0.61908 l -0.346575,0.375507 -0.387681,0.0078 c -0.307685,0.0062 -0.333233,0.0106 -0.123811,0.02126 0.359211,0.0183 0.397497,0.03578 0.278787,0.127333 -0.236186,0.182144 -0.730654,0.499577 -1.009503,0.64807 -0.671166,0.357408 -1.590757,0.606229 -2.577806,0.697499 -0.710511,0.0657 -14.40702,0.135393 -16.185147,0.08236 l 0,0 z"
       id="path3263"
       inkscape:connector-curvature="0"
       transform="translate(0,1032.3622)" />
    <path
       style="fill:#008080;fill-opacity:0.24636727"
       d="M 44.278255,3.5902208 C 44.121963,3.5490426 43.921016,3.4871359 43.831706,3.4526502 43.363202,3.2717446 42.501246,3.078077 41.974717,3.0354151 c -0.184339,-0.014936 -0.362563,-0.032243 -0.396054,-0.03846 -0.03349,-0.00622 -3.975887,-0.012701 -8.76088,-0.01441 l -8.699988,-0.00311 -0.220891,-0.2089098 c -0.175449,-0.165932 -0.21134,-0.2204182 -0.174464,-0.2648509 0.05691,-0.068577 0.07359,-0.053572 -0.269608,-0.2425596 l -0.284168,-0.1564801 0.690121,-0.011349 c 0.379567,-0.00624 4.699929,-0.00531 9.600805,0.00208 9.587879,0.014444 9.110288,0.00432 10.015697,0.2122196 0.675866,0.1551887 1.645592,0.5470253 1.959936,0.7919501 0.10136,0.078976 0.100209,0.079077 -0.911366,0.079979 -0.572625,5.103e-4 -0.996092,0.016166 -0.974289,0.03602 0.02121,0.019315 0.257781,0.1127951 0.52571,0.2077348 0.708562,0.2510757 0.794292,0.3207457 0.202977,0.1649525 z"
       id="path3265"
       inkscape:connector-curvature="0"
       transform="translate(0,1032.3622)" />
    <path
       style="fill:#008080;fill-opacity:0.24636727"
       d="M 43.770813,3.420069 C 43.49172,3.3308234 43.09896,3.2212812 42.898013,3.1766419 41.99191,2.9753559 42.199545,2.9794395 32.870974,2.9794395 l -8.731073,0 -0.200297,-0.2033548 C 23.829441,2.6642395 23.738788,2.5359241 23.738153,2.4909393 c -8e-4,-0.056687 -0.07591,-0.1250497 -0.244726,-0.222733 l -0.243572,-0.1409424 9.681995,0.013827 c 10.375722,0.014817 9.863372,0.0048 10.635986,0.2078908 0.564289,0.1483279 1.330246,0.4475373 1.705006,0.666034 l 0.182679,0.1065078 -0.304465,0.025141 c -0.167456,0.013827 -0.604364,0.027528 -0.970906,0.030447 -0.366542,0.00292 -0.652929,0.019007 -0.636415,0.035753 0.01652,0.016746 0.225074,0.107077 0.463464,0.2007366 0.547441,0.21508 0.426355,0.2183941 -0.236386,0.00647 l 0,0 z"
       id="path3267"
       inkscape:connector-curvature="0"
       transform="translate(0,1032.3622)" />
    <path
       style="fill:#008080;fill-opacity:0.24636727"
       d="M 46.23534,5.0525104 C 46.113072,4.907203 46.101222,4.8633257 46.176089,4.8331165 c 0.02791,-0.011262 0.01421,-0.022044 -0.03045,-0.023961 C 46.100987,4.8072388 45.860251,4.6550864 45.610673,4.471039 45.361095,4.2869916 45.004871,4.0406587 44.819064,3.9236324 l -0.337832,-0.212775 0.155616,-3.491e-4 C 44.880793,3.709957 44.801169,3.6248193 44.417416,3.4758805 44.22924,3.4028476 44.039415,3.327932 43.995582,3.3094015 c -0.08403,-0.035526 0.523849,-0.080988 1.227737,-0.09182 0.454371,-0.00699 0.43375,-0.018935 1.217684,0.705183 l 0.538934,0.497811 -0.406031,0.022713 c -0.223317,0.012492 -0.418918,0.035601 -0.43467,0.051352 -0.01575,0.015752 0.03141,0.090593 0.1048,0.1663144 0.117945,0.1216885 0.124694,0.1399263 0.05812,0.1570642 -0.05154,0.013269 -0.04008,0.020876 0.03632,0.024099 0.131808,0.00556 0.137019,-0.021427 0.03045,-0.1576723 -0.04366,-0.055819 -0.07979,-0.1137354 -0.08029,-0.1287038 -0.0015,-0.046153 0.499809,-0.083659 0.635105,-0.047512 0.08878,0.023719 0.190204,0.1146377 0.332439,0.2980021 0.112575,0.1451284 0.191268,0.2773004 0.174875,0.2937155 -0.01639,0.016415 -0.267386,0.04187 -0.557759,0.056566 L 46.345336,5.1832331 46.23534,5.0525104 z"
       id="path3269"
       inkscape:connector-curvature="0"
       transform="translate(0,1032.3622)" />
    <path
       style="fill:#008080;fill-opacity:0.24636727"
       d="m 46.764136,5.7012644 c -0.153581,-0.1449545 -0.16219,-0.1623951 -0.0806,-0.1633018 0.05024,-5.582e-4 0.09134,-0.019283 0.09134,-0.04161 0,-0.022327 -0.03097,-0.040595 -0.06882,-0.040595 -0.07036,0 -0.296538,-0.1915744 -0.296538,-0.2511673 0,-0.01815 0.0703,-0.033 0.156216,-0.033 0.142985,0 0.162418,0.013754 0.22944,0.1623815 0.04027,0.08931 0.08872,0.1623814 0.107654,0.1623814 0.0506,0 0.04192,-0.098062 -0.01361,-0.1535858 -0.07151,-0.071514 -0.03034,-0.089796 0.255385,-0.1133934 0.323378,-0.026707 0.414718,0.018555 0.589219,0.2919739 l 0.132541,0.2076738 -0.373214,0.04767 c -0.205268,0.026219 -0.41458,0.056488 -0.465139,0.067265 -0.06726,0.014337 -0.138064,-0.023953 -0.26387,-0.1426919 l 0,0 z"
       id="path3271"
       inkscape:connector-curvature="0"
       transform="translate(0,1032.3622)" />
    <path
       style="fill:#008080;fill-opacity:0.24636727"
       d="m 48.014228,9.6066332 c -0.05206,-0.558134 -0.107833,-1.0090294 -0.14434,-1.167001 -0.05626,-0.2434262 -0.04802,-0.3370077 0.0315,-0.3577884 0.06766,-0.017681 0.06766,-0.018789 0,-0.023274 -0.03907,-0.00259 -0.07104,-0.032001 -0.07104,-0.065357 0,-0.033356 -0.110904,-0.327391 -0.246454,-0.6534103 -0.135549,-0.3260193 -0.235394,-0.6038219 -0.221877,-0.6173392 0.06599,-0.065989 0.818887,-0.1104433 0.908508,-0.053642 0.07211,0.045704 0.48651,1.3243868 0.443235,1.3676622 -0.0075,0.00749 -0.131686,0.030479 -0.275986,0.051084 -0.221263,0.031594 -0.236132,0.038248 -0.09491,0.042473 0.0921,0.00276 0.223234,0.016166 0.291407,0.029801 0.117397,0.023479 0.126234,0.039039 0.167141,0.2943164 0.05387,0.3361934 0.125011,1.0579822 0.125011,1.2684141 l 0,0.1580802 -0.443318,0 -0.443318,0 -0.02556,-0.2740187 z"
       id="path3273"
       inkscape:connector-curvature="0"
       transform="translate(0,1032.3622)" />
    <path
       style="fill:#008080;fill-opacity:0.24636727"
       d="m 47.271516,6.5807238 c -0.0535,-0.068439 -0.334264,-0.5794557 -0.334264,-0.6083991 0,-0.032974 0.371018,-0.1003602 0.710419,-0.1290304 l 0.284167,-0.024005 0.142084,0.3312702 c 0.07815,0.1821987 0.147824,0.3459728 0.154839,0.3639425 0.02936,0.075203 -0.899963,0.1394932 -0.957245,0.066221 l 0,0 z"
       id="path3275"
       inkscape:connector-curvature="0"
       transform="translate(0,1032.3622)" />
    <path
       style="fill:#008080;fill-opacity:0.24636727"
       d="m 47.667968,14.212808 c 0,-0.02154 -0.06173,-0.0265 -0.142083,-0.01143 -0.07815,0.01466 -0.142084,0.01099 -0.142084,-0.0082 0,-0.01915 0.05547,-0.198091 0.123261,-0.397645 0.330315,-0.972291 0.483,-1.867685 0.484826,-2.843166 4.64e-4,-0.247815 0.01266,-0.590338 0.0271,-0.761163 l 0.02625,-0.3105901 0.440593,0 c 0.403737,0 0.440592,0.00637 0.440592,0.076116 0,0.041864 0.01119,0.1320528 0.02486,0.2004198 0.02437,0.12185 0.02137,0.124614 -0.152232,0.140066 l -0.177093,0.01576 0.167543,0.0071 0.167544,0.0071 -0.01799,0.192828 c -0.01792,0.192039 -0.233412,1.525906 -0.290213,1.796345 l -0.02984,0.142084 -0.282689,0.02156 c -0.289458,0.02208 -0.288692,0.06798 0.0015,0.08865 0.129566,0.0092 0.164845,0.02883 0.174574,0.09696 0.0125,0.08751 -0.209284,0.677447 -0.464894,1.236633 -0.124743,0.272891 -0.15897,0.316252 -0.261516,0.331303 -0.06489,0.0095 -0.117988,1.8e-4 -0.117988,-0.02076 z"
       id="path3277"
       inkscape:connector-curvature="0"
       transform="translate(0,1032.3622)" />
    <path
       style="fill:#008080;fill-opacity:0.24636727"
       d="m 43.141585,16.745923 c 0.391251,-0.113203 0.694933,-0.216653 0.994586,-0.338811 0.110396,-0.045 0.191879,-0.04897 0.365359,-0.01777 l 0.223274,0.04015 -0.304465,0.09852 c -0.369414,0.119539 -1.108498,0.279398 -1.441136,0.311708 -0.235904,0.02291 -0.230793,0.01996 0.162382,-0.0938 z"
       id="path3279"
       inkscape:connector-curvature="0"
       transform="translate(0,1032.3622)" />
    <path
       style="fill:#008080;fill-opacity:0.24636727"
       d="m 30.469046,16.945779 c -2.358526,-0.01229 -4.202877,-0.0376 -4.221918,-0.05792 -0.01972,-0.02105 1.521385,-0.02528 3.69753,-0.01015 2.052238,0.01426 5.632749,0.02926 7.956692,0.03333 2.323943,0.0041 3.92393,0.01981 3.555527,0.03498 -0.76581,0.03154 -4.908109,0.03145 -10.987831,-2.44e-4 z"
       id="path3281"
       inkscape:connector-curvature="0"
       transform="translate(0,1032.3622)" />
    <path
       style="fill:#008080;fill-opacity:0.24636727"
       d=""
       id="path3283"
       inkscape:connector-curvature="0"
       transform="translate(0,1032.3622)" />
  </g>
</svg>
