<?xml version="1.0" encoding="UTF-8" standalone="no"?>
<!-- Created with Inkscape (http://www.inkscape.org/) -->

<svg
   xmlns:osb="http://www.openswatchbook.org/uri/2009/osb"
   xmlns:dc="http://purl.org/dc/elements/1.1/"
   xmlns:cc="http://creativecommons.org/ns#"
   xmlns:rdf="http://www.w3.org/1999/02/22-rdf-syntax-ns#"
   xmlns:svg="http://www.w3.org/2000/svg"
   xmlns="http://www.w3.org/2000/svg"
   xmlns:xlink="http://www.w3.org/1999/xlink"
   xmlns:sodipodi="http://sodipodi.sourceforge.net/DTD/sodipodi-0.dtd"
   xmlns:inkscape="http://www.inkscape.org/namespaces/inkscape"
   width="16"
   height="16"
   id="svg814"
   version="1.1"
   inkscape:version="0.48.3.1 r9886"
   sodipodi:docname="checkbox-checked.svg">
  <defs
     id="defs816">
    <linearGradient
       id="linearGradient3836">
      <stop
         style="stop-color:#1d2026;stop-opacity:1;"
         offset="0"
         id="stop3840" />
      <stop
         style="stop-color:#323947;stop-opacity:1;"
         offset="1"
         id="stop3842" />
    </linearGradient>
    <linearGradient
       id="linearGradient3828">
      <stop
         style="stop-color:#1a1a1c;stop-opacity:1;"
         offset="0"
         id="stop3830" />
      <stop
         style="stop-color:#1a1a1c;stop-opacity:0;"
         offset="1"
         id="stop3832" />
    </linearGradient>
    <linearGradient
       id="linearGradient3799">
      <stop
         style="stop-color:#1a1a1c;stop-opacity:1;"
         offset="0"
         id="stop3801" />
      <stop
         style="stop-color:#1a1a1c;stop-opacity:0.1882353;"
         offset="1"
         id="stop3803" />
    </linearGradient>
    <linearGradient
       id="linearGradient3888">
      <stop
         style="stop-color:#060000;stop-opacity:0;"
         offset="0"
         id="stop3890" />
      <stop
         style="stop-color:#060000;stop-opacity:0;"
         offset="1"
         id="stop3892" />
    </linearGradient>
    <linearGradient
       id="linearGradient3880">
      <stop
         style="stop-color:#1a1a1c;stop-opacity:0.76923078;"
         offset="0"
         id="stop3882" />
      <stop
         style="stop-color:#1a1a1c;stop-opacity:0;"
         offset="1"
         id="stop3884" />
    </linearGradient>
    <linearGradient
       id="linearGradient3790">
      <stop
         style="stop-color:#1b1c1c;stop-opacity:1;"
         offset="0"
         id="stop3792" />
      <stop
         style="stop-color:#1d2026;stop-opacity:1;"
         offset="1"
         id="stop3794" />
    </linearGradient>
    <linearGradient
       id="linearGradient5269">
      <stop
         style="stop-color:#aff1ff;stop-opacity:0.46153846;"
         offset="0"
         id="stop5271" />
      <stop
         id="stop3826"
         offset="0.25"
         style="stop-color:#a1dff8;stop-opacity:0.59607843;" />
      <stop
         id="stop3824"
         offset="0.5"
         style="stop-color:#93cdf1;stop-opacity:0.72941176;" />
      <stop
         style="stop-color:#77aae4;stop-opacity:1;"
         offset="1"
         id="stop5273" />
    </linearGradient>
    <linearGradient
       id="linearGradient5239">
      <stop
         style="stop-color:#84b1f7;stop-opacity:0"
         offset="0"
         id="stop5241" />
      <stop
         id="stop5245"
         offset="1"
         style="stop-color:#84b1f7;stop-opacity:0;" />
    </linearGradient>
    <linearGradient
       id="linearGradient3771"
       osb:paint="gradient">
      <stop
         style="stop-color:#1a1a1c;stop-opacity:1;"
         offset="0"
         id="stop3773" />
      <stop
         style="stop-color:#1a1a1c;stop-opacity:0;"
         offset="1"
         id="stop3775" />
    </linearGradient>
    <linearGradient
       inkscape:collect="always"
       xlink:href="#linearGradient10354-2"
       id="linearGradient8378"
       gradientUnits="userSpaceOnUse"
       gradientTransform="translate(-1609.9926,-78.958432)"
       x1="1205.5752"
       y1="-186.45331"
       x2="1205.5752"
       y2="-202.34555" />
    <linearGradient
       id="linearGradient10354-2"
       inkscape:collect="always">
      <stop
         id="stop10356-2"
         offset="0"
         style="stop-color:#acbbcd;stop-opacity:1" />
      <stop
         id="stop10358-2"
         offset="1"
         style="stop-color:#e8e6df;stop-opacity:1" />
    </linearGradient>
    <linearGradient
       inkscape:collect="always"
       xlink:href="#linearGradient10332-5"
       id="linearGradient8380"
       gradientUnits="userSpaceOnUse"
       gradientTransform="matrix(0.84941206,0,0,0.84794288,-623.98415,-483.16392)"
       x1="260.92538"
       y1="233.77748"
       x2="260.92538"
       y2="248.97633" />
    <linearGradient
       inkscape:collect="always"
       id="linearGradient10332-5">
      <stop
         style="stop-color:#9fcecc;stop-opacity:1"
         offset="0"
         id="stop10334-5" />
      <stop
         style="stop-color:#82e6c2;stop-opacity:1"
         offset="1"
         id="stop10336-29" />
    </linearGradient>
    <linearGradient
       inkscape:collect="always"
       xlink:href="#linearGradient5269"
       id="linearGradient5267"
       x1="-403.91309"
       y1="278.97839"
       x2="-403.96631"
       y2="284.28183"
       gradientUnits="userSpaceOnUse"
       spreadMethod="reflect" />
    <linearGradient
       inkscape:collect="always"
       xlink:href="#linearGradient5269"
       id="linearGradient5275"
       gradientUnits="userSpaceOnUse"
       spreadMethod="reflect"
       x1="-403.91309"
       y1="278.97839"
       x2="-403.96631"
       y2="284.28183" />
    <linearGradient
       inkscape:collect="always"
       xlink:href="#linearGradient5269"
       id="linearGradient3017"
       gradientUnits="userSpaceOnUse"
       spreadMethod="reflect"
       x1="-403.91309"
       y1="278.97839"
       x2="-403.96631"
       y2="284.28183"
       gradientTransform="matrix(1.1428423,0,0,1.1428423,468.66929,1363.6738)" />
    <linearGradient
       inkscape:collect="always"
       xlink:href="#linearGradient5269"
       id="linearGradient3823"
       gradientUnits="userSpaceOnUse"
       gradientTransform="matrix(1.1428423,0,0,1.1428423,468.66929,1363.6738)"
       spreadMethod="reflect"
       x1="-403.91309"
       y1="278.97839"
       x2="-403.96631"
       y2="284.28183" />
    <linearGradient
       inkscape:collect="always"
       xlink:href="#linearGradient5269"
       id="linearGradient3025"
       gradientUnits="userSpaceOnUse"
       gradientTransform="matrix(1.1428423,0,0,1.1428423,468.66929,1363.6738)"
       spreadMethod="reflect"
       x1="-403.91309"
       y1="278.97839"
       x2="-403.96631"
       y2="284.28183" />
    <linearGradient
       inkscape:collect="always"
       xlink:href="#linearGradient3790"
       id="linearGradient3027"
       gradientUnits="userSpaceOnUse"
       x1="6.2003608"
       y1="1042.582"
       x2="6.2433648"
       y2="1050.5906" />
    <linearGradient
       inkscape:collect="always"
       xlink:href="#linearGradient5269"
       id="linearGradient3029"
       gradientUnits="userSpaceOnUse"
       gradientTransform="matrix(1.1428423,0,0,1.1428423,468.66929,1363.6738)"
       spreadMethod="reflect"
       x1="-403.91309"
       y1="278.97839"
       x2="-403.96631"
       y2="284.28183" />
    <linearGradient
       inkscape:collect="always"
       xlink:href="#linearGradient3790"
       id="linearGradient3031"
       gradientUnits="userSpaceOnUse"
       x1="6.2003608"
       y1="1042.582"
       x2="6.2433648"
       y2="1050.5906" />
    <linearGradient
       inkscape:collect="always"
       xlink:href="#linearGradient5269"
       id="linearGradient3020"
       gradientUnits="userSpaceOnUse"
       gradientTransform="matrix(1.1428423,0,0,1.1428423,468.66929,1363.6738)"
       spreadMethod="reflect"
       x1="-403.91309"
       y1="278.97839"
       x2="-403.96631"
       y2="284.28183" />
    <linearGradient
       inkscape:collect="always"
       xlink:href="#linearGradient3790"
       id="linearGradient3022"
       gradientUnits="userSpaceOnUse"
       x1="6.2003608"
       y1="1042.582"
       x2="6.2433648"
       y2="1050.5906" />
    <linearGradient
       inkscape:collect="always"
       xlink:href="#linearGradient5269"
       id="linearGradient3067"
       gradientUnits="userSpaceOnUse"
       gradientTransform="matrix(1.1428423,0,0,1.1428423,470.57378,1363.6738)"
       spreadMethod="reflect"
       x1="-403.91309"
       y1="278.97839"
       x2="-403.96631"
       y2="284.28183" />
    <linearGradient
       inkscape:collect="always"
       xlink:href="#linearGradient3790"
       id="linearGradient3069"
       gradientUnits="userSpaceOnUse"
       x1="6.2003608"
       y1="1042.582"
       x2="6.2433648"
       y2="1050.5906"
       gradientTransform="translate(1.9044932,0)" />
    <linearGradient
       inkscape:collect="always"
       xlink:href="#linearGradient3790"
       id="linearGradient3023"
       gradientUnits="userSpaceOnUse"
       gradientTransform="matrix(1.0300707,0,0,1.0318549,0.81343925,-33.328044)"
       x1="6.2003608"
       y1="1042.582"
       x2="6.2433648"
       y2="1050.5906" />
    <linearGradient
       inkscape:collect="always"
       xlink:href="#linearGradient3880"
       id="linearGradient3886"
       x1="7"
       y1="1052.3622"
       x2="7"
       y2="1037.3622"
       gradientUnits="userSpaceOnUse"
       gradientTransform="matrix(1.0067172,0,0,1.0067169,-0.05373575,-7.0146132)" />
    <linearGradient
       inkscape:collect="always"
       xlink:href="#linearGradient3888"
       id="linearGradient3894"
       x1="9"
       y1="1052.3622"
       x2="9"
       y2="1037.3622"
       gradientUnits="userSpaceOnUse" />
    <linearGradient
       inkscape:collect="always"
       xlink:href="#linearGradient3836"
       id="linearGradient3834"
       x1="4"
       y1="1037.3622"
       x2="4"
       y2="1051.3622"
       gradientUnits="userSpaceOnUse" />
  </defs>
  <sodipodi:namedview
     id="base"
     pagecolor="#e8e6df"
     bordercolor="#666666"
     borderopacity="1.0"
     inkscape:pageopacity="0.0"
     inkscape:pageshadow="2"
     inkscape:zoom="19.508927"
     inkscape:cx="3.349613"
     inkscape:cy="8.3956151"
     inkscape:document-units="px"
     inkscape:current-layer="layer1"
     showgrid="true"
     borderlayer="true"
     inkscape:showpageshadow="false"
     inkscape:window-width="1293"
     inkscape:window-height="714"
     inkscape:window-x="69"
     inkscape:window-y="24"
     inkscape:window-maximized="0">
    <inkscape:grid
       type="xygrid"
       id="grid4084"
       empspacing="5"
       visible="true"
       enabled="true"
       snapvisiblegridlinesonly="true" />
  </sodipodi:namedview>
  <metadata
     id="metadata819">
    <rdf:RDF>
      <cc:Work
         rdf:about="">
        <dc:format>image/svg+xml</dc:format>
        <dc:type
           rdf:resource="http://purl.org/dc/dcmitype/StillImage" />
        <dc:title />
      </cc:Work>
    </rdf:RDF>
  </metadata>
  <g
     inkscape:label="Layer 1"
     inkscape:groupmode="layer"
     id="layer1"
     transform="translate(0,-1036.3622)">
    <rect
       style="fill:#e8e6df;fill-opacity:0.08627451;fill-rule:nonzero;stroke:none"
       id="rect3046"
       width="14"
       height="12.54926"
       x="1"
       y="1039.813"
       rx="2.5492117"
       ry="2.5492117" />
    <rect
       ry="1.8992853"
       rx="1.8960006"
       y="1037.8627"
       x="1.5004224"
       height="12.999155"
       width="12.999156"
       id="rect6506"
       style="color:#1a1a1c;fill:url(#linearGradient3834);fill-opacity:1;fill-rule:nonzero;stroke:url(#linearGradient3023);stroke-width:1.00084459999999997;stroke-miterlimit:4;stroke-opacity:1;stroke-dasharray:none;marker:none;visibility:visible;display:inline;overflow:visible;enable-background:accumulate" />
    <path
       style="fill:none;stroke:#a9bdd5;stroke-width:1.18779086999999994px;stroke-linecap:butt;stroke-linejoin:miter;stroke-opacity:1"
       d="M 14.533916,1036.2494 8,1045.3622 l -3.148876,-3.398"
       id="path3807"
       inkscape:connector-curvature="0" />
    <path
       style="fill:none;stroke:#9fb8d5;stroke-width:1.20874452999999993px;stroke-linecap:butt;stroke-linejoin:miter;stroke-opacity:1"
       d="m 15.251757,1036.5641 -7.1426434,10.1066 -4.0030205,-4.3314"
       id="path3809"
       inkscape:connector-curvature="0" />
    <path
       style="fill:none;stroke:#1a1a1c;stroke-width:1.01102995999999989px;stroke-linecap:butt;stroke-linejoin:miter;stroke-opacity:0.06666667"
       d="m 3.0110602,1038.8622 8.1774508,0"
       id="path3846"
       inkscape:connector-curvature="0" />
    <path
       style="fill:none;stroke:#1a1a1c;stroke-width:1.02691698px;stroke-linecap:butt;stroke-linejoin:miter;stroke-opacity:0.07843137"
       d="m 2.5,1049.9355 0,-10.5457"
       id="path3036"
       inkscape:connector-curvature="0" />
    <path
       style="fill:none;stroke:#1a1a1c;stroke-width:1.02691698px;stroke-linecap:butt;stroke-linejoin:miter;stroke-opacity:0.07843137"
       d="m 13.500458,1050.3622 0,-10.5457"
       id="path3036-8"
       inkscape:connector-curvature="0" />
    <path
       style="fill:none;stroke:#e8e6df;stroke-width:1.65843045999999994px;stroke-linecap:butt;stroke-linejoin:miter;stroke-opacity:0"
       d="m 3.5196031,1049.2126 8.9642849,0"
       id="path3846-3"
       inkscape:connector-curvature="0" />
    <path
       style="fill:#008080;fill-opacity:0.24636727"
       d="m 2.0271415,8.1938586 0,-2.7423343 0.4869566,0 0.4869565,0 0,-1.2045768 0,-1.2045767 -0.4613273,0 c -0.25373,0 -0.4613272,-0.012452 -0.4613272,-0.027671 0,-0.051586 0.2010362,-0.4074085 0.2929934,-0.518582 0.1154292,-0.1395503 0.4677634,-0.3764012 0.5599262,-0.3764012 0.053338,0 0.069735,0.102446 0.069735,0.435698 l 0,0.435698 4.1006869,0 4.1006865,0 0,-0.4869566 0,-0.4869566 0.518862,0 c 0.40717,0 0.508267,0.013793 0.46964,0.064073 -0.02707,0.03524 -0.656715,0.9117621 -1.399204,1.9478262 l -1.3499814,1.8837531 -1.7299685,0 -1.7299692,0 L 5.6629153,5.5540415 C 5.487525,5.3566959 5.3193414,5.1952314 5.2891741,5.1952314 c -0.030167,0 -0.1656104,0.1090953 -0.3009848,0.242434 C 4.7641666,5.6583196 4.7323653,5.6740487 4.6342067,5.6127476 4.5371911,5.5521604 4.5074617,5.5638488 4.3382048,5.7291237 l -0.1881544,0.1837279 -0.5407327,0 -0.5407327,0 -0.033631,1.0379863 c -0.018497,0.5708925 -0.033691,1.7011443 -0.033765,2.5116707 l -1.346e-4,1.4736844 -0.4869565,0 -0.4869566,0 0,-2.7423344 z"
       id="path3044"
       inkscape:connector-curvature="0"
       transform="translate(0,1036.3622)" />
    <path
       style="fill:#008080;fill-opacity:0.24636727"
       d="M 2.9918777,2.5342882 2.9754253,2.0774643 3.1548304,2.0478958 c 0.098673,-0.016263 1.9497484,-0.029822 4.1135015,-0.030133 l 3.9340961,-5.642e-4 0,0.4869566 0,0.4869566 -4.0970487,0 -4.0970491,0 -0.016453,-0.456824 0,0 z"
       id="path3046"
       inkscape:connector-curvature="0"
       transform="translate(0,1036.3622)" />
    <path
       style="fill:#008080;fill-opacity:0.24636727"
       d="m 2.0271415,4.3280277 c 0,-0.6179231 0.014001,-1.1599826 0.031113,-1.2045767 0.025144,-0.065524 0.1185727,-0.08108 0.4869565,-0.08108 l 0.4558432,0 0,1.2045767 0,1.2045768 -0.4869565,0 -0.4869566,0 0,-1.1234966 z"
       id="path3048"
       inkscape:connector-curvature="0"
       transform="translate(0,1036.3622)" />
    <path
       style="fill:#008080;fill-opacity:0.24636727"
       d="m 12.978727,13.28604 c -0.01843,-0.342733 -0.03351,-0.815593 -0.03351,-1.050801 l 0,-0.42765 -4.9464533,0 -4.9464535,0 0,0.504852 c 0,0.277669 -0.014918,0.68133 -0.033151,0.897025 l -0.033151,0.392173 -0.2698442,0 c -0.2378334,0 -0.2854364,-0.01853 -0.4012833,-0.156206 -0.1768135,-0.210131 -0.2877427,-0.608 -0.2877427,-1.032044 l 0,-0.349507 0.4869566,0 0.4869565,0 0,-1.145018 c 0,-0.62976 0.015223,-1.7023457 0.033828,-2.3835243 l 0.033828,-1.2385063 0.6996602,0 0.6996602,0 1.8418287,1.9990848 c 1.0130057,1.0994968 1.8535542,1.9980748 1.8678851,1.9968398 0.014331,-0.0012 0.6579147,-0.900823 1.4301858,-1.9990849 l 1.4041294,-1.9968397 0.958476,0 0.958475,0 0.03359,0.9610985 c 0.01847,0.5286041 0.03365,1.60119 0.03373,2.3835241 l 1.45e-4,1.422426 0.486956,0 0.486957,0 0,0.382517 c 0,0.484055 -0.134785,0.862083 -0.396924,1.113238 -0.160525,0.153799 -0.463457,0.349554 -0.540937,0.349554 -0.01116,0 -0.03538,-0.280418 -0.0538,-0.623151 z"
       id="path3050"
       inkscape:connector-curvature="0"
       transform="translate(0,1036.3622)" />
    <path
       style="fill:#008080;fill-opacity:0.24636727"
       d="M 3.0528773,6.7970622 C 3.0531876,6.522188 3.0677388,6.2107921 3.0852134,6.1050713 l 0.031772,-0.1922197 0.5047338,0 0.5047338,0 -0.2295184,0.2115626 C 3.7706995,6.2407737 3.6674162,6.3636179 3.6674162,6.3974013 c 0,0.033783 0.059994,0.1173446 0.1333198,0.1856914 0.073326,0.068347 0.2486059,0.2568985 0.3895111,0.4190038 l 0.2561914,0.2947369 -0.6970627,0 -0.6970626,0 5.641e-4,-0.4997712 z"
       id="path3052"
       inkscape:connector-curvature="0"
       transform="translate(0,1036.3622)" />
    <path
       style="fill:#008080;fill-opacity:0.24636727"
       d="m 6.9760111,6.9768879 -0.9621126,-1.038407 1.679443,-0.013525 c 0.9236937,-0.00744 1.6894174,-0.00355 1.7016081,0.00864 0.015461,0.015461 -1.2045822,1.7601657 -1.4464427,2.0684638 -0.00571,0.00728 -0.4433338,-0.4540479 -0.9724958,-1.0251717 l 0,0 z"
       id="path3054"
       inkscape:connector-curvature="0"
       transform="translate(0,1036.3622)" />
    <path
       style="fill:#008080;fill-opacity:0.24636727"
       d="m 12.996479,7.6124895 c 0,-0.9258858 -0.01363,-1.9927052 -0.03029,-2.3707096 L 12.93591,4.554499 13.432979,3.8625081 c 0.273389,-0.380595 0.506147,-0.7016019 0.517241,-0.7133486 0.0111,-0.011747 0.02017,1.3664685 0.02017,3.0627005 l 0,3.0840582 -0.486957,0 -0.486956,0 0,-1.6834287 z"
       id="path3056"
       inkscape:connector-curvature="0"
       transform="translate(0,1036.3622)" />
    <path
       style="fill:#008080;fill-opacity:0.24636727"
       d="m 12.94522,7.612928 0,-0.3160946 -0.952555,0 c -0.533839,0 -0.945045,-0.020015 -0.935469,-0.045533 0.0094,-0.025043 0.43228,-0.633028 0.93974,-1.3510771 l 0.922655,-1.3055438 0.03364,1.645814 c 0.0185,0.9051976 0.02427,1.6554249 0.01281,1.6671717 C 12.954592,7.9194116 12.94522,7.78678 12.94522,7.612928 z"
       id="path3058"
       inkscape:connector-curvature="0"
       transform="translate(0,1036.3622)" />
    <path
       style="fill:#008080;fill-opacity:0.24636727"
       d="m 12.996479,10.6799 0,-1.3839818 0.486956,0 0.486957,0 0,1.3839818 0,1.383982 -0.486957,0 -0.486956,0 0,-1.383982 z"
       id="path3060"
       inkscape:connector-curvature="0"
       transform="translate(0,1036.3622)" />
    <path
       style="fill:#008080;fill-opacity:0.24636727"
       d="m 2.815116,13.837071 c -0.3670629,-0.170913 -0.3890102,-0.235432 -0.080086,-0.235432 0.2520856,0 0.2526773,-3.99e-4 0.2843832,-0.192219 0.017475,-0.105721 0.032026,-0.509382 0.032336,-0.897026 l 5.641e-4,-0.704805 4.9390395,0 4.9390393,0 0.02749,1.037986 c 0.01512,0.570893 0.0171,1.055286 0.0044,1.076431 -0.01271,0.02114 -2.241879,0.03822 -4.9537169,0.03794 L 3.0779425,13.959448 2.815116,13.837071 z"
       id="path3062"
       inkscape:connector-curvature="0"
       transform="translate(0,1036.3622)" />
    <path
       style="fill:#008080;fill-opacity:0.24636727"
       d="m 2.0271415,11.500037 0,-0.563844 0.4869566,0 0.4869565,0 0,0.563844 0,0.563845 -0.4869565,0 -0.4869566,0 0,-0.563845 z"
       id="path3064"
       inkscape:connector-curvature="0"
       transform="translate(0,1036.3622)" />
    <path
       style="fill:#00ffff;fill-opacity:0.24636727"
       d="M 5.9275332,8.796147 3.7123652,6.3998081 4.1322127,5.9991551 4.5520602,5.5985027 4.8160788,5.8710087 c 0.1452102,0.1498785 0.9302566,0.9941731 1.7445475,1.8762093 0.8142909,0.8820367 1.4972829,1.5855608 1.51776,1.5633868 0.020477,-0.022173 1.4944639,-2.1047554 3.2755267,-4.6279593 1.781062,-2.5232039 3.280951,-4.63116886 3.333086,-4.68436662 0.0927,-0.09459101 0.104948,-0.0895294 0.555601,0.22961259 l 0.460812,0.32633577 -0.08944,0.12919752 c -0.04919,0.0710587 -0.510402,0.72315634 -1.024908,1.44910614 l -0.935467,1.3199085 -0.354187,0 -0.354188,0 0,0.5039915 0,0.5039915 -2.370709,3.3633205 C 9.2706204,9.6735695 8.1900536,11.188284 8.1732512,11.189775 8.1564488,11.191266 7.1458756,10.114133 5.9275332,8.796147 z"
       id="path3066"
       inkscape:connector-curvature="0"
       transform="translate(0,1036.3622)" />
    <path
       style="fill:#00ffff;fill-opacity:0.24636727"
       d="M 6.5830929,9.459511 C 5.7232724,8.5378642 4.7348561,7.4766721 4.3866121,7.101306 L 3.7534413,6.418822 4.1320292,6.0376903 C 4.3402526,5.8280678 4.527016,5.6565586 4.5470589,5.6565586 c 0.020043,0 0.5039307,0.5016934 1.0753061,1.1148743 2.4052001,2.5811794 2.4126914,2.5886144 2.5063198,2.4874484 0.046377,-0.05011 0.5072134,-0.690835 1.0240813,-1.4238328 2.4248829,-3.4388571 5.4551479,-7.69868399 5.5405129,-7.78863409 0.09345,-0.09847228 0.100788,-0.09570699 0.533062,0.20095134 0.241069,0.16543868 0.431928,0.3168036 0.424131,0.33636649 -0.0078,0.0195629 -0.46397,0.67226536 -1.013718,1.45044986 l -0.999543,1.414881 -0.345995,0.00169 -0.345996,0.00169 0,0.4854676 0,0.4854675 -1.23778,1.7570956 C 10.023271,8.5712382 8.2260778,11.085991 8.1823441,11.113019 8.1625764,11.125237 7.4429133,10.381158 6.5830929,9.459511 l 0,0 z"
       id="path3068"
       inkscape:connector-curvature="0"
       transform="translate(0,1036.3622)" />
    <path
       style="fill:#00ffff;fill-opacity:0.24636727"
       d="M 7.4805603,10.359534 C 6.9122036,9.7838723 4.2079255,6.8964777 3.9012828,6.5378906 L 3.8019686,6.421753 4.156201,6.0647851 C 4.3510288,5.8684529 4.5267773,5.7078172 4.5467531,5.7078172 c 0.019976,0 0.8129063,0.8197806 1.7620678,1.8217348 1.4139132,1.4925552 1.73889,1.8108279 1.7984769,1.7613752 0.068219,-0.056617 0.9359682,-1.268834 3.9042072,-5.4540484 2.016059,-2.84264279 2.698812,-3.78391287 2.759082,-3.80378223 0.06334,-0.02088125 0.84008,0.48227502 0.84008,0.54418591 0,0.0215416 -0.445648,0.67149772 -0.990329,1.44434702 l -0.990329,1.4051807 -0.342394,0.015157 -0.342395,0.015157 0,0.4625644 c 0,0.4368114 -0.0092,0.4759205 -0.164678,0.7024635 -1.047463,1.5259233 -4.5533193,6.4165586 -4.5997155,6.4165586 -0.01634,0 -0.3314594,-0.305629 -0.7002662,-0.679176 z"
       id="path3070"
       inkscape:connector-curvature="0"
       transform="translate(0,1036.3622)" />
    <path
       style="fill:#00ffff;fill-opacity:0.24636727"
       d="M 7.2750576,10.102176 C 6.0816866,8.881265 3.901658,6.5322783 3.8815279,6.4456384 3.8665224,6.3810547 4.4669211,5.7590758 4.5442695,5.7590758 c 0.017959,0 0.7997594,0.7957896 1.7373346,1.7684212 0.9375753,0.9726317 1.7361353,1.7684212 1.774578,1.7684212 0.08945,0 0.2511376,-0.2209014 3.3737729,-4.6093252 2.957547,-4.15641469 3.293572,-4.61722022 3.366936,-4.61722022 0.08372,0 0.762517,0.45392347 0.762517,0.50990996 0,0.0419918 -0.461827,0.72020376 -1.771897,2.60210386 -0.118643,0.1704287 -0.182689,0.2164322 -0.304076,0.218413 -0.08458,0.00138 -0.236997,0.016275 -0.338712,0.0331 l -0.184936,0.03059 -0.03254,0.4584834 c -0.0179,0.2521658 -0.05763,0.505352 -0.08829,0.5626359 -0.102962,0.1923877 -3.6450707,5.1737858 -4.5055007,6.3362525 -0.067818,0.09162 -0.1390081,0.166591 -0.1581994,0.166591 -0.019191,0 -0.4242815,-0.398374 -0.9002003,-0.885276 z"
       id="path3072"
       inkscape:connector-curvature="0"
       transform="translate(0,1036.3622)" />
    <path
       style="fill:#00ffff;fill-opacity:0.24636727"
       d="m 12.996479,3.9251721 0,-0.4727327 0.333752,0 0.333751,0 -0.248276,0.3459955 c -0.136552,0.1902975 -0.28674,0.4030272 -0.333752,0.4727326 -0.08278,0.122737 -0.08547,0.1118163 -0.08547,-0.3459954 z"
       id="path3074"
       inkscape:connector-curvature="0"
       transform="translate(0,1036.3622)" />
    <path
       style="fill:#00ffff;fill-opacity:0.24636727"
       d="m 13.028786,4.1059864 c -0.017,-0.063433 -0.03122,-0.2364302 -0.03161,-0.3844394 l -7e-4,-0.2691076 0.310576,0 c 0.23429,0 0.301366,0.015738 0.273076,0.064073 -0.06851,0.117051 -0.489877,0.7048055 -0.505285,0.7048055 -0.0083,0 -0.02906,-0.051899 -0.04606,-0.1153318 z"
       id="path3076"
       inkscape:connector-curvature="0"
       transform="translate(0,1036.3622)" />
    <path
       style="fill:#00ffff;fill-opacity:0.24636727"
       d="m 13.047292,4.0913411 c -2.45e-4,-0.055378 -0.01499,-0.2217849 -0.03277,-0.3697941 l -0.03232,-0.2691076 0.17373,7e-4 c 0.09555,3.849e-4 0.225621,0.014606 0.289043,0.031603 0.113781,0.030492 0.112816,0.034398 -0.07265,0.2940369 -0.281204,0.3936607 -0.324484,0.4352806 -0.325027,0.3125622 z"
       id="path3078"
       inkscape:connector-curvature="0"
       transform="translate(0,1036.3622)" />
    <path
       style="fill:#00ffff;fill-opacity:0.24636727"
       d="M 7.4772933,8.6687602 C 6.8606427,8.0420753 4.7780007,5.818199 4.7558747,5.762789 4.7483941,5.7440555 4.8670375,5.6210144 5.0195267,5.4893649 L 5.2967798,5.2500022 6.5965147,6.6572313 c 0.7148542,0.773976 1.3226578,1.3998694 1.3506746,1.3908751 0.054797,-0.017592 0.4538173,-0.569038 3.8075447,-5.2620286 1.198738,-1.6774372 2.209457,-3.082398 2.246042,-3.1221351 0.05656,-0.0614383 0.109122,-0.0429059 0.351247,0.1238519 0.156602,0.10785565 0.284731,0.20384159 0.284731,0.21330209 0,0.0094605 -0.650594,0.9340476 -1.445764,2.05463801 C 12.39582,3.1763251 10.929409,5.24649 9.932299,6.6561011 8.9351888,8.0657122 8.1027427,9.2251388 8.0824189,9.2326047 8.062095,9.240071 7.7897885,8.986341 7.4772933,8.6687602 z"
       id="path3080"
       inkscape:connector-curvature="0"
       transform="translate(0,1036.3622)" />
    <path
       style="fill:#00ffff;fill-opacity:0.24636727"
       d="M 7.355088,8.4885955 C 6.5598082,7.6804255 5.8915674,6.9766466 5.2314773,6.2520486 L 4.7708243,5.7463775 5.0185875,5.5220633 C 5.1548572,5.39869 5.2814188,5.2996128 5.2998354,5.3018907 5.3182521,5.3041666 5.6866341,5.6905308 6.118462,6.1604721 6.55029,6.6304138 7.1343237,7.257108 7.4163147,7.5531263 L 7.9290255,8.0913415 8.0789178,7.9142441 C 8.1613585,7.816841 8.7099624,7.0671842 9.2980376,6.24834 9.886113,5.4294964 11.191074,3.6119818 12.197952,2.2094187 c 1.006877,-1.40256301 1.848226,-2.5501146 1.869663,-2.5501146 0.05818,0 0.517988,0.31190085 0.517198,0.35082588 C 14.58348,0.07582314 8.1233245,9.1866298 8.0749679,9.191015 8.0604941,9.1923272 7.7365481,8.8762386 7.355088,8.4885955 z"
       id="path3082"
       inkscape:connector-curvature="0"
       transform="translate(0,1036.3622)" />
    <path
       style="fill:#00ffff;fill-opacity:0.24636727"
       d="M 7.1489688,9.9250184 C 5.5132197,8.2612632 3.9237092,6.5385062 3.9237092,6.429389 c 0,-0.084236 0.5119054,-0.6190546 0.5925323,-0.6190546 0.035792,0 0.8325713,0.7842564 1.7706215,1.7427919 0.9380502,0.9585356 1.7347726,1.7427919 1.7704944,1.7427919 0.091575,0 0.3407838,-0.3388064 3.2990296,-4.4851262 2.562121,-3.5911053 3.335612,-4.65489449 3.424612,-4.70989963 0.05422,-0.03351088 0.67507,0.36802368 0.710074,0.45924093 0.01418,0.036945 -0.12394,0.29339974 -0.306926,0.5698995 -0.583572,0.8818015 -1.473355,2.1408025 -1.559821,2.2070748 -0.04598,0.03524 -0.165687,0.064388 -0.266019,0.064773 -0.382659,0.00147 -0.401553,0.020815 -0.442016,0.4526122 -0.02021,0.2156777 -0.05441,0.4537274 -0.076,0.5289994 -0.06369,0.222081 -4.5178247,6.4973626 -4.6400404,6.5372006 -0.030143,0.0098 -0.5032215,-0.438228 -1.0512848,-0.9956746 l 0,0 z"
       id="path3084"
       inkscape:connector-curvature="0"
       transform="translate(0,1036.3622)" />
    <path
       style="fill:#00ffff;fill-opacity:0.24636727"
       d="M 7.6368795,10.382608 C 6.9952884,9.7639691 5.1358762,7.8185294 4.4716755,7.0709635 4.1984862,6.7634852 3.9749677,6.4734698 3.9749677,6.4264841 c 0,-0.046985 0.1205086,-0.2053065 0.2677969,-0.3518246 L 4.5105614,5.808263 6.2549387,7.5520904 c 0.9594075,0.9591055 1.7709811,1.7438278 1.803497,1.7438278 0.091843,0 0.3757135,-0.3839519 3.2212803,-4.3569798 2.747985,-3.8367835 3.177813,-4.43042437 3.393232,-4.68643508 l 0.126526,-0.15036774 0.171524,0.0923718 c 0.09434,0.0508045 0.248024,0.15746044 0.341523,0.23701316 L 15.48252,0.5761619 15.348543,0.82253856 C 15.198559,1.0983511 14.434239,2.2203489 13.936304,2.8956595 13.610685,3.3372717 13.52496,3.3983902 13.227142,3.4012658 c -0.08458,8.166e-4 -0.180748,0.018643 -0.213714,0.039614 -0.03297,0.020971 -0.08645,0.2339817 -0.118858,0.473357 -0.06878,0.5080504 -0.08206,0.5333308 -0.901732,1.7166924 -1.639976,2.3676239 -3.7323954,5.2564337 -3.8037246,5.2514497 -0.020114,-0.0014 -0.2686192,-0.226303 -0.5522339,-0.499771 l 0,0 z"
       id="path3086"
       inkscape:connector-curvature="0"
       transform="translate(0,1036.3622)" />
    <path
       style="fill:#00ffff;fill-opacity:0.24636727"
       d="M 7.1606787,9.8785607 C 5.5248092,8.2236635 3.9749677,6.5415709 3.9749677,6.4210077 c 0,-0.064424 0.4693501,-0.5594147 0.5304376,-0.5594147 0.032786,0 0.832075,0.7727232 1.7761988,1.7171626 0.9441239,0.9444395 1.7442988,1.7171626 1.7781667,1.7171626 0.095483,0 0.5101094,-0.5597448 3.5208502,-4.7531389 1.542962,-2.1490547 2.897582,-4.0240099 3.010267,-4.16656712 l 0.204882,-0.25919492 0.196251,0.1102994 c 0.107938,0.0606647 0.259594,0.1608071 0.337013,0.22253872 l 0.140762,0.11223931 -0.09105,0.17652239 C 15.190053,1.1044205 13.926834,2.9322312 13.671853,3.208396 c -0.09177,0.099397 -0.199911,0.1497195 -0.370308,0.1723234 -0.132374,0.01756 -0.263073,0.046647 -0.290441,0.064638 -0.02737,0.017991 -0.08695,0.2374795 -0.13241,0.4877522 -0.09638,0.5306362 -0.138086,0.6064327 -1.050012,1.9082953 C 9.6486596,8.9535965 8.3108407,10.783218 8.1858504,10.823396 8.1463971,10.836078 7.7056323,10.429853 7.1606787,9.8785607 l 0,0 z"
       id="path3088"
       inkscape:connector-curvature="0"
       transform="translate(0,1036.3622)" />
    <path
       style="fill:#00ffff;fill-opacity:0.24636727"
       d="M 7.6837484,10.382933 C 6.8379903,9.5827741 4.4184968,7.0223298 4.1240583,6.6158692 L 3.9776613,6.413774 4.1640852,6.1862685 C 4.2666183,6.0611406 4.3911503,5.9370123 4.4408229,5.9104281 c 0.075265,-0.04028 0.3804009,0.2377634 1.8311673,1.6685776 0.9574694,0.9443021 1.7645329,1.7169125 1.7934747,1.7169125 0.086432,0 0.4476744,-0.4851097 2.9582001,-3.9725404 2.779954,-3.8617006 3.711516,-5.14291008 3.762139,-5.174197 0.04249,-0.0262623 0.671087,0.3775563 0.671087,0.43111706 0,0.0508022 -0.858462,1.35349694 -1.293289,1.96253304 -0.462093,0.6472256 -0.604129,0.786698 -0.844589,0.8293422 -0.365358,0.064794 -0.361296,0.060465 -0.425938,0.4539876 -0.106569,0.6487732 -0.115998,0.6642185 -2.196944,3.5988191 -2.0548582,2.8978102 -2.4054671,3.3607952 -2.5408291,3.3552072 -0.02971,-0.0012 -0.241909,-0.17999 -0.4715535,-0.397254 z"
       id="path3090"
       inkscape:connector-curvature="0"
       transform="translate(0,1036.3622)" />
    <path
       style="fill:#00ffff;fill-opacity:0.24636727"
       d="M 7.096108,8.181044 C 6.5746742,7.6524398 5.8422202,6.8874777 5.4684325,6.4811278 L 4.7888186,5.7423102 4.932923,5.6209621 c 0.3720908,-0.313333 0.3726166,-0.3134396 0.5489192,-0.1114864 0.087466,0.1001921 0.6738177,0.7277802 1.3030031,1.39464 L 7.9288188,8.1165889 8.0460098,7.9758185 C 8.2162079,7.7713767 8.9026397,6.82648 10.978458,3.9392051 c 2.546649,-3.54215842 3.052706,-4.22864242 3.11724,-4.22864242 0.120159,0 0.445848,0.26582597 0.41719,0.34050806 C 14.452201,0.2092182 11.620168,4.2257894 8.329737,8.8204128 8.2040878,8.9958643 8.0884332,9.1400291 8.0727267,9.140779 8.0570203,9.1415274 7.6175419,8.7096482 7.096108,8.181044 z"
       id="path3092"
       inkscape:connector-curvature="0"
       transform="translate(0,1036.3622)" />
    <path
       style="fill:#00ffff;fill-opacity:0.24636727"
       d="M 6.838353,7.869686 C 6.1797383,7.1980273 5.4566418,6.4454724 5.2314717,6.1973424 l -0.4094,-0.4511463 0.2000912,-0.172965 c 0.1100502,-0.095131 0.2285122,-0.1729654 0.2632488,-0.1729654 0.054201,0 1.9254864,1.946451 2.4226124,2.5199228 0.093822,0.1082305 0.1893758,0.1967823 0.2123427,0.1967823 0.057653,0 0.6538496,-0.8091112 3.2859952,-4.459497 2.644224,-3.66713797 2.81207,-3.8903404 2.927762,-3.89337478 0.04776,-0.001253 0.151015,0.0529198 0.229446,0.12038344 0.128075,0.11016495 0.135976,0.13496954 0.07756,0.24347828 C 14.342216,0.31167673 12.633525,2.7447104 10.360466,5.9384809 8.203031,8.9697927 8.1202371,9.0835693 8.068559,9.0880478 8.0505604,9.089606 7.4969676,8.5413447 6.838353,7.869686 l 0,0 z"
       id="path3094"
       inkscape:connector-curvature="0"
       transform="translate(0,1036.3622)" />
    <path
       style="fill:#00ffff;fill-opacity:0.24636727"
       d="M 6.4910673,7.469726 C 5.6398982,6.6041951 4.9229312,5.8576245 4.8978072,5.8106799 c -0.03559,-0.0665 0.00165,-0.1217335 0.1686087,-0.2500497 L 5.2807045,5.3959338 5.8978096,6.0260177 c 0.3394079,0.346546 0.9333652,0.9645456 1.3199051,1.3733329 l 0.7028,0.7432495 0.1283521,-0.1432657 C 8.1194604,7.9205386 8.6657734,7.182415 9.2628957,6.3590596 9.8600181,5.5357047 11.076007,3.8586637 11.965093,2.6323021 c 1.650793,-2.2770243 2.018359,-2.76485274 2.133282,-2.83126475 0.08009,-0.0462824 0.333344,0.14338265 0.333344,0.24964499 0,0.14962294 -6.2004966,8.92854396 -6.3387154,8.97461666 -0.029896,0.00997 -0.7507673,-0.6900425 -1.6019363,-1.555573 z"
       id="path3096"
       inkscape:connector-curvature="0"
       transform="translate(0,1036.3622)" />
    <path
       style="fill:#00ffff;fill-opacity:0.24636727"
       d="M 6.7963475,7.7518594 C 6.117413,7.0717805 5.4096282,6.3451921 5.2234923,6.1372181 4.8556378,5.7262052 4.8545291,5.7159648 5.1547432,5.5021934 l 0.1380794,-0.098321 1.2951643,1.3565492 c 0.7123403,0.746102 1.3145683,1.3565493 1.3382844,1.3565493 0.057924,0 0.5386441,-0.6406826 2.1730217,-2.8961101 2.247098,-3.1009758 3.649224,-5.01240844 3.831593,-5.22337905 0.137209,-0.15872757 0.194019,-0.19107614 0.284904,-0.1622304 0.06244,0.0198166 0.136345,0.07867675 0.164241,0.13080041 0.05849,0.10929268 -0.153412,0.43579769 -1.913377,2.94817264 -2.5339741,3.617283 -4.3099503,6.0741424 -4.3907817,6.0741424 -0.024804,0 -0.6005903,-0.5564283 -1.2795248,-1.2365073 z"
       id="path3098"
       inkscape:connector-curvature="0"
       transform="translate(0,1036.3622)" />
  </g>
</svg>
