<?xml version="1.0" encoding="UTF-8" standalone="no"?>
<!-- Created with Inkscape (http://www.inkscape.org/) -->

<svg
   xmlns:dc="http://purl.org/dc/elements/1.1/"
   xmlns:cc="http://creativecommons.org/ns#"
   xmlns:rdf="http://www.w3.org/1999/02/22-rdf-syntax-ns#"
   xmlns:svg="http://www.w3.org/2000/svg"
   xmlns="http://www.w3.org/2000/svg"
   xmlns:xlink="http://www.w3.org/1999/xlink"
   xmlns:sodipodi="http://sodipodi.sourceforge.net/DTD/sodipodi-0.dtd"
   xmlns:inkscape="http://www.inkscape.org/namespaces/inkscape"
   width="16"
   height="16"
   id="svg814"
   version="1.1"
   inkscape:version="0.48.3.1 r9886"
   sodipodi:docname="radio-unselected.svg">
  <defs
     id="defs816">
    <linearGradient
       id="linearGradient3805">
      <stop
         style="stop-color:#323947;stop-opacity:1;"
         offset="0"
         id="stop3807" />
      <stop
         style="stop-color:#1d2026;stop-opacity:1;"
         offset="1"
         id="stop3813" />
    </linearGradient>
    <linearGradient
       id="linearGradient3793">
      <stop
         style="stop-color:#1a1a1c;stop-opacity:1;"
         offset="0"
         id="stop3795" />
      <stop
         style="stop-color:#1d2026;stop-opacity:1;"
         offset="1"
         id="stop3797" />
    </linearGradient>
    <linearGradient
       inkscape:collect="always"
       xlink:href="#linearGradient10354-2"
       id="linearGradient8378"
       gradientUnits="userSpaceOnUse"
       gradientTransform="translate(-1609.9926,-78.958432)"
       x1="1205.5752"
       y1="-186.45331"
       x2="1205.5752"
       y2="-202.34555" />
    <linearGradient
       id="linearGradient10354-2"
       inkscape:collect="always">
      <stop
         id="stop10356-2"
         offset="0"
         style="stop-color:#acbbcd;stop-opacity:1" />
      <stop
         id="stop10358-2"
         offset="1"
         style="stop-color:#e8e6df;stop-opacity:1" />
    </linearGradient>
    <linearGradient
       inkscape:collect="always"
       xlink:href="#linearGradient10332-5"
       id="linearGradient8380"
       gradientUnits="userSpaceOnUse"
       gradientTransform="matrix(0.84941206,0,0,0.84794288,-623.98415,-483.16392)"
       x1="260.92538"
       y1="233.77748"
       x2="260.92538"
       y2="248.97633" />
    <linearGradient
       inkscape:collect="always"
       id="linearGradient10332-5">
      <stop
         style="stop-color:#9fcecc;stop-opacity:1"
         offset="0"
         id="stop10334-5" />
      <stop
         style="stop-color:#82e6c2;stop-opacity:1"
         offset="1"
         id="stop10336-29" />
    </linearGradient>
    <linearGradient
       inkscape:collect="always"
       xlink:href="#linearGradient11577-0-5-0-2"
       id="linearGradient8358"
       gradientUnits="userSpaceOnUse"
       x1="662.53418"
       y1="249.29141"
       x2="662.53418"
       y2="262.49979" />
    <linearGradient
       id="linearGradient11577-0-5-0-2">
      <stop
         id="stop11579-5-6-7-4"
         offset="0"
         style="stop-color:#9bc8ff;stop-opacity:1;" />
      <stop
         style="stop-color:#a1ccfb;stop-opacity:1;"
         offset="0.25"
         id="stop3803" />
      <stop
         style="stop-color:#b2dafc;stop-opacity:1;"
         offset="0.5"
         id="stop3801" />
      <stop
         id="stop11581-8-0-0-9"
         offset="1"
         style="stop-color:#d3f6ff;stop-opacity:1;" />
    </linearGradient>
    <linearGradient
       inkscape:collect="always"
       xlink:href="#linearGradient12415-4-1-5"
       id="linearGradient8360"
       gradientUnits="userSpaceOnUse"
       x1="664.26984"
       y1="261.44751"
       x2="664.26984"
       y2="248.05356" />
    <linearGradient
       id="linearGradient12415-4-1-5">
      <stop
         id="stop12417-2-8-0"
         offset="0"
         style="stop-color:#bfbfbf;stop-opacity:1;" />
      <stop
         id="stop12419-5-0-9"
         offset="1"
         style="stop-color:#909090;stop-opacity:1;" />
    </linearGradient>
    <linearGradient
       inkscape:collect="always"
       xlink:href="#linearGradient11623-4-5-4"
       id="linearGradient8362"
       gradientUnits="userSpaceOnUse"
       x1="661.04559"
       y1="251.6946"
       x2="661.04559"
       y2="258.26358" />
    <linearGradient
       id="linearGradient11623-4-5-4"
       inkscape:collect="always">
      <stop
         id="stop11625-5-6-0"
         offset="0"
         style="stop-color:#2e87e3;stop-opacity:1" />
      <stop
         id="stop11627-4-4-9"
         offset="1"
         style="stop-color:#76b0ec;stop-opacity:1" />
    </linearGradient>
    <linearGradient
       inkscape:collect="always"
       xlink:href="#linearGradient12387-1-5"
       id="linearGradient8364"
       gradientUnits="userSpaceOnUse"
       x1="662.26074"
       y1="251.66537"
       x2="662.26074"
       y2="259.77792" />
    <linearGradient
       id="linearGradient12387-1-5"
       inkscape:collect="always">
      <stop
         id="stop12389-7-2"
         offset="0"
         style="stop-color:#1b6fc5;stop-opacity:1;" />
      <stop
         id="stop12391-1-4"
         offset="1"
         style="stop-color:#145393;stop-opacity:1" />
    </linearGradient>
    <linearGradient
       inkscape:collect="always"
       xlink:href="#linearGradient11553-0-7-9"
       id="linearGradient8366"
       gradientUnits="userSpaceOnUse"
       x1="660.16144"
       y1="246.69635"
       x2="660.27411"
       y2="260.70532" />
    <linearGradient
       id="linearGradient11553-0-7-9">
      <stop
         id="stop11555-5-9-8"
         offset="0"
         style="stop-color:#e8e6df;stop-opacity:1;" />
      <stop
         id="stop11557-1-9-0"
         offset="1"
         style="stop-color:#e8e6df;stop-opacity:0;" />
    </linearGradient>
    <radialGradient
       inkscape:collect="always"
       xlink:href="#linearGradient12405-7"
       id="radialGradient8368"
       gradientUnits="userSpaceOnUse"
       gradientTransform="matrix(1.4685542,0,0,2.2820942,-309.65132,-324.35943)"
       cx="660.8656"
       cy="251.41324"
       fx="660.8656"
       fy="251.41324"
       r="5.0290799"
       spreadMethod="pad" />
    <linearGradient
       id="linearGradient12405-7">
      <stop
         id="stop12407-9"
         offset="0"
         style="stop-color:#fbfdfd;stop-opacity:1;" />
      <stop
         id="stop12409-7"
         offset="1"
         style="stop-color:#1a1a1c;stop-opacity:0;" />
    </linearGradient>
    <radialGradient
       inkscape:collect="always"
       xlink:href="#linearGradient12692-5-0"
       id="radialGradient8370"
       gradientUnits="userSpaceOnUse"
       gradientTransform="matrix(2.4143887,0,0,1.7213698,-937.76662,-194.09437)"
       cx="663.01904"
       cy="269.82831"
       fx="663.01904"
       fy="269.82831"
       r="2.3864853" />
    <linearGradient
       id="linearGradient12692-5-0"
       inkscape:collect="always">
      <stop
         id="stop12694-4-1"
         offset="0"
         style="stop-color:#e8e6df;stop-opacity:1;" />
      <stop
         id="stop12696-5-2"
         offset="1"
         style="stop-color:#e8e6df;stop-opacity:0;" />
    </linearGradient>
    <radialGradient
       r="2.3864853"
       fy="269.82831"
       fx="663.01904"
       cy="269.82831"
       cx="663.01904"
       gradientTransform="matrix(2.4143887,0,0,1.7213698,-937.76662,-194.09437)"
       gradientUnits="userSpaceOnUse"
       id="radialGradient5029"
       xlink:href="#linearGradient12692-5-0"
       inkscape:collect="always" />
    <linearGradient
       inkscape:collect="always"
       xlink:href="#linearGradient3805"
       id="linearGradient3794"
       gradientUnits="userSpaceOnUse"
       x1="662.68768"
       y1="247.78085"
       x2="662.53418"
       y2="262.49979"
       spreadMethod="pad" />
    <linearGradient
       inkscape:collect="always"
       xlink:href="#linearGradient3793"
       id="linearGradient3799"
       x1="660.28619"
       y1="259.03784"
       x2="660.25543"
       y2="248.25285"
       gradientUnits="userSpaceOnUse" />
    <linearGradient
       y2="2.3041239"
       x2="8.9492645"
       y1="15.594499"
       x1="8.9492645"
       gradientUnits="userSpaceOnUse"
       id="linearGradient3058"
       xlink:href="#linearGradient3815"
       inkscape:collect="always" />
    <linearGradient
       id="linearGradient3815">
      <stop
         style="stop-color:#e8e6df;stop-opacity:0.15294118;"
         offset="0"
         id="stop3817" />
      <stop
         style="stop-color:#1a1a1c;stop-opacity:0;"
         offset="1"
         id="stop3819" />
    </linearGradient>
    <linearGradient
       y2="2.3041239"
       x2="8.9492645"
       y1="15.594499"
       x1="8.9492645"
       gradientUnits="userSpaceOnUse"
       id="linearGradient3885"
       xlink:href="#linearGradient3815"
       inkscape:collect="always" />
    <linearGradient
       inkscape:collect="always"
       xlink:href="#linearGradient3803"
       id="linearGradient3797"
       x1="660.14856"
       y1="261.69751"
       x2="660.14856"
       y2="247.10995"
       gradientUnits="userSpaceOnUse"
       spreadMethod="pad" />
    <linearGradient
       id="linearGradient3803">
      <stop
         style="stop-color:#1a1a1c;stop-opacity:1;"
         offset="0"
         id="stop3805" />
      <stop
         id="stop3807-3"
         offset="0.33333284"
         style="stop-color:#1a1a1c;stop-opacity:0.98431373;" />
      <stop
         id="stop3809-7"
         offset="0.66666645"
         style="stop-color:#040506;stop-opacity:1;" />
      <stop
         style="stop-color:#e8e6df;stop-opacity:0.05098039;"
         offset="1"
         id="stop3811-3" />
    </linearGradient>
    <linearGradient
       y2="247.10995"
       x2="660.14856"
       y1="261.69751"
       x1="660.14856"
       spreadMethod="pad"
       gradientUnits="userSpaceOnUse"
       id="linearGradient3058-0"
       xlink:href="#linearGradient3803"
       inkscape:collect="always" />
  </defs>
  <sodipodi:namedview
     id="base"
     pagecolor="#e8e6df"
     bordercolor="#666666"
     borderopacity="1.0"
     inkscape:pageopacity="0.0"
     inkscape:pageshadow="2"
     inkscape:zoom="44.353546"
     inkscape:cx="9.5645576"
     inkscape:cy="6.3976887"
     inkscape:document-units="px"
     inkscape:current-layer="g6305"
     showgrid="true"
     borderlayer="true"
     inkscape:showpageshadow="false"
     inkscape:window-width="1046"
     inkscape:window-height="714"
     inkscape:window-x="308"
     inkscape:window-y="24"
     inkscape:window-maximized="0">
    <inkscape:grid
       type="xygrid"
       id="grid4084"
       empspacing="5"
       visible="true"
       enabled="true"
       snapvisiblegridlinesonly="true" />
  </sodipodi:namedview>
  <metadata
     id="metadata819">
    <rdf:RDF>
      <cc:Work
         rdf:about="">
        <dc:format>image/svg+xml</dc:format>
        <dc:type
           rdf:resource="http://purl.org/dc/dcmitype/StillImage" />
        <dc:title />
      </cc:Work>
    </rdf:RDF>
  </metadata>
  <g
     inkscape:label="Layer 1"
     inkscape:groupmode="layer"
     id="layer1"
     transform="translate(0,-1036.3622)">
    <g
       transform="translate(-1031,770.36221)"
       id="g6305"
       style="display:inline;enable-background:new">
      <path
         sodipodi:type="arc"
         style="fill:none;stroke:url(#linearGradient3885);stroke-width:1.18900001;stroke-miterlimit:4;stroke-opacity:1;stroke-dasharray:none;display:inline;enable-background:new"
         id="path3813"
         sodipodi:cx="8"
         sodipodi:cy="8"
         sodipodi:rx="7"
         sodipodi:ry="7"
         d="m 15,8 c 0,3.865993 -3.134007,7 -7,7 C 4.1340068,15 1,11.865993 1,8 1,4.1340068 4.1340068,1 8,1 c 3.865993,0 7,3.1340068 7,7 z"
         transform="matrix(1.0533938,0,0,1.0533939,1030.5728,265.57284)" />
      <path
         transform="matrix(1.4419436,0,0,-0.89116967,85.92127,501.3078)"
         d="m 665.47588,255.0668 c 0,4.02825 -2.01821,7.29379 -4.5078,7.29379 -2.48959,0 -4.50781,-3.26554 -4.50781,-7.29379 0,-4.02824 2.01822,-7.29378 4.50781,-7.29378 2.48959,0 4.5078,3.26554 4.5078,7.29378 z"
         sodipodi:ry="7.2937827"
         sodipodi:rx="4.5078058"
         sodipodi:cy="255.0668"
         sodipodi:cx="660.96808"
         id="path6307"
         style="color:#1a1a1c;fill:url(#linearGradient3794);fill-opacity:1;fill-rule:nonzero;stroke:url(#linearGradient3799);stroke-width:0.88215655000000004;stroke-linecap:square;stroke-linejoin:round;stroke-miterlimit:4;stroke-opacity:1;stroke-dasharray:none;stroke-dashoffset:100;marker:none;visibility:visible;display:inline;overflow:visible;enable-background:new"
         sodipodi:type="arc" />
      <path
         sodipodi:type="arc"
         style="opacity:0.12955466;fill:none;stroke:url(#linearGradient3058-0);stroke-width:1.04254842;stroke-linecap:square;stroke-linejoin:round;stroke-miterlimit:4;stroke-opacity:1;stroke-dasharray:none;stroke-dashoffset:100;display:inline;enable-background:new"
         id="path6313"
         sodipodi:cx="660.96808"
         sodipodi:cy="255.0668"
         sodipodi:rx="4.5078058"
         sodipodi:ry="7.2937827"
         d="m 665.47588,255.0668 c 0,4.02825 -2.01821,7.29379 -4.5078,7.29379 -2.48959,0 -4.50781,-3.26554 -4.50781,-7.29379 0,-4.02824 2.01822,-7.29378 4.50781,-7.29378 2.48959,0 4.5078,3.26554 4.5078,7.29378 z"
         transform="matrix(1.2201064,0,0,-0.75406683,232.54862,466.33741)" />
      <path
         style="fill:#008080;fill-opacity:0.24636727"
         d="M 6.4062595,13.760142 C 5.4183023,13.493521 4.494711,12.952343 3.7657677,12.212947 3.6034937,12.048346 3.4454708,11.877417 3.4146056,11.833104 l -0.056118,-0.08057 0.6617379,0 c 0.6435064,0 0.6645266,0.0023 0.7629583,0.08474 0.2047992,0.171452 0.7060978,0.494456 0.9851039,0.634737 0.6801838,0.34199 1.396242,0.506158 2.2135404,0.507492 1.0785244,0.0018 1.9376925,-0.257611 2.8327983,-0.855183 0.189264,-0.126352 0.373041,-0.261693 0.408394,-0.300758 0.05978,-0.06606 0.11163,-0.07103 0.741117,-0.07103 l 0.67684,0 -0.05612,0.08057 c -0.03087,0.04431 -0.188888,0.215242 -0.351162,0.379843 -0.735989,0.746543 -1.669848,1.290911 -2.6583959,1.549642 -0.2225293,0.05824 -0.4013516,0.06531 -1.5934724,0.06299 -1.1622195,-0.0023 -1.3741169,-0.01107 -1.5755682,-0.06543 z"
         id="path3046"
         inkscape:connector-curvature="0"
         transform="translate(1031,265.99999)" />
      <path
         style="fill:#008080;fill-opacity:0.24636727"
         d="m 3.1336151,11.47502 -0.1951862,-0.277515 0.5953081,-0.0099 0.5953081,-0.0099 0.2862115,0.287365 0.2862116,0.287366 -0.6863335,0 -0.6863335,0 -0.1951861,-0.277515 z"
         id="path3048"
         inkscape:connector-curvature="0"
         transform="translate(1031,265.99999)" />
      <path
         style="fill:#008080;fill-opacity:0.24636727"
         d="M 7.6416482,12.949462 C 6.3495093,12.826974 5.3740891,12.387848 4.4872583,11.529381 l -0.3613372,-0.34978 -0.5936162,0 -0.5936162,0 -0.074537,-0.120604 c -0.040996,-0.06633 -0.074537,-0.130787 -0.074537,-0.143233 0,-0.01245 0.2499993,-0.02263 0.555554,-0.02263 l 0.5555539,0 L 3.6491958,10.415011 3.3976694,9.9368882 7.9842423,9.9104841 c 2.5226147,-0.014522 4.5952367,-0.017741 4.6058247,-0.00715 0.01059,0.010589 -0.09563,0.2376259 -0.236036,0.5045269 l -0.255289,0.485275 0.555554,0 c 0.305554,0 0.555554,0.0083 0.555554,0.01845 0,0.01015 -0.04988,0.106828 -0.110844,0.21485 l -0.110843,0.196404 -0.60949,0 -0.60949,0 -0.203286,0.188206 c -0.782749,0.724688 -1.706161,1.205739 -2.6351475,1.372778 -0.2922314,0.05255 -1.0306218,0.09015 -1.2891013,0.06564 z"
         id="path3050"
         inkscape:connector-curvature="0"
         transform="translate(1031,265.99999)" />
      <path
         style="fill:#008080;fill-opacity:0.24636727"
         d="M 2.4890011,10.319953 C 2.4180031,10.142566 2.3599138,9.9894851 2.3599138,9.9797738 c 0,-0.00971 0.2255927,-0.017657 0.5013172,-0.017657 0.3567713,0 0.5013171,-0.01199 0.5013171,-0.041586 0,-0.022872 0.080569,0.1231692 0.1790419,0.3245352 0.098473,0.201367 0.1790418,0.373162 0.1790418,0.381766 0,0.0086 -0.2480722,0.01564 -0.5512716,0.01564 l -0.5512717,0 -0.1290874,-0.322523 z"
         id="path3052"
         inkscape:connector-curvature="0"
         transform="translate(1031,265.99999)" />
      <path
         style="fill:#008080;fill-opacity:0.24636727"
         d="M 2.2530571,9.6718364 C 2.0812078,9.039383 2.0169652,8.4656394 2.0321708,7.6991249 l 0.00547,-0.2756273 0.4923651,-0.01084 0.492365,-0.01084 0.00313,0.6266465 c 0.00341,0.6833163 0.070212,1.1130471 0.2508991,1.6139531 0.050473,0.1399225 0.08422,0.2619539 0.074993,0.2711808 -0.00923,0.00923 -0.2417503,0.026231 -0.5167188,0.037786 l -0.4999425,0.02101 -0.081667,-0.3005578 z"
         id="path3054"
         inkscape:connector-curvature="0"
         transform="translate(1031,265.99999)" />
      <path
         style="fill:#008080;fill-opacity:0.24636727"
         d="M 2.0382637,7.3981206 C 2.0386074,7.3804598 2.0614438,7.2284617 2.0890109,7.0603471 2.2132061,6.3029576 2.4597467,5.6333642 2.8697135,4.939993 l 0.1429128,-0.2417065 0.6046613,0 c 0.3325638,0 0.6046614,0.0084 0.6046614,0.018673 0,0.01027 -0.078285,0.119038 -0.173966,0.2417065 C 3.5559299,5.5895038 3.2097323,6.3685888 3.0732838,7.1521341 l -0.040363,0.2317801 -0.2236758,0 c -0.1230217,0 -0.3469603,0.010421 -0.4976413,0.023158 -0.1550747,0.013109 -0.2736941,0.00922 -0.2733402,-0.00895 l 0,0 z"
         id="path3056"
         inkscape:connector-curvature="0"
         transform="translate(1031,265.99999)" />
      <path
         style="fill:#008080;fill-opacity:0.24636727"
         d="M 12.763806,6.4439445 C 12.222558,4.8417567 10.864809,3.5754084 9.2408593,3.1581551 8.6751321,3.0127987 7.7978905,2.9733158 7.2241133,3.0673854 6.188655,3.2371467 5.3020549,3.6756036 4.5581092,4.385824 L 4.229006,4.700008 3.6191292,4.6901951 3.0092525,4.6803823 3.169416,4.4655321 C 4.1319632,3.1743302 5.5487372,2.3273238 7.1582352,2.0808503 7.8043944,1.9818995 8.7475918,2.0302551 9.4320666,2.1974246 10.191844,2.3829853 11.055454,2.7994083 11.67009,3.2765738 c 0.928861,0.7211117 1.633538,1.7122891 2.003625,2.8182391 0.216649,0.6474225 0.2219,0.5944923 -0.06162,0.6212702 -0.132606,0.012524 -0.355264,0.022886 -0.494794,0.023026 l -0.253692,2.507e-4 -0.0998,-0.2954191 0,4e-6 z"
         id="path3058"
         inkscape:connector-curvature="0"
         transform="translate(1031,265.99999)" />
      <path
         style="fill:#008080;fill-opacity:0.24636727"
         d="m 12.945725,8.825201 c 0.08873,-0.5414199 0.05633,-1.3625216 -0.07841,-1.9873645 l -0.02124,-0.098473 0.388021,0 c 0.213412,0 0.440285,-0.014989 0.504162,-0.033309 0.06388,-0.01832 0.116206,-0.022348 0.116285,-0.00895 7.9e-5,0.013396 0.02457,0.1749739 0.05443,0.3590617 0.09292,0.5729368 0.09154,1.5181307 -0.0028,1.9480784 l -0.02162,0.098473 -0.492136,0 -0.492136,0 0.04548,-0.2775149 z"
         id="path3060"
         inkscape:connector-curvature="0"
         transform="translate(1031,265.99999)" />
      <path
         style="fill:#008080;fill-opacity:0.24636727"
         d="m 12.528564,10.132206 c 0.07571,-0.16248 0.180934,-0.4404425 0.233822,-0.6176939 0.05289,-0.1772514 0.102186,-0.3424175 0.109551,-0.3670358 0.0099,-0.033059 0.145374,-0.04476 0.518244,-0.04476 0.463962,0 0.503361,0.00508 0.486423,0.062665 -0.01014,0.034466 -0.04388,0.1674041 -0.07497,0.2954191 -0.0311,0.1280149 -0.11427,0.3979204 -0.184824,0.5997904 l -0.12828,0.367036 -0.548812,0 -0.548811,0 0.137661,-0.29542 z"
         id="path3062"
         inkscape:connector-curvature="0"
         transform="translate(1031,265.99999)" />
      <path
         style="fill:#008080;fill-opacity:0.24636727"
         d="m 12.279971,10.597715 c 6.26e-4,-0.02462 0.02255,-0.07296 0.04871,-0.107425 0.04162,-0.05483 0.115379,-0.06266 0.589699,-0.06266 0.298172,0 0.54213,0.0073 0.54213,0.01622 0,0.0089 -0.0187,0.05726 -0.04156,0.107425 l -0.04156,0.09121 -0.549282,0 c -0.416161,0 -0.549006,-0.01085 -0.548143,-0.04476 z"
         id="path3064"
         inkscape:connector-curvature="0"
         transform="translate(1031,265.99999)" />
      <path
         style="fill:#008080;fill-opacity:0.24636727"
         d="m 11.55165,11.538307 0.243769,-0.214227 0.581886,-6.23e-4 c 0.320037,-3.42e-4 0.581886,0.0081 0.581886,0.01882 0,0.01069 -0.06639,0.107375 -0.147536,0.214851 l -0.147535,0.195409 -0.67812,0 -0.678119,0 0.243769,-0.214228 z"
         id="path3066"
         inkscape:connector-curvature="0"
         transform="translate(1031,265.99999)" />
      <path
         style="fill:#008080;fill-opacity:0.24636727"
         d="m 12.681676,10.901154 c -0.300343,-0.0054 -0.546078,-0.01698 -0.546078,-0.02564 0,-0.0087 0.02521,-0.06867 0.05601,-0.133348 l 0.05601,-0.117592 0.55273,0.0107 c 0.304001,0.0059 0.552055,0.022 0.551229,0.03581 -8.25e-4,0.01381 -0.02903,0.07345 -0.06267,0.13253 l -0.06116,0.107425 -0.546078,-0.0099 z"
         id="path3068"
         inkscape:connector-curvature="0"
         transform="translate(1031,265.99999)" />
      <path
         style="fill:#008080;fill-opacity:0.24636727"
         d="m 2.702393,10.793446 c -0.030807,-0.06467 -0.056012,-0.124314 -0.056012,-0.13253 0,-0.0082 0.2487285,-0.01975 0.55273,-0.02564 l 0.5527301,-0.0107 0.056012,0.117592 c 0.030807,0.06467 0.056012,0.124314 0.056012,0.13253 0,0.0082 -0.2487286,0.01975 -0.5527301,0.02564 l -0.55273,0.0107 -0.056012,-0.117592 z"
         id="path3070"
         inkscape:connector-curvature="0"
         transform="translate(1031,265.99999)" />
      <path
         style="fill:#008080;fill-opacity:0.24636727"
         d="M 3.3711757,9.869432 C 3.3117752,9.7561572 3.1550614,9.2091713 3.1053415,8.9415782 3.0415462,8.5982307 3.0429845,7.3724342 3.1075719,7.0406617 l 0.049395,-0.2537315 3.6209628,-0.023764 c 1.9915297,-0.01307 4.1635524,-0.023773 4.8267184,-0.023783 l 1.205756,-1.95e-5 0.03567,0.1163772 c 0.110409,0.3601735 0.155683,1.4570449 0.08018,1.942604 -0.02144,0.1378622 -0.09814,0.4399954 -0.17045,0.6714069 L 12.624336,9.8905 9.7570043,9.8905401 c -1.5770324,2.2e-5 -3.650917,0.010684 -4.6086322,0.023692 -1.6908253,0.022967 -1.7423408,0.021668 -1.7771964,-0.044801 z"
         id="path3072"
         inkscape:connector-curvature="0"
         transform="translate(1031,265.99999)" />
      <path
         style="fill:#008080;fill-opacity:0.24636727"
         d="m 3.1835063,6.7405041 c 0,-0.062917 0.1430567,-0.4669273 0.2539926,-0.717308 C 3.7525359,5.3121622 4.387981,4.447071 4.6337452,4.3946333 4.6731344,4.386229 6.2090037,4.3734885 8.046788,4.3663212 l 3.341426,-0.013032 0.281847,0.2977518 c 0.314704,0.3324632 0.601359,0.7456081 0.815403,1.1752087 0.142503,0.2860132 0.355642,0.8656306 0.327473,0.8905386 -0.03021,0.026715 -9.6294307,0.050356 -9.6294307,0.023715 z"
         id="path3074"
         inkscape:connector-curvature="0"
         transform="translate(1031,265.99999)" />
      <path
         style="fill:#008080;fill-opacity:0.24636727"
         d="M 4.6302754,4.3458171 C 4.6445716,4.3226853 4.7639972,4.2179476 4.8956655,4.1130668 5.55596,3.5871066 6.2798568,3.2612218 7.140331,3.1025602 c 0.3980127,-0.073389 1.4940416,-0.055152 1.9157478,0.031876 0.3333315,0.06879 0.8379477,0.2451505 1.1480472,0.4012355 0.272024,0.13692 0.810476,0.4946243 1.018359,0.6765165 l 0.143234,0.1253255 -1.327965,0.00134 c -0.73038,7.394e-4 -2.2517031,0.012071 -3.3807178,0.025181 -1.5678731,0.018206 -2.0466141,0.013901 -2.0267608,-0.018222 l 0,-1e-7 z"
         id="path3076"
         inkscape:connector-curvature="0"
         transform="translate(1031,265.99999)" />
      <path
         style="fill:#008080;fill-opacity:0.24636727"
         d="M 1.6827213,10.989634 C 1.329195,10.177205 1.1753261,9.6531453 1.0696996,8.9017512 1.0313186,8.6287211 1.0007262,7.7199688 1.0245645,7.5610042 l 0.015817,-0.1054733 0.4814811,0 c 0.3630678,0 0.4847487,-0.00693 0.4947678,-0.028183 0.00731,-0.0155 0.00762,0.00109 6.861e-4,0.03686 -0.024952,0.1287965 -0.010446,0.9780955 0.021416,1.2539047 0.086073,0.7450779 0.3639947,1.6148119 0.6982581,2.1851449 0.044974,0.07674 0.08177,0.14405 0.08177,0.149586 0,0.0055 -0.2484347,0.01006 -0.5520771,0.01006 l -0.5520772,0 -0.031885,-0.07327 0,0 z"
         id="path3063"
         inkscape:connector-curvature="0"
         transform="translate(1031,265.99999)" />
      <path
         style="fill:#008080;fill-opacity:0.24636727"
         d="M 1.5909021,10.745587 C 1.3424349,10.13449 1.196144,9.6254388 1.1054366,9.0563048 1.0565114,8.7493287 1.0184253,7.9915559 1.0337629,7.6302633 l 0.00742,-0.1747324 0.4821444,0 0.4821445,0 -6.66e-4,0.4791049 c -7.551e-4,0.5432438 0.02524,0.8553657 0.1037736,1.2460022 0.1122206,0.5582001 0.2896124,1.073307 0.540293,1.568895 l 0.1437029,0.284096 -0.2722722,0.01464 c -0.1497497,0.0081 -0.3910961,0.01464 -0.5363253,0.01464 l -0.2640531,0 -0.1290204,-0.317322 0,0 z"
         id="path3065"
         inkscape:connector-curvature="0"
         transform="translate(1031,265.99999)" />
      <path
         style="fill:#008080;fill-opacity:0.24636727"
         d="M 1.5736712,10.675002 C 1.1736021,9.645998 1.060059,9.0576273 1.0524525,7.9740915 l -0.00356,-0.5072875 0.4734683,-0.00607 0.4734684,-0.00607 0.00635,0.5457879 c 0.0068,0.5847692 0.03891,0.9085739 0.1304207,1.315125 0.1111229,0.4936827 0.249859,0.8889519 0.4850962,1.3820749 0.099533,0.20865 0.1442403,0.325358 0.1267067,0.33077 -0.014901,0.0046 -0.2502998,0.01469 -0.5231077,0.02243 l -0.4960145,0.01407 -0.1516034,-0.389934 0,0 z"
         id="path3067"
         inkscape:connector-curvature="0"
         transform="translate(1031,265.99999)" />
      <path
         style="fill:#008080;fill-opacity:0.24636727"
         d="m 1.0376182,7.4033687 c 0,-0.066614 0.058413,-0.5037633 0.090941,-0.6805864 0.079927,-0.4344806 0.2773209,-1.0835841 0.4467846,-1.4691944 l 0.08755,-0.1992179 0.555177,-0.00603 0.555177,-0.00603 -0.077578,0.1413067 C 2.3762843,5.7653745 2.1290169,6.552993 2.0355051,7.2864351 l -0.017247,0.1352766 -0.2028569,0.014522 c -0.1115713,0.00799 -0.3322151,0.015597 -0.4903198,0.01691 -0.2861075,0.00238 -0.2874629,0.00214 -0.2874629,-0.049775 z"
         id="path3069"
         inkscape:connector-curvature="0"
         transform="translate(1031,265.99999)" />
      <path
         style="fill:#008080;fill-opacity:0.24636727"
         d="M 1.05788,7.4180791 C 1.0319393,7.2032958 1.2224411,6.2666952 1.3941984,5.7645725 1.467533,5.5501829 1.644677,5.1074375 1.6662095,5.0847209 1.6827556,5.0672648 2.7542904,5.047737 2.7454799,5.0650521 2.7421596,5.0715773 2.6958522,5.161513 2.6425744,5.2649091 2.372639,5.7887728 2.1612711,6.4545831 2.0516402,7.1263565 2.0275583,7.2739201 2.0017817,7.400742 1.9943587,7.4081829 c -0.021298,0.02135 -0.9339306,0.030994 -0.9364787,0.0099 l 0,0 z"
         id="path3071"
         inkscape:connector-curvature="0"
         transform="translate(1031,265.99999)" />
      <path
         style="fill:#008080;fill-opacity:0.24636727"
         d="M 1.0694174,7.2695255 C 1.0957486,7.0234356 1.1737423,6.6210358 1.2633879,6.2687569 1.3593613,5.8916115 1.4246279,5.6919646 1.5679813,5.3370221 L 1.6639265,5.0994622 1.8186042,5.0868 c 0.2615094,-0.021408 0.9099724,-0.024949 0.9099724,-0.00497 0,0.010379 -0.014268,0.039242 -0.031707,0.064139 C 2.6479726,5.2157803 2.4621392,5.6366001 2.364518,5.89858 2.2592596,6.1810554 2.1442259,6.6123381 2.0634991,7.0271548 2.0309208,7.1945597 1.9991471,7.3492823 1.992891,7.370983 1.982533,7.4069118 1.9400766,7.4104387 1.5179281,7.4104387 l -0.4635882,0 0.015078,-0.1409132 0,0 z"
         id="path3073"
         inkscape:connector-curvature="0"
         transform="translate(1031,265.99999)" />
      <path
         style="fill:#008080;fill-opacity:0.24636727"
         d="M 13.742984,6.2211313 C 13.717193,6.1181623 13.537544,5.6522345 13.451393,5.4648786 13.348843,5.2418581 13.130021,4.8622936 12.968639,4.6275013 12.355789,3.7358768 11.56273,3.0527241 10.608443,2.5943922 10.005944,2.3050198 9.4572539,2.1404536 8.7596614,2.0398953 8.4547433,1.9959412 7.4953578,2.0021469 7.1758253,2.0501403 6.0481125,2.2195214 5.0592252,2.6523871 4.1914062,3.3565105 3.7314767,3.7296841 3.1863648,4.3548589 2.8829967,4.8570915 l -0.1123545,0.1860055 -0.5517929,0 -0.5517928,0 0.1256376,-0.2456199 C 2.1121224,4.1729992 2.5510087,3.5745353 3.0674782,3.0591854 5.3144591,0.81707628 8.7640338,0.36810704 11.510287,1.9603365 c 0.245878,0.1425561 0.541701,0.3434576 0.800387,0.543565 0.302721,0.2341709 0.909294,0.8356054 1.151089,1.1413366 0.537852,0.6800718 0.981437,1.5232148 1.226189,2.3306774 0.04414,0.1456093 0.08025,0.274301 0.08025,0.285981 0,0.012652 -0.204066,0.021237 -0.504843,0.021237 l -0.504843,0 -0.01553,-0.062002 0,0 z"
         id="path3075"
         inkscape:connector-curvature="0"
         transform="translate(1031,265.99999)" />
      <path
         style="fill:#008080;fill-opacity:0.24636727"
         d="M 13.736125,6.1827344 C 13.651085,5.8647808 13.372967,5.260398 13.133184,4.8724734 12.300225,3.5249025 10.989988,2.5555552 9.4950502,2.1808887 8.8819768,2.0272381 8.7519842,2.0123086 8.0269128,2.0122744 7.2906907,2.0122398 7.1299155,2.0294525 6.5637006,2.1689273 5.7126388,2.3785677 4.904597,2.7758658 4.227893,3.3173971 3.779935,3.6758748 3.2002992,4.3332831 2.8760943,4.8505728 l -0.1266215,0.202033 -0.52165,-0.00491 C 1.9409153,5.0449935 1.7021793,5.03879 1.6972983,5.033909 1.6753136,5.0119243 2.0055484,4.4242754 2.21794,4.1074333 2.6787458,3.4200114 3.3804058,2.7118232 4.0587972,2.2494486 5.0685996,1.5611926 6.2095896,1.15373 7.4143027,1.0511533 c 0.4319163,-0.036776 1.1844945,-0.016178 1.57153,0.043013 1.3877373,0.2122315 2.6057713,0.7765886 3.6042343,1.6699663 0.512684,0.4587252 0.871807,0.8653089 1.196454,1.3545742 0.370832,0.5588689 0.640923,1.1127775 0.849103,1.7413586 0.116846,0.3528063 0.126569,0.400407 0.08185,0.4007177 -0.0155,1.127e-4 -0.236197,0.0067 -0.490437,0.014641 l -0.462255,0.014445 -0.02865,-0.1071341 z"
         id="path3077"
         inkscape:connector-curvature="0"
         transform="translate(1031,265.99999)" />
      <path
         style="fill:#008080;fill-opacity:0.24636727"
         d="m 13.76723,6.2583128 c -0.0056,-0.01735 -0.02767,-0.087347 -0.04914,-0.1555486 C 13.601311,5.7318236 13.276426,5.0701196 13.026228,4.6936322 12.431086,3.7980894 11.609156,3.0755181 10.653535,2.6077599 10.209,2.3901688 9.940507,2.289884 9.5036831,2.1782785 8.8864071,2.0205687 8.8157652,2.0126261 8.0269128,2.012239 7.5503193,2.0120049 7.2573811,2.021527 7.1363414,2.0411869 6.9067609,2.0784767 6.4560988,2.1849152 6.2041174,2.261362 5.4851677,2.4794789 4.6565753,2.9368167 4.0926163,3.4267953 3.6901332,3.7764808 3.1802678,4.3651787 2.8929053,4.8119993 L 2.7442801,5.043097 2.4151463,5.0429619 c -0.3609961,-1.483e-4 -0.7011447,-0.021101 -0.7011447,-0.04319 0,-0.00775 0.067036,-0.1356069 0.1489689,-0.2841211 1.1207163,-2.0314461 3.0477304,-3.3458726 5.3208976,-3.6294122 0.3181397,-0.039683 1.2037602,-0.04529 1.5467264,-0.00979 0.9672995,0.1001141 2.0054815,0.4450704 2.8169365,0.9359827 0.804155,0.486495 1.59143,1.2104713 2.111479,1.9417097 0.269714,0.3792434 0.510728,0.8037603 0.714245,1.2580554 0.131478,0.2934877 0.349655,0.915791 0.349777,0.9976654 6.8e-5,0.049599 -0.0056,0.050731 -0.253568,0.050845 -0.139504,6.76e-5 -0.352302,0.00665 -0.472886,0.014635 -0.177367,0.011746 -0.221172,0.00849 -0.229348,-0.017026 z"
         id="path3079"
         inkscape:connector-curvature="0"
         transform="translate(1031,265.99999)" />
      <path
         style="fill:#008080;fill-opacity:0.24636727"
         d="m 13.996863,8.1709344 c 0.01354,-0.6330309 -0.02951,-1.0485037 -0.167211,-1.6137038 -0.03125,-0.1282545 -0.05015,-0.2398578 -0.04201,-0.2480072 0.0225,-0.022527 0.959715,-0.033508 0.980901,-0.011494 0.02895,0.030077 0.130513,0.55415 0.172226,0.8886555 0.03915,0.3139407 0.05511,1.3010704 0.02303,1.4246339 l -0.01609,0.062002 -0.480793,0 -0.480793,0 0.01074,-0.5020865 0,0 z"
         id="path3083"
         inkscape:connector-curvature="0"
         transform="translate(1031,265.99999)" />
      <path
         style="fill:#008080;fill-opacity:0.24636727"
         d="m 14.001632,8.1343031 c 0,-0.6424381 -0.02131,-0.8800204 -0.124828,-1.3915859 -0.04295,-0.2122423 -0.07809,-0.3974023 -0.07809,-0.4114665 0,-0.01827 0.138158,-0.025571 0.483873,-0.025571 l 0.483872,0 0.02268,0.084548 c 0.05303,0.1976936 0.138116,0.7616889 0.159014,1.0540307 0.0255,0.3567654 0.03018,0.9668599 0.0086,1.1241589 l -0.01434,0.1046042 -0.470404,0 -0.470404,0 0,-0.5387178 z"
         id="path3085"
         inkscape:connector-curvature="0"
         transform="translate(1031,265.99999)" />
      <path
         style="fill:#008080;fill-opacity:0.24636727"
         d="m 14.001632,8.124557 c 0,-0.6359043 -0.02059,-0.8747178 -0.120861,-1.4017747 l -0.07292,-0.3832839 0.158892,-0.013963 c 0.156536,-0.013756 0.801392,-0.025196 0.801524,-0.01422 3.9e-5,0.0031 0.02032,0.1099539 0.04508,0.2374529 0.09267,0.4772916 0.137451,0.9578944 0.14207,1.524693 0.0024,0.2987567 -0.0038,0.5558762 -0.01381,0.5713767 -0.01361,0.021032 -0.135172,0.028183 -0.479105,0.028183 l -0.460865,0 0,-0.5484639 z"
         id="path3087"
         inkscape:connector-curvature="0"
         transform="translate(1031,265.99999)" />
      <path
         style="fill:#008080;fill-opacity:0.24636727"
         d="m 13.167426,11.073734 c 0,-0.0064 0.02437,-0.05033 0.05416,-0.09751 0.176621,-0.279785 0.417665,-0.851117 0.542894,-1.2867844 0.08183,-0.2846834 0.192062,-0.8300897 0.192062,-0.9502783 l 0,-0.066137 0.496015,0 c 0.576505,0 0.516382,-0.043729 0.461002,0.3352982 -0.0936,0.6406125 -0.298253,1.3294579 -0.571889,1.9249499 l -0.06993,0.152186 -0.552156,0 c -0.303685,0 -0.552155,-0.0053 -0.552155,-0.01172 z"
         id="path3089"
         inkscape:connector-curvature="0"
         transform="translate(1031,265.99999)" />
      <path
         style="fill:#008080;fill-opacity:0.24636727"
         d="m 13.422526,11.068654 -0.229642,-0.0073 0.142462,-0.28054 c 0.157849,-0.31084 0.290043,-0.633346 0.39266,-0.9579504 0.08979,-0.2840456 0.206308,-0.8067321 0.22227,-0.9971183 l 0.0128,-0.1527334 0.41947,0.00225 c 0.230708,0.00124 0.444834,0.00925 0.475835,0.0178 0.07788,0.02149 0.08254,0.1182171 0.0216,0.4482899 -0.109515,0.5931485 -0.252321,1.0792268 -0.471801,1.6059048 -0.06459,0.155005 -0.122704,0.294509 -0.129134,0.310009 -0.01165,0.0281 -0.236128,0.03108 -0.856525,0.01138 l 0,0 z"
         id="path3091"
         inkscape:connector-curvature="0"
         transform="translate(1031,265.99999)" />
      <path
         style="fill:#008080;fill-opacity:0.24636727"
         d="m 13.212518,11.055094 c 0,-0.0043 0.07492,-0.164093 0.166496,-0.355101 0.280648,-0.585394 0.460409,-1.1417604 0.545641,-1.6887804 0.02029,-0.1302038 0.04126,-0.2605072 0.04662,-0.2895631 l 0.0097,-0.052829 0.444329,0.016134 c 0.244381,0.00887 0.451938,0.020564 0.461238,0.025977 0.03389,0.019727 0.01556,0.2674927 -0.04035,0.5454553 -0.111094,0.5523108 -0.244517,0.9907259 -0.465725,1.5303319 l -0.113222,0.27619 -0.527377,0 c -0.290057,0 -0.527377,-0.0035 -0.527377,-0.0078 z"
         id="path3093"
         inkscape:connector-curvature="0"
         transform="translate(1031,265.99999)" />
      <path
         style="fill:#008080;fill-opacity:0.24636727"
         d="m 10.791973,13.319795 c 0.34987,-0.182648 0.747598,-0.447615 1.045233,-0.696335 0.435915,-0.364275 0.9373,-0.933681 1.230023,-1.396895 l 0.08892,-0.140716 0.560054,-1.97e-4 0.560054,-1.97e-4 -0.09558,0.174732 c -0.464139,0.848508 -1.054209,1.570577 -1.748149,2.139208 l -0.09268,0.07595 -0.922068,-4.44e-4 -0.922069,-4.43e-4 0.296261,-0.154661 z"
         id="path3095"
         inkscape:connector-curvature="0"
         transform="translate(1031,265.99999)" />
      <path
         style="fill:#008080;fill-opacity:0.24636727"
         d="m 10.804255,13.319649 c 0.333739,-0.181889 0.666756,-0.397792 0.913714,-0.592382 0.401825,-0.316619 0.952962,-0.911488 1.257815,-1.357623 0.0744,-0.108883 0.151169,-0.218712 0.170593,-0.244064 0.03393,-0.04428 0.05605,-0.04597 0.562052,-0.04283 0.289704,0.0018 0.531286,0.0078 0.53685,0.01338 0.01406,0.01406 -0.22289,0.430248 -0.391853,0.688259 -0.381918,0.583201 -0.839235,1.1066 -1.346194,1.540716 l -0.175453,0.150243 -0.906599,0 -0.906599,0 0.285674,-0.155694 z"
         id="path3097"
         inkscape:connector-curvature="0"
         transform="translate(1031,265.99999)" />
      <path
         style="fill:#008080;fill-opacity:0.24636727"
         d="m 10.811358,13.320979 c 0.637254,-0.363515 0.891035,-0.547365 1.290577,-0.934955 0.344255,-0.333955 0.610646,-0.640183 0.872237,-1.002674 0.194276,-0.269211 0.198649,-0.273395 0.30194,-0.288885 0.105815,-0.01587 0.927948,0.0055 0.947068,0.02465 0.01631,0.01631 -0.324777,0.585952 -0.49959,0.834361 -0.351698,0.499762 -0.699289,0.892219 -1.151474,1.300103 l -0.245846,0.22176 -0.892733,-1.5e-5 -0.892733,-1.5e-5 0.270554,-0.154334 z"
         id="path3099"
         inkscape:connector-curvature="0"
         transform="translate(1031,265.99999)" />
      <path
         style="fill:#008080;fill-opacity:0.24636727"
         d="M 7.5534445,14.977025 C 6.5580753,14.88663 5.80939,14.690795 5.0066032,14.310842 4.0831237,13.873767 3.2083329,13.18899 2.5909821,12.41992 l -0.1171128,-0.145895 0.6402777,-0.01127 0.6402777,-0.01127 0.1705201,0.159671 c 0.9289989,0.869893 2.1917525,1.438349 3.4805259,1.566833 0.4249327,0.04236 1.1873513,0.01608 1.5909249,-0.05485 0.4274492,-0.07512 0.8431874,-0.191071 1.2069324,-0.336608 l 0.293815,-0.117557 0.912402,0.01127 0.912402,0.01127 -0.14655,0.108864 c -0.978371,0.726774 -2.094934,1.17562 -3.3235195,1.336017 -0.2454537,0.03205 -1.0988955,0.05875 -1.298433,0.04063 z"
         id="path3101"
         inkscape:connector-curvature="0"
         transform="translate(1031,265.99999)" />
      <path
         style="fill:#008080;fill-opacity:0.24636727"
         d="M 7.3054372,14.942989 C 6.0367337,14.797081 4.940634,14.381421 3.9431265,13.667941 3.4901606,13.343952 3.0862091,12.975696 2.7232391,12.555852 l -0.2241566,-0.25928 0.3007524,-0.01425 c 0.1654139,-0.0078 0.4455116,-0.01544 0.6224394,-0.01691 l 0.3216869,-0.0027 0.2194198,0.194376 c 0.9326381,0.826188 1.9886677,1.315421 3.2374057,1.499814 0.2820602,0.04165 0.3851568,0.04562 0.8937644,0.03445 0.6050847,-0.01329 0.8808671,-0.04328 1.2851103,-0.139732 0.2714322,-0.06476 0.7119936,-0.206596 0.9518716,-0.306441 0.187168,-0.0779 0.219631,-0.07911 1.364144,-0.05049 l 0.591219,0.01478 -0.233792,0.164806 c -1.048481,0.739099 -2.2575299,1.183004 -3.4625384,1.271278 -0.3592755,0.02632 -1.0457297,0.02493 -1.2851284,-0.0026 z"
         id="path3103"
         inkscape:connector-curvature="0"
         transform="translate(1031,265.99999)" />
      <path
         style="fill:#008080;fill-opacity:0.24636727"
         d="M 7.5647175,14.943164 C 7.0094816,14.920427 6.4514101,14.814714 5.8286669,14.614311 4.6351783,14.230238 3.5135635,13.468381 2.6434192,12.45073 l -0.1188016,-0.13894 0.1639813,-0.01242 c 0.09019,-0.0068 0.3618234,-0.01724 0.6036305,-0.02312 l 0.4396491,-0.0107 0.090184,0.07876 c 0.4035805,0.352458 0.7455046,0.610111 1.0483942,0.790006 0.6660063,0.39556 1.2368997,0.614162 2.02915,0.776986 0.318839,0.06553 0.3955332,0.07272 0.8751424,0.08206 0.9847576,0.01918 1.5672145,-0.07436 2.3878684,-0.383493 l 0.310548,-0.11698 0.822933,0.0053 c 0.452613,0.0029 0.851471,0.01118 0.886352,0.01833 0.06226,0.01275 0.06082,0.01483 -0.07891,0.113655 -0.596032,0.421553 -1.329339,0.792227 -1.991111,1.00647 -0.3324996,0.107645 -0.8720197,0.226661 -1.2513091,0.276035 -0.2133441,0.02777 -0.9432062,0.04492 -1.2964014,0.03045 l 0,0 z"
         id="path3105"
         inkscape:connector-curvature="0"
         transform="translate(1031,265.99999)" />
      <path
         style="fill:#008080;fill-opacity:0.24636727"
         d="M 2.3066721,12.046458 C 2.0875117,11.737495 1.7365477,11.142382 1.7365477,11.079725 c 0,-0.0066 0.2465636,-0.01192 0.5479191,-0.01192 l 0.5479192,0 0.131841,0.20507 c 0.1725656,0.268415 0.4093593,0.573425 0.605391,0.779796 0.086674,0.09124 0.152843,0.170645 0.1470429,0.176445 -0.0058,0.0058 -0.2897724,0.01733 -0.6310497,0.02562 l -0.6205041,0.01507 -0.158435,-0.223355 0,0 z"
         id="path3107"
         inkscape:connector-curvature="0"
         transform="translate(1031,265.99999)" />
      <path
         style="fill:#008080;fill-opacity:0.24636727"
         d="M 2.6471671,12.268575 2.4643002,12.26103 2.2157627,11.884244 c -0.213953,-0.324356 -0.4566689,-0.736791 -0.4566689,-0.775996 0,-0.0067 0.1141397,-0.01791 0.2536437,-0.02487 0.1395041,-0.007 0.2688624,-0.01491 0.287463,-0.01766 0.018601,-0.0028 0.1419127,-0.0034 0.274027,-0.0015 l 0.2402079,0.0036 0.2219874,0.319109 c 0.1220931,0.175509 0.3200394,0.43284 0.4398808,0.571845 L 3.694197,12.2115 3.5439419,12.225693 c -0.08264,0.0078 -0.2770769,0.0156 -0.4320814,0.01732 -0.1843789,0.002 -0.2545411,0.0089 -0.202915,0.01974 l 0.078911,0.01661 -0.078911,-0.0016 c -0.043401,-8.91e-4 -0.1612015,-0.005 -0.2617784,-0.0092 l 0,0 z"
         id="path3109"
         inkscape:connector-curvature="0"
         transform="translate(1031,265.99999)" />
      <path
         style="fill:#008080;fill-opacity:0.24636727"
         d="m 2.4531065,12.223297 c -0.049638,-0.05685 -0.5064158,-0.780103 -0.5987344,-0.948027 -0.042938,-0.0781 -0.073519,-0.146551 -0.067959,-0.152111 0.018262,-0.01826 0.5426573,-0.05464 0.7843412,-0.05441 l 0.2367342,2.24e-4 0.078911,0.11775 c 0.1279162,0.190874 0.5267024,0.715905 0.6513262,0.857519 0.063383,0.07202 0.1152416,0.138583 0.1152416,0.147909 0,0.01396 -0.9066436,0.07206 -1.1069017,0.07093 -0.032179,-1.81e-4 -0.074011,-0.01809 -0.092959,-0.03979 z"
         id="path3111"
         inkscape:connector-curvature="0"
         transform="translate(1031,265.99999)" />
      <path
         style="fill:#008080;fill-opacity:0.24636727"
         d="m 7.2377989,13.942014 c -0.2091742,-0.02594 -0.5875602,-0.09536 -0.6032344,-0.110684 -0.00317,-0.0031 0.6123391,-0.0047 1.3677965,-0.0036 0.7554574,0.0011 1.3718684,0.0037 1.3698021,0.0057 -0.012804,0.01272 -0.5365102,0.09959 -0.7187071,0.119226 -0.2952478,0.03182 -1.1234065,0.02559 -1.4156571,-0.01065 z"
         id="path3113"
         inkscape:connector-curvature="0"
         transform="translate(1031,265.99999)" />
    </g>
  </g>
</svg>
