<?xml version="1.0" encoding="UTF-8" standalone="no"?>
<!-- Created with Inkscape (http://www.inkscape.org/) -->

<svg
   xmlns:dc="http://purl.org/dc/elements/1.1/"
   xmlns:cc="http://creativecommons.org/ns#"
   xmlns:rdf="http://www.w3.org/1999/02/22-rdf-syntax-ns#"
   xmlns:svg="http://www.w3.org/2000/svg"
   xmlns="http://www.w3.org/2000/svg"
   xmlns:xlink="http://www.w3.org/1999/xlink"
   xmlns:sodipodi="http://sodipodi.sourceforge.net/DTD/sodipodi-0.dtd"
   xmlns:inkscape="http://www.inkscape.org/namespaces/inkscape"
   width="16"
   height="16"
   id="svg814"
   version="1.1"
   inkscape:version="0.48.3.1 r9886"
   sodipodi:docname="radio-selected.svg">
  <defs
     id="defs816">
    <linearGradient
       id="linearGradient3805">
      <stop
         style="stop-color:#323947;stop-opacity:1;"
         offset="0"
         id="stop3807" />
      <stop
         style="stop-color:#1d2026;stop-opacity:1;"
         offset="1"
         id="stop3813" />
    </linearGradient>
    <linearGradient
       id="linearGradient3793">
      <stop
         style="stop-color:#1a1a1c;stop-opacity:1;"
         offset="0"
         id="stop3795" />
      <stop
         style="stop-color:#1d2026;stop-opacity:1;"
         offset="1"
         id="stop3797" />
    </linearGradient>
    <linearGradient
       inkscape:collect="always"
       xlink:href="#linearGradient10354-2"
       id="linearGradient8378"
       gradientUnits="userSpaceOnUse"
       gradientTransform="translate(-1609.9926,-78.958432)"
       x1="1205.5752"
       y1="-186.45331"
       x2="1205.5752"
       y2="-202.34555" />
    <linearGradient
       id="linearGradient10354-2"
       inkscape:collect="always">
      <stop
         id="stop10356-2"
         offset="0"
         style="stop-color:#acbbcd;stop-opacity:1" />
      <stop
         id="stop10358-2"
         offset="1"
         style="stop-color:#e8e6df;stop-opacity:1" />
    </linearGradient>
    <linearGradient
       inkscape:collect="always"
       xlink:href="#linearGradient10332-5"
       id="linearGradient8380"
       gradientUnits="userSpaceOnUse"
       gradientTransform="matrix(0.84941206,0,0,0.84794288,-623.98415,-483.16392)"
       x1="260.92538"
       y1="233.77748"
       x2="260.92538"
       y2="248.97633" />
    <linearGradient
       inkscape:collect="always"
       id="linearGradient10332-5">
      <stop
         style="stop-color:#9fcecc;stop-opacity:1"
         offset="0"
         id="stop10334-5" />
      <stop
         style="stop-color:#82e6c2;stop-opacity:1"
         offset="1"
         id="stop10336-29" />
    </linearGradient>
    <linearGradient
       inkscape:collect="always"
       xlink:href="#linearGradient11577-0-5-0-2"
       id="linearGradient8358"
       gradientUnits="userSpaceOnUse"
       x1="662.53418"
       y1="249.29141"
       x2="662.53418"
       y2="262.49979" />
    <linearGradient
       id="linearGradient11577-0-5-0-2">
      <stop
         id="stop11579-5-6-7-4"
         offset="0"
         style="stop-color:#9bc8ff;stop-opacity:1;" />
      <stop
         style="stop-color:#a1ccfb;stop-opacity:1;"
         offset="0.25"
         id="stop3803" />
      <stop
         style="stop-color:#b2dafc;stop-opacity:1;"
         offset="0.5"
         id="stop3801" />
      <stop
         id="stop11581-8-0-0-9"
         offset="1"
         style="stop-color:#d3f6ff;stop-opacity:1;" />
    </linearGradient>
    <linearGradient
       inkscape:collect="always"
       xlink:href="#linearGradient12415-4-1-5"
       id="linearGradient8360"
       gradientUnits="userSpaceOnUse"
       x1="664.26984"
       y1="261.44751"
       x2="664.26984"
       y2="248.05356" />
    <linearGradient
       id="linearGradient12415-4-1-5">
      <stop
         id="stop12417-2-8-0"
         offset="0"
         style="stop-color:#bfbfbf;stop-opacity:1;" />
      <stop
         id="stop12419-5-0-9"
         offset="1"
         style="stop-color:#909090;stop-opacity:1;" />
    </linearGradient>
    <linearGradient
       inkscape:collect="always"
       xlink:href="#linearGradient11623-4-5-4"
       id="linearGradient8362"
       gradientUnits="userSpaceOnUse"
       x1="661.04559"
       y1="251.6946"
       x2="661.04559"
       y2="258.26358" />
    <linearGradient
       id="linearGradient11623-4-5-4"
       inkscape:collect="always">
      <stop
         id="stop11625-5-6-0"
         offset="0"
         style="stop-color:#2e87e3;stop-opacity:1" />
      <stop
         id="stop11627-4-4-9"
         offset="1"
         style="stop-color:#76b0ec;stop-opacity:1" />
    </linearGradient>
    <linearGradient
       inkscape:collect="always"
       xlink:href="#linearGradient12387-1-5"
       id="linearGradient8364"
       gradientUnits="userSpaceOnUse"
       x1="662.26074"
       y1="251.66537"
       x2="662.26074"
       y2="259.77792" />
    <linearGradient
       id="linearGradient12387-1-5"
       inkscape:collect="always">
      <stop
         id="stop12389-7-2"
         offset="0"
         style="stop-color:#1b6fc5;stop-opacity:1;" />
      <stop
         id="stop12391-1-4"
         offset="1"
         style="stop-color:#145393;stop-opacity:1" />
    </linearGradient>
    <linearGradient
       inkscape:collect="always"
       xlink:href="#linearGradient11553-0-7-9"
       id="linearGradient8366"
       gradientUnits="userSpaceOnUse"
       x1="660.16144"
       y1="246.69635"
       x2="660.27411"
       y2="260.70532" />
    <linearGradient
       id="linearGradient11553-0-7-9">
      <stop
         id="stop11555-5-9-8"
         offset="0"
         style="stop-color:#e8e6df;stop-opacity:1;" />
      <stop
         id="stop11557-1-9-0"
         offset="1"
         style="stop-color:#e8e6df;stop-opacity:0;" />
    </linearGradient>
    <radialGradient
       inkscape:collect="always"
       xlink:href="#linearGradient12405-7"
       id="radialGradient8368"
       gradientUnits="userSpaceOnUse"
       gradientTransform="matrix(1.4685542,0,0,2.2820942,-309.65132,-324.35943)"
       cx="660.8656"
       cy="251.41324"
       fx="660.8656"
       fy="251.41324"
       r="5.0290799"
       spreadMethod="pad" />
    <linearGradient
       id="linearGradient12405-7">
      <stop
         id="stop12407-9"
         offset="0"
         style="stop-color:#fbfdfd;stop-opacity:1;" />
      <stop
         id="stop12409-7"
         offset="1"
         style="stop-color:#1a1a1c;stop-opacity:0;" />
    </linearGradient>
    <radialGradient
       inkscape:collect="always"
       xlink:href="#linearGradient12692-5-0"
       id="radialGradient8370"
       gradientUnits="userSpaceOnUse"
       gradientTransform="matrix(2.4143887,0,0,1.7213698,-937.76662,-194.09437)"
       cx="663.01904"
       cy="269.82831"
       fx="663.01904"
       fy="269.82831"
       r="2.3864853" />
    <linearGradient
       id="linearGradient12692-5-0"
       inkscape:collect="always">
      <stop
         id="stop12694-4-1"
         offset="0"
         style="stop-color:#e8e6df;stop-opacity:1;" />
      <stop
         id="stop12696-5-2"
         offset="1"
         style="stop-color:#e8e6df;stop-opacity:0;" />
    </linearGradient>
    <radialGradient
       r="2.3864853"
       fy="269.82831"
       fx="663.01904"
       cy="269.82831"
       cx="663.01904"
       gradientTransform="matrix(2.4143887,0,0,1.7213698,-937.76662,-194.09437)"
       gradientUnits="userSpaceOnUse"
       id="radialGradient5029"
       xlink:href="#linearGradient12692-5-0"
       inkscape:collect="always" />
    <linearGradient
       inkscape:collect="always"
       xlink:href="#linearGradient3805"
       id="linearGradient3794"
       gradientUnits="userSpaceOnUse"
       x1="662.68768"
       y1="247.78085"
       x2="662.53418"
       y2="262.49979"
       spreadMethod="pad" />
    <linearGradient
       inkscape:collect="always"
       xlink:href="#linearGradient3793"
       id="linearGradient3799"
       x1="660.28619"
       y1="259.03784"
       x2="660.25543"
       y2="248.25285"
       gradientUnits="userSpaceOnUse" />
    <linearGradient
       y2="2.3041239"
       x2="8.9492645"
       y1="15.594499"
       x1="8.9492645"
       gradientUnits="userSpaceOnUse"
       id="linearGradient3058"
       xlink:href="#linearGradient3815"
       inkscape:collect="always" />
    <linearGradient
       id="linearGradient3815">
      <stop
         style="stop-color:#e8e6df;stop-opacity:0.15294118;"
         offset="0"
         id="stop3817" />
      <stop
         style="stop-color:#1a1a1c;stop-opacity:0;"
         offset="1"
         id="stop3819" />
    </linearGradient>
    <linearGradient
       y2="2.3041239"
       x2="8.9492645"
       y1="15.594499"
       x1="8.9492645"
       gradientUnits="userSpaceOnUse"
       id="linearGradient3885"
       xlink:href="#linearGradient3815"
       inkscape:collect="always" />
    <linearGradient
       inkscape:collect="always"
       xlink:href="#linearGradient3803"
       id="linearGradient3797"
       x1="660.14856"
       y1="261.69751"
       x2="660.14856"
       y2="247.10995"
       gradientUnits="userSpaceOnUse"
       spreadMethod="pad" />
    <linearGradient
       id="linearGradient3803">
      <stop
         style="stop-color:#1a1a1c;stop-opacity:1;"
         offset="0"
         id="stop3805" />
      <stop
         id="stop3807-3"
         offset="0.33333284"
         style="stop-color:#1a1a1c;stop-opacity:0.98431373;" />
      <stop
         id="stop3809-7"
         offset="0.66666645"
         style="stop-color:#040506;stop-opacity:1;" />
      <stop
         style="stop-color:#e8e6df;stop-opacity:0.05098039;"
         offset="1"
         id="stop3811-3" />
    </linearGradient>
    <linearGradient
       y2="247.10995"
       x2="660.14856"
       y1="261.69751"
       x1="660.14856"
       spreadMethod="pad"
       gradientUnits="userSpaceOnUse"
       id="linearGradient3058-0"
       xlink:href="#linearGradient3803"
       inkscape:collect="always" />
  </defs>
  <sodipodi:namedview
     id="base"
     pagecolor="#e8e6df"
     bordercolor="#666666"
     borderopacity="1.0"
     inkscape:pageopacity="0.0"
     inkscape:pageshadow="2"
     inkscape:zoom="34.720695"
     inkscape:cx="2.5648636"
     inkscape:cy="8.5444691"
     inkscape:document-units="px"
     inkscape:current-layer="g6305"
     showgrid="true"
     borderlayer="true"
     inkscape:showpageshadow="false"
     inkscape:window-width="1366"
     inkscape:window-height="744"
     inkscape:window-x="0"
     inkscape:window-y="24"
     inkscape:window-maximized="1">
    <inkscape:grid
       type="xygrid"
       id="grid4084"
       empspacing="5"
       visible="true"
       enabled="true"
       snapvisiblegridlinesonly="true" />
  </sodipodi:namedview>
  <metadata
     id="metadata819">
    <rdf:RDF>
      <cc:Work
         rdf:about="">
        <dc:format>image/svg+xml</dc:format>
        <dc:type
           rdf:resource="http://purl.org/dc/dcmitype/StillImage" />
        <dc:title />
      </cc:Work>
    </rdf:RDF>
  </metadata>
  <g
     inkscape:label="Layer 1"
     inkscape:groupmode="layer"
     id="layer1"
     transform="translate(0,-1036.3622)">
    <g
       transform="translate(-1031,770.36221)"
       id="g6305"
       style="display:inline;enable-background:new">
      <path
         sodipodi:type="arc"
         style="fill:none;stroke:url(#linearGradient3885);stroke-width:1.18900001;stroke-miterlimit:4;stroke-opacity:1;stroke-dasharray:none;display:inline;enable-background:new"
         id="path3813"
         sodipodi:cx="8"
         sodipodi:cy="8"
         sodipodi:rx="7"
         sodipodi:ry="7"
         d="m 15,8 c 0,3.865993 -3.134007,7 -7,7 C 4.1340068,15 1,11.865993 1,8 1,4.1340068 4.1340068,1 8,1 c 3.865993,0 7,3.1340068 7,7 z"
         transform="matrix(1.0533938,0,0,1.0533939,1030.5728,265.57284)" />
      <path
         transform="matrix(1.4419436,0,0,-0.89116967,85.92127,501.3078)"
         d="m 665.47588,255.0668 c 0,4.02825 -2.01821,7.29379 -4.5078,7.29379 -2.48959,0 -4.50781,-3.26554 -4.50781,-7.29379 0,-4.02824 2.01822,-7.29378 4.50781,-7.29378 2.48959,0 4.5078,3.26554 4.5078,7.29378 z"
         sodipodi:ry="7.2937827"
         sodipodi:rx="4.5078058"
         sodipodi:cy="255.0668"
         sodipodi:cx="660.96808"
         id="path6307"
         style="color:#1a1a1c;fill:url(#linearGradient3794);fill-opacity:1;fill-rule:nonzero;stroke:url(#linearGradient3799);stroke-width:0.88215655000000004;stroke-linecap:square;stroke-linejoin:round;stroke-miterlimit:4;stroke-opacity:1;stroke-dasharray:none;stroke-dashoffset:100;marker:none;visibility:visible;display:inline;overflow:visible;enable-background:new"
         sodipodi:type="arc" />
      <path
         sodipodi:type="arc"
         style="fill:#9fb8d5;fill-opacity:1;fill-rule:nonzero;stroke:#84aef0;stroke-opacity:0.5442478"
         id="path3796"
         sodipodi:cx="8.5927467"
         sodipodi:cy="8.3347244"
         sodipodi:rx="2.1550064"
         sodipodi:ry="2.1550064"
         d="m 10.747753,8.3347244 c 0,1.1901772 -0.9648291,2.1550066 -2.1550063,2.1550066 -1.1901771,0 -2.1550064,-0.9648294 -2.1550064,-2.1550066 0,-1.1901771 0.9648293,-2.1550064 2.1550064,-2.1550064 1.1901772,0 2.1550063,0.9648293 2.1550063,2.1550064 z"
         transform="matrix(1.0564946,0,0,1.0564946,1029.9188,265.2244)" />
      <path
         sodipodi:type="arc"
         style="opacity:0.12955466;fill:none;stroke:url(#linearGradient3058-0);stroke-width:1.04254842;stroke-linecap:square;stroke-linejoin:round;stroke-miterlimit:4;stroke-opacity:1;stroke-dasharray:none;stroke-dashoffset:100;display:inline;enable-background:new"
         id="path6313"
         sodipodi:cx="660.96808"
         sodipodi:cy="255.0668"
         sodipodi:rx="4.5078058"
         sodipodi:ry="7.2937827"
         d="m 665.47588,255.0668 c 0,4.02825 -2.01821,7.29379 -4.5078,7.29379 -2.48959,0 -4.50781,-3.26554 -4.50781,-7.29379 0,-4.02824 2.01822,-7.29378 4.50781,-7.29378 2.48959,0 4.5078,3.26554 4.5078,7.29378 z"
         transform="matrix(1.2201064,0,0,-0.75406683,232.54862,466.33741)" />
      <path
         style="fill:#008080;fill-opacity:0.24636727"
         d="m 2.6795096,10.748199 -0.078892,-0.178672 0.540324,-0.0094 0.5403241,-0.0094 -0.1052101,-0.20842 C 2.9853501,9.1722225 2.8589931,7.7737306 3.2329665,6.5451643 l 0.05957,-0.1956977 1.2152829,-0.00894 c 0.6684057,-0.00492 1.215283,-0.00177 1.215283,0.007 0,0.00876 -0.039722,0.074045 -0.088271,0.145069 C 5.4887832,6.7062531 5.3885518,6.924974 5.2919253,7.2408705 5.2114179,7.5040699 5.2000899,7.5986999 5.1990079,8.0170712 5.1979787,8.4150312 5.2108,8.539691 5.2768288,8.7737127 5.5105818,9.602188 6.099827,10.285505 6.8631996,10.613343 l 0.1701637,0.07308 -1.3272771,0.0013 c -0.7300025,7.21e-4 -1.4538846,0.01117 -1.6086271,0.02322 l -0.2813498,0.0219 0.051629,0.0788 c 0.028396,0.04334 0.051629,0.08699 0.051629,0.09701 0,0.01002 -0.2612173,0.01821 -0.5804828,0.01821 l -0.5804829,0 -0.078892,-0.178672 0,0 z"
         id="path3047"
         inkscape:connector-curvature="0"
         transform="translate(1031,265.99999)" />
      <path
         style="fill:#008080;fill-opacity:0.24636727"
         d="m 10.718682,7.2651898 c -0.0098,-0.01698 -0.03729,-0.092131 -0.06104,-0.1670027 C 10.525585,6.681843 10.1895,6.1902847 9.8299982,5.8876735 8.9065563,5.1103654 7.5967319,4.9972583 6.5569048,5.6050325 6.3871566,5.7042495 6.177278,5.8711549 5.9994971,6.0483093 l -0.2851459,0.2841409 -1.2037868,0 c -0.9404261,0 -1.203752,-0.00931 -1.2036275,-0.042541 8.77e-5,-0.023397 0.089853,-0.2263178 0.1994779,-0.4509339 C 4.0720644,4.679989 4.9798077,3.8459508 6.214814,3.3504871 6.75004,3.1357635 7.3209407,3.0327009 7.9797612,3.0318679 c 0.8791891,-0.00111 1.5720822,0.1650807 2.3242688,0.5574822 1.07876,0.562769 1.924583,1.5034885 2.358925,2.6235848 0.129651,0.3343474 0.300622,0.9901789 0.26692,1.0238811 -0.03222,0.032217 -2.192929,0.059943 -2.211193,0.028374 l 0,0 z"
         id="path3049"
         inkscape:connector-curvature="0"
         transform="translate(1031,265.99999)" />
      <path
         style="fill:#008080;fill-opacity:0.24636727"
         d="m 4.1210246,11.145464 -0.1157281,-0.1194 -0.5871608,0.01 c -0.5747343,0.0098 -0.6218494,0.0026 -0.6218494,-0.09492 0,-0.0078 0.2526931,-0.01423 0.5615403,-0.01423 0.4380625,0 0.5615403,-0.0097 0.5615403,-0.04424 0,-0.02433 -0.016828,-0.06107 -0.037396,-0.08164 -0.063951,-0.06395 0.095141,-0.07346 1.622878,-0.09697 1.4565845,-0.02242 1.4683905,-0.02204 1.7697028,0.05584 0.4095464,0.10586 1.0276655,0.106587 1.4264166,0.0017 1.1328804,-0.298059 1.9607291,-1.2528165 2.0920811,-2.4127976 0.03351,-0.2959492 0.01127,-0.7215912 -0.05058,-0.9680412 l -0.022,-0.08765 1.100281,-0.01452 c 0.605155,-0.00799 1.104274,-0.012103 1.109154,-0.00915 0.0049,0.00295 0.02154,0.1676219 0.03701,0.3659285 0.06838,0.8761689 -0.117674,1.8399026 -0.503259,2.606793 -0.07601,0.151177 -0.1382,0.282864 -0.1382,0.292638 0,0.0098 0.237379,0.01777 0.527508,0.01777 0.338734,0 0.527508,0.01253 0.527508,0.035 0,0.01925 -0.04617,0.126455 -0.102589,0.238229 l -0.102588,0.203226 -0.602313,0 -0.602312,0 -0.06934,0.08628 -0.06934,0.08628 -2.0759979,0.01593 c -1.1417987,0.0088 -2.8507249,0.02301 -3.797614,0.03167 l -1.7216163,0.01574 -0.1157282,-0.119402 0,0 z"
         id="path3051"
         inkscape:connector-curvature="0"
         transform="translate(1031,265.99999)" />
      <path
         style="fill:#008080;fill-opacity:0.24636727"
         d="M 7.1812945,12.916605 C 6.1717928,12.74633 5.277583,12.29116 4.4468745,11.524735 L 4.242678,11.33634 l -0.6125894,-8e-4 -0.6125895,-8e-4 -0.076574,-0.134103 c -0.042115,-0.07376 -0.076516,-0.138727 -0.076445,-0.144377 7.05e-5,-0.0057 0.2614243,-0.01027 0.5807863,-0.01027 l 0.580658,0 0.093344,0.114111 0.093345,0.114112 3.7989413,-0.02903 3.7989414,-0.02903 0.09769,-0.09359 0.09769,-0.09359 0.568186,0 c 0.312502,0 0.568186,0.007 0.568186,0.01563 0,0.0086 -0.03967,0.08134 -0.08815,0.161655 l -0.08815,0.146026 -0.611204,-0.01 -0.611204,-0.01001 -0.296106,0.277305 c -0.726597,0.680462 -1.6183759,1.127431 -2.5760832,1.291159 -0.4642121,0.07936 -1.2688518,0.08692 -1.6900543,0.01587 z"
         id="path3053"
         inkscape:connector-curvature="0"
         transform="translate(1031,265.99999)" />
      <path
         style="fill:#008080;fill-opacity:0.24636727"
         d="m 12.404419,10.407872 c 0.01,-0.0234 0.07968,-0.180374 0.154854,-0.348836 0.287766,-0.6449007 0.419388,-1.2816616 0.425603,-2.0589811 0.0023,-0.2901292 0.0089,-0.46242 0.01468,-0.3828685 l 0.01046,0.1446392 0.470861,0 c 0.410717,0 0.47368,0.00735 0.492936,0.057529 0.03039,0.079184 -0.01034,0.7427662 -0.06919,1.1272261 -0.06209,0.4056555 -0.154018,0.7555208 -0.307961,1.1720128 l -0.122647,0.33182 -0.543894,0 c -0.422123,0 -0.539824,-0.0095 -0.525714,-0.04254 z"
         id="path3055"
         inkscape:connector-curvature="0"
         transform="translate(1031,265.99999)" />
      <path
         style="fill:#008080;fill-opacity:0.24636727"
         d="M 13.491077,7.7704115 C 13.138054,7.7628012 13.005817,7.748637 13.005032,7.7183503 13.001507,7.5823344 12.902847,6.9619599 12.854989,6.774876 12.686902,6.1178051 12.316884,5.3852856 11.90089,4.8860585 c -0.07799,-0.09359 -0.153099,-0.1893072 -0.166917,-0.2127047 -0.01972,-0.03339 0.107169,-0.042541 0.589897,-0.042541 l 0.61502,0 0.125223,0.1956883 c 0.434233,0.6785834 0.764282,1.5739651 0.856191,2.322735 0.05724,0.4663516 0.07575,0.6471224 0.06542,0.6391261 -0.0053,-0.00412 -0.227915,-0.012201 -0.494647,-0.017951 z"
         id="path3057"
         inkscape:connector-curvature="0"
         transform="translate(1031,265.99999)" />
      <path
         style="fill:#008080;fill-opacity:0.24636727"
         d="m 2.2517623,6.298878 c 0,-0.06325 0.2624683,-0.7320206 0.3737521,-0.9523226 1.3812593,-2.7343973 4.525577,-3.9913435 7.4247586,-2.9680594 0.997284,0.3519973 1.999167,1.0789984 2.65837,1.9290058 l 0.237541,0.3062947 -0.608151,0.017016 -0.608151,0.017016 -0.255245,-0.2400277 C 11.005974,3.9670812 10.595855,3.6893331 10.052711,3.4448192 9.0769913,3.0055683 7.9475785,2.8962104 6.8661369,3.136272 5.6338639,3.4098157 4.5181333,4.1892375 3.7996854,5.2784193 3.6214842,5.548576 3.3819971,6.0208103 3.2953519,6.2728929 c -0.018276,0.053172 -0.075318,0.059557 -0.5320303,0.059557 -0.3136729,0 -0.5115593,-0.012987 -0.5115593,-0.033572 z"
         id="path3059"
         inkscape:connector-curvature="0"
         transform="translate(1031,265.99999)" />
      <path
         style="fill:#008080;fill-opacity:0.24636727"
         d="M 2.0705352,8.918939 C 2.0569473,8.834708 2.0363677,8.5190589 2.0248028,8.2174967 2.0018578,7.6191938 2.0574505,7.0625136 2.1892616,6.5706795 l 0.068406,-0.2552456 0.5105134,0.010245 c 0.4464763,0.00896 0.5079521,0.01692 0.4900932,0.063459 -0.054244,0.1413572 -0.1909223,0.7398972 -0.2262291,0.9906984 -0.039314,0.2792682 -0.025086,1.2299465 0.02189,1.4625287 l 0.022339,0.1106065 -0.4778257,0 c -0.427549,0 -0.4791611,0.00627 -0.4905166,0.059557 -0.00698,0.032756 -0.023808,-0.00936 -0.037396,-0.09359 z"
         id="path3061"
         inkscape:connector-curvature="0"
         transform="translate(1031,265.99999)" />
      <path
         style="fill:#008080;fill-opacity:0.24636727"
         d="M 2.5111818,10.389101 C 2.4178937,10.238157 2.1156313,9.2430941 2.1156313,9.0869283 c 0,-0.08638 0.00944,-0.090973 0.2297211,-0.1117769 0.1263465,-0.011933 0.34561,-0.021805 0.4872521,-0.021938 l 0.2575312,-2.419e-4 0.061739,0.2637538 c 0.065256,0.2787769 0.1930705,0.6447177 0.3391143,0.9709034 0.048428,0.108163 0.08805,0.20388 0.08805,0.212705 0,0.02821 -1.05031,0.01716 -1.0678577,-0.01123 z"
         id="path3063"
         inkscape:connector-curvature="0"
         transform="translate(1031,265.99999)" />
      <path
         style="fill:#008080;fill-opacity:0.24636727"
         d="m 2.558057,10.484445 c -0.035724,-0.06675 -0.025881,-0.06806 0.5092938,-0.06806 0.3001468,0 0.5457214,0.0064 0.5457214,0.01423 0,0.0078 0.0093,0.03846 0.020657,0.06807 0.018292,0.04767 -0.04003,0.05383 -0.5092938,0.05383 -0.4951203,0 -0.5323455,-0.0045 -0.5663789,-0.06807 z"
         id="path3065"
         inkscape:connector-curvature="0"
         transform="translate(1031,265.99999)" />
      <path
         style="fill:#008080;fill-opacity:0.24636727"
         d="M 3.5520249,12.000103 C 3.4585385,11.897814 3.3036838,11.706379 3.2079035,11.574693 l -0.1741461,-0.239429 0.5992425,0 0.5992425,0 0.2264306,0.2092 c 0.1245369,0.11506 0.3489486,0.300439 0.4986927,0.411954 0.1497441,0.111515 0.2786431,0.208809 0.2864423,0.21621 0.0078,0.0074 -0.331417,0.01346 -0.7538137,0.01346 l -0.767994,0 -0.1699754,-0.18598 z"
         id="path3067"
         inkscape:connector-curvature="0"
         transform="translate(1031,265.99999)" />
      <path
         style="fill:#008080;fill-opacity:0.24636727"
         d="M 5.7231025,13.533208 C 5.0721611,13.265335 4.2626401,12.735067 3.8531335,12.308307 l -0.1172825,-0.122224 0.76575,0 0.7657499,0 0.1647109,0.104456 c 0.3116581,0.197648 0.9463471,0.462004 1.3120231,0.546475 0.084231,0.01946 0.1837769,0.04241 0.2212129,0.051 0.4218022,0.09683 1.0891561,0.13479 1.4974409,0.08517 0.4812162,-0.05848 0.5716048,-0.07256 0.6806549,-0.106062 0.056154,-0.01725 0.2322735,-0.06982 0.3913766,-0.116833 0.1591031,-0.04701 0.3499468,-0.116614 0.424097,-0.154678 0.07415,-0.03806 0.1516268,-0.06921 0.1721708,-0.06921 0.08406,0 1.040964,-0.623242 1.107825,-0.72154 0.01071,-0.01575 0.33047,-0.02447 0.710577,-0.0194 l 0.691104,0.0092 -0.370249,0.376974 c -0.564843,0.575101 -1.159861,0.993442 -1.841894,1.294984 l -0.298058,0.131778 -2.11003,0.0059 -2.1100304,0.0059 -0.1871801,-0.07703 z"
         id="path3069"
         inkscape:connector-curvature="0"
         transform="translate(1031,265.99999)" />
      <path
         style="fill:#008080;fill-opacity:0.24636727"
         d="m 7.5949036,13.969991 c -0.5116331,-0.04152 -1.3917284,-0.2214 -1.5582851,-0.318494 -0.039241,-0.02288 0.6030253,-0.03397 1.9666781,-0.03397 1.252299,0 2.0044744,0.01198 1.9712904,0.03139 -0.092839,0.05431 -0.7161903,0.209791 -1.0334802,0.257785 -0.3199947,0.0484 -1.0859233,0.08441 -1.3462032,0.06329 z"
         id="path3071"
         inkscape:connector-curvature="0"
         transform="translate(1031,265.99999)" />
      <path
         style="fill:#008080;fill-opacity:0.24636727"
         d="m 11.525686,11.553059 0.238229,-0.22195 0.35413,0.01909 c 0.194771,0.0105 0.459929,0.01909 0.589239,0.01909 l 0.235108,0 -0.143235,0.204196 -0.143236,0.204197 -0.684232,-0.0013 -0.684232,-0.0013 0.238229,-0.22195 z"
         id="path3073"
         inkscape:connector-curvature="0"
         transform="translate(1031,265.99999)" />
      <path
         style="fill:#00ffff;fill-opacity:0.24636727000000000"
         d="m 12.989094,10.551042 c -0.205898,-0.01315 -0.433067,-0.02585 -0.504819,-0.02823 -0.07814,-0.0026 -0.125457,-0.01933 -0.117988,-0.04174 0.0084,-0.02533 0.182041,-0.0358 0.537614,-0.03243 0.28883,0.0027 0.52989,0.0097 0.535691,0.01552 0.01784,0.01784 -0.03098,0.122755 -0.05425,0.116588 -0.01204,-0.0032 -0.190346,-0.01656 -0.396244,-0.0297 z"
         id="path3077"
         inkscape:connector-curvature="0"
         transform="translate(1031,265.99999)" />
      <path
         style="fill:#00ffff;fill-opacity:0.24636727"
         d="M 7.6459527,9.732173 C 7.3584109,9.6739457 6.9965167,9.4777093 6.7841617,9.2648684 6.0964657,8.5755988 6.093802,7.4932244 6.7781177,6.8089087 7.6894016,5.8976248 9.218711,6.2576315 9.6403932,7.482702 9.8413188,8.0664309 9.6989561,8.7322655 9.2754081,9.1897479 9.055997,9.4267381 8.8374382,9.5736462 8.5620896,9.6692171 8.3258851,9.7512017 7.888387,9.7812659 7.6459527,9.732173 z"
         id="path3079"
         inkscape:connector-curvature="0"
         transform="translate(1031,265.99999)" />
      <path
         style="fill:#00ffff;fill-opacity:0.24636727"
         d="M 7.5438545,9.6875931 C 6.7713145,9.4402868 6.2938029,8.8019259 6.2968596,8.0205493 6.3022192,6.6505069 7.8169106,5.8556977 8.9672977,6.6192811 9.5458523,7.0033038 9.8318734,7.7706636 9.6527648,8.4583071 9.4955072,9.06206 8.9443304,9.592096 8.3628982,9.6987001 8.0977503,9.7473141 7.7141625,9.7421126 7.5438545,9.6875931 z"
         id="path3081"
         inkscape:connector-curvature="0"
         transform="translate(1031,265.99999)" />
      <path
         style="fill:#00ffff;fill-opacity:0.24636727"
         d="M 7.4096512,9.6169273 C 6.9722017,9.4370989 6.6869249,9.174035 6.4866468,8.7657917 6.1065557,7.9910212 6.3745254,7.0555405 7.1086938,6.5942287 7.8686249,6.1167291 8.9208301,6.3460352 9.4046393,7.0945819 9.7487494,7.6269873 9.7718767,8.3292491 9.462766,8.859608 9.2560427,9.2142949 8.9071369,9.5041493 8.5312372,9.6334777 8.2299227,9.7371451 7.6824401,9.7290665 7.4096512,9.6169273 z"
         id="path3083"
         inkscape:connector-curvature="0"
         transform="translate(1031,265.99999)" />
      <path
         style="fill:#00ffff;fill-opacity:0.24636727"
         d="M 7.6629691,9.6633804 C 7.2747974,9.6004312 6.8203982,9.2929822 6.6098885,8.9508603 6.4424594,8.6787533 6.368472,8.4495298 6.3469329,8.1361858 6.2811582,7.1793152 7.0262395,6.3669675 7.9692638,6.36739 8.4538968,6.3676071 8.8365924,6.5234182 9.1790845,6.8599578 9.4279827,7.1045302 9.5527142,7.3456546 9.6279945,7.7277669 9.7371296,8.2817221 9.5815357,8.7771166 9.168773,9.1898793 8.891244,9.4674082 8.6225656,9.6116524 8.2860559,9.6637794 8.0100138,9.7065398 7.9287872,9.7064878 7.6629691,9.6633804 z"
         id="path3085"
         inkscape:connector-curvature="0"
         transform="translate(1031,265.99999)" />
      <path
         style="fill:#00ffff;fill-opacity:0.24636727"
         d="M 7.5234397,9.6147 C 7.1773074,9.5080858 6.7628586,9.1922135 6.596382,8.9081427 6.2800548,8.3683712 6.2939722,7.5928339 6.6286525,7.10989 6.9897551,6.5888189 7.5762842,6.3221148 8.1884932,6.4006058 8.6128,6.4550059 8.8683233,6.5817207 9.1798706,6.8922329 9.5195497,7.2307834 9.6570329,7.6163071 9.6311492,8.1576867 9.6123913,8.5500238 9.4947094,8.8137494 9.1958181,9.1332651 8.8390696,9.5146305 8.4828314,9.6694448 7.971595,9.665289 7.8112098,9.6639853 7.6095399,9.6412202 7.5234397,9.6147 z"
         id="path3087"
         inkscape:connector-curvature="0"
         transform="translate(1031,265.99999)" />
      <path
         style="fill:#00ffff;fill-opacity:0.24636727"
         d="M 7.6869163,9.6305199 C 7.2738898,9.5700685 6.7420195,9.1812321 6.5580678,8.8052482 6.5096344,8.706254 6.4451958,8.5037313 6.414871,8.3551977 6.2396208,7.4968097 6.7457272,6.6697449 7.5790771,6.4526848 8.1121951,6.3138252 8.6773198,6.4510731 9.0771736,6.8165169 9.4732998,7.1785539 9.6039658,7.478884 9.6068998,8.0340689 9.6088992,8.4124198 9.5713056,8.5714129 9.418055,8.832742 9.3210252,8.9982013 8.9730317,9.3455546 8.7954032,9.4542483 8.5380028,9.6117557 8.0686536,9.6863917 7.6869163,9.6305199 z"
         id="path3089"
         inkscape:connector-curvature="0"
         transform="translate(1031,265.99999)" />
      <path
         style="fill:#00ffff;fill-opacity:0.24636727"
         d="M 7.5559309,9.6005663 C 7.2147564,9.497443 6.7236286,9.1105051 6.5826645,8.8337726 6.3182003,8.3145923 6.3432876,7.5938498 6.6414939,7.1436405 7.2180163,6.2732504 8.4098709,6.1595476 9.1475875,6.9045594 9.4023795,7.1618711 9.5241732,7.392881 9.5743805,7.7140713 9.66876,8.3178431 9.5355129,8.7550941 9.1351496,9.1554098 8.773703,9.5168133 8.4801988,9.6346434 7.9522475,9.6302976 7.7837854,9.6289109 7.6054429,9.6155318 7.5559309,9.6005663 z"
         id="path3091"
         inkscape:connector-curvature="0"
         transform="translate(1031,265.99999)" />
      <path
         style="fill:#00ffff;fill-opacity:0.24636727"
         d="M 7.6221658,9.5986609 C 7.3783638,9.5575591 7.128023,9.4046046 6.8438727,9.1231355 6.616894,8.8982986 6.5769421,8.8395085 6.5085225,8.6296607 6.1356286,7.4859679 6.8565422,6.424242 8.0032966,6.4282312 8.4763007,6.4298766 8.8448907,6.5956389 9.1922616,6.9629325 9.4127106,7.1960248 9.522976,7.4339339 9.5712304,7.7805973 9.6508227,8.3523947 9.5278898,8.7237659 9.1196514,9.1447839 8.969122,9.3000256 8.8086024,9.4280856 8.7003466,9.4792988 8.4123184,9.615558 7.9958671,9.661662 7.6221658,9.5986609 l 0,0 z"
         id="path3093"
         inkscape:connector-curvature="0"
         transform="translate(1031,265.99999)" />
      <path
         style="fill:#00ffff;fill-opacity:0.24636727"
         d="M 7.748051,9.6112758 C 7.424219,9.5727311 7.1409606,9.4164333 6.828296,9.1037687 6.4911889,8.7666616 6.3576151,8.3219146 6.4326195,7.786325 6.5091131,7.2401005 6.8075885,6.8305225 7.3101555,6.5821404 7.5723318,6.4525659 7.5775015,6.4515649 7.9845152,6.4515649 c 0.3931108,0 0.4199791,0.00465 0.646456,0.1118961 0.2892031,0.1369487 0.489253,0.2972406 0.6703937,0.5371599 C 9.6441179,7.554594 9.6842398,8.321523 9.3907435,8.8090942 9.2453822,9.0505759 8.8875285,9.383866 8.6634768,9.4864403 8.514146,9.5548062 8.0112122,9.6463384 7.884182,9.6282693 7.865464,9.6256069 7.804205,9.6179597 7.748051,9.6112758 z"
         id="path3095"
         inkscape:connector-curvature="0"
         transform="translate(1031,265.99999)" />
      <path
         style="fill:#00ffff;fill-opacity:0.24636727"
         d="M 7.4320749,10.213553 C 7.0203252,10.102346 6.7291873,9.9292185 6.4030132,9.6016121 5.9507628,9.1473753 5.7510604,8.6686473 5.7491174,8.0340876 5.7449882,6.6855558 6.9057574,5.645112 8.2491628,5.7931972 9.1939057,5.8973373 9.9936181,6.615196 10.200421,7.544737 10.319421,8.0796193 10.21845,8.70806 9.9370642,9.1838646 9.683445,9.6127167 9.1615821,10.028981 8.6839515,10.183411 8.3584769,10.288645 7.7631784,10.302978 7.4320749,10.213553 l 0,0 z M 8.5137878,9.7006049 C 9.2350407,9.4914495 9.7407885,8.8104616 9.7437752,8.0444298 9.7467748,7.2750834 9.2780568,6.6157342 8.5478205,6.3620714 8.2339323,6.2530358 7.7679948,6.2528885 7.4497122,6.3617242 6.9862735,6.5201956 6.633655,6.8311204 6.421511,7.2683508 5.9951946,8.1469919 6.3505793,9.1638455 7.2375598,9.6032916 c 0.4157125,0.2059608 0.8004127,0.2352946 1.276228,0.097313 l 0,0 z"
         id="path3097"
         inkscape:connector-curvature="0"
         transform="translate(1031,265.99999)" />
      <path
         style="fill:#00ffff;fill-opacity:0.24636727"
         d="M 7.5608709,10.222721 C 6.8180013,10.098507 6.0715601,9.4082442 5.8381575,8.6296607 5.7554746,8.3538473 5.7558541,7.7605462 5.8389086,7.4555309 6.1820616,6.1953111 7.5420998,5.4840168 8.7500041,5.93304 9.4302723,6.1859212 9.9845055,6.7955985 10.164978,7.4895636 10.282469,7.9413522 10.218339,8.5631434 10.00878,9.0040209 9.7463018,9.5562322 9.1371469,10.0584 8.5636783,10.195316 c -0.1879024,0.04486 -0.7985927,0.06155 -1.0028074,0.0274 z M 8.2823916,9.7671222 C 8.8608661,9.6495064 9.2976692,9.3334051 9.5475025,8.8516002 9.9064279,8.1594109 9.7849044,7.3350862 9.2442279,6.7944097 8.2667338,5.8169157 6.6348447,6.2696525 6.2842716,7.6155935 c -0.2407759,0.924401 0.3684049,1.9010154 1.3310899,2.1339508 0.2486118,0.060155 0.4336396,0.065031 0.6670301,0.017578 l 0,0 z"
         id="path3099"
         inkscape:connector-curvature="0"
         transform="translate(1031,265.99999)" />
      <path
         style="fill:#00ffff;fill-opacity:0.24636727"
         d="M 6.2844405,10.222955 C 5.3039355,9.4439503 4.9570967,8.142358 5.4207053,6.9815896 5.7347356,6.1953306 6.4253436,5.5841626 7.2784531,5.3375367 7.6257956,5.2371233 8.3410621,5.2306568 8.6839515,5.3248301 10.360123,5.7851841 11.238272,7.5982062 10.544174,9.1654345 10.374314,9.5489679 10.001116,10.023946 9.7124463,10.223993 l -0.1320746,0.09153 -1.5627825,0.0214 -1.5627826,0.02139 -0.1703661,-0.135355 z m 2.2766705,0.02421 C 9.2171909,10.079372 9.7426123,9.6519438 10.047431,9.0380536 10.659541,7.805292 10.031579,6.3009639 8.7179843,5.8532671 8.4074218,5.7474217 7.8322635,5.7245398 7.475789,5.8038478 6.8757571,5.9373422 6.2636231,6.4004489 5.9878275,6.9295571 5.4098885,8.0383212 5.7694248,9.3641476 6.8204336,9.9998756 7.0151458,10.117652 7.318004,10.234851 7.543511,10.279689 c 0.2657151,0.05283 0.7435872,0.03756 1.0176,-0.03252 z"
         id="path3101"
         inkscape:connector-curvature="0"
         transform="translate(1031,265.99999)" />
      <path
         style="fill:#00ffff;fill-opacity:0.24636727"
         d="M 6.1472801,10.069041 C 5.6834465,9.6299839 5.4483134,9.2325385 5.3100067,8.6537987 5.2503833,8.4043068 5.241959,8.2873807 5.2567756,7.914973 5.2872548,7.1488927 5.507028,6.6436484 6.0429119,6.1076963 6.6636174,5.4869121 7.275951,5.2481605 8.148645,5.2866617 c 0.4661918,0.020567 0.6590156,0.068953 1.0628141,0.2666948 0.6858882,0.3358822 1.2635149,1.0399149 1.4629199,1.7830598 0.124212,0.4629174 0.100918,1.132649 -0.05539,1.5924018 -0.149612,0.4400706 -0.578775,1.0365741 -0.927551,1.2892269 l -0.1328516,0.09624 -0.6159914,-0.0046 c -0.3387953,-0.0025 -0.5777045,-0.01098 -0.5309094,-0.01873 0.046795,-0.0078 0.1846276,-0.0451 0.3062947,-0.08299 C 9.4494266,9.9801165 10.034021,9.3396631 10.235453,8.5454565 10.31933,8.2147483 10.288886,7.621941 10.171101,7.2923594 9.9094207,6.5601375 9.2780843,5.9711639 8.5779721,5.8061301 8.3036637,5.7414688 7.7497819,5.7402846 7.4504401,5.8037194 6.874719,5.9257229 6.2001289,6.4546031 5.9512696,6.9790724 5.7728763,7.3550351 5.7127453,7.6197718 5.7116385,8.0340876 c -0.00174,0.6505006 0.2073857,1.1530356 0.6732257,1.6177984 0.2968844,0.2961979 0.5552554,0.453793 0.9482569,0.578395 l 0.2333432,0.07398 -0.1606941,0.02203 c -0.088382,0.01211 -0.3413157,0.02203 -0.5620756,0.02203 l -0.4013815,0 -0.295033,-0.279273 0,0 z"
         id="path3103"
         inkscape:connector-curvature="0"
         transform="translate(1031,265.99999)" />
      <path
         style="fill:#00ffff;fill-opacity:0.24636727"
         d="M 6.1461539,10.036838 C 5.7867494,9.6663986 5.7034865,9.5575564 5.5560382,9.2654302 5.3572603,8.8716097 5.3086939,8.6706144 5.2901658,8.1650995 5.256392,7.243624 5.4886392,6.6539878 6.1195912,6.0593297 6.5359544,5.6669167 6.8907833,5.470723 7.385369,5.3594497 c 0.3483551,-0.078374 1.1636686,-0.052574 1.4354786,0.045426 0.8497085,0.3063559 1.4926714,0.9467441 1.7789164,1.7717943 0.08679,0.2501433 0.105134,0.3620203 0.118703,0.7237854 0.03351,0.8934046 -0.203297,1.4757767 -0.8693428,2.1379591 l -0.2873395,0.285672 -0.3283101,-0.02174 c -0.1805707,-0.01196 -0.4048839,-0.02294 -0.4984739,-0.02441 l -0.1701638,-0.0027 0.1705616,-0.06075 c 0.5914044,-0.210642 1.0525764,-0.6207108 1.3239525,-1.1772418 0.170436,-0.3495269 0.22414,-0.586222 0.22414,-0.9878875 0,-0.6714353 -0.200494,-1.1636683 -0.6638945,-1.6299283 C 9.3305268,6.1286157 9.0761173,5.9583929 8.7590135,5.843662 8.5923483,5.7833611 8.4852765,5.7734075 8.0032966,5.7734095 c -0.5260794,2.1e-6 -0.5758,0.00564 -0.7873488,0.089344 -0.557995,0.2207711 -1.0643567,0.6778563 -1.2890983,1.1636497 -0.070222,0.1517894 -0.1480276,0.3602118 -0.1729014,0.4631608 -0.057876,0.2395417 -0.058308,0.846777 -7.739e-4,1.089048 0.078931,0.3323743 0.2973849,0.7280428 0.5531971,1.0019642 0.2881138,0.3085092 0.5361338,0.4770332 0.9141722,0.6211602 l 0.2892784,0.110288 -0.1733777,0.0011 c -0.095358,6.2e-4 -0.3327362,0.01028 -0.5275076,0.02147 l -0.35413,0.02034 -0.3086527,-0.318129 z"
         id="path3105"
         inkscape:connector-curvature="0"
         transform="translate(1031,265.99999)" />
      <path
         style="fill:#00ffff;fill-opacity:0.24636727"
         d="M 7.6056237,10.792797 C 7.3366225,10.749936 6.9566672,10.626178 6.728268,10.507027 l -0.2053959,-0.10715 0.2552456,-0.02133 c 0.3956029,-0.03306 2.7289135,-0.03391 2.7085632,-9.86e-4 -0.038102,0.06165 -0.5454353,0.283691 -0.7958125,0.348296 -0.296571,0.07653 -0.821781,0.108922 -1.0852447,0.06694 z"
         id="path3107"
         inkscape:connector-curvature="0"
         transform="translate(1031,265.99999)" />
      <path
         style="fill:#00ffff;fill-opacity:0.24636727"
         d="M 7.3685842,10.72552 C 7.2347496,10.68916 7.0059903,10.609764 6.8602303,10.549084 6.6496827,10.461433 6.6087628,10.433451 6.6611404,10.412944 c 0.036261,-0.0142 0.6785176,-0.02556 1.4272381,-0.02525 l 1.3613098,5.61e-4 -0.2757959,0.132315 c -0.3932878,0.188681 -0.6137834,0.239133 -1.1195467,0.256162 -0.364863,0.01229 -0.4850855,0.0033 -0.6857615,-0.05121 z"
         id="path3109"
         inkscape:connector-curvature="0"
         transform="translate(1031,265.99999)" />
      <path
         style="fill:#00ffff;fill-opacity:0.24636727"
         d="M 7.475789,10.73558 C 7.2631091,10.68181 6.778551,10.509041 6.7234587,10.467337 c -0.056306,-0.04262 0.1055125,-0.04857 1.2798379,-0.04704 l 1.3442935,0.0018 -0.1701637,0.08071 c -0.397298,0.18845 -0.5842794,0.228319 -1.1230807,0.239467 -0.2807702,0.0058 -0.5411207,0.0028 -0.5785567,-0.0066 l 0,0 z"
         id="path3111"
         inkscape:connector-curvature="0"
         transform="translate(1031,265.99999)" />
      <path
         style="fill:#00ffff;fill-opacity:0.24636727"
         d="M 7.1694943,10.624517 C 7.0197502,10.571031 6.8596992,10.51233 6.8138255,10.49407 c -0.1055378,-0.04201 1.2636923,-0.07812 1.9552079,-0.05157 l 0.4764585,0.0183 -0.1531474,0.06611 c -0.3539664,0.15281 -0.4501085,0.169417 -1.0550152,0.182233 -0.584324,0.01238 -0.6007155,0.01078 -0.867835,-0.08463 z"
         id="path3113"
         inkscape:connector-curvature="0"
         transform="translate(1031,265.99999)" />
      <path
         style="fill:#00ffff;fill-opacity:0.24636727"
         d="M 7.6668711,9.5963868 C 7.3943329,9.5494096 7.1672136,9.4115159 6.8606741,9.1069107 6.6094649,8.8572866 6.5788934,8.8119558 6.5043847,8.5786116 6.3547911,8.1101183 6.4159546,7.5338001 6.6554629,7.1550657 6.7836464,6.9523691 7.0525214,6.711726 7.2731674,6.6022202 7.7058125,6.3875 8.3118827,6.3910082 8.7239123,6.6106177 9.4890353,7.018424 9.8026743,7.9508814 9.4296766,8.7088755 9.3174589,8.9369208 9.0303497,9.2560688 8.8030661,9.40541 8.5593503,9.5655484 8.0169141,9.6567235 7.6668711,9.5963868 z"
         id="path3115"
         inkscape:connector-curvature="0"
         transform="translate(1031,265.99999)" />
      <path
         style="fill:#00ffff;fill-opacity:0.24636727"
         d="M 7.7310346,9.5980784 C 7.4939101,9.5689247 7.339465,9.5032531 7.1120031,9.3348597 6.7662294,9.0788785 6.5600958,8.8043336 6.4742178,8.4854072 6.4230657,8.2954425 6.4230279,7.818224 6.4741482,7.6069882 6.6137618,7.0300875 7.130629,6.5544901 7.717226,6.4631654 8.0187487,6.4162227 8.4296153,6.4700954 8.6710839,6.5882349 8.96317,6.7311394 9.2738534,7.0427886 9.4209636,7.3404459 9.5321505,7.5654173 9.546823,7.6268781 9.5613465,7.9284858 9.5747137,8.2060821 9.5649394,8.3068634 9.5057505,8.5017301 9.392751,8.8737564 9.0372066,9.2852272 8.6665004,9.4729928 8.4761615,9.5694009 8.0074959,9.6320684 7.7310346,9.5980784 z"
         id="path3117"
         inkscape:connector-curvature="0"
         transform="translate(1031,265.99999)" />
      <path
         style="fill:#00ffff;fill-opacity:0.24636727"
         d="M 7.5215352,9.5521633 C 7.1330107,9.4133789 6.6669066,8.9906085 6.5389923,8.6609674 6.4233568,8.3629692 6.4057369,7.8455276 6.5005909,7.5332412 6.7240504,6.7975494 7.420752,6.3666747 8.2225015,6.4683267 9.2551552,6.5992544 9.8742043,7.7508041 9.4253114,8.7057827 9.3347998,8.8983379 8.9611123,9.3019333 8.7713492,9.4120845 8.474198,9.5845711 7.8181158,9.6581046 7.5215352,9.5521633 l 0,0 z"
         id="path3119"
         inkscape:connector-curvature="0"
         transform="translate(1031,265.99999)" />
      <path
         style="fill:#00ffff;fill-opacity:0.24636727"
         d="M 7.5608709,9.567769 C 7.2717196,9.4794944 6.8216401,9.1308391 6.6484678,8.8609734 6.5122002,8.6486188 6.4377902,8.356568 6.4377902,8.0340876 c 0,-0.6579129 0.3033137,-1.151683 0.8841358,-1.4393015 0.2140917,-0.1060165 0.2333708,-0.1091885 0.6636386,-0.1091885 0.429506,0 0.4503391,0.00341 0.6770668,0.1107859 0.1600803,0.075813 0.2997445,0.1781179 0.4424257,0.3240793 C 9.4546299,7.278072 9.5916062,7.6522019 9.5597728,8.1624505 9.5377051,8.5161702 9.4116523,8.7934521 9.1390778,9.087865 8.8888097,9.3581845 8.6911157,9.48267 8.4108655,9.5464115 8.1685049,9.6015353 7.7092721,9.6130742 7.5608709,9.567769 z"
         id="path3121"
         inkscape:connector-curvature="0"
         transform="translate(1031,265.99999)" />
      <path
         style="fill:#00ffff;fill-opacity:0.24636727"
         d="M 7.5438545,9.5519881 C 7.3380531,9.4869017 7.2167142,9.4156616 6.9923624,9.2281977 6.5214124,8.8346813 6.3477907,8.3137472 6.4710197,7.663963 6.554341,7.2246116 6.8821766,6.8090793 7.3108078,6.5995297 7.5387307,6.4881025 7.5535817,6.4855976 7.9862802,6.4855976 c 0.4056903,0 0.4579677,0.00734 0.6296058,0.088439 0.3861079,0.1824279 0.7112053,0.5262621 0.8656367,0.9155273 0.1411606,0.3558143 0.094659,0.9473085 -0.1006791,1.280628 C 9.26013,8.9761737 8.9809714,9.2703166 8.7897261,9.3930384 8.5044196,9.5761191 7.8743364,9.6565058 7.5438545,9.5519881 z"
         id="path3123"
         inkscape:connector-curvature="0"
         transform="translate(1031,265.99999)" />
      <path
         style="fill:#00ffff;fill-opacity:0.24636727"
         d="M 7.3736908,10.164943 C 6.7150332,9.9584022 6.0960498,9.3468893 5.8713262,8.6807098 5.7751281,8.3955363 5.7817531,7.6920986 5.8836662,7.370449 6.0378334,6.8838795 6.4257044,6.3903083 6.8550474,6.1343529 7.3298071,5.8513221 7.9715412,5.7482143 8.4887514,5.8718648 9.3073654,6.0675727 10.0038,6.7866172 10.170952,7.6086783 10.270924,8.1003479 10.150444,8.7696539 9.8867798,9.1873407 9.5952192,9.6492205 9.086915,10.036102 8.6019709,10.165237 c -0.221183,0.0589 -1.0401395,0.0587 -1.2282801,-2.94e-4 z M 8.3897607,9.7501041 C 9.0448608,9.5819146 9.5306543,9.1116028 9.7062047,8.4756131 9.7293184,8.3918772 9.7489247,8.1931907 9.7497745,8.0340876 9.7524416,7.5348271 9.5816912,7.1214811 9.2296023,6.774876 8.5577427,6.1134801 7.5002109,6.0922659 6.8152238,6.7264432 6.5593713,6.9633175 6.417685,7.1847117 6.3149956,7.5080827 6.1131296,8.1437626 6.2811198,8.7992161 6.7698418,9.2827729 7.2110235,9.7192919 7.8225823,9.8957207 8.3897607,9.7501041 z"
         id="path3125"
         inkscape:connector-curvature="0"
         transform="translate(1031,265.99999)" />
      <path
         style="fill:#00ffff;fill-opacity:0.24636727"
         d="M 7.6591954,10.177552 C 7.4024167,10.162118 7.3303802,10.142216 7.0772133,10.016767 6.5874972,9.774103 6.1238003,9.2768213 5.9259519,8.782122 5.8303392,8.5430526 5.7959413,7.9353023 5.8579131,7.5799969 5.9364821,7.1295339 6.2260178,6.6532142 6.6216758,6.3235188 7.1567933,5.8776142 7.9687269,5.7216848 8.635571,5.9367563 c 0.9029918,0.2912343 1.545821,1.146836 1.545821,2.0574779 0,0.6534631 -0.1920144,1.1233621 -0.6433512,1.5744111 C 9.0027116,10.103633 8.6001137,10.234109 7.6591954,10.177552 l 0,0 z M 8.508879,9.7182236 C 9.3660971,9.4474285 9.8631981,8.6610393 9.7401997,7.7703338 9.5986589,6.7453491 8.5604733,6.0574515 7.548767,6.3182992 7.2257847,6.4015735 6.9711378,6.5551903 6.7269035,6.8140915 6.3458127,7.2180678 6.2160549,7.5680797 6.2408338,8.1252273 6.2555572,8.4562785 6.2649154,8.4935012 6.4040049,8.7742532 6.8121328,9.5980584 7.6705758,9.9830437 8.508879,9.7182236 z"
         id="path3127"
         inkscape:connector-curvature="0"
         transform="translate(1031,265.99999)" />
      <path
         style="fill:#008080;fill-opacity:0.24636727"
         d="M 13.663717,5.979466 C 12.991715,4.1622258 11.542068,2.7872029 9.7251388,2.2436338 7.4619833,1.5665677 4.9853785,2.2888036 3.4576446,4.071382 2.9752998,4.6341876 2.5708158,5.3201373 2.3452419,5.957865 l -0.096781,0.2736121 -0.5050746,0.00786 -0.5050745,0.00786 0.058429,-0.2094653 C 1.45038,5.4869315 1.8279772,4.6756966 2.1717765,4.1577858 3.84182,1.6419771 6.9121709,0.47885622 9.8214635,1.2599051 11.685246,1.7602689 13.28672,3.0501246 14.191695,4.779765 c 0.228852,0.4373957 0.376474,0.8129797 0.567761,1.4445117 0.01413,0.046655 -0.02197,0.050402 -0.485653,0.050402 l -0.500919,0 -0.109167,-0.295213 z"
         id="path3088"
         inkscape:connector-curvature="0"
         transform="translate(1031,265.99999)" />
      <path
         style="fill:#008080;fill-opacity:0.24636727"
         d="M 13.767077,6.2142637 C 13.580966,5.7270684 13.50346,5.5484282 13.355932,5.2666346 12.251981,3.157973 10.128532,1.9053454 7.8042086,1.9916593 5.6322582,2.0723149 3.7402787,3.2493699 2.6944887,5.1705634 2.5698053,5.3996161 2.3431329,5.9203125 2.2623518,6.1632391 c -0.013378,0.04023 -0.08513,0.048824 -0.5002615,0.059912 -0.2665538,0.00712 -0.4895613,0.00915 -0.4955722,0.00451 C 1.2450291,6.2110659 1.4145096,5.7071632 1.550997,5.3818397 1.8834454,4.5894353 2.2555448,3.9873771 2.7703313,3.4089529 3.9110099,2.1272641 5.3233746,1.3654708 7.052101,1.0994766 c 0.4083012,-0.062824 1.4367947,-0.069924 1.8288804,-0.012625 1.2834696,0.1875652 2.2904926,0.6010966 3.3265466,1.3660375 0.304222,0.2246142 0.999515,0.9040547 1.243628,1.2152749 0.361212,0.4605086 0.69799,1.0148172 0.914697,1.5055119 0.141086,0.3194645 0.39166,1.0375265 0.369713,1.0594733 -0.0068,0.00685 -0.221612,0.020968 -0.477254,0.031378 l -0.464804,0.018927 -0.02643,-0.06919 0,0 z"
         id="path3090"
         inkscape:connector-curvature="0"
         transform="translate(1031,265.99999)" />
      <path
         style="fill:#008080;fill-opacity:0.24636727"
         d="M 13.692411,5.9963429 C 12.83967,3.8174526 11.118402,2.4006331 8.8809814,2.0359334 8.5307148,1.97884 7.4286119,1.9877417 7.0677386,2.0505792 5.7783903,2.2750881 4.73373,2.7945173 3.8451436,3.6529278 3.1737005,4.301569 2.7084318,5.0015976 2.361041,5.8858618 L 2.2478927,6.1738745 2.0938844,6.192627 C 2.0091798,6.202941 1.7926273,6.2126615 1.6126565,6.214228 l -0.3272195,0.00285 0.018749,-0.099943 C 1.3517023,5.8638519 1.7028669,5.0331007 1.9474081,4.5954614 2.6409049,3.3543569 3.796798,2.2863546 5.0792142,1.7017893 5.6541681,1.4397073 6.0804888,1.3046727 6.7928896,1.1589926 c 0.3698852,-0.075638 0.4287846,-0.079562 1.2096532,-0.080581 0.7375535,-9.624e-4 0.8551174,0.00556 1.1587141,0.064285 1.5923231,0.3080049 2.7664791,0.9428158 3.8847591,2.100306 0.676413,0.7001291 1.130736,1.4381665 1.508282,2.4501638 0.07275,0.1949906 0.139685,0.3916324 0.148755,0.4369817 0.0158,0.079016 0.01126,0.08311 -0.109068,0.098207 -0.06906,0.00866 -0.275216,0.023746 -0.458131,0.033515 l -0.332574,0.017761 -0.110869,-0.2832884 0,0 z"
         id="path3092"
         inkscape:connector-curvature="0"
         transform="translate(1031,265.99999)" />
      <path
         style="fill:#008080;fill-opacity:0.24636727"
         d="M 1.0240335,8.3191867 C 0.99504088,7.742557 1.0630636,6.9914706 1.1941976,6.4402862 l 0.046252,-0.1944085 0.5009197,0 c 0.2755058,0 0.5009197,0.00354 0.5009197,0.00786 0,0.00432 -0.031918,0.1336867 -0.07093,0.287474 C 2.0388971,7.0633955 1.9983895,7.4226704 1.999267,8.0675578 l 8.131e-4,0.5976263 -0.479325,0 -0.479325,0 -0.017397,-0.3459974 z"
         id="path3094"
         inkscape:connector-curvature="0"
         transform="translate(1031,265.99999)" />
      <path
         style="fill:#008080;fill-opacity:0.24636727"
         d="m 1.0445879,8.5292867 c -0.025273,-0.1685303 0.00522,-1.1320359 0.044467,-1.4049704 0.015944,-0.1108848 0.05746,-0.3527037 0.092258,-0.5373752 l 0.063269,-0.3357663 0.2468429,-0.018365 c 0.1457003,-0.01084 0.2880692,-0.00602 0.3474572,0.011752 0.055338,0.016564 0.1622626,0.030117 0.2376105,0.030117 0.079159,0 0.1369961,0.013173 0.1369961,0.031203 0,0.017162 -0.025356,0.1305666 -0.056346,0.2520111 C 2.0453931,6.9958112 2.008027,7.3199261 1.991399,7.9955547 l -0.01648,0.6696294 -0.4549758,0 -0.4549759,0 -0.020379,-0.1358974 z"
         id="path3096"
         inkscape:connector-curvature="0"
         transform="translate(1031,265.99999)" />
      <path
         style="fill:#008080;fill-opacity:0.24636727"
         d="m 1.0560389,8.4851762 c -0.023938,-0.4098009 0.035,-1.3279489 0.1141646,-1.7784782 l 0.078442,-0.4464197 0.3744165,0.00195 c 0.205929,0.00107 0.4212574,0.011051 0.4785074,0.022172 l 0.104091,0.02022 -0.039702,0.1650364 C 2.0611113,6.905497 2.0077791,7.3201884 1.9947199,7.8011461 1.9871929,8.0783583 1.9739824,8.3861718 1.9653632,8.4851762 l -0.015671,0.1800079 -0.441569,0 -0.4415691,0 -0.010515,-0.1800079 z"
         id="path3098"
         inkscape:connector-curvature="0"
         transform="translate(1031,265.99999)" />
      <path
         style="fill:#008080;fill-opacity:0.24636727"
         d="M 1.6196002,10.834083 C 1.4967775,10.564566 1.3115173,10.033008 1.2306711,9.7181473 1.1568628,9.430696 1.0614375,8.8925814 1.0614375,8.7638188 l 0,-0.096008 0.4896585,-0.00851 0.4896585,-0.00851 -3.75e-5,0.097186 c -6.62e-5,0.1704666 0.1394197,0.793335 0.2608879,1.1649955 0.064642,0.1977892 0.2049037,0.5358152 0.3116917,0.7511702 l 0.1941604,0.391554 -0.5434338,0 -0.5434338,0 -0.1009892,-0.221606 z"
         id="path3100"
         inkscape:connector-curvature="0"
         transform="translate(1031,265.99999)" />
      <path
         style="fill:#008080;fill-opacity:0.24636727"
         d="M 1.6968027,10.976486 C 1.5940991,10.752457 1.4187695,10.285444 1.3318714,10.004443 1.195226,9.5625755 1.0366889,8.7126803 1.0853049,8.682634 c 0.013196,-0.00816 0.2303133,-0.016751 0.4824836,-0.019101 l 0.4584914,-0.00427 0.00809,0.1109666 c 0.03654,0.5009238 0.2736913,1.2720949 0.6120442,1.9902489 l 0.1390872,0.295213 -0.5261965,0 -0.5261966,0 -0.03631,-0.0792 z"
         id="path3102"
         inkscape:connector-curvature="0"
         transform="translate(1031,265.99999)" />
      <path
         style="fill:#008080;fill-opacity:0.24636727"
         d="M 1.6760028,10.890082 C 1.533959,10.570014 1.3498577,10.03772 1.2664617,9.7059709 1.1762652,9.3471699 1.0698926,8.7335324 1.0937553,8.7096697 c 0.020881,-0.020881 0.918124,-0.056689 0.918124,-0.036641 0,0.1112975 0.079211,0.5366645 0.1487115,0.7985914 0.1039261,0.391665 0.2353006,0.7514094 0.4461862,1.2217954 0.084664,0.188846 0.1539352,0.347613 0.1539352,0.352816 0,0.0052 -0.2275232,0.0095 -0.5056071,0.0095 l -0.505607,0 -0.073495,-0.165607 z"
         id="path3104"
         inkscape:connector-curvature="0"
         transform="translate(1031,265.99999)" />
      <path
         style="fill:#008080;fill-opacity:0.24636727"
         d="M 3.4194129,13.262794 C 2.7727443,12.693593 2.2399803,12.031236 1.8663354,11.331937 l -0.147603,-0.276248 0.5488687,0 0.5488688,0 0.1775278,0.266412 c 0.5634754,0.845594 1.3106128,1.522211 2.2148222,2.00577 l 0.273612,0.146325 -0.9109682,4e-4 -0.9109685,4e-4 -0.2410823,-0.212202 z"
         id="path3106"
         inkscape:connector-curvature="0"
         transform="translate(1031,265.99999)" />
      <path
         style="fill:#008080;fill-opacity:0.24636727"
         d="M 3.1250918,12.949276 C 2.7302174,12.552187 2.5373328,12.331971 2.3367578,12.049237 2.1033219,11.720181 1.8209523,11.254054 1.7654212,11.106091 c -0.017587,-0.04686 0.018243,-0.0504 0.5097884,-0.05035 l 0.5287045,5.1e-5 0.081525,0.129043 c 0.1612739,0.255276 0.5066493,0.696497 0.7395874,0.944833 0.4271553,0.455391 0.9214305,0.834477 1.5490756,1.188069 l 0.279143,0.157259 -0.9026832,0 -0.9026831,0 -0.5227866,-0.52572 z"
         id="path3108"
         inkscape:connector-curvature="0"
         transform="translate(1031,265.99999)" />
      <path
         style="fill:#008080;fill-opacity:0.24636727"
         d="M 3.1732541,12.975535 C 2.9053818,12.700832 2.6015068,12.367097 2.4979764,12.233903 2.1998465,11.850351 1.7533554,11.131805 1.7902361,11.094924 c 0.00703,-0.007 0.232427,-0.02068 0.5008779,-0.03032 l 0.4880926,-0.01753 0.1966523,0.282057 c 0.5829681,0.836149 1.2002241,1.406572 2.1012416,1.941815 l 0.3435015,0.204055 -0.8801537,0 -0.8801536,0 -0.4870406,-0.499461 z"
         id="path3110"
         inkscape:connector-curvature="0"
         transform="translate(1031,265.99999)" />
      <path
         style="fill:#008080;fill-opacity:0.24636727"
         d="M 7.1241042,14.928571 C 5.9615906,14.776755 4.8602156,14.340509 3.9019442,13.652299 l -0.2268281,-0.162903 0.9036579,-0.0144 0.9036579,-0.0144 0.1728076,0.07581 c 0.095044,0.0417 0.3173522,0.12237 0.4940178,0.179274 2.0461889,0.659075 4.3179077,0.168471 5.8944347,-1.272973 l 0.178236,-0.162965 0.641843,0.0144 0.641842,0.0144 -0.226358,0.259212 c -1.044414,1.195999 -2.406811,1.98358 -3.9662545,2.292831 -0.5710454,0.113243 -1.5980772,0.145141 -2.1888963,0.06798 z"
         id="path3112"
         inkscape:connector-curvature="0"
         transform="translate(1031,265.99999)" />
      <path
         style="fill:#008080;fill-opacity:0.24636727"
         d="M 7.0980868,14.912669 C 6.2716373,14.799938 5.3507939,14.496042 4.6471952,14.103829 4.3494503,13.937854 3.7275489,13.53382 3.7459612,13.518319 c 0.010246,-0.0086 1.0494517,-0.0422 1.4510664,-0.04688 0.1636008,-0.0019 0.3165522,0.01049 0.3499513,0.02836 0.1262607,0.06757 0.6417193,0.24205 0.9553692,0.323383 0.9354713,0.242576 1.9621569,0.250397 2.8970562,0.02207 0.9826457,-0.239991 1.7992537,-0.661315 2.5764847,-1.329322 l 0.258055,-0.221791 0.325207,0.0035 c 0.178864,0.0019 0.461293,0.01166 0.62762,0.0216 l 0.302413,0.01807 -0.489621,0.492032 c -0.483072,0.48545 -0.843248,0.781844 -1.296057,1.066544 -0.797281,0.501282 -1.654081,0.825826 -2.5921144,0.981855 -0.3104855,0.05165 -1.7123701,0.07594 -2.0133048,0.03489 z"
         id="path3114"
         inkscape:connector-curvature="0"
         transform="translate(1031,265.99999)" />
      <path
         style="fill:#008080;fill-opacity:0.24636727"
         d="M 7.0377004,14.896242 C 7.006019,14.889568 6.8504172,14.858643 6.6919187,14.827521 5.7632111,14.645165 4.8485993,14.258735 4.0009719,13.690578 L 3.7867676,13.546999 3.95777,13.528524 c 0.094051,-0.01016 0.3459701,-0.0211 0.5598195,-0.02431 0.2138494,-0.0032 0.5087053,-0.01433 0.6552354,-0.02473 0.14653,-0.01039 0.2664153,-0.01065 0.2664117,-5.63e-4 -3.6e-6,0.01008 0.035635,0.02535 0.079197,0.03394 0.043562,0.0086 0.2682865,0.08155 0.499388,0.162139 0.8432836,0.294086 1.7010467,0.401349 2.5360942,0.317138 1.3173501,-0.13285 2.4461783,-0.626576 3.5077603,-1.534222 l 0.185364,-0.158484 0.505867,0.01505 c 0.278227,0.0083 0.549041,0.02341 0.601809,0.03364 l 0.09594,0.01858 -0.455958,0.446801 c -0.63437,0.621631 -0.982127,0.896115 -1.550406,1.223734 -0.768033,0.44278 -1.75485,0.772478 -2.5409703,0.848946 -0.2730832,0.02656 -1.749492,0.03452 -1.8656233,0.01006 l 0,0 z"
         id="path3116"
         inkscape:connector-curvature="0"
         transform="translate(1031,265.99999)" />
      <path
         style="fill:#008080;fill-opacity:0.24636727"
         d="m 12.502741,12.272716 c -0.130686,-0.0053 -0.237611,-0.01972 -0.237611,-0.03195 0,-0.01224 0.04014,-0.06031 0.0892,-0.10684 0.291134,-0.276112 0.699051,-0.842233 0.943424,-1.309316 0.181065,-0.346079 0.405828,-0.8773835 0.409718,-0.9685096 0.0013,-0.030304 0.0085,-0.037746 0.0168,-0.017264 0.01082,0.02681 0.13892,0.036002 0.501749,0.036002 0.39895,0 0.487221,0.00732 0.487221,0.040415 0,0.058458 -0.180131,0.5668582 -0.302022,0.8524252 -0.197232,0.462075 -0.603149,1.158525 -0.837689,1.43726 l -0.07506,0.08921 -0.379056,-0.0059 c -0.208481,-0.0032 -0.485981,-0.01023 -0.616667,-0.01556 z"
         id="path3118"
         inkscape:connector-curvature="0"
         transform="translate(1031,265.99999)" />
      <path
         style="fill:#008080;fill-opacity:0.24636727"
         d="m 12.836275,12.266922 c -0.279896,-0.0088 -0.51536,-0.02247 -0.523253,-0.03041 -0.0079,-0.0079 0.03696,-0.07274 0.09966,-0.144006 0.372941,-0.42384 0.710912,-0.906235 0.897921,-1.281626 0.19712,-0.395691 0.331108,-0.693155 0.368373,-0.8178222 l 0.03784,-0.1265913 0.447807,0.018405 c 0.246293,0.010123 0.465627,0.018487 0.487408,0.018587 0.05535,2.534e-4 0.03122,0.1014077 -0.121688,0.5101747 -0.225703,0.603365 -0.526111,1.172128 -0.87535,1.657302 -0.134621,0.18702 -0.172762,0.222298 -0.235245,0.217589 -0.04102,-0.0031 -0.30358,-0.01281 -0.583477,-0.0216 l 0,0 z"
         id="path3120"
         inkscape:connector-curvature="0"
         transform="translate(1031,265.99999)" />
      <path
         style="fill:#008080;fill-opacity:0.24636727"
         d="m 12.544179,12.23846 -0.224974,-0.01632 0.168582,-0.201609 c 0.240601,-0.287738 0.409642,-0.513388 0.582548,-0.777634 0.16577,-0.253342 0.477966,-0.873032 0.58765,-1.166452 l 0.06998,-0.187208 0.13262,0.0012 c 0.730894,0.00661 0.795049,0.011891 0.795049,0.0654 0,0.060785 -0.133284,0.4553826 -0.245031,0.7254346 -0.182889,0.441974 -0.562431,1.116274 -0.81462,1.447263 l -0.104236,0.136806 -0.361298,-0.0053 c -0.198713,-0.0029 -0.462536,-0.01262 -0.586271,-0.0216 l 0,0 z"
         id="path3122"
         inkscape:connector-curvature="0"
         transform="translate(1031,265.99999)" />
      <path
         style="fill:#008080;fill-opacity:0.24636727"
         d="m 13.914003,9.853513 c -0.09901,-0.00562 -0.179868,-0.019328 -0.179696,-0.030452 1.71e-4,-0.011125 0.02007,-0.08503 0.04422,-0.164233 0.13975,-0.458292 0.19008,-0.825307 0.206366,-1.5048662 l 0.01605,-0.6696294 0.485752,0 0.485751,0 0,0.5123171 c 0,0.2817744 -0.01851,0.6608711 -0.04113,0.8424371 -0.03758,0.3016063 -0.06277,0.4402455 -0.160717,0.8845443 l -0.03333,0.1512066 -0.321628,-0.00555 C 14.238743,9.8662357 14.013007,9.859137 13.914003,9.853513 z"
         id="path3124"
         inkscape:connector-curvature="0"
         transform="translate(1031,265.99999)" />
      <path
         style="fill:#008080;fill-opacity:0.24636727"
         d="m 14.218706,9.8475497 c -0.232391,-0.00875 -0.431616,-0.025052 -0.442724,-0.03622 -0.01111,-0.011168 0.0069,-0.1213329 0.03994,-0.2448108 0.108612,-0.4055033 0.150088,-0.7337668 0.17757,-1.4053573 0.01491,-0.364336 0.02742,-0.6656692 0.02781,-0.6696294 3.89e-4,-0.00396 0.216339,-0.0072 0.479891,-0.0072 l 0.479183,0 -0.01999,0.5544244 c -0.02461,0.6822439 -0.0511,0.9333033 -0.151962,1.4400633 -0.0618,0.3105019 -0.08836,0.3947895 -0.123003,0.3903307 -0.0243,-0.00313 -0.234318,-0.012848 -0.466709,-0.021601 l 0,0 z"
         id="path3126"
         inkscape:connector-curvature="0"
         transform="translate(1031,265.99999)" />
      <path
         style="fill:#008080;fill-opacity:0.24636727"
         d="m 13.957205,9.8247523 c -0.192111,-0.012055 -0.194522,-0.018231 -0.119334,-0.3057735 0.08804,-0.3367104 0.124842,-0.640679 0.159541,-1.3178663 l 0.03485,-0.6800811 0.25851,-0.01835 c 0.142181,-0.010092 0.354816,-0.01835 0.472523,-0.01835 l 0.214012,0 -0.01847,0.3240142 c -0.05622,0.9860631 -0.07654,1.2193632 -0.1312,1.5063022 -0.03304,0.1734579 -0.0728,0.3639801 -0.08834,0.4233827 l -0.02827,0.1080048 -0.294103,-0.00545 c -0.161757,-0.003 -0.368626,-0.010122 -0.45971,-0.015838 z"
         id="path3128"
         inkscape:connector-curvature="0"
         transform="translate(1031,265.99999)" />
      <path
         style="fill:#008080;fill-opacity:0.24636727"
         d="m 13.981378,7.390728 c -0.0079,-0.051482 -0.02231,-0.1584069 -0.03193,-0.2376104 -0.01662,-0.1368187 -0.148044,-0.7617744 -0.174933,-0.831844 -0.0091,-0.023835 0.126906,-0.035626 0.48907,-0.042383 0.466712,-0.00871 0.502849,-0.00566 0.5176,0.043616 0.03494,0.1167233 0.129044,0.6402732 0.146704,0.8162104 0.01033,0.1029645 0.02562,0.2228498 0.03397,0.2664117 l 0.01517,0.079204 -0.490605,0 -0.490605,0 -0.01444,-0.093604 z"
         id="path3130"
         inkscape:connector-curvature="0"
         transform="translate(1031,265.99999)" />
      <path
         style="fill:#008080;fill-opacity:0.24636727"
         d="m 13.967175,7.22257 c -0.02038,-0.1439692 -0.06822,-0.399704 -0.106313,-0.5682996 -0.03809,-0.1685956 -0.06926,-0.3164943 -0.06926,-0.3286638 0,-0.01217 0.219256,-0.022126 0.487235,-0.022126 l 0.487235,0 0.03294,0.1512067 c 0.01812,0.083164 0.06261,0.3488553 0.09888,0.5904259 l 0.06594,0.4392194 -0.479801,0 -0.479801,0 -0.03705,-0.2617622 z"
         id="path3132"
         inkscape:connector-curvature="0"
         transform="translate(1031,265.99999)" />
      <path
         style="fill:#008080;fill-opacity:0.24636727"
         d="m 14.07961,7.4848441 c -0.05381,-0.012846 -0.07415,-0.038738 -0.08048,-0.1024553 -0.0047,-0.046896 -0.04833,-0.2964837 -0.09705,-0.55464 -0.04871,-0.2581564 -0.08097,-0.4769787 -0.07168,-0.4862718 0.0093,-0.00929 0.222679,-0.023381 0.47419,-0.031306 l 0.457294,-0.01441 0.09425,0.5813149 c 0.05184,0.3197233 0.08949,0.5855915 0.08368,0.5908184 -0.02076,0.018662 -0.789585,0.033811 -0.860208,0.01695 z"
         id="path3134"
         inkscape:connector-curvature="0"
         transform="translate(1031,265.99999)" />
    </g>
  </g>
</svg>
