<?xml version="1.0" encoding="UTF-8" standalone="no"?>
<!-- Created with Inkscape (http://www.inkscape.org/) -->

<svg
   xmlns:dc="http://purl.org/dc/elements/1.1/"
   xmlns:cc="http://creativecommons.org/ns#"
   xmlns:rdf="http://www.w3.org/1999/02/22-rdf-syntax-ns#"
   xmlns:svg="http://www.w3.org/2000/svg"
   xmlns="http://www.w3.org/2000/svg"
   xmlns:xlink="http://www.w3.org/1999/xlink"
   xmlns:sodipodi="http://sodipodi.sourceforge.net/DTD/sodipodi-0.dtd"
   xmlns:inkscape="http://www.inkscape.org/namespaces/inkscape"
   width="16"
   height="16"
   id="svg814"
   version="1.1"
   inkscape:version="0.48.3.1 r9886"
   sodipodi:docname="radio-mixed.svg">
  <defs
     id="defs816">
    <linearGradient
       id="linearGradient3805">
      <stop
         style="stop-color:#323947;stop-opacity:1;"
         offset="0"
         id="stop3807" />
      <stop
         style="stop-color:#1d2026;stop-opacity:1;"
         offset="1"
         id="stop3813" />
    </linearGradient>
    <linearGradient
       id="linearGradient3793">
      <stop
         style="stop-color:#1a1a1c;stop-opacity:1;"
         offset="0"
         id="stop3795" />
      <stop
         style="stop-color:#1d2026;stop-opacity:1;"
         offset="1"
         id="stop3797" />
    </linearGradient>
    <linearGradient
       inkscape:collect="always"
       xlink:href="#linearGradient10354-2"
       id="linearGradient8378"
       gradientUnits="userSpaceOnUse"
       gradientTransform="translate(-1609.9926,-78.958432)"
       x1="1205.5752"
       y1="-186.45331"
       x2="1205.5752"
       y2="-202.34555" />
    <linearGradient
       id="linearGradient10354-2"
       inkscape:collect="always">
      <stop
         id="stop10356-2"
         offset="0"
         style="stop-color:#acbbcd;stop-opacity:1" />
      <stop
         id="stop10358-2"
         offset="1"
         style="stop-color:#e8e6df;stop-opacity:1" />
    </linearGradient>
    <linearGradient
       inkscape:collect="always"
       xlink:href="#linearGradient10332-5"
       id="linearGradient8380"
       gradientUnits="userSpaceOnUse"
       gradientTransform="matrix(0.84941206,0,0,0.84794288,-623.98415,-483.16392)"
       x1="260.92538"
       y1="233.77748"
       x2="260.92538"
       y2="248.97633" />
    <linearGradient
       inkscape:collect="always"
       id="linearGradient10332-5">
      <stop
         style="stop-color:#9fcecc;stop-opacity:1"
         offset="0"
         id="stop10334-5" />
      <stop
         style="stop-color:#82e6c2;stop-opacity:1"
         offset="1"
         id="stop10336-29" />
    </linearGradient>
    <linearGradient
       inkscape:collect="always"
       xlink:href="#linearGradient11577-0-5-0-2"
       id="linearGradient8358"
       gradientUnits="userSpaceOnUse"
       x1="662.53418"
       y1="249.29141"
       x2="662.53418"
       y2="262.49979" />
    <linearGradient
       id="linearGradient11577-0-5-0-2">
      <stop
         id="stop11579-5-6-7-4"
         offset="0"
         style="stop-color:#9bc8ff;stop-opacity:1;" />
      <stop
         style="stop-color:#a1ccfb;stop-opacity:1;"
         offset="0.25"
         id="stop3803" />
      <stop
         style="stop-color:#b2dafc;stop-opacity:1;"
         offset="0.5"
         id="stop3801" />
      <stop
         id="stop11581-8-0-0-9"
         offset="1"
         style="stop-color:#d3f6ff;stop-opacity:1;" />
    </linearGradient>
    <linearGradient
       inkscape:collect="always"
       xlink:href="#linearGradient12415-4-1-5"
       id="linearGradient8360"
       gradientUnits="userSpaceOnUse"
       x1="664.26984"
       y1="261.44751"
       x2="664.26984"
       y2="248.05356" />
    <linearGradient
       id="linearGradient12415-4-1-5">
      <stop
         id="stop12417-2-8-0"
         offset="0"
         style="stop-color:#bfbfbf;stop-opacity:1;" />
      <stop
         id="stop12419-5-0-9"
         offset="1"
         style="stop-color:#909090;stop-opacity:1;" />
    </linearGradient>
    <linearGradient
       inkscape:collect="always"
       xlink:href="#linearGradient11623-4-5-4"
       id="linearGradient8362"
       gradientUnits="userSpaceOnUse"
       x1="661.04559"
       y1="251.6946"
       x2="661.04559"
       y2="258.26358" />
    <linearGradient
       id="linearGradient11623-4-5-4"
       inkscape:collect="always">
      <stop
         id="stop11625-5-6-0"
         offset="0"
         style="stop-color:#2e87e3;stop-opacity:1" />
      <stop
         id="stop11627-4-4-9"
         offset="1"
         style="stop-color:#76b0ec;stop-opacity:1" />
    </linearGradient>
    <linearGradient
       inkscape:collect="always"
       xlink:href="#linearGradient12387-1-5"
       id="linearGradient8364"
       gradientUnits="userSpaceOnUse"
       x1="662.26074"
       y1="251.66537"
       x2="662.26074"
       y2="259.77792" />
    <linearGradient
       id="linearGradient12387-1-5"
       inkscape:collect="always">
      <stop
         id="stop12389-7-2"
         offset="0"
         style="stop-color:#1b6fc5;stop-opacity:1;" />
      <stop
         id="stop12391-1-4"
         offset="1"
         style="stop-color:#145393;stop-opacity:1" />
    </linearGradient>
    <linearGradient
       inkscape:collect="always"
       xlink:href="#linearGradient11553-0-7-9"
       id="linearGradient8366"
       gradientUnits="userSpaceOnUse"
       x1="660.16144"
       y1="246.69635"
       x2="660.27411"
       y2="260.70532" />
    <linearGradient
       id="linearGradient11553-0-7-9">
      <stop
         id="stop11555-5-9-8"
         offset="0"
         style="stop-color:#e8e6df;stop-opacity:1;" />
      <stop
         id="stop11557-1-9-0"
         offset="1"
         style="stop-color:#e8e6df;stop-opacity:0;" />
    </linearGradient>
    <radialGradient
       inkscape:collect="always"
       xlink:href="#linearGradient12405-7"
       id="radialGradient8368"
       gradientUnits="userSpaceOnUse"
       gradientTransform="matrix(1.4685542,0,0,2.2820942,-309.65132,-324.35943)"
       cx="660.8656"
       cy="251.41324"
       fx="660.8656"
       fy="251.41324"
       r="5.0290799"
       spreadMethod="pad" />
    <linearGradient
       id="linearGradient12405-7">
      <stop
         id="stop12407-9"
         offset="0"
         style="stop-color:#fbfdfd;stop-opacity:1;" />
      <stop
         id="stop12409-7"
         offset="1"
         style="stop-color:#1a1a1c;stop-opacity:0;" />
    </linearGradient>
    <radialGradient
       inkscape:collect="always"
       xlink:href="#linearGradient12692-5-0"
       id="radialGradient8370"
       gradientUnits="userSpaceOnUse"
       gradientTransform="matrix(2.4143887,0,0,1.7213698,-937.76662,-194.09437)"
       cx="663.01904"
       cy="269.82831"
       fx="663.01904"
       fy="269.82831"
       r="2.3864853" />
    <linearGradient
       id="linearGradient12692-5-0"
       inkscape:collect="always">
      <stop
         id="stop12694-4-1"
         offset="0"
         style="stop-color:#e8e6df;stop-opacity:1;" />
      <stop
         id="stop12696-5-2"
         offset="1"
         style="stop-color:#e8e6df;stop-opacity:0;" />
    </linearGradient>
    <radialGradient
       r="2.3864853"
       fy="269.82831"
       fx="663.01904"
       cy="269.82831"
       cx="663.01904"
       gradientTransform="matrix(2.4143887,0,0,1.7213698,-937.76662,-194.09437)"
       gradientUnits="userSpaceOnUse"
       id="radialGradient5029"
       xlink:href="#linearGradient12692-5-0"
       inkscape:collect="always" />
    <linearGradient
       inkscape:collect="always"
       xlink:href="#linearGradient3805"
       id="linearGradient3794"
       gradientUnits="userSpaceOnUse"
       x1="662.68768"
       y1="247.78085"
       x2="662.53418"
       y2="262.49979"
       spreadMethod="pad" />
    <linearGradient
       inkscape:collect="always"
       xlink:href="#linearGradient3793"
       id="linearGradient3799"
       x1="660.28619"
       y1="259.03784"
       x2="660.25543"
       y2="248.25285"
       gradientUnits="userSpaceOnUse" />
    <linearGradient
       y2="2.3041239"
       x2="8.9492645"
       y1="15.594499"
       x1="8.9492645"
       gradientUnits="userSpaceOnUse"
       id="linearGradient3058"
       xlink:href="#linearGradient3815"
       inkscape:collect="always" />
    <linearGradient
       id="linearGradient3815">
      <stop
         style="stop-color:#e8e6df;stop-opacity:0.15294118;"
         offset="0"
         id="stop3817" />
      <stop
         style="stop-color:#1a1a1c;stop-opacity:0;"
         offset="1"
         id="stop3819" />
    </linearGradient>
    <linearGradient
       y2="2.3041239"
       x2="8.9492645"
       y1="15.594499"
       x1="8.9492645"
       gradientUnits="userSpaceOnUse"
       id="linearGradient3885"
       xlink:href="#linearGradient3815"
       inkscape:collect="always" />
    <linearGradient
       inkscape:collect="always"
       xlink:href="#linearGradient3803"
       id="linearGradient3797"
       x1="660.14856"
       y1="261.69751"
       x2="660.14856"
       y2="247.10995"
       gradientUnits="userSpaceOnUse"
       spreadMethod="pad" />
    <linearGradient
       id="linearGradient3803">
      <stop
         style="stop-color:#1a1a1c;stop-opacity:1;"
         offset="0"
         id="stop3805" />
      <stop
         id="stop3807-3"
         offset="0.33333284"
         style="stop-color:#1a1a1c;stop-opacity:0.98431373;" />
      <stop
         id="stop3809-7"
         offset="0.66666645"
         style="stop-color:#040506;stop-opacity:1;" />
      <stop
         style="stop-color:#e8e6df;stop-opacity:0.05098039;"
         offset="1"
         id="stop3811-3" />
    </linearGradient>
    <linearGradient
       y2="247.10995"
       x2="660.14856"
       y1="261.69751"
       x1="660.14856"
       spreadMethod="pad"
       gradientUnits="userSpaceOnUse"
       id="linearGradient3058-0"
       xlink:href="#linearGradient3803"
       inkscape:collect="always" />
  </defs>
  <sodipodi:namedview
     id="base"
     pagecolor="#e8e6df"
     bordercolor="#666666"
     borderopacity="1.0"
     inkscape:pageopacity="0.0"
     inkscape:pageshadow="2"
     inkscape:zoom="29.383464"
     inkscape:cx="9.5645576"
     inkscape:cy="8.5444691"
     inkscape:document-units="px"
     inkscape:current-layer="g6305"
     showgrid="true"
     borderlayer="true"
     inkscape:showpageshadow="false"
     inkscape:window-width="1366"
     inkscape:window-height="744"
     inkscape:window-x="0"
     inkscape:window-y="24"
     inkscape:window-maximized="1">
    <inkscape:grid
       type="xygrid"
       id="grid4084"
       empspacing="5"
       visible="true"
       enabled="true"
       snapvisiblegridlinesonly="true" />
  </sodipodi:namedview>
  <metadata
     id="metadata819">
    <rdf:RDF>
      <cc:Work
         rdf:about="">
        <dc:format>image/svg+xml</dc:format>
        <dc:type
           rdf:resource="http://purl.org/dc/dcmitype/StillImage" />
        <dc:title />
      </cc:Work>
    </rdf:RDF>
  </metadata>
  <g
     inkscape:label="Layer 1"
     inkscape:groupmode="layer"
     id="layer1"
     transform="translate(0,-1036.3622)">
    <g
       transform="translate(-1031,770.36221)"
       id="g6305"
       style="display:inline;enable-background:new">
      <path
         sodipodi:type="arc"
         style="fill:none;stroke:url(#linearGradient3885);stroke-width:1.18900001;stroke-miterlimit:4;stroke-opacity:1;stroke-dasharray:none;display:inline;enable-background:new"
         id="path3813"
         sodipodi:cx="8"
         sodipodi:cy="8"
         sodipodi:rx="7"
         sodipodi:ry="7"
         d="m 15,8 c 0,3.865993 -3.134007,7 -7,7 C 4.1340068,15 1,11.865993 1,8 1,4.1340068 4.1340068,1 8,1 c 3.865993,0 7,3.1340068 7,7 z"
         transform="matrix(1.0533938,0,0,1.0533939,1030.5728,265.57284)" />
      <path
         transform="matrix(1.4419436,0,0,-0.89116967,85.92127,501.3078)"
         d="m 665.47588,255.0668 c 0,4.02825 -2.01821,7.29379 -4.5078,7.29379 -2.48959,0 -4.50781,-3.26554 -4.50781,-7.29379 0,-4.02824 2.01822,-7.29378 4.50781,-7.29378 2.48959,0 4.5078,3.26554 4.5078,7.29378 z"
         sodipodi:ry="7.2937827"
         sodipodi:rx="4.5078058"
         sodipodi:cy="255.0668"
         sodipodi:cx="660.96808"
         id="path6307"
         style="color:#1a1a1c;fill:url(#linearGradient3794);fill-opacity:1;fill-rule:nonzero;stroke:url(#linearGradient3799);stroke-width:0.88215655000000004;stroke-linecap:square;stroke-linejoin:round;stroke-miterlimit:4;stroke-opacity:1;stroke-dasharray:none;stroke-dashoffset:100;marker:none;visibility:visible;display:inline;overflow:visible;enable-background:new"
         sodipodi:type="arc" />
      <path
         sodipodi:type="arc"
         style="fill:#9fb8d5;fill-opacity:1;fill-rule:nonzero;stroke:#84aef0;stroke-opacity:0.5442478"
         id="path3796"
         sodipodi:cx="8.5927467"
         sodipodi:cy="8.3347244"
         sodipodi:rx="2.1550064"
         sodipodi:ry="2.1550064"
         d="m 10.747753,8.3347244 c 0,1.1901772 -0.9648291,2.1550066 -2.1550063,2.1550066 -1.1901771,0 -2.1550064,-0.9648294 -2.1550064,-2.1550066 0,-1.1901771 0.9648293,-2.1550064 2.1550064,-2.1550064 1.1901772,0 2.1550063,0.9648293 2.1550063,2.1550064 z"
         transform="matrix(1.0564946,0,0,1.0564946,1029.9188,265.2244)" />
      <path
         sodipodi:type="arc"
         style="opacity:0.12955466;fill:none;stroke:url(#linearGradient3058-0);stroke-width:1.04254842;stroke-linecap:square;stroke-linejoin:round;stroke-miterlimit:4;stroke-opacity:1;stroke-dasharray:none;stroke-dashoffset:100;display:inline;enable-background:new"
         id="path6313"
         sodipodi:cx="660.96808"
         sodipodi:cy="255.0668"
         sodipodi:rx="4.5078058"
         sodipodi:ry="7.2937827"
         d="m 665.47588,255.0668 c 0,4.02825 -2.01821,7.29379 -4.5078,7.29379 -2.48959,0 -4.50781,-3.26554 -4.50781,-7.29379 0,-4.02824 2.01822,-7.29378 4.50781,-7.29378 2.48959,0 4.5078,3.26554 4.5078,7.29378 z"
         transform="matrix(1.2201064,0,0,-0.75406683,232.54862,466.33741)" />
      <path
         style="fill:#008080;fill-opacity:0.24636727"
         d="M 6.3586728,13.751469 C 5.2593138,13.436634 4.2847974,12.824025 3.5436841,11.981886 3.1506264,11.535249 3.1218196,11.573493 3.8512982,11.573493 l 0.626033,0 0.268524,0.223411 c 1.3323863,1.108538 3.0318004,1.464875 4.6927812,0.983992 0.6132916,-0.177559 1.2337896,-0.51182 1.7942666,-0.96657 l 0.296827,-0.240833 0.633426,0 0.633426,0 -0.111949,0.144639 c -0.199334,0.257541 -0.720563,0.776133 -0.999835,0.994776 -0.613559,0.480358 -1.390494,0.867217 -2.1149429,1.053094 -0.1745335,0.04478 -0.4390119,0.05325 -1.5995391,0.05124 -1.2494919,-0.0022 -1.4128532,-0.0088 -1.6116432,-0.06577 z"
         id="path3047"
         inkscape:connector-curvature="0"
         transform="translate(1031,265.99999)" />
      <path
         style="fill:#008080;fill-opacity:0.24636727"
         d="M 7.22781,12.917075 C 6.2256058,12.754021 5.276262,12.2828 4.4993394,11.562759 l -0.2087452,-0.193462 -0.6257097,0 -0.6257097,0 -0.118462,-0.212084 C 2.8555586,11.040567 2.797271,10.933739 2.7911846,10.919818 c -0.00609,-0.01392 0.2430179,-0.02951 0.553565,-0.03465 l 0.564631,-0.0093 -0.1496816,-0.255246 -0.1496815,-0.255245 1.386195,-0.0089 1.3861951,-0.0089 0.2348699,0.134839 c 0.4970989,0.285385 1.1479936,0.417523 1.696869,0.344482 0.4697053,-0.06251 0.8951882,-0.216408 1.2436046,-0.449825 l 0.1191146,-0.0798 1.3662603,0.01702 1.36626,0.01702 -0.149019,0.255246 c -0.08196,0.140385 -0.149276,0.266361 -0.14959,0.279947 -3.06e-4,0.01359 0.250708,0.0289 0.557825,0.03403 l 0.558395,0.0093 -0.134627,0.229721 -0.134628,0.229721 -0.610104,0 -0.610105,0 -0.337937,0.28258 C 10.601979,12.31884 9.8927541,12.68085 9.0132271,12.869954 8.5803966,12.963015 7.6595562,12.987318 7.22781,12.917075 z"
         id="path3049"
         inkscape:connector-curvature="0"
         transform="translate(1031,265.99999)" />
      <path
         style="fill:#008080;fill-opacity:0.24636727"
         d="M 2.4082695,10.144118 C 2.2602267,9.7357737 2.1461593,9.2979248 2.0846557,8.9019227 2.0280014,8.537144 2.0093201,7.4009486 2.0591609,7.3513345 2.0747821,7.3357843 2.3043526,7.318409 2.5693176,7.3127225 L 3.0510723,7.3023835 3.035601,7.5576291 c -0.00851,0.1403851 -0.021044,0.2935325 -0.027856,0.3403275 -0.02038,0.1400093 0.043496,0.8571403 0.1019379,1.1444553 0.064309,0.3161556 0.2286862,0.8137676 0.3449585,1.0442751 0.045438,0.09008 0.096532,0.200386 0.1135418,0.245126 l 0.030927,0.08134 -0.5429823,0.01012 -0.5429824,0.01012 -0.1048762,-0.289278 z"
         id="path3051"
         inkscape:connector-curvature="0"
         transform="translate(1031,265.99999)" />
      <path
         style="fill:#008080;fill-opacity:0.24636727"
         d="M 2.0517138,7.2862651 C 2.0599395,7.2576942 2.0767237,7.1577444 2.089012,7.0641543 2.1229755,6.8054827 2.2628647,6.2672113 2.3755587,5.961569 2.5874239,5.3869594 2.8243596,4.9507735 3.2047215,4.4351246 l 0.2071065,-0.2807702 0.6939475,0 0.6939475,0 -0.3048579,0.3002479 C 3.8000719,5.1388891 3.3193762,6.0018994 3.1186889,6.9253007 L 3.04048,7.2851551 2.8022507,7.2876824 c -0.131026,0.00139 -0.3568635,0.013328 -0.501861,0.026529 -0.2274391,0.020706 -0.2615785,0.01687 -0.2486759,-0.027946 l 0,2e-7 z"
         id="path3053"
         inkscape:connector-curvature="0"
         transform="translate(1031,265.99999)" />
      <path
         style="fill:#008080;fill-opacity:0.24636727"
         d="M 12.652694,6.1367619 C 12.439923,5.4800487 11.734047,4.5608989 11.032158,4.026596 9.2619973,2.6790874 6.7471465,2.6714001 4.9905171,4.008128 L 4.7964912,4.1557743 4.1056657,4.1465562 3.4148402,4.137338 3.772184,3.7783221 C 4.697955,2.8482192 5.7937817,2.2945194 7.141426,2.07591 7.4702831,2.0225641 8.4701325,2.0223315 8.8430634,2.075514 11.015222,2.3852793 12.886673,3.8999678 13.628186,5.9484302 l 0.11437,0.3159545 -0.524257,0 -0.524257,0 -0.04135,-0.1276228 z"
         id="path3055"
         inkscape:connector-curvature="0"
         transform="translate(1031,265.99999)" />
      <path
         style="fill:#008080;fill-opacity:0.24636727"
         d="m 12.926993,8.9235842 c 0,-0.016163 0.01591,-0.1118803 0.03537,-0.2127047 0.05368,-0.2782323 0.04575,-1.091035 -0.01422,-1.4595451 -0.02894,-0.1778211 -0.09703,-0.4726298 -0.15131,-0.6551304 l -0.09869,-0.3318193 0.518642,0 0.518642,0 0.07011,0.2807702 c 0.140202,0.5614324 0.185954,1.0184699 0.16779,1.6761128 -0.0093,0.3369242 -0.02811,0.6393902 -0.04179,0.6721468 -0.02206,0.05281 -0.08036,0.059557 -0.514707,0.059557 -0.269409,0 -0.489834,-0.013224 -0.489834,-0.029388 z"
         id="path3057"
         inkscape:connector-curvature="0"
         transform="translate(1031,265.99999)" />
      <path
         style="fill:#008080;fill-opacity:0.24636727"
         d="m 12.416502,10.381498 c 0,-0.01919 0.05318,-0.140483 0.118176,-0.269549 0.117835,-0.2339889 0.358282,-0.9674391 0.358282,-1.0928884 0,-0.062488 0.02777,-0.066089 0.509641,-0.066089 l 0.50964,0 -0.01989,0.1106064 c -0.04918,0.2734267 -0.160744,0.6831889 -0.273344,1.0039658 l -0.122449,0.348836 -0.540026,0 c -0.346098,0 -0.540026,-0.01253 -0.540026,-0.03488 z"
         id="path3059"
         inkscape:connector-curvature="0"
         transform="translate(1031,265.99999)" />
      <path
         style="fill:#008080;fill-opacity:0.24636727"
         d="m 12.212305,10.735788 c 0,-0.0115 0.04104,-0.09632 0.0912,-0.188475 0.05991,-0.110071 0.107567,-0.161274 0.138914,-0.149245 0.02625,0.01007 0.267682,0.01831 0.536525,0.01831 l 0.488805,0 -0.07072,0.170164 -0.07072,0.170163 -0.557003,0 c -0.306351,0 -0.557003,-0.0094 -0.557003,-0.02092 z"
         id="path3061"
         inkscape:connector-curvature="0"
         transform="translate(1031,265.99999)" />
      <path
         style="fill:#008080;fill-opacity:0.24636727"
         d="m 11.633749,11.471395 0.119114,-0.100267 0.588989,-9.16e-4 0.588989,-9.15e-4 -0.06031,0.102098 -0.06031,0.102098 -0.647792,-9.15e-4 -0.647793,-9.16e-4 0.119115,-0.100267 z"
         id="path3063"
         inkscape:connector-curvature="0"
         transform="translate(1031,265.99999)" />
      <path
         style="fill:#008080;fill-opacity:0.24636727"
         d="m 2.7047482,10.792313 -0.048201,-0.120687 0.54931,-0.01702 0.54931,-0.01702 0.056451,0.102098 0.056451,0.102098 -0.4478279,0.02348 c -0.2463053,0.01291 -0.4972076,0.02893 -0.5575607,0.0356 -0.09833,0.01087 -0.1147417,-4.12e-4 -0.1579334,-0.108557 z"
         id="path3065"
         inkscape:connector-curvature="0"
         transform="translate(1031,265.99999)" />
      <path
         style="fill:#008080;fill-opacity:0.24636727"
         d="m 2.5933314,10.557481 -0.036662,-0.09713 0.4089038,-0.02199 c 0.6639272,-0.0357 0.66151,-0.03595 0.7189557,0.07514 l 0.050224,0.09712 -0.309824,0.02199 c -0.1704032,0.0121 -0.4189742,0.02199 -0.5523801,0.02199 -0.2354961,0 -0.2436232,-0.0028 -0.2792178,-0.09713 z"
         id="path3067"
         inkscape:connector-curvature="0"
         transform="translate(1031,265.99999)" />
      <path
         style="fill:#008080;fill-opacity:0.24636727"
         d="m 3.1488792,11.503217 -0.095797,-0.13392 0.6062884,0.0014 0.6062885,0.0014 0.117829,0.100715 0.1178291,0.100715 -0.616976,0 c -0.351966,0 -0.6218488,0.01367 -0.6283203,0.03182 -0.00624,0.0175 -0.054453,-0.02844 -0.1071415,-0.102098 z"
         id="path3069"
         inkscape:connector-curvature="0"
         transform="translate(1031,265.99999)" />
      <path
         style="fill:#008080;fill-opacity:0.24636727"
         d="m 12.269074,10.86788 c -0.09958,-0.01032 -0.12573,-0.02572 -0.110607,-0.06513 0.01089,-0.02839 0.01979,-0.05419 0.01976,-0.05734 -2.5e-5,-0.0031 0.252668,-0.0012 0.561541,0.0044 0.308872,0.0056 0.561585,0.01579 0.561585,0.02274 0,0.007 -0.0093,0.03687 -0.02066,0.06648 -0.0175,0.0456 -0.08649,0.05296 -0.450934,0.04811 -0.236652,-0.0031 -0.488962,-0.0118 -0.560688,-0.01924 z"
         id="path3071"
         inkscape:connector-curvature="0"
         transform="translate(1031,265.99999)" />
      <path
         style="fill:#008080;fill-opacity:0.24636727"
         d="M 10.24519,10.288816 9.7244666,10.278458 9.9584882,10.049632 C 10.329768,9.6865961 10.575434,9.2713255 10.72204,8.7589311 c 0.06178,-0.2159213 0.0759,-0.3510575 0.07572,-0.7248435 -1.2e-4,-0.2559805 -0.01811,-0.5188796 -0.04063,-0.5936595 -0.02223,-0.073819 -0.03701,-0.136785 -0.03283,-0.1399232 0.0042,-0.00314 0.500864,-0.015102 1.10376,-0.026587 l 1.096173,-0.020881 0.02451,0.1267712 c 0.03908,0.2020853 0.02598,1.0881843 -0.02049,1.3859829 -0.05462,0.3500899 -0.173971,0.7610664 -0.348376,1.1996543 l -0.138715,0.348836 -0.837624,-0.0076 c -0.460693,-0.0042 -1.071949,-0.01222 -1.358347,-0.01791 z"
         id="path3073"
         inkscape:connector-curvature="0"
         transform="translate(1031,265.99999)" />
      <path
         style="fill:#008080;fill-opacity:0.24636727"
         d="M 3.1473711,9.1063373 C 3.136643,9.0783801 3.1028534,8.8678024 3.0722831,8.638387 2.8929644,7.2926865 3.2576883,5.9650455 4.0928128,4.9235305 l 0.1882632,-0.23479 3.2083859,-0.015143 c 1.7646126,-0.00833 3.4227921,-0.025191 3.6848451,-0.037472 l 0.476458,-0.022329 0.180561,0.2041965 c 0.33742,0.3815869 0.707346,1.0369526 0.883661,1.5655064 0.103103,0.3090811 0.230127,0.8286096 0.207324,0.8479615 -0.0068,0.00576 -0.504906,0.020536 -1.106939,0.03284 l -1.094604,0.022371 -0.05772,-0.1793244 C 10.542337,6.7323009 10.232143,6.2539201 9.9277537,5.9733761 9.068888,5.1817923 7.8417233,4.9923631 6.7946367,5.4897376 5.5080919,6.1008566 4.8856412,7.5420815 5.3189442,8.9065613 l 0.079582,0.250607 -1.1158249,0 c -0.9583215,0 -1.1185783,-0.00718 -1.1353307,-0.050831 z"
         id="path3075"
         inkscape:connector-curvature="0"
         transform="translate(1031,265.99999)" />
      <path
         style="fill:#008080;fill-opacity:0.24636727"
         d="M 4.5388336,4.4237158 C 5.1457031,3.8070945 6.043644,3.3303262 6.9818666,3.1265695 7.271493,3.0636705 7.4379173,3.0510505 7.9922447,3.0499526 c 0.5729719,-0.00113 0.7119035,0.00947 1.0169155,0.07761 0.6886295,0.1538443 1.2372988,0.387892 1.8000988,0.7678743 0.374841,0.2530789 0.820711,0.6483925 0.778713,0.6904151 -0.03336,0.033374 -2.6941866,0.070869 -5.3645174,0.075593 l -1.9219375,0.0034 0.2373165,-0.2411298 z"
         id="path3077"
         inkscape:connector-curvature="0"
         transform="translate(1031,265.99999)" />
      <path
         style="fill:#008080;fill-opacity:0.24636727"
         d="M 3.5762624,10.305773 C 3.4865318,10.193806 3.1596452,9.3047022 3.1595782,9.1724284 c -1e-5,-0.019885 0.4311132,-0.028665 1.1229629,-0.022869 l 1.1229793,0.00941 0.081565,0.1607566 C 5.6392836,9.6196894 5.895813,9.9367812 6.202209,10.203675 l 0.1660468,0.144639 -1.3789506,0 c -1.0622896,0 -1.3867795,-0.0098 -1.4130428,-0.04254 z"
         id="path3079"
         inkscape:connector-curvature="0"
         transform="translate(1031,265.99999)" />
      <path
         style="fill:#00ffff;fill-opacity:0.24636727"
         d="M 7.7199827,9.7462462 C 7.1094793,9.6440501 6.5597185,9.1799775 6.3593942,8.5977247 5.9744101,7.4787489 6.8126211,6.2984175 7.9922447,6.2984175 c 0.95404,0 1.7356701,0.7816301 1.7356701,1.7356701 0,1.0501826 -0.9784356,1.8844922 -2.0079321,1.7121586 z"
         id="path3081"
         inkscape:connector-curvature="0"
         transform="translate(1031,265.99999)" />
      <path
         style="fill:#00ffff;fill-opacity:0.24636727"
         d="M 7.5328026,9.6897076 C 6.9590839,9.5000348 6.4840298,9.0127171 6.3379171,8.4639759 6.275235,8.228567 6.2785358,7.8152775 6.3449025,7.5893307 6.7213888,6.3075754 8.2675205,5.894518 9.1996674,6.8266649 9.9644587,7.5914564 9.8411833,8.8453749 8.941542,9.4522327 8.6372256,9.6575109 8.4501151,9.7143173 8.0432938,9.7249386 7.7991259,9.7313136 7.6215909,9.7190612 7.5328026,9.6897076 l 0,0 z"
         id="path3083"
         inkscape:connector-curvature="0"
         transform="translate(1031,265.99999)" />
      <path
         style="fill:#00ffff;fill-opacity:0.24636727"
         d="M 7.4128656,9.6227255 C 6.9311414,9.4245265 6.5113508,8.9798445 6.3706522,8.5187145 6.2953926,8.2720563 6.3059047,7.7550381 6.3911758,7.5092995 6.5891817,6.938676 7.0469068,6.5201889 7.6210518,6.3848533 8.1896343,6.2508289 8.7576916,6.4186724 9.1877812,6.847774 9.8059842,7.4645567 9.8499749,8.4091518 9.293146,9.1102281 9.1252192,9.3216565 8.7562889,9.5730073 8.5050671,9.6471431 8.2138447,9.733083 7.650479,9.7204885 7.4128656,9.6227255 l 0,0 z"
         id="path3085"
         inkscape:connector-curvature="0"
         transform="translate(1031,265.99999)" />
      <path
         style="fill:#00ffff;fill-opacity:0.24636727"
         d="M 7.6698394,9.6655482 C 7.3585831,9.6175134 7.123455,9.4847796 6.8266337,9.1895444 6.4091449,8.7742866 6.2780292,8.3929467 6.3530142,7.8120593 6.4381896,7.1522299 6.8859929,6.6235071 7.5237195,6.4298036 c 0.194663,-0.059127 0.2966892,-0.069224 0.5676556,-0.056176 0.2952326,0.014216 0.3590578,0.029677 0.600571,0.1454793 0.4491751,0.2153732 0.7950246,0.6273259 0.9157341,1.0907609 0.1349326,0.5180413 -0.00798,1.126586 -0.3579534,1.5241713 -0.1735417,0.1971538 -0.5096891,0.4191048 -0.7299745,0.4819867 -0.2306377,0.065837 -0.60344,0.087559 -0.8499129,0.049522 z"
         id="path3087"
         inkscape:connector-curvature="0"
         transform="translate(1031,265.99999)" />
      <path
         style="fill:#00ffff;fill-opacity:0.24636727"
         d="M 7.4786543,9.6031203 C 7.231384,9.5240075 7.0331162,9.3851114 6.7776937,9.1120639 6.4792194,8.792994 6.38163,8.5744513 6.3646923,8.1871837 6.3479769,7.805 6.3966676,7.5588165 6.5493237,7.2536749 6.695002,6.9624812 6.9820189,6.6868961 7.3032098,6.5298158 7.5284627,6.4196546 7.5414981,6.4175321 7.9928147,6.4175321 c 0.4546915,0 0.462761,0.00135 0.6976713,0.1164166 0.3118976,0.152782 0.6466278,0.4843167 0.7930217,0.7854512 0.1837784,0.3780349 0.2060603,0.8714057 0.058273,1.2902807 -0.1640442,0.464951 -0.6168096,0.882225 -1.091389,1.0058373 -0.2700587,0.070341 -0.7315349,0.064454 -0.971737,-0.012398 z"
         id="path3089"
         inkscape:connector-curvature="0"
         transform="translate(1031,265.99999)" />
      <path
         style="fill:#00ffff;fill-opacity:0.24636727"
         d="M 7.6971241,9.6328127 C 7.386803,9.5906908 7.1299494,9.450233 6.8530323,9.1712299 6.5698653,8.8859297 6.4352921,8.6388925 6.388754,8.3189499 6.2816715,7.5827732 6.6317785,6.8965001 7.2885381,6.5552099 l 0.232194,-0.1206614 0.4685497,0 c 0.4573522,0 0.4736703,0.00256 0.6828129,0.1070685 0.295579,0.1477026 0.6427199,0.4828821 0.7777507,0.7509517 C 9.7616259,7.9115306 9.6525738,8.6658595 9.1809186,9.1527736 8.7915245,9.5547654 8.298125,9.7143906 7.6971241,9.6328127 l 0,0 z"
         id="path3091"
         inkscape:connector-curvature="0"
         transform="translate(1031,265.99999)" />
      <path
         style="fill:#00ffff;fill-opacity:0.24636727"
         d="M 7.5628426,9.6013322 C 7.2030092,9.5154285 6.691272,9.075863 6.5108746,8.6977262 6.3747347,8.4123586 6.3507923,7.9120219 6.4566064,7.563652 6.5929356,7.1148178 6.9018014,6.7606869 7.3576229,6.5305889 7.5580288,6.4294244 7.5656046,6.4283943 8.0230281,6.4401139 c 0.4512797,0.011562 0.467955,0.014704 0.6761026,0.1273774 0.286842,0.155272 0.6295614,0.5028557 0.7548174,0.7655306 0.4214353,0.8837933 -0.033375,1.9495012 -0.9543077,2.2361277 -0.2149556,0.066902 -0.7188544,0.084213 -0.9367978,0.032183 z"
         id="path3093"
         inkscape:connector-curvature="0"
         transform="translate(1031,265.99999)" />
      <path
         style="fill:#00ffff;fill-opacity:0.24636727"
         d="M 7.539573,9.5851004 C 7.2218819,9.4996814 6.7674196,9.1201215 6.5581442,8.7654261 6.4073734,8.5098885 6.3534773,8.0546175 6.4304689,7.6869271 6.5257037,7.2321119 6.8967036,6.771957 7.3551263,6.5400651 L 7.583844,6.4243689 8.0347817,6.44753 C 8.429861,6.4678221 8.50888,6.4821536 8.6726904,6.5632262 8.9463486,6.6986644 9.3278766,7.0867217 9.4554873,7.3594195 9.8147082,8.127057 9.4831517,9.0938868 8.7352001,9.4598002 8.3833957,9.6319103 7.9014973,9.6824126 7.539573,9.5851004 z"
         id="path3095"
         inkscape:connector-curvature="0"
         transform="translate(1031,265.99999)" />
      <path
         style="fill:#00ffff;fill-opacity:0.24636727"
         d="M 7.6254573,9.5974801 C 7.3829766,9.5496935 7.1386767,9.3948755 6.8484584,9.1050794 6.5316711,8.788753 6.4486369,8.6178908 6.4106813,8.2042513 6.3818594,7.8901508 6.4501242,7.5306149 6.586745,7.2769627 6.7282611,7.0142216 7.0483067,6.7088238 7.3418411,6.5564255 l 0.2514643,-0.1305562 0.4291907,0.022852 c 0.3820171,0.020341 0.452622,0.03417 0.6423717,0.1258213 C 8.9054977,6.69077 9.2574402,7.0203054 9.3990991,7.2620282 9.646526,7.6842301 9.6541657,8.28193 9.4184261,8.7740981 9.319619,8.9803836 8.9411556,9.3602167 8.7370354,9.4579549 8.4260895,9.606844 7.9660068,9.6645936 7.6254573,9.5974801 l 0,0 z"
         id="path3097"
         inkscape:connector-curvature="0"
         transform="translate(1031,265.99999)" />
      <path
         style="fill:#00ffff;fill-opacity:0.24636727"
         d="M 7.6486146,9.599157 C 7.455366,9.5664684 7.3160392,9.4961399 7.0690791,9.3066226 6.6887306,9.0147429 6.4945421,8.714342 6.4277211,8.3144703 6.308911,7.6034842 6.6640445,6.9265639 7.3503291,6.5558859 L 7.5959158,6.4232389 8.0408177,6.455365 C 8.3970841,6.4810908 8.519182,6.5037711 8.6536834,6.5692078 8.8718527,6.6753501 9.2820831,7.0662916 9.3971608,7.2777272 9.7336673,7.8960009 9.6211364,8.6513572 9.1174887,9.1550049 8.8666041,9.4058895 8.579296,9.5472741 8.2195031,9.5969045 7.9254103,9.637472 7.8762722,9.6376659 7.6486146,9.5991571 l 0,-10e-8 z"
         id="path3099"
         inkscape:connector-curvature="0"
         transform="translate(1031,265.99999)" />
      <path
         style="fill:#00ffff;fill-opacity:0.24636727"
         d="M 7.4191925,10.211084 C 7.0300031,10.109139 6.7212624,9.9275342 6.4085498,9.6166103 5.9669083,9.177495 5.7476555,8.6523234 5.7465864,8.0310234 5.7455322,7.4183958 5.9622626,6.9004081 6.4092197,6.4473229 6.6381259,6.2152785 6.7339694,6.1459291 7.005295,6.0160218 7.3852966,5.8340818 7.617461,5.7811374 8.0267504,5.7830821 c 0.6818477,0.00324 1.2960692,0.3051758 1.7360456,0.8533965 0.319563,0.3981827 0.479171,0.8556808 0.480239,1.3765476 0.0013,0.6521835 -0.195658,1.133189 -0.6501751,1.5875336 -0.3331186,0.3329924 -0.628822,0.5066982 -1.0428008,0.6125762 -0.3406694,0.08713 -0.7935412,0.08631 -1.1308666,-0.0021 l 0,0 z M 8.4516868,9.7291747 C 8.8369755,9.6335508 9.2906985,9.2850548 9.5150474,8.912427 9.674415,8.6477288 9.7759612,8.2177573 9.750406,7.9158598 9.6884984,7.1845053 9.2328683,6.5966551 8.545829,6.3617242 8.2275465,6.2528885 7.761609,6.2530358 7.4477207,6.3620714 7.1848719,6.4533774 6.9410138,6.6084613 6.7387081,6.8129745 6.1792731,7.3785141 6.0869305,8.2995627 6.5222039,8.9724429 c 0.4174132,0.6452704 1.177487,0.943367 1.9294829,0.7567318 z"
         id="path3101"
         inkscape:connector-curvature="0"
         transform="translate(1031,265.99999)" />
      <path
         style="fill:#00ffff;fill-opacity:0.24636727"
         d="M 6.3379245,10.269722 C 5.5521966,9.70233 5.0927222,8.6217181 5.235394,7.6767438 5.4096401,6.5226401 6.1967334,5.6310211 7.3115897,5.3248301 c 0.342672,-0.094113 1.0581707,-0.087705 1.4050577,0.012586 0.9731422,0.2813502 1.6909146,0.9990058 1.9721486,1.9718284 0.06328,0.2188808 0.07644,0.3459343 0.07509,0.7248435 -0.002,0.5549075 -0.04942,0.7573083 -0.295208,1.2592116 -0.154365,0.3152192 -0.213968,0.3964598 -0.5056091,0.6891632 l -0.3306149,0.3318196 -0.3861886,0.0044 c -0.2124038,0.0024 -0.9238838,0.01389 -1.5810667,0.02553 l -1.1948782,0.02116 -0.132399,-0.09561 z m 2.2189248,-0.0237 C 9.6027859,9.9807846 10.275288,9.1080352 10.274376,8.0170712 10.273839,7.3746548 10.064351,6.8707191 9.609441,6.4175321 9.1506353,5.9604642 8.6466046,5.7533927 7.9953089,5.7543966 7.5998721,5.7550061 7.3052435,5.8200194 6.9874864,5.9767848 5.5011268,6.71008 5.2649296,8.7293416 6.5405612,9.7975717 7.077429,10.247152 7.863199,10.421916 8.5568493,10.246017 l 0,0 z"
         id="path3103"
         inkscape:connector-curvature="0"
         transform="translate(1031,265.99999)" />
      <path
         style="fill:#00ffff;fill-opacity:0.24636727"
         d="M 6.3021716,10.217816 C 5.3384932,9.4543078 4.9846389,8.1651187 5.4281343,7.0334557 5.7300596,6.2630357 6.3490799,5.6774923 7.1584424,5.3967238 7.4913823,5.2812266 8.0909483,5.2420998 8.4807531,5.3104318 c 1.0963085,0.1921805 2.0200279,1.1033217 2.2354789,2.2050398 0.05546,0.2835791 0.02498,1.017047 -0.05266,1.2673364 -0.03194,0.1029491 -0.128205,0.3315954 -0.213935,0.5081032 -0.13119,0.2701046 -0.209442,0.37654 -0.4941622,0.6721467 L 9.6171879,10.314282 8.9833882,10.310334 C 8.6347983,10.308163 8.380218,10.299531 8.417654,10.291152 8.8546066,10.193358 9.2635424,9.9856322 9.5606847,9.7105309 10.04652,9.260733 10.272439,8.7214334 10.272439,8.0114747 10.272439,7.3386274 10.087121,6.8914094 9.6110218,6.4153103 9.1352076,5.9394961 8.6824268,5.7538935 7.9974832,5.7538935 c -0.6741382,0 -1.1575257,0.1973016 -1.6231633,0.6625173 -0.311882,0.3115995 -0.5120171,0.6702783 -0.6133213,1.0991843 -0.088973,0.3766979 -0.055373,0.9233234 0.079164,1.2878909 0.2495459,0.6762167 0.7495105,1.172745 1.4037311,1.394083 0.1344087,0.04547 0.285028,0.08291 0.3347095,0.0832 0.070822,4.08e-4 0.079305,0.0076 0.039281,0.03351 -0.028077,0.01814 -0.2985384,0.03322 -0.6010252,0.03351 l -0.5499761,5.21e-4 -0.1647116,-0.130498 z"
         id="path3105"
         inkscape:connector-curvature="0"
         transform="translate(1031,265.99999)" />
      <path
         style="fill:#00ffff;fill-opacity:0.24636727"
         d="M 7.5036817,10.7727 C 7.2300826,10.720885 6.7932289,10.562769 6.617958,10.45212 c -0.096998,-0.06123 -0.089821,-0.06213 0.6636386,-0.08307 0.4189335,-0.01164 1.1027482,-0.0249 1.5195883,-0.02946 0.8421413,-0.0092 0.8312226,-0.01463 0.3992223,0.197878 -0.4905759,0.241321 -1.1683778,0.33529 -1.6967255,0.235228 z"
         id="path3107"
         inkscape:connector-curvature="0"
         transform="translate(1031,265.99999)" />
      <path
         style="fill:#00ffff;fill-opacity:0.24636727"
         d="M 7.4307044,10.740778 C 7.2045251,10.691431 6.676166,10.496065 6.6486998,10.451624 c -0.027709,-0.04484 0.3551453,-0.06621 1.6116022,-0.08998 1.315083,-0.02488 1.3473959,-0.01803 0.8751162,0.185603 -0.5106281,0.220163 -1.2157437,0.300214 -1.7047138,0.193532 z"
         id="path3109"
         inkscape:connector-curvature="0"
         transform="translate(1031,265.99999)" />
      <path
         style="fill:#00ffff;fill-opacity:0.24636727"
         d=""
         id="path3111"
         inkscape:connector-curvature="0"
         transform="translate(1031,265.99999)" />
      <path
         style="fill:#00ffff;fill-opacity:0.24636727"
         d="M 7.5328026,10.225167 C 6.9289172,10.07156 6.4601617,9.7436389 6.1222324,9.2383925 5.6471051,8.5280183 5.6483337,7.53832 6.1252279,6.8253039 6.4416095,6.3522742 6.8747231,6.0355222 7.4315415,5.8699484 7.7025059,5.7893753 8.268696,5.7894003 8.5678547,5.8699986 9.324411,6.0738272 9.958667,6.7076922 10.154365,7.4555309 c 0.07794,0.2978565 0.08015,0.866475 0.0045,1.1528813 -0.1739377,0.6582377 -0.7771637,1.3076554 -1.4272984,1.5365918 -0.1680895,0.05919 -0.3065591,0.07694 -0.6712204,0.08603 -0.2526932,0.0063 -0.4900716,0.0037 -0.5275076,-0.0059 l 0,0 z M 8.522273,9.7203953 C 8.8974728,9.6078112 9.355554,9.225082 9.5485966,8.8628974 9.8275453,8.3395357 9.8306331,7.7839865 9.5576799,7.2285656 9.0395742,6.1742934 7.6031966,5.941151 6.7668117,6.7755722 6.4138951,7.1276602 6.2499668,7.5189908 6.246748,8.0170712 6.2434724,8.5239509 6.4179767,8.9391809 6.7806191,9.2874078 7.2506249,9.7387307 7.9126626,9.9033179 8.522273,9.7203953 l 0,0 z"
         id="path3113"
         inkscape:connector-curvature="0"
         transform="translate(1031,265.99999)" />
      <path
         style="fill:#00ffff;fill-opacity:0.24636727"
         d="M 7.3204954,10.14562 C 6.7515565,9.937694 6.269289,9.5194166 6.0233821,9.0206154 5.706432,8.3777089 5.7062738,7.6924438 6.0229265,7.0471379 6.2309318,6.6232445 6.5989023,6.2620582 7.0393278,6.049476 7.4286165,5.8615762 7.7145995,5.8052262 8.1433277,5.8319442 8.7082053,5.867147 9.1416687,6.0641411 9.5514084,6.4718678 9.8193033,6.738447 10.007358,7.0401422 10.111516,7.370449 c 0.109872,0.3484217 0.10821,1.0260337 -0.0033,1.3507748 C 9.9055705,9.3112743 9.3275195,9.90848 8.7579829,10.116188 c -0.1706888,0.06225 -0.2907581,0.07612 -0.7317041,0.08453 -0.451517,0.0086 -0.5531891,6.74e-4 -0.705782,-0.0551 l -1.4e-6,0 z M 8.373438,9.7654948 C 8.4726289,9.7444319 8.6404971,9.6836327 8.7464787,9.6303854 9.8502819,9.0758109 10.102724,7.6982665 9.2635642,6.808713 8.5817132,6.0859153 7.4565052,6.0802852 6.7450012,6.7961111 6.079349,7.4658067 6.0639819,8.5696237 6.7110435,9.2352921 7.1533053,9.6902718 7.782558,9.890965 8.373438,9.7654948 z"
         id="path3115"
         inkscape:connector-curvature="0"
         transform="translate(1031,265.99999)" />
      <path
         style="fill:#00ffff;fill-opacity:0.24636727"
         d="M 7.68595,9.6000077 C 7.3783012,9.5439181 7.1504927,9.4066546 6.8375457,9.088811 6.6012893,8.848858 6.4767207,8.6001 6.4322997,8.2795523 6.3564397,7.7321372 6.5257686,7.2525367 6.9289344,6.8729034 7.0557656,6.7534753 7.2569941,6.6040315 7.3761088,6.5408062 l 0.2165721,-0.1149551 0.3614375,0.023682 c 0.5038276,0.033011 0.6330984,0.068568 0.8738404,0.240358 0.58354,0.4164054 0.8411614,0.9740004 0.7352819,1.591442 C 9.4573421,8.8988857 8.9651569,9.4389094 8.3966226,9.5613415 8.1549879,9.6133767 7.8502269,9.6299581 7.68595,9.6000077 z"
         id="path3117"
         inkscape:connector-curvature="0"
         transform="translate(1031,265.99999)" />
      <path
         style="fill:#00ffff;fill-opacity:0.24636727"
         d="M 7.6936495,9.5940809 C 7.2664699,9.5269801 6.7470795,9.1070356 6.5372517,8.6590946 6.451362,8.475737 6.4438173,8.4262685 6.4445237,8.051104 6.4451674,7.7092731 6.4576083,7.6122034 6.520855,7.4555309 6.6638778,7.10124 7.0061907,6.7447029 7.4190829,6.5199788 l 0.1749042,-0.095195 0.4414745,0.036935 c 0.5488825,0.045921 0.7086514,0.1155601 1.0592045,0.4616771 0.401065,0.39599 0.5557714,0.8434825 0.465752,1.3472008 C 9.4759056,8.7435004 9.1379625,9.2268973 8.7554396,9.4220459 8.4551635,9.5752353 8.0212487,9.6455397 7.6936495,9.5940809 z"
         id="path3119"
         inkscape:connector-curvature="0"
         transform="translate(1031,265.99999)" />
      <path
         style="fill:#00ffff;fill-opacity:0.24636727"
         d="M 7.5088308,9.5515952 C 7.1659746,9.4291843 6.6951999,8.9961581 6.5363237,8.6570676 6.4513673,8.4757446 6.4438631,8.4259118 6.4450735,8.051104 6.4461911,7.7050265 6.4582245,7.6143697 6.5239359,7.4569726 6.6764194,7.0917324 7.0115547,6.7417835 7.4236425,6.5174972 l 0.171986,-0.093607 0.4449798,0.039576 c 0.540499,0.048071 0.7024749,0.1178126 1.0458209,0.4502974 0.6393116,0.6190881 0.6589672,1.5413004 0.04694,2.2023629 -0.2074483,0.2240689 -0.4259271,0.3555083 -0.7169049,0.4312984 -0.2435005,0.063424 -0.735343,0.065684 -0.9076334,0.00417 l 0,0 z"
         id="path3121"
         inkscape:connector-curvature="0"
         transform="translate(1031,265.99999)" />
      <path
         style="fill:#00ffff;fill-opacity:0.24636727"
         d="M 7.4786084,9.5352615 C 7.1285017,9.3982837 6.7142073,9.0102753 6.5406402,8.6568049 6.4504921,8.4732177 6.4437547,8.4310974 6.4437547,8.051104 c 0,-0.3998573 0.0026,-0.4138388 0.1244282,-0.6689522 C 6.7193722,7.0655534 6.9941827,6.7771073 7.3408283,6.5711689 l 0.2409235,-0.14313 0.3328693,0.022784 C 8.5386018,6.493534 8.7743893,6.5940493 9.1410896,6.9736621 9.7376852,7.5912655 9.7199248,8.509996 9.0991511,9.143112 8.7725851,9.4761708 8.4409155,9.6013621 7.8940095,9.5980021 7.7287702,9.5969869 7.5782795,9.5742574 7.4786084,9.5352615 l 0,0 z"
         id="path3123"
         inkscape:connector-curvature="0"
         transform="translate(1031,265.99999)" />
      <path
         style="fill:#00ffff;fill-opacity:0.24636727"
         d="M 7.5244177,9.5498951 C 7.1811109,9.4426489 6.7215612,9.0258751 6.5420509,8.6589692 6.4521016,8.4751195 6.4451737,8.4318954 6.4444903,8.0502754 6.4437582,7.6414448 6.4443819,7.6382149 6.5752124,7.3733462 6.732716,7.0544774 7.0050699,6.7706393 7.350376,6.5654967 l 0.2357928,-0.1400819 0.4157426,0.036642 c 0.4994722,0.044022 0.6082768,0.07922 0.8904299,0.2880544 0.2575085,0.1905933 0.4957608,0.4946788 0.5995485,0.765214 0.106242,0.2769326 0.1051369,0.7285478 -0.00248,1.0122368 C 9.2771425,9.0871448 8.8547048,9.4665408 8.3339453,9.5653008 8.0876547,9.6120089 7.6996115,9.6046242 7.5244177,9.5498951 z"
         id="path3125"
         inkscape:connector-curvature="0"
         transform="translate(1031,265.99999)" />
    </g>
  </g>
</svg>
