<?xml version="1.0" encoding="UTF-8" standalone="no"?>
<svg
   xmlns:dc="http://purl.org/dc/elements/1.1/"
   xmlns:cc="http://creativecommons.org/ns#"
   xmlns:rdf="http://www.w3.org/1999/02/22-rdf-syntax-ns#"
   xmlns:svg="http://www.w3.org/2000/svg"
   xmlns="http://www.w3.org/2000/svg"
   xmlns:sodipodi="http://sodipodi.sourceforge.net/DTD/sodipodi-0.dtd"
   xmlns:inkscape="http://www.inkscape.org/namespaces/inkscape"
   width="64"
   height="64"
   version="1.1"
   id="svg24"
   sodipodi:docname="folder-favorites.svg"
   inkscape:version="0.92.4 (5da689c313, 2019-01-14)">
  <metadata
     id="metadata30">
    <rdf:RDF>
      <cc:Work
         rdf:about="">
        <dc:format>image/svg+xml</dc:format>
        <dc:type
           rdf:resource="http://purl.org/dc/dcmitype/StillImage" />
        <dc:title></dc:title>
      </cc:Work>
    </rdf:RDF>
  </metadata>
  <defs
     id="defs28" />
  <sodipodi:namedview
     pagecolor="#ffffff"
     bordercolor="#666666"
     borderopacity="1"
     objecttolerance="10"
     gridtolerance="10"
     guidetolerance="10"
     inkscape:pageopacity="0"
     inkscape:pageshadow="2"
     inkscape:window-width="799"
     inkscape:window-height="480"
     id="namedview26"
     showgrid="false"
     inkscape:zoom="3.6875"
     inkscape:cx="3.5254237"
     inkscape:cy="32"
     inkscape:window-x="0"
     inkscape:window-y="25"
     inkscape:window-maximized="0"
     inkscape:current-layer="svg24" />
  <path
     d="M 6,6 A 1.995,1.995 0 0 0 4,8 v 25 c 0,0.554 0.446,1 1,1 h 54 c 0.554,0 1,-0.446 1,-1 V 12.81 A 1.805,1.805 0 0 0 58.19,11 H 32 L 28,6 Z"
     id="path2"
     inkscape:connector-curvature="0" />
  <path
     d="m 26.216,16.756 -4.82,4.82 H 4.044 4.046 l -0.002,0.012 v 32.764 a 2.882,2.882 0 0 0 2.892,2.892 h 50.128 a 2.883,2.883 0 0 0 2.892,-2.892 V 16.756 Z"
     id="path4"
     inkscape:connector-curvature="0"
     style="fill:#f9f9f9" />
  <path
     d="M 46.508,17.59 H 59.492 V 28.41 H 46.508 Z"
     id="path6"
     inkscape:connector-curvature="0"
     style="fill:#fac901" />
  <path
     d="m 4.508,22.66 h 13.984 v 9.68 H 4.508 v -3.226 z"
     id="path8"
     inkscape:connector-curvature="0"
     style="fill:#dd0100" />
  <path
     d="m 28.66,33.656 3.693,2.538 -5.298,3.886 z"
     id="path10"
     inkscape:connector-curvature="0"
     style="fill:#225095" />
  <path
     d="m 36.444,33.88 2.245,5.99 -5.374,-3.694 z"
     id="path12"
     inkscape:connector-curvature="0"
     style="fill:#dd0100" />
  <path
     d="m 46.508,35.63 h 12.984 v 9.74 H 46.508 Z M 4.846,39.508 h 5.308 V 56.492 H 5.908 A 1.057,1.057 0 0 1 4.846,55.43 Z"
     id="path14"
     inkscape:connector-curvature="0"
     style="fill:#225095" />
  <path
     d="M 18.63,45.799 H 30.37 V 52.2 H 18.63 Z m 11.878,-0.018 h 9.984 v 4.438 h -9.984 z"
     id="path16"
     inkscape:connector-curvature="0"
     style="fill:#fac901" />
  <path
     d="m 48.63,50.815 h 10.74 v 4.296 c 0,0.297 -0.121,0.565 -0.315,0.759 a 1.07,1.07 0 0 1 -0.76,0.315 h -9.664 z"
     id="path18"
     inkscape:connector-curvature="0"
     style="fill:#dd0100" />
  <path
     d="m 10.63,52.942 h 19.74 v 3.116 H 10.63 Z"
     id="path20"
     inkscape:connector-curvature="0"
     style="fill:#225095" />
  <path
     d="m 26,16 -5,5 H 3.002 L 3,21.012 V 55 a 2.99,2.99 0 0 0 3,3 h 52 a 2.99,2.99 0 0 0 3,-3 V 16 Z m 1,2 H 46 V 45 H 19 V 23 h 3 z m 20,0 H 59 V 28 H 47 Z m -15,4 -2.625,7 H 23 v 1 L 27.906,33.373 26,41 h 1 L 32.807,36.742 39,41 h 1 L 37.195,33.523 42,30 V 29 H 35.625 L 33,22 Z M 5,23 h 13 v 9 H 5 Z M 32.5,23.334 34.625,29 h -4.25 z M 47,29 h 12 v 6 H 47 Z m -22.545,1 h 16.182 l -4.09,3 -0.43,0.314 -3.31,2.428 L 28.973,33.107 28.818,33 Z M 5,33 h 13 v 6 H 5 Z m 23.76,0.96 3.342,2.298 -4.795,3.517 1.453,-5.814 z m 7.652,0.138 2.082,5.554 -4.984,-3.425 2.902,-2.13 z M 47,36 h 12 v 9 H 47 Z M 5,40 h 5 V 56 H 6 A 0.996,0.996 0 0 1 5.293,55.707 0.996,0.996 0 0 1 5,55 Z m 6,0 h 7 v 7 h -7 z m 8,6 h 11 v 6 H 19 Z m 12,0 h 9 v 4 h -9 z m 10,0 h 18 v 4 H 41 Z m -30,3 h 7 v 3 h -7 z m 20,2 h 17 v 5 H 31 Z m 18,0 h 10 v 4 A 0.996,0.996 0 0 1 58.707,55.707 0.996,0.996 0 0 1 58,56 h -9 z m -38,2 h 19 v 3 H 11 Z"
     id="path22"
     inkscape:connector-curvature="0" />
</svg>
