<?xml version="1.0" encoding="UTF-8" standalone="no"?>
<svg
   xmlns:dc="http://purl.org/dc/elements/1.1/"
   xmlns:cc="http://creativecommons.org/ns#"
   xmlns:rdf="http://www.w3.org/1999/02/22-rdf-syntax-ns#"
   xmlns:svg="http://www.w3.org/2000/svg"
   xmlns="http://www.w3.org/2000/svg"
   xmlns:sodipodi="http://sodipodi.sourceforge.net/DTD/sodipodi-0.dtd"
   xmlns:inkscape="http://www.inkscape.org/namespaces/inkscape"
   width="64"
   height="64"
   version="1.1"
   id="svg24"
   sodipodi:docname="folder-root.svg"
   inkscape:version="0.92.4 (5da689c313, 2019-01-14)">
  <metadata
     id="metadata30">
    <rdf:RDF>
      <cc:Work
         rdf:about="">
        <dc:format>image/svg+xml</dc:format>
        <dc:type
           rdf:resource="http://purl.org/dc/dcmitype/StillImage" />
        <dc:title></dc:title>
      </cc:Work>
    </rdf:RDF>
  </metadata>
  <defs
     id="defs28" />
  <sodipodi:namedview
     pagecolor="#ffffff"
     bordercolor="#666666"
     borderopacity="1"
     objecttolerance="10"
     gridtolerance="10"
     guidetolerance="10"
     inkscape:pageopacity="0"
     inkscape:pageshadow="2"
     inkscape:window-width="799"
     inkscape:window-height="480"
     id="namedview26"
     showgrid="false"
     inkscape:zoom="3.6875"
     inkscape:cx="3.5254237"
     inkscape:cy="32"
     inkscape:window-x="0"
     inkscape:window-y="25"
     inkscape:window-maximized="0"
     inkscape:current-layer="svg24" />
  <path
     d="M 6,6 A 1.995,1.995 0 0 0 4,8 v 25 c 0,0.554 0.446,1 1,1 h 54 c 0.554,0 1,-0.446 1,-1 V 12.81 A 1.805,1.805 0 0 0 58.19,11 H 32 L 28,6 Z"
     id="path2"
     inkscape:connector-curvature="0" />
  <path
     d="m 26.123,16.43 -4.898,4.898 H 3.595 3.596 L 3.594,21.34 v 33.29 a 2.929,2.929 0 0 0 2.939,2.939 h 50.934 a 2.929,2.929 0 0 0 2.939,-2.939 v -38.2 z"
     id="path4"
     inkscape:connector-curvature="0"
     style="fill:#f9f9f9" />
  <path
     d="m 46.705,17.508 h 6.59 v 10.984 h -6.59 z"
     id="path6"
     inkscape:connector-curvature="0"
     style="fill:#fac901" />
  <path
     d="m 11.672,22.508 h 6.656 v 9.984 h -6.656 z"
     id="path8"
     inkscape:connector-curvature="0"
     style="fill:#dd0100" />
  <path
     d="m 29.111,30 h 2.223 l -4.277,7 h -2.223 z"
     id="path10"
     inkscape:connector-curvature="0"
     style="fill:#225095" />
  <path
     d="m 51.508,35.508 h 7.984 v 7.984 h -7.984 z"
     id="path12"
     inkscape:connector-curvature="0"
     style="fill:#dd0100" />
  <path
     d="m 4.789,41.508 h 6.422 V 56.492 H 5.859 a 1.066,1.066 0 0 1 -1.07,-1.07 z"
     id="path14"
     inkscape:connector-curvature="0"
     style="fill:#fac901" />
  <path
     d="m 51.687,44.508 h 7.626 v 10.895 c 0,0.302 -0.122,0.573 -0.319,0.77 -0.197,0.197 -0.468,0.32 -0.77,0.32 h -6.537 z"
     id="path16"
     inkscape:connector-curvature="0"
     style="fill:#225095" />
  <path
     d="m 18.508,47.642 h 11.984 v 8.716 H 18.508 Z"
     id="path18"
     inkscape:connector-curvature="0"
     style="fill:#dd0100" />
  <path
     d="m 30.508,47.896 h 19.984 v 4.208 H 30.508 Z"
     id="path20"
     inkscape:connector-curvature="0"
     style="fill:#225095" />
  <path
     d="m 26,16 -5,5 H 3.002 L 3,21.012 V 55 a 2.99,2.99 0 0 0 3,3 h 52 a 2.99,2.99 0 0 0 3,-3 V 16 Z m 1,2 H 46 V 47 H 19 V 23 h 3 z m 20,0 h 6 v 10 h -6 z m 7,0 h 5 V 28 H 54 Z M 33,22 22,40 h 1 l 1.223,-2 h 2.222 L 24,42 h 1 l 2.445,-4 H 39 V 37 H 28.055 L 36,24 h -1 l -3.055,5 H 29.723 L 34,22 Z M 5,23 h 6 v 9 H 5 Z m 7,0 h 6 v 9 h -6 z m 35,6 h 12 v 6 H 47 Z m -17.889,1 h 2.223 l -4.277,7 H 24.834 Z M 5,33 h 13 v 7 H 5 Z m 42,3 h 3 v 11 h -3 z m 5,0 h 7 v 7 h -7 z m -22,4 v 1 H 43 V 40 Z M 5,42 h 6 V 56 H 6 A 0.996,0.996 0 0 1 5.293,55.707 0.996,0.996 0 0 1 5,55 Z m 8,0 h 5 v 14 h -5 z m 39,3 h 7 V 55 A 0.996,0.996 0 0 1 58.707,55.707 0.996,0.996 0 0 1 58,56 h -6 z m -33,3 h 11 v 8 H 19 Z m 12,0 h 19 v 4 H 31 Z m 0,5 h 7 v 3 h -7 z m 8,0 h 11 v 3 H 39 Z"
     id="path22"
     inkscape:connector-curvature="0" />
</svg>
