<?xml version="1.0" encoding="UTF-8" standalone="no"?>
<svg
   xmlns:dc="http://purl.org/dc/elements/1.1/"
   xmlns:cc="http://creativecommons.org/ns#"
   xmlns:rdf="http://www.w3.org/1999/02/22-rdf-syntax-ns#"
   xmlns:svg="http://www.w3.org/2000/svg"
   xmlns="http://www.w3.org/2000/svg"
   xmlns:sodipodi="http://sodipodi.sourceforge.net/DTD/sodipodi-0.dtd"
   xmlns:inkscape="http://www.inkscape.org/namespaces/inkscape"
   width="64"
   height="64"
   version="1.1"
   id="svg16"
   sodipodi:docname="folder-saved-search.svg"
   inkscape:version="0.92.4 (5da689c313, 2019-01-14)">
  <metadata
     id="metadata22">
    <rdf:RDF>
      <cc:Work
         rdf:about="">
        <dc:format>image/svg+xml</dc:format>
        <dc:type
           rdf:resource="http://purl.org/dc/dcmitype/StillImage" />
        <dc:title></dc:title>
      </cc:Work>
    </rdf:RDF>
  </metadata>
  <defs
     id="defs20" />
  <sodipodi:namedview
     pagecolor="#ffffff"
     bordercolor="#666666"
     borderopacity="1"
     objecttolerance="10"
     gridtolerance="10"
     guidetolerance="10"
     inkscape:pageopacity="0"
     inkscape:pageshadow="2"
     inkscape:window-width="799"
     inkscape:window-height="480"
     id="namedview18"
     showgrid="false"
     inkscape:zoom="3.6875"
     inkscape:cx="3.5254237"
     inkscape:cy="32"
     inkscape:window-x="0"
     inkscape:window-y="25"
     inkscape:window-maximized="0"
     inkscape:current-layer="svg16" />
  <path
     d="M 6,6 A 1.995,1.995 0 0 0 4,8 v 25 c 0,0.554 0.446,1 1,1 h 54 c 0.554,0 1,-0.446 1,-1 V 12.81 A 1.805,1.805 0 0 0 58.19,11 H 32 L 28,6 Z"
     id="path2"
     inkscape:connector-curvature="0" />
  <path
     d="m 26.122,16.428 -4.898,4.898 H 3.591 3.593 l -0.002,0.012 v 33.295 a 2.93,2.93 0 0 0 2.94,2.939 H 57.47 a 2.93,2.93 0 0 0 2.939,-2.94 V 16.429 Z"
     id="path4"
     inkscape:connector-curvature="0"
     style="fill:#f9f9f9" />
  <path
     d="m 46.385,17.795 h 13.23 v 4.41 h -13.23 z"
     id="path6"
     inkscape:connector-curvature="0"
     style="fill:#fac901" />
  <path
     d="m 46.74,29.262 h 6.52 v 18.476 h -6.52 z"
     id="path8"
     inkscape:connector-curvature="0"
     style="fill:#dd0100" />
  <path
     d="m 4.719,31.008 h 6.562 V 42.492 H 4.72 V 31.555 Z m 7,0 h 6.562 V 42.492 H 11.72 Z m 18.262,3.777 a 9.248,9.248 0 0 0 1.236,1.23 l -3.976,3.977 -1.233,-1.233 z m 23.848,2.6 h 5.342 v 18.162 c 0,0.296 -0.12,0.562 -0.313,0.755 -0.193,0.193 -0.46,0.313 -0.755,0.313 h -4.274 z"
     id="path10"
     inkscape:connector-curvature="0"
     style="fill:#225095" />
  <path
     d="m 38.57,47.508 h 7.86 v 8.984 H 38.57 Z M 4.385,51.877 h 13.8 v 0.004 h 1.061 v -0.004 h 6.37 v 4.246 H 5.445 A 1.057,1.057 0 0 1 4.383,55.061 Z"
     id="path12"
     inkscape:connector-curvature="0"
     style="fill:#fac901" />
  <path
     d="m 26,16 -5,5 H 3.002 L 3,21.012 V 55 a 2.99,2.99 0 0 0 3,3 h 52 a 2.99,2.99 0 0 0 3,-3 V 16 Z m 1,2 H 46 V 47 H 19 V 23 h 3 z m 20,0 h 12 v 4 H 47 Z M 5,23 h 13 v 7.5 H 5 Z m 30.5,0 a 7.5,7.5 0 0 0 -7.5,7.5 7.5,7.5 0 0 0 0.914,3.586 L 22,41 l 1,1 2.5,-2.5 1,1 -2.5,2.5 1,1 6.918,-6.918 A 7.5,7.5 0 0 0 35.5,38 7.5,7.5 0 0 0 43,30.5 7.5,7.5 0 0 0 35.5,23 Z M 47,23 h 6 v 5 h -6 z m 7,0 h 5 V 37 H 54 Z M 35.246,24.008 A 7.5,7.5 0 0 0 31.48,30.5 7.5,7.5 0 0 0 35.249,36.986 6.5,6.5 0 0 1 29,30.5 6.5,6.5 0 0 1 35.246,24.008 Z m 1.992,0.236 A 6.5,6.5 0 0 1 42,30.5 6.5,6.5 0 0 1 37.252,36.76 6.5,6.5 0 0 1 32.479,30.5 6.5,6.5 0 0 1 37.239,24.244 Z M 47,30 h 6 V 47 H 47 Z M 5,31.5 h 6 V 42 H 5 Z m 7,0 h 6 V 42 h -6 z m 17.723,3.777 a 7.5,7.5 0 0 0 1.002,0.998 L 27.5,39.5 l -1,-1 z M 54,38 h 5 V 55 A 0.996,0.996 0 0 1 58.707,55.707 0.996,0.996 0 0 1 58,56 H 54 Z M 5,44 h 13 v 7 H 5 Z m 14,4 h 19 v 3 H 19 Z m 20,0 h 7 v 8 h -7 z m 8,0 h 6 v 8 H 47 Z M 5,52 h 13 v 0.004 h 1 V 52 h 6 v 4 H 6 A 0.996,0.996 0 0 1 5.293,55.707 0.996,0.996 0 0 1 5,55 Z m 21,0 h 12 v 4 H 26 Z"
     id="path14"
     inkscape:connector-curvature="0" />
</svg>
