<?xml version="1.0" encoding="UTF-8" standalone="no"?>
<svg
   xmlns:dc="http://purl.org/dc/elements/1.1/"
   xmlns:cc="http://creativecommons.org/ns#"
   xmlns:rdf="http://www.w3.org/1999/02/22-rdf-syntax-ns#"
   xmlns:svg="http://www.w3.org/2000/svg"
   xmlns="http://www.w3.org/2000/svg"
   xmlns:sodipodi="http://sodipodi.sourceforge.net/DTD/sodipodi-0.dtd"
   xmlns:inkscape="http://www.inkscape.org/namespaces/inkscape"
   width="64"
   height="64"
   version="1.1"
   id="svg18"
   sodipodi:docname="folder-visiting.svg"
   inkscape:version="0.92.4 (5da689c313, 2019-01-14)">
  <metadata
     id="metadata24">
    <rdf:RDF>
      <cc:Work
         rdf:about="">
        <dc:format>image/svg+xml</dc:format>
        <dc:type
           rdf:resource="http://purl.org/dc/dcmitype/StillImage" />
        <dc:title></dc:title>
      </cc:Work>
    </rdf:RDF>
  </metadata>
  <defs
     id="defs22" />
  <sodipodi:namedview
     pagecolor="#ffffff"
     bordercolor="#666666"
     borderopacity="1"
     objecttolerance="10"
     gridtolerance="10"
     guidetolerance="10"
     inkscape:pageopacity="0"
     inkscape:pageshadow="2"
     inkscape:window-width="799"
     inkscape:window-height="480"
     id="namedview20"
     showgrid="false"
     inkscape:zoom="3.6875"
     inkscape:cx="3.5254237"
     inkscape:cy="32"
     inkscape:window-x="0"
     inkscape:window-y="25"
     inkscape:window-maximized="0"
     inkscape:current-layer="svg18" />
  <g
     transform="translate(-384.571,-483.798)"
     id="g16">
    <path
       d="m 392.571,489.798 a 1.995,1.995 0 0 0 -2,2 v 25 c 0,0.554 0.446,1 1,1 h 38 v 21 h 17 v -42.19 a 1.805,1.805 0 0 0 -1.81,-1.81 h -26.189 l -4,-5 z"
       id="path2"
       inkscape:connector-curvature="0" />
    <rect
       width="50"
       height="34"
       x="393.57101"
       y="498.798"
       ry="2"
       id="rect4"
       style="fill:#f9f9f9" />
    <path
       d="m 408.213,503.181 -4.508,4.57 h -17.784 0.002 v 0.01 l 1.813,19.182 1.124,11.88 c 0.072,0.76 0.467,1.445 1.05,1.94 a 3.369,3.369 0 0 0 2.173,0.802 h 51.376 c 0.821,0 1.533,-0.306 2.022,-0.802 0.489,-0.495 0.755,-1.18 0.683,-1.94 l -1.124,-11.88 -1.814,-19.182 -10e-4,-0.01 -0.432,-4.57 z"
       id="path6"
       inkscape:connector-curvature="0"
       style="fill:#f9f9f9" />
    <path
       d="m 386.91,508.7 h 8.507 l 0.662,6.995 h -8.508 z m 39.175,23.774 0.047,0.49 h -0.468 l 0.793,8.382 h 17.19 c 0.682,0 1.273,-0.253 1.679,-0.665 0.406,-0.412 0.627,-0.98 0.567,-1.612 l -0.325,-3.43 -0.215,-2.278 -0.038,-0.396 -0.047,-0.49 z"
       id="path8"
       inkscape:connector-curvature="0"
       style="fill:#fac901" />
    <path
       d="m 386.519,517.748 h 18.92 l 1.694,17.903 h -18.92 z"
       id="path10"
       inkscape:connector-curvature="0"
       style="fill:#225095" />
    <path
       d="m 422.514,503.873 h 10.305 l 1.966,20.793 H 424.48 Z m -14.647,32.033 h 4.738 l 0.415,4.384 h -4.738 z"
       id="path12"
       inkscape:connector-curvature="0"
       style="fill:#dd0100" />
    <path
       d="m 408.118,502.948 -4.562,4.625 h -17.998 v 0.01 l 0.699,7.391 0.145,1.523 0.117,1.25 0.875,9.25 0.787,8.327 0.088,0.923 0.261,2.776 c 0.073,0.769 0.473,1.463 1.063,1.965 0.59,0.501 1.37,0.81 2.201,0.81 h 52 c 0.831,0 1.55,-0.309 2.045,-0.81 a 2.434,2.434 0 0 0 0.691,-1.965 l -0.525,-5.549 -0.174,-1.852 -0.437,-4.625 -1.836,-19.414 -0.002,-0.01 -0.438,-4.625 h -21 z m 1.176,1.85 h 6 l 0.963,10.176 h -20 l -0.525,-5.551 h 9 z m 8,0 h 5 l 0.963,10.176 h -5 z m 6,0 h 9 l 1.838,19.426 h -9 l -0.613,-6.477 -0.262,-2.773 z m 10.492,0 h 7.508 l 0.438,4.625 0.261,2.775 h -7.508 z m -46.054,4.625 h 7 l 0.525,5.55 h -7 z m 46.841,3.7 h 7.508 l 0.088,0.925 0.088,0.926 0.262,2.773 1.312,13.875 h -7.508 z m -46.054,4.624 h 16 l 1.662,17.576 h -16 z m 18,0 h 4 l 1.662,17.576 h -4 z m 5,0 h 12 l 0.613,6.477 h -12 z m 0.699,7.4 h 12 l 0.613,6.475 0.787,8.326 h -12 l -0.35,-3.7 -0.087,-0.925 z m 13,0 h 9 l 0.613,6.475 h -9 z m 0.787,8.327 h 18 l 0.525,5.549 a 0.81,0.81 0 0 1 -0.23,0.654 0.947,0.947 0 0 1 -0.682,0.271 h -17 z m -35.736,2.773 h 16 l 0.35,3.701 h -15 c -0.278,0 -0.537,-0.104 -0.733,-0.271 a 0.99,0.99 0 0 1 -0.356,-0.654 z m 18,0 h 4 l 0.35,3.701 h -4 z"
       id="path14"
       inkscape:connector-curvature="0" />
  </g>
</svg>
