<?xml version="1.0" encoding="UTF-8" standalone="no"?>
<svg
   xmlns:dc="http://purl.org/dc/elements/1.1/"
   xmlns:cc="http://creativecommons.org/ns#"
   xmlns:rdf="http://www.w3.org/1999/02/22-rdf-syntax-ns#"
   xmlns:svg="http://www.w3.org/2000/svg"
   xmlns="http://www.w3.org/2000/svg"
   xmlns:sodipodi="http://sodipodi.sourceforge.net/DTD/sodipodi-0.dtd"
   xmlns:inkscape="http://www.inkscape.org/namespaces/inkscape"
   width="64"
   height="64"
   version="1.1"
   id="svg20"
   sodipodi:docname="folder-video.svg"
   inkscape:version="0.92.4 (5da689c313, 2019-01-14)">
  <metadata
     id="metadata26">
    <rdf:RDF>
      <cc:Work
         rdf:about="">
        <dc:format>image/svg+xml</dc:format>
        <dc:type
           rdf:resource="http://purl.org/dc/dcmitype/StillImage" />
        <dc:title></dc:title>
      </cc:Work>
    </rdf:RDF>
  </metadata>
  <defs
     id="defs24" />
  <sodipodi:namedview
     pagecolor="#ffffff"
     bordercolor="#666666"
     borderopacity="1"
     objecttolerance="10"
     gridtolerance="10"
     guidetolerance="10"
     inkscape:pageopacity="0"
     inkscape:pageshadow="2"
     inkscape:window-width="799"
     inkscape:window-height="480"
     id="namedview22"
     showgrid="false"
     inkscape:zoom="3.6875"
     inkscape:cx="3.5254237"
     inkscape:cy="32"
     inkscape:window-x="0"
     inkscape:window-y="25"
     inkscape:window-maximized="0"
     inkscape:current-layer="svg20" />
  <path
     d="M 6,6 A 1.995,1.995 0 0 0 4,8 v 25 c 0,0.554 0.446,1 1,1 h 54 c 0.554,0 1,-0.446 1,-1 V 12.81 A 1.805,1.805 0 0 0 58.19,11 H 32 L 28,6 Z"
     id="path2"
     inkscape:connector-curvature="0" />
  <path
     d="m 26.072,16.252 -4.94,4.94 H 3.348 3.35 l -0.002,0.012 v 33.58 a 2.954,2.954 0 0 0 2.964,2.964 h 51.376 a 2.954,2.954 0 0 0 2.964,-2.964 V 16.252 Z"
     id="path4"
     inkscape:connector-curvature="0"
     style="fill:#f9f9f9" />
  <path
     d="m 30.565,35.739 h 10.87 v 6.522 h -10.87 z"
     id="path6"
     inkscape:connector-curvature="0"
     style="fill:#dd0100" />
  <path
     d="m 4.783,22.565 h 5.435 v 10.87 H 4.783 Z m 6.782,26.35 h 36.87 v 7.169 h -36.87 z"
     id="path8"
     inkscape:connector-curvature="0"
     style="fill:#225095" />
  <path
     d="m 11.844,22.565 h 4.139 v 25.87 h -4.14 z"
     id="path10"
     inkscape:connector-curvature="0"
     style="fill:#dd0100" />
  <path
     d="m 48.565,17.695 h 10.87 v 7.609 h -10.87 z"
     id="path12"
     inkscape:connector-curvature="0"
     style="fill:#225095" />
  <path
     d="m 48.605,36.565 h 10.79 v 11.87 h -10.79 z"
     id="path14"
     inkscape:connector-curvature="0"
     style="fill:#dd0100" />
  <path
     d="m 4.819,43.565 h 5.363 v 12.87 H 4.819 Z m 37.094,-19 h 2.174 v 10.87 h -2.174 z"
     id="path16"
     inkscape:connector-curvature="0"
     style="fill:#fac901" />
  <path
     d="m 26,16 -5,5 H 3.002 L 3,21.012 V 55 a 2.99,2.99 0 0 0 3,3 h 52 a 2.99,2.99 0 0 0 3,-3 V 16 Z m 1,2 H 48 V 48 H 17 V 23 h 5 z m 22,0 h 10 v 7 H 49 Z M 5,23 h 5 V 33 H 5 v -4 z m 7,0 h 4 v 25 h -4 z m 18,1 v 3 h -3 v 16 h 15 v -7 h 3 V 24 Z m 12,1 h 2 v 10 h -2 z m 7,1 H 59 V 36 H 49 Z m -28,2 v 13 l 5,-4 v -5 z m 7,0 h 2 v 14 h -2 z m 3,0 h 10 v 7 H 31 Z m -9,1.8 3,2.4 v 4.6 l -3,2.4 z M 5,34 h 5 v 9 H 5 Z m 26,2 h 10 v 6 H 31 Z m 18,1 H 59 V 48 H 49 Z M 5,44 h 5 V 56 H 6 A 0.996,0.996 0 0 1 5.293,55.707 0.996,0.996 0 0 1 5,55 Z m 7,5 h 24 v 7 H 12 Z m 27,0 h 9 v 7 h -9 z m 10,0 h 10 v 6 A 0.996,0.996 0 0 1 58.707,55.707 0.996,0.996 0 0 1 58,56 h -9 z"
     id="path18"
     inkscape:connector-curvature="0" />
</svg>
