<?xml version="1.0" encoding="UTF-8" standalone="no"?>
<svg
   xmlns:dc="http://purl.org/dc/elements/1.1/"
   xmlns:cc="http://creativecommons.org/ns#"
   xmlns:rdf="http://www.w3.org/1999/02/22-rdf-syntax-ns#"
   xmlns:svg="http://www.w3.org/2000/svg"
   xmlns="http://www.w3.org/2000/svg"
   xmlns:sodipodi="http://sodipodi.sourceforge.net/DTD/sodipodi-0.dtd"
   xmlns:inkscape="http://www.inkscape.org/namespaces/inkscape"
   width="64"
   height="64"
   version="1.1"
   id="svg24"
   sodipodi:docname="folder-download.svg"
   inkscape:version="0.92.4 (5da689c313, 2019-01-14)">
  <metadata
     id="metadata30">
    <rdf:RDF>
      <cc:Work
         rdf:about="">
        <dc:format>image/svg+xml</dc:format>
        <dc:type
           rdf:resource="http://purl.org/dc/dcmitype/StillImage" />
        <dc:title></dc:title>
      </cc:Work>
    </rdf:RDF>
  </metadata>
  <defs
     id="defs28" />
  <sodipodi:namedview
     pagecolor="#ffffff"
     bordercolor="#666666"
     borderopacity="1"
     objecttolerance="10"
     gridtolerance="10"
     guidetolerance="10"
     inkscape:pageopacity="0"
     inkscape:pageshadow="2"
     inkscape:window-width="799"
     inkscape:window-height="480"
     id="namedview26"
     showgrid="false"
     inkscape:zoom="3.6875"
     inkscape:cx="3.5254237"
     inkscape:cy="32"
     inkscape:window-x="0"
     inkscape:window-y="25"
     inkscape:window-maximized="0"
     inkscape:current-layer="svg24" />
  <path
     d="M 6,6 A 1.995,1.995 0 0 0 4,8 v 25 c 0,0.554 0.446,1 1,1 h 54 c 0.554,0 1,-0.446 1,-1 V 12.81 A 1.805,1.805 0 0 0 58.19,11 H 32 L 28,6 Z"
     id="path2"
     inkscape:connector-curvature="0" />
  <path
     d="m 26.072,16.252 -4.94,4.94 H 3.348 3.35 l -0.002,0.012 v 33.58 a 2.954,2.954 0 0 0 2.964,2.964 h 51.376 a 2.954,2.954 0 0 0 2.964,-2.964 V 16.252 Z"
     id="path4"
     inkscape:connector-curvature="0"
     style="fill:#f9f9f9" />
  <path
     d="m 50,23.431 h 10.185 v 8 H 50 Z"
     id="path6"
     inkscape:connector-curvature="0"
     style="fill:#225095" />
  <path
     d="m 46.447,17.431 h 3 v 14 h -3 z"
     id="path8"
     inkscape:connector-curvature="0"
     style="fill:#fac901" />
  <path
     d="m 49.693,44.431 h 7 v 7 h -7 z"
     id="path10"
     inkscape:connector-curvature="0"
     style="fill:#dd0100" />
  <path
     d="m 41.37,51.508 h 15 v 5 h -15 z"
     id="path12"
     inkscape:connector-curvature="0"
     style="fill:#fac901" />
  <path
     d="m 4,30.631 h 6 v 26 H 4 Z m 30.261,12.239 3.69,-3.691 h 4.614 l -7.381,7.381 h -0.923 z"
     id="path14"
     inkscape:connector-curvature="0"
     style="fill:#225095" />
  <path
     d="m 3.616,21.692 h 12 v 9 h -12 z"
     id="path16"
     inkscape:connector-curvature="0"
     style="fill:#dd0100" />
  <path
     d="m 30.214,22.428 h 4.572 v 9.145 h -4.572 z"
     id="path18"
     inkscape:connector-curvature="0"
     style="fill:#fac901" />
  <path
     d="m 24.508,51.869 h 15.985 v 4.263 H 24.508 Z"
     id="path20"
     inkscape:connector-curvature="0"
     style="fill:#dd0100" />
  <path
     d="m 26,16 -5,5 H 3.002 L 3,21.012 V 55 a 2.99,2.99 0 0 0 3,3 h 52 a 2.99,2.99 0 0 0 3,-3 V 16 Z m 1,2 H 46 V 51 H 19 V 23 h 3 z m 20,0 h 2 v 13 h -2 z m 4,0 h 8 v 5 h -8 z m -21,4 v 20 l -5,-5 h -1 l 6,6 v 3 l -9,-9 h -1 l 10,10 h 1 L 32.5,45.5 34,47 h 1 L 45,37 h -1 l -2,2 h -3 l 2,-2 h -1 l -5,5 V 22 H 31 Z M 5,23 h 10 v 7 H 5 v -1 z m 11,0 h 2 v 16 h -2 z m 15,0 h 3 v 8 h -3 z m 20,1 h 8 v 7 H 51 Z M 5,31 H 9 V 56 H 6 A 0.996,0.996 0 0 1 5.293,55.707 0.996,0.996 0 0 1 5,55 V 32 Z m 7,0 h 3 v 8 h -3 z m 19,1 h 3 V 43 L 32.5,44.5 31,43 Z m 16,1 h 2 v 18 h -2 z m 4,0 h 5 v 11 h -5 z m 6,0 h 2 V 55 A 0.996,0.996 0 0 1 58.707,55.707 0.996,0.996 0 0 1 58,56 h -1 z m -45,7 h 6 v 11 h -6 z m 26,0 h 3 l -6,6 v -3 z m -4,4 v 2 l -1,-1 z m 17,1 h 5 v 6 h -5 z m -39,7 h 12 v 4 H 12 Z m 13,0 h 15 v 4 H 25 Z m 17,0 h 14 v 4 H 42 Z"
     id="path22"
     inkscape:connector-curvature="0" />
</svg>
