<?xml version="1.0" encoding="UTF-8" standalone="no"?>
<svg
   xmlns:dc="http://purl.org/dc/elements/1.1/"
   xmlns:cc="http://creativecommons.org/ns#"
   xmlns:rdf="http://www.w3.org/1999/02/22-rdf-syntax-ns#"
   xmlns:svg="http://www.w3.org/2000/svg"
   xmlns="http://www.w3.org/2000/svg"
   xmlns:sodipodi="http://sodipodi.sourceforge.net/DTD/sodipodi-0.dtd"
   xmlns:inkscape="http://www.inkscape.org/namespaces/inkscape"
   width="64"
   height="64"
   version="1.1"
   id="svg24"
   sodipodi:docname="folder-locked.svg"
   inkscape:version="0.92.4 (5da689c313, 2019-01-14)">
  <metadata
     id="metadata30">
    <rdf:RDF>
      <cc:Work
         rdf:about="">
        <dc:format>image/svg+xml</dc:format>
        <dc:type
           rdf:resource="http://purl.org/dc/dcmitype/StillImage" />
        <dc:title></dc:title>
      </cc:Work>
    </rdf:RDF>
  </metadata>
  <defs
     id="defs28" />
  <sodipodi:namedview
     pagecolor="#ffffff"
     bordercolor="#666666"
     borderopacity="1"
     objecttolerance="10"
     gridtolerance="10"
     guidetolerance="10"
     inkscape:pageopacity="0"
     inkscape:pageshadow="2"
     inkscape:window-width="799"
     inkscape:window-height="480"
     id="namedview26"
     showgrid="false"
     inkscape:zoom="3.6875"
     inkscape:cx="3.5254237"
     inkscape:cy="32"
     inkscape:window-x="0"
     inkscape:window-y="25"
     inkscape:window-maximized="0"
     inkscape:current-layer="svg24" />
  <path
     d="M 6,6 A 1.995,1.995 0 0 0 4,8 v 25 c 0,0.554 0.446,1 1,1 h 54 c 0.554,0 1,-0.446 1,-1 V 12.81 A 1.805,1.805 0 0 0 58.19,11 H 32 L 28,6 Z"
     id="path2"
     inkscape:connector-curvature="0" />
  <path
     d="m 26.207,16.724 -4.768,4.768 H 4.276 4.278 l -0.002,0.011 v 32.408 a 2.851,2.851 0 0 0 2.86,2.86 H 56.72 a 2.851,2.851 0 0 0 2.86,-2.86 V 16.724 Z"
     id="path4"
     inkscape:connector-curvature="0"
     style="fill:#f9f9f9" />
  <path
     d="m 11.385,48.641 h 13.23 v 7.718 h -13.23 z"
     id="path6"
     inkscape:connector-curvature="0"
     style="fill:#dd0100" />
  <path
     d="m 35.63,33.385 h 3.739 v 6.231 H 35.63 Z"
     id="path8"
     inkscape:connector-curvature="0"
     style="fill:#fac901" />
  <path
     d="m 53.83,37.385 h 5.342 V 56.616 H 53.83 Z m -28.445,2.41 h 10.23 v 3.41 h -10.23 z"
     id="path10"
     inkscape:connector-curvature="0"
     style="fill:#dd0100" />
  <path
     d="m 46.854,26.385 h 5.293 v 22.231 h -5.293 z"
     id="path12"
     inkscape:connector-curvature="0"
     style="fill:#225095" />
  <path
     d="m 4.827,26.508 h 6.348 V 44.493 H 4.827 Z"
     id="path14"
     inkscape:connector-curvature="0"
     style="fill:#fac901" />
  <path
     d="m 4.508,21.849 h 13.985 v 4.303 H 4.508 Z"
     id="path16"
     inkscape:connector-curvature="0"
     style="fill:#225095" />
  <path
     d="m 4.665,44.385 h 6.67 v 12.231 h -6.67 z"
     id="path18"
     inkscape:connector-curvature="0"
     style="fill:#fac901" />
  <path
     d="m 24.385,48.932 h 28.23 v 3.137 h -28.23 z"
     id="path20"
     inkscape:connector-curvature="0"
     style="fill:#225095" />
  <path
     d="m 26,16 -5,5 H 3.002 L 3,21.012 V 55 a 2.99,2.99 0 0 0 3,3 h 52 a 2.99,2.99 0 0 0 3,-3 V 16 Z m 1,2 H 46 V 48 H 19 V 23 h 3 z m 20,0 h 12 v 8 H 47 Z m -15,3 a 6,6 0 0 0 -6,6 v 6 h -1 v 11 h 11 v -4 h 4 V 29 h -2 v -2 a 6,6 0 0 0 -6,-6 z m 0,1 a 5,5 0 0 1 5,5 v 2 h -8 v 4 h -2 v -6 a 5,5 0 0 1 5,-5 z M 5,23 h 13 v 3 H 5 Z m 0,4 h 6 V 44 H 5 Z m 7,0 h 6 v 5 h -6 z m 35,0 h 5 v 21 h -5 z m 7,0 h 5 v 10 h -5 z m -42,7 h 6 v 14 h -6 z m 14,0 h 3 v 5 h -3 z m 4,0 h 5 v 5 h -5 z m 6,0 h 3 v 5 h -3 z m 18,4 h 5 V 55 A 0.996,0.996 0 0 1 58.707,55.707 0.996,0.996 0 0 1 58,56 h -4 z m -28,2 h 9 v 3 H 26 Z M 5,45 h 6 V 56 H 6 A 0.996,0.996 0 0 1 5.293,55.707 0.996,0.996 0 0 1 5,55 Z m 7,4 h 12 v 7 H 12 Z m 13,0 h 27 v 3 H 25 Z m 0,4 h 27 v 3 H 25 Z"
     id="path22"
     inkscape:connector-curvature="0" />
</svg>
