<?xml version="1.0" encoding="UTF-8" standalone="no"?>
<svg
   xmlns:dc="http://purl.org/dc/elements/1.1/"
   xmlns:cc="http://creativecommons.org/ns#"
   xmlns:rdf="http://www.w3.org/1999/02/22-rdf-syntax-ns#"
   xmlns:svg="http://www.w3.org/2000/svg"
   xmlns="http://www.w3.org/2000/svg"
   xmlns:sodipodi="http://sodipodi.sourceforge.net/DTD/sodipodi-0.dtd"
   xmlns:inkscape="http://www.inkscape.org/namespaces/inkscape"
   width="64"
   height="64"
   version="1.1"
   id="svg16"
   sodipodi:docname="folder-recent.svg"
   inkscape:version="0.92.4 (5da689c313, 2019-01-14)">
  <metadata
     id="metadata22">
    <rdf:RDF>
      <cc:Work
         rdf:about="">
        <dc:format>image/svg+xml</dc:format>
        <dc:type
           rdf:resource="http://purl.org/dc/dcmitype/StillImage" />
        <dc:title></dc:title>
      </cc:Work>
    </rdf:RDF>
  </metadata>
  <defs
     id="defs20" />
  <sodipodi:namedview
     pagecolor="#ffffff"
     bordercolor="#666666"
     borderopacity="1"
     objecttolerance="10"
     gridtolerance="10"
     guidetolerance="10"
     inkscape:pageopacity="0"
     inkscape:pageshadow="2"
     inkscape:window-width="799"
     inkscape:window-height="480"
     id="namedview18"
     showgrid="false"
     inkscape:zoom="3.6875"
     inkscape:cx="3.5254237"
     inkscape:cy="32"
     inkscape:window-x="0"
     inkscape:window-y="25"
     inkscape:window-maximized="0"
     inkscape:current-layer="svg16" />
  <path
     d="M 6,6 A 1.995,1.995 0 0 0 4,8 v 25 c 0,0.554 0.446,1 1,1 h 54 c 0.554,0 1,-0.446 1,-1 V 12.81 A 1.805,1.805 0 0 0 58.19,11 H 32 L 28,6 Z"
     id="path2"
     inkscape:connector-curvature="0" />
  <path
     d="m 26.225,16.787 -4.813,4.812 H 4.087 4.089 l -0.002,0.012 v 32.715 a 2.878,2.878 0 0 0 2.887,2.887 h 50.052 a 2.878,2.878 0 0 0 2.887,-2.887 V 16.787 Z"
     id="path4"
     inkscape:connector-curvature="0"
     style="fill:#f9f9f9" />
  <path
     d="m 46.63,17.785 h 12.74 v 7.43 H 46.63 Z"
     id="path6"
     inkscape:connector-curvature="0"
     style="fill:#225095" />
  <path
     d="m 9.754,32.63 h 8.492 V 45.37 H 9.754 Z"
     id="path8"
     inkscape:connector-curvature="0"
     style="fill:#fac901" />
  <path
     d="m 52.842,35.63 h 6.316 v 14.74 h -6.316 z m -48.212,11 h 9.74 v 9.74 H 5.712 c -0.3,0 -0.57,-0.122 -0.765,-0.318 A 1.077,1.077 0 0 1 4.63,55.287 Z m 20.151,0.124 h 8.438 v 9.492 H 24.78 Z"
     id="path10"
     inkscape:connector-curvature="0"
     style="fill:#dd0100" />
  <path
     d="m 33.508,46.63 h 12.984 v 9.739 H 33.508 Z"
     id="path12"
     inkscape:connector-curvature="0"
     style="fill:#225095" />
  <path
     d="m 26,16 -5,5 H 3.002 L 3,21.012 V 55 a 2.99,2.99 0 0 0 3,3 h 52 a 2.99,2.99 0 0 0 3,-3 V 16 Z m 1,2 H 46 V 45 H 19 V 23 h 3 z m 20,0 h 12 v 7 H 47 Z M 5,23 H 9 V 45 H 5 Z m 5,0 h 8 v 9 h -8 z m 22.5,0 A 8.5,8.5 0 0 0 24,31.5 8.5,8.5 0 0 0 32.5,40 8.5,8.5 0 0 0 41,31.5 8.5,8.5 0 0 0 32.5,23 Z m 0,1 A 7.5,7.5 0 0 1 40,31.5 7.5,7.5 0 0 1 32.5,39 7.5,7.5 0 0 1 25,31.5 7.5,7.5 0 0 1 32.5,24 Z M 32,25 v 8 h 5 v -2 h -4 v -6 z m 15,2 h 5 v 11 h -5 z m 6,0 h 6 v 8 h -6 z m -43,6 h 8 v 12 h -8 z m 43,3 h 6 v 14 h -6 z m -6,3 h 5 V 50 H 47 Z M 5,47 h 9 v 9 H 6 A 0.996,0.996 0 0 1 5.293,55.707 0.996,0.996 0 0 1 5,55 Z m 10,0 h 9 v 9 h -9 z m 10,0 h 8 v 9 h -8 z m 9,0 h 12 v 9 H 34 Z"
     id="path14"
     inkscape:connector-curvature="0" />
</svg>
