<?xml version="1.0" encoding="UTF-8" standalone="no"?>
<svg
   xmlns:dc="http://purl.org/dc/elements/1.1/"
   xmlns:cc="http://creativecommons.org/ns#"
   xmlns:rdf="http://www.w3.org/1999/02/22-rdf-syntax-ns#"
   xmlns:svg="http://www.w3.org/2000/svg"
   xmlns="http://www.w3.org/2000/svg"
   xmlns:sodipodi="http://sodipodi.sourceforge.net/DTD/sodipodi-0.dtd"
   xmlns:inkscape="http://www.inkscape.org/namespaces/inkscape"
   width="64"
   height="64"
   version="1.1"
   id="svg14"
   sodipodi:docname="folder.svg"
   inkscape:version="0.92.4 (5da689c313, 2019-01-14)">
  <metadata
     id="metadata20">
    <rdf:RDF>
      <cc:Work
         rdf:about="">
        <dc:format>image/svg+xml</dc:format>
        <dc:type
           rdf:resource="http://purl.org/dc/dcmitype/StillImage" />
        <dc:title></dc:title>
      </cc:Work>
    </rdf:RDF>
  </metadata>
  <defs
     id="defs18" />
  <sodipodi:namedview
     pagecolor="#ffffff"
     bordercolor="#666666"
     borderopacity="1"
     objecttolerance="10"
     gridtolerance="10"
     guidetolerance="10"
     inkscape:pageopacity="0"
     inkscape:pageshadow="2"
     inkscape:window-width="799"
     inkscape:window-height="480"
     id="namedview16"
     showgrid="false"
     inkscape:zoom="3.6875"
     inkscape:cx="3.5254237"
     inkscape:cy="32"
     inkscape:window-x="0"
     inkscape:window-y="25"
     inkscape:window-maximized="0"
     inkscape:current-layer="svg14" />
  <path
     d="M 6,6 A 1.995,1.995 0 0 0 4,8 v 25 c 0,0.554 0.446,1 1,1 h 54 c 0.554,0 1,-0.446 1,-1 V 12.81 A 1.805,1.805 0 0 0 58.19,11 H 32 L 28,6 Z"
     id="path2"
     inkscape:connector-curvature="0" />
  <path
     d="m 26.072,16.252 -4.94,4.94 H 3.348 3.35 l -0.002,0.012 v 33.58 a 2.954,2.954 0 0 0 2.964,2.964 h 51.376 a 2.954,2.954 0 0 0 2.964,-2.964 V 16.252 Z"
     id="path4"
     inkscape:connector-curvature="0"
     style="fill:#f9f9f9" />
  <path
     d="m 4.247,22.219 h 8.508 v 7.562 H 4.247 Z M 40.892,47.69 v 0.53 h -0.467 v 9.045 h 17.16 a 2.449,2.449 0 0 0 2.458,-2.457 V 47.69 Z"
     id="path6"
     inkscape:connector-curvature="0"
     style="fill:#fac901" />
  <path
     d="M 3,32 H 21.92 V 51.355 H 3 Z"
     id="path8"
     inkscape:connector-curvature="0"
     style="fill:#225095" />
  <path
     d="M 40.308,17 H 50.613 V 39.479 H 40.308 Z M 22.63,51.631 h 4.739 v 4.738 H 22.63 Z"
     id="path10"
     inkscape:connector-curvature="0"
     style="fill:#dd0100" />
  <path
     d="m 26,16 -5,5 H 3.002 L 3,21.012 V 55 a 2.99,2.99 0 0 0 3,3 h 52 a 2.99,2.99 0 0 0 3,-3 V 16 H 40 Z m 1,2 h 6 V 29 H 13 v -6 h 9 z m 8,0 h 5 v 11 h -5 z m 6,0 h 9 V 39 H 41 V 29 Z m 10.492,0 H 59 v 8 H 51.492 Z M 5,23 h 7 v 6 H 5 Z m 46.492,4 H 59 V 47 H 51.492 Z M 5,32 H 21 V 51 H 5 Z m 18,0 h 4 v 19 h -4 z m 5,0 h 12 v 7 H 28 Z m 0,8 H 40 V 56 H 28 v -5 z m 13,0 h 9 v 7 h -9 z m 0,9 h 18 v 6 A 0.996,0.996 0 0 1 58.707,55.707 0.996,0.996 0 0 1 58,56 H 41 Z M 5,52 h 16 v 4 H 6 A 0.996,0.996 0 0 1 5.293,55.707 0.996,0.996 0 0 1 5,55 Z m 18,0 h 4 v 4 h -4 z"
     id="path12"
     inkscape:connector-curvature="0" />
</svg>
