<?xml version="1.0" encoding="UTF-8" standalone="no"?>
<svg
   xmlns:dc="http://purl.org/dc/elements/1.1/"
   xmlns:cc="http://creativecommons.org/ns#"
   xmlns:rdf="http://www.w3.org/1999/02/22-rdf-syntax-ns#"
   xmlns:svg="http://www.w3.org/2000/svg"
   xmlns="http://www.w3.org/2000/svg"
   xmlns:sodipodi="http://sodipodi.sourceforge.net/DTD/sodipodi-0.dtd"
   xmlns:inkscape="http://www.inkscape.org/namespaces/inkscape"
   width="64"
   height="64"
   version="1.1"
   id="svg22"
   sodipodi:docname="folder-templates.svg"
   inkscape:version="0.92.4 (5da689c313, 2019-01-14)">
  <metadata
     id="metadata28">
    <rdf:RDF>
      <cc:Work
         rdf:about="">
        <dc:format>image/svg+xml</dc:format>
        <dc:type
           rdf:resource="http://purl.org/dc/dcmitype/StillImage" />
        <dc:title></dc:title>
      </cc:Work>
    </rdf:RDF>
  </metadata>
  <defs
     id="defs26" />
  <sodipodi:namedview
     pagecolor="#ffffff"
     bordercolor="#666666"
     borderopacity="1"
     objecttolerance="10"
     gridtolerance="10"
     guidetolerance="10"
     inkscape:pageopacity="0"
     inkscape:pageshadow="2"
     inkscape:window-width="799"
     inkscape:window-height="480"
     id="namedview24"
     showgrid="false"
     inkscape:zoom="3.6875"
     inkscape:cx="3.5254237"
     inkscape:cy="32"
     inkscape:window-x="0"
     inkscape:window-y="25"
     inkscape:window-maximized="0"
     inkscape:current-layer="svg22" />
  <path
     d="M 6,6 A 1.995,1.995 0 0 0 4,8 v 25 c 0,0.554 0.446,1 1,1 h 54 c 0.554,0 1,-0.446 1,-1 V 12.81 A 1.805,1.805 0 0 0 58.19,11 H 32 L 28,6 Z"
     id="path2"
     inkscape:connector-curvature="0" />
  <path
     d="m 26.132104,16.364375 -4.848243,4.848243 h -17.4536747 0.00198 l -0.00198,0.01091 V 54.179694 A 2.8990413,2.8990413 0 0 0 6.739132,57.08864 h 50.420736 a 2.9000317,2.9000317 0 0 0 2.908946,-2.908946 V 16.364375 Z"
     id="path4"
     inkscape:connector-curvature="0"
     style="fill:#f9f9f9;stroke-width:0.990448" />
  <path
     d="m 37.485,41.08 -3.883,-4.16 h -8.848 v 4.16 z"
     id="path6"
     inkscape:connector-curvature="0"
     style="fill:#dd0100" />
  <path
     d="M 28.771,32.07 V 22.754 L 42.23,36.21 33.437,37.245 Z"
     id="path8"
     inkscape:connector-curvature="0"
     style="fill:#fac901" />
  <path
     d="m 46.754,17.877 h 12.492 v 6.246 H 46.754 Z"
     id="path10"
     inkscape:connector-curvature="0"
     style="fill:#dd0100" />
  <path
     d="m 31.754,51.963 h 27.492 v 4.073 H 31.754 Z"
     id="path12"
     inkscape:connector-curvature="0"
     style="fill:#fac901" />
  <path
     d="m 4.868,29.754 h 7.265 V 43.246 H 4.868 Z m 41.886,3.082 h 12.492 v 8.328 H 46.754 Z"
     id="path14"
     inkscape:connector-curvature="0"
     style="fill:#dd0100" />
  <path
     d="m 46.754,41.815 h 12.492 v 9.369 H 46.754 Z m -28,4.984 h 11.492 v 9.403 H 18.754 Z M 9.82,44.754 h 8.359 V 56.246 H 9.82 Z"
     id="path16"
     inkscape:connector-curvature="0"
     style="fill:#225095" />
  <path
     d="m 12.913,22.754 h 5.176 v 14.492 h -5.176 z"
     id="path18"
     inkscape:connector-curvature="0"
     style="fill:#fac901" />
  <path
     d="m 26,16 -5,5 H 3.002 L 3,21.012 V 55 a 2.99,2.99 0 0 0 3,3 h 52 a 2.99,2.99 0 0 0 3,-3 V 16 Z m 1,2 H 46 V 46 H 19 V 23 h 3 z m 20,0 h 12 v 6 H 47 Z m -19,3 v 9.268 L 25,27.066 V 27 H 24.937 L 24,26 V 42 H 39 L 34.312,37 H 43 L 29,22.066 V 22 H 28.937 Z M 5,23 h 7 v 6 H 5 Z m 8,0 h 5 V 37 H 13 Z M 29,23.072 41.066,36 H 33.375 L 29,31.334 Z M 47,25 h 12 v 7 H 47 Z m -22,3.07 3,3.215 V 36 H 25 Z M 5,30 h 7 V 43 H 5 V 32 Z M 29,32.357 32.4,36 H 29 Z M 47,33 h 12 v 8 H 47 Z m -22,4 h 8.334 l 3.732,4 H 25 Z m -12,1 h 5 v 5 h -5 z m 34,4 h 12 v 9 H 47 Z M 5,45 H 9 V 56 H 6 A 0.996,0.996 0 0 1 5.293,55.707 0.996,0.996 0 0 1 5,55 Z m 5,0 h 8 v 11 h -8 z m 9,2 h 11 v 9 H 19 Z m 13,0 h 14 v 4 H 32 Z m 0,5 h 27 v 3 A 0.996,0.996 0 0 1 58.707,55.707 0.996,0.996 0 0 1 58,56 H 32 Z"
     id="path20"
     inkscape:connector-curvature="0" />
</svg>
