<?xml version="1.0" encoding="UTF-8" standalone="no"?>
<svg
   xmlns:dc="http://purl.org/dc/elements/1.1/"
   xmlns:cc="http://creativecommons.org/ns#"
   xmlns:rdf="http://www.w3.org/1999/02/22-rdf-syntax-ns#"
   xmlns:svg="http://www.w3.org/2000/svg"
   xmlns="http://www.w3.org/2000/svg"
   xmlns:sodipodi="http://sodipodi.sourceforge.net/DTD/sodipodi-0.dtd"
   xmlns:inkscape="http://www.inkscape.org/namespaces/inkscape"
   width="64"
   height="64"
   version="1.1"
   id="svg18"
   sodipodi:docname="folder-remote.svg"
   inkscape:version="0.92.4 (5da689c313, 2019-01-14)">
  <metadata
     id="metadata24">
    <rdf:RDF>
      <cc:Work
         rdf:about="">
        <dc:format>image/svg+xml</dc:format>
        <dc:type
           rdf:resource="http://purl.org/dc/dcmitype/StillImage" />
        <dc:title></dc:title>
      </cc:Work>
    </rdf:RDF>
  </metadata>
  <defs
     id="defs22" />
  <sodipodi:namedview
     pagecolor="#ffffff"
     bordercolor="#666666"
     borderopacity="1"
     objecttolerance="10"
     gridtolerance="10"
     guidetolerance="10"
     inkscape:pageopacity="0"
     inkscape:pageshadow="2"
     inkscape:window-width="799"
     inkscape:window-height="480"
     id="namedview20"
     showgrid="false"
     inkscape:zoom="3.6875"
     inkscape:cx="3.5254237"
     inkscape:cy="32"
     inkscape:window-x="0"
     inkscape:window-y="25"
     inkscape:window-maximized="0"
     inkscape:current-layer="svg18" />
  <path
     d="M 6,6 A 1.995,1.995 0 0 0 4,8 v 25 c 0,0.554 0.446,1 1,1 h 54 c 0.554,0 1,-0.446 1,-1 V 12.81 A 1.805,1.805 0 0 0 58.19,11 H 32 L 28,6 Z"
     id="path2"
     inkscape:connector-curvature="0" />
  <path
     d="m 26.207,16.724 -4.768,4.768 H 4.276 4.278 l -0.002,0.011 v 32.408 a 2.851,2.851 0 0 0 2.86,2.86 H 56.72 a 2.851,2.851 0 0 0 2.86,-2.86 V 16.724 Z"
     id="path4"
     inkscape:connector-curvature="0"
     style="fill:#f9f9f9" />
  <path
     d="m 46.763,17.565 h 6.475 v 11.87 h -6.475 z"
     id="path6"
     inkscape:connector-curvature="0"
     style="fill:#dd0100" />
  <path
     d="m 13.534,44.565 h 4.728 v 7.87 h -4.728 z"
     id="path8"
     inkscape:connector-curvature="0"
     style="fill:#fac901" />
  <path
     d="m 4.684,44.565 h 8.633 v 11.87 H 4.684 Z m 32.881,6.332 h 21.87 v 5.207 h -21.87 z"
     id="path10"
     inkscape:connector-curvature="0"
     style="fill:#dd0100" />
  <path
     d="m 10.77,22.264 h 7.459 V 36.435 H 10.77 Z m 17.795,14.573 h 8.87 v 3.326 h -8.87 z"
     id="path12"
     inkscape:connector-curvature="0"
     style="fill:#225095" />
  <path
     d="m 28.565,40.891 h 8.87 v 2.218 h -8.87 z m -3,7.074 h 25.87 v 2.07 h -25.87 z"
     id="path14"
     inkscape:connector-curvature="0"
     style="fill:#fac901" />
  <path
     d="m 26,16 -5,5 H 3.002 L 3,21.012 V 55 a 2.99,2.99 0 0 0 3,3 h 52 a 2.99,2.99 0 0 0 3,-3 V 16 Z m 1,2 H 46 V 47 H 19 V 23 h 3 z m 20,0 h 6 v 11 h -6 z m 7,0 h 5 V 29 H 54 Z M 5,23 H 9 V 44 H 5 V 29 Z m 6,0 h 7 v 13 h -7 z m 13,1 v 17 h 4 v 3 h 10 v -3 h 4 V 24 h -1 z m 1,1 H 41 V 40 H 38 V 36 H 28 v 4 h -3 z m 1,1 v 5 h 2 v -5 z m 4,0 v 5 h 2 v -5 z m 4,0 v 5 h 2 v -5 z m 4,0 v 5 h 2 V 26 Z M 11,37 h 7 v 7 h -7 z m 18,0 h 8 v 3 h -8 z m 18,0 h 4 v 10 h -4 z m 5,0 h 7 v 13 h -7 z m -23,4 h 8 v 2 H 29 Z M 5,45 h 8 V 56 H 6 A 0.996,0.996 0 0 1 5.293,55.707 0.996,0.996 0 0 1 5,55 Z m 8.795,0 H 18 v 7 H 13.795 Z M 19,48 h 6 v 4 h -6 z m 7,0 h 25 v 2 H 26 Z m 0,3 h 11 v 5 H 26 Z m 12,0 h 21 v 4 A 0.996,0.996 0 0 1 58.707,55.707 0.996,0.996 0 0 1 58,56 H 38 Z M 13.795,53 H 25 v 3 H 13.795 Z"
     id="path16"
     inkscape:connector-curvature="0" />
</svg>
