<?xml version="1.0" encoding="UTF-8" standalone="no"?>
<svg
   xmlns:dc="http://purl.org/dc/elements/1.1/"
   xmlns:cc="http://creativecommons.org/ns#"
   xmlns:rdf="http://www.w3.org/1999/02/22-rdf-syntax-ns#"
   xmlns:svg="http://www.w3.org/2000/svg"
   xmlns="http://www.w3.org/2000/svg"
   xmlns:sodipodi="http://sodipodi.sourceforge.net/DTD/sodipodi-0.dtd"
   xmlns:inkscape="http://www.inkscape.org/namespaces/inkscape"
   width="64"
   height="64"
   version="1.1"
   id="svg20"
   sodipodi:docname="folder-bookmark.svg"
   inkscape:version="0.92.4 (5da689c313, 2019-01-14)">
  <metadata
     id="metadata26">
    <rdf:RDF>
      <cc:Work
         rdf:about="">
        <dc:format>image/svg+xml</dc:format>
        <dc:type
           rdf:resource="http://purl.org/dc/dcmitype/StillImage" />
        <dc:title></dc:title>
      </cc:Work>
    </rdf:RDF>
  </metadata>
  <defs
     id="defs24" />
  <sodipodi:namedview
     pagecolor="#ffffff"
     bordercolor="#666666"
     borderopacity="1"
     objecttolerance="10"
     gridtolerance="10"
     guidetolerance="10"
     inkscape:pageopacity="0"
     inkscape:pageshadow="2"
     inkscape:window-width="799"
     inkscape:window-height="480"
     id="namedview22"
     showgrid="false"
     inkscape:zoom="3.6875"
     inkscape:cx="3.5254237"
     inkscape:cy="32"
     inkscape:window-x="0"
     inkscape:window-y="25"
     inkscape:window-maximized="0"
     inkscape:current-layer="svg20" />
  <path
     d="m 18.292,7.261 a 2.931,2.931 0 0 0 -2.937,2.937 V 56.216 L 32,41.53 48.645,56.217 V 10.198 A 2.931,2.931 0 0 0 45.708,7.261 Z"
     id="path2"
     inkscape:connector-curvature="0"
     style="fill:#f9f9f9" />
  <path
     d="m 16.968,27.739 h 3.065 v 24.522 h -3.065 z"
     id="path4"
     inkscape:connector-curvature="0"
     style="fill:#fac901" />
  <path
     d="m 26.154,27.692 h -5.308 v 10.615 h 5.308 z"
     id="path6"
     inkscape:connector-curvature="0"
     style="fill:#225095" />
  <path
     d="m 40.877,15.631 h 6.246 v 18.738 h -6.246 z"
     id="path8"
     inkscape:connector-curvature="0"
     style="fill:#dd0100" />
  <path
     d="m 26.749,15.692 h 9.503 v 11.615 h -9.503 z"
     id="path10"
     inkscape:connector-curvature="0"
     style="fill:#225095" />
  <path
     d="m 22.693,8.692 h 6.615 v 6.615 h -6.615 z"
     id="path12"
     inkscape:connector-curvature="0"
     style="fill:#fac901" />
  <path
     d="m 40.693,38.795 h 6.615 v 4.41 H 40.693 Z M 22.869,15.692 h 3.264 v 7.615 h -3.264 z"
     id="path14"
     inkscape:connector-curvature="0"
     style="fill:#dd0100" />
  <path
     d="m 33.846,34.692 v 8.41 h 1.26 l 5.048,4.206 V 34.693 Z"
     id="path16"
     inkscape:connector-curvature="0"
     style="fill:#225095" />
  <path
     d="m 18,7 c -1.662,0 -3,1.338 -3,3 V 57 L 32,42 49,57 V 10 C 49,8.338 47.662,7 46,7 Z m 0.346,2 H 22 v 6 H 17 V 10.346 C 17,9.6 17.6,9 18.346,9 Z M 23,9 h 6 v 6 h -6 z m 7,0 H 45.654 C 46.4,9 47,9.6 47,10.346 V 15 H 30 v -3 z m -13,7 h 5 v 7 h -5 v -5 z m 6,0 h 3 v 7 h -3 z m 4,0 h 9 v 11 h -9 v -8 z m 10,0 h 3 v 11 h -3 z m 4,0 h 6 v 18 h -6 v -7 z m -24,8 h 9 v 3 h -9 z m 0,4 h 3 V 49.4 L 17,52 V 29.654 Z m 4,0 h 5 v 10 h -5 z m 6,0 h 6 v 3 h -6 z m 7,0 h 6 v 6 h -6 z m -7,4 h 6 v 7.867 L 32,39 27,43.334 Z m 7,3 h 6 v 10.934 l -6,-5.202 z m 7,0 h 6 v 3 h -6 z m -20,4 h 5 v 5.2 l -5,4.333 z m 20,0 h 6 v 4 h -6 z m 0,5 h 6 v 8 l -6,-5.2 z"
     id="path18"
     inkscape:connector-curvature="0" />
</svg>
