<?xml version="1.0" encoding="UTF-8" standalone="no"?>
<svg
   xmlns:dc="http://purl.org/dc/elements/1.1/"
   xmlns:cc="http://creativecommons.org/ns#"
   xmlns:rdf="http://www.w3.org/1999/02/22-rdf-syntax-ns#"
   xmlns:svg="http://www.w3.org/2000/svg"
   xmlns="http://www.w3.org/2000/svg"
   xmlns:sodipodi="http://sodipodi.sourceforge.net/DTD/sodipodi-0.dtd"
   xmlns:inkscape="http://www.inkscape.org/namespaces/inkscape"
   width="64"
   height="64"
   version="1.1"
   id="svg22"
   sodipodi:docname="folder-home.svg"
   inkscape:version="0.92.4 (5da689c313, 2019-01-14)">
  <metadata
     id="metadata28">
    <rdf:RDF>
      <cc:Work
         rdf:about="">
        <dc:format>image/svg+xml</dc:format>
        <dc:type
           rdf:resource="http://purl.org/dc/dcmitype/StillImage" />
        <dc:title></dc:title>
      </cc:Work>
    </rdf:RDF>
  </metadata>
  <defs
     id="defs26" />
  <sodipodi:namedview
     pagecolor="#ffffff"
     bordercolor="#666666"
     borderopacity="1"
     objecttolerance="10"
     gridtolerance="10"
     guidetolerance="10"
     inkscape:pageopacity="0"
     inkscape:pageshadow="2"
     inkscape:window-width="799"
     inkscape:window-height="480"
     id="namedview24"
     showgrid="false"
     inkscape:zoom="3.6875"
     inkscape:cx="3.5254237"
     inkscape:cy="32"
     inkscape:window-x="0"
     inkscape:window-y="25"
     inkscape:window-maximized="0"
     inkscape:current-layer="svg22" />
  <path
     d="M 6,6 A 1.995,1.995 0 0 0 4,8 v 25 c 0,0.554 0.446,1 1,1 h 54 c 0.554,0 1,-0.446 1,-1 V 12.81 A 1.805,1.805 0 0 0 58.19,11 H 32 L 28,6 Z"
     id="path2"
     inkscape:connector-curvature="0" />
  <path
     d="m 26.072,16.252 -4.94,4.94 H 3.348 3.35 l -0.002,0.012 v 33.58 a 2.954,2.954 0 0 0 2.964,2.964 h 51.376 a 2.954,2.954 0 0 0 2.964,-2.964 V 16.252 Z"
     id="path4"
     inkscape:connector-curvature="0"
     style="fill:#f9f9f9" />
  <path
     d="m 10.797,29.739 h 7.406 v 9.522 h -7.406 z"
     id="path6"
     inkscape:connector-curvature="0"
     style="fill:#fac901" />
  <path
     d="m 4.652,50.95 h 35.696 v 5.099 H 4.652 Z"
     id="path8"
     inkscape:connector-curvature="0"
     style="fill:#dd0100" />
  <path
     d="M 46.739,38.761 H 59.26 V 50.24 H 46.739 Z"
     id="path10"
     inkscape:connector-curvature="0"
     style="fill:#225095" />
  <path
     d="m 46.652,32.71 h 6.696 v 5.58 h -6.696 z"
     id="path12"
     inkscape:connector-curvature="0"
     style="fill:#fac901" />
  <path
     d="m 46.572,17 h 6.857 V 33 H 46.572 Z M 18.204,40.739 h -7.406 v 9.522 h 7.406 z"
     id="path14"
     inkscape:connector-curvature="0"
     style="fill:#fac901" />
  <path
     d="M 32.44,25 34.288,23 35,23.488 44,32.3 39.684,32.365 Z"
     id="path16"
     inkscape:connector-curvature="0"
     style="fill:#dd0100" />
  <path
     d="m 24.109,29.022 h 4 l 4,-4 -1.606,-1.73 -6.027,5.73 z"
     id="path18"
     inkscape:connector-curvature="0"
     style="fill:#225095" />
  <path
     d="m 26,16 -5,5 H 3.002 L 3,21.012 V 55 a 2.99,2.99 0 0 0 3,3 h 52 a 2.99,2.99 0 0 0 3,-3 V 16 Z m 1,2 H 46 V 50 H 19 V 23 h 3 z m 20,0 h 6 v 14 h -6 z m 8,0 h 4 V 38 H 55 V 29 Z M 5,23 h 13 v 6 H 5 Z m 25,0 -10,10 h 1 l 3,-3 h 3 l -3,3 V 45 H 41 V 33 h 4 L 35,23 H 34 L 32.5,24.5 31,23 Z m 0.5,0.5 1.5,1.5 -4,4 h -3 z m 4,0 8.5,8.5 h -3 l -7,-7 z m -2,2 7.5,7.5 v 11 h -3 v -8 h -9 v 8 H 25 V 33 l 3,-3 z M 5,30 h 5 V 50 H 5 V 32 Z m 6,0 h 7 v 9 h -7 z m 36,3 h 6 v 5 h -6 z m 0,6 h 12 v 5 H 47 Z m -36,2 h 7 v 9 h -7 z m 36,4 h 12 v 5 H 47 Z M 5,51 h 20 v 5 H 6 A 0.996,0.996 0 0 1 5.293,55.707 0.996,0.996 0 0 1 5,55 Z m 21,0 h 14 v 5 H 26 Z m 16,0 h 17 v 4 A 0.996,0.996 0 0 1 58.707,55.707 0.996,0.996 0 0 1 58,56 H 42 Z"
     id="path20"
     inkscape:connector-curvature="0" />
</svg>
