<?xml version="1.0" encoding="UTF-8" standalone="no"?>
<svg
   xmlns:dc="http://purl.org/dc/elements/1.1/"
   xmlns:cc="http://creativecommons.org/ns#"
   xmlns:rdf="http://www.w3.org/1999/02/22-rdf-syntax-ns#"
   xmlns:svg="http://www.w3.org/2000/svg"
   xmlns="http://www.w3.org/2000/svg"
   xmlns:sodipodi="http://sodipodi.sourceforge.net/DTD/sodipodi-0.dtd"
   xmlns:inkscape="http://www.inkscape.org/namespaces/inkscape"
   width="64"
   height="64"
   version="1.1"
   id="svg20"
   sodipodi:docname="folder-documents.svg"
   inkscape:version="0.92.4 (5da689c313, 2019-01-14)">
  <metadata
     id="metadata26">
    <rdf:RDF>
      <cc:Work
         rdf:about="">
        <dc:format>image/svg+xml</dc:format>
        <dc:type
           rdf:resource="http://purl.org/dc/dcmitype/StillImage" />
        <dc:title></dc:title>
      </cc:Work>
    </rdf:RDF>
  </metadata>
  <defs
     id="defs24" />
  <sodipodi:namedview
     pagecolor="#ffffff"
     bordercolor="#666666"
     borderopacity="1"
     objecttolerance="10"
     gridtolerance="10"
     guidetolerance="10"
     inkscape:pageopacity="0"
     inkscape:pageshadow="2"
     inkscape:window-width="799"
     inkscape:window-height="480"
     id="namedview22"
     showgrid="false"
     inkscape:zoom="3.6875"
     inkscape:cx="3.5254237"
     inkscape:cy="32"
     inkscape:window-x="0"
     inkscape:window-y="25"
     inkscape:window-maximized="0"
     inkscape:current-layer="svg20" />
  <path
     d="M 6,6 A 1.995,1.995 0 0 0 4,8 v 25 c 0,0.554 0.446,1 1,1 h 54 c 0.554,0 1,-0.446 1,-1 V 12.81 A 1.805,1.805 0 0 0 58.19,11 H 32 L 28,6 Z"
     id="path2"
     inkscape:connector-curvature="0" />
  <path
     d="m 26.207,16.724 -4.768,4.768 H 4.276 4.278 l -0.002,0.011 v 32.408 a 2.851,2.851 0 0 0 2.86,2.86 H 56.72 a 2.851,2.851 0 0 0 2.86,-2.86 V 16.724 Z"
     id="path4"
     inkscape:connector-curvature="0"
     style="fill:#f9f9f9" />
  <path
     d="m 37.61,23.508 4.877,4.876 -1.219,0.6 -4.176,-0.079 -0.027,-5.397 z"
     id="path6"
     inkscape:connector-curvature="0"
     style="fill:#fac901" />
  <path
     d="m 46.86,27.385 h 5.28 v 23.231 h -5.28 z"
     id="path8"
     inkscape:connector-curvature="0"
     style="fill:#dd0100" />
  <path
     d="m 9.553,44.385 h 8.895 V 56.616 H 9.553 Z"
     id="path10"
     inkscape:connector-curvature="0"
     style="fill:#fac901" />
  <path
     d="m 18.385,50.907 h 34.23 v 5.186 h -34.23 z"
     id="path12"
     inkscape:connector-curvature="0"
     style="fill:#dd0100" />
  <path
     d="m 52.77,39.385 h 6.462 V 56.616 H 52.77 Z"
     id="path14"
     inkscape:connector-curvature="0"
     style="fill:#fac901" />
  <path
     d="m 4.672,22.385 h 8.656 V 38.616 H 4.672 Z"
     id="path16"
     inkscape:connector-curvature="0"
     style="fill:#225095" />
  <path
     d="m 26,16 -5,5 H 3.002 L 3,21.012 V 55 a 2.99,2.99 0 0 0 3,3 h 52 a 2.99,2.99 0 0 0 3,-3 V 16 Z m 1,2 H 46 V 50 H 19 V 23 h 3 z m 20,0 h 12 v 9 H 47 Z M 5,23 h 8 V 38 H 5 v -9 z m 9,0 h 4 v 15 h -4 z m 15,0 v 4 h -5 v 18 h 15 v -4 h 4 V 28 l -5,-5 h -8 z m 1,1 h 3 v 3 h -3 z m 4,0 h 3 v 5 h 5 v 11 h -3 v -8 l -5,-5 z m 4,1 3,3 h -3 z m -8,3 h 3 v 5 h 5 v 7 h -8 z m 17,0 h 5 v 22 h -5 z m 6,0 h 6 v 9 h -6 z m -19,1 3,3 H 34 Z M 5,39 H 8 V 56 H 6 A 0.996,0.996 0 0 1 5.293,55.707 0.996,0.996 0 0 1 5,55 Z m 5,0 h 8 v 5 h -8 z m 43,1 h 6 V 55 A 0.996,0.996 0 0 1 58.707,55.707 0.996,0.996 0 0 1 58,56 h -5 z m -23,1 h 8 v 3 h -8 z m -20,4 h 8 v 11 h -8 z m 9,6 h 33 v 5 H 19 Z"
     id="path18"
     inkscape:connector-curvature="0" />
</svg>
