<?xml version="1.0" encoding="UTF-8" standalone="no"?>
<svg
   xmlns:dc="http://purl.org/dc/elements/1.1/"
   xmlns:cc="http://creativecommons.org/ns#"
   xmlns:rdf="http://www.w3.org/1999/02/22-rdf-syntax-ns#"
   xmlns:svg="http://www.w3.org/2000/svg"
   xmlns="http://www.w3.org/2000/svg"
   xmlns:sodipodi="http://sodipodi.sourceforge.net/DTD/sodipodi-0.dtd"
   xmlns:inkscape="http://www.inkscape.org/namespaces/inkscape"
   width="64"
   height="64"
   version="1.1"
   id="svg20"
   sodipodi:docname="folder-script.svg"
   inkscape:version="0.92.4 (5da689c313, 2019-01-14)">
  <metadata
     id="metadata26">
    <rdf:RDF>
      <cc:Work
         rdf:about="">
        <dc:format>image/svg+xml</dc:format>
        <dc:type
           rdf:resource="http://purl.org/dc/dcmitype/StillImage" />
        <dc:title></dc:title>
      </cc:Work>
    </rdf:RDF>
  </metadata>
  <defs
     id="defs24" />
  <sodipodi:namedview
     pagecolor="#ffffff"
     bordercolor="#666666"
     borderopacity="1"
     objecttolerance="10"
     gridtolerance="10"
     guidetolerance="10"
     inkscape:pageopacity="0"
     inkscape:pageshadow="2"
     inkscape:window-width="799"
     inkscape:window-height="480"
     id="namedview22"
     showgrid="false"
     inkscape:zoom="3.6875"
     inkscape:cx="3.5254237"
     inkscape:cy="32"
     inkscape:window-x="0"
     inkscape:window-y="25"
     inkscape:window-maximized="0"
     inkscape:current-layer="svg20" />
  <path
     d="M 6,6 A 1.995,1.995 0 0 0 4,8 v 25 c 0,0.554 0.446,1 1,1 h 54 c 0.554,0 1,-0.446 1,-1 V 12.81 A 1.805,1.805 0 0 0 58.19,11 H 32 L 28,6 Z"
     id="path2"
     inkscape:connector-curvature="0" />
  <path
     d="m 26.025,16.359 -4.868,4.869 H 3.629 3.631 l -0.002,0.011 v 33.097 a 2.912,2.912 0 0 0 2.921,2.921 h 50.636 a 2.912,2.912 0 0 0 2.921,-2.921 V 16.358 Z"
     id="path4"
     inkscape:connector-curvature="0"
     style="fill:#f9f9f9" />
  <path
     d="m 46.385,17.795 h 13.23 v 4.41 h -13.23 z"
     id="path6"
     inkscape:connector-curvature="0"
     style="fill:#dd0100" />
  <path
     d="m 11.895,22.63 h 6.21 v 21.74 h -6.21 z m 34.49,0.062 h 13.23 v 6.616 h -13.23 z"
     id="path8"
     inkscape:connector-curvature="0"
     style="fill:#225095" />
  <path
     d="m 33.363,28.597 2.315,1.8 -4.532,3.022 -0.281,-0.186 -2.234,-1.49 4.468,-2.978 z M 4.862,32.63 h 6.276 V 49.37 H 4.862 Z"
     id="path10"
     inkscape:connector-curvature="0"
     style="fill:#fac901" />
  <path
     d="m 40.63,44.778 h 5.74 v 3.444 h -5.74 z m 11,3.852 h 7.74 v 6.634 a 1.1,1.1 0 0 1 -0.325,0.781 1.1,1.1 0 0 1 -0.781,0.324 H 51.63 Z"
     id="path12"
     inkscape:connector-curvature="0"
     style="fill:#dd0100" />
  <path
     d="m 4.63,49.63 h 6.74 v 6.74 H 5.753 c -0.311,0 -0.591,-0.127 -0.794,-0.33 a 1.118,1.118 0 0 1 -0.33,-0.794 z"
     id="path14"
     inkscape:connector-curvature="0"
     style="fill:#fac901" />
  <path
     d="m 18.63,50.912 h 21.74 v 5.176 H 18.63 Z"
     id="path16"
     inkscape:connector-curvature="0"
     style="fill:#225095" />
  <path
     d="m 26,16 -5,5 H 3.002 L 3,21.012 V 55 a 2.99,2.99 0 0 0 3,3 h 52 a 2.99,2.99 0 0 0 3,-3 V 16 Z m 1,2 H 46 V 44 H 19 V 23 h 3 z m 20,0 h 12 v 4 H 47 Z M 5,23 h 6 v 9 H 5 Z m 7,0 h 6 v 21 h -6 z m 15,0 v 1 l 5.54,4.309 -4.29,2.857 L 28,31.334 27,32 v 1 l 1.25,-0.834 2.25,1.5 L 27,36 v 1 l 9,-6 v -1 z m 20,0 h 12 v 6 H 47 Z m -13.764,5.85 2.073,1.61 -4.057,2.706 L 31,33 29,31.666 33,29 Z M 47,30 h 12 v 9 H 47 Z M 5,33 h 6 V 49 H 5 Z m 26,4 v 1 h 9 v -1 z m 16,4 h 12 v 7 H 47 Z m -35,4 h 6 v 11 h -6 z m 7,0 h 21 v 5 H 19 Z m 22,0 h 5 v 3 h -5 z m 0,4 h 10 v 7 H 41 Z m 11,0 h 7 v 6 A 0.996,0.996 0 0 1 58.707,55.707 0.996,0.996 0 0 1 58,56 H 52 Z M 5,50 h 6 v 6 H 6 A 0.996,0.996 0 0 1 5.293,55.707 0.996,0.996 0 0 1 5,55 Z m 14,1 h 21 v 5 H 19 Z"
     id="path18"
     inkscape:connector-curvature="0" />
</svg>
