<?xml version="1.0" encoding="UTF-8" standalone="no"?>
<svg
   xmlns:dc="http://purl.org/dc/elements/1.1/"
   xmlns:cc="http://creativecommons.org/ns#"
   xmlns:rdf="http://www.w3.org/1999/02/22-rdf-syntax-ns#"
   xmlns:svg="http://www.w3.org/2000/svg"
   xmlns="http://www.w3.org/2000/svg"
   xmlns:sodipodi="http://sodipodi.sourceforge.net/DTD/sodipodi-0.dtd"
   xmlns:inkscape="http://www.inkscape.org/namespaces/inkscape"
   width="64"
   height="64"
   version="1.1"
   id="svg20"
   sodipodi:docname="folder-development.svg"
   inkscape:version="0.92.4 (5da689c313, 2019-01-14)">
  <metadata
     id="metadata26">
    <rdf:RDF>
      <cc:Work
         rdf:about="">
        <dc:format>image/svg+xml</dc:format>
        <dc:type
           rdf:resource="http://purl.org/dc/dcmitype/StillImage" />
        <dc:title></dc:title>
      </cc:Work>
    </rdf:RDF>
  </metadata>
  <defs
     id="defs24" />
  <sodipodi:namedview
     pagecolor="#ffffff"
     bordercolor="#666666"
     borderopacity="1"
     objecttolerance="10"
     gridtolerance="10"
     guidetolerance="10"
     inkscape:pageopacity="0"
     inkscape:pageshadow="2"
     inkscape:window-width="799"
     inkscape:window-height="480"
     id="namedview22"
     showgrid="false"
     inkscape:zoom="3.6875"
     inkscape:cx="3.5254237"
     inkscape:cy="32"
     inkscape:window-x="0"
     inkscape:window-y="25"
     inkscape:window-maximized="0"
     inkscape:current-layer="svg20" />
  <path
     d="M 6,6 A 1.995,1.995 0 0 0 4,8 v 25 c 0,0.554 0.446,1 1,1 h 54 c 0.554,0 1,-0.446 1,-1 V 12.81 A 1.805,1.805 0 0 0 58.19,11 H 32 L 28,6 Z"
     id="path2"
     inkscape:connector-curvature="0" />
  <path
     d="m 26.123,16.43 -4.898,4.898 H 3.595 3.596 L 3.594,21.34 v 33.29 a 2.929,2.929 0 0 0 2.939,2.939 h 50.934 a 2.929,2.929 0 0 0 2.939,-2.939 v -38.2 z"
     id="path4"
     inkscape:connector-curvature="0"
     style="fill:#f9f9f9" />
  <path
     d="m 4.508,22.606 h 10.984 v 8.788 H 4.508 V 29.197 Z M 32.5,23.82 a 10.903,10.903 0 0 1 2.87,0.397 v 2.4 A 8.608,8.608 0 0 0 32.5,26.115 8.608,8.608 0 0 0 29.63,26.62 V 24.205 A 10.903,10.903 0 0 1 32.5,23.82 Z"
     id="path6"
     inkscape:connector-curvature="0"
     style="fill:#225095" />
  <path
     d="m 46.713,24.63 h 7.574 v 9.74 h -7.574 z m 8.123,0 h 4.328 v 9.74 h -4.328 z"
     id="path8"
     inkscape:connector-curvature="0"
     style="fill:#fac901" />
  <path
     d="m 39.38,30.63 h 2.415 a 10.903,10.903 0 0 1 0.385,2.87 10.903,10.903 0 0 1 -0.397,2.87 h -2.4 A 8.608,8.608 0 0 0 39.885,33.5 8.608,8.608 0 0 0 39.38,30.63 Z"
     id="path10"
     inkscape:connector-curvature="0"
     style="fill:#dd0100" />
  <path
     d="m 11.672,37.508 h 6.656 v 9.984 h -6.656 z m 40.156,3.122 h 7.344 v 14.69 a 1.045,1.045 0 0 1 -1.05,1.05 H 51.83 Z"
     id="path12"
     inkscape:connector-curvature="0"
     style="fill:#225095" />
  <path
     d="m 4.716,42.385 h 6.568 v 14.23 H 5.811 A 1.09,1.09 0 0 1 5.037,56.295 1.09,1.09 0 0 1 4.716,55.521 Z"
     id="path14"
     inkscape:connector-curvature="0"
     style="fill:#fac901" />
  <path
     d="m 11.63,47.836 h 18.74 v 8.328 H 11.63 Z m 27,-0.082 h 12.74 v 8.492 H 38.63 Z"
     id="path16"
     inkscape:connector-curvature="0"
     style="fill:#dd0100" />
  <path
     d="m 26,16 -5,5 H 3.002 L 3,21.012 V 55 a 2.99,2.99 0 0 0 3,3 h 52 a 2.99,2.99 0 0 0 3,-3 V 16 Z m 1,2 H 46 V 47 H 19 V 23 h 3 z m 20,0 h 12 v 6 H 47 Z M 5,23 h 10 v 8 H 5 Z m 11,0 h 2 v 14 h -2 z m 16.5,0 a 10.5,10.5 0 0 0 -2.5,0.314 10.5,10.5 0 0 0 -1,0.3 v 3.258 A 7.5,7.5 0 0 0 25.873,30 h -3.262 a 10.5,10.5 0 0 0 -0.299,1 10.5,10.5 0 0 0 -0.312,2.5 10.5,10.5 0 0 0 0.314,2.5 10.5,10.5 0 0 0 0.3,1 h 3.258 A 7.5,7.5 0 0 0 29,40.127 v 3.262 a 10.5,10.5 0 0 0 1,0.298 10.5,10.5 0 0 0 2.5,0.313 10.5,10.5 0 0 0 2.5,-0.314 10.5,10.5 0 0 0 1,-0.3 V 40.128 A 7.5,7.5 0 0 0 39.127,37 h 3.262 A 10.5,10.5 0 0 0 42.687,36 10.5,10.5 0 0 0 43,33.5 10.5,10.5 0 0 0 42.686,31 10.5,10.5 0 0 0 42.386,30 H 39.13 A 7.5,7.5 0 0 0 36,26.873 V 23.611 A 10.5,10.5 0 0 0 35,23.312 10.5,10.5 0 0 0 32.5,23 Z m 0,1 a 9.5,9.5 0 0 1 2.5,0.346 v 2.091 A 7.5,7.5 0 0 0 32.5,26 7.5,7.5 0 0 0 30,26.44 V 24.336 A 9.5,9.5 0 0 1 32.5,24 Z M 47,25 h 7 v 9 h -7 z m 8,0 h 4 v 9 H 55 Z M 32.5,27 A 6.5,6.5 0 0 1 39,33.5 6.5,6.5 0 0 1 32.5,40 6.5,6.5 0 0 1 26,33.5 6.5,6.5 0 0 1 32.5,27 Z m -9.154,4 h 2.091 A 7.5,7.5 0 0 0 25,33.5 7.5,7.5 0 0 0 25.44,36 H 23.336 A 9.5,9.5 0 0 1 23,33.5 9.5,9.5 0 0 1 23.346,31 Z m 16.215,0 h 2.103 A 9.5,9.5 0 0 1 42,33.5 9.5,9.5 0 0 1 41.654,36 H 39.562 A 7.5,7.5 0 0 0 40,33.5 7.5,7.5 0 0 0 39.56,31 Z M 5,32 h 10 v 5 H 5 Z m 42,3 h 12 v 5 H 47 Z M 5,38 h 6 v 4 H 5 Z m 7,0 h 6 v 9 h -6 z m 35,3 h 4 v 6 h -4 z m 5,0 h 7 V 55 A 0.996,0.996 0 0 1 58.707,55.707 0.996,0.996 0 0 1 58,56 H 52 Z M 5,43 h 6 V 56 H 6 A 0.996,0.996 0 0 1 5.293,55.707 0.996,0.996 0 0 1 5,55 Z m 7,5 h 18 v 8 H 12 Z m 19,0 h 6 v 8 h -6 z m 8,0 h 12 v 8 H 39 Z"
     id="path18"
     inkscape:connector-curvature="0" />
</svg>
