<?xml version="1.0" encoding="UTF-8" standalone="no"?>
<svg
   xmlns:dc="http://purl.org/dc/elements/1.1/"
   xmlns:cc="http://creativecommons.org/ns#"
   xmlns:rdf="http://www.w3.org/1999/02/22-rdf-syntax-ns#"
   xmlns:svg="http://www.w3.org/2000/svg"
   xmlns="http://www.w3.org/2000/svg"
   xmlns:sodipodi="http://sodipodi.sourceforge.net/DTD/sodipodi-0.dtd"
   xmlns:inkscape="http://www.inkscape.org/namespaces/inkscape"
   width="64"
   height="64"
   version="1.1"
   id="svg22"
   sodipodi:docname="folder-pictures.svg"
   inkscape:version="0.92.4 (5da689c313, 2019-01-14)">
  <metadata
     id="metadata28">
    <rdf:RDF>
      <cc:Work
         rdf:about="">
        <dc:format>image/svg+xml</dc:format>
        <dc:type
           rdf:resource="http://purl.org/dc/dcmitype/StillImage" />
        <dc:title></dc:title>
      </cc:Work>
    </rdf:RDF>
  </metadata>
  <defs
     id="defs26" />
  <sodipodi:namedview
     pagecolor="#ffffff"
     bordercolor="#666666"
     borderopacity="1"
     objecttolerance="10"
     gridtolerance="10"
     guidetolerance="10"
     inkscape:pageopacity="0"
     inkscape:pageshadow="2"
     inkscape:window-width="799"
     inkscape:window-height="480"
     id="namedview24"
     showgrid="false"
     inkscape:zoom="3.6875"
     inkscape:cx="3.5254237"
     inkscape:cy="32"
     inkscape:window-x="0"
     inkscape:window-y="25"
     inkscape:window-maximized="0"
     inkscape:current-layer="svg22" />
  <path
     d="M 6,6 A 1.995,1.995 0 0 0 4,8 v 25 c 0,0.554 0.446,1 1,1 h 54 c 0.554,0 1,-0.446 1,-1 V 12.81 A 1.805,1.805 0 0 0 58.19,11 H 32 L 28,6 Z"
     id="path2"
     inkscape:connector-curvature="0" />
  <path
     d="m 26.072,16.252 -4.94,4.94 H 3.348 3.35 l -0.002,0.012 v 33.58 a 2.954,2.954 0 0 0 2.964,2.964 h 51.376 a 2.954,2.954 0 0 0 2.964,-2.964 V 16.252 Z"
     id="path4"
     inkscape:connector-curvature="0"
     style="fill:#f9f9f9" />
  <path
     d="M 4.63,22.161 H 16.123 V 32.609 H 4.63 Z M 21.3,46.792 h 27.4 v 4.215 H 21.3 Z"
     id="path6"
     inkscape:connector-curvature="0"
     style="fill:#225095" />
  <path
     d="m 35,51.826 h 25 v 4.348 H 35 Z"
     id="path8"
     inkscape:connector-curvature="0"
     style="fill:#dd0100" />
  <path
     d="m 29.329,34 3.002,4.61 2.154,-2.96 -2.937,-4.307 c 0,0 -2.478,2.657 -2.22,2.657 z"
     id="path10"
     inkscape:connector-curvature="0"
     style="fill:#fac901" />
  <path
     d="m 27.457,31 2.13,3 L 25,42 h -4 v -1 z"
     id="path12"
     inkscape:connector-curvature="0"
     style="fill:#dd0100" />
  <path
     d="m 48.445,17 h 11.11 v 20 h -11.11 z"
     id="path14"
     inkscape:connector-curvature="0"
     style="fill:#225095" />
  <path
     d="M 48.23,37 H 59.77 V 52 H 48.23 Z"
     id="path16"
     inkscape:connector-curvature="0"
     style="fill:#dd0100" />
  <path
     d="m 8,46.25 h 14 v 10.5 H 8 Z"
     id="path18"
     inkscape:connector-curvature="0"
     style="fill:#fac901" />
  <path
     d="m 26,16 -5,5 H 3.002 L 3,21.012 V 55 a 2.99,2.99 0 0 0 3,3 h 52 a 2.99,2.99 0 0 0 3,-3 V 16 Z m 1,2 H 48 V 46 H 17 V 23 h 5 z m 22,0 H 59 V 36 H 49 Z m -10,4 a 4,3.946 0 0 0 -4,3.945 4,3.946 0 0 0 4,3.948 4,3.946 0 0 0 4,-3.948 A 4,3.946 0 0 0 39,22 Z m 0,0.877 A 3.111,3.07 0 0 1 42.111,25.945 3.111,3.07 0 0 1 39,29.015 3.111,3.07 0 0 1 35.889,25.945 3.111,3.07 0 0 1 39,22.877 Z M 5,23 h 11 v 9 H 5 v -3 z m 22,8 -7,11 H 45 L 40,34 H 39 L 37.363,36.182 36,34 H 35 L 34.4,35 32,31 H 31 L 29.486,33.379 28,31 Z m 0.496,0.793 1.486,2.379 L 24.637,41 h -3 z m 3.988,0.016 2.416,4.025 -1.41,2.35 -2.508,-4.014 z M 5,33 H 16 V 46 H 5 Z M 35.51,34.816 39.375,41 H 25.637 L 29.477,34.963 32,39 h 1 z M 49,38 H 59 V 51 H 49 Z M 9,47 h 12 v 9 H 9 Z m 13,0 h 26 v 4 H 22 Z m 0,5 h 13 v 4 H 22 Z m 14,0 h 23 v 3 A 0.996,0.996 0 0 1 58.707,55.707 0.996,0.996 0 0 1 58,56 H 36 Z"
     id="path20"
     inkscape:connector-curvature="0" />
</svg>
