<?xml version="1.0" encoding="UTF-8" standalone="no"?>
<svg
   xmlns:dc="http://purl.org/dc/elements/1.1/"
   xmlns:cc="http://creativecommons.org/ns#"
   xmlns:rdf="http://www.w3.org/1999/02/22-rdf-syntax-ns#"
   xmlns:svg="http://www.w3.org/2000/svg"
   xmlns="http://www.w3.org/2000/svg"
   xmlns:sodipodi="http://sodipodi.sourceforge.net/DTD/sodipodi-0.dtd"
   xmlns:inkscape="http://www.inkscape.org/namespaces/inkscape"
   width="64"
   height="64"
   version="1.1"
   id="svg18"
   sodipodi:docname="folder-music.svg"
   inkscape:version="0.92.4 (5da689c313, 2019-01-14)">
  <metadata
     id="metadata24">
    <rdf:RDF>
      <cc:Work
         rdf:about="">
        <dc:format>image/svg+xml</dc:format>
        <dc:type
           rdf:resource="http://purl.org/dc/dcmitype/StillImage" />
        <dc:title></dc:title>
      </cc:Work>
    </rdf:RDF>
  </metadata>
  <defs
     id="defs22" />
  <sodipodi:namedview
     pagecolor="#ffffff"
     bordercolor="#666666"
     borderopacity="1"
     objecttolerance="10"
     gridtolerance="10"
     guidetolerance="10"
     inkscape:pageopacity="0"
     inkscape:pageshadow="2"
     inkscape:window-width="799"
     inkscape:window-height="480"
     id="namedview20"
     showgrid="false"
     inkscape:zoom="3.6875"
     inkscape:cx="3.5254237"
     inkscape:cy="32"
     inkscape:window-x="0"
     inkscape:window-y="25"
     inkscape:window-maximized="0"
     inkscape:current-layer="svg18" />
  <path
     d="M 6,6 A 1.995,1.995 0 0 0 4,8 v 25 c 0,0.554 0.446,1 1,1 h 54 c 0.554,0 1,-0.446 1,-1 V 12.81 A 1.805,1.805 0 0 0 58.19,11 H 32 L 28,6 Z"
     id="path2"
     inkscape:connector-curvature="0" />
  <path
     d="m 26.207,16.724 -4.768,4.768 H 4.276 4.278 l -0.002,0.011 v 32.408 a 2.851,2.851 0 0 0 2.86,2.86 H 56.72 a 2.851,2.851 0 0 0 2.86,-2.86 V 16.724 Z"
     id="path4"
     inkscape:connector-curvature="0"
     style="fill:#f9f9f9" />
  <path
     d="m 37.794,25.896 v 4.278 l 3.67,-0.444 -0.462,-4.904 z"
     id="path6"
     inkscape:connector-curvature="0"
     style="fill:#fac901" />
  <path
     d="m 46.826,17.521 h 6.319 v 18.957 h -6.32 z M 23.995,38.779 a 2.295,1.721 0 0 1 2.295,1.72 2.295,1.721 0 0 1 -2.295,1.722 A 2.295,1.721 0 0 1 21.7,40.5 2.295,1.721 0 0 1 23.995,38.779 Z"
     id="path8"
     inkscape:connector-curvature="0"
     style="fill:#dd0100" />
  <path
     d="m 13.795,41.541 h 4.304 v 15.064 h -4.304 z"
     id="path10"
     inkscape:connector-curvature="0"
     style="fill:#fac901" />
  <path
     d="m 4.826,41.715 h 8.309 v 14.542 h -8.31 z m 32.783,9.061 h 22.596 v 5.38 H 37.609 Z"
     id="path12"
     inkscape:connector-curvature="0"
     style="fill:#dd0100" />
  <path
     d="m 4.565,22.699 h 13.85 v 8.524 H 4.566 Z"
     id="path14"
     inkscape:connector-curvature="0"
     style="fill:#225095" />
  <path
     d="m 26,16 -5,5 H 3.002 L 3,21.012 V 55 a 2.99,2.99 0 0 0 3,3 h 52 a 2.99,2.99 0 0 0 3,-3 V 16 Z m 1,2 H 46 V 50 H 19 V 23 h 3 z m 20,0 h 6 v 18 h -6 z m 7,0 h 5 V 36 H 54 Z M 38,21 26,24 V 38.64 A 3,2.5 0 0 0 24,38 3,2.5 0 0 0 21,40.5 3,2.5 0 0 0 24,43 3,2.5 0 0 0 27,40.5 3,2.5 0 0 0 26.937,40 H 27 V 28.75 L 30,28 V 43.64 A 3,2.5 0 0 0 28,43 3,2.5 0 0 0 25,45.5 3,2.5 0 0 0 28,48 3,2.5 0 0 0 31,45.5 3,2.5 0 0 0 30.937,45 H 31 V 27.75 l 6,-1.5 v 6.39 A 3,2.5 0 0 0 35,32 3,2.5 0 0 0 32,34.5 3,2.5 0 0 0 35,37 3,2.5 0 0 0 38,34.5 3,2.5 0 0 0 37.937,34 H 38 v -3.2 l 3,-0.6 v 7.44 A 3,2.5 0 0 0 39,37 3,2.5 0 0 0 36,39.5 3,2.5 0 0 0 39,42 3,2.5 0 0 0 42,39.5 3,2.5 0 0 0 41.937,39 H 42 V 24 l -4,1 v -3 z m -1,1.25 v 3 l -10,2.5 v -3 z M 5,23 h 13 v 8 H 5 v -2 z m 36,2.25 v 3.95 l -3,0.6 V 26 Z M 5,33 h 13 v 8 H 5 Z m 30,0 a 2,1.5 0 0 1 2,1.5 2,1.5 0 0 1 -2,1.5 2,1.5 0 0 1 -2,-1.5 2,1.5 0 0 1 2,-1.5 z m 12,4 h 12 v 5 H 47 Z M 24,39 A 2,1.5 0 0 1 26,40.5 2,1.5 0 0 1 24,42 2,1.5 0 0 1 22,40.5 2,1.5 0 0 1 24,39 Z M 5,42 h 8 v 7 H 5 Z m 9,0 h 4 v 14 h -4 z m 14,2 a 2,1.5 0 0 1 2,1.5 2,1.5 0 0 1 -2,1.5 2,1.5 0 0 1 -2,-1.5 2,1.5 0 0 1 2,-1.5 z m 19,0 h 12 v 6 H 47 Z M 5,50 h 8 v 6 H 6 A 0.996,0.996 0 0 1 5.293,55.707 0.996,0.996 0 0 1 5,55 Z m 14,1 h 18 v 5 H 19 Z m 19,0 h 21 v 4 A 0.996,0.996 0 0 1 58.707,55.707 0.996,0.996 0 0 1 58,56 H 38 Z"
     id="path16"
     inkscape:connector-curvature="0" />
</svg>
