<?xml version="1.0" encoding="UTF-8" standalone="no"?>
<svg
   xmlns:dc="http://purl.org/dc/elements/1.1/"
   xmlns:cc="http://creativecommons.org/ns#"
   xmlns:rdf="http://www.w3.org/1999/02/22-rdf-syntax-ns#"
   xmlns:svg="http://www.w3.org/2000/svg"
   xmlns="http://www.w3.org/2000/svg"
   xmlns:sodipodi="http://sodipodi.sourceforge.net/DTD/sodipodi-0.dtd"
   xmlns:inkscape="http://www.inkscape.org/namespaces/inkscape"
   width="64"
   height="64"
   version="1.1"
   id="svg14"
   sodipodi:docname="gnome-fs-directory-accept.svg"
   inkscape:version="0.92.4 (5da689c313, 2019-01-14)">
  <metadata
     id="metadata20">
    <rdf:RDF>
      <cc:Work
         rdf:about="">
        <dc:format>image/svg+xml</dc:format>
        <dc:type
           rdf:resource="http://purl.org/dc/dcmitype/StillImage" />
        <dc:title></dc:title>
      </cc:Work>
    </rdf:RDF>
  </metadata>
  <defs
     id="defs18" />
  <sodipodi:namedview
     pagecolor="#ffffff"
     bordercolor="#666666"
     borderopacity="1"
     objecttolerance="10"
     gridtolerance="10"
     guidetolerance="10"
     inkscape:pageopacity="0"
     inkscape:pageshadow="2"
     inkscape:window-width="799"
     inkscape:window-height="480"
     id="namedview16"
     showgrid="false"
     inkscape:zoom="3.6875"
     inkscape:cx="3.5254237"
     inkscape:cy="32"
     inkscape:window-x="0"
     inkscape:window-y="25"
     inkscape:window-maximized="0"
     inkscape:current-layer="svg14" />
  <path
     d="M 8,6 A 1.995,1.995 0 0 0 6,8 v 25 c 0,0.554 0.446,1 1,1 H 45 V 55 H 62 V 12.81 A 1.805,1.805 0 0 0 60.19,11 H 34 L 30,6 Z"
     id="path2"
     inkscape:connector-curvature="0" />
  <path
     d="m 23.641,19.383 -4.507,4.57 H 1.35 1.352 l -0.001,0.01 1.814,19.182 1.124,11.88 c 0.071,0.76 0.467,1.445 1.05,1.94 a 3.369,3.369 0 0 0 2.173,0.802 h 51.376 c 0.82,0 1.533,-0.306 2.021,-0.802 0.49,-0.495 0.755,-1.18 0.683,-1.94 L 60.469,43.145 58.654,23.963 v -0.01 l -0.433,-4.57 z"
     id="path4"
     inkscape:connector-curvature="0"
     style="fill:#f9f9f9" />
  <path
     d="m 2.338,24.903 h 8.508 l 0.661,6.994 H 3 Z m 39.176,23.773 0.047,0.49 h -0.469 l 0.793,8.382 h 17.19 c 0.682,0 1.273,-0.253 1.68,-0.665 0.406,-0.412 0.626,-0.98 0.566,-1.612 l -0.324,-3.43 -0.215,-2.278 -0.038,-0.396 -0.047,-0.49 z"
     id="path6"
     inkscape:connector-curvature="0"
     style="fill:#fac901" />
  <path
     d="m 1.947,33.95 h 18.921 l 1.694,17.903 H 3.64 Z"
     id="path8"
     inkscape:connector-curvature="0"
     style="fill:#225095" />
  <path
     d="m 37.942,20.075 h 10.305 l 1.967,20.793 H 39.909 Z M 23.296,52.108 h 4.738 l 0.414,4.384 H 23.71 Z"
     id="path10"
     inkscape:connector-curvature="0"
     style="fill:#dd0100" />
  <path
     d="m 23.547,19.15 -4.563,4.625 H 0.986 v 0.01 l 0.7,7.391 0.144,1.523 0.117,1.25 0.875,9.25 0.787,8.327 0.088,0.923 0.262,2.776 c 0.073,0.769 0.473,1.463 1.062,1.965 0.59,0.501 1.37,0.81 2.202,0.81 h 52 c 0.83,0 1.55,-0.309 2.045,-0.81 a 2.434,2.434 0 0 0 0.691,-1.965 L 61.434,49.676 61.26,47.824 60.822,43.199 58.986,23.785 58.984,23.775 58.547,19.15 h -21 z M 24.723,21 h 6 l 0.963,10.176 h -20 L 11.16,25.625 h 9 z m 8,0 h 5 l 0.963,10.176 h -5 z m 6,0 h 9 l 1.838,19.426 h -9 l -0.614,-6.477 -0.261,-2.773 z m 10.492,0 h 7.508 l 0.437,4.625 0.262,2.775 H 49.914 Z M 3.16,25.625 h 7 l 0.526,5.55 h -7 z m 46.842,3.7 h 7.508 l 0.088,0.925 0.088,0.926 0.261,2.773 1.313,13.875 H 51.752 Z M 3.947,33.948 h 16 l 1.662,17.576 h -16 z m 18,0 h 4 l 1.662,17.576 h -4 z m 5,0 h 12 l 0.614,6.477 h -12 z m 0.7,7.4 h 12 l 0.613,6.475 0.787,8.326 h -12 l -0.35,-3.7 -0.088,-0.925 z m 13,0 h 9 l 0.613,6.475 h -9 z m 0.787,8.327 h 18 l 0.525,5.549 a 0.81,0.81 0 0 1 -0.23,0.654 0.947,0.947 0 0 1 -0.682,0.271 h -17 z M 5.697,52.449 h 16 l 0.35,3.701 h -15 C 6.77,56.15 6.511,56.046 6.314,55.879 A 0.99,0.99 0 0 1 5.959,55.225 Z m 18,0 h 4 l 0.35,3.701 h -4 z"
     id="path12"
     inkscape:connector-curvature="0" />
</svg>
