<?xml version="1.0" encoding="UTF-8" standalone="no"?>
<svg
   xmlns:dc="http://purl.org/dc/elements/1.1/"
   xmlns:cc="http://creativecommons.org/ns#"
   xmlns:rdf="http://www.w3.org/1999/02/22-rdf-syntax-ns#"
   xmlns:svg="http://www.w3.org/2000/svg"
   xmlns="http://www.w3.org/2000/svg"
   xmlns:sodipodi="http://sodipodi.sourceforge.net/DTD/sodipodi-0.dtd"
   xmlns:inkscape="http://www.inkscape.org/namespaces/inkscape"
   width="64"
   height="64"
   version="1.1"
   id="svg16"
   sodipodi:docname="user-desktop.svg"
   inkscape:version="0.92.4 (5da689c313, 2019-01-14)">
  <metadata
     id="metadata22">
    <rdf:RDF>
      <cc:Work
         rdf:about="">
        <dc:format>image/svg+xml</dc:format>
        <dc:type
           rdf:resource="http://purl.org/dc/dcmitype/StillImage" />
        <dc:title></dc:title>
      </cc:Work>
    </rdf:RDF>
  </metadata>
  <defs
     id="defs20" />
  <sodipodi:namedview
     pagecolor="#ffffff"
     bordercolor="#666666"
     borderopacity="1"
     objecttolerance="10"
     gridtolerance="10"
     guidetolerance="10"
     inkscape:pageopacity="0"
     inkscape:pageshadow="2"
     inkscape:window-width="799"
     inkscape:window-height="480"
     id="namedview18"
     showgrid="false"
     inkscape:zoom="3.6875"
     inkscape:cx="3.5254237"
     inkscape:cy="32"
     inkscape:window-x="0"
     inkscape:window-y="25"
     inkscape:window-maximized="0"
     inkscape:current-layer="svg16" />
  <g
     transform="translate(-384.571,-483.798)"
     id="g14">
    <rect
       ry="3.9319999"
       y="492.22198"
       x="388.064"
       height="49.151001"
       width="57.014999"
       id="rect2"
       style="fill:#f9f9f9" />
    <path
       d="m 400.079,493.395 h 11.985 v 9.806 h -11.985 z m 22,8.086 h 14.985 v 9.633 h -14.985 z"
       id="path4"
       inkscape:connector-curvature="0"
       style="fill:#dd0100" />
    <path
       d="m 422.079,511.306 h 7.985 v 7.985 h -7.985 z m -3,17.224 h 17.985 v 5.29 h -17.985 z"
       id="path6"
       inkscape:connector-curvature="0"
       style="fill:#225095" />
    <path
       d="m 399.079,523.47 h 6.985 v 4.656 h -6.985 z"
       id="path8"
       inkscape:connector-curvature="0"
       style="fill:#dd0100" />
    <path
       d="m 389.079,510.429 h 16.985 v 12.738 h -16.985 z"
       id="path10"
       inkscape:connector-curvature="0"
       style="fill:#fac901" />
    <path
       d="m 391.571,491.798 c -2.216,0 -4,1.784 -4,4 v 42 c 0,2.216 1.784,4 4,4 h 50 c 2.216,0 4,-1.784 4,-4 v -42 c 0,-2.216 -1.784,-4 -4,-4 z m 0,2 h 8 v 16 h -10 v -14 c 0,-1.108 0.892,-2 2,-2 z m 9,0 h 11 v 9 h -11 z m 12,0 h 9 v 9 h -9 z m 10,0 h 19 c 1.108,0 2,0.892 2,2 v 5 h -21 z m 0,8 h 14 v 9 h -14 z m 15,0 h 6 v 32 h -6 z m -37,2 h 11 v 6 h -11 z m 12,0 h 9 v 15 h -9 z m -23,7 h 16 v 12 h -16 z m 17,0 h 5 v 17 h -5 z m 16,1 h 7 v 7 h -7 z m 8,0 h 6 v 16 h -6 v -7 z m -18,8 h 6 v 14 h -6 z m 7,0 h 10 v 8 h -10 z m -30,4 h 9 v 10 h -9 z m 10,0 h 6 v 4 h -6 z m 0,5 h 12 v 5 h -12 z m 20,0 h 17 v 5 h -17 z"
       id="path12"
       inkscape:connector-curvature="0" />
  </g>
</svg>
