<?xml version="1.0" encoding="UTF-8" standalone="no"?>
<svg
   xmlns:dc="http://purl.org/dc/elements/1.1/"
   xmlns:cc="http://creativecommons.org/ns#"
   xmlns:rdf="http://www.w3.org/1999/02/22-rdf-syntax-ns#"
   xmlns:svg="http://www.w3.org/2000/svg"
   xmlns="http://www.w3.org/2000/svg"
   xmlns:sodipodi="http://sodipodi.sourceforge.net/DTD/sodipodi-0.dtd"
   xmlns:inkscape="http://www.inkscape.org/namespaces/inkscape"
   width="64"
   height="64"
   version="1.1"
   id="svg26"
   sodipodi:docname="user-trash-full.svg"
   inkscape:version="0.92.4 (5da689c313, 2019-01-14)">
  <metadata
     id="metadata32">
    <rdf:RDF>
      <cc:Work
         rdf:about="">
        <dc:format>image/svg+xml</dc:format>
        <dc:type
           rdf:resource="http://purl.org/dc/dcmitype/StillImage" />
        <dc:title></dc:title>
      </cc:Work>
    </rdf:RDF>
  </metadata>
  <defs
     id="defs30" />
  <sodipodi:namedview
     pagecolor="#ffffff"
     bordercolor="#666666"
     borderopacity="1"
     objecttolerance="10"
     gridtolerance="10"
     guidetolerance="10"
     inkscape:pageopacity="0"
     inkscape:pageshadow="2"
     inkscape:window-width="799"
     inkscape:window-height="480"
     id="namedview28"
     showgrid="false"
     inkscape:zoom="3.6875"
     inkscape:cx="3.5254237"
     inkscape:cy="32"
     inkscape:window-x="0"
     inkscape:window-y="25"
     inkscape:window-maximized="0"
     inkscape:current-layer="svg26" />
  <g
     transform="translate(-384.571,-483.798)"
     id="g24">
    <rect
       width="43.081001"
       height="48.956001"
       x="395.03101"
       y="493.32001"
       ry="7.23"
       id="rect2"
       style="fill:#f9f9f9" />
    <path
       d="m 396.442,530.28 v 8.69 l 3.259,2.172 V 530.28 Z"
       id="path4"
       inkscape:connector-curvature="0"
       style="fill:#fac901" />
    <path
       d="m 400.332,523.429 h 11.478 v 17.738 h -11.478 z"
       id="path6"
       inkscape:connector-curvature="0"
       style="fill:#225095" />
    <path
       d="m 422.475,516.49 h 5.192 v 16.615 h -5.192 z"
       id="path8"
       inkscape:connector-curvature="0"
       style="fill:#fac901" />
    <path
       d="m 417.332,506.49 h 7.479 v 9.615 h -7.479 z"
       id="path10"
       inkscape:connector-curvature="0"
       style="fill:#dd0100" />
    <path
       d="m 409.202,516.644 h 12.738 v 5.308 h -12.738 z"
       id="path12"
       inkscape:connector-curvature="0"
       style="fill:#225095" />
    <path
       d="m 420.325,494.429 v 12 h 17 l -0.416,-7.637 -2.584,-4.363 z"
       id="path14"
       inkscape:connector-curvature="0"
       style="fill:#dd0100" />
    <path
       d="m 429.137,516.255 v 24.59 l 2.223,1.025 2.223,-1.025 1.113,-1.024 2.222,-2.049 v -21.517 z"
       id="path16"
       inkscape:connector-curvature="0"
       style="fill:#fac901" />
    <path
       d="m 396.325,500.429 h 12.369 v 12.738 h -12.369 z"
       id="path18"
       inkscape:connector-curvature="0"
       style="fill:#dd0100" />
    <path
       d="m 401.956,492.798 a 7.369,7.369 0 0 0 -7.385,7.385 v 35.23 a 7.369,7.369 0 0 0 7.385,7.385 h 29.23 a 7.369,7.369 0 0 0 7.385,-7.385 v -35.23 a 7.369,7.369 0 0 0 -7.384,-7.385 z m 0.615,2 h 2 v 2 h -2.4 a 3.583,3.583 0 0 0 -3.539,3 h -1.97 a 5.98,5.98 0 0 1 5.91,-5 z m 3,0 h 14 v 2 h -14 z m 15,0 h 10 c 3.324,0 6,2.676 6,6 v 5 h -3.117 a 3.579,3.579 0 0 0 1.117,-2.6 v -2.8 c 0,-1.995 -1.605,-3.6 -3.6,-3.6 h -10.4 z m -24,6 h 2 v 2.4 c 0,1.995 1.606,3.6 3.6,3.6 h 6.4 v 6 h -12 z m 13,6 h 7 v 9 h -7 z m 8,0 h 7 v 9 h -7 z m 8,0 h 11 v 4 h -11 z m 0,5 h 11 v 4 h -11 z m -29,2 h 3 v 16 h -3 z m 4,0 h 8 v 8 h -8 z m 9,3 h 12 v 5 h -12 z m 13,0 h 5 v 16 h -5 z m 7,0 h 7 v 18 c 0,3.324 -2.676,6 -6,6 h -1 z m -29,7 h 11 v 17 h -9 a 6.004,6.004 0 0 1 -2,-0.348 z m 12,0 h 9 v 9 h -9 z m -16,7 h 3 v 9.195 a 5.98,5.98 0 0 1 -3,-5.195 z m 16,3 h 15 v 7 h -15 z"
       id="path20"
       inkscape:connector-curvature="0" />
    <path
       d="m 401.571,505.798 h 30 l 2,-2 -7,-4 -4,3 -2,-4 -4.539,5 -3.46,-4 -1,1 -4,-1 -3,3 -2,-2 -2,3 z"
       id="path22"
       inkscape:connector-curvature="0"
       style="fill:#f9f9f9" />
  </g>
</svg>
