<svg xmlns="http://www.w3.org/2000/svg" viewBox="0 0 16 16">
  <defs id="defs3051">
    <style type="text/css" id="current-color-scheme">
      .ColorScheme-Text {
        color:#232629;
      }
      </style>
  </defs>
 <path style="fill:currentColor;fill-opacity:1;stroke:none" 
     d="M 6 2 C 4.892 2 4 2.892 4 4 L 4 7 L 4 9 L 4 14 L 8 12.40625 L 12 14 L 12 9 L 12 7 L 11 7 L 11 9 L 11 12.59375 L 8 11.40625 L 5 12.59375 L 5 10 L 5 9 L 5 7 L 5 4 C 5 3.446 5.446 3 6 3 L 7 3 L 7 2 L 6 2 z M 7 4 L 7 5 L 12 5 L 12 4 L 7 4 z "
     class="ColorScheme-Text"
     />
</svg>
