<svg xmlns="http://www.w3.org/2000/svg" viewBox="0 0 16 16">
  <defs id="defs3051">
    <style type="text/css" id="current-color-scheme">
      .ColorScheme-Text {
        color:#232629;
      }
      </style>
  </defs>
 <path style="fill:currentColor;fill-opacity:1;stroke:none" 
     d="M 8 2 A 4 4 0 0 0 4 6 L 5 6 A 3 3 0 0 1 8 3 A 3 3 0 0 1 11 6 L 11 7 L 6 7 L 6 8 L 6 9 L 2 9 L 2 10 L 2 14 L 3 14 L 7 14 L 14 14 L 14 13 L 14 7 L 12 7 L 12 6 A 4 4 0 0 0 8 2 z M 7 8 L 13 8 L 13 13 L 10 13 L 10 9 L 7 9 L 7 8 z M 3 10 L 6 10 L 6 13 L 3 13 L 3 10 z M 7 10 L 9 10 L 9 13 L 7 13 L 7 10 z "
     class="ColorScheme-Text"
     />
</svg>
