<svg xmlns="http://www.w3.org/2000/svg" viewBox="0 0 16 16">
  <defs id="defs3051">
    <style type="text/css" id="current-color-scheme">
      .ColorScheme-Text {
        color:#232629;
      }
      </style>
  </defs>
 <path style="fill:currentColor;fill-opacity:1;stroke:none" 
     d="M 4 2 L 4 5 L 3 5 L 2 5 L 2 14 L 3 14 L 10 14 L 11 14 L 11 12 L 12 12 L 13 12 L 13 5 L 10 2 L 9 2 L 5 2 L 4 2 z M 5 3 L 9 3 L 9 5 L 9 6 L 12 6 L 12 11 L 11 11 L 11 8 L 9 6 L 8 5 L 7 5 L 5 5 L 5 3 z M 10 3 L 12 5 L 10 5 L 10 3 z M 3 6 L 4 6 L 4 11 L 3 11 L 3 6 z M 5 6 L 7 6 L 7 8 L 7 9 L 10 9 L 10 11 L 5 11 L 5 6 z M 8 6 L 10 8 L 8 8 L 8 6 z M 3 12 L 4 12 L 5 12 L 10 12 L 10 13 L 3 13 L 3 12 z "
     class="ColorScheme-Text"
     />
</svg>
