<svg xmlns="http://www.w3.org/2000/svg" viewBox="0 0 16 16" id="svg5">
  <defs id="defs3051">
    <style type="text/css" id="current-color-scheme">
      .ColorScheme-Text {
        color:#232629;
      }
      </style>
  </defs>
    <path 
        style="fill:currentColor;fill-opacity:1;stroke:none" 
		d="M 9.5 2 A 4.5 4.5 0 0 0 5 6.5 A 4.5 4.5 0 0 0 5.4824219 8.5175781 L 2 12 L 2 13 L 5.8613281 9.1386719 A 4.5 4.5 0 0 0 6.8613281 10.138672 L 3 14 L 4 14 L 7.4804688 10.519531 A 4.5 4.5 0 0 0 9.5 11 A 4.5 4.5 0 0 0 14 6.5 A 4.5 4.5 0 0 0 9.5 2 z M 9.5 3 A 3.5 3.5 0 0 1 13 6.5 A 3.5 3.5 0 0 1 9.5 10 A 3.5 3.5 0 0 1 6 6.5 A 3.5 3.5 0 0 1 9.5 3 z "
        class="ColorScheme-Text"/>
</svg>
