<svg xmlns="http://www.w3.org/2000/svg" viewBox="0 0 16 16">
  <defs id="defs3051">
    <style type="text/css" id="current-color-scheme">
      .ColorScheme-Text {
        color:#232629;
      }
      </style>
  </defs>
 <path style="fill:currentColor;fill-opacity:1;stroke:none" 
     d="M 3 2 C 2.446 2 2 2.446 2 3 L 2 6 L 1 6 L 1 10 L 1 11 L 1 11.9375 C 1 13.079592 1.9204077 14 3.0625 14 L 10 14 L 10 13 L 3 13 C 2.723 13 2.4737187 12.887781 2.2929688 12.707031 C 2.1122184 12.526281 2 12.277 2 12 L 2 11 L 2 10 L 2 7 L 5 7 L 7 5 L 14 5 L 14 9 L 15 9 L 15 4 L 14 4 C 14 3.446 13.554 3 13 3 L 8 3 L 7 2 L 6 2 L 3 2 z M 12.556641 9 A 2.5 2.5 0 0 0 10.626953 9.84375 A 2.5 2.5 0 0 0 10.505859 13 L 11.189453 12.226562 A 1.5 1.5 0 0 1 11.376953 10.505859 A 1.5 1.5 0 0 1 13.060547 10.111328 L 13.748047 9.3339844 A 2.5 2.5 0 0 0 12.556641 9 z M 14.494141 10 L 13.810547 10.773438 A 1.5 1.5 0 0 1 13.623047 12.494141 A 1.5 1.5 0 0 1 11.939453 12.888672 L 11.251953 13.666016 A 2.5 2.5 0 0 0 14.373047 13.15625 A 2.5 2.5 0 0 0 14.494141 10 z "
     class="ColorScheme-Text"
     />
</svg>
