<svg xmlns="http://www.w3.org/2000/svg" viewBox="0 0 16 16" id="svg6">
  <defs id="defs3051">
    <style id="current-color-scheme">
      .ColorScheme-Text {
        color:#232629;
      }
	  </style>
	</defs>
  <path style="fill:currentColor;fill-opacity:1;stroke:none" 
		d="M 3 2 C 2.446 2 2 2.446 2 3 L 2 6 L 1 6 L 1 10 L 1 11 L 1 11.9375 C 1 13.079592 1.9204077 14 3.0625 14 L 10 14 L 10 13 L 3 13 C 2.723 13 2.4737187 12.887781 2.2929688 12.707031 C 2.1122184 12.526281 2 12.277 2 12 L 2 11 L 2 10 L 2 7 L 5 7 L 7 5 L 14 5 L 14 9 L 15 9 L 15 4 L 14 4 C 14 3.446 13.554 3 13 3 L 8 3 L 7 2 L 6 2 L 3 2 z M 12 9 L 12 11 L 10 11 L 10 12 L 12 12 L 12 14 L 13 14 L 13 12 L 15 12 L 15 11 L 13 11 L 13 9 L 12 9 z "
  	    class="ColorScheme-Text"
        />
</svg>
