<svg xmlns="http://www.w3.org/2000/svg" viewBox="0 0 16 16" id="svg6">
  <defs id="defs3051">
    <style id="current-color-scheme">
      .ColorScheme-Text {
        color:#232629;
      }
	  </style>
	</defs>
  <path style="fill:currentColor;fill-opacity:1;stroke:none" 
		d="M 3 2 C 2.446 2 2 2.446 2 3 L 2 5 L 1 5 L 1 6 L 1 7 L 2 7 L 2 6 L 4 6 L 6 4 L 7 4 L 7 3 L 6 3 L 5 2 L 4.7167969 2 L 3 2 z M 8 3 L 8 4 L 9 4 L 9 3 L 8 3 z M 10 3 L 10 4 L 11 4 C 11 3.446 10.554 3 10 3 z M 7 5 C 6.446 5 6 5.446 6 6 L 6 8 L 5 8 L 5 9 L 5 13 C 5 13.554 5.446 14 6 14 L 14 14 C 14.554 14 15 13.554 15 13 L 15 7 C 15 6.446 14.554 6 14 6 L 11 6 L 11 5 L 10 5 L 10 6 L 9 5 L 8.7167969 5 L 7 5 z M 10 7 L 14 7 L 14 8 L 14 13 L 6 13 L 6 12 L 6 9 L 8 9 L 10 7 z M 1 8 L 1 9 L 2 9 L 2 8 L 1 8 z M 1 10 C 1 10.554 1.446 11 2 11 L 2 10 L 1 10 z M 3 10 L 3 11 L 4 11 L 4 10 L 3 10 z "
  	    class="ColorScheme-Text"
        />
</svg>
