<svg xmlns="http://www.w3.org/2000/svg" viewBox="0 0 24 24" id="svg6">
  <defs id="defs3051">
    <style type="text/css" id="current-color-scheme">
      .ColorScheme-Text {
        color:#232629;
      }
      </style>
  </defs>
 <path 
     style="fill:currentColor;fill-opacity:1;stroke:none" 
     d="M 11.5,4 C 8.4624339,4 6,6.4624339 6,9.5 H 7 C 7,7.0147186 9.0147186,5 11.5,5 13.985281,5 16,7.0147186 16,9.5 V 11 h -5 -1 v 1 2 H 5 4 v 6 h 1 10 5 V 19 11 H 17 V 9.5 L 16.974609,9 C 16.716171,6.1689477 14.342824,4.0013525 11.5,4 Z M 11,12 h 8 v 7 h -4 v -5 h -4 z m -6,3 h 5 v 4 H 5 Z m 6,0 h 3 v 4 h -3 z"
	 class="ColorScheme-Text"
     />
</svg>
