<svg xmlns="http://www.w3.org/2000/svg" viewBox="0 0 24 24" id="svg6">
  <defs id="defs3051">
    <style type="text/css" id="current-color-scheme">
      .ColorScheme-Text {
        color:#232629;
      }
      </style>
  </defs>
 <path 
     style="fill:currentColor;fill-opacity:1;stroke:none" 
     d="m 12,4 c -4.4319982,0 -8,3.5680018 -8,8 0,4.431998 3.5680018,8 8,8 4.431998,0 8,-3.568002 8,-8 0,-4.4319982 -3.568002,-8 -8,-8 z m 0,1 c 3.877999,0 7,3.1220013 7,7 0,3.877999 -3.122001,7 -7,7 C 8.1220013,19 5,15.877999 5,12 5,8.1220013 8.1220013,5 12,5 Z m -1,1 v 7 h 1 3 V 12 11 H 12 V 6 Z"
	 class="ColorScheme-Text"
     />
</svg>
