<svg xmlns="http://www.w3.org/2000/svg" viewBox="0 0 24 24" id="svg6">
  <defs id="defs3051">
    <style type="text/css" id="current-color-scheme">
      .ColorScheme-Text {
        color:#232629;
      }
      </style>
  </defs>
 <path 
     style="fill:currentColor;fill-opacity:1;stroke:none" 
     d="M 6 5 C 4.892 5 4 5.892 4 7 L 4 9 L 4 10 L 3 10 L 3 11 L 3 15 L 3 16 L 4 16 L 4 15 L 4 11 L 8 11 L 11 8 L 20 8 L 20 12 L 20 13 L 20 15 L 20 16 L 21 16 L 21 15 L 21 13 L 21 12 L 21 7 L 20 7 L 19.996094 7 C 19.984064 6.444854 19.536637 6 18.978516 6 L 13 6 L 12 6 L 11 5 L 9 5 L 6 5 z M 10 17 L 10 18 L 3 18 L 3 19 L 10 19 L 10 20 L 14 20 L 14 19 L 21 19 L 21 18 L 14 18 L 14 17 L 10 17 z M 11 18 L 13 18 L 13 19 L 11 19 L 11 18 z "
	 class="ColorScheme-Text"
     />
</svg>

