<svg xmlns="http://www.w3.org/2000/svg" viewBox="0 0 24 24" id="svg6">
  <defs id="defs3051">
    <style type="text/css" id="current-color-scheme">
      .ColorScheme-Text {
        color:#232629;
      }
      </style>
  </defs>
 <path 
     style="fill:currentColor;fill-opacity:1;stroke:none" 
     d="M 6,5 C 4.892,5 4,5.892 4,7 v 2 1 H 3 v 1 4 3 c 0,1.108 0.892,2 2,2 h 14 c 1.108,0 2,-0.892 2,-2 V 15 12 7 H 20 19.9961 C 19.98408,6.444854 19.536637,6 18.978516,6 H 13 12 L 11,5 H 9 Z m 5,3 h 9 v 4 3 3 c 0,0.554 -0.446,1 -1,1 H 5 C 4.446,19 4,18.554 4,18 v -3 -4 h 4 z"
	 class="ColorScheme-Text"
     />
</svg>
