<svg xmlns="http://www.w3.org/2000/svg" viewBox="0 0 24 24" id="svg6">
  <defs id="defs3051">
    <style type="text/css" id="current-color-scheme">
      .ColorScheme-Text {
        color:#232629;
      }
      </style>
  </defs>
 <path 
     style="fill:currentColor;fill-opacity:1;stroke:none" 
     d="m 14,4 a 6,6 0 0 0 -6,6 6,6 0 0 0 0.5351562,2.464844 L 4,17 v 1 l 4.8828125,-4.882812 a 6,6 0 0 0 1.9980465,2.001953 L 6,20 h 1 l 4.537109,-4.537109 A 6,6 0 0 0 14,16 6,6 0 0 0 20,10 6,6 0 0 0 14,4 Z m 0,1 a 5,5 0 0 1 5,5 5,5 0 0 1 -5,5 5,5 0 0 1 -5,-5 5,5 0 0 1 5,-5 z"
	 class="ColorScheme-Text"
     />
</svg>

