<svg xmlns="http://www.w3.org/2000/svg" viewBox="0 0 24 24" id="svg6">
  <defs id="defs3051">
    <style type="text/css" id="current-color-scheme">
      .ColorScheme-Text {
        color:#232629;
      }
      </style>
  </defs>
 <path 
     style="fill:currentColor;fill-opacity:1;stroke:none" 
     d="M 6 5 C 4.892 5 4 5.892 4 7 L 4 9 L 4 10 L 3 10 L 3 11 L 3 15 L 3 18 C 3 19.108 3.892 20 5 20 L 15 20 L 15 19 L 5 19 C 4.446 19 4 18.554 4 18 L 4 15 L 4 11 L 8 11 L 11 8 L 20 8 L 20 12 L 20 14 L 21 14 L 21 12 L 21 7 L 20 7 L 19.996094 7 C 19.984064 6.444854 19.536637 6 18.978516 6 L 13 6 L 12 6 L 11 5 L 9 5 L 6 5 z M 18.556641 15 A 2.5 2.5 0 0 0 16.626953 15.84375 A 2.5 2.5 0 0 0 16.505859 19 L 17.189453 18.226562 A 1.5 1.5 0 0 1 17.376953 16.505859 A 1.5 1.5 0 0 1 19.060547 16.111328 L 19.748047 15.333984 A 2.5 2.5 0 0 0 18.556641 15 z M 20.494141 16 L 19.810547 16.773438 A 1.5 1.5 0 0 1 19.623047 18.494141 A 1.5 1.5 0 0 1 17.939453 18.888672 L 17.251953 19.666016 A 2.5 2.5 0 0 0 20.373047 19.15625 A 2.5 2.5 0 0 0 20.494141 16 z "
	 class="ColorScheme-Text"
     />
</svg>

