<svg xmlns="http://www.w3.org/2000/svg" viewBox="0 0 24 24" id="svg6">
  <defs id="defs3051">
    <style type="text/css" id="current-color-scheme">
      .ColorScheme-Text {
        color:#232629;
      }
      </style>
  </defs>
 <path 
     style="fill:currentColor;fill-opacity:1;stroke:none" 
     d="m 10,4 -7,7 h 1 l 6,-6 h 1 V 6 L 6,11 V 16 17.927734 18 h 0.00781 c 0.038784,1.113808 0.9408138,2 2.0644531,2 h 7.8554689 c 1.12364,0 2.025669,-0.886192 2.064454,-2 H 18 V 17.927734 16 11 L 13,6 V 5 h 1 l 6,6 h 1 L 14,4 H 13 L 12,5 11,4 Z m 2,2 5,5 v 7 c 0,0.277 -0.112219,0.526281 -0.292969,0.707031 C 16.526281,18.887781 16.277,19 16,19 h -2 v -5 h -4 v 5 H 8 C 7.723,19 7.4737187,18.887781 7.2929688,18.707031 7.1122188,18.526281 7,18.277 7,18 v -2 -5 z"
	 class="ColorScheme-Text"
     />
</svg>

