<svg xmlns="http://www.w3.org/2000/svg" viewBox="0 0 24 24" id="svg6">
  <defs id="defs3051">
    <style type="text/css" id="current-color-scheme">
      .ColorScheme-Text {
        color:#232629;
      }
      </style>
  </defs>
 <path 
     style="fill:currentColor;fill-opacity:1;stroke:none" 
     d="M 6 5 C 4.892 5 4 5.892 4 7 L 4 9 L 4 10 L 3 10 L 3 11 L 3 15 L 3 18 C 3 19.108 3.892 20 5 20 L 14 20 L 14 19 L 5 19 C 4.446 19 4 18.554 4 18 L 4 15 L 4 11 L 8 11 L 11 8 L 20 8 L 20 12 L 21 12 L 21 7 L 20 7 L 19.996094 7 C 19.984064 6.444854 19.536637 6 18.978516 6 L 13 6 L 12 6 L 11 5 L 9 5 L 6 5 z M 17.5 12.792969 L 16.792969 13.5 L 14 16.292969 L 14.707031 17 L 17 14.707031 L 17 20 L 18 20 L 18 19 L 18 18 L 18 14.707031 L 20.292969 17 L 21 16.292969 L 18.207031 13.5 L 17.5 12.792969 z "
	 class="ColorScheme-Text"
     />
</svg>

