<svg xmlns="http://www.w3.org/2000/svg" viewBox="0 0 24 24" id="svg6">
  <defs id="defs3051">
    <style type="text/css" id="current-color-scheme">
      .ColorScheme-Text {
        color:#232629;
      }
      </style>
  </defs>
 <path 
     style="fill:currentColor;fill-opacity:1;stroke:none" 
     d="M 9,4 V 5 6.8105469 A 6,6 0 0 0 6.8125,9 H 5 4 v 1 5 H 5 6.8105469 A 6,6 0 0 0 9,17.1875 V 19 20 h 6 V 19 17.189453 A 6,6 0 0 0 17.1875,15 H 19 20 V 10 9 H 19 17.189453 A 6,6 0 0 0 15,6.8125 V 4 Z m 1,1 h 4 V 6.3496094 A 6,6 0 0 0 12,6 6,6 0 0 0 10,6.3515625 Z m 2,2 a 5,5 0 0 1 5,5 5,5 0 0 1 -5,5 5,5 0 0 1 -5,-5 5,5 0 0 1 5,-5 z M 5,10 H 6.3496094 A 6,6 0 0 0 6,12 6,6 0 0 0 6.3515625,14 H 5 Z m 12.648438,0 H 19 v 4 H 17.650391 A 6,6 0 0 0 18,12 6,6 0 0 0 17.648438,10 Z M 14,17.648438 V 19 H 10 V 17.650391 A 6,6 0 0 0 12,18 6,6 0 0 0 14,17.648438 Z"
	 class="ColorScheme-Text"
     />
</svg>

