<?xml version="1.0" encoding="UTF-8" standalone="no"?>
<!-- Generator: Adobe Illustrator 19.0.0, SVG Export Plug-In . SVG Version: 6.00 Build 0)  -->

<svg
   xmlns:osb="http://www.openswatchbook.org/uri/2009/osb"
   xmlns:dc="http://purl.org/dc/elements/1.1/"
   xmlns:cc="http://creativecommons.org/ns#"
   xmlns:rdf="http://www.w3.org/1999/02/22-rdf-syntax-ns#"
   xmlns:svg="http://www.w3.org/2000/svg"
   xmlns="http://www.w3.org/2000/svg"
   xmlns:xlink="http://www.w3.org/1999/xlink"
   xmlns:sodipodi="http://sodipodi.sourceforge.net/DTD/sodipodi-0.dtd"
   xmlns:inkscape="http://www.inkscape.org/namespaces/inkscape"
   version="1.1"
   id="Capa_1"
   x="0px"
   y="0px"
   viewBox="0 0 512 512"
   style="enable-background:new 0 0 512 512;"
   xml:space="preserve"
   sodipodi:docname="11-toucan.svg"
   inkscape:version="0.92.4 5da689c313, 2019-01-14"><metadata
   id="metadata5140"><rdf:RDF><cc:Work
       rdf:about=""><dc:format>image/svg+xml</dc:format><dc:type
         rdf:resource="http://purl.org/dc/dcmitype/StillImage" /><dc:title></dc:title></cc:Work></rdf:RDF></metadata><defs
   id="defs5138"><linearGradient
     id="linearGradient5144"
     osb:paint="solid"><stop
       style="stop-color:#3796ff;stop-opacity:1;"
       offset="0"
       id="stop5142" /></linearGradient><linearGradient
     inkscape:collect="always"
     xlink:href="#linearGradient5144"
     id="linearGradient5146"
     x1="24.85"
     y1="255.9995"
     x2="487.148"
     y2="255.9995"
     gradientUnits="userSpaceOnUse" /><linearGradient
     inkscape:collect="always"
     xlink:href="#linearGradient5144"
     id="linearGradient5157"
     gradientUnits="userSpaceOnUse"
     x1="24.85"
     y1="255.9995"
     x2="487.148"
     y2="255.9995" /></defs><sodipodi:namedview
   pagecolor="#ffffff"
   bordercolor="#666666"
   borderopacity="1"
   objecttolerance="10"
   gridtolerance="10"
   guidetolerance="10"
   inkscape:pageopacity="0"
   inkscape:pageshadow="2"
   inkscape:window-width="1880"
   inkscape:window-height="995"
   id="namedview5136"
   showgrid="false"
   inkscape:zoom="1.59375"
   inkscape:cx="256"
   inkscape:cy="256"
   inkscape:window-x="0"
   inkscape:window-y="45"
   inkscape:window-maximized="1"
   inkscape:current-layer="g5103"
   inkscape:snap-nodes="false" />
<g
   id="g5103">
	
	
	
	
	<g
   id="g5153"
   transform="matrix(0.93567434,0,0,0.93567434,15.997702,1.594288)"><path
     id="path5093"
     d="m 355.401,321.482 c 36.108,0 65.483,-29.376 65.483,-65.483 0,-4.142 -3.358,-7.5 -7.5,-7.5 -4.142,0 -7.5,3.358 -7.5,7.5 0,27.836 -22.647,50.483 -50.483,50.483 -27.836,0 -50.483,-22.647 -50.483,-50.483 0,-4.142 -3.358,-7.5 -7.5,-7.5 -4.142,0 -7.5,3.358 -7.5,7.5 0,36.107 29.375,65.483 65.483,65.483 z"
     style="fill:url(#linearGradient5144)"
     inkscape:connector-curvature="0" /><path
     id="path5095"
     d="m 198.018,298.199 c -4.142,0 -7.5,3.358 -7.5,7.5 0,50.674 -41.227,91.9 -91.9,91.9 -4.142,0 -7.5,3.358 -7.5,7.5 0,4.142 3.358,7.5 7.5,7.5 58.945,0 106.9,-47.955 106.9,-106.9 0,-4.142 -3.358,-7.5 -7.5,-7.5 z"
     style="fill:url(#linearGradient5144)"
     inkscape:connector-curvature="0" /><path
     id="path5097"
     d="m 429.95,447.3 h -12.765 c 13.982,-13.419 25.75,-29.165 34.535,-46.362 12.517,-24.502 18.863,-50.971 18.863,-78.67 l 0.003,-149.102 C 470.586,77.682 392.904,0 297.42,0 H 264.285 C 253.633,0 244.581,6.959 241.421,16.567 H 140.052 c -0.007,0 -0.013,-0.001 -0.019,-0.001 -0.007,0 -0.013,0.001 -0.019,0.001 h -24.829 c -49.811,0 -90.335,40.524 -90.335,90.334 v 16.565 c 0,13.271 10.797,24.068 24.068,24.068 4.142,0 7.5,-3.358 7.5,-7.5 v 0 0 c 0,-0.263 0.012,-0.523 0.02,-0.784 h 183.78 v 76.276 C 139.063,219.478 57.984,302.99 57.984,405.096 v 66.27 c 0,13.27 10.796,24.067 24.067,24.067 h 99.398 c 0.007,0 0.013,-10e-4 0.019,-10e-4 h 7.391 c 1.07,2.82 1.656,5.876 1.656,9.067 0,4.142 3.358,7.5 7.5,7.5 h 99.399 c 4.142,0 7.5,-3.358 7.5,-7.5 0,-3.136 -0.264,-6.211 -0.752,-9.212 2.344,-0.09 4.685,-0.221 7.015,-0.404 0.868,0.351 1.814,0.548 2.807,0.548 h 57.109 c 1.07,2.82 1.656,5.876 1.656,9.067 0,4.142 3.358,7.5 7.5,7.5 h 99.399 c 4.142,0 7.5,-3.358 7.5,-7.5 C 487.15,472.96 461.49,447.3 429.95,447.3 Z M 147.533,31.567 h 92.685 V 99.402 H 123.711 c 14.541,-12.021 23.822,-30.189 23.822,-50.484 z m 107.685,0.002 h 25.634 c 59.807,0 108.464,48.656 108.464,108.463 V 156.6 c 0,23.268 -18.93,42.198 -42.198,42.198 h -66.267 c -14.134,0 -25.632,-11.499 -25.632,-25.632 0,-0.003 -0.001,-0.006 -0.001,-0.01 z M 39.85,106.901 c 0,-41.539 33.795,-75.334 75.335,-75.334 h 17.348 v 17.351 c 0,27.836 -22.647,50.483 -50.483,50.483 -0.014,0 -0.026,0.002 -0.04,0.002 -18.932,0.019 -34.872,13.053 -39.341,30.618 -1.733,-1.653 -2.819,-3.977 -2.819,-6.555 z m 22.026,17.35 c 4.696,-5.989 11.991,-9.849 20.174,-9.849 h 158.167 v 9.849 z M 271.063,497 c -2.177,-11.502 -9.266,-21.717 -19.592,-27.69 -3.585,-2.075 -8.174,-0.85 -10.248,2.736 -2.074,3.585 -0.85,8.173 2.736,10.247 5.676,3.284 9.796,8.598 11.677,14.707 h -17.704 c -2.177,-11.502 -9.266,-21.717 -19.591,-27.69 -3.584,-2.075 -8.174,-0.849 -10.247,2.736 -2.074,3.585 -0.85,8.173 2.736,10.247 5.675,3.284 9.795,8.598 11.676,14.707 h -17.683 c -0.845,-4.512 -2.438,-8.761 -4.645,-12.618 -0.075,-0.14 -0.154,-0.276 -0.238,-0.411 -7.066,-12.02 -20.134,-20.104 -35.056,-20.104 -4.142,0 -7.5,3.358 -7.5,7.5 0,4.142 3.358,7.5 7.5,7.5 3.099,0 6.071,0.553 8.823,1.565 h -33.338 c 3.215,-10.486 12.988,-18.132 24.513,-18.132 h 82.833 c 20.71,0 37.983,14.997 41.532,34.7 z m -23.347,-49.7 h -82.833 c -19.842,0 -36.397,14.3 -39.927,33.133 H 82.051 c -4.999,0 -9.067,-4.067 -9.067,-9.067 v -9.068 h 9.067 c 95.484,0 173.167,-77.682 173.167,-173.166 0,-4.142 -3.358,-7.5 -7.5,-7.5 -4.142,0 -7.5,3.358 -7.5,7.5 0,87.213 -70.953,158.166 -158.167,158.166 h -9.067 v -42.202 c 0,-93.834 74.352,-170.618 167.234,-174.56 v 28.596 c 0,4.142 3.358,7.5 7.5,7.5 4.142,0 7.5,-3.358 7.5,-7.5 v -54.469 c 6.998,5.705 15.921,9.134 25.633,9.134 h 66.267 c 31.539,0 57.198,-25.659 57.198,-57.198 V 140.032 C 404.316,71.954 348.93,16.569 280.852,16.569 H 259.195 C 260.647,15.58 262.399,15 264.285,15 h 33.135 c 87.213,0 158.166,70.953 158.166,158.166 l -0.003,149.102 c 0,49.394 -22.322,94.815 -61.314,125.033 h -47.152 c -19.732,0 -36.216,14.14 -39.871,32.818 -2.553,0.156 -5.114,0.252 -7.672,0.286 C 290.463,460.874 270.65,447.3 247.716,447.3 Z M 453.298,497 c -2.177,-11.502 -9.266,-21.717 -19.592,-27.69 -3.585,-2.075 -8.174,-0.85 -10.248,2.736 -2.074,3.585 -0.85,8.173 2.736,10.247 5.676,3.284 9.796,8.598 11.677,14.707 h -17.704 c -2.177,-11.502 -9.266,-21.717 -19.591,-27.69 -3.585,-2.075 -8.173,-0.849 -10.248,2.736 -2.074,3.585 -0.85,8.173 2.736,10.247 5.675,3.284 9.795,8.598 11.676,14.707 h -17.683 c -0.844,-4.506 -2.434,-8.751 -4.637,-12.604 -0.079,-0.149 -0.164,-0.294 -0.253,-0.436 -7.067,-12.013 -20.131,-20.091 -35.048,-20.091 -4.142,0 -7.5,3.358 -7.5,7.5 0,4.142 3.358,7.5 7.5,7.5 3.099,0 6.071,0.553 8.823,1.565 h -33.337 c 3.215,-10.486 12.988,-18.132 24.513,-18.132 h 49.6 c 0.037,0 0.074,0.006 0.112,0.006 0.027,0 0.054,-0.006 0.081,-0.006 h 33.04 c 20.71,0 37.983,14.997 41.532,34.7 h -18.185 z"
     style="fill:url(#linearGradient5144);stroke:url(#linearGradient5157)"
     inkscape:connector-curvature="0" /><path
     id="path5099"
     d="m 297.416,97.834 c 13.271,0 24.067,-10.796 24.067,-24.067 0,-13.271 -10.796,-24.067 -24.067,-24.067 -13.271,0 -24.067,10.796 -24.067,24.067 0,13.271 10.796,24.067 24.067,24.067 z m 0,-33.135 c 5,0 9.067,4.067 9.067,9.067 0,5 -4.067,9.067 -9.067,9.067 -5,0 -9.067,-4.067 -9.067,-9.067 0,-5 4.067,-9.067 9.067,-9.067 z"
     style="fill:url(#linearGradient5144)"
     inkscape:connector-curvature="0" /><path
     id="path5101"
     d="m 273.351,140.035 c 0,4.142 3.358,7.5 7.5,7.5 40.675,0 73.766,-33.091 73.766,-73.766 0,-4.142 -3.358,-7.5 -7.5,-7.5 -4.142,0 -7.5,3.358 -7.5,7.5 0,32.404 -26.362,58.766 -58.766,58.766 -4.142,0 -7.5,3.358 -7.5,7.5 z"
     style="fill:url(#linearGradient5144)"
     inkscape:connector-curvature="0" /></g>
</g>
<g
   id="g5105">
</g>
<g
   id="g5107">
</g>
<g
   id="g5109">
</g>
<g
   id="g5111">
</g>
<g
   id="g5113">
</g>
<g
   id="g5115">
</g>
<g
   id="g5117">
</g>
<g
   id="g5119">
</g>
<g
   id="g5121">
</g>
<g
   id="g5123">
</g>
<g
   id="g5125">
</g>
<g
   id="g5127">
</g>
<g
   id="g5129">
</g>
<g
   id="g5131">
</g>
<g
   id="g5133">
</g>
</svg>