<svg xmlns="http://www.w3.org/2000/svg" viewBox="0 0 32 32">
  <defs id="defs3051">
    <style type="text/css" id="current-color-scheme">
      .ColorScheme-Text {
        color:#232629;
      }
      </style>
  </defs>
 <path style="fill:currentColor;fill-opacity:1;stroke:none" 
     d="M 12 4 C 9.784 4 8 5.784 8 8 L 8 13 L 8 14 L 8 28 L 16 24 L 24 28 L 24 16 L 23 16 L 23 26.556641 L 16 23 L 9 26.556641 L 9 14 L 9 13 L 9 8 C 9 6.338 10.338 5 12 5 L 13 5 L 13 4 L 12 4 z M 18 4 L 18 9 L 13.5 9 L 13 9 L 13 9.5 L 13 10 L 13.5 10 L 18 10 L 18 14.5 L 18 15 L 19 15 L 19 14.5 L 19 10 L 23.5 10 L 24 10 L 24 9.5 L 24 9 L 23.5 9 L 19 9 L 19 4.5 L 19 4 L 18 4 z "
     class="ColorScheme-Text"
     />
</svg>
