<svg xmlns="http://www.w3.org/2000/svg" viewBox="0 0 32 32">
  <defs id="defs3051">
    <style type="text/css" id="current-color-scheme">
      .ColorScheme-Text {
        color:#232629;
      }
      </style>
  </defs>
 <path style="fill:currentColor;fill-opacity:1;stroke:none" 
     d="M 6 6 C 4.892 6 4 6.892 4 8 L 4 11 L 4 14 L 3 14 L 3 22 L 4 22 L 4 20 L 4 15 L 10 15 L 14 11 L 28 11 L 28 21 L 28 22 L 29 22 L 29 20 L 29 10 L 28 10 L 28 9 C 28 8.446 27.554 8 27 8 L 17 8 L 15 6 L 9 6 L 6 6 z M 13 24 L 13 26 L 3 26 L 3 27 L 13 27 L 13 29 L 19 29 L 19 27 L 29 27 L 29 26 L 19 26 L 19 24 L 13 24 z M 14 25 L 18 25 L 18 28 L 14 28 L 14 25 z "
     class="ColorScheme-Text"
     />
</svg>
