<svg xmlns="http://www.w3.org/2000/svg" viewBox="0 0 32 32">
  <defs id="defs3051">
    <style type="text/css" id="current-color-scheme">
      .ColorScheme-Text {
        color:#232629;
      }
      </style>
  </defs>
 <path style="fill:currentColor;fill-opacity:1;stroke:none" 
     d="M 6 4 L 6 5 L 6 28 L 7 28 L 13 28 L 13 27 L 7 27 L 7 5 L 18 5 L 18 12 L 19 12 L 25 12 L 25 15 L 26 15 L 26 11 L 19 4 L 18 4 L 7 4 L 6 4 z M 19 5 L 25 11 L 19 11 L 19 5 z M 20 16 A 4 4 0 0 0 16 20 L 17 20 A 3 3 0 0 1 20 17 A 3 3 0 0 1 23 20 L 23 21 L 18 21 L 18 22 L 18 23 L 14 23 L 14 24 L 14 28 L 15 28 L 19 28 L 26 28 L 26 27 L 26 21 L 24 21 L 24 20 A 4 4 0 0 0 20 16 z M 19 22 L 25 22 L 25 27 L 22 27 L 22 23 L 19 23 L 19 22 z M 15 24 L 18 24 L 18 27 L 15 27 L 15 24 z M 19 24 L 21 24 L 21 27 L 19 27 L 19 24 z "
     class="ColorScheme-Text"
     />
</svg>
