<svg xmlns="http://www.w3.org/2000/svg" viewBox="0 0 32 32">
  <defs id="defs3051">
    <style type="text/css" id="current-color-scheme">
      .ColorScheme-Text {
        color:#232629;
      }
      </style>
  </defs>
 <path style="fill:currentColor;fill-opacity:1;stroke:none" 
     d="M 6,6 C 4.892,6 4,6.892 4,8 v 3 3 H 3 v 8 3 c 0,1.662 1.338,3 3,3 h 20 c 1.662,0 3,-1.338 3,-3 V 20 10 H 28 V 9 C 28,8.446 27.554,8 27,8 H 17 L 15,6 H 9 Z m 8,5 h 14 v 10 4 c 0,1.108 -0.892,2 -2,2 H 6 C 4.892,27 4,26.108 4,25 v -5 -5 h 6 z"
     class="ColorScheme-Text"
     />
</svg>
