<svg xmlns="http://www.w3.org/2000/svg" viewBox="0 0 32 32">
  <defs id="defs3051">
    <style type="text/css" id="current-color-scheme">
      .ColorScheme-Text {
        color:#232629;
      }
      </style>
  </defs>
 <path style="fill:currentColor;fill-opacity:1;stroke:none" 
     d="M 6 4 L 6 5 L 6 28 L 7 28 L 15 28 L 15 27 L 7 27 L 7 5 L 18 5 L 18 12 L 19 12 L 25 12 L 25 17 L 26 17 L 26 11 L 19 4 L 18 4 L 7 4 L 6 4 z M 19 5 L 25 11 L 19 11 L 19 5 z M 20 17 L 20 22 L 15 22 L 15 23 L 20 23 L 20 28 L 21 28 L 21 23 L 26 23 L 26 22 L 21 22 L 21 17 L 20 17 z "
     class="ColorScheme-Text"
     />
</svg>
