<svg xmlns="http://www.w3.org/2000/svg" viewBox="0 0 32 32">
  <defs id="defs3051">
    <style type="text/css" id="current-color-scheme">
      .ColorScheme-Text {
        color:#232629;
      }
      </style>
  </defs>
 <path style="fill:currentColor;fill-opacity:1;stroke:none" 
     d="M 6 4 L 6 5 L 6 28 L 7 28 L 13 28 L 13 27 L 7 27 L 7 5 L 18 5 L 18 12 L 19 12 L 25 12 L 25 15 L 26 15 L 26 11 L 19 4 L 18 4 L 7 4 L 6 4 z M 19 5 L 25 11 L 19 11 L 19 5 z M 20 16 C 16.686291 16 14 18.686287 14 22 C 14 25.313713 16.686291 28 20 28 C 23.313708 28 26 25.313713 26 22 C 26 18.686287 23.313708 16 20 16 z M 20 17 C 22.761424 17 25 19.238576 25 22 C 25 24.761424 22.761424 27 20 27 C 17.238576 27 15 24.761424 15 22 C 15 19.238576 17.238576 17 20 17 z M 19 18 L 19 22 L 19 23 L 20 23 L 22 23 L 22 22 L 22 21 L 20 21 L 20 18 L 19 18 z "
     class="ColorScheme-Text"
     />
</svg>
