<svg xmlns="http://www.w3.org/2000/svg" viewBox="0 0 32 32">
  <defs
     id="defs3051">
    <style
       type="text/css"
       id="current-color-scheme">
      .ColorScheme-Text {
        color:#232629;
      }
      </style>
  </defs>
  <path
     style="fill:currentColor;fill-opacity:1;stroke:none" 
     d="M 9,4 C 6.784,4 5,5.784 5,8 v 16 c 0,2.216 1.784,4 4,4 h 14 c 2.216,0 4,-1.784 4,-4 V 8 C 27,5.784 25.216,4 23,4 Z m 0,1 h 14 c 1.662,0 3,1.338 3,3 v 16 c 0,1.662 -1.338,3 -3,3 H 9 C 7.338,27 6,25.662 6,24 V 8 C 6,6.338 7.338,5 9,5 Z m 1.5,2 C 9.115,7 8,8.115 8,9.5 8,10.885 9.115,12 10.5,12 h 11 C 22.885,12 24,10.885 24,9.5 24,8.115 22.885,7 21.5,7 Z"
     class="ColorScheme-Text"
     />
</svg>
