<svg xmlns="http://www.w3.org/2000/svg" viewBox="0 0 32 32">
  <defs id="defs3051">
    <style type="text/css" id="current-color-scheme">
      .ColorScheme-Text {
        color:#232629;
      }
      </style>
  </defs>
 <path style="fill:currentColor;fill-opacity:1;stroke:none" 
     d="M 6 6 C 4.892 6 4 6.892 4 8 L 4 11 L 4 14 L 3 14 L 3 22 L 3 25 C 3 26.662 4.338 28 6 28 L 16 28 L 16 27 L 6 27 C 4.892 27 4 26.108 4 25 L 4 20 L 4 15 L 10 15 L 14 11 L 28 11 L 28 15 L 29 15 L 29 10 L 28 10 L 28 9 C 28 8.446 27.554 8 27 8 L 17 8 L 15 6 L 9 6 L 6 6 z M 23.03125 16.003906 A 6 6 0 0 0 18.308594 18.257812 A 6 6 0 0 0 18.53125 26 L 19.164062 25.205078 A 5 5 0 0 1 19.091797 18.882812 A 5 5 0 0 1 25.269531 17.550781 L 25.904297 16.755859 A 6 6 0 0 0 23.03125 16.003906 z M 27.46875 18 L 26.835938 18.794922 A 5 5 0 0 1 26.908203 25.117188 A 5 5 0 0 1 20.730469 26.449219 L 20.095703 27.244141 A 6 6 0 0 0 27.691406 25.742188 A 6 6 0 0 0 27.46875 18 z "
     class="ColorScheme-Text"
     />
</svg>
