<svg xmlns="http://www.w3.org/2000/svg" viewBox="0 0 32 32">
  <defs
     id="defs3051">
    <style
       type="text/css"
       id="current-color-scheme">
      .ColorScheme-Text {
        color:#232629;
      }
      </style>
  </defs>
  <path
     style="fill:currentColor;fill-opacity:1;stroke:none" 
     d="M 6,6 C 4.892,6 4,6.892 4,8 v 3 3 H 3 v 8 3 c 0,1.662 1.338,3 3,3 H 18 V 27 H 6 C 4.892,27 4,26.108 4,25 v -5 -5 h 6 l 4,-4 h 14 v 6 h 1 V 10 H 28 V 9 C 28,8.446 27.554,8 27,8 H 17 L 15,6 H 9 Z m 17,11 v 5 H 18.5 18 v 0.5 0.5 h 0.5 4.5 v 4.5 0.5 h 1 V 27.5 23 H 28.5 29 V 22.5 22 H 28.5 24 V 17.5 17 Z"
     id="path99" 
     class="ColorScheme-Text"
     />
</svg>
