<svg xmlns="http://www.w3.org/2000/svg" viewBox="0 0 32 32">
  <defs id="defs3051">
    <style type="text/css" id="current-color-scheme">
      .ColorScheme-Text {
        color:#232629;
      }
      </style>
  </defs>
 <path style="fill:currentColor;fill-opacity:1;stroke:none" 
     d="M 6 6 C 4.892 6 4 6.892 4 8 L 4 11 L 4 14 L 3 14 L 3 22 L 3 25 C 3 26.662 4.338 28 6 28 L 16 28 L 18 28 L 18 27 L 16 27 L 6 27 C 4.892 27 4 26.108 4 25 L 4 20 L 4 15 L 10 15 L 14 11 L 28 11 L 28 15 L 29 15 L 29 10 L 28 10 L 28 9 C 28 8.446 27.554 8 27 8 L 17 8 L 15 6 L 9 6 L 6 6 z M 23.5 15.996094 L 18.5 20.996094 L 19.207031 21.703125 L 23 17.910156 L 23 28 L 24 28 L 24 17.910156 L 27.792969 21.703125 L 28.5 20.996094 L 24.5 16.996094 L 23.5 15.996094 z "
     class="ColorScheme-Text"
     />
</svg>
